<svg id="Layer_1" data-name="Layer 1" xmlns="http://www.w3.org/2000/svg" viewBox="0 0 512 512"><defs><style>.cls-1,.cls-3{fill:#e6e7e8;}.cls-1,.cls-2,.cls-3{stroke:#fff;stroke-linejoin:round;}.cls-1,.cls-2{fill-rule:evenodd;}.cls-2{fill:#a7a9ac;}</style></defs><path class="cls-1" d="M247.5,88.81c-.37,1.11,1.28,1.67,2.58.37s1.49-2.6,2.6-1.67.74,3.53,2.6,3,3-1.86,3.89-2.41,1.86-.37,3-.74,1.32-1.12,2.42-2,1.09-1.3,2-.38,3.34,1.86,4.27,1.12a12.14,12.14,0,0,1,1.67-1.3c1.11-.74.55-.76,2.41-1.49s1.48-1.28,1.85-2.58,1.12-2.78,2-2.22a37.19,37.19,0,0,0,3.88,2.22c1.3.56,2.42,1.49,3.16,1.67a3.42,3.42,0,0,1,2.6,1.47c1.29,1.49.37,2.41,2.78,2.78s3.73.19,4.64-.74-.2-3,3.51-1.11S304,87,305.51,87.14a7.49,7.49,0,0,1,3.15,1.67s1.13,2.78,2.6,3.71,1.28,1.67,1.28,3.15.19,3.33,2.41,3.88,3.9.92,6.13-.18,3.71-3,5-4.25,2.21-3.71,4.06-4.45a21.19,21.19,0,0,1,7.24-.93c1.11.18,4.1.93,5.75.18A17.85,17.85,0,0,0,347,87l1.3-1.85,2.78-1.3s1.3-1.65.56-3-1.3-1.86-1.3-3,0-2.23-1.12-2.6a3.54,3.54,0,0,1-1.85-.92,5.32,5.32,0,0,1-1.4-2L341.94,71l-.66-1.62-2.41-2.21s-2.36-2.1-3.13-.23-.76,2.81-1.51,2.62-2.41-.74-2.78-1.48-.74-.73-1.11-2a7,7,0,0,0-1.67-3c-.91-1.11-1.29-1.29-1.47-2s-.28.19-.33-1.67a11.24,11.24,0,0,0-.6-3.34,2.24,2.24,0,0,1,0-2,13.42,13.42,0,0,1,1.3-2l.33-2.48,0-1.77a5.29,5.29,0,0,0,2-1.67c1-1.3,1.55-1.67,1.36-2.41s-.86-.29-.33-1.72a7.09,7.09,0,0,1,1.45-2.36l.55-2.23s-.37-1.84-.55-2.58a4.4,4.4,0,0,1-.19-2.23c.19-.92.25-1.54,1.15-1.88s2.56-.34,3.68-1.08.41-.38,1.13-1.67a11.15,11.15,0,0,1,1.65-2.23l1.11-3s-2.15-1-2.47-1.87a18.24,18.24,0,0,1-1.24-3.86c0-.93-1.48-3.53-2.41-3.53s-2.46-.34-3.18-.36-1.83.18-1.83.92.14,2.18-.76,2.85a2,2,0,0,1-1.82.3s-2.6-1.67-3.71-1.67a5,5,0,0,0-2.6.56,7.59,7.59,0,0,1-3.15.34s-1.49,1-1.49-2.2a13.18,13.18,0,0,0-.74-4.64c-.18-1.11-1.11-2.8-1.11-4.08A28.07,28.07,0,0,0,314,1.75a1.42,1.42,0,0,0-2-.6,12.65,12.65,0,0,1-3.41,1.07c-1.6.23-2-.14-3.45,0s-4.08.38-5.57,1.48a26.43,26.43,0,0,0-4.15,4.09,31.49,31.49,0,0,1-1.95,2.76,14.48,14.48,0,0,0-1.3,1.48l-3,1.12a9.24,9.24,0,0,0-3,.74,10.25,10.25,0,0,1-1.41.73,4.67,4.67,0,0,1-3.79,0c-1.83-.93-3.13-1.48-4.62-1.3s-1.77-.58-3.57.82a6.31,6.31,0,0,0-2.36,2.89A18,18,0,0,0,269,21.9a12.94,12.94,0,0,1-.74,3.15l-1.07,2.55A6.93,6.93,0,0,1,266,30.25c-.74.74-.23,2-1.87,1.83s-1.64-.9-2.93-1.83-1.49-1.86-3-1.3a10.13,10.13,0,0,0-2.6,1.48l-1.48,1.12A1.45,1.45,0,0,1,255.65,33a5,5,0,0,1-1.86,3.51c-.74.56-2,3-2.59,3.71A18.22,18.22,0,0,0,249,44.52c-.19.92.18,2.22-.19,3.71s-.93,1.68-1.3,2.78.19,2.77-.74,3.88a27.31,27.31,0,0,0-1.86,2.6l-.64.84s-.08,4.47,0,5.06.27,4.29.27,5.4-.18,5.38,0,6.86.37,4.83.93,5.57a9.9,9.9,0,0,1,1.67,2.58C247.32,84.54,247.87,87.7,247.5,88.81Z"/><path class="cls-1" d="M247.5,88.81c-.37,1.11,1.28,1.67,2.58.37s1.49-2.6,2.6-1.67.74,3.53,2.6,3,3-1.86,3.89-2.41,1.86-.37,3-.74,1.32-1.12,2.42-2,1.09-1.3,2-.38,3.34,1.86,4.27,1.12a12.14,12.14,0,0,1,1.67-1.3c1.11-.74.55-.76,2.41-1.49s1.48-1.28,1.85-2.58,1.12-2.78,2-2.22a37.19,37.19,0,0,0,3.88,2.22c1.3.56,2.42,1.49,3.16,1.67a3.42,3.42,0,0,1,2.6,1.47c1.29,1.49.37,2.41,2.78,2.78s3.73.19,4.64-.74-.2-3,3.51-1.11S304,87,305.51,87.14a7.49,7.49,0,0,1,3.15,1.67s1.13,2.78,2.6,3.71,1.28,1.67,1.28,3.15.19,3.33,2.41,3.88,3.9.92,6.13-.18,3.71-3,5-4.25,2.21-3.71,4.06-4.45a21.19,21.19,0,0,1,7.24-.93c1.11.18,4.1.93,5.75.18A17.85,17.85,0,0,0,347,87l1.3-1.85,2.78-1.3s1.3-1.65.56-3-1.3-1.86-1.3-3,0-2.23-1.12-2.6a3.54,3.54,0,0,1-1.85-.92,5.32,5.32,0,0,1-1.4-2L341.94,71l-.66-1.62-2.41-2.21s-2.36-2.1-3.13-.23-.76,2.81-1.51,2.62-2.41-.74-2.78-1.48-.74-.73-1.11-2a7,7,0,0,0-1.67-3c-.91-1.11-1.29-1.29-1.47-2s-.28.19-.33-1.67a11.24,11.24,0,0,0-.6-3.34,2.24,2.24,0,0,1,0-2,13.42,13.42,0,0,1,1.3-2l.33-2.48,0-1.77a5.29,5.29,0,0,0,2-1.67c1-1.3,1.55-1.67,1.36-2.41s-.86-.29-.33-1.72a7.09,7.09,0,0,1,1.45-2.36l.55-2.23s-.37-1.84-.55-2.58a4.4,4.4,0,0,1-.19-2.23c.19-.92.25-1.54,1.15-1.88s2.56-.34,3.68-1.08.41-.38,1.13-1.67a11.15,11.15,0,0,1,1.65-2.23l1.11-3s-2.15-1-2.47-1.87a18.24,18.24,0,0,1-1.24-3.86c0-.93-1.48-3.53-2.41-3.53s-2.46-.34-3.18-.36-1.83.18-1.83.92.14,2.18-.76,2.85a2,2,0,0,1-1.82.3s-2.6-1.67-3.71-1.67a5,5,0,0,0-2.6.56,7.59,7.59,0,0,1-3.15.34s-1.49,1-1.49-2.2a13.18,13.18,0,0,0-.74-4.64c-.18-1.11-1.11-2.8-1.11-4.08A28.07,28.07,0,0,0,314,1.75a1.42,1.42,0,0,0-2-.6,12.65,12.65,0,0,1-3.41,1.07c-1.6.23-2-.14-3.45,0s-4.08.38-5.57,1.48a26.43,26.43,0,0,0-4.15,4.09,31.49,31.49,0,0,1-1.95,2.76,14.48,14.48,0,0,0-1.3,1.48l-3,1.12a9.24,9.24,0,0,0-3,.74,10.25,10.25,0,0,1-1.41.73,4.67,4.67,0,0,1-3.79,0c-1.83-.93-3.13-1.48-4.62-1.3s-1.77-.58-3.57.82a6.31,6.31,0,0,0-2.36,2.89A18,18,0,0,0,269,21.9a12.94,12.94,0,0,1-.74,3.15l-1.07,2.55A6.93,6.93,0,0,1,266,30.25c-.74.74-.23,2-1.87,1.83s-1.64-.9-2.93-1.83-1.49-1.86-3-1.3a10.13,10.13,0,0,0-2.6,1.48l-1.48,1.12A1.45,1.45,0,0,1,255.65,33a5,5,0,0,1-1.86,3.51c-.74.56-2,3-2.59,3.71A18.22,18.22,0,0,0,249,44.52c-.19.92.18,2.22-.19,3.71s-.93,1.68-1.3,2.78.19,2.77-.74,3.88a27.31,27.31,0,0,0-1.86,2.6l-.64.84s-.08,4.47,0,5.06.27,4.29.27,5.4-.18,5.38,0,6.86.37,4.83.93,5.57a9.9,9.9,0,0,1,1.67,2.58C247.32,84.54,247.87,87.7,247.5,88.81Z"/><path class="cls-1" d="M308.52,89.62a11.79,11.79,0,0,1-.49,4.43c-.74,2.46-1,2.71-.5,5.91s.74,3.94.25,6.15a5.89,5.89,0,0,0,1.23,5.66c1.48,1.73,2,1.48,1.72,3.7s-1.47,2.46-1.47,3.93,1,3.94-.25,4.19-1.48-1.48-3.44-1-2,.74-3.2,1-1-1-1.73,1-.24,1.23-1,3,.74,2.71-1,3.2-1.47-.74-3.2-.25-1.23,1.23-2.46,1.48-1.23.24-2.95-.25-1.73-.74-3-.24a15.63,15.63,0,0,1-2.46.73,7.76,7.76,0,0,0-1,3.94c.24,1.73-1.23.5-.74,2.46s0,2.71,1.72,4.19,2.22,1.48,2.71,3.2,0,2.46.49,4.43,1.73,1.48,1.23,3.2-1.23.49-1.23,2a2.88,2.88,0,0,0,.49,2l1.48,2a25.33,25.33,0,0,1-.49,3.94c-.49,2.7-2,3.44-.25,4.18s1.73,1.72,3.7,1.48a7.91,7.91,0,0,1,3.69.49s2.46-.49,3,1,.49,2.47-.74,3-1.47,2.46-1,3.69,4.43,10.83,4.92,12.8,3,9.11,3.69,11.57,1,5.42,1.73,8.37,1,5.41,2,7.38,1.47,6.16,2.95,8.62a16.16,16.16,0,0,1,2,5.41c.49,1.73.49,2.47,1,3.94a21.33,21.33,0,0,0,1.48,3.45c.74,1.48,1.72,1.72,2.71,2.46s1,.74,1.72,4.19a15.45,15.45,0,0,0,1.72,4.92,29.42,29.42,0,0,1,1.48,4.43,7.71,7.71,0,0,1,.25,1.72s-5.17-2.46-7.88-3.69-2.71-1.48-5.66-2.71-5.42-3-7.14-2.21a13.76,13.76,0,0,0-3.2,1.47c-1,.74.74.25-2.46,1.73s-4.92,2.46-9.6,1.23-4.92-1.73-8.12-1.73a32.08,32.08,0,0,1-7.63-1c-2.22-.49-3.45-.49-4.93-1s-4.18-.74-5.91-2.47-2.46-3.2-4.43-3.69-3.44.25-4.67-2.71-1.48-6.4-1.73-8.86-.73-5.66-.73-5.66a27.47,27.47,0,0,0-.25-5.91c-.49-3.44-2.22-3-1.23-5.17a4.75,4.75,0,0,1,2.46-2.7s-.49-1,1-2.22,3.2-2.46,4.44-1.23.73,2.95,3.93,2.46.25-1.23,1.73-2.21S265,208,265,206.79s-2-3.69-2.95-4.19-.5-.49-3.7-1-4.67-2.71-4.43-4.43,0-3.69.25-6.15-.49-2.22-.25-4.19-.49-1.48.74-2.95a9.85,9.85,0,0,0,1.72-3.2,44.46,44.46,0,0,0-4.67-.5c-1.48,0-3.2.74-4.68-.73s-2.46-3.2-2.21-4.43.24-1.24.49-2.71,1.72-3.94,1.23-5.17-.25-1.23-2.46-1.72-3.2-2-4.19-1.24a18.42,18.42,0,0,0-2.46,2.71s-.74,2-2.46,1-2-2.22-3.69-2.46-2.46-1-3.7-1.73a9.78,9.78,0,0,0-3.2-1l-3.69-2.46s-3.69-2-4.92-2.47-2.22-.24-2.95-1.47a26.86,26.86,0,0,1-2.47-4.68,24.83,24.83,0,0,0-2-3.94l-1.47-3.44a10.68,10.68,0,0,0-2.46-2.71c-2-1.72-3-3.69-4.19-5.42s-2.71-4.43-2.71-4.43-.24-2.46.74-3.44,2.46-1.23,3.2-3,1.73-2.71,1.48-4.18a15.92,15.92,0,0,1,0-3.45c0-1.48.25-3,1.72-3.69a25.06,25.06,0,0,0,5.42-3.94c1.47-1.48.49-1.72,2.71-2.46s2.21.74,3.44-.49a11.8,11.8,0,0,0,2-2.71,2.48,2.48,0,0,1,2,.49,3.79,3.79,0,0,0,3.94.25c1-.74,1.72-1,2-2s-.49-1,1-2,4.19-2.22,6.16-4.43,1-2.46,4.18-3.69a55.22,55.22,0,0,1,5.91-1.73c1.48-.49,3.26-.39,3.72-2.53-.28.32,1.5,2.39,2.83.13.09-.06,1.65-3.78,2.84-1.43s1.69,3.34,3.9,2.11S261,87.4,261,87.4l1.13-.07,2.42-2L265.69,84l2.46,2,2.7.1,2-2.32,2.95-1L277.26,79l1.56-.6s2.68,1.39,3.88,2.22a22.83,22.83,0,0,0,3.91,1.82l1.85,1.32s.37,2.13,1.35,2.13,3.2,1,4.43.49A3.41,3.41,0,0,0,296,84.7l1.47-.25,3.2.74,3.69,1.72,2.22.49,2.11,1.41Z"/><path class="cls-1" d="M308.52,89.62a11.79,11.79,0,0,1-.49,4.43c-.74,2.46-1,2.71-.5,5.91s.74,3.94.25,6.15a5.89,5.89,0,0,0,1.23,5.66c1.48,1.73,2,1.48,1.72,3.7s-1.47,2.46-1.47,3.93,1,3.94-.25,4.19-1.48-1.48-3.44-1-2,.74-3.2,1-1-1-1.73,1-.24,1.23-1,3,.74,2.71-1,3.2-1.47-.74-3.2-.25-1.23,1.23-2.46,1.48-1.23.24-2.95-.25-1.73-.74-3-.24a15.63,15.63,0,0,1-2.46.73,7.76,7.76,0,0,0-1,3.94c.24,1.73-1.23.5-.74,2.46s0,2.71,1.72,4.19,2.22,1.48,2.71,3.2,0,2.46.49,4.43,1.73,1.48,1.23,3.2-1.23.49-1.23,2a2.88,2.88,0,0,0,.49,2l1.48,2a25.33,25.33,0,0,1-.49,3.94c-.49,2.7-2,3.44-.25,4.18s1.73,1.72,3.7,1.48a7.91,7.91,0,0,1,3.69.49s2.46-.49,3,1,.49,2.47-.74,3-1.47,2.46-1,3.69,4.43,10.83,4.92,12.8,3,9.11,3.69,11.57,1,5.42,1.73,8.37,1,5.41,2,7.38,1.47,6.16,2.95,8.62a16.16,16.16,0,0,1,2,5.41c.49,1.73.49,2.47,1,3.94a21.33,21.33,0,0,0,1.48,3.45c.74,1.48,1.72,1.72,2.71,2.46s1,.74,1.72,4.19a15.45,15.45,0,0,0,1.72,4.92,29.42,29.42,0,0,1,1.48,4.43,7.71,7.71,0,0,1,.25,1.72s-5.17-2.46-7.88-3.69-2.71-1.48-5.66-2.71-5.42-3-7.14-2.21a13.76,13.76,0,0,0-3.2,1.47c-1,.74.74.25-2.46,1.73s-4.92,2.46-9.6,1.23-4.92-1.73-8.12-1.73a32.08,32.08,0,0,1-7.63-1c-2.22-.49-3.45-.49-4.93-1s-4.18-.74-5.91-2.47-2.46-3.2-4.43-3.69-3.44.25-4.67-2.71-1.48-6.4-1.73-8.86-.73-5.66-.73-5.66a27.47,27.47,0,0,0-.25-5.91c-.49-3.44-2.22-3-1.23-5.17a4.75,4.75,0,0,1,2.46-2.7s-.49-1,1-2.22,3.2-2.46,4.44-1.23.73,2.95,3.93,2.46.25-1.23,1.73-2.21S265,208,265,206.79s-2-3.69-2.95-4.19-.5-.49-3.7-1-4.67-2.71-4.43-4.43,0-3.69.25-6.15-.49-2.22-.25-4.19-.49-1.48.74-2.95a9.85,9.85,0,0,0,1.72-3.2,44.46,44.46,0,0,0-4.67-.5c-1.48,0-3.2.74-4.68-.73s-2.46-3.2-2.21-4.43.24-1.24.49-2.71,1.72-3.94,1.23-5.17-.25-1.23-2.46-1.72-3.2-2-4.19-1.24a18.42,18.42,0,0,0-2.46,2.71s-.74,2-2.46,1-2-2.22-3.69-2.46-2.46-1-3.7-1.73a9.78,9.78,0,0,0-3.2-1l-3.69-2.46s-3.69-2-4.92-2.47-2.22-.24-2.95-1.47a26.86,26.86,0,0,1-2.47-4.68,24.83,24.83,0,0,0-2-3.94l-1.47-3.44a10.68,10.68,0,0,0-2.46-2.71c-2-1.72-3-3.69-4.19-5.42s-2.71-4.43-2.71-4.43-.24-2.46.74-3.44,2.46-1.23,3.2-3,1.73-2.71,1.48-4.18a15.92,15.92,0,0,1,0-3.45c0-1.48.25-3,1.72-3.69a25.06,25.06,0,0,0,5.42-3.94c1.47-1.48.49-1.72,2.71-2.46s2.21.74,3.44-.49a11.8,11.8,0,0,0,2-2.71,2.48,2.48,0,0,1,2,.49,3.79,3.79,0,0,0,3.94.25c1-.74,1.72-1,2-2s-.49-1,1-2,4.19-2.22,6.16-4.43,1-2.46,4.18-3.69a55.22,55.22,0,0,1,5.91-1.73c1.48-.49,3.26-.39,3.72-2.53-.28.32,1.5,2.39,2.83.13.09-.06,1.65-3.78,2.84-1.43s1.69,3.34,3.9,2.11S261,87.4,261,87.4l1.13-.07,2.42-2L265.69,84l2.46,2,2.7.1,2-2.32,2.95-1L277.26,79l1.56-.6s2.68,1.39,3.88,2.22a22.83,22.83,0,0,0,3.91,1.82l1.85,1.32s.37,2.13,1.35,2.13,3.2,1,4.43.49A3.41,3.41,0,0,0,296,84.7l1.47-.25,3.2.74,3.69,1.72,2.22.49,2.11,1.41Z"/><path class="cls-1" d="M308.66,88.81l-.28,2.64-1.2,5.6s.4,4.55.6,6a16.15,16.15,0,0,1,0,3.11c0,1.3-.8,3.3.4,4.7s2.2,2.8,2.2,2.8l.35,1.86-1.47,3.93.12,3.36s-.6,1.2-1.6.6-1-.91-2.21-.76a12.42,12.42,0,0,0-2.19.56,2.19,2.19,0,0,0-1,.43l-1.39-.23-1,3-.8,2.4s1,2.29-2,2a3.54,3.54,0,0,0-2.23,0,9.24,9.24,0,0,0-2,1.21,12.06,12.06,0,0,1-1.63-.16,10.13,10.13,0,0,1-2.1-.3c-.9-.3-1-.3-1.66,0a3.55,3.55,0,0,1-1.5.45c-.9.15-1.31-.39-1.48.25a13.87,13.87,0,0,1-.77,1.86l-.15,1.5v1.2l-.6.75s0,3.61.6,4.36a9.24,9.24,0,0,0,2.1,2.1c.6.3.95,1.35,1.53,2s.12,2,.27,2.92a8.26,8.26,0,0,0,1.21,3.15c.6.75.64,1,.24,1.56s-1,1.45-1,1.45v1.65l1.73,2.81a22.54,22.54,0,0,1-.49,3.94,19.08,19.08,0,0,0-.64,2.39l-.3,1.51,2.85,1.95h3.46l2.53.15s2.25.3,2.7,1.8.3,1.81-.45,2.11a3.91,3.91,0,0,0-1.35,1.05,28.42,28.42,0,0,0,4.81-.15,13.76,13.76,0,0,1,3.3-.15s2.86.9,2.56-.15a5,5,0,0,1-.15-2.56,4.12,4.12,0,0,1,1.05-1.8,3.68,3.68,0,0,0,1.95-1.35c.45-.9,1.33-.45,1.78-1.05s1.06-.3,1.66-.6,1.65-.76,1.8.15.15,1.95.9,2.25,1.05,1,2,.45a3,3,0,0,0,1.51-2.1c.15-.9-.45-.6,1.35-2s1.05-2.57,1.2-3.15.45-.58-.6-1.33-1.8-1.35-2.55-1.2a1.36,1.36,0,0,1-1.51-1.06,6.31,6.31,0,0,1,.15-4,11.63,11.63,0,0,0,1.51-3.91c.15-1.35.45-2.68.9-4.94s1.2-2.55,1.35-3.75-.45-2.41.6-3a3.32,3.32,0,0,1,2.4-.15,3.76,3.76,0,0,0,1.36-1.05c.6-.75-.18-1.05,1.33-1.5a4.79,4.79,0,0,0,2.4-2.1s1.65-2.11,3-1.66,2.7,1.36,3.45.15,2-3.58,2-3.58a22.18,22.18,0,0,1-.45-4.66c.15-1.65.3-.75-.45-2.7s-.9-2.41-.6-3.76-.3-1.22-.45-2.85.15-2.84,1.35-3.59,2.56-.75,1.81-2.1-2.11-1.35-2.11-3.61a32.43,32.43,0,0,1,.45-4.65c.15-1.51-1.8-.93.45-2.41a7.22,7.22,0,0,0,2.86-3.13s.47-1.65,1.05-2,1.78-.46,2.23-1.51,1.66-3.6,1.35-4.2a1.1,1.1,0,0,1,0-1,4.7,4.7,0,0,1-3.27,2.85,13.61,13.61,0,0,1-5.56,0,12.3,12.3,0,0,0-5.26,0,9.42,9.42,0,0,0-5.08,3c-1.66,1.66-2,2.86-3.76,4.21s-3,3-5,2.83-5.56.48-6-1.63a14.28,14.28,0,0,1-.45-3.45,8.29,8.29,0,0,0-.15-1.35,10.06,10.06,0,0,1-2.38-2.26A23.52,23.52,0,0,0,308.66,88.81Z"/><path class="cls-1" d="M308.66,88.81l-.28,2.64-1.2,5.6s.4,4.55.6,6a16.15,16.15,0,0,1,0,3.11c0,1.3-.8,3.3.4,4.7s2.2,2.8,2.2,2.8l.35,1.86-1.47,3.93.12,3.36s-.6,1.2-1.6.6-1-.91-2.21-.76a12.42,12.42,0,0,0-2.19.56,2.19,2.19,0,0,0-1,.43l-1.39-.23-1,3-.8,2.4s1,2.29-2,2a3.54,3.54,0,0,0-2.23,0,9.24,9.24,0,0,0-2,1.21,12.06,12.06,0,0,1-1.63-.16,10.13,10.13,0,0,1-2.1-.3c-.9-.3-1-.3-1.66,0a3.55,3.55,0,0,1-1.5.45c-.9.15-1.31-.39-1.48.25a13.87,13.87,0,0,1-.77,1.86l-.15,1.5v1.2l-.6.75s0,3.61.6,4.36a9.24,9.24,0,0,0,2.1,2.1c.6.3.95,1.35,1.53,2s.12,2,.27,2.92a8.26,8.26,0,0,0,1.21,3.15c.6.75.64,1,.24,1.56s-1,1.45-1,1.45v1.65l1.73,2.81a22.54,22.54,0,0,1-.49,3.94,19.08,19.08,0,0,0-.64,2.39l-.3,1.51,2.85,1.95h3.46l2.53.15s2.25.3,2.7,1.8.3,1.81-.45,2.11a3.91,3.91,0,0,0-1.35,1.05,28.42,28.42,0,0,0,4.81-.15,13.76,13.76,0,0,1,3.3-.15s2.86.9,2.56-.15a5,5,0,0,1-.15-2.56,4.12,4.12,0,0,1,1.05-1.8,3.68,3.68,0,0,0,1.95-1.35c.45-.9,1.33-.45,1.78-1.05s1.06-.3,1.66-.6,1.65-.76,1.8.15.15,1.95.9,2.25,1.05,1,2,.45a3,3,0,0,0,1.51-2.1c.15-.9-.45-.6,1.35-2s1.05-2.57,1.2-3.15.45-.58-.6-1.33-1.8-1.35-2.55-1.2a1.36,1.36,0,0,1-1.51-1.06,6.31,6.31,0,0,1,.15-4,11.63,11.63,0,0,0,1.51-3.91c.15-1.35.45-2.68.9-4.94s1.2-2.55,1.35-3.75-.45-2.41.6-3a3.32,3.32,0,0,1,2.4-.15,3.76,3.76,0,0,0,1.36-1.05c.6-.75-.18-1.05,1.33-1.5a4.79,4.79,0,0,0,2.4-2.1s1.65-2.11,3-1.66,2.7,1.36,3.45.15,2-3.58,2-3.58a22.18,22.18,0,0,1-.45-4.66c.15-1.65.3-.75-.45-2.7s-.9-2.41-.6-3.76-.3-1.22-.45-2.85.15-2.84,1.35-3.59,2.56-.75,1.81-2.1-2.11-1.35-2.11-3.61a32.43,32.43,0,0,1,.45-4.65c.15-1.51-1.8-.93.45-2.41a7.22,7.22,0,0,0,2.86-3.13s.47-1.65,1.05-2,1.78-.46,2.23-1.51,1.66-3.6,1.35-4.2a1.1,1.1,0,0,1,0-1,4.7,4.7,0,0,1-3.27,2.85,13.61,13.61,0,0,1-5.56,0,12.3,12.3,0,0,0-5.26,0,9.42,9.42,0,0,0-5.08,3c-1.66,1.66-2,2.86-3.76,4.21s-3,3-5,2.83-5.56.48-6-1.63a14.28,14.28,0,0,1-.45-3.45,8.29,8.29,0,0,0-.15-1.35,10.06,10.06,0,0,1-2.38-2.26A23.52,23.52,0,0,0,308.66,88.81Z"/><path class="cls-1" d="M325.26,256.51l4.84,2.4,3.74-3.29s13.26-9.23,13.51-11.47,1.25-8.27,1.25-9.77.75-3,.5-4.49-1.16-3.7-.7-6.61.7-14.92.7-14.92.34-2.81-.7-4.52a5.89,5.89,0,0,1-1-2.71s2.75-.75,3.25-2.25,2.19-5.47,3.21-6.12,1.27-3.15,1.52-4.39a28.25,28.25,0,0,1,1.5-4.24,12.1,12.1,0,0,0,.5-3.49l.25-2.5s3.91-8.23,5.09-10a17.7,17.7,0,0,0,2.43-7.54c0-2-.5-7.23.5-10s.5-8,1-9,.75-3.74,1-4.73-.25-3.7.74-6.24a20.17,20.17,0,0,0,1.5-6.28c0-1.24.5-5,.5-5l.21-2.92,11.08.74a3.63,3.63,0,0,0,.22-2.85,12.4,12.4,0,0,1,0-4.49s.25-1.25.5-2.25-.5-2.24-1-3.24a14.21,14.21,0,0,0-1.24-2l-.89-1.27a7.16,7.16,0,0,0-6.89-2.52c-4.48.79-5.18,1-6.45.11s-7.05-3.35-7.05-3.35l-5.49-3.24-3.22-2.28L347,87s-.47,4.85-3.57,6.76c-.1.15-1.85,3.15-1.85,3.15l-3.26,2.73.75,1.61-.45,4.65.46,1.51,1.65,2.1s.8,1.3-1.81,2.1c.16.06-1.35,1.31-1.35,1.31v2.28l.5,1.45-.25,3,1.51,3.76-.26,1.1.26,1.66.19,3-2.7,4.48-3.76-1.25-1.95,1.86-3.73,3.6L326,138.86l-3.45.51L323,142l-1.35,3.75-.9,4.94-1.51,3.91-.45,2.5,1,2.51,3.36,1.3.9,2.68-2.75,3s-1,3-2.76,3c-.25.25-2.15-1.45-1.7-2.85.45-.16-1.06-1.16-1.06-1.16a9.52,9.52,0,0,1-2.4,1.61,26.12,26.12,0,0,0-3.73,2.4l-1.05,1.8.15,2.56-4.21.4-5.91-.82-1.36,1.82.76,3s7.51,20,8.26,24.27c.51,2.51,1.76,9.74,3,12.75s3.23,11,4.73,13c1,2.5,2,9.8,4.26,11.77a29.73,29.73,0,0,0,3,2.73l.47,2.56,2.78,8.21Z"/><path class="cls-1" d="M325.26,256.51l4.84,2.4,3.74-3.29s13.26-9.23,13.51-11.47,1.25-8.27,1.25-9.77.75-3,.5-4.49-1.16-3.7-.7-6.61.7-14.92.7-14.92.34-2.81-.7-4.52a5.89,5.89,0,0,1-1-2.71s2.75-.75,3.25-2.25,2.19-5.47,3.21-6.12,1.27-3.15,1.52-4.39a28.25,28.25,0,0,1,1.5-4.24,12.1,12.1,0,0,0,.5-3.49l.25-2.5s3.91-8.23,5.09-10a17.7,17.7,0,0,0,2.43-7.54c0-2-.5-7.23.5-10s.5-8,1-9,.75-3.74,1-4.73-.25-3.7.74-6.24a20.17,20.17,0,0,0,1.5-6.28c0-1.24.5-5,.5-5l.21-2.92,11.08.74a3.63,3.63,0,0,0,.22-2.85,12.4,12.4,0,0,1,0-4.49s.25-1.25.5-2.25-.5-2.24-1-3.24a14.21,14.21,0,0,0-1.24-2l-.89-1.27a7.16,7.16,0,0,0-6.89-2.52c-4.48.79-5.18,1-6.45.11s-7.05-3.35-7.05-3.35l-5.49-3.24-3.22-2.28L347,87s-.47,4.85-3.57,6.76c-.1.15-1.85,3.15-1.85,3.15l-3.26,2.73.75,1.61-.45,4.65.46,1.51,1.65,2.1s.8,1.3-1.81,2.1c.16.06-1.35,1.31-1.35,1.31v2.28l.5,1.45-.25,3,1.51,3.76-.26,1.1.26,1.66.19,3-2.7,4.48-3.76-1.25-1.95,1.86-3.73,3.6L326,138.86l-3.45.51L323,142l-1.35,3.75-.9,4.94-1.51,3.91-.45,2.5,1,2.51,3.36,1.3.9,2.68-2.75,3s-1,3-2.76,3c-.25.25-2.15-1.45-1.7-2.85.45-.16-1.06-1.16-1.06-1.16a9.52,9.52,0,0,1-2.4,1.61,26.12,26.12,0,0,0-3.73,2.4l-1.05,1.8.15,2.56-4.21.4-5.91-.82-1.36,1.82.76,3s7.51,20,8.26,24.27c.51,2.51,1.76,9.74,3,12.75s3.23,11,4.73,13c1,2.5,2,9.8,4.26,11.77a29.73,29.73,0,0,0,3,2.73l.47,2.56,2.78,8.21Z"/><path class="cls-1" d="M206.86,144.27l-2.71,3.44L204,158.88l.11,7.29,1.65,2.2L204,172.13s-1,2.78.6,4.63c.16.13-1,6.15-1,6.15a6.8,6.8,0,0,1-1,5.88c-.4.8-2,2.29-.68,4.9.88,1.41,1.21,3.82-1.41,5.63a7.49,7.49,0,0,1-4.42.8l-2.21.81-2.06-1s1.07,2.14-.45,5.3-3.32,7.66-1.31,9.07,1.81,4.22,1.61,5.22-1.41,4.83-2.21,5a5.8,5.8,0,0,1-2.41-.4l.4,4.7a6.69,6.69,0,0,0,3.22,2.21c1.81.4,6.55,0,9.64,2.81a29.81,29.81,0,0,0,5.91,4.22c1.2.81,10.33,3.7,13.14,4.5s6.83,1.81,6.83,1.81,6.31-3.69,8.92-5.3,8.45-6,10.25-7.24a70.85,70.85,0,0,0,5.71-4.82s.2-7.52-.2-8.52-1.41-2.21-1.41-3-.2-2.21,1-3a7.72,7.72,0,0,0,1.8-1.61l2.22-2.49s1.89-1.36,3.06-.34,1,2.23,2.16,2.43,2.81.6,3-.2.48-2,.48-2,1.71-.44,1.72-1.48a4.44,4.44,0,0,0-2.2-3.45,30,30,0,0,0-2.82-1.41s-3.62-.4-4.42-1.81-1.81-1.33-1.61-5-.06-7.17,0-8.25a10.62,10.62,0,0,0-.17-2.08l2.63-4.07s-2.23-.15-3.43-.35-2.62-.4-2.62-.4S248,181,247,179.47s-2.8-3-2.2-5.43c.4-.8,0-2,.6-3s1.41-4.22,0-5-4.22-2-4.22-2a2.41,2.41,0,0,0-2.41.81,10.23,10.23,0,0,0-1.37,2.11c-.44.7-1.19,2.08-2.46,1A16.45,16.45,0,0,0,232,166s.78-.13-.81-.56-2.4-.64-2.4-.64l-1.3-1.09-3.2-1s-6.37-4.6-8.61-4.93c.37-.11-3.25.09-3.85-2.73-.41-1-2.42-5-2.42-5l-1.12-2.34Z"/><path class="cls-1" d="M206.86,144.27l-2.71,3.44L204,158.88l.11,7.29,1.65,2.2L204,172.13s-1,2.78.6,4.63c.16.13-1,6.15-1,6.15a6.8,6.8,0,0,1-1,5.88c-.4.8-2,2.29-.68,4.9.88,1.41,1.21,3.82-1.41,5.63a7.49,7.49,0,0,1-4.42.8l-2.21.81-2.06-1s1.07,2.14-.45,5.3-3.32,7.66-1.31,9.07,1.81,4.22,1.61,5.22-1.41,4.83-2.21,5a5.8,5.8,0,0,1-2.41-.4l.4,4.7a6.69,6.69,0,0,0,3.22,2.21c1.81.4,6.55,0,9.64,2.81a29.81,29.81,0,0,0,5.91,4.22c1.2.81,10.33,3.7,13.14,4.5s6.83,1.81,6.83,1.81,6.31-3.69,8.92-5.3,8.45-6,10.25-7.24a70.85,70.85,0,0,0,5.71-4.82s.2-7.52-.2-8.52-1.41-2.21-1.41-3-.2-2.21,1-3a7.72,7.72,0,0,0,1.8-1.61l2.22-2.49s1.89-1.36,3.06-.34,1,2.23,2.16,2.43,2.81.6,3-.2.48-2,.48-2,1.71-.44,1.72-1.48a4.44,4.44,0,0,0-2.2-3.45,30,30,0,0,0-2.82-1.41s-3.62-.4-4.42-1.81-1.81-1.33-1.61-5-.06-7.17,0-8.25a10.62,10.62,0,0,0-.17-2.08l2.63-4.07s-2.23-.15-3.43-.35-2.62-.4-2.62-.4S248,181,247,179.47s-2.8-3-2.2-5.43c.4-.8,0-2,.6-3s1.41-4.22,0-5-4.22-2-4.22-2a2.41,2.41,0,0,0-2.41.81,10.23,10.23,0,0,0-1.37,2.11c-.44.7-1.19,2.08-2.46,1A16.45,16.45,0,0,0,232,166s.78-.13-.81-.56-2.4-.64-2.4-.64l-1.3-1.09-3.2-1s-6.37-4.6-8.61-4.93c.37-.11-3.25.09-3.85-2.73-.41-1-2.42-5-2.42-5l-1.12-2.34Z"/><path class="cls-1" d="M226,269.37a3.83,3.83,0,0,1-3,.2c-1.61-.6-2-.6-2.41-1.41a5.86,5.86,0,0,0-2-2c-.68-.4-1.89-1.2-1.89-1.2a10.08,10.08,0,0,0-3.62.6c-1,.6-3.82,1.41-5.63.8a13.09,13.09,0,0,1-3.41-1.8c-1-.61-2.89-2.82-4.5-2.22s-2.61,1.41-3.82,1.41-2.81-.8-4.22.4l-4.22,3.62s-1.48.6-2.69,1.21-3.62,1-4.82,1.81a29.07,29.07,0,0,1-4,2.28c-1,.41-4.43,1.41-4.43,1.41l.21-8.12s3-3.41,4.22-3.81,4-4.15,4.42-5.43,1.81-5.71,2.21-6.51,2.54,0,3.62.2,3.89,1.81,7.11,2.61,3.82,2,5.63,2a33.49,33.49,0,0,0,5.3-.8s1-4.42,1.2-5.43a24.83,24.83,0,0,0,.81-4.42c0-1.41-.61-7.31-.61-7.31l10,3.69,10.73,3.22s1.21,5.63-.2,6.43-2.21,4.1,0,6.11,5,4.62,5,4.62a2.77,2.77,0,0,0,1.61.4c1.08,0,3.69-.4,2.68,1.41a9.58,9.58,0,0,1-1.2,2s-1.69-.2-2.29.6a5.44,5.44,0,0,1-2.41,1.81C228.42,268.16,226,269.37,226,269.37Z"/><path class="cls-1" d="M226,269.37a3.83,3.83,0,0,1-3,.2c-1.61-.6-2-.6-2.41-1.41a5.86,5.86,0,0,0-2-2c-.68-.4-1.89-1.2-1.89-1.2a10.08,10.08,0,0,0-3.62.6c-1,.6-3.82,1.41-5.63.8a13.09,13.09,0,0,1-3.41-1.8c-1-.61-2.89-2.82-4.5-2.22s-2.61,1.41-3.82,1.41-2.81-.8-4.22.4l-4.22,3.62s-1.48.6-2.69,1.21-3.62,1-4.82,1.81a29.07,29.07,0,0,1-4,2.28c-1,.41-4.43,1.41-4.43,1.41l.21-8.12s3-3.41,4.22-3.81,4-4.15,4.42-5.43,1.81-5.71,2.21-6.51,2.54,0,3.62.2,3.89,1.81,7.11,2.61,3.82,2,5.63,2a33.49,33.49,0,0,0,5.3-.8s1-4.42,1.2-5.43a24.83,24.83,0,0,0,.81-4.42c0-1.41-.61-7.31-.61-7.31l10,3.69,10.73,3.22s1.21,5.63-.2,6.43-2.21,4.1,0,6.11,5,4.62,5,4.62a2.77,2.77,0,0,0,1.61.4c1.08,0,3.69-.4,2.68,1.41a9.58,9.58,0,0,1-1.2,2s-1.69-.2-2.29.6a5.44,5.44,0,0,1-2.41,1.81C228.42,268.16,226,269.37,226,269.37Z"/><path class="cls-1" d="M145.23,328.36c1.61-.4,9.33-2.61,12.94-3.41s7.77-1.61,10.46-2.21,5.5-.73,8.92-2.82a21.75,21.75,0,0,0,7.83-7.71c1.49-2.82,8.12-13.95,9.93-16.36s4.62-6.76,5.43-7.64a19.46,19.46,0,0,0,1.88-2.89s5.23.2,5.83-.6,1.41-2,2.21-3,3.22-3.22,3.82-6.23a17.27,17.27,0,0,0,.2-5.51s-.6-1,.8-2a3.54,3.54,0,0,0,1.21-3,10.68,10.68,0,0,0-3.62.6c-1.2.6-4.82.8-5.63.8s-2-1-3.41-1.8-1.49-2-3.29-2a6.2,6.2,0,0,0-3.42.8,5.52,5.52,0,0,1-3,.4c-1.2,0-2.61-.2-3.81,1a19.08,19.08,0,0,1-3.22,3c-1.28.81-.88,1-2.69,1.21a16.44,16.44,0,0,0-5.83,1.81c-1.2.8-.8,1.68-3,2.28s-4.43,1.41-4.43,1.41.13.4-1.68,1-5.83,2.61-9.25,4.22a30,30,0,0,1-8.11,2.81c-1.81.2-6.43.8-6.43.8l-.2,18.57s-4.63,5.3-2.82,6.91,8,3.22,6.43,4.42-5.83,4.5-5.83,6.51S143.63,328.77,145.23,328.36Z"/><path class="cls-1" d="M145.23,328.36c1.61-.4,9.33-2.61,12.94-3.41s7.77-1.61,10.46-2.21,5.5-.73,8.92-2.82a21.75,21.75,0,0,0,7.83-7.71c1.49-2.82,8.12-13.95,9.93-16.36s4.62-6.76,5.43-7.64a19.46,19.46,0,0,0,1.88-2.89s5.23.2,5.83-.6,1.41-2,2.21-3,3.22-3.22,3.82-6.23a17.27,17.27,0,0,0,.2-5.51s-.6-1,.8-2a3.54,3.54,0,0,0,1.21-3,10.68,10.68,0,0,0-3.62.6c-1.2.6-4.82.8-5.63.8s-2-1-3.41-1.8-1.49-2-3.29-2a6.2,6.2,0,0,0-3.42.8,5.52,5.52,0,0,1-3,.4c-1.2,0-2.61-.2-3.81,1a19.08,19.08,0,0,1-3.22,3c-1.28.81-.88,1-2.69,1.21a16.44,16.44,0,0,0-5.83,1.81c-1.2.8-.8,1.68-3,2.28s-4.43,1.41-4.43,1.41.13.4-1.68,1-5.83,2.61-9.25,4.22a30,30,0,0,1-8.11,2.81c-1.81.2-6.43.8-6.43.8l-.2,18.57s-4.63,5.3-2.82,6.91,8,3.22,6.43,4.42-5.83,4.5-5.83,6.51S143.63,328.77,145.23,328.36Z"/><path class="cls-1" d="M181.77,317.43s2.53,4.9,4,5.71,6.91,2,8.92,2.21,5.42.6,5.42.6.33-1.61,1.61-1.61,3.9,1,6.71,1.61a23.34,23.34,0,0,0,7,.81c2-.2,4.7-1,4.7-2.42s3-14.47,4.63-18.16,2-6.71,2.81-8.92,2-5.55,3-8.24.92-4.7,2.21-7.92,2.89-8,2.89-8a8.21,8.21,0,0,0-4.7-1.48h-3l-2-2.21s.2.8-1.2.6a9.33,9.33,0,0,1-2.82-1s-1-.2-1.81-1.81a39.66,39.66,0,0,1-3.49-2.21l.2,1-2.21,4s1,4.9-1.21,7.92-4,5-4,5l-1,1.81-5.83.6-10.93,15.15-6.31,11.74-1.81,2.61Z"/><path class="cls-1" d="M181.77,317.43s2.53,4.9,4,5.71,6.91,2,8.92,2.21,5.42.6,5.42.6.33-1.61,1.61-1.61,3.9,1,6.71,1.61a23.34,23.34,0,0,0,7,.81c2-.2,4.7-1,4.7-2.42s3-14.47,4.63-18.16,2-6.71,2.81-8.92,2-5.55,3-8.24.92-4.7,2.21-7.92,2.89-8,2.89-8a8.21,8.21,0,0,0-4.7-1.48h-3l-2-2.21s.2.8-1.2.6a9.33,9.33,0,0,1-2.82-1s-1-.2-1.81-1.81a39.66,39.66,0,0,1-3.49-2.21l.2,1-2.21,4s1,4.9-1.21,7.92-4,5-4,5l-1,1.81-5.83.6-10.93,15.15-6.31,11.74-1.81,2.61Z"/><path class="cls-1" d="M219.58,325.55s3.42,2.61,5.23,2.61,3.82-.4,5.62.61,1.69,1.6,4.1,2a39.1,39.1,0,0,0,8,.6,7.15,7.15,0,0,0,4.22-1.61c1.21-1,2.69-3.21,3.9-3.62s1.81-.2,3-.6,1-.6,1.81-1,1.21.4,2.41-1.21,2.82-3.42,2.82-3.42,3.74-.68,4.22-1.88-1.74-2,1.28-2.21,2.41,1.6,4-.41,1.41-2.81,3-3.21,2.42-.2,3.22-1.21,1.41-1.61,1.41-1.61l-5.63-2.61-.8-4.3h-6.92s1,.21-1.6-1.2-.61-2-5.63-2.82a28.44,28.44,0,0,1-10.13-3.61c-1.2-.81-2.61-1.21-3-2.21s.4-3,.4-3-.8.53,0-2.49c.6-1.81,1.21-4,1.21-4l-2-4.82s.4-1.21-2-1.21h-2.42s-2-.6-2-2a8.34,8.34,0,0,0-.4-1.2l-1.2-.81-3.5,9.65-.8,4.22-3.22,8.72-1.81,7L223.8,309,221,319.32l-.81,5Z"/><path class="cls-1" d="M219.58,325.55s3.42,2.61,5.23,2.61,3.82-.4,5.62.61,1.69,1.6,4.1,2a39.1,39.1,0,0,0,8,.6,7.15,7.15,0,0,0,4.22-1.61c1.21-1,2.69-3.21,3.9-3.62s1.81-.2,3-.6,1-.6,1.81-1,1.21.4,2.41-1.21,2.82-3.42,2.82-3.42,3.74-.68,4.22-1.88-1.74-2,1.28-2.21,2.41,1.6,4-.41,1.41-2.81,3-3.21,2.42-.2,3.22-1.21,1.41-1.61,1.41-1.61l-5.63-2.61-.8-4.3h-6.92s1,.21-1.6-1.2-.61-2-5.63-2.82a28.44,28.44,0,0,1-10.13-3.61c-1.2-.81-2.61-1.21-3-2.21s.4-3,.4-3-.8.53,0-2.49c.6-1.81,1.21-4,1.21-4l-2-4.82s.4-1.21-2-1.21h-2.42s-2-.6-2-2a8.34,8.34,0,0,0-.4-1.2l-1.2-.81-3.5,9.65-.8,4.22-3.22,8.72-1.81,7L223.8,309,221,319.32l-.81,5Z"/><path class="cls-1" d="M333.84,255.62a7.18,7.18,0,0,0,3.86-.4c2-.8,3.8-1.42,3.8-1.42l1.42-.59s1.55-1.22,2.62-1.11c-.33.11-.33,2.12-.33,2.12l1.81,1-.4,2.69-.61,1,.2,2.81L344.28,263l-1.16,2.71-1.4,1.81-.81,1-.6,3.21a24,24,0,0,0-1.41,3.49c-.2,1-1,4.23-.6,5a2,2,0,0,0,1.1,1,7.54,7.54,0,0,0,.71,4c1,2.21,3.09,4.7,4.9,7.92a17,17,0,0,1,1.81,8.84c-.2,1.21.8,9.73-.4,10.73s-4.1.81-5.71,2.41-2.21,4.9-2.81,6.51a30,30,0,0,0-2,6.84c-.2,2.21-1,5.1-1.21,6.5a63.06,63.06,0,0,0,.2,6.44c0,.8,1.21.6.61,2.61s-.41,4.42-3,4.62-3.69,0-5.3.6-3-.12-4.22,2.09-.61,3.82-1.41,5.63-1.81,1.61-2,3,.4,3.75-.6,5.43-2.82,1.68-3.22,4.1-.12,2.81-1.81,4.22-3.29,3-2.89,5,.4,2.69-.6,4.1a6.82,6.82,0,0,0-1.21,3.82,10.74,10.74,0,0,1-.4,4.82c-.8,2-1.61,5.3-.2,7.31s2.81,3.62,2.81,5.63.41,3.82-.4,5.23a27.07,27.07,0,0,1-3,3.82c-.61.67-2.41.67-3.82.67s-17.56-.4-17.56-.4a10.42,10.42,0,0,1,.2-3.29c.4-1.81-1-3.82-1.21-5a24.32,24.32,0,0,1,0-3.82,7.58,7.58,0,0,1,1.41-3.9c.6-.8-.2,0,.6-2.81s1.41-3.62,1-6-1.21-3.34-1.21-5.23-.6-3.09-.4-4.9.8-1.81.8-4.62.2-2.21.81-4.62,1-4.5,1-4.5l3-4.42a6.73,6.73,0,0,0,1.8-2.82c.61-1.81,1-1.2.81-2.81a31,31,0,0,0-.81-4.3c-.4-1.61-1.6-1.61-2.21-2.41s-1.2-.8-1.4-2.41a5.29,5.29,0,0,0-.81-2.41s-1.61-1.81-.6-3a7,7,0,0,0,1.41-5c-.2-1.89-1-4.9-2.21-5.91s-1.41-.6-1.61-2.81-2.61-1-2.41-3.62-.61-2.69.4-4.9a31.77,31.77,0,0,0,1.61-4.62,5.6,5.6,0,0,1,1.6-2.62c1.21-1,.2-1.61,1.61-2.41s1-3.42.4-2.41-1.4,1.2-3,1-2.21-2-3.22,0-.4,1.81-1.6,2.82a4.28,4.28,0,0,1-2.49,1l-2-1.61-5.63-2.61-.8-4.3h-6.92l-3-2.61s-7.16-2.41-10.85-3.21c-1.49-1-5.91-3.22-5.91-3.22s-1-.93-.2-3.82c.4-.2,1.61.4,1.61.4l4.09-1.81a7.34,7.34,0,0,0,5.23-2.08c1.41-.81,3-2.62,5.63-.61a29.1,29.1,0,0,0,3.62,1.81l3.29.2,1.41.68h4.82l1.61,1,1.2,1.81,3.82,3.62,2.09,3.61a4.09,4.09,0,0,0,4.62,2c.6,0,3.82-3,3.82-3l4-3.42,2.49.81,2.41-.21,3,.61,16.16-21.58.8-1.69,9.77-12.87Z"/><path class="cls-1" d="M333.84,255.62a7.18,7.18,0,0,0,3.86-.4c2-.8,3.8-1.42,3.8-1.42l1.42-.59s1.55-1.22,2.62-1.11c-.33.11-.33,2.12-.33,2.12l1.81,1-.4,2.69-.61,1,.2,2.81L344.28,263l-1.16,2.71-1.4,1.81-.81,1-.6,3.21a24,24,0,0,0-1.41,3.49c-.2,1-1,4.23-.6,5a2,2,0,0,0,1.1,1,7.54,7.54,0,0,0,.71,4c1,2.21,3.09,4.7,4.9,7.92a17,17,0,0,1,1.81,8.84c-.2,1.21.8,9.73-.4,10.73s-4.1.81-5.71,2.41-2.21,4.9-2.81,6.51a30,30,0,0,0-2,6.84c-.2,2.21-1,5.1-1.21,6.5a63.06,63.06,0,0,0,.2,6.44c0,.8,1.21.6.61,2.61s-.41,4.42-3,4.62-3.69,0-5.3.6-3-.12-4.22,2.09-.61,3.82-1.41,5.63-1.81,1.61-2,3,.4,3.75-.6,5.43-2.82,1.68-3.22,4.1-.12,2.81-1.81,4.22-3.29,3-2.89,5,.4,2.69-.6,4.1a6.82,6.82,0,0,0-1.21,3.82,10.74,10.74,0,0,1-.4,4.82c-.8,2-1.61,5.3-.2,7.31s2.81,3.62,2.81,5.63.41,3.82-.4,5.23a27.07,27.07,0,0,1-3,3.82c-.61.67-2.41.67-3.82.67s-17.56-.4-17.56-.4a10.42,10.42,0,0,1,.2-3.29c.4-1.81-1-3.82-1.21-5a24.32,24.32,0,0,1,0-3.82,7.58,7.58,0,0,1,1.41-3.9c.6-.8-.2,0,.6-2.81s1.41-3.62,1-6-1.21-3.34-1.21-5.23-.6-3.09-.4-4.9.8-1.81.8-4.62.2-2.21.81-4.62,1-4.5,1-4.5l3-4.42a6.73,6.73,0,0,0,1.8-2.82c.61-1.81,1-1.2.81-2.81a31,31,0,0,0-.81-4.3c-.4-1.61-1.6-1.61-2.21-2.41s-1.2-.8-1.4-2.41a5.29,5.29,0,0,0-.81-2.41s-1.61-1.81-.6-3a7,7,0,0,0,1.41-5c-.2-1.89-1-4.9-2.21-5.91s-1.41-.6-1.61-2.81-2.61-1-2.41-3.62-.61-2.69.4-4.9a31.77,31.77,0,0,0,1.61-4.62,5.6,5.6,0,0,1,1.6-2.62c1.21-1,.2-1.61,1.61-2.41s1-3.42.4-2.41-1.4,1.2-3,1-2.21-2-3.22,0-.4,1.81-1.6,2.82a4.28,4.28,0,0,1-2.49,1l-2-1.61-5.63-2.61-.8-4.3h-6.92l-3-2.61s-7.16-2.41-10.85-3.21c-1.49-1-5.91-3.22-5.91-3.22s-1-.93-.2-3.82c.4-.2,1.61.4,1.61.4l4.09-1.81a7.34,7.34,0,0,0,5.23-2.08c1.41-.81,3-2.62,5.63-.61a29.1,29.1,0,0,0,3.62,1.81l3.29.2,1.41.68h4.82l1.61,1,1.2,1.81,3.82,3.62,2.09,3.61a4.09,4.09,0,0,0,4.62,2c.6,0,3.82-3,3.82-3l4-3.42,2.49.81,2.41-.21,3,.61,16.16-21.58.8-1.69,9.77-12.87Z"/><path class="cls-1" d="M360.67,304.34a.93.93,0,0,0,.5-.11l9.15-2.06,2.47,3.09a5,5,0,0,0-1,2.59c0,1.29,2.1,5.76,2.1,5.76l.63,4.09.51,3.64-4.29,1.25-3.31.79L366,326.53l-1.34,2.25L364,334l-.33,3.46-.21,2.35s-3.44,1.86-3.67.56.75-3.88-.87-2.91-2.91,2.59-6.47,2.27-3.88-.65-5.5.64-4.43,2.92-5.73,2.92c-.51,0-.62,0-.7-.05a4.62,4.62,0,0,0-1.56-.6c-2.26-.65-4.12-1.08-4.12-1.08l.56-10.79s1.94-9.16,2.59-10.36,2.68-5.14,2.68-5.14l5.71-2.41s0-2.73,0-5.28Z"/><path class="cls-1" d="M360.67,304.34a.93.93,0,0,0,.5-.11l9.15-2.06,2.47,3.09a5,5,0,0,0-1,2.59c0,1.29,2.1,5.76,2.1,5.76l.63,4.09.51,3.64-4.29,1.25-3.31.79L366,326.53l-1.34,2.25L364,334l-.33,3.46-.21,2.35s-3.44,1.86-3.67.56.75-3.88-.87-2.91-2.91,2.59-6.47,2.27-3.88-.65-5.5.64-4.43,2.92-5.73,2.92c-.51,0-.62,0-.7-.05a4.62,4.62,0,0,0-1.56-.6c-2.26-.65-4.12-1.08-4.12-1.08l.56-10.79s1.94-9.16,2.59-10.36,2.68-5.14,2.68-5.14l5.71-2.41s0-2.73,0-5.28Z"/><path class="cls-1" d="M340.42,343.53c.21-.41.62,1.65-.21,3.51s-.82,2.19-1.23,3.09-2.07,1.32-.62,2.76,3.3,2.68,2.68,3.71-2.48,2.48-2.68,3.92-.62,3.1-.21,4.13.62,3,1.86,3.38,3.3,2.06,2.88,3.5.13,1.86,1,2.68,1.52.83,2.55,2.69.41,2.47.21,3.91-1.24,2.76.41,3.38,1.65-.2,1.85,1.24,0,3.3,1.45,4.33,1.65.83,2.89,1.65a5,5,0,0,1,1.65,2.68s.61,2,1,3.51.82.08,1.65,1.31-.42,1.24.2,2.69,1.32,1,1.94,2.06a3.73,3.73,0,0,1,.41,3.71,7.41,7.41,0,0,0-.7,3.71c0,1,.83,3.59-.2,4.62S356.79,419,357,420s2.27,1.65,1.85,3.3-1.65,3.1-1.44,4.33.21,3,.62,4.62.62,2.06,0,3.09a4.69,4.69,0,0,0-.21,3.72,2.53,2.53,0,0,0,2.35,1.44c.83,0,3.71-.41,4.95,0a2.83,2.83,0,0,1,1.65,1.24s.41,3.17,1.65,3.58,6.27.41,7.5.83,3.72,1.23,4.95,1a6.35,6.35,0,0,0,2.69-1.86l.2-1.73a2.66,2.66,0,0,0-.62-3.5,23.94,23.94,0,0,0-1-2.89s1.45-3.09-.41-3.09a19.2,19.2,0,0,0-1.86-.62,7.07,7.07,0,0,0-.53-2.58,12.06,12.06,0,0,0-2.45-2.41l-.73-2.31,0-2.08-.72-1.63-1.87-1.18-.81-.68-.2-1.65-1.24-2.27.62-6.06s3.19-2.21,3.7-4.92c.29,0,.91-2.3.91-2.3l.21-2.88,2.39-2.36-.33-2.26-.2-3.3.7-1.95-.29-1.76-.06-2.28.68-2.88-.62-1.73-1.24-.82-1.8-.84.12-2.5-2.11-.38s-2.44.32-2.46-2.93c0-.16-1-3.19.32-4.25a9.29,9.29,0,0,0,2-2.37,4.1,4.1,0,0,1,.71-1.87c.62-.82,1-3.37.07-3.64a3,3,0,0,1-.07-2.34,7.93,7.93,0,0,0,.21-2.89l-.83-1.85a5.21,5.21,0,0,1,.83-1.86,36.89,36.89,0,0,0,2.55-3.17c.41-.83,1-2.27,1-2.27l.54-1.85s.62-4.55-3.51-4.34a38.08,38.08,0,0,0-3.92-.21l-2.65-1.59-3.33.36-2-.68s-4.36,1.91-3.74-.56c.2.82,1.16-3.51-1.52-1.24-.62.41-3.1,2.06-8.25,1.45.41,0-1.87-1.06-3,.91C347.1,340.23,343.51,343.53,340.42,343.53Z"/><path class="cls-1" d="M340.42,343.53c.21-.41.62,1.65-.21,3.51s-.82,2.19-1.23,3.09-2.07,1.32-.62,2.76,3.3,2.68,2.68,3.71-2.48,2.48-2.68,3.92-.62,3.1-.21,4.13.62,3,1.86,3.38,3.3,2.06,2.88,3.5.13,1.86,1,2.68,1.52.83,2.55,2.69.41,2.47.21,3.91-1.24,2.76.41,3.38,1.65-.2,1.85,1.24,0,3.3,1.45,4.33,1.65.83,2.89,1.65a5,5,0,0,1,1.65,2.68s.61,2,1,3.51.82.08,1.65,1.31-.42,1.24.2,2.69,1.32,1,1.94,2.06a3.73,3.73,0,0,1,.41,3.71,7.41,7.41,0,0,0-.7,3.71c0,1,.83,3.59-.2,4.62S356.79,419,357,420s2.27,1.65,1.85,3.3-1.65,3.1-1.44,4.33.21,3,.62,4.62.62,2.06,0,3.09a4.69,4.69,0,0,0-.21,3.72,2.53,2.53,0,0,0,2.35,1.44c.83,0,3.71-.41,4.95,0a2.83,2.83,0,0,1,1.65,1.24s.41,3.17,1.65,3.58,6.27.41,7.5.83,3.72,1.23,4.95,1a6.35,6.35,0,0,0,2.69-1.86l.2-1.73a2.66,2.66,0,0,0-.62-3.5,23.94,23.94,0,0,0-1-2.89s1.45-3.09-.41-3.09a19.2,19.2,0,0,0-1.86-.62,7.07,7.07,0,0,0-.53-2.58,12.06,12.06,0,0,0-2.45-2.41l-.73-2.31,0-2.08-.72-1.63-1.87-1.18-.81-.68-.2-1.65-1.24-2.27.62-6.06s3.19-2.21,3.7-4.92c.29,0,.91-2.3.91-2.3l.21-2.88,2.39-2.36-.33-2.26-.2-3.3.7-1.95-.29-1.76-.06-2.28.68-2.88-.62-1.73-1.24-.82-1.8-.84.12-2.5-2.11-.38s-2.44.32-2.46-2.93c0-.16-1-3.19.32-4.25a9.29,9.29,0,0,0,2-2.37,4.1,4.1,0,0,1,.71-1.87c.62-.82,1-3.37.07-3.64a3,3,0,0,1-.07-2.34,7.93,7.93,0,0,0,.21-2.89l-.83-1.85a5.21,5.21,0,0,1,.83-1.86,36.89,36.89,0,0,0,2.55-3.17c.41-.83,1-2.27,1-2.27l.54-1.85s.62-4.55-3.51-4.34a38.08,38.08,0,0,0-3.92-.21l-2.65-1.59-3.33.36-2-.68s-4.36,1.91-3.74-.56c.2.82,1.16-3.51-1.52-1.24-.62.41-3.1,2.06-8.25,1.45.41,0-1.87-1.06-3,.91C347.1,340.23,343.51,343.53,340.42,343.53Z"/><path class="cls-1" d="M334.88,341.51l5.54,2a2.38,2.38,0,0,1,.21,2.27,32.47,32.47,0,0,0-1.65,4.33s-2.07.49-.62,2.76a11.79,11.79,0,0,1,2.27,2.06s1.44.62.41,1.65-2.89,3.51-2.89,4.75-.41,3.22.41,4.74a11.52,11.52,0,0,0,2.27,2.76l1.86,1.24.2,2.89,3.59,3.92s.62,3.42,0,4.74c-.41.62-1.44,2.55,2.06,2.76-.41.2.41,3.3,1,4.12a14.22,14.22,0,0,0,4.75,3.72c0,.62,1.85,6.06,1.85,6.06l1.45.61.2,2.69,1.94,2.06,1,2.27-.62,1.44-.9,1.65.2,3.51-.2,2.34-.83,2.07s-2.76,2.06-.62,4.54c-.2-.21,1.65.2.42,2.47.41.21-.62,2.27-.62,2.27a5,5,0,0,1-2.27,2.47c-1.65.83-2.06.7-3.3,1.53a9.59,9.59,0,0,1-4.13,1.23c-1.44.21-3-.41-3.71,1.24s-.9,1.65-3.38,1.45-2.27-.62-3.71-1.86-1.24-3-1.86-4.2-.41-1.45-1.65-2.27-.82-1.24-1.65-2.27-.33-1.24-3.09-2.06-3.17-1.24-2.55-3.51a13.34,13.34,0,0,0,.2-5.65c-.2-1.85.41-.82,0-2.68s-.2-.41-.82-2.68-1.45-3.3-.42-4.95.83-2.19,1-3.71.69-2.14,2.14-3.59.82-3.09.41-5.57-.62-1.36,1.24-5.36.2-3.17.62-5,1.44-1.65,1.44-3.3-.41-.41-.41-2.89-.62-3.42.2-5.15,2.07-2.56,1.45-5.65-1.45-3.92-1.24-5.57a12.62,12.62,0,0,1,1.44-4.33,4.67,4.67,0,0,0,0-3.58s.62-.21,1.24-2.07c0,.62,1-2.89,1-2.89Z"/><path class="cls-1" d="M334.88,341.51l5.54,2a2.38,2.38,0,0,1,.21,2.27,32.47,32.47,0,0,0-1.65,4.33s-2.07.49-.62,2.76a11.79,11.79,0,0,1,2.27,2.06s1.44.62.41,1.65-2.89,3.51-2.89,4.75-.41,3.22.41,4.74a11.52,11.52,0,0,0,2.27,2.76l1.86,1.24.2,2.89,3.59,3.92s.62,3.42,0,4.74c-.41.62-1.44,2.55,2.06,2.76-.41.2.41,3.3,1,4.12a14.22,14.22,0,0,0,4.75,3.72c0,.62,1.85,6.06,1.85,6.06l1.45.61.2,2.69,1.94,2.06,1,2.27-.62,1.44-.9,1.65.2,3.51-.2,2.34-.83,2.07s-2.76,2.06-.62,4.54c-.2-.21,1.65.2.42,2.47.41.21-.62,2.27-.62,2.27a5,5,0,0,1-2.27,2.47c-1.65.83-2.06.7-3.3,1.53a9.59,9.59,0,0,1-4.13,1.23c-1.44.21-3-.41-3.71,1.24s-.9,1.65-3.38,1.45-2.27-.62-3.71-1.86-1.24-3-1.86-4.2-.41-1.45-1.65-2.27-.82-1.24-1.65-2.27-.33-1.24-3.09-2.06-3.17-1.24-2.55-3.51a13.34,13.34,0,0,0,.2-5.65c-.2-1.85.41-.82,0-2.68s-.2-.41-.82-2.68-1.45-3.3-.42-4.95.83-2.19,1-3.71.69-2.14,2.14-3.59.82-3.09.41-5.57-.62-1.36,1.24-5.36.2-3.17.62-5,1.44-1.65,1.44-3.3-.41-.41-.41-2.89-.62-3.42.2-5.15,2.07-2.56,1.45-5.65-1.45-3.92-1.24-5.57a12.62,12.62,0,0,1,1.44-4.33,4.67,4.67,0,0,0,0-3.58s.62-.21,1.24-2.07c0,.62,1-2.89,1-2.89Z"/><path class="cls-1" d="M306.64,414.05s-1,3.3.83,3.51a12.39,12.39,0,0,1,4.33,1.65c1.32.62,3.38.2,5.44,0a20.29,20.29,0,0,1,5.16,0,21,21,0,0,0,2.47.41l1.45-.41a26.7,26.7,0,0,0,.61-5.65,38,38,0,0,1-.41-3.92c0-1-1.44-4.33-1.44-4.95a4.25,4.25,0,0,1,.2-2.68c.62-1.24,1.24-1.57,1.24-2.89a4.1,4.1,0,0,1,.83-3c.62-.62,1.93-.83,2.14-2.89s-.62-3.1-.62-4.13,0-2.89.41-3.5,1.86-3.38,1.86-3.38a18.11,18.11,0,0,0-.41-2.06c-.21-.62,0-1,.82-2.69s.21-4.95.21-4.95a21.23,21.23,0,0,1-.21-2.47,10.45,10.45,0,0,1,1-3.79c.62-1.45,1-1.65.83-3.51s-.62-3.3-.83-4.54-.41-3.09,0-3.92S334,351,334,351l-.42-2.14h-4.33s-4,.54-5.23,1.45a4.44,4.44,0,0,0-1.86,3.17c-.21,1.24.35,2.15-.65,3.55s-2,3-2,3a6.25,6.25,0,0,1-.43,4.58c-1.24,1.93-2.07,3-2.07,3a2.31,2.31,0,0,0-1.32,2,6.19,6.19,0,0,1-.94,3,6.9,6.9,0,0,1-1.65,2.48c-.91.62-2.15.62-2.15,2.47s.21,3.72.21,3.72a3.05,3.05,0,0,1-.77,1.71c-.67.63-1.21,3.82-1.21,3.82a11.43,11.43,0,0,1-.49,4,13.12,13.12,0,0,0-1,5.37,12.08,12.08,0,0,0,1.86,4.2,15.31,15.31,0,0,1,1.65,3.09l.21,5.57Z"/><path class="cls-1" d="M306.64,414.05s-1,3.3.83,3.51a12.39,12.39,0,0,1,4.33,1.65c1.32.62,3.38.2,5.44,0a20.29,20.29,0,0,1,5.16,0,21,21,0,0,0,2.47.41l1.45-.41a26.7,26.7,0,0,0,.61-5.65,38,38,0,0,1-.41-3.92c0-1-1.44-4.33-1.44-4.95a4.25,4.25,0,0,1,.2-2.68c.62-1.24,1.24-1.57,1.24-2.89a4.1,4.1,0,0,1,.83-3c.62-.62,1.93-.83,2.14-2.89s-.62-3.1-.62-4.13,0-2.89.41-3.5,1.86-3.38,1.86-3.38a18.11,18.11,0,0,0-.41-2.06c-.21-.62,0-1,.82-2.69s.21-4.95.21-4.95a21.23,21.23,0,0,1-.21-2.47,10.45,10.45,0,0,1,1-3.79c.62-1.45,1-1.65.83-3.51s-.62-3.3-.83-4.54-.41-3.09,0-3.92S334,351,334,351l-.42-2.14h-4.33s-4,.54-5.23,1.45a4.44,4.44,0,0,0-1.86,3.17c-.21,1.24.35,2.15-.65,3.55s-2,3-2,3a6.25,6.25,0,0,1-.43,4.58c-1.24,1.93-2.07,3-2.07,3a2.31,2.31,0,0,0-1.32,2,6.19,6.19,0,0,1-.94,3,6.9,6.9,0,0,1-1.65,2.48c-.91.62-2.15.62-2.15,2.47s.21,3.72.21,3.72a3.05,3.05,0,0,1-.77,1.71c-.67.63-1.21,3.82-1.21,3.82a11.43,11.43,0,0,1-.49,4,13.12,13.12,0,0,0-1,5.37,12.08,12.08,0,0,0,1.86,4.2,15.31,15.31,0,0,1,1.65,3.09l.21,5.57Z"/><path class="cls-2" d="M234.53,330.78s-.18,3.26,1.05,4.71,1.24,2.88,1.65,4.33,1.45,2.27,1.45,3.92.82,4.95,1.85,5.57,1.24-.54,3.1,2.76,1,3.3,1.85,5.15,2.27.83,2.07,4.54.2,4.41.82,6.06,1.24,4.74-.2,6-2.69,3.3-1.65,5.36.82,2.14.82,4.41-1.11,2.07.83,3.92,3.58.83,3.79,3.3-1.24,2,.62,4.75,1.85.69,2.68,4-.83,3.92,1,6,1,3.3,2.89,3.91l4.53.42,4.62,1v4s1.65,5,3.51,4.54,2.88-1.44,4.33-2.27a18.06,18.06,0,0,1,5.85-2.06,24.67,24.67,0,0,0,4.6-1.24l.35-4.61-1.36-3.7.12-4.76,1.65-3.58-.2-1.45,1.23-3.3.22-3.47-1.21-5.23-.4-4.9.57-3.18.41-3.51,1.63-7s5.18-7.05,5.38-8.91a23.48,23.48,0,0,0-.56-5.44l-2.21-2.41-1.4-2.41-.81-2.41s-1.62-1,0-4.32c.21-.41,1.86-1.93-.61-8.54.41,0-2.07-1.85-2.07-1.85l-.62-3.1-1.44-1-1-3.71,2.47-8.12,2.27-3.1,1.65-1.85s.62-3.51-1.23-1c.2.41-2.23.31-2.23.31s-3.09-2.57-3.22,0c.08-.11-1.8,3.21-4.09,3.82a15.23,15.23,0,0,0-2-1.61L276.49,311l-2.39,1.23h-1.85l-2.48,3.92-1.65-.21s-3.79-1.24-3.58.83c.2-.21.62,1.73-1,2.55-.42,0-2.77.6-2.77.6s-3.42,2.91-4,4.35c.41-.41-1.19.28-1.19.28a6.18,6.18,0,0,1-4.82,1.6c-.18,0-3.9,3.62-3.9,3.62a8.71,8.71,0,0,1-5,1.31C241.36,331.7,234.53,330.78,234.53,330.78Z"/><path class="cls-2" d="M234.53,330.78s-.18,3.26,1.05,4.71,1.24,2.88,1.65,4.33,1.45,2.27,1.45,3.92.82,4.95,1.85,5.57,1.24-.54,3.1,2.76,1,3.3,1.85,5.15,2.27.83,2.07,4.54.2,4.41.82,6.06,1.24,4.74-.2,6-2.69,3.3-1.65,5.36.82,2.14.82,4.41-1.11,2.07.83,3.92,3.58.83,3.79,3.3-1.24,2,.62,4.75,1.85.69,2.68,4-.83,3.92,1,6,1,3.3,2.89,3.91l4.53.42,4.62,1v4s1.65,5,3.51,4.54,2.88-1.44,4.33-2.27a18.06,18.06,0,0,1,5.85-2.06,24.67,24.67,0,0,0,4.6-1.24l.35-4.61-1.36-3.7.12-4.76,1.65-3.58-.2-1.45,1.23-3.3.22-3.47-1.21-5.23-.4-4.9.57-3.18.41-3.51,1.63-7s5.18-7.05,5.38-8.91a23.48,23.48,0,0,0-.56-5.44l-2.21-2.41-1.4-2.41-.81-2.41s-1.62-1,0-4.32c.21-.41,1.86-1.93-.61-8.54.41,0-2.07-1.85-2.07-1.85l-.62-3.1-1.44-1-1-3.71,2.47-8.12,2.27-3.1,1.65-1.85s.62-3.51-1.23-1c.2.41-2.23.31-2.23.31s-3.09-2.57-3.22,0c.08-.11-1.8,3.21-4.09,3.82a15.23,15.23,0,0,0-2-1.61L276.49,311l-2.39,1.23h-1.85l-2.48,3.92-1.65-.21s-3.79-1.24-3.58.83c.2-.21.62,1.73-1,2.55-.42,0-2.77.6-2.77.6s-3.42,2.91-4,4.35c.41-.41-1.19.28-1.19.28a6.18,6.18,0,0,1-4.82,1.6c-.18,0-3.9,3.62-3.9,3.62a8.71,8.71,0,0,1-5,1.31C241.36,331.7,234.53,330.78,234.53,330.78Z"/><path class="cls-1" d="M200.13,326c-.26,1.83-.13,1.83,1.19,2.24s.07,2.27,1.31,2.68,3.51.41,3.51,2.06,1.86.7,1.24,3.59-1,2.27-1,4.33a5.5,5.5,0,0,0,1.23,4.12c1,1.45.42,1.58-.2,3.72s-.42,2.55.41,3.79.41.82-.21,3.3-.82,3.09-.62,4.12a20.4,20.4,0,0,1-.2,6c-.41,3-.83,4.82.62,6.26s2.47,2.06,2.88,3.92,0,3.58-.2,6.68.41,4.33-.83,6.39-2.47,3.92-.82,5.78,1.85.69,2.06,4-.62,3.51.62,4.75,2.06,2.06,1.86,3.51a7,7,0,0,0,.2,4.12,7.35,7.35,0,0,1,.83,3.38,9.74,9.74,0,0,0,1.23,4.33,4.25,4.25,0,0,1,1,2.89c.2,1.85-1,3.71-1.65,4.74a4.79,4.79,0,0,0-.21,4.21c.62,1.85.41,2.06.82,4.53s0,3.92,1,4.95,1.65,4.21,1,5.44a36.72,36.72,0,0,1-2.48,3.72s3.38,1.85,5.65,1.85,2.47-.62,3.71-.62,1.24.21,2.68.21.42-1.44,2.27-.62,5.44-.2,6.68-.2,2.06,2.26,5,1.65,3.09-1,4.74-.62,2.76,1.23,4.62.82,1.65-.82,3.51-.41,4.74.82,4.74.82-.62-2.26.41-2.47a2.57,2.57,0,0,1,2.68.82c.62.83,2.48-.41,1.86-1.65s-2.27-1.77-2.06-3.09a22.76,22.76,0,0,1,1-3.17c.41-1.45,1.24-1.65-.41-3.3s-2.27-2.27-1-2.48,1.44-2.06,2.26-1.23,3,1.23,3,.2-1.32-.62-1.52-2.06-.29-1.24.62-1.86,2-2.14.69-2.76-1.72-.82-1.72-3.09a12.92,12.92,0,0,1,.61-4.33c.42-1.65.42-.83-1-2.48s-.41-2.27-1.44-2.88-2.89-.75-2.89-2.07-.41-1.11-.62-2.34a5.76,5.76,0,0,1,.42-2.69l-3.72-5.56V401.8l-1-4.41s-2.47-1.65-2.47-2.68V392a3.8,3.8,0,0,0-1.65-3.3,24.67,24.67,0,0,1-3.18-2.68,17,17,0,0,1,.21-2.48,12.6,12.6,0,0,0,0-3l-1-3.3.41-2.27L249,373l.21-3.51L248,366.79l-.41-6.06-.62-1.65-1.45-1.86-.82-3.3-2.48-3.79-1.65-.82-1.23-2.07-.83-4.74-1.65-4.13L235,334l-.44-3.18-4.1-2-2.56-.58-4.12.21-4.17-2.85-3.33.78-3.92.62-10.59-2.61S200.39,324.13,200.13,326Z"/><path class="cls-1" d="M200.13,326c-.26,1.83-.13,1.83,1.19,2.24s.07,2.27,1.31,2.68,3.51.41,3.51,2.06,1.86.7,1.24,3.59-1,2.27-1,4.33a5.5,5.5,0,0,0,1.23,4.12c1,1.45.42,1.58-.2,3.72s-.42,2.55.41,3.79.41.82-.21,3.3-.82,3.09-.62,4.12a20.4,20.4,0,0,1-.2,6c-.41,3-.83,4.82.62,6.26s2.47,2.06,2.88,3.92,0,3.58-.2,6.68.41,4.33-.83,6.39-2.47,3.92-.82,5.78,1.85.69,2.06,4-.62,3.51.62,4.75,2.06,2.06,1.86,3.51a7,7,0,0,0,.2,4.12,7.35,7.35,0,0,1,.83,3.38,9.74,9.74,0,0,0,1.23,4.33,4.25,4.25,0,0,1,1,2.89c.2,1.85-1,3.71-1.65,4.74a4.79,4.79,0,0,0-.21,4.21c.62,1.85.41,2.06.82,4.53s0,3.92,1,4.95,1.65,4.21,1,5.44a36.72,36.72,0,0,1-2.48,3.72s3.38,1.85,5.65,1.85,2.47-.62,3.71-.62,1.24.21,2.68.21.42-1.44,2.27-.62,5.44-.2,6.68-.2,2.06,2.26,5,1.65,3.09-1,4.74-.62,2.76,1.23,4.62.82,1.65-.82,3.51-.41,4.74.82,4.74.82-.62-2.26.41-2.47a2.57,2.57,0,0,1,2.68.82c.62.83,2.48-.41,1.86-1.65s-2.27-1.77-2.06-3.09a22.76,22.76,0,0,1,1-3.17c.41-1.45,1.24-1.65-.41-3.3s-2.27-2.27-1-2.48,1.44-2.06,2.26-1.23,3,1.23,3,.2-1.32-.62-1.52-2.06-.29-1.24.62-1.86,2-2.14.69-2.76-1.72-.82-1.72-3.09a12.92,12.92,0,0,1,.61-4.33c.42-1.65.42-.83-1-2.48s-.41-2.27-1.44-2.88-2.89-.75-2.89-2.07-.41-1.11-.62-2.34a5.76,5.76,0,0,1,.42-2.69l-3.72-5.56V401.8l-1-4.41s-2.47-1.65-2.47-2.68V392a3.8,3.8,0,0,0-1.65-3.3,24.67,24.67,0,0,1-3.18-2.68,17,17,0,0,1,.21-2.48,12.6,12.6,0,0,0,0-3l-1-3.3.41-2.27L249,373l.21-3.51L248,366.79l-.41-6.06-.62-1.65-1.45-1.86-.82-3.3-2.48-3.79-1.65-.82-1.23-2.07-.83-4.74-1.65-4.13L235,334l-.44-3.18-4.1-2-2.56-.58-4.12.21-4.17-2.85-3.33.78-3.92.62-10.59-2.61S200.39,324.13,200.13,326Z"/><path class="cls-1" d="M185.79,323.14a57.65,57.65,0,0,0-1.88,6.91,49.72,49.72,0,0,1-1.44,6.88c-.41,1.24,0,2.06-.41,3.71s-1.24,5.78-1.24,5.78l-1,5.44s0,.21-2.06,2.27-2.07,2.27-1.86,3.92,1,1.44-.83,1.85-3.09,1.45-1.65,2.07,2.27.62,1.65,1.65-1.23,1-1.85,1.65.69,2.34-1.24,3-2.55-.41-2.76,1.24a6.85,6.85,0,0,1-1.24,3.92,5.73,5.73,0,0,0-1,4.33c.21,1.44.21,5,.83,6.06s1.36,1.86,2.68,1.65,1.73.41,2.55,1-.21,2.27-.21,3.71.21,3.1,1.24,2.48,1.65-.83,2.06.62a10.84,10.84,0,0,1,.42,4.33A11.12,11.12,0,0,1,175,401a10,10,0,0,0-1,3.92c0,.82.62,3.71.21,5.77s-2.27,4-2.48,5.65a25.61,25.61,0,0,0,0,3.92c0,1.44-1,3.3-1,4.95s-1.73,3-1.73,5.23a7.15,7.15,0,0,0,1.94,5.57c1.65,1.86,1.85.62,2.68,2.89s-.21,3.43-.21,5.16,1,3.58,2.68,3.79a34.49,34.49,0,0,0,5.37-.21,11.77,11.77,0,0,1,3.5-1.24c2.14-.41,3-1.23,4.83-.41s3.92,1.86,6,1.86,2-.42,4.54.2,4.82,1.65,6.06,1.24,1.65-.21,4.33.41a6,6,0,0,0,4.12-.2l2.48-3.72a6.8,6.8,0,0,0-1-5.44,20.63,20.63,0,0,1-1-4.95c0-2.06-1-4.66-1-5.36s-.2-3.58.83-4.41a3.52,3.52,0,0,0,1.24-1.86l-.21-4.12s-2.06-1.37-2.06-4.95c0-.41-.83-3.38-.83-3.38l-.41-2.89.21-2.88L210.47,403v-5.23l-.41-1.45a4.24,4.24,0,0,1-2.27-2.68c0,.41-.21-1.86-.21-1.86l2.48-5.15v-3.92l.41-4-.21-2.68L209,373.59l-1.65-1.44-1.24-2.47a15.48,15.48,0,0,0,.41-2.27,21.94,21.94,0,0,1,.41-3.59,10.93,10.93,0,0,0,.21-2.27v-3.92l1.24-4.33s-1.24-1.57-1.24-2.27a7.24,7.24,0,0,1,.41-3,6.52,6.52,0,0,0,.62-2.06l-1.65-2.89-.2-2.27,1.23-6.27-1.23-1-.83-1.65-2.27-1a1.87,1.87,0,0,1-1.31-1.65c-.21.21-1.65-1.65-1.65-1.65l-.16-1.62-7.27-1.06Z"/><path class="cls-1" d="M185.79,323.14a57.65,57.65,0,0,0-1.88,6.91,49.72,49.72,0,0,1-1.44,6.88c-.41,1.24,0,2.06-.41,3.71s-1.24,5.78-1.24,5.78l-1,5.44s0,.21-2.06,2.27-2.07,2.27-1.86,3.92,1,1.44-.83,1.85-3.09,1.45-1.65,2.07,2.27.62,1.65,1.65-1.23,1-1.85,1.65.69,2.34-1.24,3-2.55-.41-2.76,1.24a6.85,6.85,0,0,1-1.24,3.92,5.73,5.73,0,0,0-1,4.33c.21,1.44.21,5,.83,6.06s1.36,1.86,2.68,1.65,1.73.41,2.55,1-.21,2.27-.21,3.71.21,3.1,1.24,2.48,1.65-.83,2.06.62a10.84,10.84,0,0,1,.42,4.33A11.12,11.12,0,0,1,175,401a10,10,0,0,0-1,3.92c0,.82.62,3.71.21,5.77s-2.27,4-2.48,5.65a25.61,25.61,0,0,0,0,3.92c0,1.44-1,3.3-1,4.95s-1.73,3-1.73,5.23a7.15,7.15,0,0,0,1.94,5.57c1.65,1.86,1.85.62,2.68,2.89s-.21,3.43-.21,5.16,1,3.58,2.68,3.79a34.49,34.49,0,0,0,5.37-.21,11.77,11.77,0,0,1,3.5-1.24c2.14-.41,3-1.23,4.83-.41s3.92,1.86,6,1.86,2-.42,4.54.2,4.82,1.65,6.06,1.24,1.65-.21,4.33.41a6,6,0,0,0,4.12-.2l2.48-3.72a6.8,6.8,0,0,0-1-5.44,20.63,20.63,0,0,1-1-4.95c0-2.06-1-4.66-1-5.36s-.2-3.58.83-4.41a3.52,3.52,0,0,0,1.24-1.86l-.21-4.12s-2.06-1.37-2.06-4.95c0-.41-.83-3.38-.83-3.38l-.41-2.89.21-2.88L210.47,403v-5.23l-.41-1.45a4.24,4.24,0,0,1-2.27-2.68c0,.41-.21-1.86-.21-1.86l2.48-5.15v-3.92l.41-4-.21-2.68L209,373.59l-1.65-1.44-1.24-2.47a15.48,15.48,0,0,0,.41-2.27,21.94,21.94,0,0,1,.41-3.59,10.93,10.93,0,0,0,.21-2.27v-3.92l1.24-4.33s-1.24-1.57-1.24-2.27a7.24,7.24,0,0,1,.41-3,6.52,6.52,0,0,0,.62-2.06l-1.65-2.89-.2-2.27,1.23-6.27-1.23-1-.83-1.65-2.27-1a1.87,1.87,0,0,1-1.31-1.65c-.21.21-1.65-1.65-1.65-1.65l-.16-1.62-7.27-1.06Z"/><path class="cls-1" d="M167.75,383.78s-.83,1-3.51.41a14.63,14.63,0,0,1-3.51-1.24c-1.23-.41-2.47-1.23-3.5-.2s-1.52,3.3-3.17,4.12-4.13,2.07-5,3.1-1.85,1.24-1.85,3.09.82,3.3-.41,3.92a7.8,7.8,0,0,1-3.3,1.11,44.86,44.86,0,0,0-4.83.82l-.2,3.1a2.78,2.78,0,0,0,.69,2.06c.83.83,1.53,2.48.21,3.3a8.69,8.69,0,0,0-2.35,3.1,11.6,11.6,0,0,1,.62,3.09c0,1.31.62,2.35-1,2.76s-4.12,0-5.16.62a5.59,5.59,0,0,0-2.26,2.89c0,.61-1.45,2.06-1.45,4.33s.21,3.63-.62,5.15a18.49,18.49,0,0,0-1.44,4.21,34.2,34.2,0,0,0-1.24,4.12,24.41,24.41,0,0,0,.21,4.54s-.83,1.65,1.24,1.65a12.36,12.36,0,0,1,6.18,1.24,16.89,16.89,0,0,0,6,2.14c1.93.2,2.14-.62,4,.41s1.86,2.06,3.51,1,1,0,3.09-.82,1.24-2.07,2.68-1,1,1.65,2.27,1.44.7-.62,2.56-.21a4.78,4.78,0,0,0,4.12-.82c1.44-.83.62-1.45,2.48-.83s3.09,1.45,4.12.83,1.16-1,2.68-.41,3.38,1.23,4.62.2c-.41.21-1-2.14-.62-4.2-.21-.41,1.11-3.71-1.44-6-1.73-1.65-4.21-3.38-3-7.51.83-2.47,1.52-4.12,1.52-4.12l1-4.95v-3.92l2.48-5.65-.21-4.95s0-3.09,1-4.74a27.76,27.76,0,0,1,1.45-3.38s0-7.22-2.48-5c-.2.62-2.47-.41-1-3.71,0,.2,1.11-3.1-1.65-3.3.21.2-2.14-.21-2.14-.21Z"/><path class="cls-1" d="M167.75,383.78s-.83,1-3.51.41a14.63,14.63,0,0,1-3.51-1.24c-1.23-.41-2.47-1.23-3.5-.2s-1.52,3.3-3.17,4.12-4.13,2.07-5,3.1-1.85,1.24-1.85,3.09.82,3.3-.41,3.92a7.8,7.8,0,0,1-3.3,1.11,44.86,44.86,0,0,0-4.83.82l-.2,3.1a2.78,2.78,0,0,0,.69,2.06c.83.83,1.53,2.48.21,3.3a8.69,8.69,0,0,0-2.35,3.1,11.6,11.6,0,0,1,.62,3.09c0,1.31.62,2.35-1,2.76s-4.12,0-5.16.62a5.59,5.59,0,0,0-2.26,2.89c0,.61-1.45,2.06-1.45,4.33s.21,3.63-.62,5.15a18.49,18.49,0,0,0-1.44,4.21,34.2,34.2,0,0,0-1.24,4.12,24.41,24.41,0,0,0,.21,4.54s-.83,1.65,1.24,1.65a12.36,12.36,0,0,1,6.18,1.24,16.89,16.89,0,0,0,6,2.14c1.93.2,2.14-.62,4,.41s1.86,2.06,3.51,1,1,0,3.09-.82,1.24-2.07,2.68-1,1,1.65,2.27,1.44.7-.62,2.56-.21a4.78,4.78,0,0,0,4.12-.82c1.44-.83.62-1.45,2.48-.83s3.09,1.45,4.12.83,1.16-1,2.68-.41,3.38,1.23,4.62.2c-.41.21-1-2.14-.62-4.2-.21-.41,1.11-3.71-1.44-6-1.73-1.65-4.21-3.38-3-7.51.83-2.47,1.52-4.12,1.52-4.12l1-4.95v-3.92l2.48-5.65-.21-4.95s0-3.09,1-4.74a27.76,27.76,0,0,1,1.45-3.38s0-7.22-2.48-5c-.2.62-2.47-.41-1-3.71,0,.2,1.11-3.1-1.65-3.3.21.2-2.14-.21-2.14-.21Z"/><path class="cls-1" d="M124.69,442.18s-4.41,1.65-5.65.82-3.09-2.06-4.74-2.06-2.07,1-3.51-.62a4.36,4.36,0,0,0-4.2-1.65c-1.24.21-3.92-.82-5.16-1.23s-1.44-.83-3.51-.62a23.74,23.74,0,0,1-5.15.2c-.83-.2-1.11-1.23-3.38-1.23s-4.33.41-6,0-1.24-.42-2.89-1.65-2.81-1-3.92-1.45A37.92,37.92,0,0,1,72,430.63c-1-.62-2.69-1.52-2.69-1.52a55.47,55.47,0,0,1,4.75-6.19c1.85-1.86,3.79-2.48,4.41-3.92s.62-2.89,1.85-3.92,2.27-.08,3.92-1.93a19.88,19.88,0,0,0,3.3-5.37,16.51,16.51,0,0,1,4.13-5.56c2.55-2.48,5-4.62,6.26-6.48a18.69,18.69,0,0,1,5.57-6,22.4,22.4,0,0,0,4.62-3.92,11.56,11.56,0,0,1,3.92-5,9,9,0,0,0,3.5-4.95s1-7.91,1-9.56,0-3.92,1.23-5.57,2.07-5.57,2.07-5.57a23.14,23.14,0,0,0,4.2-3.51c2.27-2.34,1.65-4.41,3.09-5.44a36.77,36.77,0,0,0,3.92-3.71,12.47,12.47,0,0,1,2.27-4.54,51,51,0,0,1,4.13-3.58,51.42,51.42,0,0,0,3.58-3.72l4.17-2.3L158.17,325,171.74,322s4.13-.62,5.16-1.65a56.57,56.57,0,0,1,4.74-3.58l4.15,6.37-2.91,11.24-3.09,17.48-3.92,3.92.2,4.12-2.68.42s-1.44.62.42,1.85c.2.42,2.26.21.61,1.86.21.41-1.23,1.24-1.23,1.24a2.3,2.3,0,0,1-2.27,3c.2.21-1.52-.82-1.73,1.24,0-.21-.41,2.06-.41,2.06l-1.86,3.72v4.33l.21,2.27.62,1.93-3.51.41-4.74-1.65a2.24,2.24,0,0,0-3.3,1.45c0,.2-2.14,2.88-2.14,2.88l-3.72,1.86-2.68,3.09-.41,2.48-.41,2.68-3.3,1.11-2.07.62-2.76.2a11.81,11.81,0,0,0-.2,3.1,4.88,4.88,0,0,0,.69,2.06,13.48,13.48,0,0,1,1,2.27l-3.18,4.13.83,4.82-1.24,1-5.16.62L129,419.21l-1.24,3.09v5.78l-3.3,9.56Z"/><path class="cls-1" d="M124.69,442.18s-4.41,1.65-5.65.82-3.09-2.06-4.74-2.06-2.07,1-3.51-.62a4.36,4.36,0,0,0-4.2-1.65c-1.24.21-3.92-.82-5.16-1.23s-1.44-.83-3.51-.62a23.74,23.74,0,0,1-5.15.2c-.83-.2-1.11-1.23-3.38-1.23s-4.33.41-6,0-1.24-.42-2.89-1.65-2.81-1-3.92-1.45A37.92,37.92,0,0,1,72,430.63c-1-.62-2.69-1.52-2.69-1.52a55.47,55.47,0,0,1,4.75-6.19c1.85-1.86,3.79-2.48,4.41-3.92s.62-2.89,1.85-3.92,2.27-.08,3.92-1.93a19.88,19.88,0,0,0,3.3-5.37,16.51,16.51,0,0,1,4.13-5.56c2.55-2.48,5-4.62,6.26-6.48a18.69,18.69,0,0,1,5.57-6,22.4,22.4,0,0,0,4.62-3.92,11.56,11.56,0,0,1,3.92-5,9,9,0,0,0,3.5-4.95s1-7.91,1-9.56,0-3.92,1.23-5.57,2.07-5.57,2.07-5.57a23.14,23.14,0,0,0,4.2-3.51c2.27-2.34,1.65-4.41,3.09-5.44a36.77,36.77,0,0,0,3.92-3.71,12.47,12.47,0,0,1,2.27-4.54,51,51,0,0,1,4.13-3.58,51.42,51.42,0,0,0,3.58-3.72l4.17-2.3L158.17,325,171.74,322s4.13-.62,5.16-1.65a56.57,56.57,0,0,1,4.74-3.58l4.15,6.37-2.91,11.24-3.09,17.48-3.92,3.92.2,4.12-2.68.42s-1.44.62.42,1.85c.2.42,2.26.21.61,1.86.21.41-1.23,1.24-1.23,1.24a2.3,2.3,0,0,1-2.27,3c.2.21-1.52-.82-1.73,1.24,0-.21-.41,2.06-.41,2.06l-1.86,3.72v4.33l.21,2.27.62,1.93-3.51.41-4.74-1.65a2.24,2.24,0,0,0-3.3,1.45c0,.2-2.14,2.88-2.14,2.88l-3.72,1.86-2.68,3.09-.41,2.48-.41,2.68-3.3,1.11-2.07.62-2.76.2a11.81,11.81,0,0,0-.2,3.1,4.88,4.88,0,0,0,.69,2.06,13.48,13.48,0,0,1,1,2.27l-3.18,4.13.83,4.82-1.24,1-5.16.62L129,419.21l-1.24,3.09v5.78l-3.3,9.56Z"/><path class="cls-1" d="M258.35,452.36a2.74,2.74,0,0,0,2.71.6c1.64-.47,3.36.23,5,.93s2.1,1.17,3.51,1.17,2.57,1.4,4.2,2.1,3,1.64,4.45,1.41.55-.94,3.12-.7,5.38,0,7.72,1.4a8.77,8.77,0,0,0,5.61,1.4c2.11,0,2.66,1.35,3.83.56s1.64-1.49,2.81-2.43a4.65,4.65,0,0,1,4.21-1.4c2.33.23,2.71.93,4.91.23s2.66-1.17,5-.47a14.12,14.12,0,0,0,5.15.71c1.87,0,1.4-1.17,3.74.46s4.53,2.2,6.87,3.6,5.38,3,7.25,4a67.48,67.48,0,0,0,7.8,3c4,1.41,4.21,1.87,7,3.28a87.32,87.32,0,0,0,8.73,3.27c1.87.7,5.38,1.49,8.66,3.83s7.8,4,12.71,7a138.79,138.79,0,0,0,12.95,7.34c3.51,1.64,8,4.44,11.78,6.55s11.83,5.75,14.49,7,6.64,5,7.34,3.36a94,94,0,0,0,3.27-9c.7-2.57,2.58-4.12,1.41-7.48s-3.74-5.47-4.45-8a23.48,23.48,0,0,1-.93-7.72c.23-1.95,2.8-4.53,4.44-5.23s1.32.24,4.44-1.17,5-1.4,4.53-3.74-1.49-4.91-4.76-4a26.56,26.56,0,0,1-7.25,1.17c-1.64,0-3.51.55-1.64-2.58s1.88-3.83,1.88-7.8a20.85,20.85,0,0,0-.71-6.08l-1.63-1.64-3,2.34-.47,3.51-1.79-1.1-5.78-.3a3,3,0,0,1-2.89-3.48c.32,0-1.57-.79-1.57-.79l-2.05,1.26-2.05.31-3.15-2.2-2.68-.95-1.83,2.51s-.9,13.28-11.37,10.88c-.41.17-.64-1.46-.64-1.46s2.93-3.9-.41-10.3c-.06-.46-3.86-1.23-3.86-1.23l-1.37-1-2.69,1.86a16.85,16.85,0,0,1-3.13-.57,8.65,8.65,0,0,0-3.36-.7c-1.64,0-3,.56-4.68-.23a5.76,5.76,0,0,1-2.34-2l-.59-2-1.65-1.24h-4.95s-4.21-.67-1.78-6.6c0,.23-.77-7.71-.77-7.71l-2.27,2.47-5.85,2.67-3.74.23a2.55,2.55,0,0,0-2.42,2.1c.23-.23-6.78,2.49-8.65-6.86-.24-.24-2.73-3.29-2.73-3.29l-5.55-2.79-.09-1.54-1.45.41-2.47-.41-6.74-.1-3.86.1-5.11-2.44-.05-2.72-20-.21-10.45,3.3s-2.53,2.34-4.33,2.27c-3,.17-3.51-4.54-3.51-4.54v-4l-6.1-1-3.05-.47-.69,1.88,1.17,4.06,2.61,1.16,1.44,2.88,1.09,1.34-.93,2.57.46,5.14,2.43,2-2.43,2.34,1.26,2.34.23,1.87-1.25-.47-1.48-.71L260.83,437l-.94.18,2.81,4.21L261.24,446l1.69,2.31.47,2.1s-2.11,1.41-3-.23C260.59,450.38,256.81,448.27,258.35,452.36Z"/><path class="cls-1" d="M258.35,452.36a2.74,2.74,0,0,0,2.71.6c1.64-.47,3.36.23,5,.93s2.1,1.17,3.51,1.17,2.57,1.4,4.2,2.1,3,1.64,4.45,1.41.55-.94,3.12-.7,5.38,0,7.72,1.4a8.77,8.77,0,0,0,5.61,1.4c2.11,0,2.66,1.35,3.83.56s1.64-1.49,2.81-2.43a4.65,4.65,0,0,1,4.21-1.4c2.33.23,2.71.93,4.91.23s2.66-1.17,5-.47a14.12,14.12,0,0,0,5.15.71c1.87,0,1.4-1.17,3.74.46s4.53,2.2,6.87,3.6,5.38,3,7.25,4a67.48,67.48,0,0,0,7.8,3c4,1.41,4.21,1.87,7,3.28a87.32,87.32,0,0,0,8.73,3.27c1.87.7,5.38,1.49,8.66,3.83s7.8,4,12.71,7a138.79,138.79,0,0,0,12.95,7.34c3.51,1.64,8,4.44,11.78,6.55s11.83,5.75,14.49,7,6.64,5,7.34,3.36a94,94,0,0,0,3.27-9c.7-2.57,2.58-4.12,1.41-7.48s-3.74-5.47-4.45-8a23.48,23.48,0,0,1-.93-7.72c.23-1.95,2.8-4.53,4.44-5.23s1.32.24,4.44-1.17,5-1.4,4.53-3.74-1.49-4.91-4.76-4a26.56,26.56,0,0,1-7.25,1.17c-1.64,0-3.51.55-1.64-2.58s1.88-3.83,1.88-7.8a20.85,20.85,0,0,0-.71-6.08l-1.63-1.64-3,2.34-.47,3.51-1.79-1.1-5.78-.3a3,3,0,0,1-2.89-3.48c.32,0-1.57-.79-1.57-.79l-2.05,1.26-2.05.31-3.15-2.2-2.68-.95-1.83,2.51s-.9,13.28-11.37,10.88c-.41.17-.64-1.46-.64-1.46s2.93-3.9-.41-10.3c-.06-.46-3.86-1.23-3.86-1.23l-1.37-1-2.69,1.86a16.85,16.85,0,0,1-3.13-.57,8.65,8.65,0,0,0-3.36-.7c-1.64,0-3,.56-4.68-.23a5.76,5.76,0,0,1-2.34-2l-.59-2-1.65-1.24h-4.95s-4.21-.67-1.78-6.6c0,.23-.77-7.71-.77-7.71l-2.27,2.47-5.85,2.67-3.74.23a2.55,2.55,0,0,0-2.42,2.1c.23-.23-6.78,2.49-8.65-6.86-.24-.24-2.73-3.29-2.73-3.29l-5.55-2.79-.09-1.54-1.45.41-2.47-.41-6.74-.1-3.86.1-5.11-2.44-.05-2.72-20-.21-10.45,3.3s-2.53,2.34-4.33,2.27c-3,.17-3.51-4.54-3.51-4.54v-4l-6.1-1-3.05-.47-.69,1.88,1.17,4.06,2.61,1.16,1.44,2.88,1.09,1.34-.93,2.57.46,5.14,2.43,2-2.43,2.34,1.26,2.34.23,1.87-1.25-.47-1.48-.71L260.83,437l-.94.18,2.81,4.21L261.24,446l1.69,2.31.47,2.1s-2.11,1.41-3-.23C260.59,450.38,256.81,448.27,258.35,452.36Z"/><path class="cls-3" d="M226.21,244.37c-.2-1,2.42-1.61,3.42-2.21s7.51-4.9,10.53-6.51S251.09,227,251.09,227s1,6.63,1.81,10.65c1.2,4.82,3.21,4.1,3.41,4.3,2.22,0,4.63,1.61,5,2.61,1.2,2,4.5,3.22,4.5,3.22s5.42,1.4,7,1.6,6.23,1,7.44,1.21,5.1.6,10.53,1.81,8.52-2,9.89-2.52a10.23,10.23,0,0,1,3.55-1.91c-1.31-1,1.51-.19,1.51-.19l24.31,11.12s-9,11.87-9.77,12.87-4.22,6.51-5.62,7.92-4.5,7-5.51,7.83-4.42,6.91-5.83,7.52-1.8-1.21-3-.61-2.41,0-3.9-.4-2,.4-2.81,1.41-3.22,2.41-4.42,3.82-1.81,1.2-3.82,1-3.22-2.81-3.82-3.82a12.61,12.61,0,0,0-2.89-4.22,5.51,5.51,0,0,0-1.93-1.48c-.1-.08-.14-.22-.28-.73-.4-1.4-2-2.21-4.42-2s-3.62-.68-5.63-.48-4.1-1.6-6.11-2.41a4,4,0,0,0-4.82,1,9,9,0,0,1-4.22,2.08,13.22,13.22,0,0,0-3.69,1.21c-2.09,1-3.22.2-3.22-1a18.23,18.23,0,0,1,1.21-4.5c.4-1.21-1.21-4.63-1.81-5.63s-1.61-1.21-3.62-1.21-2.61-2-3.22-3.21-2.21-1.61-3.21-2.09a6.67,6.67,0,0,0-4.3-.2c-2,.4-3.42-2.21-3.42-2.21a18,18,0,0,1,3.42-1.61c2.21-.8,2-2.61,3.62-2.41a2.34,2.34,0,0,0,2.69-2.41c0-1.41-3.09-.61-4.7-1.41s-2.82-2.81-5-4.62-1.2-3.7,0-5.51S226.41,245.37,226.21,244.37Z"/><path class="cls-3" d="M226.21,244.37c-.2-1,2.42-1.61,3.42-2.21s7.51-4.9,10.53-6.51S251.09,227,251.09,227s1,6.63,1.81,10.65c1.2,4.82,3.21,4.1,3.41,4.3,2.22,0,4.63,1.61,5,2.61,1.2,2,4.5,3.22,4.5,3.22s5.42,1.4,7,1.6,6.23,1,7.44,1.21,5.1.6,10.53,1.81,8.52-2,9.89-2.52a10.23,10.23,0,0,1,3.55-1.91c-1.31-1,1.51-.19,1.51-.19l24.31,11.12s-9,11.87-9.77,12.87-4.22,6.51-5.62,7.92-4.5,7-5.51,7.83-4.42,6.91-5.83,7.52-1.8-1.21-3-.61-2.41,0-3.9-.4-2,.4-2.81,1.41-3.22,2.41-4.42,3.82-1.81,1.2-3.82,1-3.22-2.81-3.82-3.82a12.61,12.61,0,0,0-2.89-4.22,5.51,5.51,0,0,0-1.93-1.48c-.1-.08-.14-.22-.28-.73-.4-1.4-2-2.21-4.42-2s-3.62-.68-5.63-.48-4.1-1.6-6.11-2.41a4,4,0,0,0-4.82,1,9,9,0,0,1-4.22,2.08,13.22,13.22,0,0,0-3.69,1.21c-2.09,1-3.22.2-3.22-1a18.23,18.23,0,0,1,1.21-4.5c.4-1.21-1.21-4.63-1.81-5.63s-1.61-1.21-3.62-1.21-2.61-2-3.22-3.21-2.21-1.61-3.21-2.09a6.67,6.67,0,0,0-4.3-.2c-2,.4-3.42-2.21-3.42-2.21a18,18,0,0,1,3.42-1.61c2.21-.8,2-2.61,3.62-2.41a2.34,2.34,0,0,0,2.69-2.41c0-1.41-3.09-.61-4.7-1.41s-2.82-2.81-5-4.62-1.2-3.7,0-5.51S226.41,245.37,226.21,244.37Z"/><path class="cls-1" d="M360.35,301s-.69,2.89.17,3.29l-14.06,3.14c0-1.2.1-2.36.21-3.15a21.63,21.63,0,0,0-.33-8,15.8,15.8,0,0,0-1.33-3.06s-3.1-5.25-4.07-6.55-2.12-3.31-1.54-5.38c.25-.12,4.41.32,4.41.32l2.86-.76a4.66,4.66,0,0,1,2.26,3.56l2.91,3.46s.74,7,6.14,9.18C358.64,297.59,360.35,301,360.35,301Z"/><path class="cls-1" d="M360.35,301s-.69,2.89.17,3.29l-14.06,3.14c0-1.2.1-2.36.21-3.15a21.63,21.63,0,0,0-.33-8,15.8,15.8,0,0,0-1.33-3.06s-3.1-5.25-4.07-6.55-2.12-3.31-1.54-5.38c.25-.12,4.41.32,4.41.32l2.86-.76a4.66,4.66,0,0,1,2.26,3.56l2.91,3.46s.74,7,6.14,9.18C358.64,297.59,360.35,301,360.35,301Z"/></svg>