<?xml version="1.0" encoding="utf-8"?>
<!-- Generator: Adobe Illustrator 25.1.0, SVG Export Plug-In . SVG Version: 6.00 Build 0)  -->
<svg version="1.1" id="Layer_1" xmlns="http://www.w3.org/2000/svg" xmlns:xlink="http://www.w3.org/1999/xlink" x="0px" y="0px"
	 viewBox="0 0 512 512" style="enable-background:new 0 0 512 512;" xml:space="preserve">
<style type="text/css">
	.st0{fill-rule:evenodd;clip-rule:evenodd;fill:#E6E7E8;stroke:#FFFFFF;stroke-linejoin:round;stroke-miterlimit:3.8637;}
	.st1{fill-rule:evenodd;clip-rule:evenodd;fill:#E6E7E8;stroke:#FFFFFF;stroke-linejoin:round;}
	.st2{fill-rule:evenodd;clip-rule:evenodd;fill:#A7A9AC;stroke:#FFFFFF;stroke-linejoin:round;}
	.st3{fill:#E6E7E8;stroke:#FFFFFF;stroke-linejoin:round;}
</style>
<g>
	<path class="st0" d="M360.4,301c0,0-0.7,2.9,0.2,3.3l-14.1,3.1c0-1.2,0.1-2.4,0.2-3.2c0.3-2.5,0.3-6-0.3-8
		c-0.6-1.9-1.3-3.1-1.3-3.1s-3.1-5.3-4.1-6.5c-1-1.3-2.1-3.3-1.5-5.4c0.3-0.1,4.4,0.3,4.4,0.3l2.9-0.8c0,0,1.9,1,2.3,3.6l2.9,3.5
		c0,0,0.7,7,6.1,9.2C358.6,297.6,360.4,301,360.4,301z"/>
	<path class="st0" d="M360.4,301c0,0-0.7,2.9,0.2,3.3l-14.1,3.1c0-1.2,0.1-2.4,0.2-3.2c0.3-2.5,0.3-6-0.3-8
		c-0.6-1.9-1.3-3.1-1.3-3.1s-3.1-5.3-4.1-6.5c-1-1.3-2.1-3.3-1.5-5.4c0.3-0.1,4.4,0.3,4.4,0.3l2.9-0.8c0,0,1.9,1,2.3,3.6l2.9,3.5
		c0,0,0.7,7,6.1,9.2C358.6,297.6,360.4,301,360.4,301z"/>
</g>
<path class="st1" d="M247.5,88.8c-0.4,1.1,1.3,1.7,2.6,0.4s1.5-2.6,2.6-1.7s0.7,3.5,2.6,3s3-1.9,3.9-2.4s1.9-0.4,3-0.7
	s1.3-1.1,2.4-2s1.1-1.3,2-0.4s3.3,1.9,4.3,1.1c0.5-0.5,1.1-0.9,1.7-1.3c1.1-0.7,0.5-0.8,2.4-1.5s1.5-1.3,1.9-2.6s1.1-2.8,2-2.2
	c1.2,0.8,2.5,1.6,3.9,2.2c1.3,0.6,2.4,1.5,3.2,1.7c1,0.1,2,0.6,2.6,1.5c1.3,1.5,0.4,2.4,2.8,2.8s3.7,0.2,4.6-0.7s-0.2-3,3.5-1.1
	s4.6,2.2,6.1,2.3c1.2,0.3,2.2,0.9,3.1,1.7c0,0,1.1,2.8,2.6,3.7s1.3,1.7,1.3,3.2s0.2,3.3,2.4,3.9s3.9,0.9,6.1-0.2s3.7-3,5-4.3
	s2.2-3.7,4.1-4.4c2.3-0.7,4.8-1,7.2-0.9c1.1,0.2,4.1,0.9,5.8,0.2c1.4-0.8,2.7-1.8,3.9-2.9l1.3-1.8l2.8-1.3c0,0,1.3-1.7,0.6-3
	s-1.3-1.9-1.3-3s0-2.2-1.1-2.6c-0.7-0.1-1.3-0.4-1.9-0.9c-0.6-0.5-1.1-1.2-1.4-2l-4-1.3l-0.7-1.6l-2.4-2.2c0,0-2.4-2.1-3.1-0.2
	s-0.8,2.8-1.5,2.6s-2.4-0.7-2.8-1.5s-0.7-0.7-1.1-2c-0.3-1.1-0.9-2.2-1.7-3c-0.9-1.1-1.3-1.3-1.5-2s-0.3,0.2-0.3-1.7
	c0-1.1-0.2-2.3-0.6-3.3c-0.3-0.6-0.3-1.4,0-2c0.4-0.7,0.8-1.4,1.3-2l0.3-2.5v-1.8c0.8-0.4,1.5-1,2-1.7c1-1.3,1.5-1.7,1.4-2.4
	s-0.9-0.3-0.3-1.7c0.3-0.9,0.8-1.7,1.5-2.4l0.5-2.2c0,0-0.4-1.8-0.5-2.6c-0.3-0.7-0.3-1.5-0.2-2.2c0.2-0.9,0.3-1.5,1.1-1.9
	s2.6-0.3,3.7-1.1s0.4-0.4,1.1-1.7c0.5-0.8,1-1.6,1.6-2.2l1.1-3c0,0-2.1-1-2.5-1.9c-0.6-1.2-1-2.5-1.2-3.9c0-0.9-1.5-3.5-2.4-3.5
	s-2.5-0.3-3.2-0.4s-1.8,0.2-1.8,0.9s0.1,2.2-0.8,2.9c-0.5,0.4-1.2,0.5-1.8,0.3c0,0-2.6-1.7-3.7-1.7c-0.9-0.1-1.8,0.1-2.6,0.6
	c-1,0.3-2.1,0.4-3.1,0.3c0,0-1.5,1-1.5-2.2c0-1.6-0.2-3.2-0.7-4.6c-0.2-1.1-1.1-2.8-1.1-4.1c0-1.3-0.2-2.5-0.4-3.8
	c-0.3-0.7-1.2-1-1.9-0.7c0,0-0.1,0-0.1,0.1c-1.1,0.5-2.2,0.9-3.4,1.1c-1.6,0.2-2-0.1-3.5,0s-4.1,0.4-5.6,1.5
	c-1.5,1.2-2.9,2.6-4.1,4.1c-0.6,1-1.3,1.9-2,2.8c-0.5,0.5-0.9,1-1.3,1.5l-3,1.1c-1,0.1-2,0.3-3,0.7c-0.5,0.3-0.9,0.5-1.4,0.7
	c-1.2,0.5-2.6,0.5-3.8,0c-1.8-0.9-3.1-1.5-4.6-1.3s-1.8-0.6-3.6,0.8c-1.1,0.7-1.9,1.7-2.4,2.9c-0.7,1.5-1.2,3.2-1.4,4.9
	c-0.1,1.1-0.4,2.1-0.7,3.1l-1.1,2.5c-0.2,1-0.6,1.9-1.2,2.7c-0.7,0.7-0.2,2-1.9,1.8s-1.6-0.9-2.9-1.8s-1.5-1.9-3-1.3
	c-0.9,0.4-1.8,0.9-2.6,1.5l-1.5,1.1c0.8,0,1.5,0.6,1.5,1.4c0,0,0,0.1,0,0.1c-0.1,1.4-0.8,2.6-1.9,3.5c-0.7,0.6-2,3-2.6,3.7
	c-0.9,1.3-1.7,2.8-2.2,4.3c-0.2,0.9,0.2,2.2-0.2,3.7s-0.9,1.7-1.3,2.8s0.2,2.8-0.7,3.9c-0.7,0.8-1.3,1.7-1.9,2.6l-0.6,0.8
	c0,0-0.1,4.5,0,5.1s0.3,4.3,0.3,5.4s-0.2,5.4,0,6.9s0.4,4.8,0.9,5.6c0.7,0.8,1.3,1.6,1.7,2.6C247.3,84.5,247.9,87.7,247.5,88.8z"/>
<path class="st1" d="M247.5,88.8c-0.4,1.1,1.3,1.7,2.6,0.4s1.5-2.6,2.6-1.7s0.7,3.5,2.6,3s3-1.9,3.9-2.4s1.9-0.4,3-0.7
	s1.3-1.1,2.4-2s1.1-1.3,2-0.4s3.3,1.9,4.3,1.1c0.5-0.5,1.1-0.9,1.7-1.3c1.1-0.7,0.5-0.8,2.4-1.5s1.5-1.3,1.9-2.6s1.1-2.8,2-2.2
	c1.2,0.8,2.5,1.6,3.9,2.2c1.3,0.6,2.4,1.5,3.2,1.7c1,0.1,2,0.6,2.6,1.5c1.3,1.5,0.4,2.4,2.8,2.8s3.7,0.2,4.6-0.7s-0.2-3,3.5-1.1
	s4.6,2.2,6.1,2.3c1.2,0.3,2.2,0.9,3.1,1.7c0,0,1.1,2.8,2.6,3.7s1.3,1.7,1.3,3.2s0.2,3.3,2.4,3.9s3.9,0.9,6.1-0.2s3.7-3,5-4.3
	s2.2-3.7,4.1-4.4c2.3-0.7,4.8-1,7.2-0.9c1.1,0.2,4.1,0.9,5.8,0.2c1.4-0.8,2.7-1.8,3.9-2.9l1.3-1.8l2.8-1.3c0,0,1.3-1.7,0.6-3
	s-1.3-1.9-1.3-3s0-2.2-1.1-2.6c-0.7-0.1-1.3-0.4-1.9-0.9c-0.6-0.5-1.1-1.2-1.4-2l-4-1.3l-0.7-1.6l-2.4-2.2c0,0-2.4-2.1-3.1-0.2
	s-0.8,2.8-1.5,2.6s-2.4-0.7-2.8-1.5s-0.7-0.7-1.1-2c-0.3-1.1-0.9-2.2-1.7-3c-0.9-1.1-1.3-1.3-1.5-2s-0.3,0.2-0.3-1.7
	c0-1.1-0.2-2.3-0.6-3.3c-0.3-0.6-0.3-1.4,0-2c0.4-0.7,0.8-1.4,1.3-2l0.3-2.5v-1.8c0.8-0.4,1.5-1,2-1.7c1-1.3,1.5-1.7,1.4-2.4
	s-0.9-0.3-0.3-1.7c0.3-0.9,0.8-1.7,1.5-2.4l0.5-2.2c0,0-0.4-1.8-0.5-2.6c-0.3-0.7-0.3-1.5-0.2-2.2c0.2-0.9,0.3-1.5,1.1-1.9
	s2.6-0.3,3.7-1.1s0.4-0.4,1.1-1.7c0.5-0.8,1-1.6,1.6-2.2l1.1-3c0,0-2.1-1-2.5-1.9c-0.6-1.2-1-2.5-1.2-3.9c0-0.9-1.5-3.5-2.4-3.5
	s-2.5-0.3-3.2-0.4s-1.8,0.2-1.8,0.9s0.1,2.2-0.8,2.9c-0.5,0.4-1.2,0.5-1.8,0.3c0,0-2.6-1.7-3.7-1.7c-0.9-0.1-1.8,0.1-2.6,0.6
	c-1,0.3-2.1,0.4-3.1,0.3c0,0-1.5,1-1.5-2.2c0-1.6-0.2-3.2-0.7-4.6c-0.2-1.1-1.1-2.8-1.1-4.1c0-1.3-0.2-2.5-0.4-3.8
	c-0.3-0.7-1.2-1-1.9-0.7c0,0-0.1,0-0.1,0.1c-1.1,0.5-2.2,0.9-3.4,1.1c-1.6,0.2-2-0.1-3.5,0s-4.1,0.4-5.6,1.5
	c-1.5,1.2-2.9,2.6-4.1,4.1c-0.6,1-1.3,1.9-2,2.8c-0.5,0.5-0.9,1-1.3,1.5l-3,1.1c-1,0.1-2,0.3-3,0.7c-0.5,0.3-0.9,0.5-1.4,0.7
	c-1.2,0.5-2.6,0.5-3.8,0c-1.8-0.9-3.1-1.5-4.6-1.3s-1.8-0.6-3.6,0.8c-1.1,0.7-1.9,1.7-2.4,2.9c-0.7,1.5-1.2,3.2-1.4,4.9
	c-0.1,1.1-0.4,2.1-0.7,3.1l-1.1,2.5c-0.2,1-0.6,1.9-1.2,2.7c-0.7,0.7-0.2,2-1.9,1.8s-1.6-0.9-2.9-1.8s-1.5-1.9-3-1.3
	c-0.9,0.4-1.8,0.9-2.6,1.5l-1.5,1.1c0.8,0,1.5,0.6,1.5,1.4c0,0,0,0.1,0,0.1c-0.1,1.4-0.8,2.6-1.9,3.5c-0.7,0.6-2,3-2.6,3.7
	c-0.9,1.3-1.7,2.8-2.2,4.3c-0.2,0.9,0.2,2.2-0.2,3.7s-0.9,1.7-1.3,2.8s0.2,2.8-0.7,3.9c-0.7,0.8-1.3,1.7-1.9,2.6l-0.6,0.8
	c0,0-0.1,4.5,0,5.1s0.3,4.3,0.3,5.4s-0.2,5.4,0,6.9s0.4,4.8,0.9,5.6c0.7,0.8,1.3,1.6,1.7,2.6C247.3,84.5,247.9,87.7,247.5,88.8z"/>
<path class="st1" d="M308.5,89.6c0.1,1.5,0,3-0.5,4.4c-0.7,2.5-1,2.7-0.5,5.9s0.7,3.9,0.3,6.2c-0.6,2-0.1,4.1,1.2,5.7
	c1.5,1.7,2,1.5,1.7,3.7s-1.5,2.5-1.5,3.9s1,3.9-0.3,4.2s-1.5-1.5-3.4-1s-2,0.7-3.2,1s-1-1-1.7,1s-0.2,1.2-1,3s0.7,2.7-1,3.2
	s-1.5-0.7-3.2-0.3s-1.2,1.2-2.5,1.5s-1.2,0.2-3-0.3s-1.7-0.7-3-0.2c-0.8,0.3-1.6,0.6-2.5,0.7c-0.7,1.2-1,2.6-1,3.9
	c0.2,1.7-1.2,0.5-0.7,2.5s0,2.7,1.7,4.2s2.2,1.5,2.7,3.2s0,2.5,0.5,4.4s1.7,1.5,1.2,3.2s-1.2,0.5-1.2,2c-0.1,0.7,0.1,1.4,0.5,2
	l1.5,2c-0.1,1.3-0.2,2.6-0.5,3.9c-0.5,2.7-2,3.4-0.3,4.2s1.7,1.7,3.7,1.5c1.3-0.1,2.5,0,3.7,0.5c0,0,2.5-0.5,3,1s0.5,2.5-0.7,3
	s-1.5,2.5-1,3.7s4.4,10.8,4.9,12.8s3,9.1,3.7,11.6s1,5.4,1.7,8.4s1,5.4,2,7.4s1.5,6.2,3,8.6c1,1.7,1.7,3.5,2,5.4
	c0.5,1.7,0.5,2.5,1,3.9c0.4,1.2,0.9,2.3,1.5,3.4c0.7,1.5,1.7,1.7,2.7,2.5s1,0.7,1.7,4.2c0.3,1.7,0.9,3.4,1.7,4.9
	c0.6,1.4,1.1,2.9,1.5,4.4c0.1,0.6,0.2,1.1,0.3,1.7c0,0-5.2-2.5-7.9-3.7s-2.7-1.5-5.7-2.7s-5.4-3-7.1-2.2c-1.1,0.4-2.2,0.8-3.2,1.5
	c-1,0.7,0.7,0.3-2.5,1.7s-4.9,2.5-9.6,1.2s-4.9-1.7-8.1-1.7c-2.6,0-5.1-0.4-7.6-1c-2.2-0.5-3.5-0.5-4.9-1s-4.2-0.7-5.9-2.5
	s-2.5-3.2-4.4-3.7s-3.4,0.3-4.7-2.7s-1.5-6.4-1.7-8.9s-0.7-5.7-0.7-5.7c0.1-2,0-4-0.3-5.9c-0.5-3.4-2.2-3-1.2-5.2
	c0.4-1.2,1.3-2.2,2.5-2.7c0,0-0.5-1,1-2.2s3.2-2.5,4.4-1.2s0.7,2.9,3.9,2.5s0.3-1.2,1.7-2.2s1.7-0.4,1.7-1.6s-2-3.7-3-4.2
	s-0.5-0.5-3.7-1s-4.7-2.7-4.4-4.4s0-3.7,0.3-6.1s-0.5-2.2-0.3-4.2s-0.5-1.5,0.7-2.9c0.8-1,1.4-2,1.7-3.2c-1.5-0.2-3.1-0.4-4.7-0.5
	c-1.5,0-3.2,0.7-4.7-0.7s-2.5-3.2-2.2-4.4s0.2-1.2,0.5-2.7s1.7-3.9,1.2-5.2s-0.3-1.2-2.5-1.7s-3.2-2-4.2-1.2
	c-0.9,0.8-1.7,1.7-2.5,2.7c0,0-0.7,2-2.5,1s-2-2.2-3.7-2.5s-2.5-1-3.7-1.7c-1-0.5-2.1-0.9-3.2-1l-3.7-2.5c0,0-3.7-2-4.9-2.5
	s-2.2-0.2-2.9-1.5c-1-1.5-1.8-3-2.5-4.7c-0.5-1.4-1.2-2.7-2-3.9l-1.5-3.4c-0.7-1-1.5-2-2.5-2.7c-2-1.7-3-3.7-4.2-5.4
	s-2.7-4.4-2.7-4.4s-0.2-2.5,0.7-3.4s2.5-1.2,3.2-3s1.7-2.7,1.5-4.2c-0.1-1.1-0.1-2.3,0-3.4c0-1.5,0.3-3,1.7-3.7
	c2-1.1,3.8-2.4,5.4-3.9c1.5-1.5,0.5-1.7,2.7-2.5s2.2,0.7,3.4-0.5c0.8-0.8,1.5-1.7,2-2.7c0.7-0.1,1.4,0,2,0.5
	c1.2,0.8,2.7,0.9,3.9,0.3c1-0.7,1.7-1,2-2s-0.5-1,1-2s4.2-2.2,6.2-4.4s1-2.5,4.2-3.7c1.9-0.7,3.9-1.3,5.9-1.7
	c1.5-0.5,3.3-0.4,3.7-2.5c-0.3,0.3,1.5,2.4,2.8,0.1c0.1-0.1,1.6-3.8,2.8-1.4s1.7,3.3,3.9,2.1c2.2-1.2,4.3-2.1,4.3-2.1l1.1-0.1l2.4-2
	l1.1-1.3l2.5,2l2.7,0.1l2-2.3l3-1l1.5-3.8l1.6-0.6c0,0,2.7,1.4,3.9,2.2c1.2,0.7,2.6,1.3,3.9,1.8l1.9,1.3c0,0,0.4,2.1,1.4,2.1
	s3.2,1,4.4,0.5c0.8-0.3,1.4-0.9,1.8-1.7l1.5-0.3l3.2,0.7l3.7,1.7l2.2,0.5l2.1,1.4L308.5,89.6z"/>
<path class="st1" d="M308.5,89.6c0.1,1.5,0,3-0.5,4.4c-0.7,2.5-1,2.7-0.5,5.9s0.7,3.9,0.3,6.2c-0.6,2-0.1,4.1,1.2,5.7
	c1.5,1.7,2,1.5,1.7,3.7s-1.5,2.5-1.5,3.9s1,3.9-0.3,4.2s-1.5-1.5-3.4-1s-2,0.7-3.2,1s-1-1-1.7,1s-0.2,1.2-1,3s0.7,2.7-1,3.2
	s-1.5-0.7-3.2-0.3s-1.2,1.2-2.5,1.5s-1.2,0.2-3-0.3s-1.7-0.7-3-0.2c-0.8,0.3-1.6,0.6-2.5,0.7c-0.7,1.2-1,2.6-1,3.9
	c0.2,1.7-1.2,0.5-0.7,2.5s0,2.7,1.7,4.2s2.2,1.5,2.7,3.2s0,2.5,0.5,4.4s1.7,1.5,1.2,3.2s-1.2,0.5-1.2,2c-0.1,0.7,0.1,1.4,0.5,2
	l1.5,2c-0.1,1.3-0.2,2.6-0.5,3.9c-0.5,2.7-2,3.4-0.3,4.2s1.7,1.7,3.7,1.5c1.3-0.1,2.5,0,3.7,0.5c0,0,2.5-0.5,3,1s0.5,2.5-0.7,3
	s-1.5,2.5-1,3.7s4.4,10.8,4.9,12.8s3,9.1,3.7,11.6s1,5.4,1.7,8.4s1,5.4,2,7.4s1.5,6.2,3,8.6c1,1.7,1.7,3.5,2,5.4
	c0.5,1.7,0.5,2.5,1,3.9c0.4,1.2,0.9,2.3,1.5,3.4c0.7,1.5,1.7,1.7,2.7,2.5s1,0.7,1.7,4.2c0.3,1.7,0.9,3.4,1.7,4.9
	c0.6,1.4,1.1,2.9,1.5,4.4c0.1,0.6,0.2,1.1,0.3,1.7c0,0-5.2-2.5-7.9-3.7s-2.7-1.5-5.7-2.7s-5.4-3-7.1-2.2c-1.1,0.4-2.2,0.8-3.2,1.5
	c-1,0.7,0.7,0.3-2.5,1.7s-4.9,2.5-9.6,1.2s-4.9-1.7-8.1-1.7c-2.6,0-5.1-0.4-7.6-1c-2.2-0.5-3.5-0.5-4.9-1s-4.2-0.7-5.9-2.5
	s-2.5-3.2-4.4-3.7s-3.4,0.3-4.7-2.7s-1.5-6.4-1.7-8.9s-0.7-5.7-0.7-5.7c0.1-2,0-4-0.3-5.9c-0.5-3.4-2.2-3-1.2-5.2
	c0.4-1.2,1.3-2.2,2.5-2.7c0,0-0.5-1,1-2.2s3.2-2.5,4.4-1.2s0.7,2.9,3.9,2.5s0.3-1.2,1.7-2.2s1.7-0.4,1.7-1.6s-2-3.7-3-4.2
	s-0.5-0.5-3.7-1s-4.7-2.7-4.4-4.4s0-3.7,0.3-6.1s-0.5-2.2-0.3-4.2s-0.5-1.5,0.7-2.9c0.8-1,1.4-2,1.7-3.2c-1.5-0.2-3.1-0.4-4.7-0.5
	c-1.5,0-3.2,0.7-4.7-0.7s-2.5-3.2-2.2-4.4s0.2-1.2,0.5-2.7s1.7-3.9,1.2-5.2s-0.3-1.2-2.5-1.7s-3.2-2-4.2-1.2
	c-0.9,0.8-1.7,1.7-2.5,2.7c0,0-0.7,2-2.5,1s-2-2.2-3.7-2.5s-2.5-1-3.7-1.7c-1-0.5-2.1-0.9-3.2-1l-3.7-2.5c0,0-3.7-2-4.9-2.5
	s-2.2-0.2-2.9-1.5c-1-1.5-1.8-3-2.5-4.7c-0.5-1.4-1.2-2.7-2-3.9l-1.5-3.4c-0.7-1-1.5-2-2.5-2.7c-2-1.7-3-3.7-4.2-5.4
	s-2.7-4.4-2.7-4.4s-0.2-2.5,0.7-3.4s2.5-1.2,3.2-3s1.7-2.7,1.5-4.2c-0.1-1.1-0.1-2.3,0-3.4c0-1.5,0.3-3,1.7-3.7
	c2-1.1,3.8-2.4,5.4-3.9c1.5-1.5,0.5-1.7,2.7-2.5s2.2,0.7,3.4-0.5c0.8-0.8,1.5-1.7,2-2.7c0.7-0.1,1.4,0,2,0.5
	c1.2,0.8,2.7,0.9,3.9,0.3c1-0.7,1.7-1,2-2s-0.5-1,1-2s4.2-2.2,6.2-4.4s1-2.5,4.2-3.7c1.9-0.7,3.9-1.3,5.9-1.7
	c1.5-0.5,3.3-0.4,3.7-2.5c-0.3,0.3,1.5,2.4,2.8,0.1c0.1-0.1,1.6-3.8,2.8-1.4s1.7,3.3,3.9,2.1c2.2-1.2,4.3-2.1,4.3-2.1l1.1-0.1l2.4-2
	l1.1-1.3l2.5,2l2.7,0.1l2-2.3l3-1l1.5-3.8l1.6-0.6c0,0,2.7,1.4,3.9,2.2c1.2,0.7,2.6,1.3,3.9,1.8l1.9,1.3c0,0,0.4,2.1,1.4,2.1
	s3.2,1,4.4,0.5c0.8-0.3,1.4-0.9,1.8-1.7l1.5-0.3l3.2,0.7l3.7,1.7l2.2,0.5l2.1,1.4L308.5,89.6z"/>
<path class="st1" d="M308.7,88.8l-0.3,2.6l-1.2,5.6c0,0,0.4,4.6,0.6,6c0.1,1,0.1,2.1,0,3.1c0,1.3-0.8,3.3,0.4,4.7s2.2,2.8,2.2,2.8
	l0.4,1.9l-1.5,3.9l0.1,3.4c0,0-0.6,1.2-1.6,0.6s-1-0.9-2.2-0.8c-0.7,0.1-1.5,0.3-2.2,0.6c-0.4,0.1-0.7,0.2-1,0.4l-1.4-0.2l-1,3
	l-0.8,2.4c0,0,1,2.3-2,2c-0.7-0.2-1.5-0.2-2.2,0c-0.7,0.3-1.4,0.7-2,1.2c-0.5,0-1.1-0.1-1.6-0.2c-0.7,0-1.4-0.1-2.1-0.3
	c-0.9-0.3-1-0.3-1.7,0c-0.5,0.3-1,0.4-1.5,0.4c-0.9,0.1-1.3-0.4-1.5,0.3c-0.2,0.6-0.5,1.3-0.8,1.9l-0.1,1.5v1.2l-0.6,0.8
	c0,0,0,3.6,0.6,4.4c0.6,0.8,1.3,1.5,2.1,2.1c0.6,0.3,1,1.4,1.5,2s0.1,2,0.3,2.9c0.2,1.1,0.6,2.2,1.2,3.1c0.6,0.8,0.6,1,0.2,1.6
	s-1,1.4-1,1.4v1.6l1.7,2.8c0,1.3-0.2,2.6-0.5,3.9c-0.3,0.8-0.5,1.6-0.6,2.4l-0.3,1.5l2.9,1.9h3.5l2.5,0.1c0,0,2.3,0.3,2.7,1.8
	s0.3,1.8-0.5,2.1c-0.5,0.2-1,0.6-1.4,1.1c1.6,0.1,3.2,0,4.8-0.1c1.1-0.2,2.2-0.2,3.3-0.1c0,0,2.9,0.9,2.6-0.1
	c-0.3-0.8-0.3-1.7-0.1-2.6c0.2-0.7,0.6-1.3,1-1.8c0.8-0.2,1.5-0.7,2-1.4c0.5-0.9,1.3-0.4,1.8-1.1s1.1-0.3,1.7-0.6s1.6-0.8,1.8,0.1
	s0.1,1.9,0.9,2.3s1,1,2,0.4c0.8-0.4,1.3-1.2,1.5-2.1c0.1-0.9-0.5-0.6,1.4-2s1-2.6,1.2-3.1s0.5-0.6-0.6-1.3s-1.8-1.4-2.5-1.2
	c-0.7,0.1-1.4-0.4-1.5-1.1c-0.4-1.3-0.3-2.7,0.1-4c0.7-1.2,1.2-2.5,1.5-3.9c0.1-1.4,0.5-2.7,0.9-4.9s1.2-2.6,1.4-3.8s-0.5-2.4,0.6-3
	c0.8-0.3,1.6-0.4,2.4-0.1c0.5-0.2,1-0.6,1.4-1.1c0.6-0.8-0.2-1.1,1.3-1.5c1-0.4,1.9-1.1,2.4-2.1c0,0,1.6-2.1,3-1.7s2.7,1.4,3.5,0.1
	s2-3.6,2-3.6c-0.3-1.5-0.5-3.1-0.5-4.7c0.1-1.7,0.3-0.8-0.5-2.7s-0.9-2.4-0.6-3.8s-0.3-1.2-0.5-2.8s0.1-2.8,1.4-3.6s2.6-0.8,1.8-2.1
	s-2.1-1.3-2.1-3.6c0-1.6,0.2-3.1,0.5-4.7c0.1-1.5-1.8-0.9,0.5-2.4c1.2-0.7,2.2-1.8,2.9-3.1c0,0,0.5-1.7,1-2s1.8-0.5,2.2-1.5
	s1.7-3.6,1.4-4.2c-0.2-0.3-0.2-0.7,0-1c-0.6,1.4-1.8,2.5-3.3,2.8c-1.8,0.4-3.7,0.4-5.6,0c-1.7-0.4-3.5-0.4-5.3,0
	c-2,0.4-3.8,1.5-5.1,3c-1.7,1.7-2,2.9-3.8,4.2s-3,3-5,2.8s-5.6,0.5-6-1.6c-0.3-1.1-0.4-2.3-0.5-3.4c0-0.5-0.1-0.9-0.1-1.3
	c-0.9-0.6-1.7-1.4-2.4-2.3C309.7,90.4,309.2,89.6,308.7,88.8z"/>
<path class="st1" d="M308.7,88.8l-0.3,2.6l-1.2,5.6c0,0,0.4,4.6,0.6,6c0.1,1,0.1,2.1,0,3.1c0,1.3-0.8,3.3,0.4,4.7s2.2,2.8,2.2,2.8
	l0.4,1.9l-1.5,3.9l0.1,3.4c0,0-0.6,1.2-1.6,0.6s-1-0.9-2.2-0.8c-0.7,0.1-1.5,0.3-2.2,0.6c-0.4,0.1-0.7,0.2-1,0.4l-1.4-0.2l-1,3
	l-0.8,2.4c0,0,1,2.3-2,2c-0.7-0.2-1.5-0.2-2.2,0c-0.7,0.3-1.4,0.7-2,1.2c-0.5,0-1.1-0.1-1.6-0.2c-0.7,0-1.4-0.1-2.1-0.3
	c-0.9-0.3-1-0.3-1.7,0c-0.5,0.3-1,0.4-1.5,0.4c-0.9,0.1-1.3-0.4-1.5,0.3c-0.2,0.6-0.5,1.3-0.8,1.9l-0.1,1.5v1.2l-0.6,0.8
	c0,0,0,3.6,0.6,4.4c0.6,0.8,1.3,1.5,2.1,2.1c0.6,0.3,1,1.4,1.5,2s0.1,2,0.3,2.9c0.2,1.1,0.6,2.2,1.2,3.1c0.6,0.8,0.6,1,0.2,1.6
	s-1,1.4-1,1.4v1.6l1.7,2.8c0,1.3-0.2,2.6-0.5,3.9c-0.3,0.8-0.5,1.6-0.6,2.4l-0.3,1.5l2.9,1.9h3.5l2.5,0.1c0,0,2.3,0.3,2.7,1.8
	s0.3,1.8-0.5,2.1c-0.5,0.2-1,0.6-1.4,1.1c1.6,0.1,3.2,0,4.8-0.1c1.1-0.2,2.2-0.2,3.3-0.1c0,0,2.9,0.9,2.6-0.1
	c-0.3-0.8-0.3-1.7-0.1-2.6c0.2-0.7,0.6-1.3,1-1.8c0.8-0.2,1.5-0.7,2-1.4c0.5-0.9,1.3-0.4,1.8-1.1s1.1-0.3,1.7-0.6s1.6-0.8,1.8,0.1
	s0.1,1.9,0.9,2.3s1,1,2,0.4c0.8-0.4,1.3-1.2,1.5-2.1c0.1-0.9-0.5-0.6,1.4-2s1-2.6,1.2-3.1s0.5-0.6-0.6-1.3s-1.8-1.4-2.5-1.2
	c-0.7,0.1-1.4-0.4-1.5-1.1c-0.4-1.3-0.3-2.7,0.1-4c0.7-1.2,1.2-2.5,1.5-3.9c0.1-1.4,0.5-2.7,0.9-4.9s1.2-2.6,1.4-3.8s-0.5-2.4,0.6-3
	c0.8-0.3,1.6-0.4,2.4-0.1c0.5-0.2,1-0.6,1.4-1.1c0.6-0.8-0.2-1.1,1.3-1.5c1-0.4,1.9-1.1,2.4-2.1c0,0,1.6-2.1,3-1.7s2.7,1.4,3.5,0.1
	s2-3.6,2-3.6c-0.3-1.5-0.5-3.1-0.5-4.7c0.1-1.7,0.3-0.8-0.5-2.7s-0.9-2.4-0.6-3.8s-0.3-1.2-0.5-2.8s0.1-2.8,1.4-3.6s2.6-0.8,1.8-2.1
	s-2.1-1.3-2.1-3.6c0-1.6,0.2-3.1,0.5-4.7c0.1-1.5-1.8-0.9,0.5-2.4c1.2-0.7,2.2-1.8,2.9-3.1c0,0,0.5-1.7,1-2s1.8-0.5,2.2-1.5
	s1.7-3.6,1.4-4.2c-0.2-0.3-0.2-0.7,0-1c-0.6,1.4-1.8,2.5-3.3,2.8c-1.8,0.4-3.7,0.4-5.6,0c-1.7-0.4-3.5-0.4-5.3,0
	c-2,0.4-3.8,1.5-5.1,3c-1.7,1.7-2,2.9-3.8,4.2s-3,3-5,2.8s-5.6,0.5-6-1.6c-0.3-1.1-0.4-2.3-0.5-3.4c0-0.5-0.1-0.9-0.1-1.3
	c-0.9-0.6-1.7-1.4-2.4-2.3C309.7,90.4,309.2,89.6,308.7,88.8z"/>
<path class="st1" d="M325.3,256.5l4.8,2.4l3.7-3.3c0,0,13.3-9.2,13.5-11.5s1.3-8.3,1.3-9.8s0.8-3,0.5-4.5s-1.2-3.7-0.7-6.6
	s0.7-14.9,0.7-14.9s0.3-2.8-0.7-4.5c-0.6-0.8-0.9-1.7-1-2.7c0,0,2.8-0.8,3.3-2.3s2.2-5.5,3.2-6.1s1.3-3.1,1.5-4.4
	c0.4-1.5,0.9-2.9,1.5-4.2c0.3-1.1,0.5-2.3,0.5-3.5l0.3-2.5c0,0,3.9-8.2,5.1-10c1.4-2.3,2.2-4.9,2.4-7.5c0-2-0.5-7.2,0.5-10
	s0.5-8,1-9s0.8-3.7,1-4.7s-0.3-3.7,0.7-6.2c0.8-2,1.3-4.1,1.5-6.3c0-1.2,0.5-5,0.5-5l0.2-2.9l11.1,0.7c0.5-0.9,0.5-1.9,0.2-2.8
	c-0.3-1.5-0.3-3,0-4.5c0,0,0.3-1.3,0.5-2.3s-0.5-2.2-1-3.2c-0.4-0.7-0.8-1.4-1.2-2l-0.9-1.3c-1.7-2-4.3-3-6.9-2.5
	c-4.5,0.8-5.2,1-6.5,0.1s-7-3.3-7-3.3l-5.5-3.2l-3.2-2.3L347,87c0,0-0.5,4.8-3.6,6.8c-0.1,0.2-1.9,3.2-1.9,3.2l-3.3,2.7l0.8,1.6
	l-0.5,4.7l0.5,1.5l1.6,2.1c0,0,0.8,1.3-1.8,2.1c0.2,0.1-1.4,1.3-1.4,1.3v2.3l0.5,1.4l-0.3,3l1.5,3.8l-0.3,1.1l0.3,1.7l0.2,3
	l-2.7,4.5l-3.8-1.3l-2,1.9l-3.7,3.6l-1.4,1l-3.5,0.5l0.5,2.6l-1.4,3.8l-0.9,4.9l-1.5,3.9l-0.5,2.5l1,2.5l3.4,1.3l0.9,2.7l-2.8,3
	c0,0-1,3-2.8,3c-0.3,0.3-2.1-1.4-1.7-2.9c0.5-0.2-1.1-1.2-1.1-1.2c-0.7,0.7-1.5,1.2-2.4,1.6c-1.3,0.7-2.6,1.5-3.7,2.4l-1,1.8
	l0.1,2.6l-4.2,0.4l-5.9-0.8l-1.4,1.8l0.8,3c0,0,7.5,20,8.3,24.3c0.5,2.5,1.8,9.7,3,12.8s3.2,11,4.7,13c1,2.5,2,9.8,4.3,11.8
	c0.9,1,1.9,1.9,3,2.7l0.5,2.6l2.8,8.2L325.3,256.5z"/>
<path class="st1" d="M325.3,256.5l4.8,2.4l3.7-3.3c0,0,13.3-9.2,13.5-11.5s1.3-8.3,1.3-9.8s0.8-3,0.5-4.5s-1.2-3.7-0.7-6.6
	s0.7-14.9,0.7-14.9s0.3-2.8-0.7-4.5c-0.6-0.8-0.9-1.7-1-2.7c0,0,2.8-0.8,3.3-2.3s2.2-5.5,3.2-6.1s1.3-3.1,1.5-4.4
	c0.4-1.5,0.9-2.9,1.5-4.2c0.3-1.1,0.5-2.3,0.5-3.5l0.3-2.5c0,0,3.9-8.2,5.1-10c1.4-2.3,2.2-4.9,2.4-7.5c0-2-0.5-7.2,0.5-10
	s0.5-8,1-9s0.8-3.7,1-4.7s-0.3-3.7,0.7-6.2c0.8-2,1.3-4.1,1.5-6.3c0-1.2,0.5-5,0.5-5l0.2-2.9l11.1,0.7c0.5-0.9,0.5-1.9,0.2-2.8
	c-0.3-1.5-0.3-3,0-4.5c0,0,0.3-1.3,0.5-2.3s-0.5-2.2-1-3.2c-0.4-0.7-0.8-1.4-1.2-2l-0.9-1.3c-1.7-2-4.3-3-6.9-2.5
	c-4.5,0.8-5.2,1-6.5,0.1s-7-3.3-7-3.3l-5.5-3.2l-3.2-2.3L347,87c0,0-0.5,4.8-3.6,6.8c-0.1,0.2-1.9,3.2-1.9,3.2l-3.3,2.7l0.8,1.6
	l-0.5,4.7l0.5,1.5l1.6,2.1c0,0,0.8,1.3-1.8,2.1c0.2,0.1-1.4,1.3-1.4,1.3v2.3l0.5,1.4l-0.3,3l1.5,3.8l-0.3,1.1l0.3,1.7l0.2,3
	l-2.7,4.5l-3.8-1.3l-2,1.9l-3.7,3.6l-1.4,1l-3.5,0.5l0.5,2.6l-1.4,3.8l-0.9,4.9l-1.5,3.9l-0.5,2.5l1,2.5l3.4,1.3l0.9,2.7l-2.8,3
	c0,0-1,3-2.8,3c-0.3,0.3-2.1-1.4-1.7-2.9c0.5-0.2-1.1-1.2-1.1-1.2c-0.7,0.7-1.5,1.2-2.4,1.6c-1.3,0.7-2.6,1.5-3.7,2.4l-1,1.8
	l0.1,2.6l-4.2,0.4l-5.9-0.8l-1.4,1.8l0.8,3c0,0,7.5,20,8.3,24.3c0.5,2.5,1.8,9.7,3,12.8s3.2,11,4.7,13c1,2.5,2,9.8,4.3,11.8
	c0.9,1,1.9,1.9,3,2.7l0.5,2.6l2.8,8.2L325.3,256.5z"/>
<path class="st1" d="M206.9,144.3l-2.7,3.4l-0.1,11.2l0.1,7.3l1.6,2.2l-1.8,3.8c0,0-1,2.8,0.6,4.6c0.2,0.1-1,6.1-1,6.1
	c0.6,2,0.2,4.2-1,5.9c-0.4,0.8-2,2.3-0.7,4.9c0.9,1.4,1.2,3.8-1.4,5.6c-1.4,0.7-2.9,1-4.4,0.8l-2.2,0.8l-2.1-1c0,0,1.1,2.1-0.4,5.3
	s-3.3,7.7-1.3,9.1s1.8,4.2,1.6,5.2s-1.4,4.8-2.2,5c-0.8,0-1.6-0.1-2.4-0.4l0.4,4.7c0.8,1,2,1.8,3.2,2.2c1.8,0.4,6.6,0,9.6,2.8
	c1.8,1.6,3.8,3.1,5.9,4.2c1.2,0.8,10.3,3.7,13.1,4.5s6.8,1.8,6.8,1.8s6.3-3.7,8.9-5.3s8.4-6,10.3-7.2c2-1.5,3.9-3.1,5.7-4.8
	c0,0,0.2-7.5-0.2-8.5s-1.4-2.2-1.4-3s-0.2-2.2,1-3c0.7-0.4,1.3-1,1.8-1.6l2.2-2.5c0,0,1.9-1.4,3.1-0.3s1,2.2,2.2,2.4s2.8,0.6,3-0.2
	s0.5-2,0.5-2s1.7-0.4,1.7-1.5c-0.1-1.4-0.9-2.7-2.2-3.4c-0.9-0.5-1.9-1-2.8-1.4c0,0-3.6-0.4-4.4-1.8s-1.8-1.3-1.6-5s-0.1-7.2,0-8.3
	c0-0.7,0-1.4-0.2-2.1l2.6-4.1c0,0-2.2-0.1-3.4-0.4s-2.6-0.4-2.6-0.4s-2.3,1-3.3-0.5s-2.8-3-2.2-5.4c0.4-0.8,0-2,0.6-3s1.4-4.2,0-5
	s-4.2-2-4.2-2c-0.9-0.2-1.8,0.1-2.4,0.8c-0.5,0.6-1,1.4-1.4,2.1c-0.4,0.7-1.2,2.1-2.5,1c-0.9-0.8-1.9-1.4-2.9-2c0,0,0.8-0.1-0.8-0.6
	s-2.4-0.6-2.4-0.6l-1.3-1.1l-3.2-1c0,0-6.4-4.6-8.6-4.9c0.4-0.1-3.3,0.1-3.9-2.7c-0.4-1-2.4-5-2.4-5l-1.1-2.3L206.9,144.3z"/>
<path class="st1" d="M206.9,144.3l-2.7,3.4l-0.1,11.2l0.1,7.3l1.6,2.2l-1.8,3.8c0,0-1,2.8,0.6,4.6c0.2,0.1-1,6.1-1,6.1
	c0.6,2,0.2,4.2-1,5.9c-0.4,0.8-2,2.3-0.7,4.9c0.9,1.4,1.2,3.8-1.4,5.6c-1.4,0.7-2.9,1-4.4,0.8l-2.2,0.8l-2.1-1c0,0,1.1,2.1-0.4,5.3
	s-3.3,7.7-1.3,9.1s1.8,4.2,1.6,5.2s-1.4,4.8-2.2,5c-0.8,0-1.6-0.1-2.4-0.4l0.4,4.7c0.8,1,2,1.8,3.2,2.2c1.8,0.4,6.6,0,9.6,2.8
	c1.8,1.6,3.8,3.1,5.9,4.2c1.2,0.8,10.3,3.7,13.1,4.5s6.8,1.8,6.8,1.8s6.3-3.7,8.9-5.3s8.4-6,10.3-7.2c2-1.5,3.9-3.1,5.7-4.8
	c0,0,0.2-7.5-0.2-8.5s-1.4-2.2-1.4-3s-0.2-2.2,1-3c0.7-0.4,1.3-1,1.8-1.6l2.2-2.5c0,0,1.9-1.4,3.1-0.3s1,2.2,2.2,2.4s2.8,0.6,3-0.2
	s0.5-2,0.5-2s1.7-0.4,1.7-1.5c-0.1-1.4-0.9-2.7-2.2-3.4c-0.9-0.5-1.9-1-2.8-1.4c0,0-3.6-0.4-4.4-1.8s-1.8-1.3-1.6-5s-0.1-7.2,0-8.3
	c0-0.7,0-1.4-0.2-2.1l2.6-4.1c0,0-2.2-0.1-3.4-0.4s-2.6-0.4-2.6-0.4s-2.3,1-3.3-0.5s-2.8-3-2.2-5.4c0.4-0.8,0-2,0.6-3s1.4-4.2,0-5
	s-4.2-2-4.2-2c-0.9-0.2-1.8,0.1-2.4,0.8c-0.5,0.6-1,1.4-1.4,2.1c-0.4,0.7-1.2,2.1-2.5,1c-0.9-0.8-1.9-1.4-2.9-2c0,0,0.8-0.1-0.8-0.6
	s-2.4-0.6-2.4-0.6l-1.3-1.1l-3.2-1c0,0-6.4-4.6-8.6-4.9c0.4-0.1-3.3,0.1-3.9-2.7c-0.4-1-2.4-5-2.4-5l-1.1-2.3L206.9,144.3z"/>
<path class="st1" d="M226,269.4c-0.9,0.5-2,0.5-3,0.2c-1.6-0.6-2-0.6-2.4-1.4c-0.5-0.8-1.2-1.5-2-2c-0.7-0.4-1.9-1.2-1.9-1.2
	c-1.2,0-2.5,0.2-3.6,0.6c-1,0.6-3.8,1.4-5.6,0.8c-1.2-0.4-2.4-1-3.4-1.8c-1-0.6-2.9-2.8-4.5-2.2s-2.6,1.4-3.8,1.4s-2.8-0.8-4.2,0.4
	l-4.2,3.6c0,0-1.5,0.6-2.7,1.2s-3.6,1-4.8,1.8c-1.3,0.9-2.6,1.6-4,2.3c-1,0.4-4.4,1.4-4.4,1.4l0.2-8.1c0,0,3-3.4,4.2-3.8
	s4-4.1,4.4-5.4s1.8-5.7,2.2-6.5s2.5,0,3.6,0.2s3.9,1.8,7.1,2.6s3.8,2,5.6,2c1.8-0.1,3.6-0.4,5.3-0.8c0,0,1-4.4,1.2-5.4
	c0.4-1.4,0.7-2.9,0.8-4.4c0-1.4-0.6-7.3-0.6-7.3l10,3.7l10.7,3.2c0,0,1.2,5.6-0.2,6.4s-2.2,4.1,0,6.1c2.2,2,5,4.6,5,4.6
	c0.5,0.3,1,0.4,1.6,0.4c1.1,0,3.7-0.4,2.7,1.4c-0.3,0.7-0.7,1.4-1.2,2c0,0-1.7-0.2-2.3,0.6c-0.6,0.8-1.5,1.4-2.4,1.8
	C228.4,268.2,226,269.4,226,269.4z"/>
<path class="st1" d="M226,269.4c-0.9,0.5-2,0.5-3,0.2c-1.6-0.6-2-0.6-2.4-1.4c-0.5-0.8-1.2-1.5-2-2c-0.7-0.4-1.9-1.2-1.9-1.2
	c-1.2,0-2.5,0.2-3.6,0.6c-1,0.6-3.8,1.4-5.6,0.8c-1.2-0.4-2.4-1-3.4-1.8c-1-0.6-2.9-2.8-4.5-2.2s-2.6,1.4-3.8,1.4s-2.8-0.8-4.2,0.4
	l-4.2,3.6c0,0-1.5,0.6-2.7,1.2s-3.6,1-4.8,1.8c-1.3,0.9-2.6,1.6-4,2.3c-1,0.4-4.4,1.4-4.4,1.4l0.2-8.1c0,0,3-3.4,4.2-3.8
	s4-4.1,4.4-5.4s1.8-5.7,2.2-6.5s2.5,0,3.6,0.2s3.9,1.8,7.1,2.6s3.8,2,5.6,2c1.8-0.1,3.6-0.4,5.3-0.8c0,0,1-4.4,1.2-5.4
	c0.4-1.4,0.7-2.9,0.8-4.4c0-1.4-0.6-7.3-0.6-7.3l10,3.7l10.7,3.2c0,0,1.2,5.6-0.2,6.4s-2.2,4.1,0,6.1c2.2,2,5,4.6,5,4.6
	c0.5,0.3,1,0.4,1.6,0.4c1.1,0,3.7-0.4,2.7,1.4c-0.3,0.7-0.7,1.4-1.2,2c0,0-1.7-0.2-2.3,0.6c-0.6,0.8-1.5,1.4-2.4,1.8
	C228.4,268.2,226,269.4,226,269.4z"/>
<path class="st1" d="M145.2,328.4c1.6-0.4,9.3-2.6,12.9-3.4s7.8-1.6,10.5-2.2s5.5-0.7,8.9-2.8c3.2-1.9,5.9-4.5,7.8-7.7
	c1.5-2.8,8.1-14,9.9-16.4s4.6-6.8,5.4-7.6c0.7-0.9,1.3-1.9,1.9-2.9c0,0,5.2,0.2,5.8-0.6s1.4-2,2.2-3s3.2-3.2,3.8-6.2
	c0.4-1.8,0.4-3.7,0.2-5.5c0,0-0.6-1,0.8-2c0.9-0.7,1.3-1.9,1.2-3c-1.2,0-2.5,0.2-3.6,0.6c-1.2,0.6-4.8,0.8-5.6,0.8s-2-1-3.4-1.8
	s-1.5-2-3.3-2c-1.2-0.1-2.4,0.2-3.4,0.8c-0.9,0.4-2,0.5-3,0.4c-1.2,0-2.6-0.2-3.8,1c-1,1.1-2,2.1-3.2,3c-1.3,0.8-0.9,1-2.7,1.2
	c-2,0.2-4,0.8-5.8,1.8c-1.2,0.8-0.8,1.7-3,2.3s-4.4,1.4-4.4,1.4s0.1,0.4-1.7,1s-5.8,2.6-9.3,4.2c-2.6,1.3-5.3,2.3-8.1,2.8
	c-1.8,0.2-6.4,0.8-6.4,0.8l-0.2,18.6c0,0-4.6,5.3-2.8,6.9s8,3.2,6.4,4.4s-5.8,4.5-5.8,6.5S143.6,328.8,145.2,328.4z"/>
<path class="st1" d="M145.2,328.4c1.6-0.4,9.3-2.6,12.9-3.4s7.8-1.6,10.5-2.2s5.5-0.7,8.9-2.8c3.2-1.9,5.9-4.5,7.8-7.7
	c1.5-2.8,8.1-14,9.9-16.4s4.6-6.8,5.4-7.6c0.7-0.9,1.3-1.9,1.9-2.9c0,0,5.2,0.2,5.8-0.6s1.4-2,2.2-3s3.2-3.2,3.8-6.2
	c0.4-1.8,0.4-3.7,0.2-5.5c0,0-0.6-1,0.8-2c0.9-0.7,1.3-1.9,1.2-3c-1.2,0-2.5,0.2-3.6,0.6c-1.2,0.6-4.8,0.8-5.6,0.8s-2-1-3.4-1.8
	s-1.5-2-3.3-2c-1.2-0.1-2.4,0.2-3.4,0.8c-0.9,0.4-2,0.5-3,0.4c-1.2,0-2.6-0.2-3.8,1c-1,1.1-2,2.1-3.2,3c-1.3,0.8-0.9,1-2.7,1.2
	c-2,0.2-4,0.8-5.8,1.8c-1.2,0.8-0.8,1.7-3,2.3s-4.4,1.4-4.4,1.4s0.1,0.4-1.7,1s-5.8,2.6-9.3,4.2c-2.6,1.3-5.3,2.3-8.1,2.8
	c-1.8,0.2-6.4,0.8-6.4,0.8l-0.2,18.6c0,0-4.6,5.3-2.8,6.9s8,3.2,6.4,4.4s-5.8,4.5-5.8,6.5S143.6,328.8,145.2,328.4z"/>
<path class="st1" d="M181.8,317.4c0,0,2.5,4.9,4,5.7s6.9,2,8.9,2.2s5.4,0.6,5.4,0.6s0.3-1.6,1.6-1.6s3.9,1,6.7,1.6
	c2.3,0.6,4.6,0.9,7,0.8c2-0.2,4.7-1,4.7-2.4s3-14.5,4.6-18.2s2-6.7,2.8-8.9s2-5.5,3-8.2s0.9-4.7,2.2-7.9s2.9-8,2.9-8
	c-1.4-1-3-1.5-4.7-1.5h-3l-2-2.2c0,0,0.2,0.8-1.2,0.6c-1-0.2-1.9-0.5-2.8-1c0,0-1-0.2-1.8-1.8c-1.2-0.7-2.4-1.4-3.5-2.2l0.2,1
	l-2.2,4c0,0,1,4.9-1.2,7.9s-4,5-4,5l-1,1.8l-5.8,0.6l-10.9,15.1l-6.3,11.7l-1.8,2.6L181.8,317.4z"/>
<path class="st1" d="M181.8,317.4c0,0,2.5,4.9,4,5.7s6.9,2,8.9,2.2s5.4,0.6,5.4,0.6s0.3-1.6,1.6-1.6s3.9,1,6.7,1.6
	c2.3,0.6,4.6,0.9,7,0.8c2-0.2,4.7-1,4.7-2.4s3-14.5,4.6-18.2s2-6.7,2.8-8.9s2-5.5,3-8.2s0.9-4.7,2.2-7.9s2.9-8,2.9-8
	c-1.4-1-3-1.5-4.7-1.5h-3l-2-2.2c0,0,0.2,0.8-1.2,0.6c-1-0.2-1.9-0.5-2.8-1c0,0-1-0.2-1.8-1.8c-1.2-0.7-2.4-1.4-3.5-2.2l0.2,1
	l-2.2,4c0,0,1,4.9-1.2,7.9s-4,5-4,5l-1,1.8l-5.8,0.6l-10.9,15.1l-6.3,11.7l-1.8,2.6L181.8,317.4z"/>
<path class="st1" d="M219.6,325.5c0,0,3.4,2.6,5.2,2.6s3.8-0.4,5.6,0.6s1.7,1.6,4.1,2c2.6,0.5,5.3,0.7,8,0.6c1.5-0.1,3-0.6,4.2-1.6
	c1.2-1,2.7-3.2,3.9-3.6s1.8-0.2,3-0.6s1-0.6,1.8-1s1.2,0.4,2.4-1.2s2.8-3.4,2.8-3.4s3.7-0.7,4.2-1.9s-1.7-2,1.3-2.2s2.4,1.6,4-0.4
	s1.4-2.8,3-3.2s2.4-0.2,3.2-1.2s1.4-1.6,1.4-1.6l-5.6-2.6l-0.8-4.3h-6.9c0,0,1,0.2-1.6-1.2s-0.6-2-5.6-2.8c-3.6-0.5-7-1.8-10.1-3.6
	c-1.2-0.8-2.6-1.2-3-2.2s0.4-3,0.4-3s-0.8,0.5,0-2.5c0.6-1.8,1.2-4,1.2-4l-2-4.8c0,0,0.4-1.2-2-1.2h-2.4c0,0-2-0.6-2-2
	c-0.1-0.4-0.2-0.8-0.4-1.2l-1.2-0.8l-3.5,9.6l-0.8,4.2l-3.2,8.7l-1.8,7l-2.6,6.3l-2.8,10.3l-0.8,5L219.6,325.5z"/>
<path class="st1" d="M219.6,325.5c0,0,3.4,2.6,5.2,2.6s3.8-0.4,5.6,0.6s1.7,1.6,4.1,2c2.6,0.5,5.3,0.7,8,0.6c1.5-0.1,3-0.6,4.2-1.6
	c1.2-1,2.7-3.2,3.9-3.6s1.8-0.2,3-0.6s1-0.6,1.8-1s1.2,0.4,2.4-1.2s2.8-3.4,2.8-3.4s3.7-0.7,4.2-1.9s-1.7-2,1.3-2.2s2.4,1.6,4-0.4
	s1.4-2.8,3-3.2s2.4-0.2,3.2-1.2s1.4-1.6,1.4-1.6l-5.6-2.6l-0.8-4.3h-6.9c0,0,1,0.2-1.6-1.2s-0.6-2-5.6-2.8c-3.6-0.5-7-1.8-10.1-3.6
	c-1.2-0.8-2.6-1.2-3-2.2s0.4-3,0.4-3s-0.8,0.5,0-2.5c0.6-1.8,1.2-4,1.2-4l-2-4.8c0,0,0.4-1.2-2-1.2h-2.4c0,0-2-0.6-2-2
	c-0.1-0.4-0.2-0.8-0.4-1.2l-1.2-0.8l-3.5,9.6l-0.8,4.2l-3.2,8.7l-1.8,7l-2.6,6.3l-2.8,10.3l-0.8,5L219.6,325.5z"/>
<path class="st1" d="M333.8,255.6c1.3,0.2,2.6,0.1,3.9-0.4c2-0.8,3.8-1.4,3.8-1.4l1.4-0.6c0,0,1.5-1.2,2.6-1.1
	c-0.3,0.1-0.3,2.1-0.3,2.1l1.8,1l-0.4,2.7l-0.6,1l0.2,2.8l-1.9,1.3l-1.2,2.7l-1.4,1.8l-0.8,1l-0.6,3.2c-0.6,1.1-1,2.3-1.4,3.5
	c-0.2,1-1,4.2-0.6,5c0.2,0.5,0.6,0.8,1.1,1c-0.1,1.4,0.1,2.8,0.7,4c1,2.2,3.1,4.7,4.9,7.9c1.4,2.7,2,5.8,1.8,8.8
	c-0.2,1.2,0.8,9.7-0.4,10.7s-4.1,0.8-5.7,2.4s-2.2,4.9-2.8,6.5c-0.9,2.2-1.6,4.5-2,6.8c-0.2,2.2-1,5.1-1.2,6.5c0,2.1,0,4.3,0.2,6.4
	c0,0.8,1.2,0.6,0.6,2.6s-0.4,4.4-3,4.6s-3.7,0-5.3,0.6s-3-0.1-4.2,2.1s-0.6,3.8-1.4,5.6s-1.8,1.6-2,3s0.4,3.8-0.6,5.4
	s-2.8,1.7-3.2,4.1s-0.1,2.8-1.8,4.2s-3.3,3-2.9,5s0.4,2.7-0.6,4.1c-0.8,1.1-1.2,2.5-1.2,3.8c0.2,1.6,0.1,3.3-0.4,4.8
	c-0.8,2-1.6,5.3-0.2,7.3s2.8,3.6,2.8,5.6s0.4,3.8-0.4,5.2c-0.9,1.4-1.9,2.6-3,3.8c-0.6,0.7-2.4,0.7-3.8,0.7s-17.6-0.4-17.6-0.4
	c-0.1-1.1,0-2.2,0.2-3.3c0.4-1.8-1-3.8-1.2-5c-0.1-1.3-0.1-2.5,0-3.8c0.1-1.4,0.6-2.8,1.4-3.9c0.6-0.8-0.2,0,0.6-2.8s1.4-3.6,1-6
	s-1.2-3.3-1.2-5.2s-0.6-3.1-0.4-4.9s0.8-1.8,0.8-4.6s0.2-2.2,0.8-4.6s1-4.5,1-4.5l3-4.4c0.8-0.8,1.4-1.7,1.8-2.8
	c0.6-1.8,1-1.2,0.8-2.8c-0.2-1.5-0.4-2.9-0.8-4.3c-0.4-1.6-1.6-1.6-2.2-2.4s-1.2-0.8-1.4-2.4c-0.1-0.9-0.3-1.7-0.8-2.4
	c0,0-1.6-1.8-0.6-3c1.1-1.4,1.6-3.2,1.4-5c-0.2-1.9-1-4.9-2.2-5.9s-1.4-0.6-1.6-2.8s-2.6-1-2.4-3.6s-0.6-2.7,0.4-4.9
	c0.7-1.5,1.2-3,1.6-4.6c0.3-1,0.8-1.9,1.6-2.6c1.2-1,0.2-1.6,1.6-2.4s1-3.4,0.4-2.4s-1.4,1.2-3,1s-2.2-2-3.2,0s-0.4,1.8-1.6,2.8
	c-0.7,0.6-1.6,0.9-2.5,1l-2-1.6l-5.6-2.6l-0.8-4.3h-6.9l-3-2.6c0,0-7.2-2.4-10.9-3.2c-1.5-1-5.9-3.2-5.9-3.2s-1-0.9-0.2-3.8
	c0.4-0.2,1.6,0.4,1.6,0.4l4.1-1.8c2,0,3.8-0.7,5.2-2.1c1.4-0.8,3-2.6,5.6-0.6c1.2,0.7,2.4,1.3,3.6,1.8l3.3,0.2l1.4,0.7h4.8l1.6,1
	l1.2,1.8l3.8,3.6l2.1,3.6c0.9,1.6,2.8,2.5,4.6,2c0.6,0,3.8-3,3.8-3l4-3.4l2.5,0.8l2.4-0.2l3,0.6l16.2-21.6l0.8-1.7l9.8-12.9
	L333.8,255.6z"/>
<path class="st1" d="M333.8,255.6c1.3,0.2,2.6,0.1,3.9-0.4c2-0.8,3.8-1.4,3.8-1.4l1.4-0.6c0,0,1.5-1.2,2.6-1.1
	c-0.3,0.1-0.3,2.1-0.3,2.1l1.8,1l-0.4,2.7l-0.6,1l0.2,2.8l-1.9,1.3l-1.2,2.7l-1.4,1.8l-0.8,1l-0.6,3.2c-0.6,1.1-1,2.3-1.4,3.5
	c-0.2,1-1,4.2-0.6,5c0.2,0.5,0.6,0.8,1.1,1c-0.1,1.4,0.1,2.8,0.7,4c1,2.2,3.1,4.7,4.9,7.9c1.4,2.7,2,5.8,1.8,8.8
	c-0.2,1.2,0.8,9.7-0.4,10.7s-4.1,0.8-5.7,2.4s-2.2,4.9-2.8,6.5c-0.9,2.2-1.6,4.5-2,6.8c-0.2,2.2-1,5.1-1.2,6.5c0,2.1,0,4.3,0.2,6.4
	c0,0.8,1.2,0.6,0.6,2.6s-0.4,4.4-3,4.6s-3.7,0-5.3,0.6s-3-0.1-4.2,2.1s-0.6,3.8-1.4,5.6s-1.8,1.6-2,3s0.4,3.8-0.6,5.4
	s-2.8,1.7-3.2,4.1s-0.1,2.8-1.8,4.2s-3.3,3-2.9,5s0.4,2.7-0.6,4.1c-0.8,1.1-1.2,2.5-1.2,3.8c0.2,1.6,0.1,3.3-0.4,4.8
	c-0.8,2-1.6,5.3-0.2,7.3s2.8,3.6,2.8,5.6s0.4,3.8-0.4,5.2c-0.9,1.4-1.9,2.6-3,3.8c-0.6,0.7-2.4,0.7-3.8,0.7s-17.6-0.4-17.6-0.4
	c-0.1-1.1,0-2.2,0.2-3.3c0.4-1.8-1-3.8-1.2-5c-0.1-1.3-0.1-2.5,0-3.8c0.1-1.4,0.6-2.8,1.4-3.9c0.6-0.8-0.2,0,0.6-2.8s1.4-3.6,1-6
	s-1.2-3.3-1.2-5.2s-0.6-3.1-0.4-4.9s0.8-1.8,0.8-4.6s0.2-2.2,0.8-4.6s1-4.5,1-4.5l3-4.4c0.8-0.8,1.4-1.7,1.8-2.8
	c0.6-1.8,1-1.2,0.8-2.8c-0.2-1.5-0.4-2.9-0.8-4.3c-0.4-1.6-1.6-1.6-2.2-2.4s-1.2-0.8-1.4-2.4c-0.1-0.9-0.3-1.7-0.8-2.4
	c0,0-1.6-1.8-0.6-3c1.1-1.4,1.6-3.2,1.4-5c-0.2-1.9-1-4.9-2.2-5.9s-1.4-0.6-1.6-2.8s-2.6-1-2.4-3.6s-0.6-2.7,0.4-4.9
	c0.7-1.5,1.2-3,1.6-4.6c0.3-1,0.8-1.9,1.6-2.6c1.2-1,0.2-1.6,1.6-2.4s1-3.4,0.4-2.4s-1.4,1.2-3,1s-2.2-2-3.2,0s-0.4,1.8-1.6,2.8
	c-0.7,0.6-1.6,0.9-2.5,1l-2-1.6l-5.6-2.6l-0.8-4.3h-6.9l-3-2.6c0,0-7.2-2.4-10.9-3.2c-1.5-1-5.9-3.2-5.9-3.2s-1-0.9-0.2-3.8
	c0.4-0.2,1.6,0.4,1.6,0.4l4.1-1.8c2,0,3.8-0.7,5.2-2.1c1.4-0.8,3-2.6,5.6-0.6c1.2,0.7,2.4,1.3,3.6,1.8l3.3,0.2l1.4,0.7h4.8l1.6,1
	l1.2,1.8l3.8,3.6l2.1,3.6c0.9,1.6,2.8,2.5,4.6,2c0.6,0,3.8-3,3.8-3l4-3.4l2.5,0.8l2.4-0.2l3,0.6l16.2-21.6l0.8-1.7l9.8-12.9
	L333.8,255.6z"/>
<path class="st1" d="M360.7,304.3c0.2,0,0.3,0,0.5-0.1l9.1-2.1l2.5,3.1c-0.6,0.8-0.9,1.6-1,2.6c0,1.3,2.1,5.8,2.1,5.8l0.6,4.1
	l0.5,3.6l-4.3,1.3l-3.3,0.8l-1.4,3.1l-1.3,2.3L364,334l-0.3,3.5l-0.2,2.4c0,0-3.4,1.9-3.7,0.6s0.8-3.9-0.9-2.9s-2.9,2.6-6.5,2.3
	s-3.9-0.6-5.5,0.6s-4.4,2.9-5.7,2.9c-0.5,0-0.6,0-0.7,0c-0.5-0.3-1-0.5-1.6-0.6c-2.3-0.6-4.1-1.1-4.1-1.1l0.6-10.8
	c0,0,1.9-9.2,2.6-10.4s2.7-5.1,2.7-5.1l5.7-2.4c0,0,0-2.7,0-5.3L360.7,304.3z"/>
<path class="st1" d="M360.7,304.3c0.2,0,0.3,0,0.5-0.1l9.1-2.1l2.5,3.1c-0.6,0.8-0.9,1.6-1,2.6c0,1.3,2.1,5.8,2.1,5.8l0.6,4.1
	l0.5,3.6l-4.3,1.3l-3.3,0.8l-1.4,3.1l-1.3,2.3L364,334l-0.3,3.5l-0.2,2.4c0,0-3.4,1.9-3.7,0.6s0.8-3.9-0.9-2.9s-2.9,2.6-6.5,2.3
	s-3.9-0.6-5.5,0.6s-4.4,2.9-5.7,2.9c-0.5,0-0.6,0-0.7,0c-0.5-0.3-1-0.5-1.6-0.6c-2.3-0.6-4.1-1.1-4.1-1.1l0.6-10.8
	c0,0,1.9-9.2,2.6-10.4s2.7-5.1,2.7-5.1l5.7-2.4c0,0,0-2.7,0-5.3L360.7,304.3z"/>
<path class="st1" d="M340.4,343.5c0.2-0.4,0.6,1.6-0.2,3.5s-0.8,2.2-1.2,3.1s-2.1,1.3-0.6,2.8s3.3,2.7,2.7,3.7s-2.5,2.5-2.7,3.9
	s-0.6,3.1-0.2,4.1s0.6,3,1.9,3.4s3.3,2.1,2.9,3.5s0.1,1.9,1,2.7s1.5,0.8,2.5,2.7s0.4,2.5,0.2,3.9s-1.2,2.8,0.4,3.4s1.6-0.2,1.9,1.2
	s0,3.3,1.5,4.3s1.6,0.8,2.9,1.6c0.8,0.7,1.4,1.6,1.6,2.7c0,0,0.6,2,1,3.5s0.8,0.1,1.6,1.3s-0.4,1.2,0.2,2.7s1.3,1,1.9,2.1
	c0.8,1.1,0.9,2.5,0.4,3.7c-0.5,1.2-0.8,2.4-0.7,3.7c0,1,0.8,3.6-0.2,4.6s-2.4,3.3-2.2,4.3s2.3,1.6,1.9,3.3s-1.6,3.1-1.4,4.3
	s0.2,3,0.6,4.6s0.6,2.1,0,3.1c-0.6,1.2-0.7,2.5-0.2,3.7c0.4,0.9,1.4,1.5,2.4,1.4c0.8,0,3.7-0.4,5,0c0.7,0.2,1.3,0.6,1.6,1.2
	c0,0,0.4,3.2,1.6,3.6s6.3,0.4,7.5,0.8s3.7,1.2,5,1c1-0.4,2-1,2.7-1.9l0.2-1.7c0.7-1.2,0.5-2.7-0.6-3.5c-0.3-1-0.6-1.9-1-2.9
	c0,0,1.5-3.1-0.4-3.1c-0.6-0.2-1.2-0.4-1.9-0.6c0-0.9-0.2-1.8-0.5-2.6c-0.7-0.9-1.5-1.7-2.5-2.4l-0.7-2.3v-2.1l-0.7-1.6l-1.9-1.2
	l-0.8-0.7l-0.2-1.6l-1.2-2.3l0.6-6.1c0,0,3.2-2.2,3.7-4.9c0.3,0,0.9-2.3,0.9-2.3l0.2-2.9l2.4-2.4l-0.3-2.3l-0.2-3.3l0.7-2l-0.3-1.8
	l-0.1-2.3l0.7-2.9L379,382l-1.2-0.8l-1.8-0.8l0.1-2.5l-2.1-0.4c0,0-2.4,0.3-2.5-2.9c0-0.2-1-3.2,0.3-4.3c0.8-0.7,1.5-1.5,2-2.4
	c0.1-0.7,0.3-1.3,0.7-1.9c0.6-0.8,1-3.4,0.1-3.6c-0.3-0.7-0.4-1.6-0.1-2.3c0.2-0.9,0.3-1.9,0.2-2.9l-0.8-1.9
	c0.2-0.7,0.4-1.3,0.8-1.9c0.9-1,1.8-2.1,2.5-3.2c0.4-0.8,1-2.3,1-2.3l0.5-1.9c0,0,0.6-4.5-3.5-4.3c-1.3-0.1-2.6-0.2-3.9-0.2
	l-2.6-1.6l-3.3,0.4l-2-0.7c0,0-4.4,1.9-3.7-0.6c0.2,0.8,1.2-3.5-1.5-1.2c-0.6,0.4-3.1,2.1-8.3,1.5c0.4,0-1.9-1.1-3,0.9
	C347.1,340.2,343.5,343.5,340.4,343.5z"/>
<path class="st1" d="M340.4,343.5c0.2-0.4,0.6,1.6-0.2,3.5s-0.8,2.2-1.2,3.1s-2.1,1.3-0.6,2.8s3.3,2.7,2.7,3.7s-2.5,2.5-2.7,3.9
	s-0.6,3.1-0.2,4.1s0.6,3,1.9,3.4s3.3,2.1,2.9,3.5s0.1,1.9,1,2.7s1.5,0.8,2.5,2.7s0.4,2.5,0.2,3.9s-1.2,2.8,0.4,3.4s1.6-0.2,1.9,1.2
	s0,3.3,1.5,4.3s1.6,0.8,2.9,1.6c0.8,0.7,1.4,1.6,1.6,2.7c0,0,0.6,2,1,3.5s0.8,0.1,1.6,1.3s-0.4,1.2,0.2,2.7s1.3,1,1.9,2.1
	c0.8,1.1,0.9,2.5,0.4,3.7c-0.5,1.2-0.8,2.4-0.7,3.7c0,1,0.8,3.6-0.2,4.6s-2.4,3.3-2.2,4.3s2.3,1.6,1.9,3.3s-1.6,3.1-1.4,4.3
	s0.2,3,0.6,4.6s0.6,2.1,0,3.1c-0.6,1.2-0.7,2.5-0.2,3.7c0.4,0.9,1.4,1.5,2.4,1.4c0.8,0,3.7-0.4,5,0c0.7,0.2,1.3,0.6,1.6,1.2
	c0,0,0.4,3.2,1.6,3.6s6.3,0.4,7.5,0.8s3.7,1.2,5,1c1-0.4,2-1,2.7-1.9l0.2-1.7c0.7-1.2,0.5-2.7-0.6-3.5c-0.3-1-0.6-1.9-1-2.9
	c0,0,1.5-3.1-0.4-3.1c-0.6-0.2-1.2-0.4-1.9-0.6c0-0.9-0.2-1.8-0.5-2.6c-0.7-0.9-1.5-1.7-2.5-2.4l-0.7-2.3v-2.1l-0.7-1.6l-1.9-1.2
	l-0.8-0.7l-0.2-1.6l-1.2-2.3l0.6-6.1c0,0,3.2-2.2,3.7-4.9c0.3,0,0.9-2.3,0.9-2.3l0.2-2.9l2.4-2.4l-0.3-2.3l-0.2-3.3l0.7-2l-0.3-1.8
	l-0.1-2.3l0.7-2.9L379,382l-1.2-0.8l-1.8-0.8l0.1-2.5l-2.1-0.4c0,0-2.4,0.3-2.5-2.9c0-0.2-1-3.2,0.3-4.3c0.8-0.7,1.5-1.5,2-2.4
	c0.1-0.7,0.3-1.3,0.7-1.9c0.6-0.8,1-3.4,0.1-3.6c-0.3-0.7-0.4-1.6-0.1-2.3c0.2-0.9,0.3-1.9,0.2-2.9l-0.8-1.9
	c0.2-0.7,0.4-1.3,0.8-1.9c0.9-1,1.8-2.1,2.5-3.2c0.4-0.8,1-2.3,1-2.3l0.5-1.9c0,0,0.6-4.5-3.5-4.3c-1.3-0.1-2.6-0.2-3.9-0.2
	l-2.6-1.6l-3.3,0.4l-2-0.7c0,0-4.4,1.9-3.7-0.6c0.2,0.8,1.2-3.5-1.5-1.2c-0.6,0.4-3.1,2.1-8.3,1.5c0.4,0-1.9-1.1-3,0.9
	C347.1,340.2,343.5,343.5,340.4,343.5z"/>
<path class="st1" d="M334.9,341.5l5.5,2c0.5,0.7,0.5,1.5,0.2,2.3c-0.7,1.4-1.2,2.8-1.6,4.3c0,0-2.1,0.5-0.6,2.8
	c0.8,0.6,1.6,1.3,2.3,2.1c0,0,1.4,0.6,0.4,1.6s-2.9,3.5-2.9,4.8s-0.4,3.2,0.4,4.7c0.6,1,1.4,2,2.3,2.8l1.9,1.2l0.2,2.9l3.6,3.9
	c0,0,0.6,3.4,0,4.7c-0.4,0.6-1.4,2.5,2.1,2.8c-0.4,0.2,0.4,3.3,1,4.1c1.3,1.6,2.9,2.8,4.8,3.7c0,0.6,1.9,6.1,1.9,6.1l1.5,0.6
	l0.2,2.7l1.9,2.1l1,2.3l-0.6,1.4l-0.9,1.6l0.2,3.5l-0.2,2.3l-0.8,2.1c0,0-2.8,2.1-0.6,4.5c-0.2-0.2,1.6,0.2,0.4,2.5
	c0.4,0.2-0.6,2.3-0.6,2.3c-0.4,1.1-1.3,1.9-2.3,2.5c-1.6,0.8-2.1,0.7-3.3,1.5c-1.3,0.7-2.7,1.1-4.1,1.2c-1.4,0.2-3-0.4-3.7,1.2
	s-0.9,1.6-3.4,1.5s-2.3-0.6-3.7-1.9s-1.2-3-1.9-4.2s-0.4-1.5-1.6-2.3s-0.8-1.2-1.6-2.3s-0.3-1.2-3.1-2.1s-3.2-1.2-2.5-3.5
	c0.5-1.8,0.5-3.8,0.2-5.6c-0.2-1.9,0.4-0.8,0-2.7s-0.2-0.4-0.8-2.7s-1.5-3.3-0.4-5s0.8-2.2,1-3.7s0.7-2.1,2.1-3.6s0.8-3.1,0.4-5.6
	s-0.6-1.4,1.2-5.4s0.2-3.2,0.6-5s1.4-1.6,1.4-3.3s-0.4-0.4-0.4-2.9s-0.6-3.4,0.2-5.1s2.1-2.6,1.5-5.6s-1.5-3.9-1.2-5.6
	c0.2-1.5,0.7-3,1.4-4.3c0.5-1.1,0.5-2.4,0-3.6c0,0,0.6-0.2,1.2-2.1c0,0.6,1-2.9,1-2.9L334.9,341.5z"/>
<path class="st1" d="M334.9,341.5l5.5,2c0.5,0.7,0.5,1.5,0.2,2.3c-0.7,1.4-1.2,2.8-1.6,4.3c0,0-2.1,0.5-0.6,2.8
	c0.8,0.6,1.6,1.3,2.3,2.1c0,0,1.4,0.6,0.4,1.6s-2.9,3.5-2.9,4.8s-0.4,3.2,0.4,4.7c0.6,1,1.4,2,2.3,2.8l1.9,1.2l0.2,2.9l3.6,3.9
	c0,0,0.6,3.4,0,4.7c-0.4,0.6-1.4,2.5,2.1,2.8c-0.4,0.2,0.4,3.3,1,4.1c1.3,1.6,2.9,2.8,4.8,3.7c0,0.6,1.9,6.1,1.9,6.1l1.5,0.6
	l0.2,2.7l1.9,2.1l1,2.3l-0.6,1.4l-0.9,1.6l0.2,3.5l-0.2,2.3l-0.8,2.1c0,0-2.8,2.1-0.6,4.5c-0.2-0.2,1.6,0.2,0.4,2.5
	c0.4,0.2-0.6,2.3-0.6,2.3c-0.4,1.1-1.3,1.9-2.3,2.5c-1.6,0.8-2.1,0.7-3.3,1.5c-1.3,0.7-2.7,1.1-4.1,1.2c-1.4,0.2-3-0.4-3.7,1.2
	s-0.9,1.6-3.4,1.5s-2.3-0.6-3.7-1.9s-1.2-3-1.9-4.2s-0.4-1.5-1.6-2.3s-0.8-1.2-1.6-2.3s-0.3-1.2-3.1-2.1s-3.2-1.2-2.5-3.5
	c0.5-1.8,0.5-3.8,0.2-5.6c-0.2-1.9,0.4-0.8,0-2.7s-0.2-0.4-0.8-2.7s-1.5-3.3-0.4-5s0.8-2.2,1-3.7s0.7-2.1,2.1-3.6s0.8-3.1,0.4-5.6
	s-0.6-1.4,1.2-5.4s0.2-3.2,0.6-5s1.4-1.6,1.4-3.3s-0.4-0.4-0.4-2.9s-0.6-3.4,0.2-5.1s2.1-2.6,1.5-5.6s-1.5-3.9-1.2-5.6
	c0.2-1.5,0.7-3,1.4-4.3c0.5-1.1,0.5-2.4,0-3.6c0,0,0.6-0.2,1.2-2.1c0,0.6,1-2.9,1-2.9L334.9,341.5z"/>
<path class="st1" d="M306.6,414c0,0-1,3.3,0.8,3.5c1.5,0.3,3,0.8,4.3,1.6c1.3,0.6,3.4,0.2,5.4,0c1.7-0.2,3.4-0.2,5.2,0
	c0.8,0.2,1.6,0.3,2.5,0.4l1.5-0.4c0.4-1.9,0.6-3.8,0.6-5.6c-0.2-1.3-0.3-2.6-0.4-3.9c0-1-1.4-4.3-1.4-5c-0.2-0.9-0.2-1.8,0.2-2.7
	c0.6-1.2,1.2-1.6,1.2-2.9c-0.1-1.1,0.2-2.1,0.8-3c0.6-0.6,1.9-0.8,2.1-2.9s-0.6-3.1-0.6-4.1s0-2.9,0.4-3.5s1.9-3.4,1.9-3.4
	c-0.1-0.7-0.2-1.4-0.4-2.1c-0.2-0.6,0-1,0.8-2.7s0.2-5,0.2-5c-0.1-0.8-0.2-1.6-0.2-2.5c0.1-1.3,0.4-2.6,1-3.8c0.6-1.5,1-1.6,0.8-3.5
	s-0.6-3.3-0.8-4.5s-0.4-3.1,0-3.9s1.5-3.3,1.5-3.3l-0.4-2.1h-4.3c0,0-4,0.5-5.2,1.5c-1,0.7-1.7,1.9-1.9,3.2
	c-0.2,1.2,0.4,2.1-0.6,3.5s-2,3-2,3c0.4,1.5,0.3,3.2-0.4,4.6c-1.2,1.9-2.1,3-2.1,3c-0.8,0.4-1.3,1.1-1.3,2c0,1.1-0.4,2.1-0.9,3
	c-0.4,0.9-0.9,1.8-1.6,2.5c-0.9,0.6-2.1,0.6-2.1,2.5s0.2,3.7,0.2,3.7c-0.1,0.6-0.3,1.2-0.8,1.7c-0.7,0.6-1.2,3.8-1.2,3.8
	c0.1,1.4-0.1,2.7-0.5,4c-0.7,1.7-1,3.5-1,5.4c0.3,1.5,1,2.9,1.9,4.2c0.7,1,1.2,2,1.6,3.1l0.2,5.6L306.6,414z"/>
<path class="st1" d="M306.6,414c0,0-1,3.3,0.8,3.5c1.5,0.3,3,0.8,4.3,1.6c1.3,0.6,3.4,0.2,5.4,0c1.7-0.2,3.4-0.2,5.2,0
	c0.8,0.2,1.6,0.3,2.5,0.4l1.5-0.4c0.4-1.9,0.6-3.8,0.6-5.6c-0.2-1.3-0.3-2.6-0.4-3.9c0-1-1.4-4.3-1.4-5c-0.2-0.9-0.2-1.8,0.2-2.7
	c0.6-1.2,1.2-1.6,1.2-2.9c-0.1-1.1,0.2-2.1,0.8-3c0.6-0.6,1.9-0.8,2.1-2.9s-0.6-3.1-0.6-4.1s0-2.9,0.4-3.5s1.9-3.4,1.9-3.4
	c-0.1-0.7-0.2-1.4-0.4-2.1c-0.2-0.6,0-1,0.8-2.7s0.2-5,0.2-5c-0.1-0.8-0.2-1.6-0.2-2.5c0.1-1.3,0.4-2.6,1-3.8c0.6-1.5,1-1.6,0.8-3.5
	s-0.6-3.3-0.8-4.5s-0.4-3.1,0-3.9s1.5-3.3,1.5-3.3l-0.4-2.1h-4.3c0,0-4,0.5-5.2,1.5c-1,0.7-1.7,1.9-1.9,3.2
	c-0.2,1.2,0.4,2.1-0.6,3.5s-2,3-2,3c0.4,1.5,0.3,3.2-0.4,4.6c-1.2,1.9-2.1,3-2.1,3c-0.8,0.4-1.3,1.1-1.3,2c0,1.1-0.4,2.1-0.9,3
	c-0.4,0.9-0.9,1.8-1.6,2.5c-0.9,0.6-2.1,0.6-2.1,2.5s0.2,3.7,0.2,3.7c-0.1,0.6-0.3,1.2-0.8,1.7c-0.7,0.6-1.2,3.8-1.2,3.8
	c0.1,1.4-0.1,2.7-0.5,4c-0.7,1.7-1,3.5-1,5.4c0.3,1.5,1,2.9,1.9,4.2c0.7,1,1.2,2,1.6,3.1l0.2,5.6L306.6,414z"/>
<path class="st1" d="M234.5,330.8c0,0-0.2,3.3,1.1,4.7s1.2,2.9,1.6,4.3s1.4,2.3,1.4,3.9s0.8,5,1.9,5.6s1.2-0.5,3.1,2.8
	s1,3.3,1.9,5.1s2.3,0.8,2.1,4.5s0.2,4.4,0.8,6.1s1.2,4.7-0.2,6s-2.7,3.3-1.6,5.4s0.8,2.1,0.8,4.4s-1.1,2.1,0.8,3.9s3.6,0.8,3.8,3.3
	s-1.2,2,0.6,4.8s1.9,0.7,2.7,4c0.8,3.3-0.8,3.9,1,6s1,3.3,2.9,3.9l4.5,0.4l4.6,1v4c0,0,1.6,5,3.5,4.5s2.9-1.4,4.3-2.3
	c1.8-1,3.8-1.7,5.9-2.1c1.6-0.3,3.1-0.7,4.6-1.2l0.4-4.6l-1.4-3.7l0.1-4.8l1.6-3.6l-0.2-1.5l1.2-3.3l0.2-3.5l-1.2-5.2l-0.4-4.9
	l0.6-3.2l0.4-3.5l1.6-7c0,0,5.2-7,5.4-8.9c0-1.8-0.2-3.7-0.6-5.4l-2.2-2.4l-1.4-2.4l-0.8-2.4c0,0-1.6-1,0-4.3
	c0.2-0.4,1.9-1.9-0.6-8.5c0.4,0-2.1-1.9-2.1-1.9l-0.6-3.1l-1.4-1l-1-3.7l2.5-8.1l2.3-3.1l1.6-1.9c0,0,0.6-3.5-1.2-1
	c0.2,0.4-2.2,0.3-2.2,0.3s-3.1-2.6-3.2,0c0.1-0.1-1.8,3.2-4.1,3.8c-0.6-0.6-1.3-1.1-2-1.6l-1.4,1.5l-2.4,1.2h-1.9l-2.5,3.9l-1.6-0.2
	c0,0-3.8-1.2-3.6,0.8c0.2-0.2,0.6,1.7-1,2.5c-0.4,0-2.8,0.6-2.8,0.6s-3.4,2.9-4,4.4c0.4-0.4-1.2,0.3-1.2,0.3
	c-1.3,1.2-3.1,1.8-4.8,1.6c-0.2,0-3.9,3.6-3.9,3.6c-1.5,0.9-3.2,1.4-5,1.3C241.4,331.7,234.5,330.8,234.5,330.8z"/>
<path class="st1" d="M234.5,330.8c0,0-0.2,3.3,1.1,4.7s1.2,2.9,1.6,4.3s1.4,2.3,1.4,3.9s0.8,5,1.9,5.6s1.2-0.5,3.1,2.8
	s1,3.3,1.9,5.1s2.3,0.8,2.1,4.5s0.2,4.4,0.8,6.1s1.2,4.7-0.2,6s-2.7,3.3-1.6,5.4s0.8,2.1,0.8,4.4s-1.1,2.1,0.8,3.9s3.6,0.8,3.8,3.3
	s-1.2,2,0.6,4.8s1.9,0.7,2.7,4c0.8,3.3-0.8,3.9,1,6s1,3.3,2.9,3.9l4.5,0.4l4.6,1v4c0,0,1.6,5,3.5,4.5s2.9-1.4,4.3-2.3
	c1.8-1,3.8-1.7,5.9-2.1c1.6-0.3,3.1-0.7,4.6-1.2l0.4-4.6l-1.4-3.7l0.1-4.8l1.6-3.6l-0.2-1.5l1.2-3.3l0.2-3.5l-1.2-5.2l-0.4-4.9
	l0.6-3.2l0.4-3.5l1.6-7c0,0,5.2-7,5.4-8.9c0-1.8-0.2-3.7-0.6-5.4l-2.2-2.4l-1.4-2.4l-0.8-2.4c0,0-1.6-1,0-4.3
	c0.2-0.4,1.9-1.9-0.6-8.5c0.4,0-2.1-1.9-2.1-1.9l-0.6-3.1l-1.4-1l-1-3.7l2.5-8.1l2.3-3.1l1.6-1.9c0,0,0.6-3.5-1.2-1
	c0.2,0.4-2.2,0.3-2.2,0.3s-3.1-2.6-3.2,0c0.1-0.1-1.8,3.2-4.1,3.8c-0.6-0.6-1.3-1.1-2-1.6l-1.4,1.5l-2.4,1.2h-1.9l-2.5,3.9l-1.6-0.2
	c0,0-3.8-1.2-3.6,0.8c0.2-0.2,0.6,1.7-1,2.5c-0.4,0-2.8,0.6-2.8,0.6s-3.4,2.9-4,4.4c0.4-0.4-1.2,0.3-1.2,0.3
	c-1.3,1.2-3.1,1.8-4.8,1.6c-0.2,0-3.9,3.6-3.9,3.6c-1.5,0.9-3.2,1.4-5,1.3C241.4,331.7,234.5,330.8,234.5,330.8z"/>
<path class="st1" d="M200.1,326c-0.3,1.8-0.1,1.8,1.2,2.2s0.1,2.3,1.3,2.7s3.5,0.4,3.5,2.1s1.9,0.7,1.2,3.6s-1,2.3-1,4.3
	c-0.2,1.5,0.3,3,1.2,4.1c1,1.5,0.4,1.6-0.2,3.7s-0.4,2.5,0.4,3.8s0.4,0.8-0.2,3.3s-0.8,3.1-0.6,4.1c0.2,2,0.2,4-0.2,6
	c-0.4,3-0.8,4.8,0.6,6.3s2.5,2.1,2.9,3.9s0,3.6-0.2,6.7s0.4,4.3-0.8,6.4s-2.5,3.9-0.8,5.8s1.9,0.7,2.1,4s-0.6,3.5,0.6,4.8
	s2.1,2.1,1.9,3.5c-0.3,1.4-0.3,2.8,0.2,4.1c0.5,1,0.8,2.2,0.8,3.4c0.1,1.5,0.5,3,1.2,4.3c0.7,0.8,1,1.8,1,2.9c0.2,1.9-1,3.7-1.6,4.7
	c-0.7,1.3-0.8,2.8-0.2,4.2c0.6,1.9,0.4,2.1,0.8,4.5s0,3.9,1,5s1.6,4.2,1,5.4c-0.8,1.3-1.6,2.5-2.5,3.7c0,0,3.4,1.9,5.6,1.9
	s2.5-0.6,3.7-0.6s1.2,0.2,2.7,0.2s0.4-1.4,2.3-0.6s5.4-0.2,6.7-0.2s2.1,2.3,5,1.6s3.1-1,4.7-0.6s2.8,1.2,4.6,0.8s1.6-0.8,3.5-0.4
	s4.7,0.8,4.7,0.8s-0.6-2.3,0.4-2.5c1-0.3,2,0,2.7,0.8c0.6,0.8,2.5-0.4,1.9-1.6s-2.3-1.8-2.1-3.1c0.3-1.1,0.6-2.1,1-3.2
	c0.4-1.5,1.2-1.6-0.4-3.3s-2.3-2.3-1-2.5s1.4-2.1,2.3-1.2s3,1.2,3,0.2s-1.3-0.6-1.5-2.1s-0.3-1.2,0.6-1.9s2-2.1,0.7-2.8
	s-1.7-0.8-1.7-3.1c0-1.5,0.2-2.9,0.6-4.3c0.4-1.6,0.4-0.8-1-2.5s-0.4-2.3-1.4-2.9s-2.9-0.8-2.9-2.1s-0.4-1.1-0.6-2.3
	c-0.1-0.9,0.1-1.8,0.4-2.7l-3.7-5.6v-2.1l-1-4.4c0,0-2.5-1.6-2.5-2.7V392c0.1-1.3-0.6-2.6-1.6-3.3c-1.1-0.8-2.2-1.7-3.2-2.7
	c0-0.8,0.1-1.7,0.2-2.5c0.1-1,0.1-2,0-3l-1-3.3l0.4-2.3l2.2-2l0.2-3.5l-1.2-2.7l-0.4-6.1l-0.6-1.6l-1.4-1.9l-0.8-3.3l-2.5-3.8
	l-1.6-0.8l-1.2-2.1l-0.8-4.7l-1.6-4.1L235,334l-0.4-3.2l-4.1-2l-2.6-0.6l-4.1,0.2l-4.2-2.9l-3.3,0.8l-3.9,0.6l-10.6-2.6
	C201.8,324.4,200.4,324.1,200.1,326z"/>
<path class="st1" d="M200.1,326c-0.3,1.8-0.1,1.8,1.2,2.2s0.1,2.3,1.3,2.7s3.5,0.4,3.5,2.1s1.9,0.7,1.2,3.6s-1,2.3-1,4.3
	c-0.2,1.5,0.3,3,1.2,4.1c1,1.5,0.4,1.6-0.2,3.7s-0.4,2.5,0.4,3.8s0.4,0.8-0.2,3.3s-0.8,3.1-0.6,4.1c0.2,2,0.2,4-0.2,6
	c-0.4,3-0.8,4.8,0.6,6.3s2.5,2.1,2.9,3.9s0,3.6-0.2,6.7s0.4,4.3-0.8,6.4s-2.5,3.9-0.8,5.8s1.9,0.7,2.1,4s-0.6,3.5,0.6,4.8
	s2.1,2.1,1.9,3.5c-0.3,1.4-0.3,2.8,0.2,4.1c0.5,1,0.8,2.2,0.8,3.4c0.1,1.5,0.5,3,1.2,4.3c0.7,0.8,1,1.8,1,2.9c0.2,1.9-1,3.7-1.6,4.7
	c-0.7,1.3-0.8,2.8-0.2,4.2c0.6,1.9,0.4,2.1,0.8,4.5s0,3.9,1,5s1.6,4.2,1,5.4c-0.8,1.3-1.6,2.5-2.5,3.7c0,0,3.4,1.9,5.6,1.9
	s2.5-0.6,3.7-0.6s1.2,0.2,2.7,0.2s0.4-1.4,2.3-0.6s5.4-0.2,6.7-0.2s2.1,2.3,5,1.6s3.1-1,4.7-0.6s2.8,1.2,4.6,0.8s1.6-0.8,3.5-0.4
	s4.7,0.8,4.7,0.8s-0.6-2.3,0.4-2.5c1-0.3,2,0,2.7,0.8c0.6,0.8,2.5-0.4,1.9-1.6s-2.3-1.8-2.1-3.1c0.3-1.1,0.6-2.1,1-3.2
	c0.4-1.5,1.2-1.6-0.4-3.3s-2.3-2.3-1-2.5s1.4-2.1,2.3-1.2s3,1.2,3,0.2s-1.3-0.6-1.5-2.1s-0.3-1.2,0.6-1.9s2-2.1,0.7-2.8
	s-1.7-0.8-1.7-3.1c0-1.5,0.2-2.9,0.6-4.3c0.4-1.6,0.4-0.8-1-2.5s-0.4-2.3-1.4-2.9s-2.9-0.8-2.9-2.1s-0.4-1.1-0.6-2.3
	c-0.1-0.9,0.1-1.8,0.4-2.7l-3.7-5.6v-2.1l-1-4.4c0,0-2.5-1.6-2.5-2.7V392c0.1-1.3-0.6-2.6-1.6-3.3c-1.1-0.8-2.2-1.7-3.2-2.7
	c0-0.8,0.1-1.7,0.2-2.5c0.1-1,0.1-2,0-3l-1-3.3l0.4-2.3l2.2-2l0.2-3.5l-1.2-2.7l-0.4-6.1l-0.6-1.6l-1.4-1.9l-0.8-3.3l-2.5-3.8
	l-1.6-0.8l-1.2-2.1l-0.8-4.7l-1.6-4.1L235,334l-0.4-3.2l-4.1-2l-2.6-0.6l-4.1,0.2l-4.2-2.9l-3.3,0.8l-3.9,0.6l-10.6-2.6
	C201.8,324.4,200.4,324.1,200.1,326z"/>
<path class="st1" d="M185.8,323.1c-0.8,2.3-1.4,4.6-1.9,6.9c-0.3,2.3-0.8,4.6-1.4,6.9c-0.4,1.2,0,2.1-0.4,3.7s-1.2,5.8-1.2,5.8
	l-1,5.4c0,0,0,0.2-2.1,2.3s-2.1,2.3-1.9,3.9s1,1.4-0.8,1.9s-3.1,1.5-1.6,2.1s2.3,0.6,1.6,1.6s-1.2,1-1.9,1.6s0.7,2.3-1.2,3
	s-2.6-0.4-2.8,1.2c0,1.4-0.4,2.8-1.2,3.9c-0.9,1.3-1.3,2.8-1,4.3c0.2,1.4,0.2,5,0.8,6.1s1.4,1.9,2.7,1.6s1.7,0.4,2.6,1
	s-0.2,2.3-0.2,3.7s0.2,3.1,1.2,2.5s1.6-0.8,2.1,0.6c0.4,1.4,0.6,2.9,0.4,4.3c-0.3,1.2-0.8,2.4-1.5,3.4c-0.6,1.2-0.9,2.6-1,3.9
	c0,0.8,0.6,3.7,0.2,5.8s-2.3,4-2.5,5.6c-0.1,1.3-0.1,2.6,0,3.9c0,1.4-1,3.3-1,5s-1.7,3-1.7,5.2c-0.2,2,0.5,4.1,1.9,5.6
	c1.6,1.9,1.9,0.6,2.7,2.9s-0.2,3.4-0.2,5.2s1,3.6,2.7,3.8c1.8,0.1,3.6,0,5.4-0.2c1.1-0.6,2.3-1,3.5-1.2c2.1-0.4,3-1.2,4.8-0.4
	s3.9,1.9,6,1.9s2-0.4,4.5,0.2s4.8,1.6,6.1,1.2s1.6-0.2,4.3,0.4c1.4,0.4,2.8,0.4,4.1-0.2l2.5-3.7c0.5-1.9,0.1-3.9-1-5.4
	c-0.5-1.6-0.9-3.3-1-5c0-2.1-1-4.7-1-5.4s-0.2-3.6,0.8-4.4c0.6-0.5,1-1.1,1.2-1.9l-0.2-4.1c0,0-2.1-1.4-2.1-5c0-0.4-0.8-3.4-0.8-3.4
	l-0.4-2.9l0.2-2.9l-2.6-2.5v-5.2l-0.4-1.5c-1.1-0.5-1.9-1.5-2.3-2.7c0,0.4-0.2-1.9-0.2-1.9l2.5-5.1v-3.9l0.4-4l-0.2-2.7l-1.3-2.4
	l-1.6-1.4l-1.2-2.5c0.2-0.7,0.3-1.5,0.4-2.3c0-1.2,0.2-2.4,0.4-3.6c0.1-0.7,0.2-1.5,0.2-2.3v-3.9l1.2-4.3c0,0-1.2-1.6-1.2-2.3
	c-0.1-1,0.1-2,0.4-3c0.3-0.6,0.5-1.3,0.6-2.1l-1.6-2.9l-0.2-2.3l1.2-6.3l-1.2-1l-0.8-1.6l-2.3-1c-0.7-0.2-1.3-0.9-1.3-1.6
	c-0.2,0.2-1.6-1.6-1.6-1.6l-0.2-1.6l-7.3-1.1L185.8,323.1z"/>
<path class="st1" d="M185.8,323.1c-0.8,2.3-1.4,4.6-1.9,6.9c-0.3,2.3-0.8,4.6-1.4,6.9c-0.4,1.2,0,2.1-0.4,3.7s-1.2,5.8-1.2,5.8
	l-1,5.4c0,0,0,0.2-2.1,2.3s-2.1,2.3-1.9,3.9s1,1.4-0.8,1.9s-3.1,1.5-1.6,2.1s2.3,0.6,1.6,1.6s-1.2,1-1.9,1.6s0.7,2.3-1.2,3
	s-2.6-0.4-2.8,1.2c0,1.4-0.4,2.8-1.2,3.9c-0.9,1.3-1.3,2.8-1,4.3c0.2,1.4,0.2,5,0.8,6.1s1.4,1.9,2.7,1.6s1.7,0.4,2.6,1
	s-0.2,2.3-0.2,3.7s0.2,3.1,1.2,2.5s1.6-0.8,2.1,0.6c0.4,1.4,0.6,2.9,0.4,4.3c-0.3,1.2-0.8,2.4-1.5,3.4c-0.6,1.2-0.9,2.6-1,3.9
	c0,0.8,0.6,3.7,0.2,5.8s-2.3,4-2.5,5.6c-0.1,1.3-0.1,2.6,0,3.9c0,1.4-1,3.3-1,5s-1.7,3-1.7,5.2c-0.2,2,0.5,4.1,1.9,5.6
	c1.6,1.9,1.9,0.6,2.7,2.9s-0.2,3.4-0.2,5.2s1,3.6,2.7,3.8c1.8,0.1,3.6,0,5.4-0.2c1.1-0.6,2.3-1,3.5-1.2c2.1-0.4,3-1.2,4.8-0.4
	s3.9,1.9,6,1.9s2-0.4,4.5,0.2s4.8,1.6,6.1,1.2s1.6-0.2,4.3,0.4c1.4,0.4,2.8,0.4,4.1-0.2l2.5-3.7c0.5-1.9,0.1-3.9-1-5.4
	c-0.5-1.6-0.9-3.3-1-5c0-2.1-1-4.7-1-5.4s-0.2-3.6,0.8-4.4c0.6-0.5,1-1.1,1.2-1.9l-0.2-4.1c0,0-2.1-1.4-2.1-5c0-0.4-0.8-3.4-0.8-3.4
	l-0.4-2.9l0.2-2.9l-2.6-2.5v-5.2l-0.4-1.5c-1.1-0.5-1.9-1.5-2.3-2.7c0,0.4-0.2-1.9-0.2-1.9l2.5-5.1v-3.9l0.4-4l-0.2-2.7l-1.3-2.4
	l-1.6-1.4l-1.2-2.5c0.2-0.7,0.3-1.5,0.4-2.3c0-1.2,0.2-2.4,0.4-3.6c0.1-0.7,0.2-1.5,0.2-2.3v-3.9l1.2-4.3c0,0-1.2-1.6-1.2-2.3
	c-0.1-1,0.1-2,0.4-3c0.3-0.6,0.5-1.3,0.6-2.1l-1.6-2.9l-0.2-2.3l1.2-6.3l-1.2-1l-0.8-1.6l-2.3-1c-0.7-0.2-1.3-0.9-1.3-1.6
	c-0.2,0.2-1.6-1.6-1.6-1.6l-0.2-1.6l-7.3-1.1L185.8,323.1z"/>
<path class="st1" d="M167.8,383.8c0,0-0.8,1-3.5,0.4c-1.2-0.3-2.4-0.7-3.5-1.2c-1.2-0.4-2.5-1.2-3.5-0.2s-1.5,3.3-3.2,4.1
	s-4.1,2.1-5,3.1s-1.9,1.2-1.9,3.1s0.8,3.3-0.4,3.9c-1,0.6-2.1,1-3.3,1.1c-1.6,0.2-3.2,0.5-4.8,0.8l-0.2,3.1
	c-0.1,0.8,0.2,1.5,0.7,2.1c0.8,0.8,1.5,2.5,0.2,3.3c-1,0.8-1.8,1.9-2.4,3.1c0.3,1,0.6,2,0.6,3.1c0,1.3,0.6,2.4-1,2.8s-4.1,0-5.2,0.6
	c-1.1,0.7-1.9,1.7-2.3,2.9c0,0.6-1.4,2.1-1.4,4.3s0.2,3.6-0.6,5.1c-0.6,1.3-1.1,2.8-1.4,4.2c-0.5,1.3-0.9,2.7-1.2,4.1
	c-0.1,1.5,0,3,0.2,4.5c0,0-0.8,1.6,1.2,1.6c2.1-0.1,4.3,0.3,6.2,1.2c1.8,1.1,3.9,1.8,6,2.1c1.9,0.2,2.1-0.6,4,0.4s1.9,2.1,3.5,1
	s1,0,3.1-0.8s1.2-2.1,2.7-1s1,1.6,2.3,1.4s0.7-0.6,2.6-0.2c1.4,0.4,2.9,0.1,4.1-0.8c1.4-0.8,0.6-1.5,2.5-0.8s3.1,1.5,4.1,0.8
	s1.2-1,2.7-0.4s3.4,1.2,4.6,0.2c-0.4,0.2-1-2.1-0.6-4.2c-0.2-0.4,1.1-3.7-1.4-6c-1.7-1.6-4.2-3.4-3-7.5c0.8-2.5,1.5-4.1,1.5-4.1l1-5
	v-3.9l2.5-5.6l-0.2-5c0,0,0-3.1,1-4.7c0.4-1.2,0.9-2.3,1.4-3.4c0,0,0-7.2-2.5-5c-0.2,0.6-2.5-0.4-1-3.7c0,0.2,1.1-3.1-1.6-3.3
	c0.2,0.2-2.1-0.2-2.1-0.2L167.8,383.8z"/>
<path class="st1" d="M167.8,383.8c0,0-0.8,1-3.5,0.4c-1.2-0.3-2.4-0.7-3.5-1.2c-1.2-0.4-2.5-1.2-3.5-0.2s-1.5,3.3-3.2,4.1
	s-4.1,2.1-5,3.1s-1.9,1.2-1.9,3.1s0.8,3.3-0.4,3.9c-1,0.6-2.1,1-3.3,1.1c-1.6,0.2-3.2,0.5-4.8,0.8l-0.2,3.1
	c-0.1,0.8,0.2,1.5,0.7,2.1c0.8,0.8,1.5,2.5,0.2,3.3c-1,0.8-1.8,1.9-2.4,3.1c0.3,1,0.6,2,0.6,3.1c0,1.3,0.6,2.4-1,2.8s-4.1,0-5.2,0.6
	c-1.1,0.7-1.9,1.7-2.3,2.9c0,0.6-1.4,2.1-1.4,4.3s0.2,3.6-0.6,5.1c-0.6,1.3-1.1,2.8-1.4,4.2c-0.5,1.3-0.9,2.7-1.2,4.1
	c-0.1,1.5,0,3,0.2,4.5c0,0-0.8,1.6,1.2,1.6c2.1-0.1,4.3,0.3,6.2,1.2c1.8,1.1,3.9,1.8,6,2.1c1.9,0.2,2.1-0.6,4,0.4s1.9,2.1,3.5,1
	s1,0,3.1-0.8s1.2-2.1,2.7-1s1,1.6,2.3,1.4s0.7-0.6,2.6-0.2c1.4,0.4,2.9,0.1,4.1-0.8c1.4-0.8,0.6-1.5,2.5-0.8s3.1,1.5,4.1,0.8
	s1.2-1,2.7-0.4s3.4,1.2,4.6,0.2c-0.4,0.2-1-2.1-0.6-4.2c-0.2-0.4,1.1-3.7-1.4-6c-1.7-1.6-4.2-3.4-3-7.5c0.8-2.5,1.5-4.1,1.5-4.1l1-5
	v-3.9l2.5-5.6l-0.2-5c0,0,0-3.1,1-4.7c0.4-1.2,0.9-2.3,1.4-3.4c0,0,0-7.2-2.5-5c-0.2,0.6-2.5-0.4-1-3.7c0,0.2,1.1-3.1-1.6-3.3
	c0.2,0.2-2.1-0.2-2.1-0.2L167.8,383.8z"/>
<path class="st1" d="M124.7,442.2c0,0-4.4,1.6-5.7,0.8s-3.1-2.1-4.7-2.1s-2.1,1-3.5-0.6c-1-1.3-2.6-1.9-4.2-1.6
	c-1.2,0.2-3.9-0.8-5.2-1.2s-1.4-0.8-3.5-0.6c-1.7,0.3-3.4,0.3-5.2,0.2c-0.8-0.2-1.1-1.2-3.4-1.2s-4.3,0.4-6,0s-1.2-0.4-2.9-1.6
	s-2.8-1-3.9-1.5c-1.6-0.6-3.1-1.3-4.6-2.1c-1-0.6-2.7-1.5-2.7-1.5c1.4-2.2,3-4.2,4.8-6.2c1.8-1.9,3.8-2.5,4.4-3.9s0.6-2.9,1.8-3.9
	s2.3-0.1,3.9-1.9c1.4-1.6,2.5-3.4,3.3-5.4c1-2.1,2.4-4,4.1-5.6c2.6-2.5,5-4.6,6.3-6.5c1.4-2.4,3.3-4.4,5.6-6
	c1.7-1.1,3.3-2.4,4.6-3.9c0.8-2,2.2-3.7,3.9-5c1.7-1.2,2.9-2.9,3.5-5c0,0,1-7.9,1-9.6s0-3.9,1.2-5.6s2.1-5.6,2.1-5.6
	c1.5-1,2.9-2.2,4.2-3.5c2.3-2.3,1.7-4.4,3.1-5.4c1.4-1.1,2.7-2.4,3.9-3.7c0.4-1.7,1.2-3.2,2.3-4.5c1.3-1.3,2.7-2.5,4.1-3.6
	c1.3-1.2,2.4-2.4,3.6-3.7l4.2-2.3l13-3.4l13.6-3c0,0,4.1-0.6,5.2-1.6c1.5-1.3,3.1-2.5,4.7-3.6l4.1,6.4l-2.9,11.2l-3.1,17.5l-3.9,3.9
	l0.2,4.1l-2.7,0.4c0,0-1.4,0.6,0.4,1.9c0.2,0.4,2.3,0.2,0.6,1.9c0.2,0.4-1.2,1.2-1.2,1.2c0.4,1.2-0.3,2.5-1.5,2.9
	c-0.3,0.1-0.5,0.1-0.8,0.1c0.2,0.2-1.5-0.8-1.7,1.2c0-0.2-0.4,2.1-0.4,2.1l-1.9,3.7v4.3l0.2,2.3l0.6,1.9l-3.5,0.4l-4.7-1.6
	c-1.1-0.6-2.4-0.2-3.1,0.8c-0.1,0.2-0.2,0.4-0.2,0.6c0,0.2-2.1,2.9-2.1,2.9l-3.7,1.9l-2.7,3.1l-0.4,2.5l-0.4,2.7l-3.3,1.1l-2.1,0.6
	l-2.8,0.2c-0.2,1-0.3,2.1-0.2,3.1c0.1,0.7,0.3,1.4,0.7,2.1c0.4,0.7,0.7,1.5,1,2.3l-3.2,4.1l0.8,4.8l-1.2,1l-5.2,0.6l-2.5,2.3
	l-1.2,3.1v5.8l-3.3,9.6L124.7,442.2z"/>
<path class="st1" d="M124.7,442.2c0,0-4.4,1.6-5.7,0.8s-3.1-2.1-4.7-2.1s-2.1,1-3.5-0.6c-1-1.3-2.6-1.9-4.2-1.6
	c-1.2,0.2-3.9-0.8-5.2-1.2s-1.4-0.8-3.5-0.6c-1.7,0.3-3.4,0.3-5.2,0.2c-0.8-0.2-1.1-1.2-3.4-1.2s-4.3,0.4-6,0s-1.2-0.4-2.9-1.6
	s-2.8-1-3.9-1.5c-1.6-0.6-3.1-1.3-4.6-2.1c-1-0.6-2.7-1.5-2.7-1.5c1.4-2.2,3-4.2,4.8-6.2c1.8-1.9,3.8-2.5,4.4-3.9s0.6-2.9,1.8-3.9
	s2.3-0.1,3.9-1.9c1.4-1.6,2.5-3.4,3.3-5.4c1-2.1,2.4-4,4.1-5.6c2.6-2.5,5-4.6,6.3-6.5c1.4-2.4,3.3-4.4,5.6-6
	c1.7-1.1,3.3-2.4,4.6-3.9c0.8-2,2.2-3.7,3.9-5c1.7-1.2,2.9-2.9,3.5-5c0,0,1-7.9,1-9.6s0-3.9,1.2-5.6s2.1-5.6,2.1-5.6
	c1.5-1,2.9-2.2,4.2-3.5c2.3-2.3,1.7-4.4,3.1-5.4c1.4-1.1,2.7-2.4,3.9-3.7c0.4-1.7,1.2-3.2,2.3-4.5c1.3-1.3,2.7-2.5,4.1-3.6
	c1.3-1.2,2.4-2.4,3.6-3.7l4.2-2.3l13-3.4l13.6-3c0,0,4.1-0.6,5.2-1.6c1.5-1.3,3.1-2.5,4.7-3.6l4.1,6.4l-2.9,11.2l-3.1,17.5l-3.9,3.9
	l0.2,4.1l-2.7,0.4c0,0-1.4,0.6,0.4,1.9c0.2,0.4,2.3,0.2,0.6,1.9c0.2,0.4-1.2,1.2-1.2,1.2c0.4,1.2-0.3,2.5-1.5,2.9
	c-0.3,0.1-0.5,0.1-0.8,0.1c0.2,0.2-1.5-0.8-1.7,1.2c0-0.2-0.4,2.1-0.4,2.1l-1.9,3.7v4.3l0.2,2.3l0.6,1.9l-3.5,0.4l-4.7-1.6
	c-1.1-0.6-2.4-0.2-3.1,0.8c-0.1,0.2-0.2,0.4-0.2,0.6c0,0.2-2.1,2.9-2.1,2.9l-3.7,1.9l-2.7,3.1l-0.4,2.5l-0.4,2.7l-3.3,1.1l-2.1,0.6
	l-2.8,0.2c-0.2,1-0.3,2.1-0.2,3.1c0.1,0.7,0.3,1.4,0.7,2.1c0.4,0.7,0.7,1.5,1,2.3l-3.2,4.1l0.8,4.8l-1.2,1l-5.2,0.6l-2.5,2.3
	l-1.2,3.1v5.8l-3.3,9.6L124.7,442.2z"/>
<path class="st2" d="M258.4,452.4c0.7,0.7,1.8,0.9,2.7,0.6c1.6-0.5,3.4,0.2,5,0.9s2.1,1.2,3.5,1.2s2.6,1.4,4.2,2.1s3,1.6,4.5,1.4
	s0.5-0.9,3.1-0.7s5.4,0,7.7,1.4c1.7,1.1,3.6,1.6,5.6,1.4c2.1,0,2.7,1.4,3.8,0.6s1.6-1.5,2.8-2.4c1.1-1.1,2.7-1.7,4.2-1.4
	c2.3,0.2,2.7,0.9,4.9,0.2s2.7-1.2,5-0.5c1.7,0.6,3.4,0.8,5.1,0.7c1.9,0,1.4-1.2,3.7,0.5s4.5,2.2,6.9,3.6s5.4,3,7.3,4
	c2.5,1.2,5.1,2.2,7.8,3c4,1.4,4.2,1.9,7,3.3c2.8,1.2,5.8,2.3,8.7,3.3c1.9,0.7,5.4,1.5,8.7,3.8s7.8,4,12.7,7c4.2,2.7,8.5,5.1,13,7.3
	c3.5,1.6,8,4.4,11.8,6.5s11.8,5.8,14.5,7s6.6,5,7.3,3.4c1.2-2.9,2.3-5.9,3.3-9c0.7-2.6,2.6-4.1,1.4-7.5s-3.7-5.5-4.5-8
	c-0.7-2.5-1.1-5.1-0.9-7.7c0.2-2,2.8-4.5,4.4-5.2s1.3,0.2,4.4-1.2s5-1.4,4.5-3.7s-1.5-4.9-4.8-4c-2.4,0.7-4.8,1.1-7.3,1.2
	c-1.6,0-3.5,0.5-1.6-2.6s1.9-3.8,1.9-7.8c0.1-2.1-0.2-4.1-0.7-6.1l-1.6-1.6l-3,2.3l-0.5,3.5l-1.8-1.1l-5.8-0.3c-1.7,0-3-1.4-2.9-3.1
	c0-0.1,0-0.3,0-0.4c0.3,0-1.6-0.8-1.6-0.8l-2,1.3l-2,0.3l-3.1-2.2l-2.7-1l-1.8,2.5c0,0-0.9,13.3-11.4,10.9c-0.4,0.2-0.6-1.5-0.6-1.5
	s2.9-3.9-0.4-10.3c-0.1-0.5-3.9-1.2-3.9-1.2l-1.4-1l-2.7,1.9c-1.1-0.1-2.1-0.3-3.1-0.6c-1.1-0.5-2.2-0.7-3.4-0.7
	c-1.6,0-3,0.6-4.7-0.2c-0.9-0.4-1.8-1.1-2.3-2l-0.6-2l-1.6-1.2h-5c0,0-4.2-0.7-1.8-6.6c0,0.2-0.8-7.7-0.8-7.7l-2.3,2.5l-5.9,2.7
	l-3.7,0.2c-1.2,0-2.2,0.9-2.4,2.1c0.2-0.2-6.8,2.5-8.6-6.9c-0.2-0.2-2.7-3.3-2.7-3.3l-5.5-2.8l-0.1-1.5l-1.5,0.4l-2.5-0.4l-6.7-0.1
	l-3.9,0.1l-5.1-2.4l0-2.7l-20-0.2l-10.5,3.3c0,0-2.5,2.3-4.3,2.3c-3,0.2-3.5-4.5-3.5-4.5v-4l-6.1-1l-3-0.5l-0.7,1.9l1.2,4.1l2.6,1.2
	l1.4,2.9l1.1,1.3l-0.9,2.6l0.5,5.1l2.4,2l-2.4,2.3l1.3,2.3l0.2,1.9l-1.3-0.5l-1.5-0.7l-2.3,1.3l-0.9,0.2l2.8,4.2l-1.5,4.6l1.7,2.3
	l0.5,2.1c0,0-2.1,1.4-3-0.2C260.6,450.4,256.8,448.3,258.4,452.4z"/>
<path class="st2" d="M258.4,452.4c0.7,0.7,1.8,0.9,2.7,0.6c1.6-0.5,3.4,0.2,5,0.9s2.1,1.2,3.5,1.2s2.6,1.4,4.2,2.1s3,1.6,4.5,1.4
	s0.5-0.9,3.1-0.7s5.4,0,7.7,1.4c1.7,1.1,3.6,1.6,5.6,1.4c2.1,0,2.7,1.4,3.8,0.6s1.6-1.5,2.8-2.4c1.1-1.1,2.7-1.7,4.2-1.4
	c2.3,0.2,2.7,0.9,4.9,0.2s2.7-1.2,5-0.5c1.7,0.6,3.4,0.8,5.1,0.7c1.9,0,1.4-1.2,3.7,0.5s4.5,2.2,6.9,3.6s5.4,3,7.3,4
	c2.5,1.2,5.1,2.2,7.8,3c4,1.4,4.2,1.9,7,3.3c2.8,1.2,5.8,2.3,8.7,3.3c1.9,0.7,5.4,1.5,8.7,3.8s7.8,4,12.7,7c4.2,2.7,8.5,5.1,13,7.3
	c3.5,1.6,8,4.4,11.8,6.5s11.8,5.8,14.5,7s6.6,5,7.3,3.4c1.2-2.9,2.3-5.9,3.3-9c0.7-2.6,2.6-4.1,1.4-7.5s-3.7-5.5-4.5-8
	c-0.7-2.5-1.1-5.1-0.9-7.7c0.2-2,2.8-4.5,4.4-5.2s1.3,0.2,4.4-1.2s5-1.4,4.5-3.7s-1.5-4.9-4.8-4c-2.4,0.7-4.8,1.1-7.3,1.2
	c-1.6,0-3.5,0.5-1.6-2.6s1.9-3.8,1.9-7.8c0.1-2.1-0.2-4.1-0.7-6.1l-1.6-1.6l-3,2.3l-0.5,3.5l-1.8-1.1l-5.8-0.3c-1.7,0-3-1.4-2.9-3.1
	c0-0.1,0-0.3,0-0.4c0.3,0-1.6-0.8-1.6-0.8l-2,1.3l-2,0.3l-3.1-2.2l-2.7-1l-1.8,2.5c0,0-0.9,13.3-11.4,10.9c-0.4,0.2-0.6-1.5-0.6-1.5
	s2.9-3.9-0.4-10.3c-0.1-0.5-3.9-1.2-3.9-1.2l-1.4-1l-2.7,1.9c-1.1-0.1-2.1-0.3-3.1-0.6c-1.1-0.5-2.2-0.7-3.4-0.7
	c-1.6,0-3,0.6-4.7-0.2c-0.9-0.4-1.8-1.1-2.3-2l-0.6-2l-1.6-1.2h-5c0,0-4.2-0.7-1.8-6.6c0,0.2-0.8-7.7-0.8-7.7l-2.3,2.5l-5.9,2.7
	l-3.7,0.2c-1.2,0-2.2,0.9-2.4,2.1c0.2-0.2-6.8,2.5-8.6-6.9c-0.2-0.2-2.7-3.3-2.7-3.3l-5.5-2.8l-0.1-1.5l-1.5,0.4l-2.5-0.4l-6.7-0.1
	l-3.9,0.1l-5.1-2.4l0-2.7l-20-0.2l-10.5,3.3c0,0-2.5,2.3-4.3,2.3c-3,0.2-3.5-4.5-3.5-4.5v-4l-6.1-1l-3-0.5l-0.7,1.9l1.2,4.1l2.6,1.2
	l1.4,2.9l1.1,1.3l-0.9,2.6l0.5,5.1l2.4,2l-2.4,2.3l1.3,2.3l0.2,1.9l-1.3-0.5l-1.5-0.7l-2.3,1.3l-0.9,0.2l2.8,4.2l-1.5,4.6l1.7,2.3
	l0.5,2.1c0,0-2.1,1.4-3-0.2C260.6,450.4,256.8,448.3,258.4,452.4z"/>
<path class="st3" d="M226.2,244.4c-0.2-1,2.4-1.6,3.4-2.2s7.5-4.9,10.5-6.5s10.9-8.6,10.9-8.6s1,6.6,1.8,10.6
	c1.2,4.8,3.2,4.1,3.4,4.3c2.2,0,4.6,1.6,5,2.6c1.2,2,4.5,3.2,4.5,3.2s5.4,1.4,7,1.6s6.2,1,7.4,1.2s5.1,0.6,10.5,1.8s8.5-2,9.9-2.5
	c1-0.9,2.3-1.5,3.5-1.9c-1.3-1,1.5-0.2,1.5-0.2l24.3,11.1c0,0-9,11.9-9.8,12.9s-4.2,6.5-5.6,7.9s-4.5,7-5.5,7.8s-4.4,6.9-5.8,7.5
	s-1.8-1.2-3-0.6s-2.4,0-3.9-0.4s-2,0.4-2.8,1.4s-3.2,2.4-4.4,3.8s-1.8,1.2-3.8,1s-3.2-2.8-3.8-3.8c-0.7-1.6-1.6-3-2.9-4.2
	c-0.5-0.6-1.2-1.1-1.9-1.5c-0.1-0.1-0.1-0.2-0.3-0.7c-0.4-1.4-2-2.2-4.4-2s-3.6-0.7-5.6-0.5s-4.1-1.6-6.1-2.4
	c-1.6-0.8-3.6-0.4-4.8,1c-1.2,1.1-2.7,1.8-4.2,2.1c-1.3,0.2-2.5,0.6-3.7,1.2c-2.1,1-3.2,0.2-3.2-1c0.2-1.5,0.6-3.1,1.2-4.5
	c0.4-1.2-1.2-4.6-1.8-5.6s-1.6-1.2-3.6-1.2s-2.6-2-3.2-3.2s-2.2-1.6-3.2-2.1c-1.4-0.5-2.9-0.6-4.3-0.2c-2,0.4-3.4-2.2-3.4-2.2
	c1.1-0.7,2.2-1.2,3.4-1.6c2.2-0.8,2-2.6,3.6-2.4c1.3,0.2,2.5-0.7,2.7-2c0-0.1,0-0.3,0-0.4c0-1.4-3.1-0.6-4.7-1.4s-2.8-2.8-5-4.6
	s-1.2-3.7,0-5.5S226.4,245.4,226.2,244.4z"/>
<path class="st3" d="M226.2,244.4c-0.2-1,2.4-1.6,3.4-2.2s7.5-4.9,10.5-6.5s10.9-8.6,10.9-8.6s1,6.6,1.8,10.6
	c1.2,4.8,3.2,4.1,3.4,4.3c2.2,0,4.6,1.6,5,2.6c1.2,2,4.5,3.2,4.5,3.2s5.4,1.4,7,1.6s6.2,1,7.4,1.2s5.1,0.6,10.5,1.8s8.5-2,9.9-2.5
	c1-0.9,2.3-1.5,3.5-1.9c-1.3-1,1.5-0.2,1.5-0.2l24.3,11.1c0,0-9,11.9-9.8,12.9s-4.2,6.5-5.6,7.9s-4.5,7-5.5,7.8s-4.4,6.9-5.8,7.5
	s-1.8-1.2-3-0.6s-2.4,0-3.9-0.4s-2,0.4-2.8,1.4s-3.2,2.4-4.4,3.8s-1.8,1.2-3.8,1s-3.2-2.8-3.8-3.8c-0.7-1.6-1.6-3-2.9-4.2
	c-0.5-0.6-1.2-1.1-1.9-1.5c-0.1-0.1-0.1-0.2-0.3-0.7c-0.4-1.4-2-2.2-4.4-2s-3.6-0.7-5.6-0.5s-4.1-1.6-6.1-2.4
	c-1.6-0.8-3.6-0.4-4.8,1c-1.2,1.1-2.7,1.8-4.2,2.1c-1.3,0.2-2.5,0.6-3.7,1.2c-2.1,1-3.2,0.2-3.2-1c0.2-1.5,0.6-3.1,1.2-4.5
	c0.4-1.2-1.2-4.6-1.8-5.6s-1.6-1.2-3.6-1.2s-2.6-2-3.2-3.2s-2.2-1.6-3.2-2.1c-1.4-0.5-2.9-0.6-4.3-0.2c-2,0.4-3.4-2.2-3.4-2.2
	c1.1-0.7,2.2-1.2,3.4-1.6c2.2-0.8,2-2.6,3.6-2.4c1.3,0.2,2.5-0.7,2.7-2c0-0.1,0-0.3,0-0.4c0-1.4-3.1-0.6-4.7-1.4s-2.8-2.8-5-4.6
	s-1.2-3.7,0-5.5S226.4,245.4,226.2,244.4z"/>
</svg>
