<svg id="Layer_1" data-name="Layer 1" xmlns="http://www.w3.org/2000/svg" xmlns:xlink="http://www.w3.org/1999/xlink" viewBox="0 0 512 512"><defs><style>.cls-1,.cls-2,.cls-4,.cls-7{fill:#e6e7e8;}.cls-1,.cls-2,.cls-3,.cls-6,.cls-7{stroke:#fff;stroke-linejoin:round;}.cls-1{clip-rule:evenodd;}.cls-2,.cls-3,.cls-4,.cls-6{fill-rule:evenodd;}.cls-3{fill:#a7a9ac;}.cls-5{clip-path:url(#clip-path);}.cls-6{fill:none;}</style><clipPath id="clip-path"><path class="cls-1" d="M232.69,193.14s2.26,2.54,1.41,5.36-2.25,3.1-3.1,5.64-.28,2.83-3.67,4-5.93.29-7.06,1.42-4.56,2.87-5.13,5.41-1.17,2.82.57,5.36.9,4.23,6,5.93,8.18,4.23,11.57,6.21,5.69,1.69,8.51,3.1,3.11,2.59,5.93,4.28,5.36,2.26,6.49,3.39,1.13.85,1.41,2.82a15.34,15.34,0,0,1-1.13,7.06c-.84,2,1.13,6.16,0,7.9s-1.69.9-2.25,2.59,0,2.82-2,3.95a10.35,10.35,0,0,0-4.23,5.08c-.57,1.7,1.41,5.65-.85,7.62s-2.82,2-2.26,4.24-.89,3.43-2.3,5.41-1.42,4.23-1.42,6.77-.56,2.82-2,4.24-2.82,2.54-2,4.51,2.26,1.64.85,4.52a58.55,58.55,0,0,0-2.54,6.26s-3.11-3.39-7.34-2.54c-.28,0-3.62-3.72-8.47-6.83,0-.28-5.13-4-5.13-4l-6.2-2s-2-1.13-4.8,1.12c-.85.85-4.8,3.39-7.62,1.7-1.41-.57-4.29-3.11-8,0,0,.28-2.82,1.69-2.82,1.69l-2-2.26.28-5.92L180.38,293s-.56-1.69,1.69-2c.29,0,4-.85,4-.85l.29-2.54-1.7-2.59-.84-2.82,1.13-5.93,2.82-3.39s1.41-1.69-1.13-5.92c.28-.28-2.26-4.52-2.26-4.52l1.13-6s0-2.83-1.69-4c0,.57-3.39-2.54-4.52-5.36a18.26,18.26,0,0,0-.56-2.54l-3.11-3.95v-2.82l2.54-2.59.85-3.11-1.13-3.38s-1.69-3.95-.28-6.21c.28,0,1.41-3.11,1.41-3.11a31.24,31.24,0,0,0-2.54-7.67c.28,0-1.13-3.95-1.13-3.95l-2.82-3.95-.85-8.18s-.56-4.24,7.34-5.65c6.21-1.13,18.39-4.28,18.39-4.28l7.62,1.18,4.24.28s1.64-2,5.08,0c3.43,2.26,6,3.67,6,3.67l2.26,2.54,7.62,1.41Z"/></clipPath></defs><path class="cls-2" d="M295.31,27.88c0,.4,2,3.15,3.54,3.15s3.94-1.57,3.94-1.57l2.75-.79a4.27,4.27,0,0,1,3.14-.79A39.77,39.77,0,0,1,313,29.46l1.18,2.75s-2.75,5.11,0,5.11,6.29,0,8.26.79,3.93,1.57,6.29.79,5.11-2,5.11-2l2.36-2.75s3.15,1.57,4.33,3.54,4.72,2.75,4.72,2.75A4.24,4.24,0,0,0,348.4,42a5.73,5.73,0,0,0,3.22-.94s-2.6-.3-1.34-2.63-.87-4.07,0-6.54S352.11,25,352.11,25s.23-3-1.74-4.58-7.08-4.72-7.47-6.29-2.55-3.38-2.55-3.38l-1.52-8.5L333,2.09,328,1s-4.81,8.4-15,8.79c-.79-.39-7.87-1.18-7.87-1.18l-3.53.79-5.29.34S301.21,20.41,295.31,27.88Z"/><path class="cls-2" d="M295.31,27.88c0,.4,2,3.15,3.54,3.15s3.94-1.57,3.94-1.57l2.75-.79a4.27,4.27,0,0,1,3.14-.79A39.77,39.77,0,0,1,313,29.46l1.18,2.75s-2.75,5.11,0,5.11,6.29,0,8.26.79,3.93,1.57,6.29.79,5.11-2,5.11-2l2.36-2.75s3.15,1.57,4.33,3.54,4.72,2.75,4.72,2.75A4.24,4.24,0,0,0,348.4,42a5.73,5.73,0,0,0,3.22-.94s-2.6-.3-1.34-2.63-.87-4.07,0-6.54S352.11,25,352.11,25s.23-3-1.74-4.58-7.08-4.72-7.47-6.29-2.55-3.38-2.55-3.38l-1.52-8.5L333,2.09,328,1s-4.81,8.4-15,8.79c-.79-.39-7.87-1.18-7.87-1.18l-3.53.79-5.29.34S301.21,20.41,295.31,27.88Z"/><path class="cls-2" d="M316.89,62.53,292.6,54.86l-7-13.82-.19-.09a13.14,13.14,0,0,0-2.7,4.63c-.79,2.75-1.57,2.75-3.54,3.93s-3.93.4-4.72,3.54,1.18,1.58-3.15,5.12-3.93,2.35-5.5,5.11-3.93,4.72-5.11,6.29a17.51,17.51,0,0,0-2,5.11,17,17,0,0,1,3.54,1.58c3.15,1.57,5.51,2.75,11,2s7.87,0,10.23-2,9-4.72,9-4.72,10.62-1.18,13.37,0c2.35,1,9.87,3.73,16.17,3.53v-.25Z"/><path class="cls-2" d="M258.74,74.68l-2.36-2.75c-2.36-2.75-3.93-5.51-4.33-7.87s.4-2-2-4.32-3.93-2.75-3.54-5.51.39-2-.39-4.32a5.59,5.59,0,0,1,.39-4.33l3.15-2.75a15.92,15.92,0,0,1,2.75-4.72C254,36.54,254.81,33,254.81,33L258,26.31,264,27.53l14.8,3.11,5.9,6.68h1.57s1.18,2-.4,3.15-1.17,1.57-2.35,3.14-.79,4.33-2.36,5.12-4.33,2-4.33,2a2.53,2.53,0,0,0-2.36,2.36c0,.79-.39,3.15-.39,3.15l-6.29,4.72a20.58,20.58,0,0,0-3.54,4.32l-3.54,4.33Z"/><path class="cls-2" d="M258.74,74.68l-2.36-2.75c-2.36-2.75-3.93-5.51-4.33-7.87s.4-2-2-4.32-3.93-2.75-3.54-5.51.39-2-.39-4.32a5.59,5.59,0,0,1,.39-4.33l3.15-2.75a15.92,15.92,0,0,1,2.75-4.72C254,36.54,254.81,33,254.81,33L258,26.31,264,27.53l14.8,3.11,5.9,6.68h1.57s1.18,2-.4,3.15-1.17,1.57-2.35,3.14-.79,4.33-2.36,5.12-4.33,2-4.33,2a2.53,2.53,0,0,0-2.36,2.36c0,.79-.39,3.15-.39,3.15l-6.29,4.72a20.58,20.58,0,0,0-3.54,4.32l-3.54,4.33Z"/><path class="cls-2" d="M258.74,74.68s2,3.93,0,4.33-1.57.78-3.93-1.18-7.87-3.93-8.65-7.08-1.58-2-1.58-4.72a12.8,12.8,0,0,0-1.18-5.11s-6.68-5.51-9.44-7.87-2-1.18-3.14-4.32-.79-3.15-3.15-4.33-.78-2-3.93-3.14-3.15-.79-3.54-2.76.79-2.36-2-3.93-2.75,0-2.75-3.15a13.5,13.5,0,0,0-1.18-5.5s4-.12,4-5.56l5.08-10.57,5.11-.87S232,7,234,7.83s6.79.81,6.79.81l7.77,14.13L258,26.31,254,35.36l-1.57,2.75-2.36,3.15-.39,1.57-3.15,2.75V56.2l5.5,5.9s.4,4.72,2.36,7.47C255.59,70.75,258.74,74.68,258.74,74.68Z"/><path class="cls-2" d="M258.74,74.68s2,3.93,0,4.33-1.57.78-3.93-1.18-7.87-3.93-8.65-7.08-1.58-2-1.58-4.72a12.8,12.8,0,0,0-1.18-5.11s-6.68-5.51-9.44-7.87-2-1.18-3.14-4.32-.79-3.15-3.15-4.33-.78-2-3.93-3.14-3.15-.79-3.54-2.76.79-2.36-2-3.93-2.75,0-2.75-3.15a13.5,13.5,0,0,0-1.18-5.5s4-.12,4-5.56l5.08-10.57,5.11-.87S232,7,234,7.83s6.79.81,6.79.81l7.77,14.13L258,26.31,254,35.36l-1.57,2.75-2.36,3.15-.39,1.57-3.15,2.75V56.2l5.5,5.9s.4,4.72,2.36,7.47C255.59,70.75,258.74,74.68,258.74,74.68Z"/><path class="cls-2" d="M244.58,66a34,34,0,0,1-7.08-4.72c-2.36-2.36-5.11-3.93-7.07-5.5s-2.76-1.58-3.94-4.33-3.14-2.75-3.93-.79-.39,4.33-3.15,5.9-6.29.4-9,0-3.15-1.57-5.11,1.18-1.58,4.33-2.76,6.69-2.36,2.75-2.75,5.5.39,4.33-1.57,7.87a14.26,14.26,0,0,0-2,6.29,17.58,17.58,0,0,0-1.57,7.08c0,3.93,0,2,4.32,3.54s7.08,3.14,7.87,5.9-.39,4.72,2.36,6.68A17.72,17.72,0,0,1,214.3,114c.79,1.57-.39,5.5,3.15,5.5s2.36,2.76,3.93,5.12,3.54,3.14,4.72,4.71a3.66,3.66,0,0,0,5.11.79c2-1.18,5.51-3.54,7.08-5.5s3.15,0,2.36-4.72,1.18-3.54,0-8.65-.79-9.05.79-10.23,3.14-8.65,5.11-10.22,4.32-3.94,4.32-3.94,4.72-.78,3.94-3.93,1.57-3.15,1.57-3.15,0-1.18-5.51-4.32C251.27,75.47,246.94,74.29,244.58,66Z"/><path class="cls-2" d="M244.58,66a34,34,0,0,1-7.08-4.72c-2.36-2.36-5.11-3.93-7.07-5.5s-2.76-1.58-3.94-4.33-3.14-2.75-3.93-.79-.39,4.33-3.15,5.9-6.29.4-9,0-3.15-1.57-5.11,1.18-1.58,4.33-2.76,6.69-2.36,2.75-2.75,5.5.39,4.33-1.57,7.87a14.26,14.26,0,0,0-2,6.29,17.58,17.58,0,0,0-1.57,7.08c0,3.93,0,2,4.32,3.54s7.08,3.14,7.87,5.9-.39,4.72,2.36,6.68A17.72,17.72,0,0,1,214.3,114c.79,1.57-.39,5.5,3.15,5.5s2.36,2.76,3.93,5.12,3.54,3.14,4.72,4.71a3.66,3.66,0,0,0,5.11.79c2-1.18,5.51-3.54,7.08-5.5s3.15,0,2.36-4.72,1.18-3.54,0-8.65-.79-9.05.79-10.23,3.14-8.65,5.11-10.22,4.32-3.94,4.32-3.94,4.72-.78,3.94-3.93,1.57-3.15,1.57-3.15,0-1.18-5.51-4.32C251.27,75.47,246.94,74.29,244.58,66Z"/><path class="cls-2" d="M240.65,122.27s5.11-.79,8.26-2.76,7.47-1.18,11.8.79,10.22,4.72,14.55,5.51,10.61,3.53,18.09.39,9.44-4.33,14.94-6.29,11-2,15.34-2,13,1.18,18.09-.79,5.9-.78,9-6.29-.78-4.32,3.54-8.26,5.51-2.75,3.93-7.86a42.87,42.87,0,0,0-3.14-7.87l-4.44.11a62.65,62.65,0,0,1-1.07-6.79c0-1.58-4.72-9.83-4.72-9.83a40.54,40.54,0,0,0-7.08.78c-3.93.79-6.68,1.58-10.22,2.36s-8.26,2.36-13,.79-3.93-3.15-11.79-2.75-7.87-2-13.38,1.57S285.09,77,280,77.43s-13.37,1.18-13.37,1.18l-7.87-3.93s3.93,5.51-2.36,5.11c0-.78-2.36,0-1.57,3.15,0,.39.39,3.15-3.94,3.93,0-.39-4.32,3.94-4.32,3.94a5.62,5.62,0,0,0-2.36,4.32c.39,1.18-2.75,5.9-2.75,5.9a14.64,14.64,0,0,0-1.18,8.26C240.26,109.68,240.65,122.27,240.65,122.27Z"/><path class="cls-2" d="M240.65,122.27s5.11-.79,8.26-2.76,7.47-1.18,11.8.79,10.22,4.72,14.55,5.51,10.61,3.53,18.09.39,9.44-4.33,14.94-6.29,11-2,15.34-2,13,1.18,18.09-.79,5.9-.78,9-6.29-.78-4.32,3.54-8.26,5.51-2.75,3.93-7.86a42.87,42.87,0,0,0-3.14-7.87l-4.44.11a62.65,62.65,0,0,1-1.07-6.79c0-1.58-4.72-9.83-4.72-9.83a40.54,40.54,0,0,0-7.08.78c-3.93.79-6.68,1.58-10.22,2.36s-8.26,2.36-13,.79-3.93-3.15-11.79-2.75-7.87-2-13.38,1.57S285.09,77,280,77.43s-13.37,1.18-13.37,1.18l-7.87-3.93s3.93,5.51-2.36,5.11c0-.78-2.36,0-1.57,3.15,0,.39.39,3.15-3.94,3.93,0-.39-4.32,3.94-4.32,3.94a5.62,5.62,0,0,0-2.36,4.32c.39,1.18-2.75,5.9-2.75,5.9a14.64,14.64,0,0,0-1.18,8.26C240.26,109.68,240.65,122.27,240.65,122.27Z"/><path class="cls-2" d="M136.83,92.38s5.11,10.22,4.72,13.37,0,7.47,1.57,8.65,3.15,2.36,3.15,5.11,1.18,3.15,2.75,5.51,1.18,2,4.33,3.54,2.75-.79,9.44,4.32,11,7.48,13.76,8.66,5.9,3.54,8.65,3.93,5.11.39,7.47,1.57A59.41,59.41,0,0,0,206,151c3.54.4,11.8,1.18,11.8,1.18s-2,4.33,1.18,7.08a52.3,52.3,0,0,0,8.65,6.29,17,17,0,0,0,5.11,2l4.72-5.5a5.48,5.48,0,0,1-2.36-3.15c-.78-2.36-.39-4.33-1.18-7.08s-3.53-4.72-2-7.08,2-4.72,2-9a67.15,67.15,0,0,0-.39-7.47s-5.11,5.89-9,0c.39,0-3.15-3.54-3.15-3.54s1.57-5.12-5.9-5.51c.79.39-1.18-5.11-1.18-5.11s-1.18-4.33-7.08-7.87c.79.4-.39-5.5-.39-5.5s0-4.72-11.4-6.69c0,.39-2-3.14-.4-6.68,0-.4,3.15-9.44,3.15-9.44l-2.75,1.57-6.69.39a15.09,15.09,0,0,0-6.29,3.94c.39,0-3.54,3.54-9.83,0l-10.23,7.08-4.32,2.36-2-1.18-4.33-.4h-7.86L140,91.2Z"/><path class="cls-2" d="M136.83,92.38s5.11,10.22,4.72,13.37,0,7.47,1.57,8.65,3.15,2.36,3.15,5.11,1.18,3.15,2.75,5.51,1.18,2,4.33,3.54,2.75-.79,9.44,4.32,11,7.48,13.76,8.66,5.9,3.54,8.65,3.93,5.11.39,7.47,1.57A59.41,59.41,0,0,0,206,151c3.54.4,11.8,1.18,11.8,1.18s-2,4.33,1.18,7.08a52.3,52.3,0,0,0,8.65,6.29,17,17,0,0,0,5.11,2l4.72-5.5a5.48,5.48,0,0,1-2.36-3.15c-.78-2.36-.39-4.33-1.18-7.08s-3.53-4.72-2-7.08,2-4.72,2-9a67.15,67.15,0,0,0-.39-7.47s-5.11,5.89-9,0c.39,0-3.15-3.54-3.15-3.54s1.57-5.12-5.9-5.51c.79.39-1.18-5.11-1.18-5.11s-1.18-4.33-7.08-7.87c.79.4-.39-5.5-.39-5.5s0-4.72-11.4-6.69c0,.39-2-3.14-.4-6.68,0-.4,3.15-9.44,3.15-9.44l-2.75,1.57-6.69.39a15.09,15.09,0,0,0-6.29,3.94c.39,0-3.54,3.54-9.83,0l-10.23,7.08-4.32,2.36-2-1.18-4.33-.4h-7.86L140,91.2Z"/><path class="cls-2" d="M92,241.44c.17.34,2.92,2.57,5.15,1.54a8.61,8.61,0,0,1,4.12-1c1.72-.17,3.27,0,2.58-2.4s-1.72-3.87-.69-4.39,2.75-1.72,5.15-.86,2.83,2.41,5.33,2.41,2.67.95,4.22.78,2.4-1.13,2.74-3.19.52-4.29,2.06-5.32,3.27-1.72,4.12-3.78,1.38-.86,1.21-5.49a38.15,38.15,0,0,1,.17-6.7,10.08,10.08,0,0,1-4.12-4.74c-1.55-3.43-3.27-5.49-4.3-6.18s-2.06-2.92-2.06-5.32-.26-6.7-5.42-6.35c0,.17-3.09,1.47-5-2.58a8.75,8.75,0,0,0-8.93-4.91,22.55,22.55,0,0,1-5.14-.1L93,181.56a7.14,7.14,0,0,0-.34,2.75c.17,1.2-1.38,2.5-.86,3.87s0,3.27.86,3.61,3.09.34,2.06,4.64-1.55,5.66-.69,8.41,1.2,5,.86,5.84A5,5,0,0,1,93.34,213c-.86.68-1.2,1.2-.86,2.06a3.92,3.92,0,0,1-.68,4c-1.2,1.37-2.92,1.54-1.72,4.81a14.87,14.87,0,0,1,.69,7.9c-.35,1.71-.44,1.54-1.3,1.54a1.5,1.5,0,0,0-.34,2.75C90.6,236.88,93.17,238.52,92,241.44Z"/><path class="cls-2" d="M92,241.44c.17.34,2.92,2.57,5.15,1.54a8.61,8.61,0,0,1,4.12-1c1.72-.17,3.27,0,2.58-2.4s-1.72-3.87-.69-4.39,2.75-1.72,5.15-.86,2.83,2.41,5.33,2.41,2.67.95,4.22.78,2.4-1.13,2.74-3.19.52-4.29,2.06-5.32,3.27-1.72,4.12-3.78,1.38-.86,1.21-5.49a38.15,38.15,0,0,1,.17-6.7,10.08,10.08,0,0,1-4.12-4.74c-1.55-3.43-3.27-5.49-4.3-6.18s-2.06-2.92-2.06-5.32-.26-6.7-5.42-6.35c0,.17-3.09,1.47-5-2.58a8.75,8.75,0,0,0-8.93-4.91,22.55,22.55,0,0,1-5.14-.1L93,181.56a7.14,7.14,0,0,0-.34,2.75c.17,1.2-1.38,2.5-.86,3.87s0,3.27.86,3.61,3.09.34,2.06,4.64-1.55,5.66-.69,8.41,1.2,5,.86,5.84A5,5,0,0,1,93.34,213c-.86.68-1.2,1.2-.86,2.06a3.92,3.92,0,0,1-.68,4c-1.2,1.37-2.92,1.54-1.72,4.81a14.87,14.87,0,0,1,.69,7.9c-.35,1.71-.44,1.54-1.3,1.54a1.5,1.5,0,0,0-.34,2.75C90.6,236.88,93.17,238.52,92,241.44Z"/><path class="cls-3" d="M130.54,212.72s4-1.9,5.4,1.59-.4,3.79,3.5,5,4.77,1.16,5.06,3.79a19.79,19.79,0,0,0,2.92,7.86c1.45,2.34,2.91,9.44,5.53,14.39s1.75,4.66,3.79,7.87,4.37,4.08,4.08,6.41-1.16,25,0,30.81,0,16.5-.29,20.11-3.5,9.72-4.08,12.93-2.33,8.05-3.2,12.82-1.17,5.35-3.5,10.31-3.5,6.7-1.75,8.16,2.91,1.35,2,5.24-3.79,5.94-5.25,9.14-.47,4.67-3.2,6.71-2.73,1.45-5.06,1.45-.88-.29-5.25-1.75-15-9.5-22-12.53-34.68-18.35-41.49-22.83-17.48-8.85-26.33-13.52a152.7,152.7,0,0,1-16.72-10.42s5.3-10.72,6.44-14.33,5.22-10.14.55-15.38S23.61,273.21,24.2,267s4-10.89,10.49-11.18c2-.58,12.63-3.11,11.61-7.24a24.09,24.09,0,0,0-3.46-4.78s13.7-2.26,18.76-3.13a24.12,24.12,0,0,1,9.56.38s3.67,2.82,7.45,2.82,11.16-.45,13.36-2.41a5.75,5.75,0,0,0,7.44.67c.58.29,5,.39,4.08-4.08,0,0-3-4.72,4.79-3.73.75.12,1.92,2.36,9.55,3.19-.24.24,2.38,1,3.25-5.69,0,0,1.46-3.21,3.79-4.37-.58,0,2.92-4.08,2.92-4.08l.34-10.34Z"/><path class="cls-3" d="M130.54,212.72s4-1.9,5.4,1.59-.4,3.79,3.5,5,4.77,1.16,5.06,3.79a19.79,19.79,0,0,0,2.92,7.86c1.45,2.34,2.91,9.44,5.53,14.39s1.75,4.66,3.79,7.87,4.37,4.08,4.08,6.41-1.16,25,0,30.81,0,16.5-.29,20.11-3.5,9.72-4.08,12.93-2.33,8.05-3.2,12.82-1.17,5.35-3.5,10.31-3.5,6.7-1.75,8.16,2.91,1.35,2,5.24-3.79,5.94-5.25,9.14-.47,4.67-3.2,6.71-2.73,1.45-5.06,1.45-.88-.29-5.25-1.75-15-9.5-22-12.53-34.68-18.35-41.49-22.83-17.48-8.85-26.33-13.52a152.7,152.7,0,0,1-16.72-10.42s5.3-10.72,6.44-14.33,5.22-10.14.55-15.38S23.61,273.21,24.2,267s4-10.89,10.49-11.18c2-.58,12.63-3.11,11.61-7.24a24.09,24.09,0,0,0-3.46-4.78s13.7-2.26,18.76-3.13a24.12,24.12,0,0,1,9.56.38s3.67,2.82,7.45,2.82,11.16-.45,13.36-2.41a5.75,5.75,0,0,0,7.44.67c.58.29,5,.39,4.08-4.08,0,0-3-4.72,4.79-3.73.75.12,1.92,2.36,9.55,3.19-.24.24,2.38,1,3.25-5.69,0,0,1.46-3.21,3.79-4.37-.58,0,2.92-4.08,2.92-4.08l.34-10.34Z"/><path class="cls-2" d="M144.53,221.87c0,.1,2.13.28,3.31-2.86s2.75-3.54,3.54-6.69.79-11.8.79-11.8-1.18-10.22-.79-13-.39-6.29.79-7.87a24.37,24.37,0,0,0,2.36-4.72s-.79-4.72-2-6.68a14.51,14.51,0,0,1-2.36-5.51c-.79-3.14.79-7.86.79-7.86a26.8,26.8,0,0,0,2.36-7.48,29.49,29.49,0,0,0-1.18-10.61,20.69,20.69,0,0,1-.79-5.51l.39-3.14s-5.31-4.33-5.31-6.87-.28-4.8-2-6.21-3.67-2-3.11-6.26.28-5.08.28-5.08l-4.83-11.37-11.4.79s-5,4.37-7,6.35-4.33,4.18-3.44,9,1.47,6.26.9,9.64-1.41,8.75-.28,11.86a13.09,13.09,0,0,1,0,8.8c-.9,2.82-2,8.19-2,8.19a40.07,40.07,0,0,1,2.3,12.13c0,2,.28,13,.28,13l4.1,4.34S119,181,123,182.36c.28.85,1.77.89,1.87,5.13.39,0,4.62,5.36,4.62,5.36s1.69,2.26.28,6.49-2.4,11.17.78,13.38c.35-.06,4.58-3.45,5.71,3.61.57,1.69,2.59,3.67,4.29,3.67C140.25,220,143.73,219.79,144.53,221.87Z"/><path class="cls-2" d="M144.53,221.87c0,.1,2.13.28,3.31-2.86s2.75-3.54,3.54-6.69.79-11.8.79-11.8-1.18-10.22-.79-13-.39-6.29.79-7.87a24.37,24.37,0,0,0,2.36-4.72s-.79-4.72-2-6.68a14.51,14.51,0,0,1-2.36-5.51c-.79-3.14.79-7.86.79-7.86a26.8,26.8,0,0,0,2.36-7.48,29.49,29.49,0,0,0-1.18-10.61,20.69,20.69,0,0,1-.79-5.51l.39-3.14s-5.31-4.33-5.31-6.87-.28-4.8-2-6.21-3.67-2-3.11-6.26.28-5.08.28-5.08l-4.83-11.37-11.4.79s-5,4.37-7,6.35-4.33,4.18-3.44,9,1.47,6.26.9,9.64-1.41,8.75-.28,11.86a13.09,13.09,0,0,1,0,8.8c-.9,2.82-2,8.19-2,8.19a40.07,40.07,0,0,1,2.3,12.13c0,2,.28,13,.28,13l4.1,4.34S119,181,123,182.36c.28.85,1.77.89,1.87,5.13.39,0,4.62,5.36,4.62,5.36s1.69,2.26.28,6.49-2.4,11.17.78,13.38c.35-.06,4.58-3.45,5.71,3.61.57,1.69,2.59,3.67,4.29,3.67C140.25,220,143.73,219.79,144.53,221.87Z"/><path class="cls-2" d="M231.85,167.12a3.35,3.35,0,0,0,1.41,3.11c1.69,1.41,4.8,2.54,4,5.92s-1.69,3.67-1.69,5.93a16.84,16.84,0,0,1-1.42,6c-.56,1.41,1.42,3.38-1.41,5.08s-1.13,1.12-5.92.56-2.54-.28-6.5-2.82-7.1-5.18-9.64-4.57.56.95-5.65.62-5.59-2.08-10.44-.62-4.56,1.18-9.08,2.31-5.64,1.13-8.75,2a6.61,6.61,0,0,0-4.8,6.77c.29,2.82,0,6.21,2.26,9s1.69,3.72,2.82,6.54,2.54,4.24,1.13,7.9-1.41,5.93-.28,7.91,1.69,4.79.28,6.49-4,4-1.13,7.1,1.7,4.24,2.83,6.21,1.69,2,4,3.95,2,2.26,1.41,5.37-.85,4.84.56,7.67,3.11,4.79,2,7.33-2.82,2-3.39,5.37-1.41,4.18.28,6.77,3.67,4,.29,5.13-5.08.85-4.52,2.82,1.69,3.67,1.13,7.06,1.13,6.77,3.39,4.51,5.13-2.82,7.38-1.69,4,2.26,6.5.28,7.05-3.1,8.74-2,3.11.84,5.08,1.69,2.88,2.26,5.13,4,4.52,2.82,5.93,3.95,1.13,2.88,4,2.88,5.08.84,5.36,3.38,1.13,6.49.29,8.19-5.93,11.05-7.62,14.72-1.93,12.7-6.78,15-15,5.6-17,7.62-8.47,5.13-9.31,7.11,1.41,2,1.41,2l16.65.29-.57,12.7a2.22,2.22,0,0,0-2,1.41c-.57,1.41-1.13,5.41-2,6.54a55.92,55.92,0,0,0-4,6.21c-.28.84-3.1,6.49-3.1,6.49s-21.5-7.34-25.17-9-18.68-6.83-22.35-9.37-9-4.23-9.88-5.36a19.16,19.16,0,0,1-1.74-4.23,12.41,12.41,0,0,0,4.87-8.11c1.67-3.46,5.91-4.08,5.06-12a23.7,23.7,0,0,0-1.85-2.4s-1.54-1.27.16-5.22c2-4.23,4.79-10.73,4.79-10.73l2.83-13s4.23-11.62,4.79-16.7.29-17.5.29-17.5l-.29-23.19v-9.93l-3.83-5.25-7.46-16.81-1.86-5.45-2.09-3.3-.8-5.75s1.09.39,2.5-1.31,4.35-8.24,4.35-8.24a174.62,174.62,0,0,0,.16-23.42c-.28.57,0-7.1,0-7.1l3-6.84-2-6.68s-3.56-1.77-2.15-10.52l2.94-10.33-.4-5.2-1.69-8.51.51-5.55,2.88,1s1.46-1.36,16.7,9.93c.28.28,13.85,6.34,13.85,6.34s5.67.15,13.29,3.82c7.62,1.69,19.35,2.86,19.35,2.86s-1.23,3.63-.39,5S223.38,164.3,231.85,167.12Z"/><path class="cls-2" d="M231.85,167.12a3.35,3.35,0,0,0,1.41,3.11c1.69,1.41,4.8,2.54,4,5.92s-1.69,3.67-1.69,5.93a16.84,16.84,0,0,1-1.42,6c-.56,1.41,1.42,3.38-1.41,5.08s-1.13,1.12-5.92.56-2.54-.28-6.5-2.82-7.1-5.18-9.64-4.57.56.95-5.65.62-5.59-2.08-10.44-.62-4.56,1.18-9.08,2.31-5.64,1.13-8.75,2a6.61,6.61,0,0,0-4.8,6.77c.29,2.82,0,6.21,2.26,9s1.69,3.72,2.82,6.54,2.54,4.24,1.13,7.9-1.41,5.93-.28,7.91,1.69,4.79.28,6.49-4,4-1.13,7.1,1.7,4.24,2.83,6.21,1.69,2,4,3.95,2,2.26,1.41,5.37-.85,4.84.56,7.67,3.11,4.79,2,7.33-2.82,2-3.39,5.37-1.41,4.18.28,6.77,3.67,4,.29,5.13-5.08.85-4.52,2.82,1.69,3.67,1.13,7.06,1.13,6.77,3.39,4.51,5.13-2.82,7.38-1.69,4,2.26,6.5.28,7.05-3.1,8.74-2,3.11.84,5.08,1.69,2.88,2.26,5.13,4,4.52,2.82,5.93,3.95,1.13,2.88,4,2.88,5.08.84,5.36,3.38,1.13,6.49.29,8.19-5.93,11.05-7.62,14.72-1.93,12.7-6.78,15-15,5.6-17,7.62-8.47,5.13-9.31,7.11,1.41,2,1.41,2l16.65.29-.57,12.7a2.22,2.22,0,0,0-2,1.41c-.57,1.41-1.13,5.41-2,6.54a55.92,55.92,0,0,0-4,6.21c-.28.84-3.1,6.49-3.1,6.49s-21.5-7.34-25.17-9-18.68-6.83-22.35-9.37-9-4.23-9.88-5.36a19.16,19.16,0,0,1-1.74-4.23,12.41,12.41,0,0,0,4.87-8.11c1.67-3.46,5.91-4.08,5.06-12a23.7,23.7,0,0,0-1.85-2.4s-1.54-1.27.16-5.22c2-4.23,4.79-10.73,4.79-10.73l2.83-13s4.23-11.62,4.79-16.7.29-17.5.29-17.5l-.29-23.19v-9.93l-3.83-5.25-7.46-16.81-1.86-5.45-2.09-3.3-.8-5.75s1.09.39,2.5-1.31,4.35-8.24,4.35-8.24a174.62,174.62,0,0,0,.16-23.42c-.28.57,0-7.1,0-7.1l3-6.84-2-6.68s-3.56-1.77-2.15-10.52l2.94-10.33-.4-5.2-1.69-8.51.51-5.55,2.88,1s1.46-1.36,16.7,9.93c.28.28,13.85,6.34,13.85,6.34s5.67.15,13.29,3.82c7.62,1.69,19.35,2.86,19.35,2.86s-1.23,3.63-.39,5S223.38,164.3,231.85,167.12Z"/><path class="cls-4" d="M232.69,193.14s2.26,2.54,1.41,5.36-2.25,3.1-3.1,5.64-.28,2.83-3.67,4-5.93.29-7.06,1.42-4.56,2.87-5.13,5.41-1.17,2.82.57,5.36.9,4.23,6,5.93,8.18,4.23,11.57,6.21,5.69,1.69,8.51,3.1,3.11,2.59,5.93,4.28,5.36,2.26,6.49,3.39,1.13.85,1.41,2.82a15.34,15.34,0,0,1-1.13,7.06c-.84,2,1.13,6.16,0,7.9s-1.69.9-2.25,2.59,0,2.82-2,3.95a10.35,10.35,0,0,0-4.23,5.08c-.57,1.7,1.41,5.65-.85,7.62s-2.82,2-2.26,4.24-.89,3.43-2.3,5.41-1.42,4.23-1.42,6.77-.56,2.82-2,4.24-2.82,2.54-2,4.51,2.26,1.64.85,4.52a58.55,58.55,0,0,0-2.54,6.26s-3.11-3.39-7.34-2.54c-.28,0-3.62-3.72-8.47-6.83,0-.28-5.13-4-5.13-4l-6.2-2s-2-1.13-4.8,1.12c-.85.85-4.8,3.39-7.62,1.7-1.41-.57-4.29-3.11-8,0,0,.28-2.82,1.69-2.82,1.69l-2-2.26.28-5.92L180.38,293s-.56-1.69,1.69-2c.29,0,4-.85,4-.85l.29-2.54-1.7-2.59-.84-2.82,1.13-5.93,2.82-3.39s1.41-1.69-1.13-5.92c.28-.28-2.26-4.52-2.26-4.52l1.13-6s0-2.83-1.69-4c0,.57-3.39-2.54-4.52-5.36a18.26,18.26,0,0,0-.56-2.54l-3.11-3.95v-2.82l2.54-2.59.85-3.11-1.13-3.38s-1.69-3.95-.28-6.21c.28,0,1.41-3.11,1.41-3.11a31.24,31.24,0,0,0-2.54-7.67c.28,0-1.13-3.95-1.13-3.95l-2.82-3.95-.85-8.18s-.56-4.24,7.34-5.65c6.21-1.13,18.39-4.28,18.39-4.28l7.62,1.18,4.24.28s1.64-2,5.08,0c3.43,2.26,6,3.67,6,3.67l2.26,2.54,7.62,1.41Z"/><g class="cls-5"><path class="cls-2" d="M400.88,97.81a10.61,10.61,0,0,0,4.19-.43c2.14-.64,9.28-2.73,9.28-2.73s-.58,7.67,2.51,11.74,4.37,6.09,4.37,6.09,1.29,5.79,4.07,8.79a101.34,101.34,0,0,1,7.28,9.87,11.23,11.23,0,0,1,0,8.65c-1.07,3.22-1.84,14.37,6,21.27,5.9,7.11,12.12,13.12,12.76,17.4s1.93,9.95-.43,12.52-7.29,10.83-7.61,14.21-4.69,12.89-6,14.82-6.75,9.7-3.7,16c.27,0,.91,3.13.7,5.48s.43,3.65.86,5.79,1.93,4.51-.22,7.51-2.14,5.06-.21,7.5,5.79,6.73,4.5,10.16.34,6.86,2.36,9.86,5.78,7.93,11.18,7.44c.27.37,6.48-2.63,5.63,7.23a11.12,11.12,0,0,0,4.93,9.64c1.71,1.51,3.43,3.22,3.43,3.22a7.86,7.86,0,0,0,7.8,7.37l5.79-.21v1.72s.64,3.43,1.28,6.21,0,6.43,2.36,8.79,6.65,5.23,4.29,7.16c-.43.65-3.21,2.58-3.21,6.65.42,3.64,2.78,11.88,1.28,17.45a19.17,19.17,0,0,1-3.21,8.79c-1.29,2.57-3.22,6-2.79,8.79.21,1.93.64,3.94-2.79,6.73-3,2.79-5.87,5.15-12.09,5.15-3,.64-6.22-.43-7.07,8.57-1.08,4.5-3.52,9.95,6,16.38,2.79,1.93,8.44,4.5,8.87,11.58.22,3-.21,6.51-1.71,8.44s-3.09,5.79-10.16,6.65c-3,.21-9-.6-12.42,4.2-1.73,1.59-10,6.3-10.82,6.52s-5.15,2-3.86,7.8a12.7,12.7,0,0,1-3.22,11.15c-3,3.22-4.5,4.29-4.93,5.57s-1.07,3.43-2.14,4.08-1.72,2-1.07,4.16,1.72,6.07-1.18,8.5c-.75.93-.75,4.79.1,7.79s.05,3.47-.83,4.63-4.4.3-5.9-2.49-6.56-9.22-15-7.29c0,.22-5.36,1.38-5.36,1.38l-7.16-4.81a41.72,41.72,0,0,0-6.86-4.07,39.41,39.41,0,0,1-6-2.79c-1.71-1.07-4.93-2.44-6.43-3.94a24.74,24.74,0,0,1-3.08-4.29l-.43-4.93s.94-3.22,2.23-1.93a23.29,23.29,0,0,1,3.85,6.22,6.53,6.53,0,0,0,3.65,3.86c1.71.64,5.14,4.07,7.93,1.07s3.86-3.65,5.79-3.86,2.36-.64,2.36-.64,3.51-1.5,4.8.43.43,3,2.36,4.07,4.5.73,6.43,2.44,5.57,5.58,6.22,7.29,2.36,2.57,2.36,1.07.42-3.64-1.93-5.36-4.29-3.94-4.29-5.44.64.64,1.07-2.36-.43-2.79-1.29-4.72-1.28-4.07-.42-4.5-.43-1.28,1.71-2.57,3-2.36,3.43-.64-.43,3.43.43,3.43-.27,2.13,1.22,2.34,3.26-.85,4.75-.42,3.4,3,4,0-.85-6,.21-7.66,2.13.85,3-1.7,1.92-4.75.85-5.39-1.06-1.06-1.06,0,.64,3.9-.64,4.54-2.13-.43-3,1.49.64,6.8-.63,7-1.56-.85-3.26-.43-1.92,1.7-2.77,0-.85-1.7-.21-3,1.27-2.12,0-3.4-1.28-.85-2.13-1.49.21-.42-1.91,1.07-2.77,2.76-4.68,2.34-.85-.43-3.41.21-2.34-1.07-4.25,1.06-2.55,1.07-1.92,3,2.13,1.91,1.71,3-1.07,1.7-2.13.64-1.28-1.07-1.7-3.41-1.07-4-.22-4.89,3.41-1.49,5.32-1.49,4,.21,4.9-.21,4-1.7,4-1.7a8.34,8.34,0,0,0,1.27-4.33c.22-3-.64-4.89,1.49-5.31s1.49-.64,3.19.21,3.05-.85,4.54,0,1.49,2.55,3,1.49,1.7-2.13,3.4-3.83,2.13-3,3.83-3.4,1.27-.64,3-1.28a8.92,8.92,0,0,1,5.31,0c1.07.42.79.42,3.83,0s5.81-1.7,5.6-2.34-.14-1.06-2.13,0-.49,1.28-4.11.64-3.61-2.56-1.91-2.77,4.25-.64,3.4-1.91-1.06-2.34-1.91-1.07-.64,1.07-2.55,2.34.21,2.56-2.77,1.28-4-1.91-3-2.55,3.83.42,3-1.07-2.34.64-3.83-1.06-1.91-3.4-2.12-2.13,1.91,3.83.85,4-1.92-.43-5.53-.64-4.4-.43-5.53.64-2,.63-2.84,1.7.43,1.27-1.49,1.91-2.34-.42-3.19-.85-2.55.21-2.34-1.49.21-1.27,1.49-3,3-4.11,3-5.6-.43-4,.42-4.46,3.69-.85,4.54.42a38,38,0,0,1,2.13,4.26s1.49,1.06,1.27-.85a7.76,7.76,0,0,0-1.7-4.47c-1.27-1.92-2-1.92-3.26-2.13s-3.4-.85-3.83-1.91-.42-2.77-1.27-2.77-1.28,1.07-1.07,1.92a12.77,12.77,0,0,0,1.28,3.19c.64,1.06,1.28,2.12.85,3.4s-.64,1.7-1.06,2.77.85,1.77-.43,2.83-2.76,1.28-3.19,2.13,1.06,2.76-1.28,3.4-2.76.43-4,0-1.91-1.06-2.76-.21-4,1.49-4.68-.43a3.54,3.54,0,0,1,.85-3.4s1.28.36.64-2.2-1.7-5.1-.22-4.89,4.9.64,4.9-1.06-.64-3.19.64-3.62.63-.21,1.27-1.28,1.28-1.27.43-2.33-.64-3.41-1.7-4.26-3-2.13-2.77-3.19,0-1.28-.64-2.13-.42-1.2-1.49-1.49-1.49-2-2.12-1.13c0,0-3.83-.92-4.24-2.67a3.13,3.13,0,0,0-2.39-1.9c-2.06-1.47-3.27-1.74-2.86-7.13.4-5,.13-9.94-2.43-13.71-.94-1.21-2.16-3.1-4-1.48a12.41,12.41,0,0,0-1.49,1.21s-6.83,1.79-6.64-.86c-.09-2.64-.24-18.89,1-24.43l19.14-1.63s2.13.13,2.26-2.83c.4-2.83,1.08-6.74,1.08-6.74l1.21-3.31s-.13-.46-1.21-1.14c-1.59-2.15-2.26-2.26-2.4-11.15,0,0,1.22-5.52.68-7.68s-2.16-7.28-7.68-7.95l-3.64-.41-17.49-.13-7.28.34s-3.77-1.55-5.39-3.44c.14.13-6-5.22-9.8-5.49a39.05,39.05,0,0,0-6.2.27,4.15,4.15,0,0,0-2,.94s1.88-3.1,1.48-4-2.43-1.76-3.23-5.12-1.08-4.72.4-7.69,1.89-4.07,1.75-5.52-.94-4.28,1.21-6,3.24-3,3.37-4.45.41-5.53-.4-6.74-1.58-3.12,0-5.87a7.71,7.71,0,0,1,2.81-1.94c1.08-.41,2.43-.92,1.48-3.34-.54-1.08-1.88-3.51-1.08-5.39a15.66,15.66,0,0,0,1.72-2.7l-1.18-3.37-.4-2.83,1.58-1.61.41-2.29s4-4.82,3.5-9.81c.14.13-.54-3.64-.54-3.64s.69-3.11,1-5.13a16.64,16.64,0,0,0-.14-4.71c-.13-1.07-.67-2.29.27-3.5s3.67-3.89,3.67-3.89a1.86,1.86,0,0,1,2.13-.39,3.21,3.21,0,0,0,2.56-.14l1.48-2.56v-3.56s.26-1.56,1.34-1.83c-.14.14.94-.27-.14-2.15s-3.51-3.73-3.57-7.19-1.55-12.32-1.55-12.32.4-3.77.94-4.72.41-2.56.81-3.5a5.15,5.15,0,0,1,2.29-3c1.49-.81,5-2.83,4.72-4.71s-1.35-5.77-.54-7.11,1.21-5.53,1.21-8.49-.67-8,1.22-11.19,3.25-6,3.25-6a7.6,7.6,0,0,1,3.45-3.54c1.08-1.07,3.14-3.1,3.66-5.73s3.75-8.41,4.43-9.63,1.88-3.74,3.64-4.28l1.67-1,.89-.71,5.05-1.19s1.69.11,1.82-2c.14-.14-.44-3,2.12-3C393.05,101.5,402.37,100.73,400.88,97.81Z"/><path class="cls-2" d="M400.88,97.81a10.61,10.61,0,0,0,4.19-.43c2.14-.64,9.28-2.73,9.28-2.73s-.58,7.67,2.51,11.74,4.37,6.09,4.37,6.09,1.29,5.79,4.07,8.79a101.34,101.34,0,0,1,7.28,9.87,11.23,11.23,0,0,1,0,8.65c-1.07,3.22-1.84,14.37,6,21.27,5.9,7.11,12.12,13.12,12.76,17.4s1.93,9.95-.43,12.52-7.29,10.83-7.61,14.21-4.69,12.89-6,14.82-6.75,9.7-3.7,16c.27,0,.91,3.13.7,5.48s.43,3.65.86,5.79,1.93,4.51-.22,7.51-2.14,5.06-.21,7.5,5.79,6.73,4.5,10.16.34,6.86,2.36,9.86,5.78,7.93,11.18,7.44c.27.37,6.48-2.63,5.63,7.23a11.12,11.12,0,0,0,4.93,9.64c1.71,1.51,3.43,3.22,3.43,3.22a7.86,7.86,0,0,0,7.8,7.37l5.79-.21v1.72s.64,3.43,1.28,6.21,0,6.43,2.36,8.79,6.65,5.23,4.29,7.16c-.43.65-3.21,2.58-3.21,6.65.42,3.64,2.78,11.88,1.28,17.45a19.17,19.17,0,0,1-3.21,8.79c-1.29,2.57-3.22,6-2.79,8.79.21,1.93.64,3.94-2.79,6.73-3,2.79-5.87,5.15-12.09,5.15-3,.64-6.22-.43-7.07,8.57-1.08,4.5-3.52,9.95,6,16.38,2.79,1.93,8.44,4.5,8.87,11.58.22,3-.21,6.51-1.71,8.44s-3.09,5.79-10.16,6.65c-3,.21-9-.6-12.42,4.2-1.73,1.59-10,6.3-10.82,6.52s-5.15,2-3.86,7.8a12.7,12.7,0,0,1-3.22,11.15c-3,3.22-4.5,4.29-4.93,5.57s-1.07,3.43-2.14,4.08-1.72,2-1.07,4.16,1.72,6.07-1.18,8.5c-.75.93-.75,4.79.1,7.79s.05,3.47-.83,4.63-4.4.3-5.9-2.49-6.56-9.22-15-7.29c0,.22-5.36,1.38-5.36,1.38l-7.16-4.81a41.72,41.72,0,0,0-6.86-4.07,39.41,39.41,0,0,1-6-2.79c-1.71-1.07-4.93-2.44-6.43-3.94a24.74,24.74,0,0,1-3.08-4.29l-.43-4.93s.94-3.22,2.23-1.93a23.29,23.29,0,0,1,3.85,6.22,6.53,6.53,0,0,0,3.65,3.86c1.71.64,5.14,4.07,7.93,1.07s3.86-3.65,5.79-3.86,2.36-.64,2.36-.64,3.51-1.5,4.8.43.43,3,2.36,4.07,4.5.73,6.43,2.44,5.57,5.58,6.22,7.29,2.36,2.57,2.36,1.07.42-3.64-1.93-5.36-4.29-3.94-4.29-5.44.64.64,1.07-2.36-.43-2.79-1.29-4.72-1.28-4.07-.42-4.5-.43-1.28,1.71-2.57,3-2.36,3.43-.64-.43,3.43.43,3.43-.27,2.13,1.22,2.34,3.26-.85,4.75-.42,3.4,3,4,0-.85-6,.21-7.66,2.13.85,3-1.7,1.92-4.75.85-5.39-1.06-1.06-1.06,0,.64,3.9-.64,4.54-2.13-.43-3,1.49.64,6.8-.63,7-1.56-.85-3.26-.43-1.92,1.7-2.77,0-.85-1.7-.21-3,1.27-2.12,0-3.4-1.28-.85-2.13-1.49.21-.42-1.91,1.07-2.77,2.76-4.68,2.34-.85-.43-3.41.21-2.34-1.07-4.25,1.06-2.55,1.07-1.92,3,2.13,1.91,1.71,3-1.07,1.7-2.13.64-1.28-1.07-1.7-3.41-1.07-4-.22-4.89,3.41-1.49,5.32-1.49,4,.21,4.9-.21,4-1.7,4-1.7a8.34,8.34,0,0,0,1.27-4.33c.22-3-.64-4.89,1.49-5.31s1.49-.64,3.19.21,3.05-.85,4.54,0,1.49,2.55,3,1.49,1.7-2.13,3.4-3.83,2.13-3,3.83-3.4,1.27-.64,3-1.28a8.92,8.92,0,0,1,5.31,0c1.07.42.79.42,3.83,0s5.81-1.7,5.6-2.34-.14-1.06-2.13,0-.49,1.28-4.11.64-3.61-2.56-1.91-2.77,4.25-.64,3.4-1.91-1.06-2.34-1.91-1.07-.64,1.07-2.55,2.34.21,2.56-2.77,1.28-4-1.91-3-2.55,3.83.42,3-1.07-2.34.64-3.83-1.06-1.91-3.4-2.12-2.13,1.91,3.83.85,4-1.92-.43-5.53-.64-4.4-.43-5.53.64-2,.63-2.84,1.7.43,1.27-1.49,1.91-2.34-.42-3.19-.85-2.55.21-2.34-1.49.21-1.27,1.49-3,3-4.11,3-5.6-.43-4,.42-4.46,3.69-.85,4.54.42a38,38,0,0,1,2.13,4.26s1.49,1.06,1.27-.85a7.76,7.76,0,0,0-1.7-4.47c-1.27-1.92-2-1.92-3.26-2.13s-3.4-.85-3.83-1.91-.42-2.77-1.27-2.77-1.28,1.07-1.07,1.92a12.77,12.77,0,0,0,1.28,3.19c.64,1.06,1.28,2.12.85,3.4s-.64,1.7-1.06,2.77.85,1.77-.43,2.83-2.76,1.28-3.19,2.13,1.06,2.76-1.28,3.4-2.76.43-4,0-1.91-1.06-2.76-.21-4,1.49-4.68-.43a3.54,3.54,0,0,1,.85-3.4s1.28.36.64-2.2-1.7-5.1-.22-4.89,4.9.64,4.9-1.06-.64-3.19.64-3.62.63-.21,1.27-1.28,1.28-1.27.43-2.33-.64-3.41-1.7-4.26-3-2.13-2.77-3.19,0-1.28-.64-2.13-.42-1.2-1.49-1.49-1.49-2-2.12-1.13c0,0-3.83-.92-4.24-2.67a3.13,3.13,0,0,0-2.39-1.9c-2.06-1.47-3.27-1.74-2.86-7.13.4-5,.13-9.94-2.43-13.71-.94-1.21-2.16-3.1-4-1.48a12.41,12.41,0,0,0-1.49,1.21s-6.83,1.79-6.64-.86c-.09-2.64-.24-18.89,1-24.43l19.14-1.63s2.13.13,2.26-2.83c.4-2.83,1.08-6.74,1.08-6.74l1.21-3.31s-.13-.46-1.21-1.14c-1.59-2.15-2.26-2.26-2.4-11.15,0,0,1.22-5.52.68-7.68s-2.16-7.28-7.68-7.95l-3.64-.41-17.49-.13-7.28.34s-3.77-1.55-5.39-3.44c.14.13-6-5.22-9.8-5.49a39.05,39.05,0,0,0-6.2.27,4.15,4.15,0,0,0-2,.94s1.88-3.1,1.48-4-2.43-1.76-3.23-5.12-1.08-4.72.4-7.69,1.89-4.07,1.75-5.52-.94-4.28,1.21-6,3.24-3,3.37-4.45.41-5.53-.4-6.74-1.58-3.12,0-5.87a7.71,7.71,0,0,1,2.81-1.94c1.08-.41,2.43-.92,1.48-3.34-.54-1.08-1.88-3.51-1.08-5.39a15.66,15.66,0,0,0,1.72-2.7l-1.18-3.37-.4-2.83,1.58-1.61.41-2.29s4-4.82,3.5-9.81c.14.13-.54-3.64-.54-3.64s.69-3.11,1-5.13a16.64,16.64,0,0,0-.14-4.71c-.13-1.07-.67-2.29.27-3.5s3.67-3.89,3.67-3.89a1.86,1.86,0,0,1,2.13-.39,3.21,3.21,0,0,0,2.56-.14l1.48-2.56v-3.56s.26-1.56,1.34-1.83c-.14.14.94-.27-.14-2.15s-3.51-3.73-3.57-7.19-1.55-12.32-1.55-12.32.4-3.77.94-4.72.41-2.56.81-3.5a5.15,5.15,0,0,1,2.29-3c1.49-.81,5-2.83,4.72-4.71s-1.35-5.77-.54-7.11,1.21-5.53,1.21-8.49-.67-8,1.22-11.19,3.25-6,3.25-6a7.6,7.6,0,0,1,3.45-3.54c1.08-1.07,3.14-3.1,3.66-5.73s3.75-8.41,4.43-9.63,1.88-3.74,3.64-4.28l1.67-1,.89-.71,5.05-1.19s1.69.11,1.82-2c.14-.14-.44-3,2.12-3C393.05,101.5,402.37,100.73,400.88,97.81Z"/></g><path class="cls-6" d="M232.69,193.14s2.26,2.54,1.41,5.36-2.25,3.1-3.1,5.64-.28,2.83-3.67,4-5.93.29-7.06,1.42-4.56,2.87-5.13,5.41-1.17,2.82.57,5.36.9,4.23,6,5.93,8.18,4.23,11.57,6.21,5.69,1.69,8.51,3.1,3.11,2.59,5.93,4.28,5.36,2.26,6.49,3.39,1.13.85,1.41,2.82a15.34,15.34,0,0,1-1.13,7.06c-.84,2,1.13,6.16,0,7.9s-1.69.9-2.25,2.59,0,2.82-2,3.95a10.35,10.35,0,0,0-4.23,5.08c-.57,1.7,1.41,5.65-.85,7.62s-2.82,2-2.26,4.24-.89,3.43-2.3,5.41-1.42,4.23-1.42,6.77-.56,2.82-2,4.24-2.82,2.54-2,4.51,2.26,1.64.85,4.52a58.55,58.55,0,0,0-2.54,6.26s-3.11-3.39-7.34-2.54c-.28,0-3.62-3.72-8.47-6.83,0-.28-5.13-4-5.13-4l-6.2-2s-2-1.13-4.8,1.12c-.85.85-4.8,3.39-7.62,1.7-1.41-.57-4.29-3.11-8,0,0,.28-2.82,1.69-2.82,1.69l-2-2.26.28-5.92L180.38,293s-.56-1.69,1.69-2c.29,0,4-.85,4-.85l.29-2.54-1.7-2.59-.84-2.82,1.13-5.93,2.82-3.39s1.41-1.69-1.13-5.92c.28-.28-2.26-4.52-2.26-4.52l1.13-6s0-2.83-1.69-4c0,.57-3.39-2.54-4.52-5.36a18.26,18.26,0,0,0-.56-2.54l-3.11-3.95v-2.82l2.54-2.59.85-3.11-1.13-3.38s-1.69-3.95-.28-6.21c.28,0,1.41-3.11,1.41-3.11a31.24,31.24,0,0,0-2.54-7.67c.28,0-1.13-3.95-1.13-3.95l-2.82-3.95-.85-8.18s-.56-4.24,7.34-5.65c6.21-1.13,18.39-4.28,18.39-4.28l7.62,1.18,4.24.28s1.64-2,5.08,0c3.43,2.26,6,3.67,6,3.67l2.26,2.54,7.62,1.41Z"/><path class="cls-2" d="M355.09,86.87s9.17-.32,11.79,1.11,2.14,4,6.89,5,15.2,2.85,16.39,3.32a51.16,51.16,0,0,0,9.49,1.19c2.14,0,1.66,1.67.71,2.38s-1.9.47-4.75,1.19-4.26.23-4.73,1.66.95,3.33-1.91,3.8-5,.72-5.94,1.9-2.13.73-3.56,2.62a52.51,52.51,0,0,0-3.56,6.39c-1.19,2.14-2.38,4-2.62,5.94s-1.19,3.09-2.85,5-3.54,2.14-4.26,4.28-4.51,6.87-4.27,9-.24,5.94-.24,9.74-1.67,8.54-1.19,10.68,1.66,4.51-1,5.94-5.47,3.56-5.47,5.7-2.37,5.23-1.66,8.32.71,8.53,1.43,11.62,3.8,6.89,4.27,8.32-1.66.47-1.9,2.85.48,4.28-1.19,5.7-3.32-.45-5,1-4.75,4-4.27,5.92a18.24,18.24,0,0,1,.47,6.18c-.23,1.9-1.42,3.33-.71,5.94a13,13,0,0,1-.48,8.06c-.95,1.9-2.85,4.52-2.85,5.94s-2.71,1.64-1.92,4.46,2.5,3.92,1.41,5-2.2,2.82-1.73,4.7,2.82,4.18,1.1,5.59-3,0-4.07,2.35-1.41,2.5-.63,4.85,1.57,1.88,1.1,5.8.47,2.66-1.88,4.86-3.45,3.34-3,5.48A7.42,7.42,0,0,1,332,292a19,19,0,0,0-2,6,12,12,0,0,0,.94,5.17c.62,1.41,3.29,3.14,3.13,5s-1.57,1.93-2,4.07a7.72,7.72,0,0,1-1.25,3.08s.31,3.44-4.86,3.76-11.06-.32-13.88.62a21.6,21.6,0,0,1-9.41.79c-2.66-.47-3.13-2.2-5.17-3.61s-1.93-2.6-4.85-5.42-2-4.08-4.33-5-4.23-2.66-4.08-3.76,2.2,1.41,3-1.25a17.16,17.16,0,0,0,.94-7.21c-.16-3.45-1.57-4-1.88-5.8a18.5,18.5,0,0,1,.31-7.62,13.73,13.73,0,0,0-.15-6.26s.47-3.61,2-5a71.71,71.71,0,0,0,7.15-8.4c1.1-1.72,1.41-2,3.14-2.19a8.78,8.78,0,0,0,5.17-2.67c1.25-1.41,3.6-2.5,4.7-3.91s1.57-2.67,3.76-1.73,3.86,2,5.74,2.82,2,3.76,4.07,2a9.22,9.22,0,0,0,3.29-4.54c.32-1.26-.31-2.67-.47-5.17s.94-2.51-1.56-4.08-4.55-4-4.23-5.43a4.63,4.63,0,0,0-.94-4.23c-1.1-1.09-1.41-5.79.31-6.73a30.65,30.65,0,0,0,5.64-4.55c.63-.78.69-1.74,1.28-5.87s.59-4.33,0-5.9-2-1.57-.79-3.93,2.56-4.92,2.95-6.88.2-3.94.59-7.08,1.38-6.89,2.56-8.26,3.34-5.51,5.11-7.08,3.93-1.38,3.73-3.74-1.18-2.16-2.16-3.54-1.57-3.14-3.34-2a23.62,23.62,0,0,0-5.11,4.52c-.79,1.18-1.58,2.95-2.36,3.34s-2.76,2-2.56,2.95,1,4.72,0,5.31-1.77,1-2.75.2-2.56,0-2.36-2.56,0-4.72-1.18-5.5a31.87,31.87,0,0,1-3.54-3.35s-1.18-3.54-.39-4.52,2-3,3.34-5.11a32.38,32.38,0,0,0,3.34-7.28c.39-1.57,0-4.52,1.77-8.25s3.34-4.92,5.31-9.25,4.52-9.24,6.29-11,7.08-8.45,7.87-8.85,5.11-1.77,5.11-1.77l3.93-4.52,1.18-3s-1.37-3,2.36-5.31c0,.4,4.13-3.73,4.13-3.73a16.24,16.24,0,0,0-.2-4.13C358.23,94.54,355.09,86.87,355.09,86.87Z"/><path class="cls-2" d="M355.09,86.87s9.17-.32,11.79,1.11,2.14,4,6.89,5,15.2,2.85,16.39,3.32a51.16,51.16,0,0,0,9.49,1.19c2.14,0,1.66,1.67.71,2.38s-1.9.47-4.75,1.19-4.26.23-4.73,1.66.95,3.33-1.91,3.8-5,.72-5.94,1.9-2.13.73-3.56,2.62a52.51,52.51,0,0,0-3.56,6.39c-1.19,2.14-2.38,4-2.62,5.94s-1.19,3.09-2.85,5-3.54,2.14-4.26,4.28-4.51,6.87-4.27,9-.24,5.94-.24,9.74-1.67,8.54-1.19,10.68,1.66,4.51-1,5.94-5.47,3.56-5.47,5.7-2.37,5.23-1.66,8.32.71,8.53,1.43,11.62,3.8,6.89,4.27,8.32-1.66.47-1.9,2.85.48,4.28-1.19,5.7-3.32-.45-5,1-4.75,4-4.27,5.92a18.24,18.24,0,0,1,.47,6.18c-.23,1.9-1.42,3.33-.71,5.94a13,13,0,0,1-.48,8.06c-.95,1.9-2.85,4.52-2.85,5.94s-2.71,1.64-1.92,4.46,2.5,3.92,1.41,5-2.2,2.82-1.73,4.7,2.82,4.18,1.1,5.59-3,0-4.07,2.35-1.41,2.5-.63,4.85,1.57,1.88,1.1,5.8.47,2.66-1.88,4.86-3.45,3.34-3,5.48A7.42,7.42,0,0,1,332,292a19,19,0,0,0-2,6,12,12,0,0,0,.94,5.17c.62,1.41,3.29,3.14,3.13,5s-1.57,1.93-2,4.07a7.72,7.72,0,0,1-1.25,3.08s.31,3.44-4.86,3.76-11.06-.32-13.88.62a21.6,21.6,0,0,1-9.41.79c-2.66-.47-3.13-2.2-5.17-3.61s-1.93-2.6-4.85-5.42-2-4.08-4.33-5-4.23-2.66-4.08-3.76,2.2,1.41,3-1.25a17.16,17.16,0,0,0,.94-7.21c-.16-3.45-1.57-4-1.88-5.8a18.5,18.5,0,0,1,.31-7.62,13.73,13.73,0,0,0-.15-6.26s.47-3.61,2-5a71.71,71.71,0,0,0,7.15-8.4c1.1-1.72,1.41-2,3.14-2.19a8.78,8.78,0,0,0,5.17-2.67c1.25-1.41,3.6-2.5,4.7-3.91s1.57-2.67,3.76-1.73,3.86,2,5.74,2.82,2,3.76,4.07,2a9.22,9.22,0,0,0,3.29-4.54c.32-1.26-.31-2.67-.47-5.17s.94-2.51-1.56-4.08-4.55-4-4.23-5.43a4.63,4.63,0,0,0-.94-4.23c-1.1-1.09-1.41-5.79.31-6.73a30.65,30.65,0,0,0,5.64-4.55c.63-.78.69-1.74,1.28-5.87s.59-4.33,0-5.9-2-1.57-.79-3.93,2.56-4.92,2.95-6.88.2-3.94.59-7.08,1.38-6.89,2.56-8.26,3.34-5.51,5.11-7.08,3.93-1.38,3.73-3.74-1.18-2.16-2.16-3.54-1.57-3.14-3.34-2a23.62,23.62,0,0,0-5.11,4.52c-.79,1.18-1.58,2.95-2.36,3.34s-2.76,2-2.56,2.95,1,4.72,0,5.31-1.77,1-2.75.2-2.56,0-2.36-2.56,0-4.72-1.18-5.5a31.87,31.87,0,0,1-3.54-3.35s-1.18-3.54-.39-4.52,2-3,3.34-5.11a32.38,32.38,0,0,0,3.34-7.28c.39-1.57,0-4.52,1.77-8.25s3.34-4.92,5.31-9.25,4.52-9.24,6.29-11,7.08-8.45,7.87-8.85,5.11-1.77,5.11-1.77l3.93-4.52,1.18-3s-1.37-3,2.36-5.31c0,.4,4.13-3.73,4.13-3.73a16.24,16.24,0,0,0-.2-4.13C358.23,94.54,355.09,86.87,355.09,86.87Z"/><path class="cls-2" d="M297,259.37a16.11,16.11,0,0,1,0-5.34c.5-2.84-.17-5.52,0-9.19s.17-7.13.17-9.64-.17-7.51,1.33-9.52,1.84-2.17,2.34-5.68,0-6.29,1.67-8.79-.17-3.68,2.67-6.85,5-5.68,6.69-7.35.72-2,3.5-2.84,3.29.83,4.29-1.34a17.35,17.35,0,0,0,1.34-5.35,33.32,33.32,0,0,0,.32-4.65l1.18.7s1.84,0,2-2.5c0,.16-.34-2.51-.34-2.51s-1.34-1.5,1.67-3.34a60.09,60.09,0,0,1,3.68-4.85l5.34-4s1.15,0,2.58,2.15c.6,0,3.44,2.87,1.6,5.37,0,.34-3.68.84-5.85,5.68-1.17,1.84-5,4.79-5,12.64-.17,2.67-.5,8.19-2.51,11-.33,0-1.67,2.34-1.5,3.51a8.25,8.25,0,0,1,1.67,6c-.5,3.18-1.17,6.35-1.17,6.35a8.85,8.85,0,0,1-2.17,3.51,23.67,23.67,0,0,1-3.17,2.34s-2.84.5-1.51,5.84c0,.17,1.34,3.35,1.34,3.35l-.17,3.28s2.84,4.34,6,5.51c0,.34.16,5.35.16,5.35l.25,2.76-2.59,3.92s-1.83,3-3.84-.5l-6.29-3.17s-2-1-2.67-.34-2,2.84-3.68,4-3.17,2.17-4,2.67-1.5,1.67-2.67,1.84A12.51,12.51,0,0,1,297,259.37Z"/><path class="cls-2" d="M297,259.37a16.11,16.11,0,0,1,0-5.34c.5-2.84-.17-5.52,0-9.19s.17-7.13.17-9.64-.17-7.51,1.33-9.52,1.84-2.17,2.34-5.68,0-6.29,1.67-8.79-.17-3.68,2.67-6.85,5-5.68,6.69-7.35.72-2,3.5-2.84,3.29.83,4.29-1.34a17.35,17.35,0,0,0,1.34-5.35,33.32,33.32,0,0,0,.32-4.65l1.18.7s1.84,0,2-2.5c0,.16-.34-2.51-.34-2.51s-1.34-1.5,1.67-3.34a60.09,60.09,0,0,1,3.68-4.85l5.34-4s1.15,0,2.58,2.15c.6,0,3.44,2.87,1.6,5.37,0,.34-3.68.84-5.85,5.68-1.17,1.84-5,4.79-5,12.64-.17,2.67-.5,8.19-2.51,11-.33,0-1.67,2.34-1.5,3.51a8.25,8.25,0,0,1,1.67,6c-.5,3.18-1.17,6.35-1.17,6.35a8.85,8.85,0,0,1-2.17,3.51,23.67,23.67,0,0,1-3.17,2.34s-2.84.5-1.51,5.84c0,.17,1.34,3.35,1.34,3.35l-.17,3.28s2.84,4.34,6,5.51c0,.34.16,5.35.16,5.35l.25,2.76-2.59,3.92s-1.83,3-3.84-.5l-6.29-3.17s-2-1-2.67-.34-2,2.84-3.68,4-3.17,2.17-4,2.67-1.5,1.67-2.67,1.84A12.51,12.51,0,0,1,297,259.37Z"/><path class="cls-2" d="M301,320.22s-.59,3.59.78,5.16,2,2,2.16,4.72-.78,2.56,1,4.53,2.75,4.52,2.36,6.29-1.38,3.54,1.18,6.29,2,3.54,2,5.9a35,35,0,0,1-1.37,7.67c-.59,2.36-4.13,3-6.1,2.55s-2.75-1-3.14.79,0,3.54-.2,6.49.2,5.31-1.38,5.31-1.18-.59-4.52,0-3.15-.59-5.51.39-7.27,2.75-7.66.59,1.77-1-.59-3.34-2.56-5.31-4.33-6.49a15.55,15.55,0,0,1-4.72-6.1,55.08,55.08,0,0,0-2.75-6.48,15.12,15.12,0,0,0-6.1-7.08c-3.14-2.17-6.68-4.92-9.83-6.3s-6.09-4.12-6.88-3.14-2,3.34-1.57,4.91-1.38,9.05,0,11.8,3.73,4.92,4.32,8.26,1.77,4.52,2.75,6.29a29.21,29.21,0,0,1,2.76,7.08,18.63,18.63,0,0,1-.2,9.83c-1.18,3.74-1.18,7.28-1.77,9.64s-.79,7.27.79,8.26c0,0,2.5,1.94,2.24,4.33s.26,4-1.06,4.79,1.06,1.36-1.59.53-2.12-2.15-4.76-2.94-3.15-1.33-5-.53-2.41,1.32-5.59.79-4-1.32-6.88-4.23-1.06-5.56-4.5-6.35-3.17-1.06-5.55-.8a5.27,5.27,0,0,1-5.33-2.11c-1.58-1.85-1.58-2.12-4-1.59s-1.85,2.12-1.85,2.12.8-.8,2.38,0a6.4,6.4,0,0,1,2.91,2.38c1.06,1.32,4.27,1.32,4.53,2.64s-1.09,1.59-2.94,1.59-3.7-.53-5,0-5,1.85-2.64,2.38,5.79-.53,7.41-.53,5.85-.53,6.64.53a65.42,65.42,0,0,0,5.83,6.09c1.32,1.09,4.49,3.47,7.4,3.74s7.18.52,10.36,2.11,6.61,2.65,8.2,2.65-.27.79,2.64,2.91,4.47,2.38,8.21,2.38,2.41-1.06,4.53,1.06,1.58,2.64,5,2.91,10.59,3.47,9.79,10.61c-3.17,0-21.46-8.49-26.75-10.88s-21.73-9.26-25.7-10.58-6.85-4.73-13.23-6.61-7.44-2.15-10.62-3.74a39.93,39.93,0,0,0-5.82-2.38l-2.64-2.1,7.05-12.7,2-6.54,2-1.41.57-12.7L194,371.57s-3.39.51-.21-2.4c3.17-3.17,8.88-9.25,25.09-14.3-.19-.28,3.51-1.87,4.57-7.42,1.06-4,2.21-7.54,2.21-7.54s6.06-11.28,7.62-14.72c.23-.27-.29-8.19-.29-8.19l3.69-9.31s-3.4-3.62-.7-5.87a19.75,19.75,0,0,0,2.54-2.4,17.87,17.87,0,0,0,.75-5.1,6.73,6.73,0,0,1,1.93-5.55,4.42,4.42,0,0,0,1.72-4.32c-.37-1.35-.52-2.4,1.28-3.45s2.1-2.85,1.8-5.4a7.84,7.84,0,0,1,4.26-8.09c.09-.31,1.44-.62,1.74-3,.3.45-.15-1.64,1.2-2.38s1.8-1.8,1.35-4.5-.75-4.35.45-7,1.5-6.45-2.4-8.54-4.8-2-7.65-4.35A16.89,16.89,0,0,0,237,234c-3-.75-7.64-3.75-9.59-5.1a30.64,30.64,0,0,0-5.72-2.65c-1.78-.8-3.74-1.1-4.92-3.8a49.84,49.84,0,0,0-2.24-4.49l.9-4.2,5.68-4.93,4.2-.3,4.95-1.65,1.35-4.35.9-1.05a5.91,5.91,0,0,0,.18-8.3c0,.06,2.07-.11,1.32-3.84l.09-1.24a18.63,18.63,0,0,0,1.26-7c.15-.15,1.85-4.92,1.85-4.92s1.44-1.67-2.15-4.52c0,.15-2.85-2.25-2.85-2.25l-.36-2.26.93.37,4.72-5.5s-2.44-1-3-6.09c0-.15-.3-4.64-1.5-6.74s-2.25-2.85-.9-4.95,2.25-3.58,1.8-9.28c.15-.3-.29-6.76-.29-6.76a3.38,3.38,0,0,0,2.39-1c.89-1,1.79-2.55,2.69-3s1.65-.75,1.65-.75l.35-1.12,6.38-1.73s5-5,13.68-.24c10,4.29,23.5,9.24,30.38,6.54,5.68-2.1,16.45-8.7,28.3-8.85s16.79.72,22.33-.84c-4.94,5.49-10.34,10.91-12.29,16a51,51,0,0,1-5.84,10.33,30.12,30.12,0,0,0-3.15,9.9,28,28,0,0,1-4,9.12,41.26,41.26,0,0,0-2.61,4.42s-1,3.08.66,5,4.33,3.6,4.33,4.95-.6,4.94,1.65,5.84c-.15.15.83.11.83.11a39.81,39.81,0,0,1-.53,6c-.45,1.8-.75,4.5-1.65,4.8a26.81,26.81,0,0,1-3.77.52s-1.46-.07-3.11,2.33-5.1,5.24-6.15,6.89-2.25,2.7-2.55,4.35a19.33,19.33,0,0,1-1.05,3.47,11.68,11.68,0,0,0-1.19,4.31c0,1.95-.6,7-1.65,8.54s-2.7,5.1-2.4,7.2-.45,6.13-.3,9.28.15,6.89.3,9.59a20.07,20.07,0,0,1-.3,4.8l0,4.44s-3.46,3.94-5.71,6.78-5.25,5.1-4.65,9.75a14.61,14.61,0,0,1-.3,6.15,10.26,10.26,0,0,0,.6,8.07c.9,1.8,1.8,6.9.75,9.6l-1.2,3.15-2.32-.19s-.53.79,1.72,2.59c1.5.9,2.72.75,4.35,3.14s5.08,6.88,6.28,7.78S301,320.22,301,320.22Z"/><path class="cls-2" d="M301,320.22s-.59,3.59.78,5.16,2,2,2.16,4.72-.78,2.56,1,4.53,2.75,4.52,2.36,6.29-1.38,3.54,1.18,6.29,2,3.54,2,5.9a35,35,0,0,1-1.37,7.67c-.59,2.36-4.13,3-6.1,2.55s-2.75-1-3.14.79,0,3.54-.2,6.49.2,5.31-1.38,5.31-1.18-.59-4.52,0-3.15-.59-5.51.39-7.27,2.75-7.66.59,1.77-1-.59-3.34-2.56-5.31-4.33-6.49a15.55,15.55,0,0,1-4.72-6.1,55.08,55.08,0,0,0-2.75-6.48,15.12,15.12,0,0,0-6.1-7.08c-3.14-2.17-6.68-4.92-9.83-6.3s-6.09-4.12-6.88-3.14-2,3.34-1.57,4.91-1.38,9.05,0,11.8,3.73,4.92,4.32,8.26,1.77,4.52,2.75,6.29a29.21,29.21,0,0,1,2.76,7.08,18.63,18.63,0,0,1-.2,9.83c-1.18,3.74-1.18,7.28-1.77,9.64s-.79,7.27.79,8.26c0,0,2.5,1.94,2.24,4.33s.26,4-1.06,4.79,1.06,1.36-1.59.53-2.12-2.15-4.76-2.94-3.15-1.33-5-.53-2.41,1.32-5.59.79-4-1.32-6.88-4.23-1.06-5.56-4.5-6.35-3.17-1.06-5.55-.8a5.27,5.27,0,0,1-5.33-2.11c-1.58-1.85-1.58-2.12-4-1.59s-1.85,2.12-1.85,2.12.8-.8,2.38,0a6.4,6.4,0,0,1,2.91,2.38c1.06,1.32,4.27,1.32,4.53,2.64s-1.09,1.59-2.94,1.59-3.7-.53-5,0-5,1.85-2.64,2.38,5.79-.53,7.41-.53,5.85-.53,6.64.53a65.42,65.42,0,0,0,5.83,6.09c1.32,1.09,4.49,3.47,7.4,3.74s7.18.52,10.36,2.11,6.61,2.65,8.2,2.65-.27.79,2.64,2.91,4.47,2.38,8.21,2.38,2.41-1.06,4.53,1.06,1.58,2.64,5,2.91,10.59,3.47,9.79,10.61c-3.17,0-21.46-8.49-26.75-10.88s-21.73-9.26-25.7-10.58-6.85-4.73-13.23-6.61-7.44-2.15-10.62-3.74a39.93,39.93,0,0,0-5.82-2.38l-2.64-2.1,7.05-12.7,2-6.54,2-1.41.57-12.7L194,371.57s-3.39.51-.21-2.4c3.17-3.17,8.88-9.25,25.09-14.3-.19-.28,3.51-1.87,4.57-7.42,1.06-4,2.21-7.54,2.21-7.54s6.06-11.28,7.62-14.72c.23-.27-.29-8.19-.29-8.19l3.69-9.31s-3.4-3.62-.7-5.87a19.75,19.75,0,0,0,2.54-2.4,17.87,17.87,0,0,0,.75-5.1,6.73,6.73,0,0,1,1.93-5.55,4.42,4.42,0,0,0,1.72-4.32c-.37-1.35-.52-2.4,1.28-3.45s2.1-2.85,1.8-5.4a7.84,7.84,0,0,1,4.26-8.09c.09-.31,1.44-.62,1.74-3,.3.45-.15-1.64,1.2-2.38s1.8-1.8,1.35-4.5-.75-4.35.45-7,1.5-6.45-2.4-8.54-4.8-2-7.65-4.35A16.89,16.89,0,0,0,237,234c-3-.75-7.64-3.75-9.59-5.1a30.64,30.64,0,0,0-5.72-2.65c-1.78-.8-3.74-1.1-4.92-3.8a49.84,49.84,0,0,0-2.24-4.49l.9-4.2,5.68-4.93,4.2-.3,4.95-1.65,1.35-4.35.9-1.05a5.91,5.91,0,0,0,.18-8.3c0,.06,2.07-.11,1.32-3.84l.09-1.24a18.63,18.63,0,0,0,1.26-7c.15-.15,1.85-4.92,1.85-4.92s1.44-1.67-2.15-4.52c0,.15-2.85-2.25-2.85-2.25l-.36-2.26.93.37,4.72-5.5s-2.44-1-3-6.09c0-.15-.3-4.64-1.5-6.74s-2.25-2.85-.9-4.95,2.25-3.58,1.8-9.28c.15-.3-.29-6.76-.29-6.76a3.38,3.38,0,0,0,2.39-1c.89-1,1.79-2.55,2.69-3s1.65-.75,1.65-.75l.35-1.12,6.38-1.73s5-5,13.68-.24c10,4.29,23.5,9.24,30.38,6.54,5.68-2.1,16.45-8.7,28.3-8.85s16.79.72,22.33-.84c-4.94,5.49-10.34,10.91-12.29,16a51,51,0,0,1-5.84,10.33,30.12,30.12,0,0,0-3.15,9.9,28,28,0,0,1-4,9.12,41.26,41.26,0,0,0-2.61,4.42s-1,3.08.66,5,4.33,3.6,4.33,4.95-.6,4.94,1.65,5.84c-.15.15.83.11.83.11a39.81,39.81,0,0,1-.53,6c-.45,1.8-.75,4.5-1.65,4.8a26.81,26.81,0,0,1-3.77.52s-1.46-.07-3.11,2.33-5.1,5.24-6.15,6.89-2.25,2.7-2.55,4.35a19.33,19.33,0,0,1-1.05,3.47,11.68,11.68,0,0,0-1.19,4.31c0,1.95-.6,7-1.65,8.54s-2.7,5.1-2.4,7.2-.45,6.13-.3,9.28.15,6.89.3,9.59a20.07,20.07,0,0,1-.3,4.8l0,4.44s-3.46,3.94-5.71,6.78-5.25,5.1-4.65,9.75a14.61,14.61,0,0,1-.3,6.15,10.26,10.26,0,0,0,.6,8.07c.9,1.8,1.8,6.9.75,9.6l-1.2,3.15-2.32-.19s-.53.79,1.72,2.59c1.5.9,2.72.75,4.35,3.14s5.08,6.88,6.28,7.78S301,320.22,301,320.22Z"/><path class="cls-2" d="M255.65,420c.69,1.79.81,4.35,2.75,4.16a44.14,44.14,0,0,1,5.13-.31c3.57,0,5.94,2.06,9.2.62-1.78-2.91-5.05-1.87-8.42-2S259.14,419.54,255.65,420Z"/><path class="cls-2" d="M255.65,420c.69,1.79.81,4.35,2.75,4.16a44.14,44.14,0,0,1,5.13-.31c3.57,0,5.94,2.06,9.2.62-1.78-2.91-5.05-1.87-8.42-2S259.14,419.54,255.65,420Z"/><path class="cls-2" d="M245.67,415.6c.28.58.16,1.09.62,1.55.7.7,2.06-.12,2.33-1.09.2-.62-.46-1-.77-1.55-.39-.7,0-1.24,0-2.06-1.67-.11-4.31-.7-4.16,1C243.77,414.55,244.66,416,245.67,415.6Z"/><path class="cls-2" d="M245.67,415.6c.28.58.16,1.09.62,1.55.7.7,2.06-.12,2.33-1.09.2-.62-.46-1-.77-1.55-.39-.7,0-1.24,0-2.06-1.67-.11-4.31-.7-4.16,1C243.77,414.55,244.66,416,245.67,415.6Z"/><path class="cls-2" d="M394.26,412.39a1.69,1.69,0,0,0,.81,2.41c.85.43,2.55,1.28,2.55,2.13a10.56,10.56,0,0,0,.64,2.55A14.54,14.54,0,0,1,400.6,422a18.59,18.59,0,0,0,1.06,2.13s.85.64-.21,1.06a2.53,2.53,0,0,1-3.19-1.06c-.85-1.28-1.49-2.55-2.77-2.13s-.57,0-2.34,0a23,23,0,0,0-4.11.64c-1.49.21-1.27-.64-2.55-.21s-1.49,1.27-2.55,1.27a5.88,5.88,0,0,1-1.7-.21s-2.77-2.13-2.77-.64-.85,3.83,1.28,3a11.76,11.76,0,0,1,4.68-1.06,8.12,8.12,0,0,0,2.34-.21,5.48,5.48,0,0,1,3.4-.22,31.86,31.86,0,0,0,4.53.85,1.68,1.68,0,0,1,1.49,2.34,3.9,3.9,0,0,1-2.34,1.7,6.87,6.87,0,0,0-.21,2.34c0,1.92-.85,3.41-.64,4.68s2.13,3.05.22,3.69a21.56,21.56,0,0,1-4.11.85,9.07,9.07,0,0,0-4.9-3.47c-3-.64-4-2.13-5.53-3.41s-1.91,0-2.76-2.12-1.92-4.47-2.77-2.56-1.27,3-3.19,1.92-3.4-4.26-3.19-5.74,1.21-3.41-1.34-3.83-5.11-.22-5.11-1.7a12.45,12.45,0,0,0-.85-3.62L359,413a2,2,0,0,1,1.92.49c.85.86,1.48,2.34,3.19,2.34a4.46,4.46,0,0,0,2.83-1.06s.21-.85,2.34-.85.07-1.35-1.7-2.2a22.05,22.05,0,0,1-3.9-2.55c-1.49-1.06-1.7-.85-2.55-1.91s-.85-2.13-1.92-1.7-1.49,0-2.55,1.06.43,2.55-3.19,1.06-2.13-2.55-4.68-2.55-2.91,1.28-6.81-.43-1.34-2.76-6.23-3-4.26.42-7.66-.85-4.25-2.13-5.53-2.13-4.61-1.28-5.53.21.78,1.7-1.77,2.34-4,0-4.26,1.28-1.06,2.55-.21,3.83,2.77,3.82.85,4.89-2.12,1-3,1.91-3.19,2.13-4,0-1.7-1.91-.85-2.76,1.92-1.07,1.49-2.34-1.49-1.7-1.49-.85-.21,2.34-1.06,2.76-2.34,3-4,1.28a29.51,29.51,0,0,1-3.62-4.26c-1.06-1.48-3.19-3.19-1.28-3.82s2.13-.64,3-1.28a7.4,7.4,0,0,1,2.77-1.7c1.06-.22,1.91-1.28,1.27-1.49s-2.55.42-4.25.64-1,.85-3.4.21a16.86,16.86,0,0,0-3.9-.64s-3-.21-4.26-1.7-.63-3.62-1.48-3.83-2.56,1.7-2.56,3.62.22,1.49-1.49,1.91-1.06.64-2.34,1.92-2.34.21-2.76,1.91-1.92.64-.85,3,2.76,4.68,4.25,5.32,3,1.13,3.19,2.62,4.68,3.61,3.83,4.89-.21,2.55-3,1.28-1.06.63-3.4-1.49-2.34-2.77-4-1.49,1.28,2.12-2.77,1.49-3.61.49-4.25-2.34a22.63,22.63,0,0,0-.85-3.26s.64-2.13,1.06-3.62.92-2.34-.85-1.91-2.83-.22-3,1.06a9.35,9.35,0,0,0,.63,4.68c.64,1.56,1.28,4.11.85,5.17a2.16,2.16,0,0,1-3,1.07,11.11,11.11,0,0,0-3.19-1.49c-1.49-.43-1.71.85-3.2-1.07a15.94,15.94,0,0,1-2.12-3.55,5,5,0,0,0,1.06-3.11c0-1.91,0-3.4-1.7-5.32s-1.81-3.45-1.33-9a86.87,86.87,0,0,1,2.61-13s1.3-4.86-3.4-13.53a14.85,14.85,0,0,1-2.75-6.29s0-1.74-3-6c0,0-2.55-4.89-1.92-7.44s1.07-3.62.86-4.68-.76-3.82.22-5.05.74-2.46,3.2-1.23,13.69,7.38,17,10.82a8.9,8.9,0,0,1,3.73,5.12c1,3.24,4.08,10.52,7.47,12.58a23.58,23.58,0,0,1,3.15,5l2.21,2.71s-1.23,3.19.74,3.19,6.48-1.67,6.48-1.67l6.88-.29s4.18,1,4.43-2c.24-1.48,0-8.36,0-8.36s0-3.44,2.7-2.46c1,.49,7.13.41,7.13-4.51,1-3.69,2.9-8-.88-11.51-.1-.3-2.8-2.76-1.57-5.22.73-1.72,1.72-.82-.5-5.49-2-2-2.95-2.21-2.7-5.16-.49-3.45-.64-3.79-1.92-6a8.77,8.77,0,0,1-.78-5.16s5.16,1.28,7.37.54,4.34-1.72,8.12-1.47,11.15-.25,11.15-.25,2,0,3.19-3c.25-1.48,1.48-5.5,2.71-5.74s5.82-1,8.11,0,6.24,2.3,8,4.26,4.67,3.94,6.15,4.18a68.82,68.82,0,0,0,7.87-.24h15.82c2.46,0,8.12,1,9.1,2.21s3.69,4.92,3.44,7.62-.74,5.66-.74,7.38.09,7.22,1.07,8.69,2.46,1.48,2.46,2.46-1.47,2.95-1.47,4.92-.74,4.18-.74,5.66-.58,1.72-1.56,2.21-19.92,1.72-19.92,1.72-1.72,23.2-1,24.43,1.47,1,3.19,1.23a13.22,13.22,0,0,0,3.94-.24s1.47-3.2,3.44-1.48a8.71,8.71,0,0,1,2.46,3,24.78,24.78,0,0,1,1.72,6.64c.25,3.19,0,9.34,0,9.34s.49,3.2,2.71,3.44,2.37,2.46,3.68,3.2Z"/><path class="cls-2" d="M394.26,412.39a1.69,1.69,0,0,0,.81,2.41c.85.43,2.55,1.28,2.55,2.13a10.56,10.56,0,0,0,.64,2.55A14.54,14.54,0,0,1,400.6,422a18.59,18.59,0,0,0,1.06,2.13s.85.64-.21,1.06a2.53,2.53,0,0,1-3.19-1.06c-.85-1.28-1.49-2.55-2.77-2.13s-.57,0-2.34,0a23,23,0,0,0-4.11.64c-1.49.21-1.27-.64-2.55-.21s-1.49,1.27-2.55,1.27a5.88,5.88,0,0,1-1.7-.21s-2.77-2.13-2.77-.64-.85,3.83,1.28,3a11.76,11.76,0,0,1,4.68-1.06,8.12,8.12,0,0,0,2.34-.21,5.48,5.48,0,0,1,3.4-.22,31.86,31.86,0,0,0,4.53.85,1.68,1.68,0,0,1,1.49,2.34,3.9,3.9,0,0,1-2.34,1.7,6.87,6.87,0,0,0-.21,2.34c0,1.92-.85,3.41-.64,4.68s2.13,3.05.22,3.69a21.56,21.56,0,0,1-4.11.85,9.07,9.07,0,0,0-4.9-3.47c-3-.64-4-2.13-5.53-3.41s-1.91,0-2.76-2.12-1.92-4.47-2.77-2.56-1.27,3-3.19,1.92-3.4-4.26-3.19-5.74,1.21-3.41-1.34-3.83-5.11-.22-5.11-1.7a12.45,12.45,0,0,0-.85-3.62L359,413a2,2,0,0,1,1.92.49c.85.86,1.48,2.34,3.19,2.34a4.46,4.46,0,0,0,2.83-1.06s.21-.85,2.34-.85.07-1.35-1.7-2.2a22.05,22.05,0,0,1-3.9-2.55c-1.49-1.06-1.7-.85-2.55-1.91s-.85-2.13-1.92-1.7-1.49,0-2.55,1.06.43,2.55-3.19,1.06-2.13-2.55-4.68-2.55-2.91,1.28-6.81-.43-1.34-2.76-6.23-3-4.26.42-7.66-.85-4.25-2.13-5.53-2.13-4.61-1.28-5.53.21.78,1.7-1.77,2.34-4,0-4.26,1.28-1.06,2.55-.21,3.83,2.77,3.82.85,4.89-2.12,1-3,1.91-3.19,2.13-4,0-1.7-1.91-.85-2.76,1.92-1.07,1.49-2.34-1.49-1.7-1.49-.85-.21,2.34-1.06,2.76-2.34,3-4,1.28a29.51,29.51,0,0,1-3.62-4.26c-1.06-1.48-3.19-3.19-1.28-3.82s2.13-.64,3-1.28a7.4,7.4,0,0,1,2.77-1.7c1.06-.22,1.91-1.28,1.27-1.49s-2.55.42-4.25.64-1,.85-3.4.21a16.86,16.86,0,0,0-3.9-.64s-3-.21-4.26-1.7-.63-3.62-1.48-3.83-2.56,1.7-2.56,3.62.22,1.49-1.49,1.91-1.06.64-2.34,1.92-2.34.21-2.76,1.91-1.92.64-.85,3,2.76,4.68,4.25,5.32,3,1.13,3.19,2.62,4.68,3.61,3.83,4.89-.21,2.55-3,1.28-1.06.63-3.4-1.49-2.34-2.77-4-1.49,1.28,2.12-2.77,1.49-3.61.49-4.25-2.34a22.63,22.63,0,0,0-.85-3.26s.64-2.13,1.06-3.62.92-2.34-.85-1.91-2.83-.22-3,1.06a9.35,9.35,0,0,0,.63,4.68c.64,1.56,1.28,4.11.85,5.17a2.16,2.16,0,0,1-3,1.07,11.11,11.11,0,0,0-3.19-1.49c-1.49-.43-1.71.85-3.2-1.07a15.94,15.94,0,0,1-2.12-3.55,5,5,0,0,0,1.06-3.11c0-1.91,0-3.4-1.7-5.32s-1.81-3.45-1.33-9a86.87,86.87,0,0,1,2.61-13s1.3-4.86-3.4-13.53a14.85,14.85,0,0,1-2.75-6.29s0-1.74-3-6c0,0-2.55-4.89-1.92-7.44s1.07-3.62.86-4.68-.76-3.82.22-5.05.74-2.46,3.2-1.23,13.69,7.38,17,10.82a8.9,8.9,0,0,1,3.73,5.12c1,3.24,4.08,10.52,7.47,12.58a23.58,23.58,0,0,1,3.15,5l2.21,2.71s-1.23,3.19.74,3.19,6.48-1.67,6.48-1.67l6.88-.29s4.18,1,4.43-2c.24-1.48,0-8.36,0-8.36s0-3.44,2.7-2.46c1,.49,7.13.41,7.13-4.51,1-3.69,2.9-8-.88-11.51-.1-.3-2.8-2.76-1.57-5.22.73-1.72,1.72-.82-.5-5.49-2-2-2.95-2.21-2.7-5.16-.49-3.45-.64-3.79-1.92-6a8.77,8.77,0,0,1-.78-5.16s5.16,1.28,7.37.54,4.34-1.72,8.12-1.47,11.15-.25,11.15-.25,2,0,3.19-3c.25-1.48,1.48-5.5,2.71-5.74s5.82-1,8.11,0,6.24,2.3,8,4.26,4.67,3.94,6.15,4.18a68.82,68.82,0,0,0,7.87-.24h15.82c2.46,0,8.12,1,9.1,2.21s3.69,4.92,3.44,7.62-.74,5.66-.74,7.38.09,7.22,1.07,8.69,2.46,1.48,2.46,2.46-1.47,2.95-1.47,4.92-.74,4.18-.74,5.66-.58,1.72-1.56,2.21-19.92,1.72-19.92,1.72-1.72,23.2-1,24.43,1.47,1,3.19,1.23a13.22,13.22,0,0,0,3.94-.24s1.47-3.2,3.44-1.48a8.71,8.71,0,0,1,2.46,3,24.78,24.78,0,0,1,1.72,6.64c.25,3.19,0,9.34,0,9.34s.49,3.2,2.71,3.44,2.37,2.46,3.68,3.2Z"/><path class="cls-2" d="M327.5,405.27c-2.62-.9-3.52-2.86-6.13-3.51-2.37-.58-3.6,1.55-5.56,2.86-2.29,1.55.49,4.41,0,7.11-.33,1.63-1.56,2.29-2.95,3.27.17,3.68,2.63,6,3.78,9.47.49,1.47-.09,2.95,1,3.93,2,1.88,4.41,1.79,6.54,3.59,3.59,3.11,5.39,5.64,9.81,7.2,2.78,1,4.17,2.61,7.19,2.94,2.37.25,3.84-3.11,5.89-2,1.22.65,1.06,2.12,2.29,2.94,5.64,3.76,8.25,6.95,14.71,9.48,1.72-2.45-1.8-6,.66-7.52,2.29-1.47,4.41-.32,7.19-.32a16.14,16.14,0,0,1-.65,6.54c2.29.81,3.43-2.21,5.88-2.29,2.78-.08,2.91,4,3.65,6.61.41,3.51,1.63,6.46,4.82,7.76.33-2.12-.73-4.33,1-5.56.82-.57,1.56,1.07,2.29,1.64,1,.82,2.21-.41,3.27-1,2.21-1.31,6-.9,6.54,1.63-3.84,1.56-6.37,3.27-7.85,7.2,2.87-2.86,6.05-2.05,10.14-2.29,1.72-.08,3.27,0,4.25-1.31,1.47-2,.08-4.17-.65-6.54,3.27-1.31,4.17-5.72,2.29-8.66-1.07-1.72-3.11-1.56-5.23-1.64s-3.52.65-5.56,0-2.46-3.19-4.58-3.92c-1.56-.49-3,.16-4.25-1-.82-.74-.41-2-1.31-2.62-1.55-1.15-3.6-.16-5.15-1.31-1.88-1.39-2.54-3.27-4.83-3.92-4.57-1.31-10.53-1.22-10.86-6,0-4.5-5.23-5.23-6.78-9.4-1.47-4-1.88-9.16-6.22-9.16-4.66,0-7.11-2-11.77-2.61S331.42,407.89,327.5,405.27Z"/><path class="cls-2" d="M327.5,405.27c-2.62-.9-3.52-2.86-6.13-3.51-2.37-.58-3.6,1.55-5.56,2.86-2.29,1.55.49,4.41,0,7.11-.33,1.63-1.56,2.29-2.95,3.27.17,3.68,2.63,6,3.78,9.47.49,1.47-.09,2.95,1,3.93,2,1.88,4.41,1.79,6.54,3.59,3.59,3.11,5.39,5.64,9.81,7.2,2.78,1,4.17,2.61,7.19,2.94,2.37.25,3.84-3.11,5.89-2,1.22.65,1.06,2.12,2.29,2.94,5.64,3.76,8.25,6.95,14.71,9.48,1.72-2.45-1.8-6,.66-7.52,2.29-1.47,4.41-.32,7.19-.32a16.14,16.14,0,0,1-.65,6.54c2.29.81,3.43-2.21,5.88-2.29,2.78-.08,2.91,4,3.65,6.61.41,3.51,1.63,6.46,4.82,7.76.33-2.12-.73-4.33,1-5.56.82-.57,1.56,1.07,2.29,1.64,1,.82,2.21-.41,3.27-1,2.21-1.31,6-.9,6.54,1.63-3.84,1.56-6.37,3.27-7.85,7.2,2.87-2.86,6.05-2.05,10.14-2.29,1.72-.08,3.27,0,4.25-1.31,1.47-2,.08-4.17-.65-6.54,3.27-1.31,4.17-5.72,2.29-8.66-1.07-1.72-3.11-1.56-5.23-1.64s-3.52.65-5.56,0-2.46-3.19-4.58-3.92c-1.56-.49-3,.16-4.25-1-.82-.74-.41-2-1.31-2.62-1.55-1.15-3.6-.16-5.15-1.31-1.88-1.39-2.54-3.27-4.83-3.92-4.57-1.31-10.53-1.22-10.86-6,0-4.5-5.23-5.23-6.78-9.4-1.47-4-1.88-9.16-6.22-9.16-4.66,0-7.11-2-11.77-2.61S331.42,407.89,327.5,405.27Z"/><path class="cls-2" d="M291.14,419.58c1,2.2-1.88,3.76-1.63,6.21a24.45,24.45,0,0,1,6.86-1.31c2.13-.16,3.11-1.71,5.23-1.63.82,0,.82,2.2,1.31,1.63,1.15-1.31.66-2.61,1-4.25a8.85,8.85,0,0,0,2.62-1.63c-1.14-1.48-4.66-1.88-4.91,0-1.38.57-3.92,1.88-3.92.32,1-1.71,3.11-2.61,2.62-4.57-.25-1-1.88,0-2.62-.66-1.55-1.39-2.12-2.7-3.27-4.41-2-2.95-3-6.22-6.54-6.22,0,4-3.19,5.73-3.51,9.73C284,416.55,288.52,422.19,291.14,419.58Z"/><path class="cls-2" d="M291.14,419.58c1,2.2-1.88,3.76-1.63,6.21a24.45,24.45,0,0,1,6.86-1.31c2.13-.16,3.11-1.71,5.23-1.63.82,0,.82,2.2,1.31,1.63,1.15-1.31.66-2.61,1-4.25a8.85,8.85,0,0,0,2.62-1.63c-1.14-1.48-4.66-1.88-4.91,0-1.38.57-3.92,1.88-3.92.32,1-1.71,3.11-2.61,2.62-4.57-.25-1-1.88,0-2.62-.66-1.55-1.39-2.12-2.7-3.27-4.41-2-2.95-3-6.22-6.54-6.22,0,4-3.19,5.73-3.51,9.73C284,416.55,288.52,422.19,291.14,419.58Z"/><path class="cls-2" d="M294.56,435.74c.33,4.66,5.89,5.81,5.89,10.47-4.58.73-5.72-4.66-8.18-8.51-1.88-2.94-5.31-2.29-8.83-2.29,0,3.68,2.62,6,5.89,7.53,4.66,2.12,47.25,28.36,59.35,32.86,3.93,1.47,6.63-.65,10.79-.65,0-3,.74-5.81-1.63-7.52-1.72-1.23-3.6,0-5.56-1-5.8-3-38.26-17.25-38.91-18.8-.82-2-4.42-2.37-6.71-6.21C304,437.13,299.8,435.33,294.56,435.74Z"/><path class="cls-2" d="M294.56,435.74c.33,4.66,5.89,5.81,5.89,10.47-4.58.73-5.72-4.66-8.18-8.51-1.88-2.94-5.31-2.29-8.83-2.29,0,3.68,2.62,6,5.89,7.53,4.66,2.12,47.25,28.36,59.35,32.86,3.93,1.47,6.63-.65,10.79-.65,0-3,.74-5.81-1.63-7.52-1.72-1.23-3.6,0-5.56-1-5.8-3-38.26-17.25-38.91-18.8-.82-2-4.42-2.37-6.71-6.21C304,437.13,299.8,435.33,294.56,435.74Z"/><path class="cls-2" d="M310.5,432.07c1.8,3.11,1.56,5.56,3.52,8.42,1.55,2.38,2.53,6.14,5.23,5.24,2.05-.66,2.29-2.62,3.6-4.25-.57-1.39-2-1.48-2.94-2.62C317,435.43,315,432.07,310.5,432.07Z"/><path class="cls-2" d="M310.5,432.07c1.8,3.11,1.56,5.56,3.52,8.42,1.55,2.38,2.53,6.14,5.23,5.24,2.05-.66,2.29-2.62,3.6-4.25-.57-1.39-2-1.48-2.94-2.62C317,435.43,315,432.07,310.5,432.07Z"/><path class="cls-2" d="M278.06,424.43c-.66.11-1.32,0-1.56.62-.77,1.9,1.64,2.83,2.57,4.66.66,1.28.85,2.41,2.17,3a1.78,1.78,0,0,0,2.33-1.4c2.45,0,3.77-1.2,6.22-.93.77.08,1.36-1.67.62-1.86-1.4-.39-2.64.27-3.57-.78s-2-1.24-3.11-2.18c-.58-.46-.39-1.39-1.09-1.7-1.4-.63-2.41-2.33-3.69-1.52A2.27,2.27,0,0,0,278.06,424.43Z"/><path class="cls-2" d="M278.06,424.43c-.66.11-1.32,0-1.56.62-.77,1.9,1.64,2.83,2.57,4.66.66,1.28.85,2.41,2.17,3a1.78,1.78,0,0,0,2.33-1.4c2.45,0,3.77-1.2,6.22-.93.77.08,1.36-1.67.62-1.86-1.4-.39-2.64.27-3.57-.78s-2-1.24-3.11-2.18c-.58-.46-.39-1.39-1.09-1.7-1.4-.63-2.41-2.33-3.69-1.52A2.27,2.27,0,0,0,278.06,424.43Z"/><path class="cls-2" d="M342,454.87c.59.39.55,1.21,1.25,1.25,4,.39,6.13,2.09,10.09,1.24,1.4-1-.27-3.15-1.71-4a4.52,4.52,0,0,0-4-.78c-.43.16-.63.63-1.09.63s-.55-.74-.93-1.09c-1.17-1.05-2.88,0-4.08-1.05C339.58,449.28,340.31,453.75,342,454.87Z"/><path class="cls-2" d="M342,454.87c.59.39.55,1.21,1.25,1.25,4,.39,6.13,2.09,10.09,1.24,1.4-1-.27-3.15-1.71-4a4.52,4.52,0,0,0-4-.78c-.43.16-.63.63-1.09.63s-.55-.74-.93-1.09c-1.17-1.05-2.88,0-4.08-1.05C339.58,449.28,340.31,453.75,342,454.87Z"/><path class="cls-2" d="M371.71,466.88c.35,1.56,1.32,2.18,2.45,3.23.5.46.19,1.28.77,1.71,1.17.85,2.95,0,3.42-1.4.27-.74,1.16-.7,1.4-1.4.39-1-.47-1.75-.62-2.87-.12-.74.42-1.29,0-1.87-.59-.77-1.52-.31-2.49-.31-.23.86-.08,1.56-.62,2.18s-1.52-.28-2.33,0S372.49,466.65,371.71,466.88Z"/><path class="cls-2" d="M371.71,466.88c.35,1.56,1.32,2.18,2.45,3.23.5.46.19,1.28.77,1.71,1.17.85,2.95,0,3.42-1.4.27-.74,1.16-.7,1.4-1.4.39-1-.47-1.75-.62-2.87-.12-.74.42-1.29,0-1.87-.59-.77-1.52-.31-2.49-.31-.23.86-.08,1.56-.62,2.18s-1.52-.28-2.33,0S372.49,466.65,371.71,466.88Z"/><path class="cls-2" d="M400.88,97.81a10.61,10.61,0,0,0,4.19-.43c2.14-.64,9.28-2.73,9.28-2.73s-.58,7.67,2.51,11.74,4.37,6.09,4.37,6.09,1.29,5.79,4.07,8.79a101.34,101.34,0,0,1,7.28,9.87,11.23,11.23,0,0,1,0,8.65c-1.07,3.22-1.84,14.37,6,21.27,5.9,7.11,12.12,13.12,12.76,17.4s1.93,9.95-.43,12.52-7.29,10.83-7.61,14.21-4.69,12.89-6,14.82-6.75,9.7-3.7,16c.27,0,.91,3.13.7,5.48s.43,3.65.86,5.79,1.93,4.51-.22,7.51-2.14,5.06-.21,7.5,5.79,6.73,4.5,10.16.34,6.86,2.36,9.86,5.78,7.93,11.18,7.44c.27.37,6.48-2.63,5.63,7.23a11.12,11.12,0,0,0,4.93,9.64c1.71,1.51,3.43,3.22,3.43,3.22a7.86,7.86,0,0,0,7.8,7.37l5.79-.21v1.72s.64,3.43,1.28,6.21,0,6.43,2.36,8.79,6.65,5.23,4.29,7.16c-.43.65-3.21,2.58-3.21,6.65.42,3.64,2.78,11.88,1.28,17.45a19.17,19.17,0,0,1-3.21,8.79c-1.29,2.57-3.22,6-2.79,8.79.21,1.93.64,3.94-2.79,6.73-3,2.79-5.87,5.15-12.09,5.15-3,.64-6.22-.43-7.07,8.57-1.08,4.5-3.52,9.95,6,16.38,2.79,1.93,8.44,4.5,8.87,11.58.22,3-.21,6.51-1.71,8.44s-3.09,5.79-10.16,6.65c-3,.21-9-.6-12.42,4.2-1.73,1.59-10,6.3-10.82,6.52s-5.15,2-3.86,7.8a12.7,12.7,0,0,1-3.22,11.15c-3,3.22-4.5,4.29-4.93,5.57s-1.07,3.43-2.14,4.08-1.72,2-1.07,4.16,1.72,6.07-1.18,8.5c-.75.93-.75,4.79.1,7.79s.05,3.47-.83,4.63-4.4.3-5.9-2.49-6.56-9.22-15-7.29c0,.22-5.36,1.38-5.36,1.38l-7.16-4.81a41.72,41.72,0,0,0-6.86-4.07,39.41,39.41,0,0,1-6-2.79c-1.71-1.07-4.93-2.44-6.43-3.94a24.74,24.74,0,0,1-3.08-4.29l-.43-4.93s.94-3.22,2.23-1.93a23.29,23.29,0,0,1,3.85,6.22,6.53,6.53,0,0,0,3.65,3.86c1.71.64,5.14,4.07,7.93,1.07s3.86-3.65,5.79-3.86,2.36-.64,2.36-.64,3.51-1.5,4.8.43.43,3,2.36,4.07,4.5.73,6.43,2.44,5.57,5.58,6.22,7.29,2.36,2.57,2.36,1.07.42-3.64-1.93-5.36-4.29-3.94-4.29-5.44.64.64,1.07-2.36-.43-2.79-1.29-4.72-1.28-4.07-.42-4.5-.43-1.28,1.71-2.57,3-2.36,3.43-.64-.43,3.43.43,3.43-.27,2.13,1.22,2.34,3.26-.85,4.75-.42,3.4,3,4,0-.85-6,.21-7.66,2.13.85,3-1.7,1.92-4.75.85-5.39-1.06-1.06-1.06,0,.64,3.9-.64,4.54-2.13-.43-3,1.49.64,6.8-.63,7-1.56-.85-3.26-.43-1.92,1.7-2.77,0-.85-1.7-.21-3,1.27-2.12,0-3.4-1.28-.85-2.13-1.49.21-.42-1.91,1.07-2.77,2.76-4.68,2.34-.85-.43-3.41.21-2.34-1.07-4.25,1.06-2.55,1.07-1.92,3,2.13,1.91,1.71,3-1.07,1.7-2.13.64-1.28-1.07-1.7-3.41-1.07-4-.22-4.89,3.41-1.49,5.32-1.49,4,.21,4.9-.21,4-1.7,4-1.7a8.34,8.34,0,0,0,1.27-4.33c.22-3-.64-4.89,1.49-5.31s1.49-.64,3.19.21,3.05-.85,4.54,0,1.49,2.55,3,1.49,1.7-2.13,3.4-3.83,2.13-3,3.83-3.4,1.27-.64,3-1.28a8.92,8.92,0,0,1,5.31,0c1.07.42.79.42,3.83,0s5.81-1.7,5.6-2.34-.14-1.06-2.13,0-.49,1.28-4.11.64-3.61-2.56-1.91-2.77,4.25-.64,3.4-1.91-1.06-2.34-1.91-1.07-.64,1.07-2.55,2.34.21,2.56-2.77,1.28-4-1.91-3-2.55,3.83.42,3-1.07-2.34.64-3.83-1.06-1.91-3.4-2.12-2.13,1.91,3.83.85,4-1.92-.43-5.53-.64-4.4-.43-5.53.64-2,.63-2.84,1.7.43,1.27-1.49,1.91-2.34-.42-3.19-.85-2.55.21-2.34-1.49.21-1.27,1.49-3,3-4.11,3-5.6-.43-4,.42-4.46,3.69-.85,4.54.42a38,38,0,0,1,2.13,4.26s1.49,1.06,1.27-.85a7.76,7.76,0,0,0-1.7-4.47c-1.27-1.92-2-1.92-3.26-2.13s-3.4-.85-3.83-1.91-.42-2.77-1.27-2.77-1.28,1.07-1.07,1.92a12.77,12.77,0,0,0,1.28,3.19c.64,1.06,1.28,2.12.85,3.4s-.64,1.7-1.06,2.77.85,1.77-.43,2.83-2.76,1.28-3.19,2.13,1.06,2.76-1.28,3.4-2.76.43-4,0-1.91-1.06-2.76-.21-4,1.49-4.68-.43a3.54,3.54,0,0,1,.85-3.4s1.28.36.64-2.2-1.7-5.1-.22-4.89,4.9.64,4.9-1.06-.64-3.19.64-3.62.63-.21,1.27-1.28,1.28-1.27.43-2.33-.64-3.41-1.7-4.26-3-2.13-2.77-3.19,0-1.28-.64-2.13-.42-1.2-1.49-1.49-1.49-2-2.12-1.13c0,0-3.83-.92-4.24-2.67a3.13,3.13,0,0,0-2.39-1.9c-2.06-1.47-3.27-1.74-2.86-7.13.4-5,.13-9.94-2.43-13.71-.94-1.21-2.16-3.1-4-1.48a12.41,12.41,0,0,0-1.49,1.21s-6.83,1.79-6.64-.86c-.09-2.64-.24-18.89,1-24.43l19.14-1.63s2.13.13,2.26-2.83c.4-2.83,1.08-6.74,1.08-6.74l1.21-3.31s-.13-.46-1.21-1.14c-1.59-2.15-2.26-2.26-2.4-11.15,0,0,1.22-5.52.68-7.68s-2.16-7.28-7.68-7.95l-3.64-.41-17.49-.13-7.28.34s-3.77-1.55-5.39-3.44c.14.13-6-5.22-9.8-5.49a39.05,39.05,0,0,0-6.2.27,4.15,4.15,0,0,0-2,.94s1.88-3.1,1.48-4-2.43-1.76-3.23-5.12-1.08-4.72.4-7.69,1.89-4.07,1.75-5.52-.94-4.28,1.21-6,3.24-3,3.37-4.45.41-5.53-.4-6.74-1.58-3.12,0-5.87a7.71,7.71,0,0,1,2.81-1.94c1.08-.41,2.43-.92,1.48-3.34-.54-1.08-1.88-3.51-1.08-5.39a15.66,15.66,0,0,0,1.72-2.7l-1.18-3.37-.4-2.83,1.58-1.61.41-2.29s4-4.82,3.5-9.81c.14.13-.54-3.64-.54-3.64s.69-3.11,1-5.13a16.64,16.64,0,0,0-.14-4.71c-.13-1.07-.67-2.29.27-3.5s3.67-3.89,3.67-3.89a1.86,1.86,0,0,1,2.13-.39,3.21,3.21,0,0,0,2.56-.14l1.48-2.56v-3.56s.26-1.56,1.34-1.83c-.14.14.94-.27-.14-2.15s-3.51-3.73-3.57-7.19-1.55-12.32-1.55-12.32.4-3.77.94-4.72.41-2.56.81-3.5a5.15,5.15,0,0,1,2.29-3c1.49-.81,5-2.83,4.72-4.71s-1.35-5.77-.54-7.11,1.21-5.53,1.21-8.49-.67-8,1.22-11.19,3.25-6,3.25-6a7.6,7.6,0,0,1,3.45-3.54c1.08-1.07,3.14-3.1,3.66-5.73s3.75-8.41,4.43-9.63,1.88-3.74,3.64-4.28l1.67-1,.89-.71,5.05-1.19s1.69.11,1.82-2c.14-.14-.44-3,2.12-3C393.05,101.5,402.37,100.73,400.88,97.81Z"/><path class="cls-2" d="M400.88,97.81a10.61,10.61,0,0,0,4.19-.43c2.14-.64,9.28-2.73,9.28-2.73s-.58,7.67,2.51,11.74,4.37,6.09,4.37,6.09,1.29,5.79,4.07,8.79a101.34,101.34,0,0,1,7.28,9.87,11.23,11.23,0,0,1,0,8.65c-1.07,3.22-1.84,14.37,6,21.27,5.9,7.11,12.12,13.12,12.76,17.4s1.93,9.95-.43,12.52-7.29,10.83-7.61,14.21-4.69,12.89-6,14.82-6.75,9.7-3.7,16c.27,0,.91,3.13.7,5.48s.43,3.65.86,5.79,1.93,4.51-.22,7.51-2.14,5.06-.21,7.5,5.79,6.73,4.5,10.16.34,6.86,2.36,9.86,5.78,7.93,11.18,7.44c.27.37,6.48-2.63,5.63,7.23a11.12,11.12,0,0,0,4.93,9.64c1.71,1.51,3.43,3.22,3.43,3.22a7.86,7.86,0,0,0,7.8,7.37l5.79-.21v1.72s.64,3.43,1.28,6.21,0,6.43,2.36,8.79,6.65,5.23,4.29,7.16c-.43.65-3.21,2.58-3.21,6.65.42,3.64,2.78,11.88,1.28,17.45a19.17,19.17,0,0,1-3.21,8.79c-1.29,2.57-3.22,6-2.79,8.79.21,1.93.64,3.94-2.79,6.73-3,2.79-5.87,5.15-12.09,5.15-3,.64-6.22-.43-7.07,8.57-1.08,4.5-3.52,9.95,6,16.38,2.79,1.93,8.44,4.5,8.87,11.58.22,3-.21,6.51-1.71,8.44s-3.09,5.79-10.16,6.65c-3,.21-9-.6-12.42,4.2-1.73,1.59-10,6.3-10.82,6.52s-5.15,2-3.86,7.8a12.7,12.7,0,0,1-3.22,11.15c-3,3.22-4.5,4.29-4.93,5.57s-1.07,3.43-2.14,4.08-1.72,2-1.07,4.16,1.72,6.07-1.18,8.5c-.75.93-.75,4.79.1,7.79s.05,3.47-.83,4.63-4.4.3-5.9-2.49-6.56-9.22-15-7.29c0,.22-5.36,1.38-5.36,1.38l-7.16-4.81a41.72,41.72,0,0,0-6.86-4.07,39.41,39.41,0,0,1-6-2.79c-1.71-1.07-4.93-2.44-6.43-3.94a24.74,24.74,0,0,1-3.08-4.29l-.43-4.93s.94-3.22,2.23-1.93a23.29,23.29,0,0,1,3.85,6.22,6.53,6.53,0,0,0,3.65,3.86c1.71.64,5.14,4.07,7.93,1.07s3.86-3.65,5.79-3.86,2.36-.64,2.36-.64,3.51-1.5,4.8.43.43,3,2.36,4.07,4.5.73,6.43,2.44,5.57,5.58,6.22,7.29,2.36,2.57,2.36,1.07.42-3.64-1.93-5.36-4.29-3.94-4.29-5.44.64.64,1.07-2.36-.43-2.79-1.29-4.72-1.28-4.07-.42-4.5-.43-1.28,1.71-2.57,3-2.36,3.43-.64-.43,3.43.43,3.43-.27,2.13,1.22,2.34,3.26-.85,4.75-.42,3.4,3,4,0-.85-6,.21-7.66,2.13.85,3-1.7,1.92-4.75.85-5.39-1.06-1.06-1.06,0,.64,3.9-.64,4.54-2.13-.43-3,1.49.64,6.8-.63,7-1.56-.85-3.26-.43-1.92,1.7-2.77,0-.85-1.7-.21-3,1.27-2.12,0-3.4-1.28-.85-2.13-1.49.21-.42-1.91,1.07-2.77,2.76-4.68,2.34-.85-.43-3.41.21-2.34-1.07-4.25,1.06-2.55,1.07-1.92,3,2.13,1.91,1.71,3-1.07,1.7-2.13.64-1.28-1.07-1.7-3.41-1.07-4-.22-4.89,3.41-1.49,5.32-1.49,4,.21,4.9-.21,4-1.7,4-1.7a8.34,8.34,0,0,0,1.27-4.33c.22-3-.64-4.89,1.49-5.31s1.49-.64,3.19.21,3.05-.85,4.54,0,1.49,2.55,3,1.49,1.7-2.13,3.4-3.83,2.13-3,3.83-3.4,1.27-.64,3-1.28a8.92,8.92,0,0,1,5.31,0c1.07.42.79.42,3.83,0s5.81-1.7,5.6-2.34-.14-1.06-2.13,0-.49,1.28-4.11.64-3.61-2.56-1.91-2.77,4.25-.64,3.4-1.91-1.06-2.34-1.91-1.07-.64,1.07-2.55,2.34.21,2.56-2.77,1.28-4-1.91-3-2.55,3.83.42,3-1.07-2.34.64-3.83-1.06-1.91-3.4-2.12-2.13,1.91,3.83.85,4-1.92-.43-5.53-.64-4.4-.43-5.53.64-2,.63-2.84,1.7.43,1.27-1.49,1.91-2.34-.42-3.19-.85-2.55.21-2.34-1.49.21-1.27,1.49-3,3-4.11,3-5.6-.43-4,.42-4.46,3.69-.85,4.54.42a38,38,0,0,1,2.13,4.26s1.49,1.06,1.27-.85a7.76,7.76,0,0,0-1.7-4.47c-1.27-1.92-2-1.92-3.26-2.13s-3.4-.85-3.83-1.91-.42-2.77-1.27-2.77-1.28,1.07-1.07,1.92a12.77,12.77,0,0,0,1.28,3.19c.64,1.06,1.28,2.12.85,3.4s-.64,1.7-1.06,2.77.85,1.77-.43,2.83-2.76,1.28-3.19,2.13,1.06,2.76-1.28,3.4-2.76.43-4,0-1.91-1.06-2.76-.21-4,1.49-4.68-.43a3.54,3.54,0,0,1,.85-3.4s1.28.36.64-2.2-1.7-5.1-.22-4.89,4.9.64,4.9-1.06-.64-3.19.64-3.62.63-.21,1.27-1.28,1.28-1.27.43-2.33-.64-3.41-1.7-4.26-3-2.13-2.77-3.19,0-1.28-.64-2.13-.42-1.2-1.49-1.49-1.49-2-2.12-1.13c0,0-3.83-.92-4.24-2.67a3.13,3.13,0,0,0-2.39-1.9c-2.06-1.47-3.27-1.74-2.86-7.13.4-5,.13-9.94-2.43-13.71-.94-1.21-2.16-3.1-4-1.48a12.41,12.41,0,0,0-1.49,1.21s-6.83,1.79-6.64-.86c-.09-2.64-.24-18.89,1-24.43l19.14-1.63s2.13.13,2.26-2.83c.4-2.83,1.08-6.74,1.08-6.74l1.21-3.31s-.13-.46-1.21-1.14c-1.59-2.15-2.26-2.26-2.4-11.15,0,0,1.22-5.52.68-7.68s-2.16-7.28-7.68-7.95l-3.64-.41-17.49-.13-7.28.34s-3.77-1.55-5.39-3.44c.14.13-6-5.22-9.8-5.49a39.05,39.05,0,0,0-6.2.27,4.15,4.15,0,0,0-2,.94s1.88-3.1,1.48-4-2.43-1.76-3.23-5.12-1.08-4.72.4-7.69,1.89-4.07,1.75-5.52-.94-4.28,1.21-6,3.24-3,3.37-4.45.41-5.53-.4-6.74-1.58-3.12,0-5.87a7.71,7.71,0,0,1,2.81-1.94c1.08-.41,2.43-.92,1.48-3.34-.54-1.08-1.88-3.51-1.08-5.39a15.66,15.66,0,0,0,1.72-2.7l-1.18-3.37-.4-2.83,1.58-1.61.41-2.29s4-4.82,3.5-9.81c.14.13-.54-3.64-.54-3.64s.69-3.11,1-5.13a16.64,16.64,0,0,0-.14-4.71c-.13-1.07-.67-2.29.27-3.5s3.67-3.89,3.67-3.89a1.86,1.86,0,0,1,2.13-.39,3.21,3.21,0,0,0,2.56-.14l1.48-2.56v-3.56s.26-1.56,1.34-1.83c-.14.14.94-.27-.14-2.15s-3.51-3.73-3.57-7.19-1.55-12.32-1.55-12.32.4-3.77.94-4.72.41-2.56.81-3.5a5.15,5.15,0,0,1,2.29-3c1.49-.81,5-2.83,4.72-4.71s-1.35-5.77-.54-7.11,1.21-5.53,1.21-8.49-.67-8,1.22-11.19,3.25-6,3.25-6a7.6,7.6,0,0,1,3.45-3.54c1.08-1.07,3.14-3.1,3.66-5.73s3.75-8.41,4.43-9.63,1.88-3.74,3.64-4.28l1.67-1,.89-.71,5.05-1.19s1.69.11,1.82-2c.14-.14-.44-3,2.12-3C393.05,101.5,402.37,100.73,400.88,97.81Z"/><path class="cls-2" d="M412.16,451.68c-.25,3.19,4.33,3.76,7.44,3.19,4.41-.9,6.78-2.94,9.81-6.37-1.8-4.66-8.83-3-13.08-.33C414.53,449.31,412.32,449.56,412.16,451.68Z"/><path class="cls-2" d="M412.16,451.68c-.25,3.19,4.33,3.76,7.44,3.19,4.41-.9,6.78-2.94,9.81-6.37-1.8-4.66-8.83-3-13.08-.33C414.53,449.31,412.32,449.56,412.16,451.68Z"/><path class="cls-2" d="M398.31,478.33c-.31,1.87-.85,3.34.23,4.82a5.8,5.8,0,0,0,2,2.49c1.79,1.24,3.54-.24,5.44-1.25.16-1.12-.62-1.71-.93-2.79-.35-1.29.62-2.49-.31-3.42-.47-.47-1.05,0-1.71,0-1.09-.2-1.44-1.48-2.49-1.32S399.17,477.79,398.31,478.33Z"/><path class="cls-2" d="M398.31,478.33c-.31,1.87-.85,3.34.23,4.82a5.8,5.8,0,0,0,2,2.49c1.79,1.24,3.54-.24,5.44-1.25.16-1.12-.62-1.71-.93-2.79-.35-1.29.62-2.49-.31-3.42-.47-.47-1.05,0-1.71,0-1.09-.2-1.44-1.48-2.49-1.32S399.17,477.79,398.31,478.33Z"/><path class="cls-7" d="M88.46,141.14c-3.31,2.49-3.14,4.2-3,6.49L40,172.68c-3-7.91,3.31-6,7.74-7.06,1.51-1,2.94-4.9,3.88-8.16a8.83,8.83,0,0,0-.53-2.16s.39-5.11.39-4.72c-2.36-3.54-2.75-9.83-2.73-10.38,4.73-4.48,2.26-10.32,2.26-10.32l-12.08-15.1-1.21-6.67s-3.15-2.36-2.85-2.54c-4.42,1.4-3.05-1.79-3.49-1.36.34-10.2-2.71-11.44-5.46-15.76.79-4.72-1.84-15-1.84-15s.66,0,2.23,1.18,11,1.58,11,1.58h7.07c1.58,0,5.51.39,7.87-.79s6.29-.79,5.79-1.46c3.42,2.47,5.61,1.07,5.61,1.07s1.58-2,3.95-4.35c4.74-1.58,11,5.53,12.84,6.3,2.23,2.73,4.06.8,4.06.8s-.4,7.86-.4,9.44-.39,13-.39,13a82.44,82.44,0,0,0,1.57,18.49c16.13,9,14.16,9.44,14.16,9.44s-.39,4.32-2.36,5.89S93.18,137.6,88.46,141.14Z"/><path class="cls-7" d="M88.46,141.14c-3.31,2.49-3.14,4.2-3,6.49L40,172.68c-3-7.91,3.31-6,7.74-7.06,1.51-1,2.94-4.9,3.88-8.16a8.83,8.83,0,0,0-.53-2.16s.39-5.11.39-4.72c-2.36-3.54-2.75-9.83-2.73-10.38,4.73-4.48,2.26-10.32,2.26-10.32l-12.08-15.1-1.21-6.67s-3.15-2.36-2.85-2.54c-4.42,1.4-3.05-1.79-3.49-1.36.34-10.2-2.71-11.44-5.46-15.76.79-4.72-1.84-15-1.84-15s.66,0,2.23,1.18,11,1.58,11,1.58h7.07c1.58,0,5.51.39,7.87-.79s6.29-.79,5.79-1.46c3.42,2.47,5.61,1.07,5.61,1.07s1.58-2,3.95-4.35c4.74-1.58,11,5.53,12.84,6.3,2.23,2.73,4.06.8,4.06.8s-.4,7.86-.4,9.44-.39,13-.39,13a82.44,82.44,0,0,0,1.57,18.49c16.13,9,14.16,9.44,14.16,9.44s-.39,4.32-2.36,5.89S93.18,137.6,88.46,141.14Z"/><path class="cls-7" d="M40.2,173.17l45.26-25.4a12.86,12.86,0,0,1-.15,3.2c-.08.48-.14.91-.17,1.3-.22,3.17,1.2,3.81,2.93,6.57,2,3.15,1.57,4.32,1.18,9.83s-.4,3.93,2,7.47,1.58,3.15,1.58,7.47-1.18,2-.79,5.9,1.57.79,2.75,3.54-1.57,6.29-1.18,9,.79,2.36,1.18,7.08-2.36,3.14-2.36,4.72.79,2.75,0,4.71-2.36,1.18-2.75,3.15,2,3.15,1.57,8.65-2,1.18-2.75,3.15,2,2.75,3.54,5.9-2.75,3.54-9.83,4.32-7.47-1.57-11-2.75-12.59,0-15.34.39-13.37,2.76-13,2.36c-1.18-3.93-6.29-1.18-8.65-.78s-3.54,1.57-8.29,1.08S24.5,240,24.5,240l3-12.47c1.16-4.87-3.73-12.33-3.73-12.33s-1-4.42-.57-6.39c-1.18-6.68,4.72-9,4.94-8.68C38.17,202,35,189.91,35,189.91s4.72-5.12,5.5-6.3C44,179.68,42.45,177.72,40.2,173.17Z"/><path class="cls-7" d="M40.2,173.17l45.26-25.4a12.86,12.86,0,0,1-.15,3.2c-.08.48-.14.91-.17,1.3-.22,3.17,1.2,3.81,2.93,6.57,2,3.15,1.57,4.32,1.18,9.83s-.4,3.93,2,7.47,1.58,3.15,1.58,7.47-1.18,2-.79,5.9,1.57.79,2.75,3.54-1.57,6.29-1.18,9,.79,2.36,1.18,7.08-2.36,3.14-2.36,4.72.79,2.75,0,4.71-2.36,1.18-2.75,3.15,2,3.15,1.57,8.65-2,1.18-2.75,3.15,2,2.75,3.54,5.9-2.75,3.54-9.83,4.32-7.47-1.57-11-2.75-12.59,0-15.34.39-13.37,2.76-13,2.36c-1.18-3.93-6.29-1.18-8.65-.78s-3.54,1.57-8.29,1.08S24.5,240,24.5,240l3-12.47c1.16-4.87-3.73-12.33-3.73-12.33s-1-4.42-.57-6.39c-1.18-6.68,4.72-9,4.94-8.68C38.17,202,35,189.91,35,189.91s4.72-5.12,5.5-6.3C44,179.68,42.45,177.72,40.2,173.17Z"/><path class="cls-7" d="M127.28,44.84l.08-1c1.7,2.32,4.75,1,4.75,1l8.73-2.08,1.89-1.45s.79-3.54.43-3.68c5.94,3.79,13.73,9.57,14.12,10.36-1.18,6.29,5.44,2.5,5.44,2.5l2,.25a11.06,11.06,0,0,0,2.21.88c-.82.9-1.82,8.17-1.82,8.17l.4,11.8,8.26,8.25-1.18,3.94-10.23,7.08c-5.11,3.53-4.32,1.57-6.29,1.18S142.73,91.2,140,91.2l-4.54,0,.21,1.23-10.22.71s-6.69,5.89-9.05,8.25c-1.81,1.81-2,4.54-1.46,7.66.18,1,.41,2,.67,3,1.18,4.33-.39,7.87-.39,11.8s-.79,4.72.39,8.65-.78,8.65-1.18,10.62l-.78,3.93a12.08,12.08,0,0,0-3.15-2.75c-2-1.18-1.18-5.51-2.75-7.47s-1.18-3.54-1.18-5.51-2.75-3.54-5.11-3.54S98.68,127,96.72,125s-5.9-3.54-9-5.11-3.14-1.58-3.54-5.51a66.75,66.75,0,0,1-.44-8l1.21.11a16.16,16.16,0,0,1-.77-3.92c.79-3.14.79-10.61,0-13s.4-11.8.4-11.8l3.93-4.72L95.14,66l2.19-8.39,1.75-1.83,11-11,1.13-3.31,7.91,1.35s5.9.39,7.87.39Z"/><path class="cls-7" d="M127.28,44.84l.08-1c1.7,2.32,4.75,1,4.75,1l8.73-2.08,1.89-1.45s.79-3.54.43-3.68c5.94,3.79,13.73,9.57,14.12,10.36-1.18,6.29,5.44,2.5,5.44,2.5l2,.25a11.06,11.06,0,0,0,2.21.88c-.82.9-1.82,8.17-1.82,8.17l.4,11.8,8.26,8.25-1.18,3.94-10.23,7.08c-5.11,3.53-4.32,1.57-6.29,1.18S142.73,91.2,140,91.2l-4.54,0,.21,1.23-10.22.71s-6.69,5.89-9.05,8.25c-1.81,1.81-2,4.54-1.46,7.66.18,1,.41,2,.67,3,1.18,4.33-.39,7.87-.39,11.8s-.79,4.72.39,8.65-.78,8.65-1.18,10.62l-.78,3.93a12.08,12.08,0,0,0-3.15-2.75c-2-1.18-1.18-5.51-2.75-7.47s-1.18-3.54-1.18-5.51-2.75-3.54-5.11-3.54S98.68,127,96.72,125s-5.9-3.54-9-5.11-3.14-1.58-3.54-5.51a66.75,66.75,0,0,1-.44-8l1.21.11a16.16,16.16,0,0,1-.77-3.92c.79-3.14.79-10.61,0-13s.4-11.8.4-11.8l3.93-4.72L95.14,66l2.19-8.39,1.75-1.83,11-11,1.13-3.31,7.91,1.35s5.9.39,7.87.39Z"/><path class="cls-7" d="M90,164l0-.6c-.31-3.8-3.44-5.6-3.91-9.62-.49-4.33-1.18-7.28.79-11,3.44-6.59,11.79-7.08,13-14.55,9,.68,7.18,13,13.77,18.87a21.83,21.83,0,0,1,2.28,8.86l-.72.21c.14,4.61.32,10.43.8,14.53.29,2.85,3.44,3.24,4.32,5.9.59,1.86-.39,3.63.79,5.11.79,1,2.46.49,3.15,1.57,1.08,1.67-.1,3.54,1.18,5.11,2.36,2.85,6,4.62,5.11,8.26-1.48,6.1-3.74,11.11,0,16.13-4.13,1.37-6.1-3.74-8.26-7.48-1.48-2.55-3.74-3.44-4.33-6.29-.68-3.24,0-6.49-2.75-8.26-2.06-1.27-4.42.79-6.29-.78-2.07-1.67-2.36-4.23-4.72-5.51-3.74-2-6.69-.88-11-1.57,0-3.93-2.26-5.8-3.54-9.44C88.46,170.05,90,167.59,90,164Z"/><path class="cls-7" d="M90,164l0-.6c-.31-3.8-3.44-5.6-3.91-9.62-.49-4.33-1.18-7.28.79-11,3.44-6.59,11.79-7.08,13-14.55,9,.68,7.18,13,13.77,18.87a21.83,21.83,0,0,1,2.28,8.86l-.72.21c.14,4.61.32,10.43.8,14.53.29,2.85,3.44,3.24,4.32,5.9.59,1.86-.39,3.63.79,5.11.79,1,2.46.49,3.15,1.57,1.08,1.67-.1,3.54,1.18,5.11,2.36,2.85,6,4.62,5.11,8.26-1.48,6.1-3.74,11.11,0,16.13-4.13,1.37-6.1-3.74-8.26-7.48-1.48-2.55-3.74-3.44-4.33-6.29-.68-3.24,0-6.49-2.75-8.26-2.06-1.27-4.42.79-6.29-.78-2.07-1.67-2.36-4.23-4.72-5.51-3.74-2-6.69-.88-11-1.57,0-3.93-2.26-5.8-3.54-9.44C88.46,170.05,90,167.59,90,164Z"/><path class="cls-7" d="M208.67,56.4a6.42,6.42,0,0,0-.74,0c-2.21,3.11-4.64,6.78-4.64,6.78a21.73,21.73,0,0,1-2.69,5c-1.54,1.92-.77,5.77-.77,5.77l-1.65,3.94c-1.57,2-7.47,1.57-9.44,2a13.9,13.9,0,0,0-6.29,3.94c-2,2-2.36,1.18-7.47,1.18s-1.18-5.12-1.18-5.12a13.48,13.48,0,0,0-5.12-5.11c-3.54-2-3.54-5.11-3.14-8.26s-.4-5.11-.4-8.65a12,12,0,0,1,1.92-6.27l5.09-1.17,4.42-3.1c2.88-.45,4.21-3.76,4.21-3.76l3.14-5.15s3.27-1.93,3.5-1.71c.89-.36,2.63-1.12,3.25-1.39l.64.54-.41-.65,3.61-3.69,4.74-.53,2.05,1.57c1.77,1.33,3.32-.89,3.4-.86,1-2,1.69,0,1.69,0a16.3,16.3,0,0,0,1.77,2c3.1,2.43,4-1.18,4-1.18s.38-3.08.38-3.85c0-3.07,1.92-3.07,1.79-2.62,2.18.06,1.18,5.5,1.18,5.5l.11,2.5,2.64.65L220,36l.19,2.46,1.34,1.77,3.85,2.3,5,4.23,1.54,4.61,11.48,9.51s1.39,5.28,1.18,5.11c-15.57-9-18-14.24-18.09-14.55-2.35-4.92-4.56,1.08-4.56,1.08-1.54,4.61-3.08,4.61-5.38,5S208.29,56.79,208.67,56.4Z"/><path class="cls-7" d="M208.67,56.4a6.42,6.42,0,0,0-.74,0c-2.21,3.11-4.64,6.78-4.64,6.78a21.73,21.73,0,0,1-2.69,5c-1.54,1.92-.77,5.77-.77,5.77l-1.65,3.94c-1.57,2-7.47,1.57-9.44,2a13.9,13.9,0,0,0-6.29,3.94c-2,2-2.36,1.18-7.47,1.18s-1.18-5.12-1.18-5.12a13.48,13.48,0,0,0-5.12-5.11c-3.54-2-3.54-5.11-3.14-8.26s-.4-5.11-.4-8.65a12,12,0,0,1,1.92-6.27l5.09-1.17,4.42-3.1c2.88-.45,4.21-3.76,4.21-3.76l3.14-5.15s3.27-1.93,3.5-1.71c.89-.36,2.63-1.12,3.25-1.39l.64.54-.41-.65,3.61-3.69,4.74-.53,2.05,1.57c1.77,1.33,3.32-.89,3.4-.86,1-2,1.69,0,1.69,0a16.3,16.3,0,0,0,1.77,2c3.1,2.43,4-1.18,4-1.18s.38-3.08.38-3.85c0-3.07,1.92-3.07,1.79-2.62,2.18.06,1.18,5.5,1.18,5.5l.11,2.5,2.64.65L220,36l.19,2.46,1.34,1.77,3.85,2.3,5,4.23,1.54,4.61,11.48,9.51s1.39,5.28,1.18,5.11c-15.57-9-18-14.24-18.09-14.55-2.35-4.92-4.56,1.08-4.56,1.08-1.54,4.61-3.08,4.61-5.38,5S208.29,56.79,208.67,56.4Z"/><path class="cls-2" d="M325.2,74.68a15.87,15.87,0,0,1-3,.38l-5.32-12.53L292.6,54.86l-7.08-14,.75-3.53,3.93-.78L293,30.81l2.27-2.93s3.94,3.54,3.54,3.15c.79-1.57,6.69-2.36,6.69-2.36,9.54-2.29,8.71,3.55,8.65,3.54-2.75,3.15,0,5.11,0,5.11l5.11.4s5.11.78,7.87,1.57c6.68-1.18,9-5.11,9-5.11a20.55,20.55,0,0,1,4.33,3.54c5.11,6.68,11.08,3.38,11.08,3.38a37,37,0,0,1-.46,4.09c-.4,2.36.39,2-1.18,3.93s-.79,5.42-.79,5.42,2.36,4.41,1.68,7.27a64.33,64.33,0,0,0-6,8.55,43.78,43.78,0,0,1-7.08.78C334.64,71.14,331.89,73.11,325.2,74.68Z"/><path class="cls-2" d="M325.2,74.68a15.87,15.87,0,0,1-3,.38l-5.32-12.53L292.6,54.86l-7.08-14,.75-3.53,3.93-.78L293,30.81l2.27-2.93s3.94,3.54,3.54,3.15c.79-1.57,6.69-2.36,6.69-2.36,9.54-2.29,8.71,3.55,8.65,3.54-2.75,3.15,0,5.11,0,5.11l5.11.4s5.11.78,7.87,1.57c6.68-1.18,9-5.11,9-5.11a20.55,20.55,0,0,1,4.33,3.54c5.11,6.68,11.08,3.38,11.08,3.38a37,37,0,0,1-.46,4.09c-.4,2.36.39,2-1.18,3.93s-.79,5.42-.79,5.42,2.36,4.41,1.68,7.27a64.33,64.33,0,0,0-6,8.55,43.78,43.78,0,0,1-7.08.78C334.64,71.14,331.89,73.11,325.2,74.68Z"/></svg>