<svg id="Layer_1" data-name="Layer 1" xmlns="http://www.w3.org/2000/svg" xmlns:xlink="http://www.w3.org/1999/xlink" viewBox="0 0 512 512"><defs><style>.cls-1,.cls-2,.cls-3{fill:#e6e7e8;}.cls-1,.cls-2,.cls-5{stroke:#fff;stroke-linejoin:round;}.cls-1{clip-rule:evenodd;}.cls-2,.cls-3,.cls-5{fill-rule:evenodd;}.cls-4{clip-path:url(#clip-path);}.cls-5{fill:none;}</style><clipPath id="clip-path"><path class="cls-1" d="M164.69,278.47s-.87,2.64.53,3.17,1.06.88.53,3a12,12,0,0,0-.7,3.87c0,1.58-.53.7-1.76,2.64s-.53,1.93-2.12,4.05-1.76,2.11-1.76,3.34a8.65,8.65,0,0,1-1.23,4.05c-.88,1.76-1.76,3.34-1.58,5.28s-.35,3.34,1.23,3.69a22.51,22.51,0,0,0,4.93.35c1.76,0,3.87-1.41,5.1.53s-.17,3.69,1.76,4.57,2.29,1.77,2.29,3.35.7,4.22,2.28,5.45,2.46,1.41,4.4,3.35,2.29,2.11,2.65,4.39,0,3.53,1.58,3.17,1.23-1.76,2.64-2.46,2.46-1.23,3.69-.35a4.19,4.19,0,0,0,3.17.88c1.41,0,3,2.81,2.81,3.52s-1.4,2.11-.7,4.22,1.23,3.34,1.93,5.1.18,2.28.71,4.58,1.05,3.69-.71,4.57a7,7,0,0,1-3.51.88c-.71,0,2.28,3.52,2.28,3.52s0,2.11.88,2.46.88.88,1.59,1.76,2.11,2.29,2.11,2.29.18,1.23,1.23,1.23,1.41.18,3.17.35,3,0,4.4.53l2.81,1.06a15.47,15.47,0,0,0,2.11,2.46c.88.71,1.77,1.24,2.65.53s1.58-1.93,3-.88a6.43,6.43,0,0,0,2.81,1.23l2.46,1.41s-.35,0,1.06.88,1.23,2.11,3,1.94a2.32,2.32,0,0,0,2.29-2.29,29.09,29.09,0,0,1,.88-4.22c.52-1.77,1.23-3.35,0-4.58a10.28,10.28,0,0,0-3-1.94,11.93,11.93,0,0,1-1.76-2.64c-.53-1.23-1.76-2.63-.53-3.69a45.28,45.28,0,0,0,3.34-3.52,12.7,12.7,0,0,0,0-2.82,13.23,13.23,0,0,1-.35-3.52c.18-1.05,0-1.23,1.76-1.4s1.76,0,2.47-.71,2.63-.52,3.69-1.23a6.69,6.69,0,0,0,1.58-1.4l2.64-.18a7.73,7.73,0,0,0,3-1.23c1.06-.88,1.23-1.41,2.47-1.41a5,5,0,0,0,2.46-.88,6.9,6.9,0,0,0,3.17-1.41,2.73,2.73,0,0,0,.7-2.46s-.35-1.06-1.23-1.24-1.59,0-1.94-.7a7.75,7.75,0,0,1-1.05-2.81,3.08,3.08,0,0,0-.71-2.64c-.88-.88-2.46-2.29-2.46-3.52s-.88-1.23,0-2.29.88-1.58,2.11-1.76a6.48,6.48,0,0,0,2.64-1.4l.71-1.41a.75.75,0,0,1,.17-1.24,15.73,15.73,0,0,1,2.82-1.05s0-1.23-.7-1.41a8.65,8.65,0,0,1-1.59-.53c-.88-.35-2.12-.17-1.23-1.05a10.4,10.4,0,0,0,1.23-1.41l.35-1.76s-.87-.53-1.23.18a11,11,0,0,1-1.06,1.58s-.32.36-.86.89a2.15,2.15,0,0,1-1.6.34,24.5,24.5,0,0,1-1.75-1.93,4.86,4.86,0,0,0-1.24-1.06L243,308.91s.35-1.42.53-2.29.35-2.28.35-2.28,1.75-1.41,1.05-2.29-.52-1.91-1.05-1.22-.53,1-1.59,1.38a7.58,7.58,0,0,1-3,0h-1.24a24.09,24.09,0,0,1-3.86.54c-1.41,0-1.38.33-2.81,0a5.44,5.44,0,0,0-2.82-.16,3.84,3.84,0,0,1-2.11.35,5.76,5.76,0,0,1-2.82-1.6c-.7-.69-.7-1.22-1.93-1.57s-1.08,0-2.13-.16-.51.51-1.57-.54-1.23-1.41-2.11-1.41a20,20,0,0,0-3.7,1.05l-2.29-.88a8.53,8.53,0,0,0-3.16,0,12.13,12.13,0,0,1-5.1.18,8.89,8.89,0,0,1-3.7-1.41,14.35,14.35,0,0,1-2.28-2.1s-.54-.54-1.59.17-.35.88-1.76.7a18.34,18.34,0,0,1-3.7-1.05,7.33,7.33,0,0,0-2.46-.71,22.78,22.78,0,0,1-3.17-.53,32.1,32.1,0,0,1-3.52-1.76,19.21,19.21,0,0,1-2.11-2.28,15.12,15.12,0,0,0-1.76-1.76c-.7-.53-2.1-.91-2.46-1.6a3.88,3.88,0,0,1-.53-2.8c.35-.88.53-1.4.53-1.4l.18-2.83s3-4,1.4-6l-5.45,4.23Z"/></clipPath></defs><path class="cls-2" d="M272.31,1.31c-.38.38,1.16,5.3,0,9.52s-2.61,5.08-3.76,6.92-1.15,2.61-3.84,4.15-3.84,3.07-3.08,5,0,1.24.39,5.77S260.1,36,263.17,38s3.84,3.85,1.92,6.15-3.46,3.85-.77,6.54,2.69,4.91,1.16,7.22-1.16,3.07-1.16,4.61-2.3,2.69-3.07,5a15.56,15.56,0,0,1-2.31,4.23,7.32,7.32,0,0,0-3.84-1.54c-1.92,0-.3,0-4.53-1.15a30.79,30.79,0,0,0-7.3-1.15s-.39,5.3-1.92,8l-3.08,5.38s-.85-1.16-3.84-1.54-5.3-.77-6.84-2.69-.38-2.69-2.3-3.46a11.59,11.59,0,0,0-3.84-.77l-1.93,3.46-3.84.39-5.3.76-3.46,3.08-3.45.77-1.93,3.07L198.17,87l-3.08,3.08-1.92,2.6s-1.92,1.93-.38,3.08S197.4,100,197.4,100a15.35,15.35,0,0,0,2.22,2.69,17,17,0,0,1,2.69,3.84v3.76s-3.37-3-6.45-3-6.15,1.76-8.45.3a92.42,92.42,0,0,0-8.76-4.14s-6.53-4.23-8.84-5.77-5-3.07-3.07-4.61,5-1.46,5-3.38-1.15-3.07-1.54-4.61,0-3.46-2.69-4.23-2.3-2.69-2.3-2.69a31.19,31.19,0,0,1-4.53-1.53c-1.54-.77-.39-1.24-1.92-3.08s-3.46-2.91-5-1.45-1.15,4.44-3.84,2.22-1.24-1.46-3.08-4.91-3.76-3.85-3-5.77-1.54-4.23-1.54-4.23l1.16-2.69s2.69-1.45,1.53-4.14.31-2.31,2.23-3.84,1.15-2.69,1.15-4.62,1.54-1.92,1.92-3.45a6.65,6.65,0,0,0-.38-3.46s-1.92-5.3,1.15-5.69,5-.38,5.38-3.07,1.15-.77,2.69-3.84,1.62-5.3,3.46-5.3,4.91,1.92,8-.77,3.07,0,5-2.69.86-5,5-5.38,4.91-1.92,7.22-.39a12.26,12.26,0,0,0,6.15,2.31,4.84,4.84,0,0,1,4.53,1.92c1.54,1.92,1.92,5.38,5.76,5s5.38-.39,7.31-1.54,2.77-.38,3.84-1.92.69-3.46,3.76-5.77,2.31-3.45,5-4.22a10.42,10.42,0,0,0,4.22-2.31s3.76-.38,5.3.77,3.84,1.15,3.84,3.84-2.69,1.92-3.07,3.85,5,5,5,5,2.69,3,5,3.76,6.07,1.07,8.76-.38,4.23-4.53,3.46-6.07,1.15-3.07,3.07-3.07,5.38-.77,5.38-2.31-.77-.85.39-3.84S269.62.24,272.31,1.31Z"/><path class="cls-2" d="M272.31,1.31c-.38.38,1.16,5.3,0,9.52s-2.61,5.08-3.76,6.92-1.15,2.61-3.84,4.15-3.84,3.07-3.08,5,0,1.24.39,5.77S260.1,36,263.17,38s3.84,3.85,1.92,6.15-3.46,3.85-.77,6.54,2.69,4.91,1.16,7.22-1.16,3.07-1.16,4.61-2.3,2.69-3.07,5a15.56,15.56,0,0,1-2.31,4.23,7.32,7.32,0,0,0-3.84-1.54c-1.92,0-.3,0-4.53-1.15a30.79,30.79,0,0,0-7.3-1.15s-.39,5.3-1.92,8l-3.08,5.38s-.85-1.16-3.84-1.54-5.3-.77-6.84-2.69-.38-2.69-2.3-3.46a11.59,11.59,0,0,0-3.84-.77l-1.93,3.46-3.84.39-5.3.76-3.46,3.08-3.45.77-1.93,3.07L198.17,87l-3.08,3.08-1.92,2.6s-1.92,1.93-.38,3.08S197.4,100,197.4,100a15.35,15.35,0,0,0,2.22,2.69,17,17,0,0,1,2.69,3.84v3.76s-3.37-3-6.45-3-6.15,1.76-8.45.3a92.42,92.42,0,0,0-8.76-4.14s-6.53-4.23-8.84-5.77-5-3.07-3.07-4.61,5-1.46,5-3.38-1.15-3.07-1.54-4.61,0-3.46-2.69-4.23-2.3-2.69-2.3-2.69a31.19,31.19,0,0,1-4.53-1.53c-1.54-.77-.39-1.24-1.92-3.08s-3.46-2.91-5-1.45-1.15,4.44-3.84,2.22-1.24-1.46-3.08-4.91-3.76-3.85-3-5.77-1.54-4.23-1.54-4.23l1.16-2.69s2.69-1.45,1.53-4.14.31-2.31,2.23-3.84,1.15-2.69,1.15-4.62,1.54-1.92,1.92-3.45a6.65,6.65,0,0,0-.38-3.46s-1.92-5.3,1.15-5.69,5-.38,5.38-3.07,1.15-.77,2.69-3.84,1.62-5.3,3.46-5.3,4.91,1.92,8-.77,3.07,0,5-2.69.86-5,5-5.38,4.91-1.92,7.22-.39a12.26,12.26,0,0,0,6.15,2.31,4.84,4.84,0,0,1,4.53,1.92c1.54,1.92,1.92,5.38,5.76,5s5.38-.39,7.31-1.54,2.77-.38,3.84-1.92.69-3.46,3.76-5.77,2.31-3.45,5-4.22a10.42,10.42,0,0,0,4.22-2.31s3.76-.38,5.3.77,3.84,1.15,3.84,3.84-2.69,1.92-3.07,3.85,5,5,5,5,2.69,3,5,3.76,6.07,1.07,8.76-.38,4.23-4.53,3.46-6.07,1.15-3.07,3.07-3.07,5.38-.77,5.38-2.31-.77-.85.39-3.84S269.62.24,272.31,1.31Z"/><path class="cls-2" d="M258.94,71.69a30,30,0,0,1-.56,7.53c-.67,2-.83,2.83-2.33,3.33s-3.33,1.16-3.66,2-.39,2.33-1.34,2.83-1.94.83-2.11,1.66-.83,2.78-2.16,2.28-.34-1.28-2-1.61-1.83-1.95-2.16,0S241.45,92,241.45,92a7,7,0,0,0-2.66,2.16c-.84,1.33-1.67-.5-1.84,2s.17,2.66-.66,3.16-.67.34-1.33,1.5-1.78,1.33-2,2.5,1.67,2.55,0,3.49-2.16.29-3.5,2.12-2.16.33-2.83,2.16-2.66,1.5-2.33,3.17,1.5,2.66.67,3.49-1,1.33-1.5,3.16-1.5,2.17-.33,3a5.21,5.21,0,0,1,1.5,1.45s.66,1.16-.5,3.83-1.33,1.33-.5,3,.66,2,0,2.5-2.33,2-2.17,2.83-1.33,1.83-1.33,1.83l-3,.17s-3.77-2.16-4.44-2.5a7.55,7.55,0,0,1-2.83-1.66c-1.16-1.17-3.16-1.5-3.83-2.33s-1.66-2.17-1.16-3,1.33-1.5.66-2.83-.5-3.28-.5-4.78.67-4.49.5-6-.83-1.17-1.83-3.33a25.35,25.35,0,0,1-1.33-3.33l-.12-3.25L197.4,100l-3.58-3.15s-3.77-1.89.67-5.66c1.33-1.78,3.16-4,3.16-4s3.34-2.34,3.89-2.92a25.83,25.83,0,0,0,1.93-3.07l3.45-.77,3.46-3.08,9.14-1.15,1.93-3.46,4.73,1.3a6.71,6.71,0,0,0,6.66,5.33c-.16.33,4.09,0,5.43,1.83.18,0,4-7.49,4-7.49l1-5.88s6.79.77,10.45,2.26C254.55,70.11,258.84,72.1,258.94,71.69Z"/><path class="cls-2" d="M258.94,71.69a30,30,0,0,1-.56,7.53c-.67,2-.83,2.83-2.33,3.33s-3.33,1.16-3.66,2-.39,2.33-1.34,2.83-1.94.83-2.11,1.66-.83,2.78-2.16,2.28-.34-1.28-2-1.61-1.83-1.95-2.16,0S241.45,92,241.45,92a7,7,0,0,0-2.66,2.16c-.84,1.33-1.67-.5-1.84,2s.17,2.66-.66,3.16-.67.34-1.33,1.5-1.78,1.33-2,2.5,1.67,2.55,0,3.49-2.16.29-3.5,2.12-2.16.33-2.83,2.16-2.66,1.5-2.33,3.17,1.5,2.66.67,3.49-1,1.33-1.5,3.16-1.5,2.17-.33,3a5.21,5.21,0,0,1,1.5,1.45s.66,1.16-.5,3.83-1.33,1.33-.5,3,.66,2,0,2.5-2.33,2-2.17,2.83-1.33,1.83-1.33,1.83l-3,.17s-3.77-2.16-4.44-2.5a7.55,7.55,0,0,1-2.83-1.66c-1.16-1.17-3.16-1.5-3.83-2.33s-1.66-2.17-1.16-3,1.33-1.5.66-2.83-.5-3.28-.5-4.78.67-4.49.5-6-.83-1.17-1.83-3.33a25.35,25.35,0,0,1-1.33-3.33l-.12-3.25L197.4,100l-3.58-3.15s-3.77-1.89.67-5.66c1.33-1.78,3.16-4,3.16-4s3.34-2.34,3.89-2.92a25.83,25.83,0,0,0,1.93-3.07l3.45-.77,3.46-3.08,9.14-1.15,1.93-3.46,4.73,1.3a6.71,6.71,0,0,0,6.66,5.33c-.16.33,4.09,0,5.43,1.83.18,0,4-7.49,4-7.49l1-5.88s6.79.77,10.45,2.26C254.55,70.11,258.84,72.1,258.94,71.69Z"/><path class="cls-2" d="M247.94,91.49c1.17-.5,2.33,1.16,1.83,3.49s-.11,2.67.84,5,1.44,4.66,2.28,5.49.16,1,1.66,3,2,3.16,3.5,4.49,2,1.17,2.66,2.83.67,2.67,1.5,4.83.83,1.33,1.66,2.33,1.17.39,1.17,2.17.22,3.61,2.16,3.28A3.23,3.23,0,0,1,271,130c.83,1.33.67,1.83,1.5,2.66s.17,2.17,2.16,2.17,3.17-.67,4,0,1.5,2.5,2.16,3.83,2.34,5.27,3.67,6.11,3.61,1.83,4.11,3.33,2.33,1.33,1.16,3.49-.21,1.5-2,2.33a8.44,8.44,0,0,0-3.78,3c-.5,1-2.33,2.94-3.67,5.28s-1.16,2.66-3.66,3.82-3,1.84-5.33,2.5.39-.66-3.77,1.17-5.33.66-6,1.83-2.16,1.5-1.83,3.33,2.67,2.44,4,3.94a8.23,8.23,0,0,1,2.16,3.17c.83,1.83.34,3.16,1.33,5.32s2.28,3.83,2.62,5.5,1.28,2.94-.34,3.78-1.94,2-3.44,2.66-1.17-.33-2.83,1.5-2.67,1.5-3-.34-1-1.83-2.5-3-1-1.62-2.66-2.28-1.16.33-2.5-1-1.94-3-3.61-2.16-2,1-3.66.16-2.33,0-3.66-.33-2.67-.33-3-2,.17-1.16-.33-3-.17-1.33.33-3.49,1.5-3.33-.17-3.66-2.33-.56-2.66-1.17a3.69,3.69,0,0,1-.83-2.78c0-2,1.66.17.5-2.66s-1.78-1.83-2.62-3.33-.33-2-1.16-2.83-1.83-1-3.16-1.33-2-1.17-2.17-3,.67-3.28.17-4.11-1-2.17-1.83-2.67-1-2.33-1-2.33a5.35,5.35,0,0,0,.5-3.16c-.17-2.16.66-2.16-1-2.66s-1.83-.84-2-2.17,0-1.05-1.17-2.33-1.66-2.94-1-3.61c.16,0,1.16-.17,1.16-.17l1.33-1.83.17-.83,2-2,.5-1.66-.5-.84a1.72,1.72,0,0,1,.16-2.33c.5,0,1-3.33,1-3.33s1-.05-.16-1.16c-1-1.28-1.5-1.45-1.5-1.45a3.07,3.07,0,0,1,0-1.83c.33-.83.66-1.83.66-1.83l.5-1.5.67-1-.67-3.49.17-1,1.5-1.34,1.16-1.66,1.34-.17,1.83-2.33,2.66-1s1-.66.62-1.33a11,11,0,0,1-.62-2.16l.62-1.33,1.33-1.17.33-.66,1-.84.5-4.66,1.16.5,2.83-2.33s.84.05,1.84-3.11l.83-.83,1.33.83S246.78,92,247.94,91.49Z"/><path class="cls-2" d="M247.94,91.49c1.17-.5,2.33,1.16,1.83,3.49s-.11,2.67.84,5,1.44,4.66,2.28,5.49.16,1,1.66,3,2,3.16,3.5,4.49,2,1.17,2.66,2.83.67,2.67,1.5,4.83.83,1.33,1.66,2.33,1.17.39,1.17,2.17.22,3.61,2.16,3.28A3.23,3.23,0,0,1,271,130c.83,1.33.67,1.83,1.5,2.66s.17,2.17,2.16,2.17,3.17-.67,4,0,1.5,2.5,2.16,3.83,2.34,5.27,3.67,6.11,3.61,1.83,4.11,3.33,2.33,1.33,1.16,3.49-.21,1.5-2,2.33a8.44,8.44,0,0,0-3.78,3c-.5,1-2.33,2.94-3.67,5.28s-1.16,2.66-3.66,3.82-3,1.84-5.33,2.5.39-.66-3.77,1.17-5.33.66-6,1.83-2.16,1.5-1.83,3.33,2.67,2.44,4,3.94a8.23,8.23,0,0,1,2.16,3.17c.83,1.83.34,3.16,1.33,5.32s2.28,3.83,2.62,5.5,1.28,2.94-.34,3.78-1.94,2-3.44,2.66-1.17-.33-2.83,1.5-2.67,1.5-3-.34-1-1.83-2.5-3-1-1.62-2.66-2.28-1.16.33-2.5-1-1.94-3-3.61-2.16-2,1-3.66.16-2.33,0-3.66-.33-2.67-.33-3-2,.17-1.16-.33-3-.17-1.33.33-3.49,1.5-3.33-.17-3.66-2.33-.56-2.66-1.17a3.69,3.69,0,0,1-.83-2.78c0-2,1.66.17.5-2.66s-1.78-1.83-2.62-3.33-.33-2-1.16-2.83-1.83-1-3.16-1.33-2-1.17-2.17-3,.67-3.28.17-4.11-1-2.17-1.83-2.67-1-2.33-1-2.33a5.35,5.35,0,0,0,.5-3.16c-.17-2.16.66-2.16-1-2.66s-1.83-.84-2-2.17,0-1.05-1.17-2.33-1.66-2.94-1-3.61c.16,0,1.16-.17,1.16-.17l1.33-1.83.17-.83,2-2,.5-1.66-.5-.84a1.72,1.72,0,0,1,.16-2.33c.5,0,1-3.33,1-3.33s1-.05-.16-1.16c-1-1.28-1.5-1.45-1.5-1.45a3.07,3.07,0,0,1,0-1.83c.33-.83.66-1.83.66-1.83l.5-1.5.67-1-.67-3.49.17-1,1.5-1.34,1.16-1.66,1.34-.17,1.83-2.33,2.66-1s1-.66.62-1.33a11,11,0,0,1-.62-2.16l.62-1.33,1.33-1.17.33-.66,1-.84.5-4.66,1.16.5,2.83-2.33s.84.05,1.84-3.11l.83-.83,1.33.83S246.78,92,247.94,91.49Z"/><path class="cls-2" d="M238,188.44s-1.92,1.38-3,0-1.65-3.3-2.48-1.65,0,2.48-1.37,2.48-2.48.82-3-.55.55-2.48-1.37-2.2-1.65.27-2.2,2.2-1.37,1.37-1.37,2.47a18.17,18.17,0,0,0,.27,5.23c.55,2.2-1.1,3,0,4.4s2.75.27,2.47,2.2-.82,2.19.28,2.74,2.2,2.48,1.65,5,1.37,1.93.82,3.58-2.75,2.75-3.85,4.12S206.65,233,206.65,233l-4.4-.27s.27,1.92-.82,2.47-6.05.55-6.05.55a2.55,2.55,0,0,1-1.1,2.48c-1.38.82-1.65,1.37-3.3,2.47s-1.38-.82-2.48,0a4.44,4.44,0,0,0-1.92,3.85c0,1.93-1.38,2.2-1.93,4.13s1.65,2.47-.27,3.57-2.75,2.2-3,3.57a27.4,27.4,0,0,0-1.1,5.78c0,2.2,0,5.22-.54,6.32s-.83,1.38-3,3-3.85,3.29-6.32,4.67-1.93,1.92-5,2.75-1.65.55-5.23,2.47-10.72,3.58-8.24,1.1,9.07-5.5,10.17-7.15,4.95-3.84,5.22-6.59,0-7.43.55-10.73.55-3.57,0-5.5-.82-3.29,0-5.22.83-12.1,1.1-15.12.28-3.58-1.1-6.6-2.75-3-.27-4.12,2.47-1.1,3.57-3.85,1.1-1.65,2.75-4.4,1.65-4.95,2.2-7.15,1.1-2.75,1.38-5.22,0-3.3,1.37-5.78,4.4-7.7,5-9.35,2.47-4.94,2.2-9.34,1.1-9.9,1.37-12.1a73.56,73.56,0,0,1,1.38-9.07c.82-3.3.27-7.7.82-9.9s2.2-8.25,2.2-9.62.83-7.7.83-7.7l12.37.82-.07,1.78a3.52,3.52,0,0,0,1.16,3c1.38,1,4.68,2.92,4.68,2.92l6.42,3.57H219l-.28,1.65,1.27,2,1.48,3.27,1.69,1.23,1.06.42v3.3l-.56,2.1,2.2,3.67.55,3.3-.09,2.14.92,2,3.3,2.2,1.37,1.1.9,1.88,2.62,3.33-.5,2.66a3.37,3.37,0,0,0,.83,2.78,6.56,6.56,0,0,0,2.66,1.17l.92,1.38-.75,2.28-.63,1.57Z"/><path class="cls-2" d="M238,188.44s-1.92,1.38-3,0-1.65-3.3-2.48-1.65,0,2.48-1.37,2.48-2.48.82-3-.55.55-2.48-1.37-2.2-1.65.27-2.2,2.2-1.37,1.37-1.37,2.47a18.17,18.17,0,0,0,.27,5.23c.55,2.2-1.1,3,0,4.4s2.75.27,2.47,2.2-.82,2.19.28,2.74,2.2,2.48,1.65,5,1.37,1.93.82,3.58-2.75,2.75-3.85,4.12S206.65,233,206.65,233l-4.4-.27s.27,1.92-.82,2.47-6.05.55-6.05.55a2.55,2.55,0,0,1-1.1,2.48c-1.38.82-1.65,1.37-3.3,2.47s-1.38-.82-2.48,0a4.44,4.44,0,0,0-1.92,3.85c0,1.93-1.38,2.2-1.93,4.13s1.65,2.47-.27,3.57-2.75,2.2-3,3.57a27.4,27.4,0,0,0-1.1,5.78c0,2.2,0,5.22-.54,6.32s-.83,1.38-3,3-3.85,3.29-6.32,4.67-1.93,1.92-5,2.75-1.65.55-5.23,2.47-10.72,3.58-8.24,1.1,9.07-5.5,10.17-7.15,4.95-3.84,5.22-6.59,0-7.43.55-10.73.55-3.57,0-5.5-.82-3.29,0-5.22.83-12.1,1.1-15.12.28-3.58-1.1-6.6-2.75-3-.27-4.12,2.47-1.1,3.57-3.85,1.1-1.65,2.75-4.4,1.65-4.95,2.2-7.15,1.1-2.75,1.38-5.22,0-3.3,1.37-5.78,4.4-7.7,5-9.35,2.47-4.94,2.2-9.34,1.1-9.9,1.37-12.1a73.56,73.56,0,0,1,1.38-9.07c.82-3.3.27-7.7.82-9.9s2.2-8.25,2.2-9.62.83-7.7.83-7.7l12.37.82-.07,1.78a3.52,3.52,0,0,0,1.16,3c1.38,1,4.68,2.92,4.68,2.92l6.42,3.57H219l-.28,1.65,1.27,2,1.48,3.27,1.69,1.23,1.06.42v3.3l-.56,2.1,2.2,3.67.55,3.3-.09,2.14.92,2,3.3,2.2,1.37,1.1.9,1.88,2.62,3.33-.5,2.66a3.37,3.37,0,0,0,.83,2.78,6.56,6.56,0,0,0,2.66,1.17l.92,1.38-.75,2.28-.63,1.57Z"/><path class="cls-2" d="M261.83,202.45c1.23-.88-.71,1.23.7,3.35s2.65,3,1.94,4.58-2.29,1.91-2.47,3.14.18,3.18-1.05,4.94-2.65,3.35-2.65,4.41a11,11,0,0,1-.88,4.58c-.88,2.29-1.06,1.91-1.76,3.85a5.57,5.57,0,0,1-1.41,2.46,11.69,11.69,0,0,0-2.65,2.47c-1,1.41-1.73,2.12-3,3.88s-1.24,1.06-2.12,3.17-1.41,3.71-2.64,3.53-2.29-.18-2.82-.88-.18-2.12-1.24-1.76-2.11,2.46-3,1.93-1.59-1.41-2.12-.52-.32,1.41-1.73,1.23-3.52-.88-3.7-.18-.71,1.27.53,1.59a24.3,24.3,0,0,1,4.2,2.26l.7,1.41v2.64c0,.53,0,3.18-1.06,4.06a11.86,11.86,0,0,1-2.78,1.58s.17-1.93-1.41-1.41-2.65.71-3.18,1.94-1.23,3.35-2.47,3.71-2.46.56-3,1.23a10.5,10.5,0,0,1-2.82,2.61c-.88.35-3.32,1.41-4.38,1.24s-.53-.53-1.41-1.41-.53-2.09-.88-2.62a2.43,2.43,0,0,0-1.76-.88c-.53,0-2.29,0-2.82.53s-1.41,1-1.94,1.56-2.47.7-3.35,1.23S198.85,269,198,270s-.71,1.41-2.47,1.77-4.23.53-4.23.53-4.94-.71-5.47-.71-2.82-.18-2.82-.18l-3.32-.35-3-.14s3.51-2.12,3.51-5.47a32.49,32.49,0,0,1,.5-6.17c.18-1.05.66-3.49.66-3.49a5.64,5.64,0,0,1,1.28-2c.7-.53,2.64-2.29,2.64-2.29l-.7-1.77a6.27,6.27,0,0,1,.88-2.26,12.52,12.52,0,0,0,1.23-1.58l.18-1.94.53-1.59,1.11-1.72s1.66.75,2.48,0,3.3-2.47,3.3-2.47l1-1.1.06-1.38a29.43,29.43,0,0,0,4,0c.71-.17,2.64.15,2.91-3,1.85.17,4.4.27,4.4.27s13.64-10.64,16.46-12.93a46.58,46.58,0,0,0,5.46-4.94,3.55,3.55,0,0,0,.36-1.59,2,2,0,0,1-1.06-1.73c0-1.23.7-2.11,0-3.52s-.88-1.59-1.41-1.94a5.83,5.83,0,0,1-.88-.71,13.68,13.68,0,0,1,.17-1.94c.18-1.05.53-1.23-.52-1.76s-1.5.26-1.81-1.1a15.54,15.54,0,0,1-.13-3.66c0-.53-.18-3.14-.18-3.14l0-2.83a9.6,9.6,0,0,0,1.37-2.47c.18-.87,0-1.4,1.06-1.75s2.29-.35,2.47.35.35,2.29,1.76,2.12,1.76-.53,2.11-1.24.74-2.11,1.41-1.76,1.38,2.47,2.44,2.47a7,7,0,0,0,2.22-.47s-.05.29.63,1.35a6,6,0,0,0,2.09,1.76s1.94.18,2.46.18a15.42,15.42,0,0,1,2.11.39l1.42.67,2.24-.83s2.31-.05,2.84.83a20.07,20.07,0,0,0,1.59,2.11,11.34,11.34,0,0,1,2.82,1,12.78,12.78,0,0,1,1.52,1.47,8.73,8.73,0,0,1,2,1.88C260.06,200,260.59,203.33,261.83,202.45Z"/><path class="cls-2" d="M261.83,202.45c1.23-.88-.71,1.23.7,3.35s2.65,3,1.94,4.58-2.29,1.91-2.47,3.14.18,3.18-1.05,4.94-2.65,3.35-2.65,4.41a11,11,0,0,1-.88,4.58c-.88,2.29-1.06,1.91-1.76,3.85a5.57,5.57,0,0,1-1.41,2.46,11.69,11.69,0,0,0-2.65,2.47c-1,1.41-1.73,2.12-3,3.88s-1.24,1.06-2.12,3.17-1.41,3.71-2.64,3.53-2.29-.18-2.82-.88-.18-2.12-1.24-1.76-2.11,2.46-3,1.93-1.59-1.41-2.12-.52-.32,1.41-1.73,1.23-3.52-.88-3.7-.18-.71,1.27.53,1.59a24.3,24.3,0,0,1,4.2,2.26l.7,1.41v2.64c0,.53,0,3.18-1.06,4.06a11.86,11.86,0,0,1-2.78,1.58s.17-1.93-1.41-1.41-2.65.71-3.18,1.94-1.23,3.35-2.47,3.71-2.46.56-3,1.23a10.5,10.5,0,0,1-2.82,2.61c-.88.35-3.32,1.41-4.38,1.24s-.53-.53-1.41-1.41-.53-2.09-.88-2.62a2.43,2.43,0,0,0-1.76-.88c-.53,0-2.29,0-2.82.53s-1.41,1-1.94,1.56-2.47.7-3.35,1.23S198.85,269,198,270s-.71,1.41-2.47,1.77-4.23.53-4.23.53-4.94-.71-5.47-.71-2.82-.18-2.82-.18l-3.32-.35-3-.14s3.51-2.12,3.51-5.47a32.49,32.49,0,0,1,.5-6.17c.18-1.05.66-3.49.66-3.49a5.64,5.64,0,0,1,1.28-2c.7-.53,2.64-2.29,2.64-2.29l-.7-1.77a6.27,6.27,0,0,1,.88-2.26,12.52,12.52,0,0,0,1.23-1.58l.18-1.94.53-1.59,1.11-1.72s1.66.75,2.48,0,3.3-2.47,3.3-2.47l1-1.1.06-1.38a29.43,29.43,0,0,0,4,0c.71-.17,2.64.15,2.91-3,1.85.17,4.4.27,4.4.27s13.64-10.64,16.46-12.93a46.58,46.58,0,0,0,5.46-4.94,3.55,3.55,0,0,0,.36-1.59,2,2,0,0,1-1.06-1.73c0-1.23.7-2.11,0-3.52s-.88-1.59-1.41-1.94a5.83,5.83,0,0,1-.88-.71,13.68,13.68,0,0,1,.17-1.94c.18-1.05.53-1.23-.52-1.76s-1.5.26-1.81-1.1a15.54,15.54,0,0,1-.13-3.66c0-.53-.18-3.14-.18-3.14l0-2.83a9.6,9.6,0,0,0,1.37-2.47c.18-.87,0-1.4,1.06-1.75s2.29-.35,2.47.35.35,2.29,1.76,2.12,1.76-.53,2.11-1.24.74-2.11,1.41-1.76,1.38,2.47,2.44,2.47a7,7,0,0,0,2.22-.47s-.05.29.63,1.35a6,6,0,0,0,2.09,1.76s1.94.18,2.46.18a15.42,15.42,0,0,1,2.11.39l1.42.67,2.24-.83s2.31-.05,2.84.83a20.07,20.07,0,0,0,1.59,2.11,11.34,11.34,0,0,1,2.82,1,12.78,12.78,0,0,1,1.52,1.47,8.73,8.73,0,0,1,2,1.88C260.06,200,260.59,203.33,261.83,202.45Z"/><path class="cls-2" d="M270.43,195.43s3.53-.35,5.29-1.58,3.7-1.06,4.76-2.3,2.15-1.76,4.76-1.41A7.66,7.66,0,0,1,290.5,193c.88,1.24,1.94,3.32,2.64,4a7.38,7.38,0,0,1,1.41,3.52c0,.71-.17,1.76-.35,4.59s0,3.87.88,4.4a2.38,2.38,0,0,1,1.23,1.94c.18.88,2.12,2.79,2.12,2.79s2.29.88,2.47,2.64-.68,1.77,1.41,2.47,3,0,3,1.41a22.77,22.77,0,0,0,.36,5.11c.35,1.06.52,2.12,1.41,2.65s1.23,1.41,3.17,1.41a4.41,4.41,0,0,1,3.17,1.55s.35,4.41.53,6-.18,1.76.88,2.46,1.41,3.88,1.41,3.35.18.36-.53,1.24-2.11,1.06-1.76,2.11,1.41.5,1.76,2.09.71,1.41.53,2.64-.35,3,.35,3.17a1.71,1.71,0,0,1,1.42,1.59c.17,1.06.35,2.64.35,2.64s.88,2.47.35,3.35a7.64,7.64,0,0,0-.35,3.18s-.53,2.79,0,3.67a4.54,4.54,0,0,1,1.06,2.82c0,1.41-1.06,1.06-.89,2.11s.36,3-.17,3.53-1.24-.35-1.06.88a3.82,3.82,0,0,1-.35,2.64c-.36.53-1.06,1.27-.36,2.12s.71-.18,1.59-.35,1.24-.5,1.41.35a3.16,3.16,0,0,0,1.24,1.55,1.63,1.63,0,0,1,.52,2.3,4.87,4.87,0,0,0-.88,2.29,30,30,0,0,0-1.23,3.17,21,21,0,0,0-.35,4.58A9.86,9.86,0,0,1,318,301a6.36,6.36,0,0,0-.71,2.43s-.53,3.53-1.59,3.35-2.82-1.58-3.52-1.76-.35-1.59-1.59-1.76a6,6,0,0,0-3.17.17c-.71.36-1.24.71-2.12,0s-1.9-2.08-3.31-2.61-4.76-1.94-5.65-1.58-.7.7-1.76-.36-2.11-.88-1.94-2.64,1.41-3.7.53-4.76-1.58-.88-1.76-1.94-.18-2.12-1.24-2.64-.2-2.3-2.29-1.94-1.9,1.23-3.14.88-.88-.35-2.47-1.24-2.64-1.55-2.64-1.55l-1.41-1.59-3-1.05-.7-1.94a45.78,45.78,0,0,1-.53-4.94,33.26,33.26,0,0,1,.18-4.23,14.38,14.38,0,0,0-.18-3.49s-.53-2.3.35-2.65,1.41-.35,1.06-1.94.18-3.7-.71-4.05-2.11-2.12-2.11-2.12L272,253.3a5,5,0,0,0,.71-4.23c-.71-2.44-1.06-1.2-1.77-3a8.26,8.26,0,0,1-.88-3.87,10.69,10.69,0,0,0-.7-3.35s-.85-3-1.56-3.18a3.45,3.45,0,0,0-2.29,0c-.88.36-1.76.36-2.12-1a2.17,2.17,0,0,0-1.76-1.59,6.06,6.06,0,0,1-2.47.53,6,6,0,0,1-2.46-.53l-1.06-1.76a22.4,22.4,0,0,0,2.11-5.08c.36-1.94.36-3.35.53-3.88s2.82-3.35,3-4.58.7-4.24.7-4.24,2.65-2.26,2.65-4-1.24-2.29-2.12-3.7a4.69,4.69,0,0,1-.7-2.82l-.71-.53s1.53-1.15,2.09-1.72a4.17,4.17,0,0,1,1.44-1.1c.7-.35.84-.1,1.39-.4s1.64-1.36,2.31-1.71,1.73-.89,1.73-.89Z"/><path class="cls-2" d="M270.43,195.43s3.53-.35,5.29-1.58,3.7-1.06,4.76-2.3,2.15-1.76,4.76-1.41A7.66,7.66,0,0,1,290.5,193c.88,1.24,1.94,3.32,2.64,4a7.38,7.38,0,0,1,1.41,3.52c0,.71-.17,1.76-.35,4.59s0,3.87.88,4.4a2.38,2.38,0,0,1,1.23,1.94c.18.88,2.12,2.79,2.12,2.79s2.29.88,2.47,2.64-.68,1.77,1.41,2.47,3,0,3,1.41a22.77,22.77,0,0,0,.36,5.11c.35,1.06.52,2.12,1.41,2.65s1.23,1.41,3.17,1.41a4.41,4.41,0,0,1,3.17,1.55s.35,4.41.53,6-.18,1.76.88,2.46,1.41,3.88,1.41,3.35.18.36-.53,1.24-2.11,1.06-1.76,2.11,1.41.5,1.76,2.09.71,1.41.53,2.64-.35,3,.35,3.17a1.71,1.71,0,0,1,1.42,1.59c.17,1.06.35,2.64.35,2.64s.88,2.47.35,3.35a7.64,7.64,0,0,0-.35,3.18s-.53,2.79,0,3.67a4.54,4.54,0,0,1,1.06,2.82c0,1.41-1.06,1.06-.89,2.11s.36,3-.17,3.53-1.24-.35-1.06.88a3.82,3.82,0,0,1-.35,2.64c-.36.53-1.06,1.27-.36,2.12s.71-.18,1.59-.35,1.24-.5,1.41.35a3.16,3.16,0,0,0,1.24,1.55,1.63,1.63,0,0,1,.52,2.3,4.87,4.87,0,0,0-.88,2.29,30,30,0,0,0-1.23,3.17,21,21,0,0,0-.35,4.58A9.86,9.86,0,0,1,318,301a6.36,6.36,0,0,0-.71,2.43s-.53,3.53-1.59,3.35-2.82-1.58-3.52-1.76-.35-1.59-1.59-1.76a6,6,0,0,0-3.17.17c-.71.36-1.24.71-2.12,0s-1.9-2.08-3.31-2.61-4.76-1.94-5.65-1.58-.7.7-1.76-.36-2.11-.88-1.94-2.64,1.41-3.7.53-4.76-1.58-.88-1.76-1.94-.18-2.12-1.24-2.64-.2-2.3-2.29-1.94-1.9,1.23-3.14.88-.88-.35-2.47-1.24-2.64-1.55-2.64-1.55l-1.41-1.59-3-1.05-.7-1.94a45.78,45.78,0,0,1-.53-4.94,33.26,33.26,0,0,1,.18-4.23,14.38,14.38,0,0,0-.18-3.49s-.53-2.3.35-2.65,1.41-.35,1.06-1.94.18-3.7-.71-4.05-2.11-2.12-2.11-2.12L272,253.3a5,5,0,0,0,.71-4.23c-.71-2.44-1.06-1.2-1.77-3a8.26,8.26,0,0,1-.88-3.87,10.69,10.69,0,0,0-.7-3.35s-.85-3-1.56-3.18a3.45,3.45,0,0,0-2.29,0c-.88.36-1.76.36-2.12-1a2.17,2.17,0,0,0-1.76-1.59,6.06,6.06,0,0,1-2.47.53,6,6,0,0,1-2.46-.53l-1.06-1.76a22.4,22.4,0,0,0,2.11-5.08c.36-1.94.36-3.35.53-3.88s2.82-3.35,3-4.58.7-4.24.7-4.24,2.65-2.26,2.65-4-1.24-2.29-2.12-3.7a4.69,4.69,0,0,1-.7-2.82l-.71-.53s1.53-1.15,2.09-1.72a4.17,4.17,0,0,1,1.44-1.1c.7-.35.84-.1,1.39-.4s1.64-1.36,2.31-1.71,1.73-.89,1.73-.89Z"/><path class="cls-2" d="M242.82,246.81s-.7,3.49.18,4.2,2.29,1.94,3,2.64a10.25,10.25,0,0,0,1.94,1.41c.53.36,1.41,2.65.88,3.53s-1.41,1.06-1.93,2.11.17,1.94-.89,2.12-3.7-.35-5.28.18-3.53.35-4.06,1.05-1.94,1.09-2.47,1.77a11,11,0,0,0-1.37,2.26c-.53,1.05-1.06,1.23-1.77,2.29a13,13,0,0,0-1.23,3s-1.24,2.82-.71,3.88-.17,1.24,1.24,2.12a7,7,0,0,0,3.14,1.41c1.23.17,4.58,2.47,4.58,2.47s0,.49.88,1.2,2.12,1.23,2.47,2.11-.18,2.29.35,3.53,1.59.88,1.94,2.29-.35,4.76-.17,5.47.17,2.32.35,3,1.59.85.7,2.26a5.51,5.51,0,0,0-1.05,3.53c0,1.41-1.06,3,.17,3.7s1.06-.35,2.12,1.41,2.82,3,3.35,1.59,1-1.41,1.9-1.94.71-1.77,1.94-1.94,2.47-.35,2.12-2.12a11.16,11.16,0,0,1-.18-3.17,2.28,2.28,0,0,1,2.12-.18c1.06.53,1.23.88,2.29.53a6.76,6.76,0,0,1,3.17-.35c.88.18,2.47,1.06,3.35.18a5.72,5.72,0,0,0,1.41-2.65c.35-1,1.38-4.2,1.38-4.2a3.68,3.68,0,0,0,.88-3.35c-.35-2.29.35-3.35,0-4.58s-1.06-1.59-1.06-2.47.36-3.52.36-3.52a11.62,11.62,0,0,1-.36-2.26c0-.88,1.94-1.41,2.82-1.24s3.53-.88,3.53-.88a32.51,32.51,0,0,1-1.06-4.05c0-.71.36-4.41.36-5.29a22.15,22.15,0,0,0,.17-3.35c-.17-.67-.7-2.44-.7-2.44l1.58-1.41s0-5.11-.53-5.46-1.93-1.41-1.93-1.41L272,253.3a5,5,0,0,0,1.06-3,10.57,10.57,0,0,0-.71-2.61,2.65,2.65,0,0,1-1.06-1.06,13.36,13.36,0,0,1-1.23-5.11,45.49,45.49,0,0,0-1.41-4.41s0-1.93-2.44-1.58a16.23,16.23,0,0,0-2.29.17,1.81,1.81,0,0,1-.53-1c0-.53-1.76-1.59-1.76-1.59a8.1,8.1,0,0,1-1.41.53,9.78,9.78,0,0,1-2.29,0l-.71-.53-1.58-1.76-1.41,2.46a17.9,17.9,0,0,1-1.94,1.94,48.38,48.38,0,0,0-3.67,4.41s-2.12,2.47-2.12,3.17a10.11,10.11,0,0,1-1.41,3.18C244.76,247,242.82,246.81,242.82,246.81Z"/><path class="cls-2" d="M242.82,246.81s-.7,3.49.18,4.2,2.29,1.94,3,2.64a10.25,10.25,0,0,0,1.94,1.41c.53.36,1.41,2.65.88,3.53s-1.41,1.06-1.93,2.11.17,1.94-.89,2.12-3.7-.35-5.28.18-3.53.35-4.06,1.05-1.94,1.09-2.47,1.77a11,11,0,0,0-1.37,2.26c-.53,1.05-1.06,1.23-1.77,2.29a13,13,0,0,0-1.23,3s-1.24,2.82-.71,3.88-.17,1.24,1.24,2.12a7,7,0,0,0,3.14,1.41c1.23.17,4.58,2.47,4.58,2.47s0,.49.88,1.2,2.12,1.23,2.47,2.11-.18,2.29.35,3.53,1.59.88,1.94,2.29-.35,4.76-.17,5.47.17,2.32.35,3,1.59.85.7,2.26a5.51,5.51,0,0,0-1.05,3.53c0,1.41-1.06,3,.17,3.7s1.06-.35,2.12,1.41,2.82,3,3.35,1.59,1-1.41,1.9-1.94.71-1.77,1.94-1.94,2.47-.35,2.12-2.12a11.16,11.16,0,0,1-.18-3.17,2.28,2.28,0,0,1,2.12-.18c1.06.53,1.23.88,2.29.53a6.76,6.76,0,0,1,3.17-.35c.88.18,2.47,1.06,3.35.18a5.72,5.72,0,0,0,1.41-2.65c.35-1,1.38-4.2,1.38-4.2a3.68,3.68,0,0,0,.88-3.35c-.35-2.29.35-3.35,0-4.58s-1.06-1.59-1.06-2.47.36-3.52.36-3.52a11.62,11.62,0,0,1-.36-2.26c0-.88,1.94-1.41,2.82-1.24s3.53-.88,3.53-.88a32.51,32.51,0,0,1-1.06-4.05c0-.71.36-4.41.36-5.29a22.15,22.15,0,0,0,.17-3.35c-.17-.67-.7-2.44-.7-2.44l1.58-1.41s0-5.11-.53-5.46-1.93-1.41-1.93-1.41L272,253.3a5,5,0,0,0,1.06-3,10.57,10.57,0,0,0-.71-2.61,2.65,2.65,0,0,1-1.06-1.06,13.36,13.36,0,0,1-1.23-5.11,45.49,45.49,0,0,0-1.41-4.41s0-1.93-2.44-1.58a16.23,16.23,0,0,0-2.29.17,1.81,1.81,0,0,1-.53-1c0-.53-1.76-1.59-1.76-1.59a8.1,8.1,0,0,1-1.41.53,9.78,9.78,0,0,1-2.29,0l-.71-.53-1.58-1.76-1.41,2.46a17.9,17.9,0,0,1-1.94,1.94,48.38,48.38,0,0,0-3.67,4.41s-2.12,2.47-2.12,3.17a10.11,10.11,0,0,1-1.41,3.18C244.76,247,242.82,246.81,242.82,246.81Z"/><path class="cls-2" d="M238.06,283.24a6.74,6.74,0,0,1-.88,3.31,6,6,0,0,0-1.41,3.35c0,1.06.35,1.59.35,2.29a22,22,0,0,0,0,3.35,4.3,4.3,0,0,0,.71,2.3c.7,1.05,1.76.91,1.58,2.29s-.7,2.08.89,2.08a16.08,16.08,0,0,1,3,0c.88.18,1.59-1.38,1.59-1.38s-.18-3.35-.18-4.23-.17-4.76-.17-4.76l-1.77-1.76-.35-3.53-2.47-2.11Z"/><path class="cls-2" d="M238.06,283.24a6.74,6.74,0,0,1-.88,3.31,6,6,0,0,0-1.41,3.35c0,1.06.35,1.59.35,2.29a22,22,0,0,0,0,3.35,4.3,4.3,0,0,0,.71,2.3c.7,1.05,1.76.91,1.58,2.29s-.7,2.08.89,2.08a16.08,16.08,0,0,1,3,0c.88.18,1.59-1.38,1.59-1.38s-.18-3.35-.18-4.23-.17-4.76-.17-4.76l-1.77-1.76-.35-3.53-2.47-2.11Z"/><path class="cls-2" d="M195,272.13s-.18,1.94,1.06,2.64,3.14,1.24,3.84.89,2.82-1.24,2.82-1.24a6.87,6.87,0,0,0,1.94-.35c1.06-.35,1.59-.88,2.82-1.23a6.25,6.25,0,0,1,3-.53,3.52,3.52,0,0,0,2.29-.36,6.54,6.54,0,0,1,3.67,0c1.24.36,2.47,1.41,1.59,1.94a4.29,4.29,0,0,0-1.77,1.77c-.35.7-1.37,1.23-1.37,2.11s-.71,1.24-.36,2.29a19.52,19.52,0,0,0,.89,2.12l.84,1.38a5.13,5.13,0,0,0,.36,2.46c.53,1.24.7,1.59,1.41,2.12s.88,1.76,1.94,1.76a8.75,8.75,0,0,0,3-.35c1.06-.35,1.41.18,1.94-.53s.53-1.23,1.06-1.94,1.59-.56,1.23-2.64-.88-2.44-.7-3.32,0-1.94,1.06-2.47a5,5,0,0,0,1.76-2.11,12,12,0,0,1,.88-4.59c.88-1.58.53-1.94,1.59-2.82a9.23,9.23,0,0,0,1.9-3,10.34,10.34,0,0,1,3-2.09,34.1,34.1,0,0,1,4.94-1.23h4.93l.36-2.12s1.76-1.23,1.93-2.11-.35-3.17-.88-3.53-1.76-1.41-2.64-2.11S243,251,243,251l-.18-4.2s-1.59,0-1.76-.88.7-2.29-.71-1.59-1.76,1.24-2.29,1.41,0,1.24-1.23.35-1.77-1.23-2.12-.52-1.73,1.23-1.73,1.23a3.11,3.11,0,0,0-2.11-.71c-1.06.18-2.12.89-1.77,1.41a10.68,10.68,0,0,0,1.94,1.56s3,1.06,3.32,2.11a10.05,10.05,0,0,1,.35,4.59c-.35,1.23-.67,2.82-1.55,3.35a16.72,16.72,0,0,1-2.29,1.05s-.18-1.58-1.41-1.41a5.49,5.49,0,0,0-3.18,1.94,12.05,12.05,0,0,1-.88,2.3,6.49,6.49,0,0,1-1.59,1.41,15.66,15.66,0,0,1-3,1.23,6,6,0,0,1-1.41,1.73,16.2,16.2,0,0,1-3,1.41c-1,.53-1.2.88-2.08.71a3,3,0,0,1-2.47-2.3c-.18-1.37-.35-1.9-1.41-2.08s-1.76-.85-3,0a9.32,9.32,0,0,1-2.64,1.56,29.14,29.14,0,0,0-4.23,1.41c-.88.52-2.44,1.23-2.61,1.93s-1.59,1.94-1.59,1.94l-.88-.17Z"/><path class="cls-2" d="M195,272.13s-.18,1.94,1.06,2.64,3.14,1.24,3.84.89,2.82-1.24,2.82-1.24a6.87,6.87,0,0,0,1.94-.35c1.06-.35,1.59-.88,2.82-1.23a6.25,6.25,0,0,1,3-.53,3.52,3.52,0,0,0,2.29-.36,6.54,6.54,0,0,1,3.67,0c1.24.36,2.47,1.41,1.59,1.94a4.29,4.29,0,0,0-1.77,1.77c-.35.7-1.37,1.23-1.37,2.11s-.71,1.24-.36,2.29a19.52,19.52,0,0,0,.89,2.12l.84,1.38a5.13,5.13,0,0,0,.36,2.46c.53,1.24.7,1.59,1.41,2.12s.88,1.76,1.94,1.76a8.75,8.75,0,0,0,3-.35c1.06-.35,1.41.18,1.94-.53s.53-1.23,1.06-1.94,1.59-.56,1.23-2.64-.88-2.44-.7-3.32,0-1.94,1.06-2.47a5,5,0,0,0,1.76-2.11,12,12,0,0,1,.88-4.59c.88-1.58.53-1.94,1.59-2.82a9.23,9.23,0,0,0,1.9-3,10.34,10.34,0,0,1,3-2.09,34.1,34.1,0,0,1,4.94-1.23h4.93l.36-2.12s1.76-1.23,1.93-2.11-.35-3.17-.88-3.53-1.76-1.41-2.64-2.11S243,251,243,251l-.18-4.2s-1.59,0-1.76-.88.7-2.29-.71-1.59-1.76,1.24-2.29,1.41,0,1.24-1.23.35-1.77-1.23-2.12-.52-1.73,1.23-1.73,1.23a3.11,3.11,0,0,0-2.11-.71c-1.06.18-2.12.89-1.77,1.41a10.68,10.68,0,0,0,1.94,1.56s3,1.06,3.32,2.11a10.05,10.05,0,0,1,.35,4.59c-.35,1.23-.67,2.82-1.55,3.35a16.72,16.72,0,0,1-2.29,1.05s-.18-1.58-1.41-1.41a5.49,5.49,0,0,0-3.18,1.94,12.05,12.05,0,0,1-.88,2.3,6.49,6.49,0,0,1-1.59,1.41,15.66,15.66,0,0,1-3,1.23,6,6,0,0,1-1.41,1.73,16.2,16.2,0,0,1-3,1.41c-1,.53-1.2.88-2.08.71a3,3,0,0,1-2.47-2.3c-.18-1.37-.35-1.9-1.41-2.08s-1.76-.85-3,0a9.32,9.32,0,0,1-2.64,1.56,29.14,29.14,0,0,0-4.23,1.41c-.88.52-2.44,1.23-2.61,1.93s-1.59,1.94-1.59,1.94l-.88-.17Z"/><path class="cls-2" d="M175.61,272a1.87,1.87,0,0,0-.53,1.94,3.6,3.6,0,0,1-.7,2.82c-.36.71-1.41,1.59-1.24,2.47a4.91,4.91,0,0,1,0,2.29c-.17.71-1.58,3,0,4.2s2.12,1.06,3,1.76.88,1.77,1.94,2.82a7.41,7.41,0,0,0,3.67,1.94,10.72,10.72,0,0,1,2.82,1.06c.7.35,1.41.18,2.64.35s.36.36,2.29.89A15.16,15.16,0,0,0,193,295s1.41-1.23,2.64-.52,2.44,2.29,3.67,2.64,4.06,1.23,5.29,1.06,2.12-.35,3.35-.53a5,5,0,0,1,3.17.53c1.24.53.89.35,2.47,0s2.44-.88,3.32-.18.35,1.76,2.64,1.59,3,1,4.06,1.73,2.64,1.94,3.7,1.59a7.56,7.56,0,0,1,4-.18,5.77,5.77,0,0,0,3.5,0,14.57,14.57,0,0,1,3.17-.53,4.25,4.25,0,0,0,.35-2.08c-.17-.88-1.41-.71-1.58-2.29s-.71-4.24-.71-4.24v-2.29c0-.53-.17-3.52-.17-3.52l1.58-1.77v-2.61s-.88-1.58-1.76-1.76a31,31,0,0,1-3.67-1.23,8.56,8.56,0,0,1-1.76-1.06l-1.24-2.12s-2.11,1.24-2.29,1.94a8.82,8.82,0,0,0,0,3,7.91,7.91,0,0,1,.35,2.79,10.07,10.07,0,0,1-1.76,3,2.13,2.13,0,0,0-.53,1.06s0,.18-1.94.53-1.76,1.06-3,.35a10.8,10.8,0,0,1-2.82-3.17,4.87,4.87,0,0,1-.71-2.12c-.18-1.05.15-1-.53-1.9s-1.73-1.77-1.38-2.65a22.1,22.1,0,0,0,.71-3.35,8.3,8.3,0,0,1,1.38-1.58,13.87,13.87,0,0,0,1.76-2.12s-2.44-1.41-3.67-1.23a4.5,4.5,0,0,0-1.94.7,6.08,6.08,0,0,0-2.29-.17c-1.06.17-.71.35-2.47.88l-4,1.23a18.12,18.12,0,0,0-3,.71,5.2,5.2,0,0,1-1.06.53,12.25,12.25,0,0,1-2.79-.53c-.7-.36-1.76-.71-1.76-1.24s.18-2.11.18-2.11a31.45,31.45,0,0,1-3.53.53,33.53,33.53,0,0,1-4.23-.36,14.46,14.46,0,0,0-3.88-.53c-2.11,0-3.31-.7-4.2-.35a7.31,7.31,0,0,1-3-.14Z"/><path class="cls-2" d="M175.61,272a1.87,1.87,0,0,0-.53,1.94,3.6,3.6,0,0,1-.7,2.82c-.36.71-1.41,1.59-1.24,2.47a4.91,4.91,0,0,1,0,2.29c-.17.71-1.58,3,0,4.2s2.12,1.06,3,1.76.88,1.77,1.94,2.82a7.41,7.41,0,0,0,3.67,1.94,10.72,10.72,0,0,1,2.82,1.06c.7.35,1.41.18,2.64.35s.36.36,2.29.89A15.16,15.16,0,0,0,193,295s1.41-1.23,2.64-.52,2.44,2.29,3.67,2.64,4.06,1.23,5.29,1.06,2.12-.35,3.35-.53a5,5,0,0,1,3.17.53c1.24.53.89.35,2.47,0s2.44-.88,3.32-.18.35,1.76,2.64,1.59,3,1,4.06,1.73,2.64,1.94,3.7,1.59a7.56,7.56,0,0,1,4-.18,5.77,5.77,0,0,0,3.5,0,14.57,14.57,0,0,1,3.17-.53,4.25,4.25,0,0,0,.35-2.08c-.17-.88-1.41-.71-1.58-2.29s-.71-4.24-.71-4.24v-2.29c0-.53-.17-3.52-.17-3.52l1.58-1.77v-2.61s-.88-1.58-1.76-1.76a31,31,0,0,1-3.67-1.23,8.56,8.56,0,0,1-1.76-1.06l-1.24-2.12s-2.11,1.24-2.29,1.94a8.82,8.82,0,0,0,0,3,7.91,7.91,0,0,1,.35,2.79,10.07,10.07,0,0,1-1.76,3,2.13,2.13,0,0,0-.53,1.06s0,.18-1.94.53-1.76,1.06-3,.35a10.8,10.8,0,0,1-2.82-3.17,4.87,4.87,0,0,1-.71-2.12c-.18-1.05.15-1-.53-1.9s-1.73-1.77-1.38-2.65a22.1,22.1,0,0,0,.71-3.35,8.3,8.3,0,0,1,1.38-1.58,13.87,13.87,0,0,0,1.76-2.12s-2.44-1.41-3.67-1.23a4.5,4.5,0,0,0-1.94.7,6.08,6.08,0,0,0-2.29-.17c-1.06.17-.71.35-2.47.88l-4,1.23a18.12,18.12,0,0,0-3,.71,5.2,5.2,0,0,1-1.06.53,12.25,12.25,0,0,1-2.79-.53c-.7-.36-1.76-.71-1.76-1.24s.18-2.11.18-2.11a31.45,31.45,0,0,1-3.53.53,33.53,33.53,0,0,1-4.23-.36,14.46,14.46,0,0,0-3.88-.53c-2.11,0-3.31-.7-4.2-.35a7.31,7.31,0,0,1-3-.14Z"/><path class="cls-2" d="M314.79,239.93s3.18,0,4.59-1.05,5.25-3,6-3.53a24.1,24.1,0,0,1,3.88-2.64c1.23-.53,3.52-.18,3.7.7s.17,3.35.35,4.23a26,26,0,0,0,2.82,4.76,17.66,17.66,0,0,1,2.12,5.47c.67,2.79.67,4.72,3,7.19s4.23,7.79,6,10.58,1.41,4.73,2.82,7.72,2.65,3.88,4.41,6.53,1,3.67,3,6.49a26.79,26.79,0,0,1,3.52,7.58c1.06,3,1.94,6.66,3,8.6s3,8.29,4.05,10.23,1.77,8.43,1.77,8.43a4.14,4.14,0,0,0-2.12-1.93c-1.76-.88-1.24-2.11-2.64-2.11a9.69,9.69,0,0,1-4.23-.88c-1.58-.7-2.81-1.41-4.75-.88s-1.76.18-3.69.35-2.29-.53-4.23,0-1.4,1.41-4.22.88-.52-1.23-3.34-.7-2.64-.35-4.75.17-2.47,1.24-3.52.36a8.9,8.9,0,0,1-2.47-2.64c-.7-1.23-.87-1.59-2.63-1.23s-.53,1.05-3,.17a8.11,8.11,0,0,0-3.53-.7l-2.81-1.76-2.11-3.53,1.58-2.8a4.77,4.77,0,0,1,.18-2.12,20.09,20.09,0,0,0,1.05-2.64c.35-1.05,0-3.17.18-3.87s.54-3,.54-3l1.23-3.17.34-1.58s1.23-1.05.88-1.76-.32-.38-.86-1.25-1.43-2.1-1.43-2.1-1.41.18-1.76.71-1.05-.16-1.05-.16-.36-.19-.18-.9a4,4,0,0,1,.54-1.22,9.32,9.32,0,0,0,.35-2.64l1.06-.88a5.72,5.72,0,0,0,.34-1.77c0-.88-.86-.53-.17-1.76a9.34,9.34,0,0,0,.87-3.16l-1-1.77-.19-2.45.18-2.3.36-2.1a2.92,2.92,0,0,0,0-2.29,11.19,11.19,0,0,1-.71-2.29,2.19,2.19,0,0,0-.52-1.76c-.71-.7-.52-.36-.88-1.24a12.39,12.39,0,0,1-.35-3.17,4.52,4.52,0,0,0-.53-2.64,16.23,16.23,0,0,0-1.06-1.4c-.53-.7-1.23-.7-.35-1.23s.54-1,1.41-1.57a2.24,2.24,0,0,0,.88-1.77l-.88-1.23Z"/><path class="cls-2" d="M314.79,239.93s3.18,0,4.59-1.05,5.25-3,6-3.53a24.1,24.1,0,0,1,3.88-2.64c1.23-.53,3.52-.18,3.7.7s.17,3.35.35,4.23a26,26,0,0,0,2.82,4.76,17.66,17.66,0,0,1,2.12,5.47c.67,2.79.67,4.72,3,7.19s4.23,7.79,6,10.58,1.41,4.73,2.82,7.72,2.65,3.88,4.41,6.53,1,3.67,3,6.49a26.79,26.79,0,0,1,3.52,7.58c1.06,3,1.94,6.66,3,8.6s3,8.29,4.05,10.23,1.77,8.43,1.77,8.43a4.14,4.14,0,0,0-2.12-1.93c-1.76-.88-1.24-2.11-2.64-2.11a9.69,9.69,0,0,1-4.23-.88c-1.58-.7-2.81-1.41-4.75-.88s-1.76.18-3.69.35-2.29-.53-4.23,0-1.4,1.41-4.22.88-.52-1.23-3.34-.7-2.64-.35-4.75.17-2.47,1.24-3.52.36a8.9,8.9,0,0,1-2.47-2.64c-.7-1.23-.87-1.59-2.63-1.23s-.53,1.05-3,.17a8.11,8.11,0,0,0-3.53-.7l-2.81-1.76-2.11-3.53,1.58-2.8a4.77,4.77,0,0,1,.18-2.12,20.09,20.09,0,0,0,1.05-2.64c.35-1.05,0-3.17.18-3.87s.54-3,.54-3l1.23-3.17.34-1.58s1.23-1.05.88-1.76-.32-.38-.86-1.25-1.43-2.1-1.43-2.1-1.41.18-1.76.71-1.05-.16-1.05-.16-.36-.19-.18-.9a4,4,0,0,1,.54-1.22,9.32,9.32,0,0,0,.35-2.64l1.06-.88a5.72,5.72,0,0,0,.34-1.77c0-.88-.86-.53-.17-1.76a9.34,9.34,0,0,0,.87-3.16l-1-1.77-.19-2.45.18-2.3.36-2.1a2.92,2.92,0,0,0,0-2.29,11.19,11.19,0,0,1-.71-2.29,2.19,2.19,0,0,0-.52-1.76c-.71-.7-.52-.36-.88-1.24a12.39,12.39,0,0,1-.35-3.17,4.52,4.52,0,0,0-.53-2.64,16.23,16.23,0,0,0-1.06-1.4c-.53-.7-1.23-.7-.35-1.23s.54-1,1.41-1.57a2.24,2.24,0,0,0,.88-1.77l-.88-1.23Z"/><path class="cls-2" d="M333.26,317c-.35-.17-.35.71-1.76.88s-3,.17-3.51.71a20.71,20.71,0,0,1-1.94,1.76c-.88.7-5.11,1.41-5.11,1.41s-2.63.17-3.69,1.76a16.2,16.2,0,0,0-1.76,3.51c-.88,1.94-1.58,2.12-1.76,2.82s-1.23,1.41-1.05,3.34.52,2.11-.53,3-1.58,2.29-1.23,3a7.41,7.41,0,0,1,.17,2.64s-1.4,1.76-2.46,1.23a14.16,14.16,0,0,0-2.81-1.41c-.88-.18-1.24-1.41-3-.88s-2.11-.53-3.52.35-2.46.53-3,1.76-1.41,1.76-2.64,2.82-1.58,1.76-3.52,1.76-4.22.35-5.1.17a21.55,21.55,0,0,0-2.82-.17s-3.87.7-4.92.7-1.94.7-1.94-.53,1.23-4.4,1.41-5.63,1.06-2.1,1.23-3.87-.35-1.76.71-3.7a18,18,0,0,0,1.58-6.86,7.77,7.77,0,0,1,.88-3.87,6.36,6.36,0,0,0,.7-3.52,6.43,6.43,0,0,1,.35-3.17,15.29,15.29,0,0,1,1.06-2.28c.35-.71-.18-2.64,1-3a19.35,19.35,0,0,1,4.23-.53c.88,0,1.41.35,1.76-1.41s.53-2.46,1.76-3a4.19,4.19,0,0,0,1.93-3.17c0-.7-.7-3.87-.7-3.87l.35-1.58,1.94,1.4,2.11-.35a7.39,7.39,0,0,0,2.11,1.06,7.58,7.58,0,0,1,2.81,1.06c.71.52,2.63,2.09,2.63,2.09a19.48,19.48,0,0,0,2.83-.16,11.28,11.28,0,0,1,2.46,0,10.54,10.54,0,0,0,1.59,1.76,29.58,29.58,0,0,0,3.52,1.76l2.11,3.53,2.81,1.76,5.11,1.05,1.41-.52H329S331.5,317,333.26,317Z"/><path class="cls-2" d="M333.26,317c-.35-.17-.35.71-1.76.88s-3,.17-3.51.71a20.71,20.71,0,0,1-1.94,1.76c-.88.7-5.11,1.41-5.11,1.41s-2.63.17-3.69,1.76a16.2,16.2,0,0,0-1.76,3.51c-.88,1.94-1.58,2.12-1.76,2.82s-1.23,1.41-1.05,3.34.52,2.11-.53,3-1.58,2.29-1.23,3a7.41,7.41,0,0,1,.17,2.64s-1.4,1.76-2.46,1.23a14.16,14.16,0,0,0-2.81-1.41c-.88-.18-1.24-1.41-3-.88s-2.11-.53-3.52.35-2.46.53-3,1.76-1.41,1.76-2.64,2.82-1.58,1.76-3.52,1.76-4.22.35-5.1.17a21.55,21.55,0,0,0-2.82-.17s-3.87.7-4.92.7-1.94.7-1.94-.53,1.23-4.4,1.41-5.63,1.06-2.1,1.23-3.87-.35-1.76.71-3.7a18,18,0,0,0,1.58-6.86,7.77,7.77,0,0,1,.88-3.87,6.36,6.36,0,0,0,.7-3.52,6.43,6.43,0,0,1,.35-3.17,15.29,15.29,0,0,1,1.06-2.28c.35-.71-.18-2.64,1-3a19.35,19.35,0,0,1,4.23-.53c.88,0,1.41.35,1.76-1.41s.53-2.46,1.76-3a4.19,4.19,0,0,0,1.93-3.17c0-.7-.7-3.87-.7-3.87l.35-1.58,1.94,1.4,2.11-.35a7.39,7.39,0,0,0,2.11,1.06,7.58,7.58,0,0,1,2.81,1.06c.71.52,2.63,2.09,2.63,2.09a19.48,19.48,0,0,0,2.83-.16,11.28,11.28,0,0,1,2.46,0,10.54,10.54,0,0,0,1.59,1.76,29.58,29.58,0,0,0,3.52,1.76l2.11,3.53,2.81,1.76,5.11,1.05,1.41-.52H329S331.5,317,333.26,317Z"/><path class="cls-2" d="M252.32,310.67a1.46,1.46,0,0,1-.35,1.76,4.68,4.68,0,0,0-1.23,1.41s-.35,1.05,1.23,1.05,3,1.41,2.29,1.94-2.11-.18-2.82,1.05.18,1.77-.88,2.65a4.85,4.85,0,0,1-2.64,1.4c-.7,0-2.29.71-2.11,1.76s-.18,3.17.53,4.05,1,.88,1.93,1.76.53,1.93.71,2.64.7,2.81,1.94,3.16a3,3,0,0,1,2.28,1.59,35.6,35.6,0,0,1,2.64,4.57c.88,1.76.53,2.47,2.29,4.05s1.76,2.29,3,1.76a1.81,1.81,0,0,1,2.64.7c.7,1.06,1.23,1.94,2.64,1.41a11.46,11.46,0,0,1,4.4-.88c.88.18,1.05,1.41,1.93.18a3.13,3.13,0,0,1,2.64-1.06l.71-2.64s.7-3.34,1.05-4.4.88-.52.88-2.46-.17-2.11.35-3a28,28,0,0,0,1.41-3.52l.53-4.05.35-2.64,1.23-3.51v-3.18l1.41-3.51s0-2.82,1.76-3.17A47.55,47.55,0,0,1,290,311l1.23-3.52.88-.7,1.93-3.17-.7-3.87.35-1.58-1.4-.88.34-1.05.53-4.76-1.76-1.94-.17-1.93-1.07-.71-1-1.93h-1.25l-3.14.88-4.41-2.28-2.11-2.1-3-1.05-.7-1.94-1.4,1.4-3,.35-1.61,1.07.36,2.26-.16,2.3-.2,1.22,1.06,2.47,0,6.34-.9,1.59-2.1,5.63s-.7,1.75-1.4,1.75a7.13,7.13,0,0,1-1.76-.35l-1.76-.35-1.59.35-2.28.18-1.59-.88-1.24.34.19,4.76-1.23.35-.9.18Z"/><path class="cls-2" d="M252.32,310.67a1.46,1.46,0,0,1-.35,1.76,4.68,4.68,0,0,0-1.23,1.41s-.35,1.05,1.23,1.05,3,1.41,2.29,1.94-2.11-.18-2.82,1.05.18,1.77-.88,2.65a4.85,4.85,0,0,1-2.64,1.4c-.7,0-2.29.71-2.11,1.76s-.18,3.17.53,4.05,1,.88,1.93,1.76.53,1.93.71,2.64.7,2.81,1.94,3.16a3,3,0,0,1,2.28,1.59,35.6,35.6,0,0,1,2.64,4.57c.88,1.76.53,2.47,2.29,4.05s1.76,2.29,3,1.76a1.81,1.81,0,0,1,2.64.7c.7,1.06,1.23,1.94,2.64,1.41a11.46,11.46,0,0,1,4.4-.88c.88.18,1.05,1.41,1.93.18a3.13,3.13,0,0,1,2.64-1.06l.71-2.64s.7-3.34,1.05-4.4.88-.52.88-2.46-.17-2.11.35-3a28,28,0,0,0,1.41-3.52l.53-4.05.35-2.64,1.23-3.51v-3.18l1.41-3.51s0-2.82,1.76-3.17A47.55,47.55,0,0,1,290,311l1.23-3.52.88-.7,1.93-3.17-.7-3.87.35-1.58-1.4-.88.34-1.05.53-4.76-1.76-1.94-.17-1.93-1.07-.71-1-1.93h-1.25l-3.14.88-4.41-2.28-2.11-2.1-3-1.05-.7-1.94-1.4,1.4-3,.35-1.61,1.07.36,2.26-.16,2.3-.2,1.22,1.06,2.47,0,6.34-.9,1.59-2.1,5.63s-.7,1.75-1.4,1.75a7.13,7.13,0,0,1-1.76-.35l-1.76-.35-1.59.35-2.28.18-1.59-.88-1.24.34.19,4.76-1.23.35-.9.18Z"/><path class="cls-3" d="M164.69,278.47s-.87,2.64.53,3.17,1.06.88.53,3a12,12,0,0,0-.7,3.87c0,1.58-.53.7-1.76,2.64s-.53,1.93-2.12,4.05-1.76,2.11-1.76,3.34a8.65,8.65,0,0,1-1.23,4.05c-.88,1.76-1.76,3.34-1.58,5.28s-.35,3.34,1.23,3.69a22.51,22.51,0,0,0,4.93.35c1.76,0,3.87-1.41,5.1.53s-.17,3.69,1.76,4.57,2.29,1.77,2.29,3.35.7,4.22,2.28,5.45,2.46,1.41,4.4,3.35,2.29,2.11,2.65,4.39,0,3.53,1.58,3.17,1.23-1.76,2.64-2.46,2.46-1.23,3.69-.35a4.19,4.19,0,0,0,3.17.88c1.41,0,3,2.81,2.81,3.52s-1.4,2.11-.7,4.22,1.23,3.34,1.93,5.1.18,2.28.71,4.58,1.05,3.69-.71,4.57a7,7,0,0,1-3.51.88c-.71,0,2.28,3.52,2.28,3.52s0,2.11.88,2.46.88.88,1.59,1.76,2.11,2.29,2.11,2.29.18,1.23,1.23,1.23,1.41.18,3.17.35,3,0,4.4.53l2.81,1.06a15.47,15.47,0,0,0,2.11,2.46c.88.71,1.77,1.24,2.65.53s1.58-1.93,3-.88a6.43,6.43,0,0,0,2.81,1.23l2.46,1.41s-.35,0,1.06.88,1.23,2.11,3,1.94a2.32,2.32,0,0,0,2.29-2.29,29.09,29.09,0,0,1,.88-4.22c.52-1.77,1.23-3.35,0-4.58a10.28,10.28,0,0,0-3-1.94,11.93,11.93,0,0,1-1.76-2.64c-.53-1.23-1.76-2.63-.53-3.69a45.28,45.28,0,0,0,3.34-3.52,12.7,12.7,0,0,0,0-2.82,13.23,13.23,0,0,1-.35-3.52c.18-1.05,0-1.23,1.76-1.4s1.76,0,2.47-.71,2.63-.52,3.69-1.23a6.69,6.69,0,0,0,1.58-1.4l2.64-.18a7.73,7.73,0,0,0,3-1.23c1.06-.88,1.23-1.41,2.47-1.41a5,5,0,0,0,2.46-.88,6.9,6.9,0,0,0,3.17-1.41,2.73,2.73,0,0,0,.7-2.46s-.35-1.06-1.23-1.24-1.59,0-1.94-.7a7.75,7.75,0,0,1-1.05-2.81,3.08,3.08,0,0,0-.71-2.64c-.88-.88-2.46-2.29-2.46-3.52s-.88-1.23,0-2.29.88-1.58,2.11-1.76a6.48,6.48,0,0,0,2.64-1.4l.71-1.41a.75.75,0,0,1,.17-1.24,15.73,15.73,0,0,1,2.82-1.05s0-1.23-.7-1.41a8.65,8.65,0,0,1-1.59-.53c-.88-.35-2.12-.17-1.23-1.05a10.4,10.4,0,0,0,1.23-1.41l.35-1.76s-.87-.53-1.23.18a11,11,0,0,1-1.06,1.58s-.32.36-.86.89a2.15,2.15,0,0,1-1.6.34,24.5,24.5,0,0,1-1.75-1.93,4.86,4.86,0,0,0-1.24-1.06L243,308.91s.35-1.42.53-2.29.35-2.28.35-2.28,1.75-1.41,1.05-2.29-.52-1.91-1.05-1.22-.53,1-1.59,1.38a7.58,7.58,0,0,1-3,0h-1.24a24.09,24.09,0,0,1-3.86.54c-1.41,0-1.38.33-2.81,0a5.44,5.44,0,0,0-2.82-.16,3.84,3.84,0,0,1-2.11.35,5.76,5.76,0,0,1-2.82-1.6c-.7-.69-.7-1.22-1.93-1.57s-1.08,0-2.13-.16-.51.51-1.57-.54-1.23-1.41-2.11-1.41a20,20,0,0,0-3.7,1.05l-2.29-.88a8.53,8.53,0,0,0-3.16,0,12.13,12.13,0,0,1-5.1.18,8.89,8.89,0,0,1-3.7-1.41,14.35,14.35,0,0,1-2.28-2.1s-.54-.54-1.59.17-.35.88-1.76.7a18.34,18.34,0,0,1-3.7-1.05,7.33,7.33,0,0,0-2.46-.71,22.78,22.78,0,0,1-3.17-.53,32.1,32.1,0,0,1-3.52-1.76,19.21,19.21,0,0,1-2.11-2.28,15.12,15.12,0,0,0-1.76-1.76c-.7-.53-2.1-.91-2.46-1.6a3.88,3.88,0,0,1-.53-2.8c.35-.88.53-1.4.53-1.4l.18-2.83s3-4,1.4-6l-5.45,4.23Z"/><g class="cls-4"><path class="cls-2" d="M142,283.85l5.41,2.67,4.18-3.67s14.81-10.3,15.09-12.81,1.39-9.24,1.39-10.91.84-3.34.56-5-1.29-4.13-.79-7.38.79-16.67.79-16.67.38-3.14-.79-5.05a6.61,6.61,0,0,1-1.16-3s3.06-.84,3.62-2.51,2.45-6.12,3.59-6.84,1.42-3.51,1.7-4.91A33,33,0,0,1,177.3,203a13.51,13.51,0,0,0,.56-3.9l.28-2.79s4.37-9.19,5.69-11.17a19.77,19.77,0,0,0,2.71-8.42c0-2.23-.56-8.08.56-11.14s.56-9,1.11-10.08.84-4.18,1.12-5.29-.28-4.13.83-7a22.39,22.39,0,0,0,1.68-7c0-1.39.55-5.57.55-5.57l.24-3.25,12.37.82a4,4,0,0,0,.25-3.18,14.1,14.1,0,0,1,0-5s.28-1.39.56-2.51-.56-2.5-1.11-3.62a17.49,17.49,0,0,0-1.4-2.23l-1-1.41a8,8,0,0,0-7.69-2.81c-5,.88-5.79,1.08-7.21.12s-7.88-3.74-7.88-3.74l-6.13-3.62-3.59-2.55-3.47-3.2s-.52,5.41-4,7.54c-.11.17-2.07,3.53-2.07,3.53l-3.64,3,.84,1.8-.5,5.2.5,1.68,1.85,2.35s.89,1.45-2,2.35c.17.06-1.51,1.46-1.51,1.46V126l.56,1.62-.28,3.36,1.68,4.2-.28,1.22.28,1.85.23,3.36-3,5-4.2-1.39-2.18,2.07-4.17,4-1.51,1.17-3.86.56.5,3-1.51,4.2-1,5.51L135.36,170l-.5,2.8,1.12,2.79,3.75,1.45,1,3-3.08,3.36s-1.12,3.35-3.08,3.35c-.28.28-2.4-1.61-1.9-3.18.5-.17-1.18-1.29-1.18-1.29a10.91,10.91,0,0,1-2.68,1.79,28.4,28.4,0,0,0-4.17,2.68l-1.18,2,.17,2.85-4.7.45-6.59-.92-1.52,2,.84,3.32s8.39,22.36,9.23,27.12c.56,2.79,2,10.87,3.36,14.23s3.6,12.28,5.28,14.52c1.12,2.8,2.24,11,4.76,13.15a33.11,33.11,0,0,0,3.36,3.05l.53,2.85,3.11,9.18Z"/><path class="cls-2" d="M142,283.85l5.41,2.67,4.18-3.67s14.81-10.3,15.09-12.81,1.39-9.24,1.39-10.91.84-3.34.56-5-1.29-4.13-.79-7.38.79-16.67.79-16.67.38-3.14-.79-5.05a6.61,6.61,0,0,1-1.16-3s3.06-.84,3.62-2.51,2.45-6.12,3.59-6.84,1.42-3.51,1.7-4.91A33,33,0,0,1,177.3,203a13.51,13.51,0,0,0,.56-3.9l.28-2.79s4.37-9.19,5.69-11.17a19.77,19.77,0,0,0,2.71-8.42c0-2.23-.56-8.08.56-11.14s.56-9,1.11-10.08.84-4.18,1.12-5.29-.28-4.13.83-7a22.39,22.39,0,0,0,1.68-7c0-1.39.55-5.57.55-5.57l.24-3.25,12.37.82a4,4,0,0,0,.25-3.18,14.1,14.1,0,0,1,0-5s.28-1.39.56-2.51-.56-2.5-1.11-3.62a17.49,17.49,0,0,0-1.4-2.23l-1-1.41a8,8,0,0,0-7.69-2.81c-5,.88-5.79,1.08-7.21.12s-7.88-3.74-7.88-3.74l-6.13-3.62-3.59-2.55-3.47-3.2s-.52,5.41-4,7.54c-.11.17-2.07,3.53-2.07,3.53l-3.64,3,.84,1.8-.5,5.2.5,1.68,1.85,2.35s.89,1.45-2,2.35c.17.06-1.51,1.46-1.51,1.46V126l.56,1.62-.28,3.36,1.68,4.2-.28,1.22.28,1.85.23,3.36-3,5-4.2-1.39-2.18,2.07-4.17,4-1.51,1.17-3.86.56.5,3-1.51,4.2-1,5.51L135.36,170l-.5,2.8,1.12,2.79,3.75,1.45,1,3-3.08,3.36s-1.12,3.35-3.08,3.35c-.28.28-2.4-1.61-1.9-3.18.5-.17-1.18-1.29-1.18-1.29a10.91,10.91,0,0,1-2.68,1.79,28.4,28.4,0,0,0-4.17,2.68l-1.18,2,.17,2.85-4.7.45-6.59-.92-1.52,2,.84,3.32s8.39,22.36,9.23,27.12c.56,2.79,2,10.87,3.36,14.23s3.6,12.28,5.28,14.52c1.12,2.8,2.24,11,4.76,13.15a33.11,33.11,0,0,0,3.36,3.05l.53,2.85,3.11,9.18Z"/></g><path class="cls-5" d="M164.69,278.47s-.87,2.64.53,3.17,1.06.88.53,3a12,12,0,0,0-.7,3.87c0,1.58-.53.7-1.76,2.64s-.53,1.93-2.12,4.05-1.76,2.11-1.76,3.34a8.65,8.65,0,0,1-1.23,4.05c-.88,1.76-1.76,3.34-1.58,5.28s-.35,3.34,1.23,3.69a22.51,22.51,0,0,0,4.93.35c1.76,0,3.87-1.41,5.1.53s-.17,3.69,1.76,4.57,2.29,1.77,2.29,3.35.7,4.22,2.28,5.45,2.46,1.41,4.4,3.35,2.29,2.11,2.65,4.39,0,3.53,1.58,3.17,1.23-1.76,2.64-2.46,2.46-1.23,3.69-.35a4.19,4.19,0,0,0,3.17.88c1.41,0,3,2.81,2.81,3.52s-1.4,2.11-.7,4.22,1.23,3.34,1.93,5.1.18,2.28.71,4.58,1.05,3.69-.71,4.57a7,7,0,0,1-3.51.88c-.71,0,2.28,3.52,2.28,3.52s0,2.11.88,2.46.88.88,1.59,1.76,2.11,2.29,2.11,2.29.18,1.23,1.23,1.23,1.41.18,3.17.35,3,0,4.4.53l2.81,1.06a15.47,15.47,0,0,0,2.11,2.46c.88.71,1.77,1.24,2.65.53s1.58-1.93,3-.88a6.43,6.43,0,0,0,2.81,1.23l2.46,1.41s-.35,0,1.06.88,1.23,2.11,3,1.94a2.32,2.32,0,0,0,2.29-2.29,29.09,29.09,0,0,1,.88-4.22c.52-1.77,1.23-3.35,0-4.58a10.28,10.28,0,0,0-3-1.94,11.93,11.93,0,0,1-1.76-2.64c-.53-1.23-1.76-2.63-.53-3.69a45.28,45.28,0,0,0,3.34-3.52,12.7,12.7,0,0,0,0-2.82,13.23,13.23,0,0,1-.35-3.52c.18-1.05,0-1.23,1.76-1.4s1.76,0,2.47-.71,2.63-.52,3.69-1.23a6.69,6.69,0,0,0,1.58-1.4l2.64-.18a7.73,7.73,0,0,0,3-1.23c1.06-.88,1.23-1.41,2.47-1.41a5,5,0,0,0,2.46-.88,6.9,6.9,0,0,0,3.17-1.41,2.73,2.73,0,0,0,.7-2.46s-.35-1.06-1.23-1.24-1.59,0-1.94-.7a7.75,7.75,0,0,1-1.05-2.81,3.08,3.08,0,0,0-.71-2.64c-.88-.88-2.46-2.29-2.46-3.52s-.88-1.23,0-2.29.88-1.58,2.11-1.76a6.48,6.48,0,0,0,2.64-1.4l.71-1.41a.75.75,0,0,1,.17-1.24,15.73,15.73,0,0,1,2.82-1.05s0-1.23-.7-1.41a8.65,8.65,0,0,1-1.59-.53c-.88-.35-2.12-.17-1.23-1.05a10.4,10.4,0,0,0,1.23-1.41l.35-1.76s-.87-.53-1.23.18a11,11,0,0,1-1.06,1.58s-.32.36-.86.89a2.15,2.15,0,0,1-1.6.34,24.5,24.5,0,0,1-1.75-1.93,4.86,4.86,0,0,0-1.24-1.06L243,308.91s.35-1.42.53-2.29.35-2.28.35-2.28,1.75-1.41,1.05-2.29-.52-1.91-1.05-1.22-.53,1-1.59,1.38a7.58,7.58,0,0,1-3,0h-1.24a24.09,24.09,0,0,1-3.86.54c-1.41,0-1.38.33-2.81,0a5.44,5.44,0,0,0-2.82-.16,3.84,3.84,0,0,1-2.11.35,5.76,5.76,0,0,1-2.82-1.6c-.7-.69-.7-1.22-1.93-1.57s-1.08,0-2.13-.16-.51.51-1.57-.54-1.23-1.41-2.11-1.41a20,20,0,0,0-3.7,1.05l-2.29-.88a8.53,8.53,0,0,0-3.16,0,12.13,12.13,0,0,1-5.1.18,8.89,8.89,0,0,1-3.7-1.41,14.35,14.35,0,0,1-2.28-2.1s-.54-.54-1.59.17-.35.88-1.76.7a18.34,18.34,0,0,1-3.7-1.05,7.33,7.33,0,0,0-2.46-.71,22.78,22.78,0,0,1-3.17-.53,32.1,32.1,0,0,1-3.52-1.76,19.21,19.21,0,0,1-2.11-2.28,15.12,15.12,0,0,0-1.76-1.76c-.7-.53-2.1-.91-2.46-1.6a3.88,3.88,0,0,1-.53-2.8c.35-.88.53-1.4.53-1.4l.18-2.83s3-4,1.4-6l-5.45,4.23Z"/><path class="cls-2" d="M192.85,358.36s-3-.71-3.7.17-.88,2.29-1.58,3.52-2.64,3.52-2.64,5.45.35,3.7-.18,4.41-1.76,3.87,0,4.92,4.75,0,6,.35,1.75,1.76,4,1.94,4.23-.53,5.11.18,1.58,3.51,1.58,3.51-.53,1.41,1.41,1.24,4.57-1.24,5.1-2.12a9.28,9.28,0,0,1,2.64-2.63,5.7,5.7,0,0,0,1.76-1.41,14.92,14.92,0,0,0,1.93-3.7s-2.11-3.17-3-3.34-4.22-1.23-4.22-1.23a13,13,0,0,1-3-.36c-1.23-.35-4.05-.88-4.05-.88s.88.53-.35-.7a20.74,20.74,0,0,1-2.11-2.29c-.71-.88-1.24-1.05-1.59-1.76a14,14,0,0,1-.88-2.46c-.17-.7-1.4-1.41-1.4-1.41Z"/><path class="cls-2" d="M192.85,358.36s-3-.71-3.7.17-.88,2.29-1.58,3.52-2.64,3.52-2.64,5.45.35,3.7-.18,4.41-1.76,3.87,0,4.92,4.75,0,6,.35,1.75,1.76,4,1.94,4.23-.53,5.11.18,1.58,3.51,1.58,3.51-.53,1.41,1.41,1.24,4.57-1.24,5.1-2.12a9.28,9.28,0,0,1,2.64-2.63,5.7,5.7,0,0,0,1.76-1.41,14.92,14.92,0,0,0,1.93-3.7s-2.11-3.17-3-3.34-4.22-1.23-4.22-1.23a13,13,0,0,1-3-.36c-1.23-.35-4.05-.88-4.05-.88s.88.53-.35-.7a20.74,20.74,0,0,1-2.11-2.29c-.71-.88-1.24-1.05-1.59-1.76a14,14,0,0,1-.88-2.46c-.17-.7-1.4-1.41-1.4-1.41Z"/><path class="cls-2" d="M292.27,347.09a9.39,9.39,0,0,0-3.17,2.11,5.48,5.48,0,0,0-1.94,4.75c0,1.42.53,4.58.36,5.46s-1.24,4.58-1.24,4.58l-1.06,3.16s-.7,1.23,0,3.7.88,2.82.53,4.93-.88,1.93-.7,3.69a13.53,13.53,0,0,1,0,4.58c-.35,1.58-.88,3.51-.88,3.51s-1.06,2.47-1.58,3.53a6.24,6.24,0,0,0-.88,4.22c.35,1.76-1.59,4.4,1.4,3.69s3.88-2.81,4.93-3,4,0,5.28,1.06,2.46,2.81,3.7,3.34,1.4,1.93,3.69-.35,1.94-3.17,3.7-4.22a7.52,7.52,0,0,0,3.52-4.58c.35-1.76.88-4.4.88-4.4s.88-.35,2.46-2.64a24.79,24.79,0,0,1,4.92-5.28c.88-.52,3-2.64,2.47-4.39A16.85,16.85,0,0,0,316.9,371c-.71-1.4-1.94-1.93-1.41-3.87s.7-1.93.53-3.34a9.23,9.23,0,0,1,0-3.17c.17-.88,0-1.4.17-2.46s-.17-1.23.36-2.29,1.4-2.29,1.76-3,.69-1.58,2.11-.7a7.85,7.85,0,0,0,3.52.87s1.58-2.28-.18-2.46a8.3,8.3,0,0,1-3.34-1.23s-1.94-1.05-2.29-.18-.7,2.64-1.58,1.41-1.41-1.58-1.59-2.46-.7-2.82-.7-2.82a2,2,0,0,1-2.11-1.23,15.44,15.44,0,0,0-1.06-2.28s-1.58,1.76-2.46,1.23a21.17,21.17,0,0,0-2.11-1.06,5.06,5.06,0,0,0-2.46-1.23h-1.94a2.82,2.82,0,0,0-2.82.35c-1.41,1.06-1.58.71-2.28,1.23A16.66,16.66,0,0,0,294.9,345Z"/><path class="cls-2" d="M292.27,347.09a9.39,9.39,0,0,0-3.17,2.11,5.48,5.48,0,0,0-1.94,4.75c0,1.42.53,4.58.36,5.46s-1.24,4.58-1.24,4.58l-1.06,3.16s-.7,1.23,0,3.7.88,2.82.53,4.93-.88,1.93-.7,3.69a13.53,13.53,0,0,1,0,4.58c-.35,1.58-.88,3.51-.88,3.51s-1.06,2.47-1.58,3.53a6.24,6.24,0,0,0-.88,4.22c.35,1.76-1.59,4.4,1.4,3.69s3.88-2.81,4.93-3,4,0,5.28,1.06,2.46,2.81,3.7,3.34,1.4,1.93,3.69-.35,1.94-3.17,3.7-4.22a7.52,7.52,0,0,0,3.52-4.58c.35-1.76.88-4.4.88-4.4s.88-.35,2.46-2.64a24.79,24.79,0,0,1,4.92-5.28c.88-.52,3-2.64,2.47-4.39A16.85,16.85,0,0,0,316.9,371c-.71-1.4-1.94-1.93-1.41-3.87s.7-1.93.53-3.34a9.23,9.23,0,0,1,0-3.17c.17-.88,0-1.4.17-2.46s-.17-1.23.36-2.29,1.4-2.29,1.76-3,.69-1.58,2.11-.7a7.85,7.85,0,0,0,3.52.87s1.58-2.28-.18-2.46a8.3,8.3,0,0,1-3.34-1.23s-1.94-1.05-2.29-.18-.7,2.64-1.58,1.41-1.41-1.58-1.59-2.46-.7-2.82-.7-2.82a2,2,0,0,1-2.11-1.23,15.44,15.44,0,0,0-1.06-2.28s-1.58,1.76-2.46,1.23a21.17,21.17,0,0,0-2.11-1.06,5.06,5.06,0,0,0-2.46-1.23h-1.94a2.82,2.82,0,0,0-2.82.35c-1.41,1.06-1.58.71-2.28,1.23A16.66,16.66,0,0,0,294.9,345Z"/><path class="cls-2" d="M258.13,345.51a22.65,22.65,0,0,1-.88,5.1,8.32,8.32,0,0,0-.7,3.88,9.93,9.93,0,0,1-1.24,4.22,20.26,20.26,0,0,0-.88,4.22s.88,2.29-.35,3.17-3,.88-3.87,1.58-1.76,1.06-3.7.7-2.28-.7-3.69,0-.88,1.24-3,.71-2.46-.88-3.7-.35-4.22-.18-4.22-.18-.53-1.58-3.34-3.17c-1.76-2.28-2.82-4.39-2.82-5.1s-.7-.17.53-1.23a45.28,45.28,0,0,0,3.34-3.52V352c0-.7-.35-4-.35-4h3.17l2.29-1.05,2.46-1.06,1.58-1.4h1.59l1-.18,3-1.23,1.06-.88,1.41-.53,5.63-2.29.7-2.46,2.64,4.57.71,2.12Z"/><path class="cls-2" d="M258.13,345.51a22.65,22.65,0,0,1-.88,5.1,8.32,8.32,0,0,0-.7,3.88,9.93,9.93,0,0,1-1.24,4.22,20.26,20.26,0,0,0-.88,4.22s.88,2.29-.35,3.17-3,.88-3.87,1.58-1.76,1.06-3.7.7-2.28-.7-3.69,0-.88,1.24-3,.71-2.46-.88-3.7-.35-4.22-.18-4.22-.18-.53-1.58-3.34-3.17c-1.76-2.28-2.82-4.39-2.82-5.1s-.7-.17.53-1.23a45.28,45.28,0,0,0,3.34-3.52V352c0-.7-.35-4-.35-4h3.17l2.29-1.05,2.46-1.06,1.58-1.4h1.59l1-.18,3-1.23,1.06-.88,1.41-.53,5.63-2.29.7-2.46,2.64,4.57.71,2.12Z"/><path class="cls-2" d="M249.33,368.38a10,10,0,0,0,.88,4.76,7.86,7.86,0,0,1,1.41,4c0,1.06-.18,3-.18,3s-.52,2.82-.17,3.52,1,.36.88,1.94a30.76,30.76,0,0,0-.18,3.7c0,.88-.17,2.28,1.41,3.16a8,8,0,0,1,3,3.87A2,2,0,0,0,257.6,398c.7.17,3.17.88,4.93,1.23s4.39.88,5.63.35,4.93,0,6,.18,4.05-1.06,5.1-1.24a15.19,15.19,0,0,1,2.11-.17,27.4,27.4,0,0,0,.36-3c0-.88-.53-1.59,0-2.64s1.76-3,2.28-4.4a51.14,51.14,0,0,0,1.23-5.28,35.08,35.08,0,0,0,0-4.4,23.5,23.5,0,0,1,.53-3.87c.18-1.23-.53-3-.53-3.87s-.7-2.47,0-3.7a16,16,0,0,0,1.06-3.16c.36-.88.53-2.82.88-3.52a5.33,5.33,0,0,0,.53-3.17,20.35,20.35,0,0,1-.35-4.23c.18-.7-.35-1.05.53-2.11s1.93-2.28,1.93-2.28l1.06-1.23a11.83,11.83,0,0,1-3.87.35c-2.12-.18-4.76-.35-4.76-.35a16.13,16.13,0,0,0-3.16.52,19.54,19.54,0,0,1-2.64.71l-1.06-1.06a2.83,2.83,0,0,0-1.58.18c-.88.35-.53,1.76-1.58,1.58s0-.88-1.41-.88a12.36,12.36,0,0,0-2.47.35c-1.41.18-1.76.71-2.81.53s-.35-.7-1.76-1.41a9.09,9.09,0,0,1-1.59-.88l-2.28.71-1.76-2.29a15.22,15.22,0,0,1-.7,4.4c-.71,1.93-.88,1.58-.71,3a7.4,7.4,0,0,1-.35,4.05,12.58,12.58,0,0,0-1.58,3.87c-.18,1.23-.53,2.46-.18,3.17a1.72,1.72,0,0,1-.53,2.11,8.92,8.92,0,0,1-3,1.4A16.23,16.23,0,0,0,249.33,368.38Z"/><path class="cls-2" d="M249.33,368.38a10,10,0,0,0,.88,4.76,7.86,7.86,0,0,1,1.41,4c0,1.06-.18,3-.18,3s-.52,2.82-.17,3.52,1,.36.88,1.94a30.76,30.76,0,0,0-.18,3.7c0,.88-.17,2.28,1.41,3.16a8,8,0,0,1,3,3.87A2,2,0,0,0,257.6,398c.7.17,3.17.88,4.93,1.23s4.39.88,5.63.35,4.93,0,6,.18,4.05-1.06,5.1-1.24a15.19,15.19,0,0,1,2.11-.17,27.4,27.4,0,0,0,.36-3c0-.88-.53-1.59,0-2.64s1.76-3,2.28-4.4a51.14,51.14,0,0,0,1.23-5.28,35.08,35.08,0,0,0,0-4.4,23.5,23.5,0,0,1,.53-3.87c.18-1.23-.53-3-.53-3.87s-.7-2.47,0-3.7a16,16,0,0,0,1.06-3.16c.36-.88.53-2.82.88-3.52a5.33,5.33,0,0,0,.53-3.17,20.35,20.35,0,0,1-.35-4.23c.18-.7-.35-1.05.53-2.11s1.93-2.28,1.93-2.28l1.06-1.23a11.83,11.83,0,0,1-3.87.35c-2.12-.18-4.76-.35-4.76-.35a16.13,16.13,0,0,0-3.16.52,19.54,19.54,0,0,1-2.64.71l-1.06-1.06a2.83,2.83,0,0,0-1.58.18c-.88.35-.53,1.76-1.58,1.58s0-.88-1.41-.88a12.36,12.36,0,0,0-2.47.35c-1.41.18-1.76.71-2.81.53s-.35-.7-1.76-1.41a9.09,9.09,0,0,1-1.59-.88l-2.28.71-1.76-2.29a15.22,15.22,0,0,1-.7,4.4c-.71,1.93-.88,1.58-.71,3a7.4,7.4,0,0,1-.35,4.05,12.58,12.58,0,0,0-1.58,3.87c-.18,1.23-.53,2.46-.18,3.17a1.72,1.72,0,0,1-.53,2.11,8.92,8.92,0,0,1-3,1.4A16.23,16.23,0,0,0,249.33,368.38Z"/><path class="cls-2" d="M202,384.05s-.53,1.93-.88,3.34-1.94,2.64-3.17,4.05-1.59,2.28-1.41,3.52,1.23,1.76.7,3.87-.88,2.11,0,3.34,1.59,1.58.53,2.64-1.05,2.29-1.41,3.52-2.11,1.94-2.28,2.64-.88,3.52-.35,4.75.52,2.46,1.75,3a13.55,13.55,0,0,0,3.35.7s1.41-1.76,2.46-1.58,1.94.18,2.47,1.58,1.4,2.47,1.93,1.59.88-1.24,1.59-1.41.52,0,2.46.35,1.76-1.23,3.52,0,2.11,1.94,3.52,1.58a16,16,0,0,1,4.22,0l2.11,1.24s.18,1.93.35,3.52-.88,1.76.53,2.46a23.41,23.41,0,0,1,2.29,1.41c1.23.7,1.41,1.05,2.46.7s1.76-.7,1.76.35a7.18,7.18,0,0,0,.18,2.82,9.7,9.7,0,0,1,.88,3c0,.7-.53,3.52-.18,5.11a12.59,12.59,0,0,1,.35,3.69c0,1.76-.53,1.58.35,2.81s1.42,1.94,1.24,3.35a38.68,38.68,0,0,0,0,4.57,8.31,8.31,0,0,1-.88,3.7,8.54,8.54,0,0,0-.53,3.69c0,1.06-.35.71-.53,2.29s0,2.11-.18,2.81.18,1.59-.35,2.47a2.46,2.46,0,0,0-.35,2.64,10.17,10.17,0,0,1,.88,2.28,4.71,4.71,0,0,1,0,3c-.53,1.76-.35,2.46-.7,3.34s1.58.53-.35,2.29-2.64,1.58-2.64,2.81a17.25,17.25,0,0,1,0,3c-.18.71-.88,1.41-.36,2.47s.71,1.76,1.59,2.11a10.2,10.2,0,0,1,3,1.06c1.41.88,2.82,2.11,3.52,2.46a1.67,1.67,0,0,0,2.29-.35,3,3,0,0,1,2.29-1.41,1.78,1.78,0,0,1,1.75.88c.36.7,0,3.17,1.59,3.52a7.91,7.91,0,0,0,3.52.17,12.25,12.25,0,0,1,4.57.53c1.06.35,1.76,1.23,2.47-.7s.52-2.29,1.93-3.17a4,4,0,0,0,1.59-4.05c-.18-1.58-1.06-3-.36-4.57s2.29-3.17,3.35-3.34,3,.87,4-1.24a7.86,7.86,0,0,0,.71-4.92c-.18-.71-.18-1.41,1.75-2.82s1.24-1.94,1.94-3.34,1.06-.71,1.41-2.64-1.41-3.87-1.41-3.87l-1.06-3s1.06-1.94,2.65-1.76a10.75,10.75,0,0,0,3.69-.53l1.41-.88s1.93-3.35,1.41-4.75-.18-2.11-.18-3.87a4.44,4.44,0,0,0-.7-2.64L275,448.1l-.17-3.52s1,.18,1.58-1.94,1.05-3.34,0-5.28a29.5,29.5,0,0,0-2.46-3.52,19,19,0,0,0-2.64-3.52c-.88-.7-3.35-3.51-3.35-3.51a6.71,6.71,0,0,0-.7-3.17c-.88-2.29.17-1.94-1.59-3s-2.64,1.24-3-1.23a16,16,0,0,1-.17-3.87l-1.76-5.1s-2.29-1.4-1.94-3.52a7.59,7.59,0,0,0-.17-3.7,14.5,14.5,0,0,1-.18-2.28l-.88-3a2,2,0,0,1-1.23-1.59c-.18-1.23-1.94-2.81-3-3.87s-2.46-2.29-1.76-4.05,1.58-2.46.88-3.52-1.23-1.23-1.23-1.23-.53-3.52,0-4.22a4.81,4.81,0,0,0,.35-3.17,20.29,20.29,0,0,0-1.41-3.16L249.5,371l-.17-2.64a5.85,5.85,0,0,1-2.82,0c-1.76-.35-2.81-.7-3.69,0s-1.23,1.06-1.23,1.06l-1.76-.35-2.46-.35-2.11.17-2.65-.17a18.41,18.41,0,0,0-1.41,3.87,10.11,10.11,0,0,1-.87,4.22c-.71,1.23-.18,1.94-1.94,1.59a3.82,3.82,0,0,1-3-1.94,6.72,6.72,0,0,0-2.82-1.76l-2.46-.88s-1.58-1.41-2.46-.88a15.5,15.5,0,0,1-1.58.88,4.79,4.79,0,0,1-1.77.35s-.35,2.64-1.93,3.7a19.1,19.1,0,0,0-3.87,3.16c-.71.88-.71,1.59-1.59,1.94a21.9,21.9,0,0,0-2.63.88A3.55,3.55,0,0,1,202,384.05Z"/><path class="cls-2" d="M202,384.05s-.53,1.93-.88,3.34-1.94,2.64-3.17,4.05-1.59,2.28-1.41,3.52,1.23,1.76.7,3.87-.88,2.11,0,3.34,1.59,1.58.53,2.64-1.05,2.29-1.41,3.52-2.11,1.94-2.28,2.64-.88,3.52-.35,4.75.52,2.46,1.75,3a13.55,13.55,0,0,0,3.35.7s1.41-1.76,2.46-1.58,1.94.18,2.47,1.58,1.4,2.47,1.93,1.59.88-1.24,1.59-1.41.52,0,2.46.35,1.76-1.23,3.52,0,2.11,1.94,3.52,1.58a16,16,0,0,1,4.22,0l2.11,1.24s.18,1.93.35,3.52-.88,1.76.53,2.46a23.41,23.41,0,0,1,2.29,1.41c1.23.7,1.41,1.05,2.46.7s1.76-.7,1.76.35a7.18,7.18,0,0,0,.18,2.82,9.7,9.7,0,0,1,.88,3c0,.7-.53,3.52-.18,5.11a12.59,12.59,0,0,1,.35,3.69c0,1.76-.53,1.58.35,2.81s1.42,1.94,1.24,3.35a38.68,38.68,0,0,0,0,4.57,8.31,8.31,0,0,1-.88,3.7,8.54,8.54,0,0,0-.53,3.69c0,1.06-.35.71-.53,2.29s0,2.11-.18,2.81.18,1.59-.35,2.47a2.46,2.46,0,0,0-.35,2.64,10.17,10.17,0,0,1,.88,2.28,4.71,4.71,0,0,1,0,3c-.53,1.76-.35,2.46-.7,3.34s1.58.53-.35,2.29-2.64,1.58-2.64,2.81a17.25,17.25,0,0,1,0,3c-.18.71-.88,1.41-.36,2.47s.71,1.76,1.59,2.11a10.2,10.2,0,0,1,3,1.06c1.41.88,2.82,2.11,3.52,2.46a1.67,1.67,0,0,0,2.29-.35,3,3,0,0,1,2.29-1.41,1.78,1.78,0,0,1,1.75.88c.36.7,0,3.17,1.59,3.52a7.91,7.91,0,0,0,3.52.17,12.25,12.25,0,0,1,4.57.53c1.06.35,1.76,1.23,2.47-.7s.52-2.29,1.93-3.17a4,4,0,0,0,1.59-4.05c-.18-1.58-1.06-3-.36-4.57s2.29-3.17,3.35-3.34,3,.87,4-1.24a7.86,7.86,0,0,0,.71-4.92c-.18-.71-.18-1.41,1.75-2.82s1.24-1.94,1.94-3.34,1.06-.71,1.41-2.64-1.41-3.87-1.41-3.87l-1.06-3s1.06-1.94,2.65-1.76a10.75,10.75,0,0,0,3.69-.53l1.41-.88s1.93-3.35,1.41-4.75-.18-2.11-.18-3.87a4.44,4.44,0,0,0-.7-2.64L275,448.1l-.17-3.52s1,.18,1.58-1.94,1.05-3.34,0-5.28a29.5,29.5,0,0,0-2.46-3.52,19,19,0,0,0-2.64-3.52c-.88-.7-3.35-3.51-3.35-3.51a6.71,6.71,0,0,0-.7-3.17c-.88-2.29.17-1.94-1.59-3s-2.64,1.24-3-1.23a16,16,0,0,1-.17-3.87l-1.76-5.1s-2.29-1.4-1.94-3.52a7.59,7.59,0,0,0-.17-3.7,14.5,14.5,0,0,1-.18-2.28l-.88-3a2,2,0,0,1-1.23-1.59c-.18-1.23-1.94-2.81-3-3.87s-2.46-2.29-1.76-4.05,1.58-2.46.88-3.52-1.23-1.23-1.23-1.23-.53-3.52,0-4.22a4.81,4.81,0,0,0,.35-3.17,20.29,20.29,0,0,0-1.41-3.16L249.5,371l-.17-2.64a5.85,5.85,0,0,1-2.82,0c-1.76-.35-2.81-.7-3.69,0s-1.23,1.06-1.23,1.06l-1.76-.35-2.46-.35-2.11.17-2.65-.17a18.41,18.41,0,0,0-1.41,3.87,10.11,10.11,0,0,1-.87,4.22c-.71,1.23-.18,1.94-1.94,1.59a3.82,3.82,0,0,1-3-1.94,6.72,6.72,0,0,0-2.82-1.76l-2.46-.88s-1.58-1.41-2.46-.88a15.5,15.5,0,0,1-1.58.88,4.79,4.79,0,0,1-1.77.35s-.35,2.64-1.93,3.7a19.1,19.1,0,0,0-3.87,3.16c-.71.88-.71,1.59-1.59,1.94a21.9,21.9,0,0,0-2.63.88A3.55,3.55,0,0,1,202,384.05Z"/><path class="cls-2" d="M198,419.46s-.24,2,.74,2.75,4.12.54,4.12,2.89-.59,2.94-.79,4.12.4,3.53.4,4.51-1,2-.59,3.92a27.33,27.33,0,0,1,.39,4.46s-2.75,2.35-2.55,3.92-1.18,3.33-1.37,4.51a6,6,0,0,1-1.52,3.14c-.79.78-2.16,1.17-2.55,3.13a35.06,35.06,0,0,1-.79,4.07c-.39,1.18.2,2.16,1,3.73s-.19,2.55,1.57,3.33,2.5.2,2.9,3.14-.4,3.57.78,4.9,2.16.93,2.75,2.69,0,2.94,1.56,3.53,2.16-.39,2.36,1-1.18,1.77-.4,3.92,1.77,2.55,1.77,3.92-.59,4.66,1,4.86,3.72.78,4.31,1.37a9.9,9.9,0,0,1,1.57,3.53c.39,1.37.39,2.16,0,4.9s-1.76,3.92-.39,4.7a4.63,4.63,0,0,0,4.26.2c1.57-.59,2.16.2,4.12-2a12.23,12.23,0,0,0,2.55-3.53c1.17-2,1.17-2.35,1.17-3.14a13.39,13.39,0,0,1,.59-3.72,14.51,14.51,0,0,1,2-2.8s-1.52-.8-1.59-2.11a6.85,6.85,0,0,1,.36-2.47v-3l1.73-2.13.91-.68.86-1.28-.51-1s.31-.95.7-2.52a11.38,11.38,0,0,0,0-3.82l-.88-2.28-.1-1.5a25.15,25.15,0,0,0,1-5.29,25.24,25.24,0,0,1,.59-4.9,20,20,0,0,1,.59-3.29,22.42,22.42,0,0,0,.76-2.62l.37-6L231.58,448l-.2-4.51.2-5.05,0-1.42s-.61-2.11-.88-3a11.29,11.29,0,0,1-.18-2.82s.31-1.85-1-.74a6.15,6.15,0,0,1-2.07.52L224,428.74s-2-1.68-.53-2.46l-.12-1.18-.23-2.34L221,421.52h-4.22a2.13,2.13,0,0,1-1.62-.1c-1-.39-.47-1.39-1.9-1.48s-1-.28-2.22-.08-1.57-.2-2.55,0-1.76-.2-2.15.58-1.38,1.38-1.57.79a9.39,9.39,0,0,0-1-1.82,5.68,5.68,0,0,0-2.47-1.58,11.32,11.32,0,0,0-1.23,1.05A3.8,3.8,0,0,1,198,419.46Z"/><path class="cls-2" d="M198,419.46s-.24,2,.74,2.75,4.12.54,4.12,2.89-.59,2.94-.79,4.12.4,3.53.4,4.51-1,2-.59,3.92a27.33,27.33,0,0,1,.39,4.46s-2.75,2.35-2.55,3.92-1.18,3.33-1.37,4.51a6,6,0,0,1-1.52,3.14c-.79.78-2.16,1.17-2.55,3.13a35.06,35.06,0,0,1-.79,4.07c-.39,1.18.2,2.16,1,3.73s-.19,2.55,1.57,3.33,2.5.2,2.9,3.14-.4,3.57.78,4.9,2.16.93,2.75,2.69,0,2.94,1.56,3.53,2.16-.39,2.36,1-1.18,1.77-.4,3.92,1.77,2.55,1.77,3.92-.59,4.66,1,4.86,3.72.78,4.31,1.37a9.9,9.9,0,0,1,1.57,3.53c.39,1.37.39,2.16,0,4.9s-1.76,3.92-.39,4.7a4.63,4.63,0,0,0,4.26.2c1.57-.59,2.16.2,4.12-2a12.23,12.23,0,0,0,2.55-3.53c1.17-2,1.17-2.35,1.17-3.14a13.39,13.39,0,0,1,.59-3.72,14.51,14.51,0,0,1,2-2.8s-1.52-.8-1.59-2.11a6.85,6.85,0,0,1,.36-2.47v-3l1.73-2.13.91-.68.86-1.28-.51-1s.31-.95.7-2.52a11.38,11.38,0,0,0,0-3.82l-.88-2.28-.1-1.5a25.15,25.15,0,0,0,1-5.29,25.24,25.24,0,0,1,.59-4.9,20,20,0,0,1,.59-3.29,22.42,22.42,0,0,0,.76-2.62l.37-6L231.58,448l-.2-4.51.2-5.05,0-1.42s-.61-2.11-.88-3a11.29,11.29,0,0,1-.18-2.82s.31-1.85-1-.74a6.15,6.15,0,0,1-2.07.52L224,428.74s-2-1.68-.53-2.46l-.12-1.18-.23-2.34L221,421.52h-4.22a2.13,2.13,0,0,1-1.62-.1c-1-.39-.47-1.39-1.9-1.48s-1-.28-2.22-.08-1.57-.2-2.55,0-1.76-.2-2.15.58-1.38,1.38-1.57.79a9.39,9.39,0,0,0-1-1.82,5.68,5.68,0,0,0-2.47-1.58,11.32,11.32,0,0,0-1.23,1.05A3.8,3.8,0,0,1,198,419.46Z"/></svg>