<?xml version="1.0" encoding="utf-8"?>
<!-- Generator: Adobe Illustrator 25.1.0, SVG Export Plug-In . SVG Version: 6.00 Build 0)  -->
<svg version="1.1" id="Layer_1" xmlns="http://www.w3.org/2000/svg" xmlns:xlink="http://www.w3.org/1999/xlink" x="0px" y="0px"
	 viewBox="0 0 512 512" style="enable-background:new 0 0 512 512;" xml:space="preserve">
<style type="text/css">
	.st0{fill-rule:evenodd;clip-rule:evenodd;fill:#E6E7E8;stroke:#FFFFFF;stroke-linejoin:round;}
	.st1{fill-rule:evenodd;clip-rule:evenodd;fill:#A7A9AC;stroke:#FFFFFF;stroke-linejoin:round;}
	.st2{fill-rule:evenodd;clip-rule:evenodd;fill:#E6E7E8;}
	.st3{clip-path:url(#SVGID_2_);}
	.st4{fill:none;stroke:#FFFFFF;stroke-linejoin:round;}
</style>
<path class="st0" d="M272.3,1.3c-0.4,0.4,1.2,5.3,0,9.5s-2.6,5.1-3.8,6.9s-1.1,2.6-3.8,4.1s-3.8,3.1-3.1,5s0,1.2,0.4,5.8
	s-1.9,3.3,1.1,5.3s3.8,3.8,1.9,6.2s-3.5,3.8-0.8,6.5s2.7,4.9,1.2,7.2s-1.2,3.1-1.2,4.6s-2.3,2.7-3.1,5c-0.5,1.5-1.3,2.9-2.3,4.2
	c-1.1-0.9-2.4-1.4-3.8-1.5c-1.9,0-0.3,0-4.5-1.2c-2.4-0.7-4.8-1.1-7.3-1.2c0,0-0.4,5.3-1.9,8l-3.1,5.4c0,0-0.9-1.2-3.8-1.5
	s-5.3-0.8-6.8-2.7s-0.4-2.7-2.3-3.5c-1.2-0.5-2.5-0.7-3.8-0.8l-1.9,3.5l-3.8,0.4l-5.3,0.8l-3.5,3.1l-3.4,0.8l-1.9,3.1l-3.4,2.6
	l-3.1,3.1l-1.9,2.6c0,0-1.9,1.9-0.4,3.1s4.6,4.2,4.6,4.2c0.6,1,1.4,1.9,2.2,2.7c1.1,1.1,2,2.4,2.7,3.8v3.8c0,0-3.4-3-6.4-3
	s-6.1,1.8-8.4,0.3c-2.8-1.5-5.8-2.9-8.8-4.1c0,0-6.5-4.2-8.8-5.8s-5-3.1-3.1-4.6s5-1.5,5-3.4s-1.1-3.1-1.5-4.6s0-3.5-2.7-4.2
	s-2.3-2.7-2.3-2.7c-1.5-0.4-3.1-0.9-4.5-1.5c-1.5-0.8-0.4-1.2-1.9-3.1s-3.5-2.9-5-1.4s-1.1,4.4-3.8,2.2s-1.2-1.5-3.1-4.9
	s-3.8-3.8-3-5.8s-1.5-4.2-1.5-4.2l1.2-2.7c0,0,2.7-1.5,1.5-4.1s0.3-2.3,2.2-3.8s1.1-2.7,1.1-4.6s1.5-1.9,1.9-3.5
	c0.2-1.2,0.1-2.4-0.4-3.5c0,0-1.9-5.3,1.1-5.7s5-0.4,5.4-3.1s1.1-0.8,2.7-3.8s1.6-5.3,3.5-5.3s4.9,1.9,8-0.8s3.1,0,5-2.7
	s0.9-5,5-5.4s4.9-1.9,7.2-0.4c1.8,1.3,3.9,2.1,6.1,2.3c1.7-0.2,3.5,0.5,4.5,1.9c1.5,1.9,1.9,5.4,5.8,5s5.4-0.4,7.3-1.5
	s2.8-0.4,3.8-1.9s0.7-3.5,3.8-5.8s2.3-3.4,5-4.2c1.6-0.4,3-1.2,4.2-2.3c0,0,3.8-0.4,5.3,0.8s3.8,1.2,3.8,3.8s-2.7,1.9-3.1,3.9
	s5,5,5,5s2.7,3,5,3.8s6.1,1.1,8.8-0.4s4.2-4.5,3.5-6.1s1.1-3.1,3.1-3.1s5.4-0.8,5.4-2.3s-0.8-0.9,0.4-3.8S269.6,0.2,272.3,1.3z"/>
<path class="st0" d="M272.3,1.3c-0.4,0.4,1.2,5.3,0,9.5s-2.6,5.1-3.8,6.9s-1.1,2.6-3.8,4.1s-3.8,3.1-3.1,5s0,1.2,0.4,5.8
	s-1.9,3.3,1.1,5.3s3.8,3.8,1.9,6.2s-3.5,3.8-0.8,6.5s2.7,4.9,1.2,7.2s-1.2,3.1-1.2,4.6s-2.3,2.7-3.1,5c-0.5,1.5-1.3,2.9-2.3,4.2
	c-1.1-0.9-2.4-1.4-3.8-1.5c-1.9,0-0.3,0-4.5-1.2c-2.4-0.7-4.8-1.1-7.3-1.2c0,0-0.4,5.3-1.9,8l-3.1,5.4c0,0-0.9-1.2-3.8-1.5
	s-5.3-0.8-6.8-2.7s-0.4-2.7-2.3-3.5c-1.2-0.5-2.5-0.7-3.8-0.8l-1.9,3.5l-3.8,0.4l-5.3,0.8l-3.5,3.1l-3.4,0.8l-1.9,3.1l-3.4,2.6
	l-3.1,3.1l-1.9,2.6c0,0-1.9,1.9-0.4,3.1s4.6,4.2,4.6,4.2c0.6,1,1.4,1.9,2.2,2.7c1.1,1.1,2,2.4,2.7,3.8v3.8c0,0-3.4-3-6.4-3
	s-6.1,1.8-8.4,0.3c-2.8-1.5-5.8-2.9-8.8-4.1c0,0-6.5-4.2-8.8-5.8s-5-3.1-3.1-4.6s5-1.5,5-3.4s-1.1-3.1-1.5-4.6s0-3.5-2.7-4.2
	s-2.3-2.7-2.3-2.7c-1.5-0.4-3.1-0.9-4.5-1.5c-1.5-0.8-0.4-1.2-1.9-3.1s-3.5-2.9-5-1.4s-1.1,4.4-3.8,2.2s-1.2-1.5-3.1-4.9
	s-3.8-3.8-3-5.8s-1.5-4.2-1.5-4.2l1.2-2.7c0,0,2.7-1.5,1.5-4.1s0.3-2.3,2.2-3.8s1.1-2.7,1.1-4.6s1.5-1.9,1.9-3.5
	c0.2-1.2,0.1-2.4-0.4-3.5c0,0-1.9-5.3,1.1-5.7s5-0.4,5.4-3.1s1.1-0.8,2.7-3.8s1.6-5.3,3.5-5.3s4.9,1.9,8-0.8s3.1,0,5-2.7
	s0.9-5,5-5.4s4.9-1.9,7.2-0.4c1.8,1.3,3.9,2.1,6.1,2.3c1.7-0.2,3.5,0.5,4.5,1.9c1.5,1.9,1.9,5.4,5.8,5s5.4-0.4,7.3-1.5
	s2.8-0.4,3.8-1.9s0.7-3.5,3.8-5.8s2.3-3.4,5-4.2c1.6-0.4,3-1.2,4.2-2.3c0,0,3.8-0.4,5.3,0.8s3.8,1.2,3.8,3.8s-2.7,1.9-3.1,3.9
	s5,5,5,5s2.7,3,5,3.8s6.1,1.1,8.8-0.4s4.2-4.5,3.5-6.1s1.1-3.1,3.1-3.1s5.4-0.8,5.4-2.3s-0.8-0.9,0.4-3.8S269.6,0.2,272.3,1.3z"/>
<path class="st0" d="M258.9,71.7c0.1,2.5-0.1,5.1-0.6,7.5c-0.7,2-0.8,2.8-2.3,3.3s-3.3,1.2-3.7,2s-0.4,2.3-1.3,2.8s-1.9,0.8-2.1,1.7
	s-0.8,2.8-2.2,2.3s-0.3-1.3-2-1.6s-1.8-1.9-2.2,0s-1.2,2.3-1.2,2.3c-1.1,0.5-2,1.2-2.7,2.2c-0.8,1.3-1.7-0.5-1.8,2s0.2,2.7-0.7,3.2
	s-0.7,0.3-1.3,1.5s-1.8,1.3-2,2.5s1.7,2.6,0,3.5s-2.2,0.3-3.5,2.1s-2.2,0.3-2.8,2.2s-2.7,1.5-2.3,3.2s1.5,2.7,0.7,3.5
	s-1,1.3-1.5,3.2s-1.5,2.2-0.3,3c0.6,0.4,1.1,0.9,1.5,1.4c0,0,0.7,1.2-0.5,3.8c-1.2,2.7-1.3,1.3-0.5,3s0.7,2,0,2.5s-2.3,2-2.2,2.8
	s-1.3,1.8-1.3,1.8l-3,0.2c0,0-3.8-2.2-4.4-2.5c-1.1-0.3-2-0.9-2.8-1.7c-1.2-1.2-3.2-1.5-3.8-2.3s-1.7-2.2-1.2-3s1.3-1.5,0.7-2.8
	s-0.5-3.3-0.5-4.8s0.7-4.5,0.5-6s-0.8-1.2-1.8-3.3c-0.5-1.1-1-2.2-1.3-3.3l-0.1-3.3l-4.9-6.5l-3.6-3.2c0,0-3.8-1.9,0.7-5.7
	c1.3-1.8,3.2-4,3.2-4s3.3-2.3,3.9-2.9c0.7-1,1.4-2,1.9-3.1l3.4-0.8l3.5-3.1l9.1-1.2l1.9-3.5l4.7,1.3c0.7,3.1,3.5,5.4,6.7,5.3
	c-0.2,0.3,4.1,0,5.4,1.8c0.2,0,4-7.5,4-7.5l1-5.9c0,0,6.8,0.8,10.4,2.3C254.6,70.1,258.8,72.1,258.9,71.7z"/>
<path class="st0" d="M258.9,71.7c0.1,2.5-0.1,5.1-0.6,7.5c-0.7,2-0.8,2.8-2.3,3.3s-3.3,1.2-3.7,2s-0.4,2.3-1.3,2.8s-1.9,0.8-2.1,1.7
	s-0.8,2.8-2.2,2.3s-0.3-1.3-2-1.6s-1.8-1.9-2.2,0s-1.2,2.3-1.2,2.3c-1.1,0.5-2,1.2-2.7,2.2c-0.8,1.3-1.7-0.5-1.8,2s0.2,2.7-0.7,3.2
	s-0.7,0.3-1.3,1.5s-1.8,1.3-2,2.5s1.7,2.6,0,3.5s-2.2,0.3-3.5,2.1s-2.2,0.3-2.8,2.2s-2.7,1.5-2.3,3.2s1.5,2.7,0.7,3.5
	s-1,1.3-1.5,3.2s-1.5,2.2-0.3,3c0.6,0.4,1.1,0.9,1.5,1.4c0,0,0.7,1.2-0.5,3.8c-1.2,2.7-1.3,1.3-0.5,3s0.7,2,0,2.5s-2.3,2-2.2,2.8
	s-1.3,1.8-1.3,1.8l-3,0.2c0,0-3.8-2.2-4.4-2.5c-1.1-0.3-2-0.9-2.8-1.7c-1.2-1.2-3.2-1.5-3.8-2.3s-1.7-2.2-1.2-3s1.3-1.5,0.7-2.8
	s-0.5-3.3-0.5-4.8s0.7-4.5,0.5-6s-0.8-1.2-1.8-3.3c-0.5-1.1-1-2.2-1.3-3.3l-0.1-3.3l-4.9-6.5l-3.6-3.2c0,0-3.8-1.9,0.7-5.7
	c1.3-1.8,3.2-4,3.2-4s3.3-2.3,3.9-2.9c0.7-1,1.4-2,1.9-3.1l3.4-0.8l3.5-3.1l9.1-1.2l1.9-3.5l4.7,1.3c0.7,3.1,3.5,5.4,6.7,5.3
	c-0.2,0.3,4.1,0,5.4,1.8c0.2,0,4-7.5,4-7.5l1-5.9c0,0,6.8,0.8,10.4,2.3C254.6,70.1,258.8,72.1,258.9,71.7z"/>
<path class="st0" d="M247.9,91.5c1.2-0.5,2.3,1.2,1.8,3.5s-0.1,2.7,0.8,5s1.4,4.7,2.3,5.5s0.2,1,1.7,3c1.5,2,2,3.2,3.5,4.5
	s2,1.2,2.7,2.8s0.7,2.7,1.5,4.8s0.8,1.3,1.7,2.3s1.2,0.4,1.2,2.2s0.2,3.6,2.2,3.3c1.5-0.4,3.1,0.2,3.8,1.6c0.8,1.3,0.7,1.8,1.5,2.7
	s0.2,2.2,2.2,2.2s3.2-0.7,4,0s1.5,2.5,2.2,3.8s2.3,5.3,3.7,6.1s3.6,1.8,4.1,3.3s2.3,1.3,1.2,3.5s-0.2,1.5-2,2.3
	c-1.5,0.6-2.8,1.7-3.8,3c-0.5,1-2.3,2.9-3.7,5.3s-1.2,2.7-3.7,3.8s-3,1.8-5.3,2.5s0.4-0.7-3.8,1.2s-5.3,0.7-6,1.8s-2.2,1.5-1.8,3.3
	s2.7,2.4,4,3.9c1,0.9,1.7,2,2.2,3.2c0.8,1.8,0.3,3.2,1.3,5.3s2.3,3.8,2.6,5.5s1.3,2.9-0.3,3.8s-1.9,2-3.4,2.7s-1.2-0.3-2.8,1.5
	s-2.7,1.5-3-0.3s-1-1.8-2.5-3s-1-1.6-2.7-2.3s-1.2,0.3-2.5-1s-1.9-3-3.6-2.2s-2,1-3.7,0.2s-2.3,0-3.7-0.3s-2.7-0.3-3-2
	s0.2-1.2-0.3-3s-0.2-1.3,0.3-3.5s1.5-3.3-0.2-3.7s-2.3-0.6-2.7-1.2c-0.6-0.8-0.9-1.8-0.8-2.8c0-2,1.7,0.2,0.5-2.7s-1.8-1.8-2.6-3.3
	s-0.3-2-1.2-2.8s-1.8-1-3.2-1.3s-2-1.2-2.2-3s0.7-3.3,0.2-4.1s-1-2.2-1.8-2.7s-1-2.3-1-2.3c0.5-1,0.7-2.1,0.5-3.2
	c-0.2-2.2,0.7-2.2-1-2.7s-1.8-0.8-2-2.2s0-1.1-1.2-2.3s-1.7-2.9-1-3.6c0.2,0,1.2-0.2,1.2-0.2l1.3-1.8l0.2-0.8l2-2l0.5-1.7l-0.5-0.8
	c-0.6-0.7-0.5-1.7,0.2-2.3c0.5,0,1-3.3,1-3.3s1-0.1-0.2-1.2c-1-1.3-1.5-1.4-1.5-1.4c-0.2-0.6-0.2-1.2,0-1.8c0.3-0.8,0.7-1.8,0.7-1.8
	l0.5-1.5l0.7-1l-0.7-3.5l0.2-1l1.5-1.3l1.2-1.7l1.3-0.2l1.8-2.3l2.7-1c0,0,1-0.7,0.6-1.3c-0.3-0.7-0.5-1.4-0.6-2.2l0.6-1.3l1.3-1.2
	l0.3-0.7l1-0.8l0.5-4.7l1.2,0.5l2.8-2.3c0,0,0.8,0.1,1.8-3.1l0.8-0.8l1.3,0.8C244.8,89.6,246.8,92,247.9,91.5z"/>
<path class="st0" d="M247.9,91.5c1.2-0.5,2.3,1.2,1.8,3.5s-0.1,2.7,0.8,5s1.4,4.7,2.3,5.5s0.2,1,1.7,3c1.5,2,2,3.2,3.5,4.5
	s2,1.2,2.7,2.8s0.7,2.7,1.5,4.8s0.8,1.3,1.7,2.3s1.2,0.4,1.2,2.2s0.2,3.6,2.2,3.3c1.5-0.4,3.1,0.2,3.8,1.6c0.8,1.3,0.7,1.8,1.5,2.7
	s0.2,2.2,2.2,2.2s3.2-0.7,4,0s1.5,2.5,2.2,3.8s2.3,5.3,3.7,6.1s3.6,1.8,4.1,3.3s2.3,1.3,1.2,3.5s-0.2,1.5-2,2.3
	c-1.5,0.6-2.8,1.7-3.8,3c-0.5,1-2.3,2.9-3.7,5.3s-1.2,2.7-3.7,3.8s-3,1.8-5.3,2.5s0.4-0.7-3.8,1.2s-5.3,0.7-6,1.8s-2.2,1.5-1.8,3.3
	s2.7,2.4,4,3.9c1,0.9,1.7,2,2.2,3.2c0.8,1.8,0.3,3.2,1.3,5.3s2.3,3.8,2.6,5.5s1.3,2.9-0.3,3.8s-1.9,2-3.4,2.7s-1.2-0.3-2.8,1.5
	s-2.7,1.5-3-0.3s-1-1.8-2.5-3s-1-1.6-2.7-2.3s-1.2,0.3-2.5-1s-1.9-3-3.6-2.2s-2,1-3.7,0.2s-2.3,0-3.7-0.3s-2.7-0.3-3-2
	s0.2-1.2-0.3-3s-0.2-1.3,0.3-3.5s1.5-3.3-0.2-3.7s-2.3-0.6-2.7-1.2c-0.6-0.8-0.9-1.8-0.8-2.8c0-2,1.7,0.2,0.5-2.7s-1.8-1.8-2.6-3.3
	s-0.3-2-1.2-2.8s-1.8-1-3.2-1.3s-2-1.2-2.2-3s0.7-3.3,0.2-4.1s-1-2.2-1.8-2.7s-1-2.3-1-2.3c0.5-1,0.7-2.1,0.5-3.2
	c-0.2-2.2,0.7-2.2-1-2.7s-1.8-0.8-2-2.2s0-1.1-1.2-2.3s-1.7-2.9-1-3.6c0.2,0,1.2-0.2,1.2-0.2l1.3-1.8l0.2-0.8l2-2l0.5-1.7l-0.5-0.8
	c-0.6-0.7-0.5-1.7,0.2-2.3c0.5,0,1-3.3,1-3.3s1-0.1-0.2-1.2c-1-1.3-1.5-1.4-1.5-1.4c-0.2-0.6-0.2-1.2,0-1.8c0.3-0.8,0.7-1.8,0.7-1.8
	l0.5-1.5l0.7-1l-0.7-3.5l0.2-1l1.5-1.3l1.2-1.7l1.3-0.2l1.8-2.3l2.7-1c0,0,1-0.7,0.6-1.3c-0.3-0.7-0.5-1.4-0.6-2.2l0.6-1.3l1.3-1.2
	l0.3-0.7l1-0.8l0.5-4.7l1.2,0.5l2.8-2.3c0,0,0.8,0.1,1.8-3.1l0.8-0.8l1.3,0.8C244.8,89.6,246.8,92,247.9,91.5z"/>
<path class="st0" d="M238,188.4c0,0-1.9,1.4-3,0s-1.6-3.3-2.5-1.6s0,2.5-1.4,2.5s-2.5,0.8-3-0.6s0.6-2.5-1.4-2.2s-1.6,0.3-2.2,2.2
	s-1.4,1.4-1.4,2.5c-0.2,1.7-0.1,3.5,0.3,5.2c0.6,2.2-1.1,3,0,4.4s2.8,0.3,2.5,2.2s-0.8,2.2,0.3,2.7s2.2,2.5,1.6,5s1.4,1.9,0.8,3.6
	s-2.8,2.8-3.9,4.1S206.6,233,206.6,233l-4.4-0.3c0,0,0.3,1.9-0.8,2.5s-6.1,0.6-6.1,0.6c0.1,1-0.3,1.9-1.1,2.5
	c-1.4,0.8-1.6,1.4-3.3,2.5s-1.4-0.8-2.5,0c-1.3,0.9-2,2.3-1.9,3.9c0,1.9-1.4,2.2-1.9,4.1s1.6,2.5-0.3,3.6s-2.8,2.2-3,3.6
	c-0.6,1.9-0.9,3.8-1.1,5.8c0,2.2,0,5.2-0.5,6.3s-0.8,1.4-3,3s-3.9,3.3-6.3,4.7s-1.9,1.9-5,2.8s-1.6,0.5-5.2,2.5s-10.7,3.6-8.2,1.1
	s9.1-5.5,10.2-7.1s4.9-3.8,5.2-6.6s0-7.4,0.6-10.7s0.6-3.6,0-5.5s-0.8-3.3,0-5.2s0.8-12.1,1.1-15.1s0.3-3.6-1.1-6.6s-2.8-3-0.3-4.1
	s2.5-1.1,3.6-3.9s1.1-1.6,2.8-4.4s1.6-4.9,2.2-7.1s1.1-2.8,1.4-5.2s0-3.3,1.4-5.8s4.4-7.7,5-9.4s2.5-4.9,2.2-9.3s1.1-9.9,1.4-12.1
	c0.3-3,0.7-6.1,1.4-9.1c0.8-3.3,0.3-7.7,0.8-9.9s2.2-8.3,2.2-9.6s0.8-7.7,0.8-7.7l12.4,0.8L205,130c-0.1,1.1,0.3,2.2,1.2,3
	c1.4,1,4.7,2.9,4.7,2.9l6.4,3.6h1.8l-0.3,1.6l1.3,2l1.5,3.3l1.7,1.2l1.1,0.4v3.3l-0.6,2.1l2.2,3.7l0.6,3.3l-0.1,2.1l0.9,2l3.3,2.2
	l1.4,1.1l0.9,1.9l2.6,3.3l-0.5,2.7c-0.2,1,0.1,2,0.8,2.8c0.8,0.6,1.7,1,2.7,1.2l0.9,1.4l-0.8,2.3l-0.6,1.6L238,188.4z"/>
<path class="st0" d="M238,188.4c0,0-1.9,1.4-3,0s-1.6-3.3-2.5-1.6s0,2.5-1.4,2.5s-2.5,0.8-3-0.6s0.6-2.5-1.4-2.2s-1.6,0.3-2.2,2.2
	s-1.4,1.4-1.4,2.5c-0.2,1.7-0.1,3.5,0.3,5.2c0.6,2.2-1.1,3,0,4.4s2.8,0.3,2.5,2.2s-0.8,2.2,0.3,2.7s2.2,2.5,1.6,5s1.4,1.9,0.8,3.6
	s-2.8,2.8-3.9,4.1S206.6,233,206.6,233l-4.4-0.3c0,0,0.3,1.9-0.8,2.5s-6.1,0.6-6.1,0.6c0.1,1-0.3,1.9-1.1,2.5
	c-1.4,0.8-1.6,1.4-3.3,2.5s-1.4-0.8-2.5,0c-1.3,0.9-2,2.3-1.9,3.9c0,1.9-1.4,2.2-1.9,4.1s1.6,2.5-0.3,3.6s-2.8,2.2-3,3.6
	c-0.6,1.9-0.9,3.8-1.1,5.8c0,2.2,0,5.2-0.5,6.3s-0.8,1.4-3,3s-3.9,3.3-6.3,4.7s-1.9,1.9-5,2.8s-1.6,0.5-5.2,2.5s-10.7,3.6-8.2,1.1
	s9.1-5.5,10.2-7.1s4.9-3.8,5.2-6.6s0-7.4,0.6-10.7s0.6-3.6,0-5.5s-0.8-3.3,0-5.2s0.8-12.1,1.1-15.1s0.3-3.6-1.1-6.6s-2.8-3-0.3-4.1
	s2.5-1.1,3.6-3.9s1.1-1.6,2.8-4.4s1.6-4.9,2.2-7.1s1.1-2.8,1.4-5.2s0-3.3,1.4-5.8s4.4-7.7,5-9.4s2.5-4.9,2.2-9.3s1.1-9.9,1.4-12.1
	c0.3-3,0.7-6.1,1.4-9.1c0.8-3.3,0.3-7.7,0.8-9.9s2.2-8.3,2.2-9.6s0.8-7.7,0.8-7.7l12.4,0.8L205,130c-0.1,1.1,0.3,2.2,1.2,3
	c1.4,1,4.7,2.9,4.7,2.9l6.4,3.6h1.8l-0.3,1.6l1.3,2l1.5,3.3l1.7,1.2l1.1,0.4v3.3l-0.6,2.1l2.2,3.7l0.6,3.3l-0.1,2.1l0.9,2l3.3,2.2
	l1.4,1.1l0.9,1.9l2.6,3.3l-0.5,2.7c-0.2,1,0.1,2,0.8,2.8c0.8,0.6,1.7,1,2.7,1.2l0.9,1.4l-0.8,2.3l-0.6,1.6L238,188.4z"/>
<path class="st0" d="M261.8,202.4c1.2-0.9-0.7,1.2,0.7,3.4s2.6,3,1.9,4.6s-2.3,1.9-2.5,3.1s0.2,3.2-1,4.9s-2.6,3.4-2.6,4.4
	c0,1.6-0.3,3.1-0.9,4.6c-0.9,2.3-1.1,1.9-1.8,3.9c-0.2,0.9-0.7,1.8-1.4,2.5c-1,0.7-1.9,1.5-2.6,2.5c-1,1.4-1.7,2.1-3,3.9
	s-1.2,1.1-2.1,3.2s-1.4,3.7-2.6,3.5s-2.3-0.2-2.8-0.9s-0.2-2.1-1.2-1.8s-2.1,2.5-3,1.9s-1.6-1.4-2.1-0.5s-0.3,1.4-1.7,1.2
	s-3.5-0.9-3.7-0.2s-0.7,1.3,0.5,1.6c1.5,0.6,2.9,1.4,4.2,2.3l0.7,1.4v2.6c0,0.5,0,3.2-1.1,4.1c-0.9,0.6-1.8,1.2-2.8,1.6
	c0,0,0.2-1.9-1.4-1.4s-2.6,0.7-3.2,1.9s-1.2,3.4-2.5,3.7s-2.5,0.6-3,1.2c-0.8,1-1.7,1.9-2.8,2.6c-0.9,0.4-3.3,1.4-4.4,1.2
	s-0.5-0.5-1.4-1.4s-0.5-2.1-0.9-2.6c-0.4-0.5-1.1-0.8-1.8-0.9c-0.5,0-2.3,0-2.8,0.5s-1.4,1-1.9,1.6s-2.5,0.7-3.4,1.2
	s-2.5,1.1-3.4,2.1s-0.7,1.4-2.5,1.8s-4.2,0.5-4.2,0.5s-4.9-0.7-5.5-0.7s-2.8-0.2-2.8-0.2l-3.3-0.4l-3-0.1c0,0,3.5-2.1,3.5-5.5
	c0-2.1,0.1-4.1,0.5-6.2c0.2-1,0.7-3.5,0.7-3.5c0.3-0.7,0.7-1.4,1.3-2c0.7-0.5,2.6-2.3,2.6-2.3l-0.7-1.8c0.1-0.8,0.4-1.6,0.9-2.3
	c0.5-0.5,0.9-1,1.2-1.6l0.2-1.9l0.5-1.6l1.1-1.7c0,0,1.7,0.8,2.5,0s3.3-2.5,3.3-2.5l1-1.1l0.1-1.4c1.3,0.1,2.7,0.1,4,0
	c0.7-0.2,2.6,0.1,2.9-3c1.9,0.2,4.4,0.3,4.4,0.3s13.6-10.6,16.5-12.9c1.9-1.5,3.8-3.2,5.5-4.9c0.2-0.5,0.4-1,0.4-1.6
	c-0.6-0.3-1-1-1.1-1.7c0-1.2,0.7-2.1,0-3.5s-0.9-1.6-1.4-1.9c-0.3-0.2-0.6-0.4-0.9-0.7c0-0.6,0.1-1.3,0.2-1.9
	c0.2-1.1,0.5-1.2-0.5-1.8s-1.5,0.3-1.8-1.1c-0.2-1.2-0.2-2.4-0.1-3.7c0-0.5-0.2-3.1-0.2-3.1v-2.8c0.6-0.8,1-1.6,1.4-2.5
	c0.2-0.9,0-1.4,1.1-1.8s2.3-0.4,2.5,0.4s0.4,2.3,1.8,2.1s1.8-0.5,2.1-1.2s0.7-2.1,1.4-1.8s1.4,2.5,2.4,2.5c0.8,0,1.5-0.2,2.2-0.5
	c0,0-0.1,0.3,0.6,1.4c0.6,0.7,1.3,1.3,2.1,1.8c0,0,1.9,0.2,2.5,0.2c0.7,0.1,1.4,0.2,2.1,0.4l1.4,0.7l2.2-0.8c0,0,2.3-0.1,2.8,0.8
	c0.5,0.7,1,1.4,1.6,2.1c1,0.2,1.9,0.5,2.8,1c0.5,0.4,1.1,0.9,1.5,1.5c0.8,0.5,1.4,1.2,2,1.9C260.1,200,260.6,203.3,261.8,202.4z"/>
<path class="st0" d="M261.8,202.4c1.2-0.9-0.7,1.2,0.7,3.4s2.6,3,1.9,4.6s-2.3,1.9-2.5,3.1s0.2,3.2-1,4.9s-2.6,3.4-2.6,4.4
	c0,1.6-0.3,3.1-0.9,4.6c-0.9,2.3-1.1,1.9-1.8,3.9c-0.2,0.9-0.7,1.8-1.4,2.5c-1,0.7-1.9,1.5-2.6,2.5c-1,1.4-1.7,2.1-3,3.9
	s-1.2,1.1-2.1,3.2s-1.4,3.7-2.6,3.5s-2.3-0.2-2.8-0.9s-0.2-2.1-1.2-1.8s-2.1,2.5-3,1.9s-1.6-1.4-2.1-0.5s-0.3,1.4-1.7,1.2
	s-3.5-0.9-3.7-0.2s-0.7,1.3,0.5,1.6c1.5,0.6,2.9,1.4,4.2,2.3l0.7,1.4v2.6c0,0.5,0,3.2-1.1,4.1c-0.9,0.6-1.8,1.2-2.8,1.6
	c0,0,0.2-1.9-1.4-1.4s-2.6,0.7-3.2,1.9s-1.2,3.4-2.5,3.7s-2.5,0.6-3,1.2c-0.8,1-1.7,1.9-2.8,2.6c-0.9,0.4-3.3,1.4-4.4,1.2
	s-0.5-0.5-1.4-1.4s-0.5-2.1-0.9-2.6c-0.4-0.5-1.1-0.8-1.8-0.9c-0.5,0-2.3,0-2.8,0.5s-1.4,1-1.9,1.6s-2.5,0.7-3.4,1.2
	s-2.5,1.1-3.4,2.1s-0.7,1.4-2.5,1.8s-4.2,0.5-4.2,0.5s-4.9-0.7-5.5-0.7s-2.8-0.2-2.8-0.2l-3.3-0.4l-3-0.1c0,0,3.5-2.1,3.5-5.5
	c0-2.1,0.1-4.1,0.5-6.2c0.2-1,0.7-3.5,0.7-3.5c0.3-0.7,0.7-1.4,1.3-2c0.7-0.5,2.6-2.3,2.6-2.3l-0.7-1.8c0.1-0.8,0.4-1.6,0.9-2.3
	c0.5-0.5,0.9-1,1.2-1.6l0.2-1.9l0.5-1.6l1.1-1.7c0,0,1.7,0.8,2.5,0s3.3-2.5,3.3-2.5l1-1.1l0.1-1.4c1.3,0.1,2.7,0.1,4,0
	c0.7-0.2,2.6,0.1,2.9-3c1.9,0.2,4.4,0.3,4.4,0.3s13.6-10.6,16.5-12.9c1.9-1.5,3.8-3.2,5.5-4.9c0.2-0.5,0.4-1,0.4-1.6
	c-0.6-0.3-1-1-1.1-1.7c0-1.2,0.7-2.1,0-3.5s-0.9-1.6-1.4-1.9c-0.3-0.2-0.6-0.4-0.9-0.7c0-0.6,0.1-1.3,0.2-1.9
	c0.2-1.1,0.5-1.2-0.5-1.8s-1.5,0.3-1.8-1.1c-0.2-1.2-0.2-2.4-0.1-3.7c0-0.5-0.2-3.1-0.2-3.1v-2.8c0.6-0.8,1-1.6,1.4-2.5
	c0.2-0.9,0-1.4,1.1-1.8s2.3-0.4,2.5,0.4s0.4,2.3,1.8,2.1s1.8-0.5,2.1-1.2s0.7-2.1,1.4-1.8s1.4,2.5,2.4,2.5c0.8,0,1.5-0.2,2.2-0.5
	c0,0-0.1,0.3,0.6,1.4c0.6,0.7,1.3,1.3,2.1,1.8c0,0,1.9,0.2,2.5,0.2c0.7,0.1,1.4,0.2,2.1,0.4l1.4,0.7l2.2-0.8c0,0,2.3-0.1,2.8,0.8
	c0.5,0.7,1,1.4,1.6,2.1c1,0.2,1.9,0.5,2.8,1c0.5,0.4,1.1,0.9,1.5,1.5c0.8,0.5,1.4,1.2,2,1.9C260.1,200,260.6,203.3,261.8,202.4z"/>
<path class="st0" d="M270.4,195.4c0,0,3.5-0.4,5.3-1.6s3.7-1.1,4.8-2.3s2.1-1.8,4.8-1.4c2.1,0.2,4,1.2,5.3,2.9
	c0.9,1.2,1.9,3.3,2.6,4c0.8,1,1.3,2.2,1.4,3.5c0,0.7-0.2,1.8-0.4,4.6s0,3.9,0.9,4.4c0.7,0.4,1.2,1.1,1.2,1.9
	c0.2,0.9,2.1,2.8,2.1,2.8s2.3,0.9,2.5,2.6s-0.7,1.8,1.4,2.5s3,0,3,1.4c-0.1,1.7,0,3.4,0.4,5.1c0.4,1.1,0.5,2.1,1.4,2.6
	s1.2,1.4,3.2,1.4c1.2,0.1,2.4,0.6,3.2,1.6c0,0,0.4,4.4,0.5,6s-0.2,1.8,0.9,2.5s1.4,3.9,1.4,3.4s0.2,0.4-0.5,1.2s-2.1,1.1-1.8,2.1
	s1.4,0.5,1.8,2.1s0.7,1.4,0.5,2.6s-0.4,3,0.4,3.2c0.8,0.1,1.4,0.8,1.4,1.6c0.2,1.1,0.4,2.6,0.4,2.6s0.9,2.5,0.4,3.4
	c-0.3,1-0.5,2.1-0.4,3.2c0,0-0.5,2.8,0,3.7c0.7,0.8,1,1.8,1.1,2.8c0,1.4-1.1,1.1-0.9,2.1s0.4,3-0.2,3.5s-1.2-0.4-1.1,0.9
	c0.2,0.9,0.1,1.8-0.4,2.6c-0.4,0.5-1.1,1.3-0.4,2.1s0.7-0.2,1.6-0.4s1.2-0.5,1.4,0.4c0.2,0.6,0.7,1.2,1.2,1.5c0.8,0.5,1,1.5,0.6,2.2
	c0,0,0,0,0,0.1c-0.5,0.7-0.8,1.5-0.9,2.3c-0.5,1-0.9,2.1-1.2,3.2c-0.3,1.5-0.4,3-0.4,4.6c0,1.4-0.3,2.8-0.9,4
	c-0.4,0.8-0.6,1.6-0.7,2.4c0,0-0.5,3.5-1.6,3.4s-2.8-1.6-3.5-1.8s-0.4-1.6-1.6-1.8c-1.1-0.2-2.1-0.2-3.2,0.2c-0.7,0.4-1.2,0.7-2.1,0
	s-1.9-2.1-3.3-2.6s-4.8-1.9-5.6-1.6s-0.7,0.7-1.8-0.4s-2.1-0.9-1.9-2.6s1.4-3.7,0.5-4.8s-1.6-0.9-1.8-1.9s-0.2-2.1-1.2-2.6
	s-0.2-2.3-2.3-1.9s-1.9,1.2-3.1,0.9s-0.9-0.4-2.5-1.2s-2.6-1.5-2.6-1.5l-1.4-1.6l-3-1l-0.7-1.9c-0.3-1.6-0.4-3.3-0.5-4.9
	c0-1.4,0-2.8,0.2-4.2c0.1-1.2,0-2.3-0.2-3.5c0,0-0.5-2.3,0.4-2.6s1.4-0.4,1.1-1.9s0.2-3.7-0.7-4s-2.1-2.1-2.1-2.1l-0.6-1.8
	c0.9-1.2,1.1-2.8,0.7-4.2c-0.7-2.4-1.1-1.2-1.8-3c-0.6-1.2-0.9-2.5-0.9-3.9c-0.1-1.1-0.3-2.3-0.7-3.4c0,0-0.9-3-1.6-3.2
	c-0.7-0.3-1.5-0.3-2.3,0c-0.9,0.4-1.8,0.4-2.1-1c-0.2-0.8-0.9-1.5-1.8-1.6c-0.8,0.3-1.6,0.5-2.5,0.5c-0.8,0-1.7-0.2-2.5-0.5
	l-1.1-1.8c0.9-1.6,1.6-3.3,2.1-5.1c0.4-1.9,0.4-3.4,0.5-3.9s2.8-3.4,3-4.6s0.7-4.2,0.7-4.2s2.6-2.3,2.6-4s-1.2-2.3-2.1-3.7
	c-0.5-0.8-0.8-1.8-0.7-2.8l-0.7-0.5c0,0,1.5-1.1,2.1-1.7c0.4-0.5,0.9-0.8,1.4-1.1c0.7-0.4,0.8-0.1,1.4-0.4s1.6-1.4,2.3-1.7
	s1.7-0.9,1.7-0.9L270.4,195.4z"/>
<path class="st0" d="M270.4,195.4c0,0,3.5-0.4,5.3-1.6s3.7-1.1,4.8-2.3s2.1-1.8,4.8-1.4c2.1,0.2,4,1.2,5.3,2.9
	c0.9,1.2,1.9,3.3,2.6,4c0.8,1,1.3,2.2,1.4,3.5c0,0.7-0.2,1.8-0.4,4.6s0,3.9,0.9,4.4c0.7,0.4,1.2,1.1,1.2,1.9
	c0.2,0.9,2.1,2.8,2.1,2.8s2.3,0.9,2.5,2.6s-0.7,1.8,1.4,2.5s3,0,3,1.4c-0.1,1.7,0,3.4,0.4,5.1c0.4,1.1,0.5,2.1,1.4,2.6
	s1.2,1.4,3.2,1.4c1.2,0.1,2.4,0.6,3.2,1.6c0,0,0.4,4.4,0.5,6s-0.2,1.8,0.9,2.5s1.4,3.9,1.4,3.4s0.2,0.4-0.5,1.2s-2.1,1.1-1.8,2.1
	s1.4,0.5,1.8,2.1s0.7,1.4,0.5,2.6s-0.4,3,0.4,3.2c0.8,0.1,1.4,0.8,1.4,1.6c0.2,1.1,0.4,2.6,0.4,2.6s0.9,2.5,0.4,3.4
	c-0.3,1-0.5,2.1-0.4,3.2c0,0-0.5,2.8,0,3.7c0.7,0.8,1,1.8,1.1,2.8c0,1.4-1.1,1.1-0.9,2.1s0.4,3-0.2,3.5s-1.2-0.4-1.1,0.9
	c0.2,0.9,0.1,1.8-0.4,2.6c-0.4,0.5-1.1,1.3-0.4,2.1s0.7-0.2,1.6-0.4s1.2-0.5,1.4,0.4c0.2,0.6,0.7,1.2,1.2,1.5c0.8,0.5,1,1.5,0.6,2.2
	c0,0,0,0,0,0.1c-0.5,0.7-0.8,1.5-0.9,2.3c-0.5,1-0.9,2.1-1.2,3.2c-0.3,1.5-0.4,3-0.4,4.6c0,1.4-0.3,2.8-0.9,4
	c-0.4,0.8-0.6,1.6-0.7,2.4c0,0-0.5,3.5-1.6,3.4s-2.8-1.6-3.5-1.8s-0.4-1.6-1.6-1.8c-1.1-0.2-2.1-0.2-3.2,0.2c-0.7,0.4-1.2,0.7-2.1,0
	s-1.9-2.1-3.3-2.6s-4.8-1.9-5.6-1.6s-0.7,0.7-1.8-0.4s-2.1-0.9-1.9-2.6s1.4-3.7,0.5-4.8s-1.6-0.9-1.8-1.9s-0.2-2.1-1.2-2.6
	s-0.2-2.3-2.3-1.9s-1.9,1.2-3.1,0.9s-0.9-0.4-2.5-1.2s-2.6-1.5-2.6-1.5l-1.4-1.6l-3-1l-0.7-1.9c-0.3-1.6-0.4-3.3-0.5-4.9
	c0-1.4,0-2.8,0.2-4.2c0.1-1.2,0-2.3-0.2-3.5c0,0-0.5-2.3,0.4-2.6s1.4-0.4,1.1-1.9s0.2-3.7-0.7-4s-2.1-2.1-2.1-2.1l-0.6-1.8
	c0.9-1.2,1.1-2.8,0.7-4.2c-0.7-2.4-1.1-1.2-1.8-3c-0.6-1.2-0.9-2.5-0.9-3.9c-0.1-1.1-0.3-2.3-0.7-3.4c0,0-0.9-3-1.6-3.2
	c-0.7-0.3-1.5-0.3-2.3,0c-0.9,0.4-1.8,0.4-2.1-1c-0.2-0.8-0.9-1.5-1.8-1.6c-0.8,0.3-1.6,0.5-2.5,0.5c-0.8,0-1.7-0.2-2.5-0.5
	l-1.1-1.8c0.9-1.6,1.6-3.3,2.1-5.1c0.4-1.9,0.4-3.4,0.5-3.9s2.8-3.4,3-4.6s0.7-4.2,0.7-4.2s2.6-2.3,2.6-4s-1.2-2.3-2.1-3.7
	c-0.5-0.8-0.8-1.8-0.7-2.8l-0.7-0.5c0,0,1.5-1.1,2.1-1.7c0.4-0.5,0.9-0.8,1.4-1.1c0.7-0.4,0.8-0.1,1.4-0.4s1.6-1.4,2.3-1.7
	s1.7-0.9,1.7-0.9L270.4,195.4z"/>
<path class="st0" d="M242.8,246.8c0,0-0.7,3.5,0.2,4.2s2.3,1.9,3,2.6c0.6,0.5,1.2,1,1.9,1.4c0.5,0.4,1.4,2.6,0.9,3.5
	s-1.4,1.1-1.9,2.1s0.2,1.9-0.9,2.1s-3.7-0.4-5.3,0.2s-3.5,0.4-4.1,1s-1.9,1.1-2.5,1.8c-0.5,0.7-1,1.5-1.4,2.3
	c-0.5,1-1.1,1.2-1.8,2.3c-0.5,0.9-0.9,2-1.2,3c0,0-1.2,2.8-0.7,3.9s-0.2,1.2,1.2,2.1c0.9,0.7,2,1.2,3.1,1.4c1.2,0.2,4.6,2.5,4.6,2.5
	s0,0.5,0.9,1.2s2.1,1.2,2.5,2.1s-0.2,2.3,0.4,3.5s1.6,0.9,1.9,2.3s-0.4,4.8-0.2,5.5s0.2,2.3,0.4,3s1.6,0.9,0.7,2.3
	c-0.7,1-1.1,2.3-1.1,3.5c0,1.4-1.1,3,0.2,3.7s1.1-0.4,2.1,1.4s2.8,3,3.4,1.6s1-1.4,1.9-1.9s0.7-1.8,1.9-1.9s2.5-0.4,2.1-2.1
	c-0.2-1-0.3-2.1-0.2-3.2c0.6-0.4,1.4-0.5,2.1-0.2c1.1,0.5,1.2,0.9,2.3,0.5c1-0.4,2.1-0.5,3.2-0.4c0.9,0.2,2.5,1.1,3.4,0.2
	c0.7-0.7,1.2-1.7,1.4-2.6c0.4-1,1.4-4.2,1.4-4.2c0.8-0.9,1.2-2.2,0.9-3.4c-0.4-2.3,0.4-3.4,0-4.6s-1.1-1.6-1.1-2.5s0.4-3.5,0.4-3.5
	c-0.2-0.7-0.3-1.5-0.4-2.3c0-0.9,1.9-1.4,2.8-1.2s3.5-0.9,3.5-0.9c-0.4-1.3-0.8-2.7-1.1-4c0-0.7,0.4-4.4,0.4-5.3
	c0.1-1.1,0.2-2.2,0.2-3.4c-0.2-0.7-0.7-2.4-0.7-2.4l1.6-1.4c0,0,0-5.1-0.5-5.5s-1.9-1.4-1.9-1.4l-0.7-2.5c0.7-0.9,1-1.9,1.1-3
	c-0.1-0.9-0.4-1.8-0.7-2.6c-0.4-0.2-0.8-0.6-1.1-1.1c-0.7-1.6-1.2-3.3-1.2-5.1c-0.4-1.5-0.9-3-1.4-4.4c0,0,0-1.9-2.4-1.6
	c-0.8,0-1.5,0.1-2.3,0.2c-0.3-0.3-0.5-0.6-0.5-1c0-0.5-1.8-1.6-1.8-1.6c-0.5,0.2-0.9,0.4-1.4,0.5c-0.8,0.1-1.5,0.1-2.3,0l-0.7-0.5
	l-1.6-1.8l-1.4,2.5c-0.6,0.7-1.2,1.3-1.9,1.9c-1.3,1.4-2.5,2.9-3.7,4.4c0,0-2.1,2.5-2.1,3.2c-0.3,1.1-0.8,2.2-1.4,3.2
	C244.8,247,242.8,246.8,242.8,246.8z"/>
<path class="st0" d="M242.8,246.8c0,0-0.7,3.5,0.2,4.2s2.3,1.9,3,2.6c0.6,0.5,1.2,1,1.9,1.4c0.5,0.4,1.4,2.6,0.9,3.5
	s-1.4,1.1-1.9,2.1s0.2,1.9-0.9,2.1s-3.7-0.4-5.3,0.2s-3.5,0.4-4.1,1s-1.9,1.1-2.5,1.8c-0.5,0.7-1,1.5-1.4,2.3
	c-0.5,1-1.1,1.2-1.8,2.3c-0.5,0.9-0.9,2-1.2,3c0,0-1.2,2.8-0.7,3.9s-0.2,1.2,1.2,2.1c0.9,0.7,2,1.2,3.1,1.4c1.2,0.2,4.6,2.5,4.6,2.5
	s0,0.5,0.9,1.2s2.1,1.2,2.5,2.1s-0.2,2.3,0.4,3.5s1.6,0.9,1.9,2.3s-0.4,4.8-0.2,5.5s0.2,2.3,0.4,3s1.6,0.9,0.7,2.3
	c-0.7,1-1.1,2.3-1.1,3.5c0,1.4-1.1,3,0.2,3.7s1.1-0.4,2.1,1.4s2.8,3,3.4,1.6s1-1.4,1.9-1.9s0.7-1.8,1.9-1.9s2.5-0.4,2.1-2.1
	c-0.2-1-0.3-2.1-0.2-3.2c0.6-0.4,1.4-0.5,2.1-0.2c1.1,0.5,1.2,0.9,2.3,0.5c1-0.4,2.1-0.5,3.2-0.4c0.9,0.2,2.5,1.1,3.4,0.2
	c0.7-0.7,1.2-1.7,1.4-2.6c0.4-1,1.4-4.2,1.4-4.2c0.8-0.9,1.2-2.2,0.9-3.4c-0.4-2.3,0.4-3.4,0-4.6s-1.1-1.6-1.1-2.5s0.4-3.5,0.4-3.5
	c-0.2-0.7-0.3-1.5-0.4-2.3c0-0.9,1.9-1.4,2.8-1.2s3.5-0.9,3.5-0.9c-0.4-1.3-0.8-2.7-1.1-4c0-0.7,0.4-4.4,0.4-5.3
	c0.1-1.1,0.2-2.2,0.2-3.4c-0.2-0.7-0.7-2.4-0.7-2.4l1.6-1.4c0,0,0-5.1-0.5-5.5s-1.9-1.4-1.9-1.4l-0.7-2.5c0.7-0.9,1-1.9,1.1-3
	c-0.1-0.9-0.4-1.8-0.7-2.6c-0.4-0.2-0.8-0.6-1.1-1.1c-0.7-1.6-1.2-3.3-1.2-5.1c-0.4-1.5-0.9-3-1.4-4.4c0,0,0-1.9-2.4-1.6
	c-0.8,0-1.5,0.1-2.3,0.2c-0.3-0.3-0.5-0.6-0.5-1c0-0.5-1.8-1.6-1.8-1.6c-0.5,0.2-0.9,0.4-1.4,0.5c-0.8,0.1-1.5,0.1-2.3,0l-0.7-0.5
	l-1.6-1.8l-1.4,2.5c-0.6,0.7-1.2,1.3-1.9,1.9c-1.3,1.4-2.5,2.9-3.7,4.4c0,0-2.1,2.5-2.1,3.2c-0.3,1.1-0.8,2.2-1.4,3.2
	C244.8,247,242.8,246.8,242.8,246.8z"/>
<path class="st1" d="M238.1,283.2c0,1.2-0.3,2.3-0.9,3.3c-0.8,0.9-1.3,2.1-1.4,3.4c0,1.1,0.4,1.6,0.4,2.3c-0.1,1.1-0.1,2.2,0,3.4
	c0,0.8,0.3,1.6,0.7,2.3c0.7,1,1.8,0.9,1.6,2.3s-0.7,2.1,0.9,2.1c1-0.1,2-0.1,3,0c0.9,0.2,1.6-1.4,1.6-1.4s-0.2-3.4-0.2-4.2
	s-0.2-4.8-0.2-4.8l-1.8-1.8l-0.4-3.5l-2.5-2.1L238.1,283.2z"/>
<path class="st0" d="M238.1,283.2c0,1.2-0.3,2.3-0.9,3.3c-0.8,0.9-1.3,2.1-1.4,3.4c0,1.1,0.4,1.6,0.4,2.3c-0.1,1.1-0.1,2.2,0,3.4
	c0,0.8,0.3,1.6,0.7,2.3c0.7,1,1.8,0.9,1.6,2.3s-0.7,2.1,0.9,2.1c1-0.1,2-0.1,3,0c0.9,0.2,1.6-1.4,1.6-1.4s-0.2-3.4-0.2-4.2
	s-0.2-4.8-0.2-4.8l-1.8-1.8l-0.4-3.5l-2.5-2.1L238.1,283.2z"/>
<path class="st0" d="M195,272.1c0,0-0.2,1.9,1.1,2.6s3.1,1.2,3.8,0.9s2.8-1.2,2.8-1.2c0.7,0,1.3-0.1,1.9-0.4
	c1.1-0.4,1.6-0.9,2.8-1.2c0.9-0.4,2-0.6,3-0.5c0.8,0.1,1.6,0,2.3-0.4c1.2-0.4,2.5-0.4,3.7,0c1.2,0.4,2.5,1.4,1.6,1.9
	c-0.8,0.4-1.4,1-1.8,1.8c-0.4,0.7-1.4,1.2-1.4,2.1s-0.7,1.2-0.4,2.3c0.3,0.7,0.6,1.4,0.9,2.1l0.8,1.4c-0.1,0.8,0,1.7,0.4,2.5
	c0.5,1.2,0.7,1.6,1.4,2.1s0.9,1.8,1.9,1.8c1,0.1,2-0.1,3-0.4c1.1-0.4,1.4,0.2,1.9-0.5s0.5-1.2,1.1-1.9s1.6-0.6,1.2-2.6
	s-0.9-2.4-0.7-3.3s0-1.9,1.1-2.5c0.8-0.5,1.4-1.3,1.8-2.1c0-1.6,0.3-3.1,0.9-4.6c0.9-1.6,0.5-1.9,1.6-2.8c0.8-0.9,1.5-1.9,1.9-3
	c0.9-0.9,1.9-1.6,3-2.1c1.6-0.5,3.3-0.9,4.9-1.2h4.9l0.4-2.1c0,0,1.8-1.2,1.9-2.1s-0.4-3.2-0.9-3.5s-1.8-1.4-2.6-2.1
	S243,251,243,251l-0.2-4.2c0,0-1.6,0-1.8-0.9s0.7-2.3-0.7-1.6s-1.8,1.2-2.3,1.4s0,1.2-1.2,0.4s-1.8-1.2-2.1-0.5s-1.7,1.2-1.7,1.2
	c-0.6-0.5-1.3-0.7-2.1-0.7c-1.1,0.2-2.1,0.9-1.8,1.4c0.6,0.6,1.2,1.1,1.9,1.6c0,0,3,1.1,3.3,2.1c0.5,1.5,0.6,3.1,0.4,4.6
	c-0.4,1.2-0.7,2.8-1.6,3.3c-0.7,0.4-1.5,0.8-2.3,1c0,0-0.2-1.6-1.4-1.4c-1.3,0.3-2.4,0.9-3.2,1.9c-0.2,0.8-0.5,1.6-0.9,2.3
	c-0.4,0.6-1,1-1.6,1.4c-1,0.5-2,0.9-3,1.2c-0.4,0.7-0.8,1.2-1.4,1.7c-0.9,0.6-2,1-3,1.4c-1,0.5-1.2,0.9-2.1,0.7
	c-1.2-0.2-2.2-1.1-2.5-2.3c-0.2-1.4-0.4-1.9-1.4-2.1s-1.8-0.9-3,0c-0.8,0.7-1.7,1.2-2.6,1.6c-1.4,0.4-2.9,0.8-4.2,1.4
	c-0.9,0.5-2.4,1.2-2.6,1.9s-1.6,1.9-1.6,1.9l-0.9-0.2L195,272.1z"/>
<path class="st0" d="M195,272.1c0,0-0.2,1.9,1.1,2.6s3.1,1.2,3.8,0.9s2.8-1.2,2.8-1.2c0.7,0,1.3-0.1,1.9-0.4
	c1.1-0.4,1.6-0.9,2.8-1.2c0.9-0.4,2-0.6,3-0.5c0.8,0.1,1.6,0,2.3-0.4c1.2-0.4,2.5-0.4,3.7,0c1.2,0.4,2.5,1.4,1.6,1.9
	c-0.8,0.4-1.4,1-1.8,1.8c-0.4,0.7-1.4,1.2-1.4,2.1s-0.7,1.2-0.4,2.3c0.3,0.7,0.6,1.4,0.9,2.1l0.8,1.4c-0.1,0.8,0,1.7,0.4,2.5
	c0.5,1.2,0.7,1.6,1.4,2.1s0.9,1.8,1.9,1.8c1,0.1,2-0.1,3-0.4c1.1-0.4,1.4,0.2,1.9-0.5s0.5-1.2,1.1-1.9s1.6-0.6,1.2-2.6
	s-0.9-2.4-0.7-3.3s0-1.9,1.1-2.5c0.8-0.5,1.4-1.3,1.8-2.1c0-1.6,0.3-3.1,0.9-4.6c0.9-1.6,0.5-1.9,1.6-2.8c0.8-0.9,1.5-1.9,1.9-3
	c0.9-0.9,1.9-1.6,3-2.1c1.6-0.5,3.3-0.9,4.9-1.2h4.9l0.4-2.1c0,0,1.8-1.2,1.9-2.1s-0.4-3.2-0.9-3.5s-1.8-1.4-2.6-2.1
	S243,251,243,251l-0.2-4.2c0,0-1.6,0-1.8-0.9s0.7-2.3-0.7-1.6s-1.8,1.2-2.3,1.4s0,1.2-1.2,0.4s-1.8-1.2-2.1-0.5s-1.7,1.2-1.7,1.2
	c-0.6-0.5-1.3-0.7-2.1-0.7c-1.1,0.2-2.1,0.9-1.8,1.4c0.6,0.6,1.2,1.1,1.9,1.6c0,0,3,1.1,3.3,2.1c0.5,1.5,0.6,3.1,0.4,4.6
	c-0.4,1.2-0.7,2.8-1.6,3.3c-0.7,0.4-1.5,0.8-2.3,1c0,0-0.2-1.6-1.4-1.4c-1.3,0.3-2.4,0.9-3.2,1.9c-0.2,0.8-0.5,1.6-0.9,2.3
	c-0.4,0.6-1,1-1.6,1.4c-1,0.5-2,0.9-3,1.2c-0.4,0.7-0.8,1.2-1.4,1.7c-0.9,0.6-2,1-3,1.4c-1,0.5-1.2,0.9-2.1,0.7
	c-1.2-0.2-2.2-1.1-2.5-2.3c-0.2-1.4-0.4-1.9-1.4-2.1s-1.8-0.9-3,0c-0.8,0.7-1.7,1.2-2.6,1.6c-1.4,0.4-2.9,0.8-4.2,1.4
	c-0.9,0.5-2.4,1.2-2.6,1.9s-1.6,1.9-1.6,1.9l-0.9-0.2L195,272.1z"/>
<path class="st0" d="M175.6,272c-0.5,0.5-0.7,1.2-0.5,1.9c0.2,1-0.1,2-0.7,2.8c-0.4,0.7-1.4,1.6-1.2,2.5c0.2,0.8,0.2,1.5,0,2.3
	c-0.2,0.7-1.6,3,0,4.2s2.1,1.1,3,1.8s0.9,1.8,1.9,2.8c1,1,2.3,1.7,3.7,1.9c1,0.2,1.9,0.6,2.8,1.1c0.7,0.4,1.4,0.2,2.6,0.4
	s0.4,0.4,2.3,0.9c1.1,0.3,2.3,0.4,3.5,0.5c0,0,1.4-1.2,2.6-0.5s2.4,2.3,3.7,2.6s4.1,1.2,5.3,1.1s2.1-0.4,3.4-0.5
	c1.1-0.2,2.2,0,3.2,0.5c1.2,0.5,0.9,0.4,2.5,0s2.4-0.9,3.3-0.2s0.4,1.8,2.6,1.6s3,1,4.1,1.7s2.6,1.9,3.7,1.6c1.3-0.4,2.7-0.5,4-0.2
	c1.1,0.4,2.4,0.4,3.5,0c1-0.3,2.1-0.5,3.2-0.5c0.3-0.7,0.4-1.4,0.4-2.1c-0.2-0.9-1.4-0.7-1.6-2.3s-0.7-4.2-0.7-4.2v-2.3
	c0-0.5-0.2-3.5-0.2-3.5l1.6-1.8v-2.6c0,0-0.9-1.6-1.8-1.8c-1.2-0.3-2.5-0.7-3.7-1.2c-0.6-0.3-1.2-0.6-1.8-1.1l-1.2-2.1
	c0,0-2.1,1.2-2.3,1.9c-0.2,1-0.2,2,0,3c0.3,0.9,0.4,1.8,0.4,2.8c-0.4,1.1-1,2.1-1.8,3c-0.3,0.3-0.5,0.7-0.5,1.1c0,0,0,0.2-1.9,0.5
	s-1.8,1.1-3,0.4c-1.1-0.9-2.1-1.9-2.8-3.2c-0.4-0.6-0.6-1.4-0.7-2.1c-0.2-1,0.1-1-0.5-1.9s-1.7-1.8-1.4-2.6c0.3-1.1,0.6-2.2,0.7-3.4
	c0.4-0.6,0.9-1.1,1.4-1.6c0.7-0.6,1.2-1.4,1.8-2.1c0,0-2.4-1.4-3.7-1.2c-0.7,0.1-1.4,0.3-1.9,0.7c-0.7-0.2-1.5-0.3-2.3-0.2
	c-1.1,0.2-0.7,0.4-2.5,0.9l-4,1.2c-1,0.2-2,0.4-3,0.7c-0.3,0.2-0.7,0.4-1.1,0.5c-0.9-0.1-1.9-0.2-2.8-0.5c-0.7-0.4-1.8-0.7-1.8-1.2
	s0.2-2.1,0.2-2.1c-1.2,0.2-2.3,0.4-3.5,0.5c-1.4,0-2.8-0.2-4.2-0.4c-1.3-0.4-2.6-0.5-3.9-0.5c-2.1,0-3.3-0.7-4.2-0.4
	c-1,0.2-2,0.1-3-0.1L175.6,272z"/>
<path class="st0" d="M175.6,272c-0.5,0.5-0.7,1.2-0.5,1.9c0.2,1-0.1,2-0.7,2.8c-0.4,0.7-1.4,1.6-1.2,2.5c0.2,0.8,0.2,1.5,0,2.3
	c-0.2,0.7-1.6,3,0,4.2s2.1,1.1,3,1.8s0.9,1.8,1.9,2.8c1,1,2.3,1.7,3.7,1.9c1,0.2,1.9,0.6,2.8,1.1c0.7,0.4,1.4,0.2,2.6,0.4
	s0.4,0.4,2.3,0.9c1.1,0.3,2.3,0.4,3.5,0.5c0,0,1.4-1.2,2.6-0.5s2.4,2.3,3.7,2.6s4.1,1.2,5.3,1.1s2.1-0.4,3.4-0.5
	c1.1-0.2,2.2,0,3.2,0.5c1.2,0.5,0.9,0.4,2.5,0s2.4-0.9,3.3-0.2s0.4,1.8,2.6,1.6s3,1,4.1,1.7s2.6,1.9,3.7,1.6c1.3-0.4,2.7-0.5,4-0.2
	c1.1,0.4,2.4,0.4,3.5,0c1-0.3,2.1-0.5,3.2-0.5c0.3-0.7,0.4-1.4,0.4-2.1c-0.2-0.9-1.4-0.7-1.6-2.3s-0.7-4.2-0.7-4.2v-2.3
	c0-0.5-0.2-3.5-0.2-3.5l1.6-1.8v-2.6c0,0-0.9-1.6-1.8-1.8c-1.2-0.3-2.5-0.7-3.7-1.2c-0.6-0.3-1.2-0.6-1.8-1.1l-1.2-2.1
	c0,0-2.1,1.2-2.3,1.9c-0.2,1-0.2,2,0,3c0.3,0.9,0.4,1.8,0.4,2.8c-0.4,1.1-1,2.1-1.8,3c-0.3,0.3-0.5,0.7-0.5,1.1c0,0,0,0.2-1.9,0.5
	s-1.8,1.1-3,0.4c-1.1-0.9-2.1-1.9-2.8-3.2c-0.4-0.6-0.6-1.4-0.7-2.1c-0.2-1,0.1-1-0.5-1.9s-1.7-1.8-1.4-2.6c0.3-1.1,0.6-2.2,0.7-3.4
	c0.4-0.6,0.9-1.1,1.4-1.6c0.7-0.6,1.2-1.4,1.8-2.1c0,0-2.4-1.4-3.7-1.2c-0.7,0.1-1.4,0.3-1.9,0.7c-0.7-0.2-1.5-0.3-2.3-0.2
	c-1.1,0.2-0.7,0.4-2.5,0.9l-4,1.2c-1,0.2-2,0.4-3,0.7c-0.3,0.2-0.7,0.4-1.1,0.5c-0.9-0.1-1.9-0.2-2.8-0.5c-0.7-0.4-1.8-0.7-1.8-1.2
	s0.2-2.1,0.2-2.1c-1.2,0.2-2.3,0.4-3.5,0.5c-1.4,0-2.8-0.2-4.2-0.4c-1.3-0.4-2.6-0.5-3.9-0.5c-2.1,0-3.3-0.7-4.2-0.4
	c-1,0.2-2,0.1-3-0.1L175.6,272z"/>
<path class="st0" d="M314.8,239.9c0,0,3.2,0,4.6-1.1s5.3-3,6-3.5c1.2-1,2.5-1.9,3.9-2.6c1.2-0.5,3.5-0.2,3.7,0.7s0.2,3.4,0.4,4.2
	c0.8,1.7,1.7,3.3,2.8,4.8c1,1.7,1.7,3.5,2.1,5.5c0.7,2.8,0.7,4.7,3,7.2c2.3,2.5,4.2,7.8,6,10.6s1.4,4.7,2.8,7.7s2.6,3.9,4.4,6.5
	s1,3.7,3,6.5c1.6,2.3,2.8,4.9,3.5,7.6c1.1,3,1.9,6.7,3,8.6s3,8.3,4,10.2s1.8,8.4,1.8,8.4c-0.5-0.9-1.2-1.6-2.1-1.9
	c-1.8-0.9-1.2-2.1-2.6-2.1c-1.5,0-2.9-0.3-4.2-0.9c-1.6-0.7-2.8-1.4-4.8-0.9s-1.8,0.2-3.7,0.4s-2.3-0.5-4.2,0s-1.4,1.4-4.2,0.9
	s-0.5-1.2-3.3-0.7s-2.6-0.4-4.8,0.2s-2.5,1.2-3.5,0.4c-1-0.7-1.8-1.6-2.5-2.6c-0.7-1.2-0.9-1.6-2.6-1.2s-0.5,1-3,0.2
	c-1.1-0.5-2.3-0.7-3.5-0.7l-2.8-1.8l-2.1-3.5l1.6-2.8c-0.1-0.7,0-1.4,0.2-2.1c0.4-0.9,0.8-1.7,1-2.6c0.4-1,0-3.2,0.2-3.9
	s0.5-3,0.5-3l1.2-3.2l0.3-1.6c0,0,1.2-1,0.9-1.8s-0.3-0.4-0.9-1.3s-1.4-2.1-1.4-2.1s-1.4,0.2-1.8,0.7s-1-0.2-1-0.2s-0.4-0.2-0.2-0.9
	c0.1-0.4,0.3-0.8,0.5-1.2c0.2-0.9,0.4-1.7,0.4-2.6l1.1-0.9c0.2-0.6,0.3-1.2,0.3-1.8c0-0.9-0.9-0.5-0.2-1.8c0.5-1,0.8-2.1,0.9-3.2
	l-1-1.8l-0.2-2.5l0.2-2.3l0.4-2.1c0.3-0.7,0.3-1.6,0-2.3c-0.3-0.7-0.6-1.5-0.7-2.3c0.1-0.6-0.1-1.3-0.5-1.8
	c-0.7-0.7-0.5-0.4-0.9-1.2c-0.3-1-0.4-2.1-0.4-3.2c0.1-0.9-0.1-1.8-0.5-2.6c-0.3-0.5-0.7-1-1.1-1.4c-0.5-0.7-1.2-0.7-0.4-1.2
	s0.5-1,1.4-1.6c0.6-0.4,0.9-1.1,0.9-1.8l-0.9-1.2L314.8,239.9z"/>
<path class="st0" d="M314.8,239.9c0,0,3.2,0,4.6-1.1s5.3-3,6-3.5c1.2-1,2.5-1.9,3.9-2.6c1.2-0.5,3.5-0.2,3.7,0.7s0.2,3.4,0.4,4.2
	c0.8,1.7,1.7,3.3,2.8,4.8c1,1.7,1.7,3.5,2.1,5.5c0.7,2.8,0.7,4.7,3,7.2c2.3,2.5,4.2,7.8,6,10.6s1.4,4.7,2.8,7.7s2.6,3.9,4.4,6.5
	s1,3.7,3,6.5c1.6,2.3,2.8,4.9,3.5,7.6c1.1,3,1.9,6.7,3,8.6s3,8.3,4,10.2s1.8,8.4,1.8,8.4c-0.5-0.9-1.2-1.6-2.1-1.9
	c-1.8-0.9-1.2-2.1-2.6-2.1c-1.5,0-2.9-0.3-4.2-0.9c-1.6-0.7-2.8-1.4-4.8-0.9s-1.8,0.2-3.7,0.4s-2.3-0.5-4.2,0s-1.4,1.4-4.2,0.9
	s-0.5-1.2-3.3-0.7s-2.6-0.4-4.8,0.2s-2.5,1.2-3.5,0.4c-1-0.7-1.8-1.6-2.5-2.6c-0.7-1.2-0.9-1.6-2.6-1.2s-0.5,1-3,0.2
	c-1.1-0.5-2.3-0.7-3.5-0.7l-2.8-1.8l-2.1-3.5l1.6-2.8c-0.1-0.7,0-1.4,0.2-2.1c0.4-0.9,0.8-1.7,1-2.6c0.4-1,0-3.2,0.2-3.9
	s0.5-3,0.5-3l1.2-3.2l0.3-1.6c0,0,1.2-1,0.9-1.8s-0.3-0.4-0.9-1.3s-1.4-2.1-1.4-2.1s-1.4,0.2-1.8,0.7s-1-0.2-1-0.2s-0.4-0.2-0.2-0.9
	c0.1-0.4,0.3-0.8,0.5-1.2c0.2-0.9,0.4-1.7,0.4-2.6l1.1-0.9c0.2-0.6,0.3-1.2,0.3-1.8c0-0.9-0.9-0.5-0.2-1.8c0.5-1,0.8-2.1,0.9-3.2
	l-1-1.8l-0.2-2.5l0.2-2.3l0.4-2.1c0.3-0.7,0.3-1.6,0-2.3c-0.3-0.7-0.6-1.5-0.7-2.3c0.1-0.6-0.1-1.3-0.5-1.8
	c-0.7-0.7-0.5-0.4-0.9-1.2c-0.3-1-0.4-2.1-0.4-3.2c0.1-0.9-0.1-1.8-0.5-2.6c-0.3-0.5-0.7-1-1.1-1.4c-0.5-0.7-1.2-0.7-0.4-1.2
	s0.5-1,1.4-1.6c0.6-0.4,0.9-1.1,0.9-1.8l-0.9-1.2L314.8,239.9z"/>
<path class="st0" d="M333.3,317c-0.4-0.2-0.4,0.7-1.8,0.9s-3,0.2-3.5,0.7c-0.6,0.6-1.3,1.2-1.9,1.8c-0.9,0.7-5.1,1.4-5.1,1.4
	s-2.6,0.2-3.7,1.8c-0.7,1.1-1.3,2.3-1.8,3.5c-0.9,1.9-1.6,2.1-1.8,2.8s-1.2,1.4-1,3.3s0.5,2.1-0.5,3s-1.6,2.3-1.2,3
	c0.2,0.9,0.3,1.8,0.2,2.6c0,0-1.4,1.8-2.5,1.2c-0.9-0.6-1.8-1-2.8-1.4c-0.9-0.2-1.2-1.4-3-0.9s-2.1-0.5-3.5,0.4s-2.5,0.5-3,1.8
	s-1.4,1.8-2.6,2.8s-1.6,1.8-3.5,1.8s-4.2,0.4-5.1,0.2c-0.9-0.1-1.9-0.2-2.8-0.2c0,0-3.9,0.7-4.9,0.7s-1.9,0.7-1.9-0.5
	s1.2-4.4,1.4-5.6s1.1-2.1,1.2-3.9s-0.4-1.8,0.7-3.7c1-2.2,1.5-4.5,1.6-6.9c0-1.3,0.3-2.7,0.9-3.9c0.6-1.1,0.8-2.3,0.7-3.5
	c-0.2-1.1,0-2.2,0.4-3.2c0.3-0.8,0.6-1.6,1.1-2.3c0.4-0.7-0.2-2.6,1-3c1.4-0.3,2.8-0.5,4.2-0.5c0.9,0,1.4,0.4,1.8-1.4s0.5-2.5,1.8-3
	c1.1-0.7,1.8-1.9,1.9-3.2c0-0.7-0.7-3.9-0.7-3.9l0.4-1.6l1.9,1.4l2.1-0.4c0.6,0.5,1.4,0.8,2.1,1.1c1,0.2,2,0.5,2.8,1.1
	c0.7,0.5,2.6,2.1,2.6,2.1c0.9,0,1.9,0,2.8-0.2c0.8-0.1,1.6-0.1,2.5,0c0.5,0.6,1,1.2,1.6,1.8c1.1,0.7,2.3,1.3,3.5,1.8l2.1,3.5
	l2.8,1.8l5.1,1l1.4-0.5h2C329,312.6,331.5,317,333.3,317z"/>
<path class="st0" d="M333.3,317c-0.4-0.2-0.4,0.7-1.8,0.9s-3,0.2-3.5,0.7c-0.6,0.6-1.3,1.2-1.9,1.8c-0.9,0.7-5.1,1.4-5.1,1.4
	s-2.6,0.2-3.7,1.8c-0.7,1.1-1.3,2.3-1.8,3.5c-0.9,1.9-1.6,2.1-1.8,2.8s-1.2,1.4-1,3.3s0.5,2.1-0.5,3s-1.6,2.3-1.2,3
	c0.2,0.9,0.3,1.8,0.2,2.6c0,0-1.4,1.8-2.5,1.2c-0.9-0.6-1.8-1-2.8-1.4c-0.9-0.2-1.2-1.4-3-0.9s-2.1-0.5-3.5,0.4s-2.5,0.5-3,1.8
	s-1.4,1.8-2.6,2.8s-1.6,1.8-3.5,1.8s-4.2,0.4-5.1,0.2c-0.9-0.1-1.9-0.2-2.8-0.2c0,0-3.9,0.7-4.9,0.7s-1.9,0.7-1.9-0.5
	s1.2-4.4,1.4-5.6s1.1-2.1,1.2-3.9s-0.4-1.8,0.7-3.7c1-2.2,1.5-4.5,1.6-6.9c0-1.3,0.3-2.7,0.9-3.9c0.6-1.1,0.8-2.3,0.7-3.5
	c-0.2-1.1,0-2.2,0.4-3.2c0.3-0.8,0.6-1.6,1.1-2.3c0.4-0.7-0.2-2.6,1-3c1.4-0.3,2.8-0.5,4.2-0.5c0.9,0,1.4,0.4,1.8-1.4s0.5-2.5,1.8-3
	c1.1-0.7,1.8-1.9,1.9-3.2c0-0.7-0.7-3.9-0.7-3.9l0.4-1.6l1.9,1.4l2.1-0.4c0.6,0.5,1.4,0.8,2.1,1.1c1,0.2,2,0.5,2.8,1.1
	c0.7,0.5,2.6,2.1,2.6,2.1c0.9,0,1.9,0,2.8-0.2c0.8-0.1,1.6-0.1,2.5,0c0.5,0.6,1,1.2,1.6,1.8c1.1,0.7,2.3,1.3,3.5,1.8l2.1,3.5
	l2.8,1.8l5.1,1l1.4-0.5h2C329,312.6,331.5,317,333.3,317z"/>
<path class="st0" d="M252.3,310.7c0.3,0.6,0.2,1.3-0.4,1.8c-0.5,0.4-0.9,0.9-1.2,1.4c0,0-0.4,1,1.2,1s3,1.4,2.3,1.9s-2.1-0.2-2.8,1
	s0.2,1.8-0.9,2.6c-0.7,0.7-1.6,1.2-2.6,1.4c-0.7,0-2.3,0.7-2.1,1.8s-0.2,3.2,0.5,4s1,0.9,1.9,1.8s0.5,1.9,0.7,2.6s0.7,2.8,1.9,3.2
	c1,0.1,1.8,0.7,2.3,1.6c1,1.5,1.9,3,2.6,4.6c0.9,1.8,0.5,2.5,2.3,4s1.8,2.3,3,1.8c0.8-0.6,2-0.3,2.5,0.5c0,0.1,0.1,0.1,0.1,0.2
	c0.7,1.1,1.2,1.9,2.6,1.4c1.4-0.6,2.9-0.9,4.4-0.9c0.9,0.2,1,1.4,1.9,0.2c0.7-0.8,1.6-1.2,2.6-1.1l0.7-2.6c0,0,0.7-3.3,1-4.4
	s0.9-0.5,0.9-2.5s-0.2-2.1,0.4-3c0.5-1.1,1-2.3,1.4-3.5l0.5-4l0.4-2.6l1.2-3.5v-3.2l1.4-3.5c0,0,0-2.8,1.8-3.2
	c1.6-0.3,3.3-0.4,4.9-0.5l1.2-3.5l0.9-0.7l1.9-3.2l-0.7-3.9l0.4-1.6l-1.4-0.9l0.3-1l0.5-4.8l-1.8-1.9l-0.2-1.9l-1.1-0.7l-1-1.9h-1.3
	l-3.1,0.9l-4.4-2.3l-2.1-2.1l-3-1l-0.7-1.9l-1.4,1.4l-3,0.4l-1.6,1.1l0.4,2.3l-0.2,2.3l-0.2,1.2l1.1,2.5v6.3l-0.9,1.6l-2.1,5.6
	c0,0-0.7,1.8-1.4,1.8c-0.6,0-1.2-0.2-1.8-0.4l-1.8-0.4l-1.6,0.4l-2.3,0.2l-1.6-0.9l-1.2,0.3l0.2,4.8l-1.2,0.4l-0.9,0.2L252.3,310.7z
	"/>
<path class="st0" d="M252.3,310.7c0.3,0.6,0.2,1.3-0.4,1.8c-0.5,0.4-0.9,0.9-1.2,1.4c0,0-0.4,1,1.2,1s3,1.4,2.3,1.9s-2.1-0.2-2.8,1
	s0.2,1.8-0.9,2.6c-0.7,0.7-1.6,1.2-2.6,1.4c-0.7,0-2.3,0.7-2.1,1.8s-0.2,3.2,0.5,4s1,0.9,1.9,1.8s0.5,1.9,0.7,2.6s0.7,2.8,1.9,3.2
	c1,0.1,1.8,0.7,2.3,1.6c1,1.5,1.9,3,2.6,4.6c0.9,1.8,0.5,2.5,2.3,4s1.8,2.3,3,1.8c0.8-0.6,2-0.3,2.5,0.5c0,0.1,0.1,0.1,0.1,0.2
	c0.7,1.1,1.2,1.9,2.6,1.4c1.4-0.6,2.9-0.9,4.4-0.9c0.9,0.2,1,1.4,1.9,0.2c0.7-0.8,1.6-1.2,2.6-1.1l0.7-2.6c0,0,0.7-3.3,1-4.4
	s0.9-0.5,0.9-2.5s-0.2-2.1,0.4-3c0.5-1.1,1-2.3,1.4-3.5l0.5-4l0.4-2.6l1.2-3.5v-3.2l1.4-3.5c0,0,0-2.8,1.8-3.2
	c1.6-0.3,3.3-0.4,4.9-0.5l1.2-3.5l0.9-0.7l1.9-3.2l-0.7-3.9l0.4-1.6l-1.4-0.9l0.3-1l0.5-4.8l-1.8-1.9l-0.2-1.9l-1.1-0.7l-1-1.9h-1.3
	l-3.1,0.9l-4.4-2.3l-2.1-2.1l-3-1l-0.7-1.9l-1.4,1.4l-3,0.4l-1.6,1.1l0.4,2.3l-0.2,2.3l-0.2,1.2l1.1,2.5v6.3l-0.9,1.6l-2.1,5.6
	c0,0-0.7,1.8-1.4,1.8c-0.6,0-1.2-0.2-1.8-0.4l-1.8-0.4l-1.6,0.4l-2.3,0.2l-1.6-0.9l-1.2,0.3l0.2,4.8l-1.2,0.4l-0.9,0.2L252.3,310.7z
	"/>
<path class="st2" d="M164.7,278.5c0,0-0.9,2.6,0.5,3.2s1.1,0.9,0.5,3c-0.4,1.2-0.7,2.6-0.7,3.9c0,1.6-0.5,0.7-1.8,2.6
	s-0.5,1.9-2.1,4s-1.8,2.1-1.8,3.3c-0.1,1.4-0.5,2.8-1.2,4c-0.9,1.8-1.8,3.3-1.6,5.3s-0.4,3.3,1.2,3.7c1.6,0.3,3.3,0.4,4.9,0.4
	c1.8,0,3.9-1.4,5.1,0.5s-0.2,3.7,1.8,4.6s2.3,1.8,2.3,3.4s0.7,4.2,2.3,5.5s2.5,1.4,4.4,3.4s2.3,2.1,2.6,4.4s0,3.5,1.6,3.2
	s1.2-1.8,2.6-2.5s2.5-1.2,3.7-0.4c0.9,0.7,2,1,3.2,0.9c1.4,0,3,2.8,2.8,3.5s-1.4,2.1-0.7,4.2s1.2,3.3,1.9,5.1s0.2,2.3,0.7,4.6
	s1.1,3.7-0.7,4.6c-1.1,0.6-2.3,0.9-3.5,0.9c-0.7,0,2.3,3.5,2.3,3.5s0,2.1,0.9,2.5s0.9,0.9,1.6,1.8s2.1,2.3,2.1,2.3s0.2,1.2,1.2,1.2
	s1.4,0.2,3.2,0.4s3,0,4.4,0.5l2.8,1.1c0.6,0.9,1.3,1.7,2.1,2.5c0.9,0.7,1.8,1.2,2.6,0.5s1.6-1.9,3-0.9c0.8,0.6,1.8,1.1,2.8,1.2
	l2.5,1.4c0,0-0.4,0,1.1,0.9s1.2,2.1,3,1.9c1.3,0,2.3-1,2.3-2.3c0.2-1.4,0.5-2.8,0.9-4.2c0.5-1.8,1.2-3.4,0-4.6
	c-0.9-0.8-1.9-1.5-3-1.9c-0.7-0.8-1.3-1.7-1.8-2.6c-0.5-1.2-1.8-2.6-0.5-3.7c1.2-1.1,2.3-2.3,3.3-3.5c0.1-0.9,0.1-1.9,0-2.8
	c-0.3-1.2-0.4-2.3-0.4-3.5c0.2-1,0-1.2,1.8-1.4s1.8,0,2.5-0.7s2.6-0.5,3.7-1.2c0.6-0.4,1.1-0.9,1.6-1.4l2.6-0.2
	c1.1-0.2,2.1-0.6,3-1.2c1.1-0.9,1.2-1.4,2.5-1.4c0.9-0.1,1.7-0.4,2.5-0.9c1.2-0.2,2.3-0.7,3.2-1.4c0.6-0.7,0.9-1.6,0.7-2.5
	c0,0-0.4-1.1-1.2-1.2s-1.6,0-1.9-0.7c-0.5-0.9-0.9-1.8-1.1-2.8c0.2-0.9-0.1-1.9-0.7-2.6c-0.9-0.9-2.5-2.3-2.5-3.5s-0.9-1.2,0-2.3
	s0.9-1.6,2.1-1.8c1-0.3,1.9-0.7,2.6-1.4l0.7-1.4c-0.3-0.3-0.3-0.7-0.1-1.1c0.1-0.1,0.1-0.1,0.2-0.2c0.9-0.4,1.8-0.8,2.8-1
	c0,0,0-1.2-0.7-1.4c-0.5-0.1-1.1-0.3-1.6-0.5c-0.9-0.4-2.1-0.2-1.2-1c0.5-0.4,0.9-0.9,1.2-1.4l0.4-1.8c0,0-0.9-0.5-1.2,0.2
	c-0.3,0.6-0.7,1.1-1.1,1.6c0,0-0.3,0.4-0.9,0.9c-0.5,0.3-1,0.4-1.6,0.3c-0.6-0.6-1.2-1.3-1.8-1.9c-0.4-0.4-0.8-0.8-1.2-1.1l-1.6-1.8
	c0,0,0.4-1.4,0.5-2.3s0.4-2.3,0.4-2.3s1.8-1.4,1.1-2.3s-0.5-1.9-1.1-1.2s-0.5,1-1.6,1.4c-1,0.2-2,0.2-3,0h-1.2
	c-1.3,0.3-2.6,0.5-3.9,0.5c-1.4,0-1.4,0.3-2.8,0c-0.9-0.3-1.9-0.4-2.8-0.2c-0.7,0.3-1.4,0.4-2.1,0.4c-1.1-0.3-2.1-0.8-2.8-1.6
	c-0.7-0.7-0.7-1.2-1.9-1.6s-1.1,0-2.1-0.2s-0.5,0.5-1.6-0.5s-1.2-1.4-2.1-1.4c-1.3,0.2-2.5,0.6-3.7,1l-2.3-0.9c-1-0.2-2.1-0.2-3.2,0
	c-1.7,0.4-3.4,0.5-5.1,0.2c-1.3-0.2-2.6-0.7-3.7-1.4c-0.8-0.6-1.6-1.3-2.3-2.1c0,0-0.5-0.5-1.6,0.2s-0.4,0.9-1.8,0.7
	c-1.3-0.2-2.5-0.6-3.7-1c-0.8-0.4-1.6-0.6-2.5-0.7c-1.1-0.1-2.1-0.3-3.2-0.5c-1.2-0.5-2.4-1.1-3.5-1.8c-0.8-0.7-1.5-1.5-2.1-2.3
	c-0.5-0.6-1.1-1.2-1.8-1.8c-0.7-0.5-2.1-0.9-2.5-1.6c-0.5-0.8-0.7-1.8-0.5-2.8c0.4-0.9,0.5-1.4,0.5-1.4l0.2-2.8c0,0,3-4,1.4-6
	l-5.4,4.2L164.7,278.5z"/>
<g>
	<defs>
		<path id="SVGID_1_" d="M164.7,278.5c0,0-0.9,2.6,0.5,3.2s1.1,0.9,0.5,3c-0.4,1.2-0.7,2.6-0.7,3.9c0,1.6-0.5,0.7-1.8,2.6
			s-0.5,1.9-2.1,4s-1.8,2.1-1.8,3.3c-0.1,1.4-0.5,2.8-1.2,4c-0.9,1.8-1.8,3.3-1.6,5.3s-0.4,3.3,1.2,3.7c1.6,0.3,3.3,0.4,4.9,0.4
			c1.8,0,3.9-1.4,5.1,0.5s-0.2,3.7,1.8,4.6s2.3,1.8,2.3,3.4s0.7,4.2,2.3,5.5s2.5,1.4,4.4,3.4s2.3,2.1,2.6,4.4s0,3.5,1.6,3.2
			s1.2-1.8,2.6-2.5s2.5-1.2,3.7-0.4c0.9,0.7,2,1,3.2,0.9c1.4,0,3,2.8,2.8,3.5s-1.4,2.1-0.7,4.2s1.2,3.3,1.9,5.1s0.2,2.3,0.7,4.6
			s1.1,3.7-0.7,4.6c-1.1,0.6-2.3,0.9-3.5,0.9c-0.7,0,2.3,3.5,2.3,3.5s0,2.1,0.9,2.5s0.9,0.9,1.6,1.8s2.1,2.3,2.1,2.3
			s0.2,1.2,1.2,1.2s1.4,0.2,3.2,0.4s3,0,4.4,0.5l2.8,1.1c0.6,0.9,1.3,1.7,2.1,2.5c0.9,0.7,1.8,1.2,2.6,0.5s1.6-1.9,3-0.9
			c0.8,0.6,1.8,1.1,2.8,1.2l2.5,1.4c0,0-0.4,0,1.1,0.9s1.2,2.1,3,1.9c1.3,0,2.3-1,2.3-2.3c0.2-1.4,0.5-2.8,0.9-4.2
			c0.5-1.8,1.2-3.4,0-4.6c-0.9-0.8-1.9-1.5-3-1.9c-0.7-0.8-1.3-1.7-1.8-2.6c-0.5-1.2-1.8-2.6-0.5-3.7c1.2-1.1,2.3-2.3,3.3-3.5
			c0.1-0.9,0.1-1.9,0-2.8c-0.3-1.2-0.4-2.3-0.4-3.5c0.2-1,0-1.2,1.8-1.4s1.8,0,2.5-0.7s2.6-0.5,3.7-1.2c0.6-0.4,1.1-0.9,1.6-1.4
			l2.6-0.2c1.1-0.2,2.1-0.6,3-1.2c1.1-0.9,1.2-1.4,2.5-1.4c0.9-0.1,1.7-0.4,2.5-0.9c1.2-0.2,2.3-0.7,3.2-1.4
			c0.6-0.7,0.9-1.6,0.7-2.5c0,0-0.4-1.1-1.2-1.2s-1.6,0-1.9-0.7c-0.5-0.9-0.9-1.8-1.1-2.8c0.2-0.9-0.1-1.9-0.7-2.6
			c-0.9-0.9-2.5-2.3-2.5-3.5s-0.9-1.2,0-2.3s0.9-1.6,2.1-1.8c1-0.3,1.9-0.7,2.6-1.4l0.7-1.4c-0.3-0.3-0.3-0.7-0.1-1.1
			c0.1-0.1,0.1-0.1,0.2-0.2c0.9-0.4,1.8-0.8,2.8-1c0,0,0-1.2-0.7-1.4c-0.5-0.1-1.1-0.3-1.6-0.5c-0.9-0.4-2.1-0.2-1.2-1
			c0.5-0.4,0.9-0.9,1.2-1.4l0.4-1.8c0,0-0.9-0.5-1.2,0.2c-0.3,0.6-0.7,1.1-1.1,1.6c0,0-0.3,0.4-0.9,0.9c-0.5,0.3-1,0.4-1.6,0.3
			c-0.6-0.6-1.2-1.3-1.8-1.9c-0.4-0.4-0.8-0.8-1.2-1.1l-1.6-1.8c0,0,0.4-1.4,0.5-2.3s0.4-2.3,0.4-2.3s1.8-1.4,1.1-2.3
			s-0.5-1.9-1.1-1.2s-0.5,1-1.6,1.4c-1,0.2-2,0.2-3,0h-1.2c-1.3,0.3-2.6,0.5-3.9,0.5c-1.4,0-1.4,0.3-2.8,0c-0.9-0.3-1.9-0.4-2.8-0.2
			c-0.7,0.3-1.4,0.4-2.1,0.4c-1.1-0.3-2.1-0.8-2.8-1.6c-0.7-0.7-0.7-1.2-1.9-1.6s-1.1,0-2.1-0.2s-0.5,0.5-1.6-0.5s-1.2-1.4-2.1-1.4
			c-1.3,0.2-2.5,0.6-3.7,1l-2.3-0.9c-1-0.2-2.1-0.2-3.2,0c-1.7,0.4-3.4,0.5-5.1,0.2c-1.3-0.2-2.6-0.7-3.7-1.4
			c-0.8-0.6-1.6-1.3-2.3-2.1c0,0-0.5-0.5-1.6,0.2s-0.4,0.9-1.8,0.7c-1.3-0.2-2.5-0.6-3.7-1c-0.8-0.4-1.6-0.6-2.5-0.7
			c-1.1-0.1-2.1-0.3-3.2-0.5c-1.2-0.5-2.4-1.1-3.5-1.8c-0.8-0.7-1.5-1.5-2.1-2.3c-0.5-0.6-1.1-1.2-1.8-1.8c-0.7-0.5-2.1-0.9-2.5-1.6
			c-0.5-0.8-0.7-1.8-0.5-2.8c0.4-0.9,0.5-1.4,0.5-1.4l0.2-2.8c0,0,3-4,1.4-6l-5.4,4.2L164.7,278.5z"/>
	</defs>
	<clipPath id="SVGID_2_">
		<use xlink:href="#SVGID_1_"  style="overflow:visible;"/>
	</clipPath>
	<g class="st3">
		<path class="st0" d="M142,283.9l5.4,2.7l4.2-3.7c0,0,14.8-10.3,15.1-12.8s1.4-9.2,1.4-10.9s0.8-3.3,0.6-5s-1.3-4.1-0.8-7.4
			s0.8-16.7,0.8-16.7s0.4-3.1-0.8-5.1c-0.6-0.9-1-1.9-1.2-3c0,0,3.1-0.8,3.6-2.5s2.4-6.1,3.6-6.8s1.4-3.5,1.7-4.9
			c0.4-1.6,1-3.2,1.7-4.8c0.4-1.3,0.6-2.6,0.6-3.9l0.3-2.8c0,0,4.4-9.2,5.7-11.2c1.5-2.6,2.5-5.4,2.7-8.4c0-2.2-0.6-8.1,0.6-11.1
			s0.6-9,1.1-10.1s0.8-4.2,1.1-5.3s-0.3-4.1,0.8-7c0.9-2.2,1.5-4.6,1.7-7c0-1.4,0.6-5.6,0.6-5.6l0.2-3.3l12.4,0.8
			c0.5-1,0.6-2.1,0.3-3.2c-0.3-1.7-0.3-3.3,0-5c0,0,0.3-1.4,0.6-2.5s-0.6-2.5-1.1-3.6c-0.4-0.8-0.9-1.5-1.4-2.2l-1-1.4
			c-1.9-2.3-4.8-3.4-7.7-2.8c-5,0.9-5.8,1.1-7.2,0.1s-7.9-3.7-7.9-3.7l-6.1-3.6l-3.6-2.6l-3.5-3.2c0,0-0.5,5.4-4,7.5
			c-0.1,0.2-2.1,3.5-2.1,3.5l-3.6,3l0.8,1.8l-0.5,5.2l0.5,1.7l1.9,2.3c0,0,0.9,1.4-2,2.3c0.2,0.1-1.5,1.5-1.5,1.5v2.6l0.6,1.6
			l-0.3,3.4l1.7,4.2l-0.3,1.2l0.3,1.9l0.2,3.4l-3,5l-4.2-1.4l-2.2,2.1l-4.2,4l-1.5,1.2l-3.9,0.6l0.5,3l-1.5,4.2l-1,5.5l-1.7,4.3
			l-0.5,2.8l1.1,2.8l3.8,1.4l1,3l-3.1,3.4c0,0-1.1,3.4-3.1,3.4c-0.3,0.3-2.4-1.6-1.9-3.2c0.5-0.2-1.2-1.3-1.2-1.3
			c-0.8,0.7-1.7,1.3-2.7,1.8c-1.5,0.8-2.9,1.7-4.2,2.7l-1.2,2l0.2,2.9l-4.7,0.4l-6.6-0.9l-1.5,2l0.8,3.3c0,0,8.4,22.4,9.2,27.1
			c0.6,2.8,2,10.9,3.4,14.2s3.6,12.3,5.3,14.5c1.1,2.8,2.2,11,4.8,13.1c1,1.1,2.2,2.1,3.4,3l0.5,2.9l3.1,9.2L142,283.9z"/>
		<path class="st0" d="M142,283.9l5.4,2.7l4.2-3.7c0,0,14.8-10.3,15.1-12.8s1.4-9.2,1.4-10.9s0.8-3.3,0.6-5s-1.3-4.1-0.8-7.4
			s0.8-16.7,0.8-16.7s0.4-3.1-0.8-5.1c-0.6-0.9-1-1.9-1.2-3c0,0,3.1-0.8,3.6-2.5s2.4-6.1,3.6-6.8s1.4-3.5,1.7-4.9
			c0.4-1.6,1-3.2,1.7-4.8c0.4-1.3,0.6-2.6,0.6-3.9l0.3-2.8c0,0,4.4-9.2,5.7-11.2c1.5-2.6,2.5-5.4,2.7-8.4c0-2.2-0.6-8.1,0.6-11.1
			s0.6-9,1.1-10.1s0.8-4.2,1.1-5.3s-0.3-4.1,0.8-7c0.9-2.2,1.5-4.6,1.7-7c0-1.4,0.6-5.6,0.6-5.6l0.2-3.3l12.4,0.8
			c0.5-1,0.6-2.1,0.3-3.2c-0.3-1.7-0.3-3.3,0-5c0,0,0.3-1.4,0.6-2.5s-0.6-2.5-1.1-3.6c-0.4-0.8-0.9-1.5-1.4-2.2l-1-1.4
			c-1.9-2.3-4.8-3.4-7.7-2.8c-5,0.9-5.8,1.1-7.2,0.1s-7.9-3.7-7.9-3.7l-6.1-3.6l-3.6-2.6l-3.5-3.2c0,0-0.5,5.4-4,7.5
			c-0.1,0.2-2.1,3.5-2.1,3.5l-3.6,3l0.8,1.8l-0.5,5.2l0.5,1.7l1.9,2.3c0,0,0.9,1.4-2,2.3c0.2,0.1-1.5,1.5-1.5,1.5v2.6l0.6,1.6
			l-0.3,3.4l1.7,4.2l-0.3,1.2l0.3,1.9l0.2,3.4l-3,5l-4.2-1.4l-2.2,2.1l-4.2,4l-1.5,1.2l-3.9,0.6l0.5,3l-1.5,4.2l-1,5.5l-1.7,4.3
			l-0.5,2.8l1.1,2.8l3.8,1.4l1,3l-3.1,3.4c0,0-1.1,3.4-3.1,3.4c-0.3,0.3-2.4-1.6-1.9-3.2c0.5-0.2-1.2-1.3-1.2-1.3
			c-0.8,0.7-1.7,1.3-2.7,1.8c-1.5,0.8-2.9,1.7-4.2,2.7l-1.2,2l0.2,2.9l-4.7,0.4l-6.6-0.9l-1.5,2l0.8,3.3c0,0,8.4,22.4,9.2,27.1
			c0.6,2.8,2,10.9,3.4,14.2s3.6,12.3,5.3,14.5c1.1,2.8,2.2,11,4.8,13.1c1,1.1,2.2,2.1,3.4,3l0.5,2.9l3.1,9.2L142,283.9z"/>
	</g>
</g>
<path class="st4" d="M164.7,278.5c0,0-0.9,2.6,0.5,3.2s1.1,0.9,0.5,3c-0.4,1.2-0.7,2.6-0.7,3.9c0,1.6-0.5,0.7-1.8,2.6
	s-0.5,1.9-2.1,4s-1.8,2.1-1.8,3.3c-0.1,1.4-0.5,2.8-1.2,4c-0.9,1.8-1.8,3.3-1.6,5.3s-0.4,3.3,1.2,3.7c1.6,0.3,3.3,0.4,4.9,0.4
	c1.8,0,3.9-1.4,5.1,0.5s-0.2,3.7,1.8,4.6s2.3,1.8,2.3,3.4s0.7,4.2,2.3,5.5s2.5,1.4,4.4,3.4s2.3,2.1,2.6,4.4s0,3.5,1.6,3.2
	s1.2-1.8,2.6-2.5s2.5-1.2,3.7-0.4c0.9,0.7,2,1,3.2,0.9c1.4,0,3,2.8,2.8,3.5s-1.4,2.1-0.7,4.2s1.2,3.3,1.9,5.1s0.2,2.3,0.7,4.6
	s1.1,3.7-0.7,4.6c-1.1,0.6-2.3,0.9-3.5,0.9c-0.7,0,2.3,3.5,2.3,3.5s0,2.1,0.9,2.5s0.9,0.9,1.6,1.8s2.1,2.3,2.1,2.3s0.2,1.2,1.2,1.2
	s1.4,0.2,3.2,0.4s3,0,4.4,0.5l2.8,1.1c0.6,0.9,1.3,1.7,2.1,2.5c0.9,0.7,1.8,1.2,2.6,0.5s1.6-1.9,3-0.9c0.8,0.6,1.8,1.1,2.8,1.2
	l2.5,1.4c0,0-0.4,0,1.1,0.9s1.2,2.1,3,1.9c1.3,0,2.3-1,2.3-2.3c0.2-1.4,0.5-2.8,0.9-4.2c0.5-1.8,1.2-3.4,0-4.6
	c-0.9-0.8-1.9-1.5-3-1.9c-0.7-0.8-1.3-1.7-1.8-2.6c-0.5-1.2-1.8-2.6-0.5-3.7c1.2-1.1,2.3-2.3,3.3-3.5c0.1-0.9,0.1-1.9,0-2.8
	c-0.3-1.2-0.4-2.3-0.4-3.5c0.2-1,0-1.2,1.8-1.4s1.8,0,2.5-0.7s2.6-0.5,3.7-1.2c0.6-0.4,1.1-0.9,1.6-1.4l2.6-0.2
	c1.1-0.2,2.1-0.6,3-1.2c1.1-0.9,1.2-1.4,2.5-1.4c0.9-0.1,1.7-0.4,2.5-0.9c1.2-0.2,2.3-0.7,3.2-1.4c0.6-0.7,0.9-1.6,0.7-2.5
	c0,0-0.4-1.1-1.2-1.2s-1.6,0-1.9-0.7c-0.5-0.9-0.9-1.8-1.1-2.8c0.2-0.9-0.1-1.9-0.7-2.6c-0.9-0.9-2.5-2.3-2.5-3.5s-0.9-1.2,0-2.3
	s0.9-1.6,2.1-1.8c1-0.3,1.9-0.7,2.6-1.4l0.7-1.4c-0.3-0.3-0.3-0.7-0.1-1.1c0.1-0.1,0.1-0.1,0.2-0.2c0.9-0.4,1.8-0.8,2.8-1
	c0,0,0-1.2-0.7-1.4c-0.5-0.1-1.1-0.3-1.6-0.5c-0.9-0.4-2.1-0.2-1.2-1c0.5-0.4,0.9-0.9,1.2-1.4l0.4-1.8c0,0-0.9-0.5-1.2,0.2
	c-0.3,0.6-0.7,1.1-1.1,1.6c0,0-0.3,0.4-0.9,0.9c-0.5,0.3-1,0.4-1.6,0.3c-0.6-0.6-1.2-1.3-1.8-1.9c-0.4-0.4-0.8-0.8-1.2-1.1l-1.6-1.8
	c0,0,0.4-1.4,0.5-2.3s0.4-2.3,0.4-2.3s1.8-1.4,1.1-2.3s-0.5-1.9-1.1-1.2s-0.5,1-1.6,1.4c-1,0.2-2,0.2-3,0h-1.2
	c-1.3,0.3-2.6,0.5-3.9,0.5c-1.4,0-1.4,0.3-2.8,0c-0.9-0.3-1.9-0.4-2.8-0.2c-0.7,0.3-1.4,0.4-2.1,0.4c-1.1-0.3-2.1-0.8-2.8-1.6
	c-0.7-0.7-0.7-1.2-1.9-1.6s-1.1,0-2.1-0.2s-0.5,0.5-1.6-0.5s-1.2-1.4-2.1-1.4c-1.3,0.2-2.5,0.6-3.7,1l-2.3-0.9c-1-0.2-2.1-0.2-3.2,0
	c-1.7,0.4-3.4,0.5-5.1,0.2c-1.3-0.2-2.6-0.7-3.7-1.4c-0.8-0.6-1.6-1.3-2.3-2.1c0,0-0.5-0.5-1.6,0.2s-0.4,0.9-1.8,0.7
	c-1.3-0.2-2.5-0.6-3.7-1c-0.8-0.4-1.6-0.6-2.5-0.7c-1.1-0.1-2.1-0.3-3.2-0.5c-1.2-0.5-2.4-1.1-3.5-1.8c-0.8-0.7-1.5-1.5-2.1-2.3
	c-0.5-0.6-1.1-1.2-1.8-1.8c-0.7-0.5-2.1-0.9-2.5-1.6c-0.5-0.8-0.7-1.8-0.5-2.8c0.4-0.9,0.5-1.4,0.5-1.4l0.2-2.8c0,0,3-4,1.4-6
	l-5.4,4.2L164.7,278.5z"/>
<path class="st0" d="M192.9,358.4c0,0-3-0.7-3.7,0.2s-0.9,2.3-1.6,3.5s-2.6,3.5-2.6,5.5s0.4,3.7-0.2,4.4s-1.8,3.9,0,4.9s4.8,0,6,0.4
	s1.8,1.8,4,1.9s4.2-0.5,5.1,0.2s1.6,3.5,1.6,3.5s-0.5,1.4,1.4,1.2s4.6-1.2,5.1-2.1c0.7-1,1.6-1.9,2.6-2.6c0.7-0.3,1.3-0.8,1.8-1.4
	c0.8-1.1,1.5-2.4,1.9-3.7c0,0-2.1-3.2-3-3.3s-4.2-1.2-4.2-1.2c-1,0-2-0.1-3-0.4c-1.2-0.4-4.1-0.9-4.1-0.9s0.9,0.5-0.4-0.7
	c-0.8-0.7-1.5-1.5-2.1-2.3c-0.7-0.9-1.2-1-1.6-1.8c-0.4-0.8-0.7-1.6-0.9-2.5c-0.2-0.7-1.4-1.4-1.4-1.4L192.9,358.4z"/>
<path class="st0" d="M192.9,358.4c0,0-3-0.7-3.7,0.2s-0.9,2.3-1.6,3.5s-2.6,3.5-2.6,5.5s0.4,3.7-0.2,4.4s-1.8,3.9,0,4.9s4.8,0,6,0.4
	s1.8,1.8,4,1.9s4.2-0.5,5.1,0.2s1.6,3.5,1.6,3.5s-0.5,1.4,1.4,1.2s4.6-1.2,5.1-2.1c0.7-1,1.6-1.9,2.6-2.6c0.7-0.3,1.3-0.8,1.8-1.4
	c0.8-1.1,1.5-2.4,1.9-3.7c0,0-2.1-3.2-3-3.3s-4.2-1.2-4.2-1.2c-1,0-2-0.1-3-0.4c-1.2-0.4-4.1-0.9-4.1-0.9s0.9,0.5-0.4-0.7
	c-0.8-0.7-1.5-1.5-2.1-2.3c-0.7-0.9-1.2-1-1.6-1.8c-0.4-0.8-0.7-1.6-0.9-2.5c-0.2-0.7-1.4-1.4-1.4-1.4L192.9,358.4z"/>
<path class="st0" d="M292.3,347.1c-1.2,0.5-2.3,1.2-3.2,2.1c-1.4,1.2-2.1,2.9-1.9,4.8c0,1.4,0.5,4.6,0.4,5.5s-1.2,4.6-1.2,4.6
	l-1.1,3.2c0,0-0.7,1.2,0,3.7s0.9,2.8,0.5,4.9s-0.9,1.9-0.7,3.7c0.3,1.5,0.3,3.1,0,4.6c-0.4,1.6-0.9,3.5-0.9,3.5s-1.1,2.5-1.6,3.5
	c-0.8,1.3-1.1,2.8-0.9,4.2c0.4,1.8-1.6,4.4,1.4,3.7s3.9-2.8,4.9-3s4,0,5.3,1.1s2.5,2.8,3.7,3.3s1.4,1.9,3.7-0.4s1.9-3.2,3.7-4.2
	c1.7-1,3-2.6,3.5-4.6c0.4-1.8,0.9-4.4,0.9-4.4s0.9-0.4,2.5-2.6c1.4-2,3-3.8,4.9-5.3c0.9-0.5,3-2.6,2.5-4.4c-0.4-1.2-1-2.4-1.8-3.5
	c-0.7-1.4-1.9-1.9-1.4-3.9s0.7-1.9,0.5-3.3c-0.2-1-0.2-2.1,0-3.2c0.2-0.9,0-1.4,0.2-2.5s-0.2-1.2,0.4-2.3s1.4-2.3,1.8-3
	s0.7-1.6,2.1-0.7c1.1,0.6,2.3,0.9,3.5,0.9c0,0,1.6-2.3-0.2-2.5c-1.2-0.2-2.3-0.6-3.3-1.2c0,0-1.9-1-2.3-0.2s-0.7,2.6-1.6,1.4
	s-1.4-1.6-1.6-2.5s-0.7-2.8-0.7-2.8c-0.9,0.1-1.8-0.4-2.1-1.2c-0.3-0.8-0.6-1.6-1.1-2.3c0,0-1.6,1.8-2.5,1.2
	c-0.7-0.4-1.4-0.7-2.1-1.1c-0.7-0.6-1.5-1.1-2.5-1.2h-1.9c-0.9-0.4-2-0.3-2.8,0.4c-1.4,1.1-1.6,0.7-2.3,1.2
	c-0.8,0.8-1.5,1.7-2.1,2.7L292.3,347.1z"/>
<path class="st0" d="M292.3,347.1c-1.2,0.5-2.3,1.2-3.2,2.1c-1.4,1.2-2.1,2.9-1.9,4.8c0,1.4,0.5,4.6,0.4,5.5s-1.2,4.6-1.2,4.6
	l-1.1,3.2c0,0-0.7,1.2,0,3.7s0.9,2.8,0.5,4.9s-0.9,1.9-0.7,3.7c0.3,1.5,0.3,3.1,0,4.6c-0.4,1.6-0.9,3.5-0.9,3.5s-1.1,2.5-1.6,3.5
	c-0.8,1.3-1.1,2.8-0.9,4.2c0.4,1.8-1.6,4.4,1.4,3.7s3.9-2.8,4.9-3s4,0,5.3,1.1s2.5,2.8,3.7,3.3s1.4,1.9,3.7-0.4s1.9-3.2,3.7-4.2
	c1.7-1,3-2.6,3.5-4.6c0.4-1.8,0.9-4.4,0.9-4.4s0.9-0.4,2.5-2.6c1.4-2,3-3.8,4.9-5.3c0.9-0.5,3-2.6,2.5-4.4c-0.4-1.2-1-2.4-1.8-3.5
	c-0.7-1.4-1.9-1.9-1.4-3.9s0.7-1.9,0.5-3.3c-0.2-1-0.2-2.1,0-3.2c0.2-0.9,0-1.4,0.2-2.5s-0.2-1.2,0.4-2.3s1.4-2.3,1.8-3
	s0.7-1.6,2.1-0.7c1.1,0.6,2.3,0.9,3.5,0.9c0,0,1.6-2.3-0.2-2.5c-1.2-0.2-2.3-0.6-3.3-1.2c0,0-1.9-1-2.3-0.2s-0.7,2.6-1.6,1.4
	s-1.4-1.6-1.6-2.5s-0.7-2.8-0.7-2.8c-0.9,0.1-1.8-0.4-2.1-1.2c-0.3-0.8-0.6-1.6-1.1-2.3c0,0-1.6,1.8-2.5,1.2
	c-0.7-0.4-1.4-0.7-2.1-1.1c-0.7-0.6-1.5-1.1-2.5-1.2h-1.9c-0.9-0.4-2-0.3-2.8,0.4c-1.4,1.1-1.6,0.7-2.3,1.2
	c-0.8,0.8-1.5,1.7-2.1,2.7L292.3,347.1z"/>
<path class="st1" d="M258.1,345.5c-0.1,1.7-0.4,3.4-0.9,5.1c-0.5,1.2-0.8,2.5-0.7,3.9c-0.1,1.5-0.5,2.9-1.2,4.2
	c-0.4,1.4-0.7,2.8-0.9,4.2c0,0,0.9,2.3-0.4,3.2s-3,0.9-3.9,1.6s-1.8,1.1-3.7,0.7s-2.3-0.7-3.7,0s-0.9,1.2-3,0.7s-2.5-0.9-3.7-0.4
	s-4.2-0.2-4.2-0.2s-0.5-1.6-3.3-3.2c-1.8-2.3-2.8-4.4-2.8-5.1s-0.7-0.2,0.5-1.2c1.2-1.1,2.3-2.3,3.3-3.5V352c0-0.7-0.4-4-0.4-4h3.2
	l2.3-1l2.5-1.1l1.6-1.4h1.6l1-0.2l3-1.2l1.1-0.9l1.4-0.5l5.6-2.3l0.7-2.5l2.6,4.6l0.7,2.1L258.1,345.5z"/>
<path class="st1" d="M258.1,345.5c-0.1,1.7-0.4,3.4-0.9,5.1c-0.5,1.2-0.8,2.5-0.7,3.9c-0.1,1.5-0.5,2.9-1.2,4.2
	c-0.4,1.4-0.7,2.8-0.9,4.2c0,0,0.9,2.3-0.4,3.2s-3,0.9-3.9,1.6s-1.8,1.1-3.7,0.7s-2.3-0.7-3.7,0s-0.9,1.2-3,0.7s-2.5-0.9-3.7-0.4
	s-4.2-0.2-4.2-0.2s-0.5-1.6-3.3-3.2c-1.8-2.3-2.8-4.4-2.8-5.1s-0.7-0.2,0.5-1.2c1.2-1.1,2.3-2.3,3.3-3.5V352c0-0.7-0.4-4-0.4-4h3.2
	l2.3-1l2.5-1.1l1.6-1.4h1.6l1-0.2l3-1.2l1.1-0.9l1.4-0.5l5.6-2.3l0.7-2.5l2.6,4.6l0.7,2.1L258.1,345.5z"/>
<path class="st0" d="M249.3,368.4c-0.1,1.6,0.2,3.3,0.9,4.8c0.8,1.2,1.3,2.6,1.4,4c0,1.1-0.2,3-0.2,3s-0.5,2.8-0.2,3.5
	s1,0.4,0.9,1.9c-0.1,1.2-0.2,2.5-0.2,3.7c0,0.9-0.2,2.3,1.4,3.2c1.4,0.9,2.4,2.3,3,3.9c0.1,0.7,0.5,1.4,1.2,1.7
	c0.7,0.2,3.2,0.9,4.9,1.2s4.4,0.9,5.6,0.4s4.9,0,6,0.2s4-1.1,5.1-1.2c0.7-0.1,1.4-0.2,2.1-0.2c0.2-1,0.3-2,0.4-3
	c0-0.9-0.5-1.6,0-2.6s1.8-3,2.3-4.4c0.5-1.7,0.9-3.5,1.2-5.3c0.1-1.5,0.1-2.9,0-4.4c0.1-1.3,0.2-2.6,0.5-3.9c0.2-1.2-0.5-3-0.5-3.9
	s-0.7-2.5,0-3.7c0.5-1,0.8-2.1,1.1-3.2c0.4-0.9,0.5-2.8,0.9-3.5c0.5-1,0.7-2.1,0.5-3.2c-0.3-1.4-0.4-2.8-0.4-4.2
	c0.2-0.7-0.4-1,0.5-2.1s1.9-2.3,1.9-2.3l1.1-1.2c-1.3,0.3-2.6,0.4-3.9,0.4c-2.1-0.2-4.8-0.4-4.8-0.4c-1.1,0.1-2.1,0.2-3.2,0.5
	c-0.9,0.3-1.7,0.5-2.6,0.7l-1.1-1.1c-0.5-0.1-1.1,0-1.6,0.2c-0.9,0.4-0.5,1.8-1.6,1.6s0-0.9-1.4-0.9c-0.8,0-1.7,0.2-2.5,0.4
	c-1.4,0.2-1.8,0.7-2.8,0.5s-0.4-0.7-1.8-1.4c-0.6-0.2-1.1-0.5-1.6-0.9l-2.3,0.7l-1.8-2.3c0,1.5-0.3,3-0.7,4.4
	c-0.7,1.9-0.9,1.6-0.7,3c0.3,1.4,0.1,2.8-0.4,4c-0.7,1.2-1.3,2.5-1.6,3.9c-0.2,1.2-0.5,2.5-0.2,3.2c0.3,0.7,0.1,1.6-0.5,2.1
	c-0.9,0.6-1.9,1.1-3,1.4C250.5,367.8,249.9,368.1,249.3,368.4z"/>
<path class="st0" d="M249.3,368.4c-0.1,1.6,0.2,3.3,0.9,4.8c0.8,1.2,1.3,2.6,1.4,4c0,1.1-0.2,3-0.2,3s-0.5,2.8-0.2,3.5
	s1,0.4,0.9,1.9c-0.1,1.2-0.2,2.5-0.2,3.7c0,0.9-0.2,2.3,1.4,3.2c1.4,0.9,2.4,2.3,3,3.9c0.1,0.7,0.5,1.4,1.2,1.7
	c0.7,0.2,3.2,0.9,4.9,1.2s4.4,0.9,5.6,0.4s4.9,0,6,0.2s4-1.1,5.1-1.2c0.7-0.1,1.4-0.2,2.1-0.2c0.2-1,0.3-2,0.4-3
	c0-0.9-0.5-1.6,0-2.6s1.8-3,2.3-4.4c0.5-1.7,0.9-3.5,1.2-5.3c0.1-1.5,0.1-2.9,0-4.4c0.1-1.3,0.2-2.6,0.5-3.9c0.2-1.2-0.5-3-0.5-3.9
	s-0.7-2.5,0-3.7c0.5-1,0.8-2.1,1.1-3.2c0.4-0.9,0.5-2.8,0.9-3.5c0.5-1,0.7-2.1,0.5-3.2c-0.3-1.4-0.4-2.8-0.4-4.2
	c0.2-0.7-0.4-1,0.5-2.1s1.9-2.3,1.9-2.3l1.1-1.2c-1.3,0.3-2.6,0.4-3.9,0.4c-2.1-0.2-4.8-0.4-4.8-0.4c-1.1,0.1-2.1,0.2-3.2,0.5
	c-0.9,0.3-1.7,0.5-2.6,0.7l-1.1-1.1c-0.5-0.1-1.1,0-1.6,0.2c-0.9,0.4-0.5,1.8-1.6,1.6s0-0.9-1.4-0.9c-0.8,0-1.7,0.2-2.5,0.4
	c-1.4,0.2-1.8,0.7-2.8,0.5s-0.4-0.7-1.8-1.4c-0.6-0.2-1.1-0.5-1.6-0.9l-2.3,0.7l-1.8-2.3c0,1.5-0.3,3-0.7,4.4
	c-0.7,1.9-0.9,1.6-0.7,3c0.3,1.4,0.1,2.8-0.4,4c-0.7,1.2-1.3,2.5-1.6,3.9c-0.2,1.2-0.5,2.5-0.2,3.2c0.3,0.7,0.1,1.6-0.5,2.1
	c-0.9,0.6-1.9,1.1-3,1.4C250.5,367.8,249.9,368.1,249.3,368.4z"/>
<path class="st0" d="M202,384c0,0-0.5,1.9-0.9,3.3s-1.9,2.6-3.2,4s-1.6,2.3-1.4,3.5s1.2,1.8,0.7,3.9s-0.9,2.1,0,3.3s1.6,1.6,0.5,2.6
	s-1.1,2.3-1.4,3.5s-2.1,1.9-2.3,2.6s-0.9,3.5-0.4,4.8s0.5,2.5,1.8,3c1.1,0.4,2.2,0.6,3.4,0.7c0,0,1.4-1.8,2.5-1.6s1.9,0.2,2.5,1.6
	s1.4,2.5,1.9,1.6s0.9-1.2,1.6-1.4s0.5,0,2.5,0.4s1.8-1.2,3.5,0s2.1,1.9,3.5,1.6c1.4-0.2,2.8-0.2,4.2,0l2.1,1.2c0,0,0.2,1.9,0.4,3.5
	s-0.9,1.8,0.5,2.5c0.8,0.4,1.6,0.9,2.3,1.4c1.2,0.7,1.4,1,2.5,0.7s1.8-0.7,1.8,0.4c-0.1,0.9-0.1,1.9,0.2,2.8c0.5,0.9,0.8,2,0.9,3
	c0,0.7-0.5,3.5-0.2,5.1c0.3,1.2,0.4,2.4,0.4,3.7c0,1.8-0.5,1.6,0.4,2.8s1.4,1.9,1.2,3.4c-0.1,1.5-0.1,3,0,4.6c0,1.3-0.3,2.6-0.9,3.7
	c-0.4,1.2-0.6,2.4-0.5,3.7c0,1.1-0.4,0.7-0.5,2.3s0,2.1-0.2,2.8s0.2,1.6-0.4,2.5c-0.6,0.7-0.8,1.8-0.4,2.6c0.4,0.7,0.7,1.5,0.9,2.3
	c0.3,1,0.3,2,0,3c-0.5,1.8-0.4,2.5-0.7,3.3s1.6,0.5-0.4,2.3s-2.6,1.6-2.6,2.8c0.1,1,0.1,2,0,3c-0.2,0.7-0.9,1.4-0.4,2.5
	s0.7,1.8,1.6,2.1c1,0.2,2.1,0.6,3,1.1c1.4,0.9,2.8,2.1,3.5,2.5c0.7,0.5,1.7,0.4,2.3-0.4c0.5-0.8,1.3-1.3,2.3-1.4
	c0.7-0.1,1.4,0.3,1.8,0.9c0.4,0.7,0,3.2,1.6,3.5c1.1,0.3,2.3,0.4,3.5,0.2c1.5-0.1,3.1,0.1,4.6,0.5c1.1,0.4,1.8,1.2,2.5-0.7
	s0.5-2.3,1.9-3.2c1.3-0.9,1.9-2.5,1.6-4c-0.2-1.6-1.1-3-0.4-4.6s2.3-3.2,3.4-3.3s3,0.9,4-1.2c0.8-1.5,1-3.2,0.7-4.9
	c-0.2-0.7-0.2-1.4,1.8-2.8s1.2-1.9,1.9-3.3s1.1-0.7,1.4-2.6s-1.4-3.9-1.4-3.9l-1.1-3c0,0,1.1-1.9,2.6-1.8c1.3,0,2.5-0.1,3.7-0.5
	l1.4-0.9c0,0,1.9-3.4,1.4-4.8s-0.2-2.1-0.2-3.9c0-0.9-0.2-1.9-0.7-2.6l-1.1-2.1l-0.2-3.5c0,0,1,0.2,1.6-1.9s1-3.3,0-5.3
	c-0.7-1.2-1.6-2.4-2.5-3.5c-0.7-1.3-1.6-2.5-2.6-3.5c-0.9-0.7-3.4-3.5-3.4-3.5c0-1.1-0.2-2.2-0.7-3.2c-0.9-2.3,0.2-1.9-1.6-3
	s-2.6,1.2-3-1.2c-0.2-1.3-0.3-2.6-0.2-3.9l-1.8-5.1c0,0-2.3-1.4-1.9-3.5c0.2-1.2,0.2-2.5-0.2-3.7c-0.1-0.8-0.2-1.5-0.2-2.3l-0.9-3
	c-0.7-0.3-1.1-0.9-1.2-1.6c-0.2-1.2-1.9-2.8-3-3.9s-2.5-2.3-1.8-4s1.6-2.5,0.9-3.5s-1.2-1.2-1.2-1.2s-0.5-3.5,0-4.2
	c0.5-1,0.6-2.1,0.4-3.2c-0.4-1.1-0.9-2.1-1.4-3.2l-0.7-2.1l-0.2-2.6c-0.9,0.2-1.9,0.2-2.8,0c-1.8-0.4-2.8-0.7-3.7,0
	s-1.2,1.1-1.2,1.1l-1.8-0.4l-2.5-0.4l-2.1,0.2l-2.6-0.2c-0.6,1.2-1.1,2.5-1.4,3.9c0,1.5-0.3,2.9-0.9,4.2c-0.7,1.2-0.2,1.9-1.9,1.6
	c-1.3-0.1-2.4-0.8-3-1.9c-0.8-0.8-1.7-1.4-2.8-1.8l-2.5-0.9c0,0-1.6-1.4-2.5-0.9c-0.5,0.3-1,0.6-1.6,0.9c-0.6,0.2-1.2,0.3-1.8,0.4
	c0,0-0.4,2.6-1.9,3.7c-1.4,0.9-2.7,1.9-3.9,3.2c-0.7,0.9-0.7,1.6-1.6,1.9c-0.9,0.2-1.8,0.5-2.6,0.9C203.6,384.2,202.8,384.2,202,384
	z"/>
<path class="st0" d="M202,384c0,0-0.5,1.9-0.9,3.3s-1.9,2.6-3.2,4s-1.6,2.3-1.4,3.5s1.2,1.8,0.7,3.9s-0.9,2.1,0,3.3s1.6,1.6,0.5,2.6
	s-1.1,2.3-1.4,3.5s-2.1,1.9-2.3,2.6s-0.9,3.5-0.4,4.8s0.5,2.5,1.8,3c1.1,0.4,2.2,0.6,3.4,0.7c0,0,1.4-1.8,2.5-1.6s1.9,0.2,2.5,1.6
	s1.4,2.5,1.9,1.6s0.9-1.2,1.6-1.4s0.5,0,2.5,0.4s1.8-1.2,3.5,0s2.1,1.9,3.5,1.6c1.4-0.2,2.8-0.2,4.2,0l2.1,1.2c0,0,0.2,1.9,0.4,3.5
	s-0.9,1.8,0.5,2.5c0.8,0.4,1.6,0.9,2.3,1.4c1.2,0.7,1.4,1,2.5,0.7s1.8-0.7,1.8,0.4c-0.1,0.9-0.1,1.9,0.2,2.8c0.5,0.9,0.8,2,0.9,3
	c0,0.7-0.5,3.5-0.2,5.1c0.3,1.2,0.4,2.4,0.4,3.7c0,1.8-0.5,1.6,0.4,2.8s1.4,1.9,1.2,3.4c-0.1,1.5-0.1,3,0,4.6c0,1.3-0.3,2.6-0.9,3.7
	c-0.4,1.2-0.6,2.4-0.5,3.7c0,1.1-0.4,0.7-0.5,2.3s0,2.1-0.2,2.8s0.2,1.6-0.4,2.5c-0.6,0.7-0.8,1.8-0.4,2.6c0.4,0.7,0.7,1.5,0.9,2.3
	c0.3,1,0.3,2,0,3c-0.5,1.8-0.4,2.5-0.7,3.3s1.6,0.5-0.4,2.3s-2.6,1.6-2.6,2.8c0.1,1,0.1,2,0,3c-0.2,0.7-0.9,1.4-0.4,2.5
	s0.7,1.8,1.6,2.1c1,0.2,2.1,0.6,3,1.1c1.4,0.9,2.8,2.1,3.5,2.5c0.7,0.5,1.7,0.4,2.3-0.4c0.5-0.8,1.3-1.3,2.3-1.4
	c0.7-0.1,1.4,0.3,1.8,0.9c0.4,0.7,0,3.2,1.6,3.5c1.1,0.3,2.3,0.4,3.5,0.2c1.5-0.1,3.1,0.1,4.6,0.5c1.1,0.4,1.8,1.2,2.5-0.7
	s0.5-2.3,1.9-3.2c1.3-0.9,1.9-2.5,1.6-4c-0.2-1.6-1.1-3-0.4-4.6s2.3-3.2,3.4-3.3s3,0.9,4-1.2c0.8-1.5,1-3.2,0.7-4.9
	c-0.2-0.7-0.2-1.4,1.8-2.8s1.2-1.9,1.9-3.3s1.1-0.7,1.4-2.6s-1.4-3.9-1.4-3.9l-1.1-3c0,0,1.1-1.9,2.6-1.8c1.3,0,2.5-0.1,3.7-0.5
	l1.4-0.9c0,0,1.9-3.4,1.4-4.8s-0.2-2.1-0.2-3.9c0-0.9-0.2-1.9-0.7-2.6l-1.1-2.1l-0.2-3.5c0,0,1,0.2,1.6-1.9s1-3.3,0-5.3
	c-0.7-1.2-1.6-2.4-2.5-3.5c-0.7-1.3-1.6-2.5-2.6-3.5c-0.9-0.7-3.4-3.5-3.4-3.5c0-1.1-0.2-2.2-0.7-3.2c-0.9-2.3,0.2-1.9-1.6-3
	s-2.6,1.2-3-1.2c-0.2-1.3-0.3-2.6-0.2-3.9l-1.8-5.1c0,0-2.3-1.4-1.9-3.5c0.2-1.2,0.2-2.5-0.2-3.7c-0.1-0.8-0.2-1.5-0.2-2.3l-0.9-3
	c-0.7-0.3-1.1-0.9-1.2-1.6c-0.2-1.2-1.9-2.8-3-3.9s-2.5-2.3-1.8-4s1.6-2.5,0.9-3.5s-1.2-1.2-1.2-1.2s-0.5-3.5,0-4.2
	c0.5-1,0.6-2.1,0.4-3.2c-0.4-1.1-0.9-2.1-1.4-3.2l-0.7-2.1l-0.2-2.6c-0.9,0.2-1.9,0.2-2.8,0c-1.8-0.4-2.8-0.7-3.7,0
	s-1.2,1.1-1.2,1.1l-1.8-0.4l-2.5-0.4l-2.1,0.2l-2.6-0.2c-0.6,1.2-1.1,2.5-1.4,3.9c0,1.5-0.3,2.9-0.9,4.2c-0.7,1.2-0.2,1.9-1.9,1.6
	c-1.3-0.1-2.4-0.8-3-1.9c-0.8-0.8-1.7-1.4-2.8-1.8l-2.5-0.9c0,0-1.6-1.4-2.5-0.9c-0.5,0.3-1,0.6-1.6,0.9c-0.6,0.2-1.2,0.3-1.8,0.4
	c0,0-0.4,2.6-1.9,3.7c-1.4,0.9-2.7,1.9-3.9,3.2c-0.7,0.9-0.7,1.6-1.6,1.9c-0.9,0.2-1.8,0.5-2.6,0.9C203.6,384.2,202.8,384.2,202,384
	z"/>
<path class="st0" d="M198,419.5c0,0-0.2,2,0.7,2.8s4.1,0.5,4.1,2.9s-0.6,2.9-0.8,4.1s0.4,3.5,0.4,4.5s-1,2-0.6,3.9
	c0.3,1.5,0.4,3,0.4,4.5c0,0-2.8,2.4-2.6,3.9s-1.2,3.3-1.4,4.5c-0.2,1.2-0.7,2.3-1.5,3.1c-0.8,0.8-2.2,1.2-2.6,3.1
	c-0.2,1.4-0.4,2.7-0.8,4.1c-0.4,1.2,0.2,2.2,1,3.7s-0.2,2.5,1.6,3.3s2.5,0.2,2.9,3.1s-0.4,3.6,0.8,4.9s2.2,0.9,2.8,2.7
	s0,2.9,1.6,3.5s2.2-0.4,2.4,1s-1.2,1.8-0.4,3.9s1.8,2.5,1.8,3.9s-0.6,4.7,1,4.9s3.7,0.8,4.3,1.4c0.8,1.1,1.3,2.3,1.6,3.5
	c0.4,1.4,0.4,2.2,0,4.9s-1.8,3.9-0.4,4.7c1.3,0.8,2.9,0.8,4.3,0.2c1.6-0.6,2.2,0.2,4.1-2c1.1-1,1.9-2.2,2.6-3.5
	c1.2-2,1.2-2.4,1.2-3.1c0-1.3,0.2-2.5,0.6-3.7c0.6-1,1.2-1.9,2-2.8c0,0-1.5-0.8-1.6-2.1c0-0.8,0.1-1.7,0.4-2.5v-3l1.7-2.1l0.9-0.7
	l0.9-1.3l-0.5-1c0,0,0.3-1,0.7-2.5c0.2-1.3,0.2-2.6,0-3.8l-0.9-2.3l-0.1-1.5c0.5-1.7,0.9-3.5,1-5.3c0-1.6,0.2-3.3,0.6-4.9
	c0.1-1.1,0.3-2.2,0.6-3.3c0.3-0.9,0.6-1.7,0.8-2.6l0.4-6l-2.2-2.5l-0.2-4.5l0.2-5V437c0,0-0.6-2.1-0.9-3c-0.2-0.9-0.2-1.9-0.2-2.8
	c0,0,0.3-1.9-1-0.7c-0.7,0.3-1.4,0.5-2.1,0.5l-3.4-2.2c0,0-2-1.7-0.5-2.5l-0.1-1.2l-0.2-2.3l-2.1-1.2h-4.2c-0.5,0.2-1.1,0.1-1.6-0.1
	c-1-0.4-0.5-1.4-1.9-1.5s-1-0.3-2.2-0.1s-1.6-0.2-2.6,0s-1.8-0.2-2.1,0.6s-1.4,1.4-1.6,0.8c-0.3-0.6-0.6-1.3-1-1.8
	c-0.7-0.7-1.5-1.3-2.5-1.6c-0.4,0.3-0.8,0.7-1.2,1C199.5,419.3,198.7,419.5,198,419.5z"/>
<path class="st0" d="M198,419.5c0,0-0.2,2,0.7,2.8s4.1,0.5,4.1,2.9s-0.6,2.9-0.8,4.1s0.4,3.5,0.4,4.5s-1,2-0.6,3.9
	c0.3,1.5,0.4,3,0.4,4.5c0,0-2.8,2.4-2.6,3.9s-1.2,3.3-1.4,4.5c-0.2,1.2-0.7,2.3-1.5,3.1c-0.8,0.8-2.2,1.2-2.6,3.1
	c-0.2,1.4-0.4,2.7-0.8,4.1c-0.4,1.2,0.2,2.2,1,3.7s-0.2,2.5,1.6,3.3s2.5,0.2,2.9,3.1s-0.4,3.6,0.8,4.9s2.2,0.9,2.8,2.7
	s0,2.9,1.6,3.5s2.2-0.4,2.4,1s-1.2,1.8-0.4,3.9s1.8,2.5,1.8,3.9s-0.6,4.7,1,4.9s3.7,0.8,4.3,1.4c0.8,1.1,1.3,2.3,1.6,3.5
	c0.4,1.4,0.4,2.2,0,4.9s-1.8,3.9-0.4,4.7c1.3,0.8,2.9,0.8,4.3,0.2c1.6-0.6,2.2,0.2,4.1-2c1.1-1,1.9-2.2,2.6-3.5
	c1.2-2,1.2-2.4,1.2-3.1c0-1.3,0.2-2.5,0.6-3.7c0.6-1,1.2-1.9,2-2.8c0,0-1.5-0.8-1.6-2.1c0-0.8,0.1-1.7,0.4-2.5v-3l1.7-2.1l0.9-0.7
	l0.9-1.3l-0.5-1c0,0,0.3-1,0.7-2.5c0.2-1.3,0.2-2.6,0-3.8l-0.9-2.3l-0.1-1.5c0.5-1.7,0.9-3.5,1-5.3c0-1.6,0.2-3.3,0.6-4.9
	c0.1-1.1,0.3-2.2,0.6-3.3c0.3-0.9,0.6-1.7,0.8-2.6l0.4-6l-2.2-2.5l-0.2-4.5l0.2-5V437c0,0-0.6-2.1-0.9-3c-0.2-0.9-0.2-1.9-0.2-2.8
	c0,0,0.3-1.9-1-0.7c-0.7,0.3-1.4,0.5-2.1,0.5l-3.4-2.2c0,0-2-1.7-0.5-2.5l-0.1-1.2l-0.2-2.3l-2.1-1.2h-4.2c-0.5,0.2-1.1,0.1-1.6-0.1
	c-1-0.4-0.5-1.4-1.9-1.5s-1-0.3-2.2-0.1s-1.6-0.2-2.6,0s-1.8-0.2-2.1,0.6s-1.4,1.4-1.6,0.8c-0.3-0.6-0.6-1.3-1-1.8
	c-0.7-0.7-1.5-1.3-2.5-1.6c-0.4,0.3-0.8,0.7-1.2,1C199.5,419.3,198.7,419.5,198,419.5z"/>
</svg>
