<svg id="Layer_1" data-name="Layer 1" xmlns="http://www.w3.org/2000/svg" viewBox="0 0 512 512"><defs><style>.cls-1,.cls-3{fill:#e6e7e8;}.cls-1,.cls-2,.cls-3{stroke:#fff;stroke-linejoin:round;}.cls-1,.cls-2{fill-rule:evenodd;}.cls-2{fill:#a7a9ac;}</style></defs><path class="cls-1" d="M105.73,8.07s3.53.78,4.31-1.17a4.72,4.72,0,0,1,4.7-3.14c2.35,0,7.94.78,10.29,3.14s3.13,2.74,5.09,2.35,3.14,0,5.1-1.57a7.26,7.26,0,0,1,6.27-1.57c2.44.39,7.15-.39,8.71,1.18s4.71,3.92,6.66,3.92,2.36,1.56,5.88,1.17a42.69,42.69,0,0,1,7.54,0s-.78,16.16-.39,19.3-.78,4.31,1.18,7.84S174.2,43,176.16,43s9-1.56,9.41.39-2.75,5.1-2.75,5.1-12.93,24.49-14.49,28-.89,2.75-3.24,4.71-4.7,3.13-6.27,6.27-3.91,4.31-4.7,2.35-1.17-4.31-2.74-6.66-.78-5.78-4.31-8.62a39.17,39.17,0,0,0-6.76-4.41l-7.45-5.1s-1.56-4.7-3.52-6.66-3.53-6.27-5.49-5.09-4.8,3.13-7.54,4.7-3.53,1.57-5.49,3.13-3.91,4.32-5.48,3.14,1.17-4.31,2.35-5.88A47.87,47.87,0,0,0,112,49c.39-1.67,2-3.63.39-7.15s-2.74-5.49-3.53-7.84a22.46,22.46,0,0,1-.78-10.68c.78-4.31,3.14-5.09.78-7s-4.7-1.18-4.7-3.14S105.73,8.07,105.73,8.07Z"/><path class="cls-1" d="M105.73,8.07s3.53.78,4.31-1.17a4.72,4.72,0,0,1,4.7-3.14c2.35,0,7.94.78,10.29,3.14s3.13,2.74,5.09,2.35,3.14,0,5.1-1.57a7.26,7.26,0,0,1,6.27-1.57c2.44.39,7.15-.39,8.71,1.18s4.71,3.92,6.66,3.92,2.36,1.56,5.88,1.17a42.69,42.69,0,0,1,7.54,0s-.78,16.16-.39,19.3-.78,4.31,1.18,7.84S174.2,43,176.16,43s9-1.56,9.41.39-2.75,5.1-2.75,5.1-12.93,24.49-14.49,28-.89,2.75-3.24,4.71-4.7,3.13-6.27,6.27-3.91,4.31-4.7,2.35-1.17-4.31-2.74-6.66-.78-5.78-4.31-8.62a39.17,39.17,0,0,0-6.76-4.41l-7.45-5.1s-1.56-4.7-3.52-6.66-3.53-6.27-5.49-5.09-4.8,3.13-7.54,4.7-3.53,1.57-5.49,3.13-3.91,4.32-5.48,3.14,1.17-4.31,2.35-5.88A47.87,47.87,0,0,0,112,49c.39-1.67,2-3.63.39-7.15s-2.74-5.49-3.53-7.84a22.46,22.46,0,0,1-.78-10.68c.78-4.31,3.14-5.09.78-7s-4.7-1.18-4.7-3.14S105.73,8.07,105.73,8.07Z"/><path class="cls-1" d="M295,21.79a7.21,7.21,0,0,1,4.31,2.74c2,2.45,3.62,4.41,6,4a26.9,26.9,0,0,0,5.1-1.56s1.56-2.16,4.7-.88a7.62,7.62,0,0,0,6.27.09c1.57-.49,2.35,0,2.35,4.31A61.5,61.5,0,0,1,322.51,43c-.78,3.53-1.56,3.24-1.56,7.55s.39,3.91-1.57,6.26-2,2.36-1.18,3.92,2-.39,2,3.14,2,6.37,0,9.11-2.74,2.35-1.17,6.66,1.17,4.31,3.13,9,6,9.5,8.33,11.85,3.52,2.75,4.31,5.49,2.74,7,4.31,8.23,2-.49,4.31,2,3.43,8.32,5.09,7.15,5.59.39,5.19,3.13-1.56,5.88-.39,9,3.14,9.11,2.75,10.67-1.18,2-2.75,2.75-5.19,4.7-5.19,4.7,0-3.14-2.35-3.53-2.35,1.57-4.31-.78-.78-3.53-3.53-3.14-5.09,1.18-5.87-1.56-2.75-4.31-3.92-1.18.29,4.31-4,6.66-7.44,0-11.75,2-8.14,2.65-8.62,7.05-.4,3.63,1.56,8.72,2,6.66,1.57,8.62,1.67,11.46-1.18,10.68.3-2.45-3.62-2.84-2.35,0-6.66-1.18-2.35-1.56-7.05-1.17-7.16-1.18-9.51-1.18-3.13-1.56-5.09.39-3.53,3.53-4.7,2-2.35-2.35-3.14,0-1.17,4.31-2.74,1.18.1-5.09-2.74-3.14S254.82,179.6,256,178s.88,2,2.84-1.57.78-3.52,3.13-6.27,4.71-5.58,4.71-8.32a26.06,26.06,0,0,1,.39-5.88c.39-2,1.57-2.74.78-5.49s-1.56-1.56-1.56-4.7,0-1.47-1.18-4.31-6.27-7.15-2.74-9.89,4.7-2.35,2.74-4.31-3.53-2.35-.78-5.88,5.48-4.41,3.13-7.93-.39-3.14-3.53-6.27-2.64-3.92-5.87-5.1a22.58,22.58,0,0,1-4.41-2s9.5-11.07,11.85-13.42,6.66-10.48,9.8-13.32,5.58-7.93,5.58-7.93l-7.54-12.15s-3.63-6,2.35-7.94A66.33,66.33,0,0,1,284,43V37.56l5.48-9.41Z"/><path class="cls-1" d="M295,21.79a7.21,7.21,0,0,1,4.31,2.74c2,2.45,3.62,4.41,6,4a26.9,26.9,0,0,0,5.1-1.56s1.56-2.16,4.7-.88a7.62,7.62,0,0,0,6.27.09c1.57-.49,2.35,0,2.35,4.31A61.5,61.5,0,0,1,322.51,43c-.78,3.53-1.56,3.24-1.56,7.55s.39,3.91-1.57,6.26-2,2.36-1.18,3.92,2-.39,2,3.14,2,6.37,0,9.11-2.74,2.35-1.17,6.66,1.17,4.31,3.13,9,6,9.5,8.33,11.85,3.52,2.75,4.31,5.49,2.74,7,4.31,8.23,2-.49,4.31,2,3.43,8.32,5.09,7.15,5.59.39,5.19,3.13-1.56,5.88-.39,9,3.14,9.11,2.75,10.67-1.18,2-2.75,2.75-5.19,4.7-5.19,4.7,0-3.14-2.35-3.53-2.35,1.57-4.31-.78-.78-3.53-3.53-3.14-5.09,1.18-5.87-1.56-2.75-4.31-3.92-1.18.29,4.31-4,6.66-7.44,0-11.75,2-8.14,2.65-8.62,7.05-.4,3.63,1.56,8.72,2,6.66,1.57,8.62,1.67,11.46-1.18,10.68.3-2.45-3.62-2.84-2.35,0-6.66-1.18-2.35-1.56-7.05-1.17-7.16-1.18-9.51-1.18-3.13-1.56-5.09.39-3.53,3.53-4.7,2-2.35-2.35-3.14,0-1.17,4.31-2.74,1.18.1-5.09-2.74-3.14S254.82,179.6,256,178s.88,2,2.84-1.57.78-3.52,3.13-6.27,4.71-5.58,4.71-8.32a26.06,26.06,0,0,1,.39-5.88c.39-2,1.57-2.74.78-5.49s-1.56-1.56-1.56-4.7,0-1.47-1.18-4.31-6.27-7.15-2.74-9.89,4.7-2.35,2.74-4.31-3.53-2.35-.78-5.88,5.48-4.41,3.13-7.93-.39-3.14-3.53-6.27-2.64-3.92-5.87-5.1a22.58,22.58,0,0,1-4.41-2s9.5-11.07,11.85-13.42,6.66-10.48,9.8-13.32,5.58-7.93,5.58-7.93l-7.54-12.15s-3.63-6,2.35-7.94A66.33,66.33,0,0,1,284,43V37.56l5.48-9.41Z"/><path class="cls-1" d="M103.77,63.52s-15,5.38-20.08,7-8.23.49-8.23,2.84S75.07,78.9,76.64,82s.09,1.18-.79,3.92.79,3.92.79,3.92,5.19,1.47,1.56,3.52-3.23.89-4.4,4-.64,3.58-.64,3.58,4.65,12.09,6.61,13.66,3.53,2.06,3.53,6.37-.79,8.62,2.74,11.75,3.53,7.94,5.09,8.72,4.22,2.74,5.88.79,5.58-3.73,7.54-2.45,2.36,4,5.1,5.19,2.35,2.35,5.09,1.17a21.73,21.73,0,0,1,6-2c3.52-.78,2.74.4,6.66-.39s6.27-1.27,5.88-5.19,2.74-8.23-.4-11.36-3.52-7.06.4-6.27,9.5.78,13.42.78,3.92.79,7.83,1.57,6.27,2,7.06.39,2-3.43,3.13-5.88,2-2.84.39-4.8-2-3.13-3.52-4.7-4.31-1.17-3.53-4.7-1.18-5,0-7.45,3.13-4,3.13-5.58,3.92-9.4,3.92-9.4-3.92,2-5.09,3.92-.78,4.31-2.74,5.09-2.75.39-4.31-3.14-2.75-11.36-5.88-12.53-10.68-6.76-10.68-6.76a7.29,7.29,0,0,1-3.53-2.75c-1.17-2-3.52-6.66-4.7-8.23a20.71,20.71,0,0,0-4.31-3.52,31.2,31.2,0,0,0-5.58,3.13c-2,1.57-6.27,2.75-7.45,4.7a16.86,16.86,0,0,1-3.91,3.92l-1.57-.78"/><path class="cls-1" d="M154.51,123.37a12.49,12.49,0,0,0,4.71,4.31c2.74,1.17,6.26,3.53,6.66,6.66s.09,3.62,1.27,6.76.39,5.09,3.13,3.92,4.32.1,5.88-2.74,1.18-1.67,4.31-4,5.39-2.74,7.06-2.35,6,1.57,8.71-1.57,5.49-5.09,8.62-5.49,6-1.17,8.33-.78,6.66,2.35,6.66-.78.39-2.35,2.35-4.31,3.53-2.26,2.35-4.31a11.19,11.19,0,0,1-1.17-4.8,4.5,4.5,0,0,1-3.92-3.92,7.24,7.24,0,0,0-2.74-5.1L214,102.11A5.19,5.19,0,0,1,214,97c1.57-2.45,3.53-6.37,3.53-6.37a5.1,5.1,0,0,0-5.09-1.57,15.32,15.32,0,0,1-5.59.4l-6.27,2.35s-1.56-3.53-4.31-4.71-4.21-3.13-7.05-2-5.19,1.17-7.93,2-2.35,1.57-6.27.79a27.6,27.6,0,0,1-6.27-2l-2-4.31-2.45,1.17A23.17,23.17,0,0,0,162,87.52c-.79,2.35-3.92,8.71-3.92,8.71V106s1.18,0,3.53,2.35,4.7,5.39,4.31,7.45-2.75,5.58-2.75,5.58l-1.56,2.35Z"/><path class="cls-1" d="M154.51,123.37a12.49,12.49,0,0,0,4.71,4.31c2.74,1.17,6.26,3.53,6.66,6.66s.09,3.62,1.27,6.76.39,5.09,3.13,3.92,4.32.1,5.88-2.74,1.18-1.67,4.31-4,5.39-2.74,7.06-2.35,6,1.57,8.71-1.57,5.49-5.09,8.62-5.49,6-1.17,8.33-.78,6.66,2.35,6.66-.78.39-2.35,2.35-4.31,3.53-2.26,2.35-4.31a11.19,11.19,0,0,1-1.17-4.8,4.5,4.5,0,0,1-3.92-3.92,7.24,7.24,0,0,0-2.74-5.1L214,102.11A5.19,5.19,0,0,1,214,97c1.57-2.45,3.53-6.37,3.53-6.37a5.1,5.1,0,0,0-5.09-1.57,15.32,15.32,0,0,1-5.59.4l-6.27,2.35s-1.56-3.53-4.31-4.71-4.21-3.13-7.05-2-5.19,1.17-7.93,2-2.35,1.57-6.27.79a27.6,27.6,0,0,1-6.27-2l-2-4.31-2.45,1.17A23.17,23.17,0,0,0,162,87.52c-.79,2.35-3.92,8.71-3.92,8.71V106s1.18,0,3.53,2.35,4.7,5.39,4.31,7.45-2.75,5.58-2.75,5.58l-1.56,2.35Z"/><path class="cls-2" d="M170.28,145a7.65,7.65,0,0,0-1.56,6.66c.78,4.31,1.56,9.89.39,12.64s-1.57,3.52.39,5.09,3.53,2.74,3.14,5.09.39,2.75.78,5.49-.39,4.7,2.35,3.92a44.55,44.55,0,0,1,5.88-1.18s4.41-1.57,7.93,0,2.75,1.57,7.06,1.57,3.13-.39,6.66-.39,4.6-1.28,7.83,2,.89.09,4.8,3.62,4.31,2.35,3.92,5.1-.39,4.7,2.35,6.26,2,2.26,3.53,5.1,1.57,5.19,3.92,6,3.62,2,7.54.79,8.62,2.45,6.27-1.18-5.39-4.8-8.23-6.36-5.58-1.57-4-3.53,2.05-2,5.19-2,5.09,2,7.05,0,.39-1.57,4.7-2.35,4.31-1.57,4.31-4.31.79.49,1.18-3.53-1.27-4.41,1.57-4.8,2-3.53,2-3.53-4-1.56-1.17-3.13,3.62-1.57,4-3.92,3.91-5.09,4.7-6.66,2-2.84,2-5.58a59.69,59.69,0,0,1,.78-9c.39-1.95-1.17-7-1.17-7v-2.35a32.53,32.53,0,0,1-2.75-4.8c-.78-2-1.17-7.05-1.17-7.05l2.74-4.31s-3.14-1.18-1.57-3.92,2-4.61,3.53-5.88,1.57-2.06.39-4.41-3.13-4.7-4.31-6.66-3.82-3.52-5.09-4.31a15.48,15.48,0,0,0-4.41-1.17s.39,10.58-1.18,12.54-1.56,4.4-3.13,4.4a76.75,76.75,0,0,1-9.41-.88c-1.56-.39-7.93-1.57-9.89-2s-7-.78-7-.78,3.52,4.41,2,6a43,43,0,0,0-3.53,4.31s-.39,3.53-2.35,4.31-5-1.17-7-.78-6.76.78-8.72,1.18A12.47,12.47,0,0,0,199,131.6s-2.35,3.13-3.92,3.92-5.88.78-5.88.78a6.1,6.1,0,0,0-5.58,0,37.84,37.84,0,0,0-5.88,4,19.89,19.89,0,0,0-3.53,3.91Z"/><path class="cls-2" d="M170.28,145a7.65,7.65,0,0,0-1.56,6.66c.78,4.31,1.56,9.89.39,12.64s-1.57,3.52.39,5.09,3.53,2.74,3.14,5.09.39,2.75.78,5.49-.39,4.7,2.35,3.92a44.55,44.55,0,0,1,5.88-1.18s4.41-1.57,7.93,0,2.75,1.57,7.06,1.57,3.13-.39,6.66-.39,4.6-1.28,7.83,2,.89.09,4.8,3.62,4.31,2.35,3.92,5.1-.39,4.7,2.35,6.26,2,2.26,3.53,5.1,1.57,5.19,3.92,6,3.62,2,7.54.79,8.62,2.45,6.27-1.18-5.39-4.8-8.23-6.36-5.58-1.57-4-3.53,2.05-2,5.19-2,5.09,2,7.05,0,.39-1.57,4.7-2.35,4.31-1.57,4.31-4.31.79.49,1.18-3.53-1.27-4.41,1.57-4.8,2-3.53,2-3.53-4-1.56-1.17-3.13,3.62-1.57,4-3.92,3.91-5.09,4.7-6.66,2-2.84,2-5.58a59.69,59.69,0,0,1,.78-9c.39-1.95-1.17-7-1.17-7v-2.35a32.53,32.53,0,0,1-2.75-4.8c-.78-2-1.17-7.05-1.17-7.05l2.74-4.31s-3.14-1.18-1.57-3.92,2-4.61,3.53-5.88,1.57-2.06.39-4.41-3.13-4.7-4.31-6.66-3.82-3.52-5.09-4.31a15.48,15.48,0,0,0-4.41-1.17s.39,10.58-1.18,12.54-1.56,4.4-3.13,4.4a76.75,76.75,0,0,1-9.41-.88c-1.56-.39-7.93-1.57-9.89-2s-7-.78-7-.78,3.52,4.41,2,6a43,43,0,0,0-3.53,4.31s-.39,3.53-2.35,4.31-5-1.17-7-.78-6.76.78-8.72,1.18A12.47,12.47,0,0,0,199,131.6s-2.35,3.13-3.92,3.92-5.88.78-5.88.78a6.1,6.1,0,0,0-5.58,0,37.84,37.84,0,0,0-5.88,4,19.89,19.89,0,0,0-3.53,3.91Z"/><path class="cls-1" d="M115.79,146s-1.64,4.62.54,6.25,5.14,3.27,6.23,5.44.27,3.79,3.54,7.59a39.54,39.54,0,0,0,8.43,7.62c2.45,1.63,3.26,3.54,5.71,4.08s4.87-1.9,5.14,1.09,0,3.81,3.27,5.71,3.26,2.18,5.71,1.36a12.86,12.86,0,0,1,7.35-.81c3.26.54,4.59,1.36,7.59.54a42.17,42.17,0,0,0,4.89-1.63s-1.63-4.08-1.63-5.71.55-4.08-.27-5.17-2.18-2.72-2.18-2.72-2.17-1.09-1.9-2.45,1.09-2.42,1.36-4.6-.55-6.53-.82-8.16-1.09-4.9-.54-6.26a12.61,12.61,0,0,1,1.63-2.72l-1.63-.54-2.42-7.59s2.17-4.9-4.63-8.16a55.92,55.92,0,0,1-6.25-5.72,29.38,29.38,0,0,0-10.07-1.63c-5.14-.27-8.68-.27-10-.54s-4.35-1.36-4.08,2.17c1.09,2.45,3.54,3.27,3.54,5.72a29.5,29.5,0,0,1-.82,7.89c-.82,3.51,0,4.87-3.26,5.95s-3.81,2.18-5.17,1.64-1.93-1.09-3.54-.55-3.51,1.36-3.51,1.36Z"/><path class="cls-1" d="M115.79,146s-1.64,4.62.54,6.25,5.14,3.27,6.23,5.44.27,3.79,3.54,7.59a39.54,39.54,0,0,0,8.43,7.62c2.45,1.63,3.26,3.54,5.71,4.08s4.87-1.9,5.14,1.09,0,3.81,3.27,5.71,3.26,2.18,5.71,1.36a12.86,12.86,0,0,1,7.35-.81c3.26.54,4.59,1.36,7.59.54a42.17,42.17,0,0,0,4.89-1.63s-1.63-4.08-1.63-5.71.55-4.08-.27-5.17-2.18-2.72-2.18-2.72-2.17-1.09-1.9-2.45,1.09-2.42,1.36-4.6-.55-6.53-.82-8.16-1.09-4.9-.54-6.26a12.61,12.61,0,0,1,1.63-2.72l-1.63-.54-2.42-7.59s2.17-4.9-4.63-8.16a55.92,55.92,0,0,1-6.25-5.72,29.38,29.38,0,0,0-10.07-1.63c-5.14-.27-8.68-.27-10-.54s-4.35-1.36-4.08,2.17c1.09,2.45,3.54,3.27,3.54,5.72a29.5,29.5,0,0,1-.82,7.89c-.82,3.51,0,4.87-3.26,5.95s-3.81,2.18-5.17,1.64-1.93-1.09-3.54-.55-3.51,1.36-3.51,1.36Z"/><path class="cls-1" d="M93.78,181.3c0-.27,4-1.08,4.87-2.44a31.48,31.48,0,0,1,2.45-4.08c1.08-1.36.81-3.27,3.26-1.64s4.62,4.63,7.89,3,1.36-1.64,4.35-1.91,1.93.27,3.81-1.36,1.33.55,3.51-1.36,2.45-6.26,2.45-6.26a8.53,8.53,0,0,1-3.27-5.68c-1.36-3.81-3.23-4.63-4.87-6s-3.8-2.44-3.26-3.8a19.53,19.53,0,0,0,.82-3.81s-4.63,2.42-7.62-1.91c-1.36-2.45-3.57-6.47-7.89-4.05-4,2.42-3.24,4.05-8.41,2.15-.54,2.45,1.09,4.08-2.45,5.71s-7.61,2.45-6.52,6.8-.28,5.47,0,7.89,2.17,8.68,6.25,11.4S93.5,179.4,93.78,181.3Z"/><path class="cls-1" d="M93.78,181.3c0-.27,4-1.08,4.87-2.44a31.48,31.48,0,0,1,2.45-4.08c1.08-1.36.81-3.27,3.26-1.64s4.62,4.63,7.89,3,1.36-1.64,4.35-1.91,1.93.27,3.81-1.36,1.33.55,3.51-1.36,2.45-6.26,2.45-6.26a8.53,8.53,0,0,1-3.27-5.68c-1.36-3.81-3.23-4.63-4.87-6s-3.8-2.44-3.26-3.8a19.53,19.53,0,0,0,.82-3.81s-4.63,2.42-7.62-1.91c-1.36-2.45-3.57-6.47-7.89-4.05-4,2.42-3.24,4.05-8.41,2.15-.54,2.45,1.09,4.08-2.45,5.71s-7.61,2.45-6.52,6.8-.28,5.47,0,7.89,2.17,8.68,6.25,11.4S93.5,179.4,93.78,181.3Z"/><path class="cls-1" d="M126.37,165.25c-.27,0,10.61,11.43,13.33,11.7-1.09,3-3,1.36-3,4.63s1.08,5.14-1.09,5.68-4.9-2.45-5.44,0,.81,1.91-.82,4.08-2.45.28-3.54,4.63-3.8,2.45-1.08,4.35,3.8,3,2.72,6.26.81,3.51,2.72,7.86,1.08,4.35,1.63,7.62,4.08,6.77,3,10S132.08,237,131,240a9,9,0,0,0,1.36,8.44c1.64,1.9,4.08.3,5.17,4.89s1.09,4.06.55,6.78-1.36,3.54-1.36,3.54-4.36-3.81-4.63.27-5.44,4.35-6.53,6.25-1.09.28-1.63,3-4.33,4.87-4.33,4.87-3-6.51-4.89-8.95-4.36-5.44-6.8-6.8-1.36-3-4.9-1.91-5.69,3.24-8.14-2.45c-4.62-6.23-9.52-12.21-11.42-16.56A78.63,78.63,0,0,0,78,231.58c-.82-1.36-1.91-3.54-1.91-3.54s2.7-2.17-.27-7.07-4.32-6-5.14-7.35a37.18,37.18,0,0,1-1.9-4.08L63.06,202s4.63-1.63,5.72-4.62c2.17-3.27,3.23-3.54,7.59-3,4.89-1.36,3.53-3.27,5.17-3.54s5.71.54,7.88,1.09a3.81,3.81,0,0,0,4.36-3.27v-6.5l4.59-2.72,3.54-6.8,1.09-.27s3.54,4.08,7.89,4.08l3.54-1.63,4.08-.82,2.69-1.9,2.18.54A10.09,10.09,0,0,0,126.37,165.25Z"/><path class="cls-1" d="M126.37,165.25c-.27,0,10.61,11.43,13.33,11.7-1.09,3-3,1.36-3,4.63s1.08,5.14-1.09,5.68-4.9-2.45-5.44,0,.81,1.91-.82,4.08-2.45.28-3.54,4.63-3.8,2.45-1.08,4.35,3.8,3,2.72,6.26.81,3.51,2.72,7.86,1.08,4.35,1.63,7.62,4.08,6.77,3,10S132.08,237,131,240a9,9,0,0,0,1.36,8.44c1.64,1.9,4.08.3,5.17,4.89s1.09,4.06.55,6.78-1.36,3.54-1.36,3.54-4.36-3.81-4.63.27-5.44,4.35-6.53,6.25-1.09.28-1.63,3-4.33,4.87-4.33,4.87-3-6.51-4.89-8.95-4.36-5.44-6.8-6.8-1.36-3-4.9-1.91-5.69,3.24-8.14-2.45c-4.62-6.23-9.52-12.21-11.42-16.56A78.63,78.63,0,0,0,78,231.58c-.82-1.36-1.91-3.54-1.91-3.54s2.7-2.17-.27-7.07-4.32-6-5.14-7.35a37.18,37.18,0,0,1-1.9-4.08L63.06,202s4.63-1.63,5.72-4.62c2.17-3.27,3.23-3.54,7.59-3,4.89-1.36,3.53-3.27,5.17-3.54s5.71.54,7.88,1.09a3.81,3.81,0,0,0,4.36-3.27v-6.5l4.59-2.72,3.54-6.8,1.09-.27s3.54,4.08,7.89,4.08l3.54-1.63,4.08-.82,2.69-1.9,2.18.54A10.09,10.09,0,0,0,126.37,165.25Z"/><path class="cls-1" d="M136.43,263.08c0-.27,4.38,1.09,6,1.63s4.6,3,5.68,1.36-.54-2.72,1.36-4.62,4.09-.57,3.54-4.08a47,47,0,0,0-1.63-6.78s0-3.8,1.09-4.08,3.26,3.81,4.35.55,2.72-7.62,2.45-9.25-1.63-1.09-2.45-3-1.36-2.43-1.36-5.15,0-1.9-.82-5.71-1.63-3.54-.27-5.44,1.63-.57,1.91-6,1.36-1.61.27-8.68-3-8.71-3.54-11.16a61.4,61.4,0,0,1-.82-7s-6.8-.27-6.52-7.89c.27-.27-.52-2.18-6.23-.82.27.27-2.45,2.18-2.45,3.54s1.36,3.56,0,5.17-1.36,1.06-3.27,1.06-3-1.09-3.26.54.27,3-1.36,4.36-2.18.81-2.72,3-2.45,3-2.45,4.62,1.36,1.36,2.45,2.45,1.36,1.36,1.36,3.54-.82,5.14,1.36,7.86,2.72,3.81,3,7.89,1.09,5.71,1.91,7.07a7,7,0,0,1,.27,6.23c-1.09,2.18-4.9,7.08-3.81,10.34.81,2.18,1.36,4.08,5.17,5.71.54,1.36,3.26,5.14,3,7.59A13.6,13.6,0,0,1,136.43,263.08Z"/><path class="cls-1" d="M136.43,263.08c0-.27,4.38,1.09,6,1.63s4.6,3,5.68,1.36-.54-2.72,1.36-4.62,4.09-.57,3.54-4.08a47,47,0,0,0-1.63-6.78s0-3.8,1.09-4.08,3.26,3.81,4.35.55,2.72-7.62,2.45-9.25-1.63-1.09-2.45-3-1.36-2.43-1.36-5.15,0-1.9-.82-5.71-1.63-3.54-.27-5.44,1.63-.57,1.91-6,1.36-1.61.27-8.68-3-8.71-3.54-11.16a61.4,61.4,0,0,1-.82-7s-6.8-.27-6.52-7.89c.27-.27-.52-2.18-6.23-.82.27.27-2.45,2.18-2.45,3.54s1.36,3.56,0,5.17-1.36,1.06-3.27,1.06-3-1.09-3.26.54.27,3-1.36,4.36-2.18.81-2.72,3-2.45,3-2.45,4.62,1.36,1.36,2.45,2.45,1.36,1.36,1.36,3.54-.82,5.14,1.36,7.86,2.72,3.81,3,7.89,1.09,5.71,1.91,7.07a7,7,0,0,1,.27,6.23c-1.09,2.18-4.9,7.08-3.81,10.34.81,2.18,1.36,4.08,5.17,5.71.54,1.36,3.26,5.14,3,7.59A13.6,13.6,0,0,1,136.43,263.08Z"/><path class="cls-1" d="M151.86,185.42a23.48,23.48,0,0,0,1.44,8,43.69,43.69,0,0,1,3.39,12c.54,4.4-.35,4.22-.71,5.83s.36,3.4-.18,5a7.6,7.6,0,0,1-1.43,2.5c-.54.9-.72,1.07,0,3.4s.18,3,.71,5.9.54,5.66,2,7.44,2.51.9,2,3.76-1.61,5-1.79,6.26-1.07,3.76-2.86,2.33a12.45,12.45,0,0,0-1.79-1.43s-1.79,1-.72,5.36c.9,3.87,1.79,7.26.9,8.16s-2.68.89-3.22,1.61a8.53,8.53,0,0,0-.9,3c-.17.89-.35,1.79-.35,1.79h3.4c.89,0,5,1.43,6.08.36s1.43-2.15,1.61-4.65,2-5.48,3.75-8.52,3.33-5.54,3.33-5.54,3.76-1.79,5-2.33,3-1.61,6.08-2.86,4.9-1.07,8.41-3.58,3-2.15,7.26-3.4,5.37-1.32,7.51-3.4a12.45,12.45,0,0,1,4.83-2.79s5.12-.18,7.8-1.25,3.4-1.43,3.76-3.76-.72-2.14,2-3.75,3.93-2.15,4.83-3.22-.9-1.25,2-1.61,5-1.43,5.91-3c-1.44-.72-3.94-1-5-5.12-1.25-4.29-1.43-5-3.76-6.62-2.5-2-3.58-3-3.22-5.18s.36-3.22-2.68-5.55c-3-2.5-6.37-4.94-7.09-5.47s0-1.61-4.82-1.25-5.73,0-7.52.35-5.36.18-6.62-.89-3.5-1.43-6.9-.72a38.68,38.68,0,0,1-7,.72l-2.32.89-.9-.89a32.76,32.76,0,0,1-4.29,1.61,24.54,24.54,0,0,1-6.19-.18c-1.79-.36-3.58-1.25-5-.89a11.41,11.41,0,0,0-3.22.89A11.25,11.25,0,0,1,151.86,185.42Z"/><path class="cls-1" d="M151.86,185.42a23.48,23.48,0,0,0,1.44,8,43.69,43.69,0,0,1,3.39,12c.54,4.4-.35,4.22-.71,5.83s.36,3.4-.18,5a7.6,7.6,0,0,1-1.43,2.5c-.54.9-.72,1.07,0,3.4s.18,3,.71,5.9.54,5.66,2,7.44,2.51.9,2,3.76-1.61,5-1.79,6.26-1.07,3.76-2.86,2.33a12.45,12.45,0,0,0-1.79-1.43s-1.79,1-.72,5.36c.9,3.87,1.79,7.26.9,8.16s-2.68.89-3.22,1.61a8.53,8.53,0,0,0-.9,3c-.17.89-.35,1.79-.35,1.79h3.4c.89,0,5,1.43,6.08.36s1.43-2.15,1.61-4.65,2-5.48,3.75-8.52,3.33-5.54,3.33-5.54,3.76-1.79,5-2.33,3-1.61,6.08-2.86,4.9-1.07,8.41-3.58,3-2.15,7.26-3.4,5.37-1.32,7.51-3.4a12.45,12.45,0,0,1,4.83-2.79s5.12-.18,7.8-1.25,3.4-1.43,3.76-3.76-.72-2.14,2-3.75,3.93-2.15,4.83-3.22-.9-1.25,2-1.61,5-1.43,5.91-3c-1.44-.72-3.94-1-5-5.12-1.25-4.29-1.43-5-3.76-6.62-2.5-2-3.58-3-3.22-5.18s.36-3.22-2.68-5.55c-3-2.5-6.37-4.94-7.09-5.47s0-1.61-4.82-1.25-5.73,0-7.52.35-5.36.18-6.62-.89-3.5-1.43-6.9-.72a38.68,38.68,0,0,1-7,.72l-2.32.89-.9-.89a32.76,32.76,0,0,1-4.29,1.61,24.54,24.54,0,0,1-6.19-.18c-1.79-.36-3.58-1.25-5-.89a11.41,11.41,0,0,0-3.22.89A11.25,11.25,0,0,1,151.86,185.42Z"/><path class="cls-1" d="M157.41,266.7a4.25,4.25,0,0,0,2.68,4.11c2.86,1.07,3.22,2.15,4.65,3.4a5.41,5.41,0,0,0,6.73.54c2.68-1.79,5.54-2.15,7-3.76s3-2.86,4.47-2.68,3.65.71,5.72-.54,1.36-1.61,4-2,4.48.54,6.09-.53,2.86-2,5-2.15,4.83.54,6.09-.9,1-2.14,3.32-1.43,3,.18,4.12-1.07.71-1.61,2.86-1.79,2.5-1.25,4.47-2,1.79-1.71,4.11-2.79a15.07,15.07,0,0,0,3.94-2.68l4-.89s.54,1.43,3.4.53,2.15-1.25,4.65-.71,4.3-.18,4.65-2.15,2-3.94,3.76-5.54,3.58-2.15,3.93-4.3-.07-4.22.65-7.08.79-4.83-1.72-5.19-3.76-1.07-4.65-.18-1.43,1.25-3.4-.18-4.65-3.22-6.44-2.86-2.86,1.25-3.93-.18-.83-3.4-3.51-3.75a6.83,6.83,0,0,1-3.76-1.43l-.53-1.61s-3.58.89-5.19,1.25a8.39,8.39,0,0,1-3.76,3.75c-1.61.9-3.57,2.15-3.57,2.15s1.86,6.44-7.09,7.33c-.53-.35-5-.42-8.94,2.62-4.11,2.14-2.4,2.14-11.63,4.83a49.06,49.06,0,0,1-5.65,3.75l-4.83,1.43-10.19,5-2.51.72a52.57,52.57,0,0,0-2.79,4.65c-.54,1.25-3.76,7.44-3.76,7.44S160.27,264.55,157.41,266.7Z"/><path class="cls-1" d="M157.41,266.7a4.25,4.25,0,0,0,2.68,4.11c2.86,1.07,3.22,2.15,4.65,3.4a5.41,5.41,0,0,0,6.73.54c2.68-1.79,5.54-2.15,7-3.76s3-2.86,4.47-2.68,3.65.71,5.72-.54,1.36-1.61,4-2,4.48.54,6.09-.53,2.86-2,5-2.15,4.83.54,6.09-.9,1-2.14,3.32-1.43,3,.18,4.12-1.07.71-1.61,2.86-1.79,2.5-1.25,4.47-2,1.79-1.71,4.11-2.79a15.07,15.07,0,0,0,3.94-2.68l4-.89s.54,1.43,3.4.53,2.15-1.25,4.65-.71,4.3-.18,4.65-2.15,2-3.94,3.76-5.54,3.58-2.15,3.93-4.3-.07-4.22.65-7.08.79-4.83-1.72-5.19-3.76-1.07-4.65-.18-1.43,1.25-3.4-.18-4.65-3.22-6.44-2.86-2.86,1.25-3.93-.18-.83-3.4-3.51-3.75a6.83,6.83,0,0,1-3.76-1.43l-.53-1.61s-3.58.89-5.19,1.25a8.39,8.39,0,0,1-3.76,3.75c-1.61.9-3.57,2.15-3.57,2.15s1.86,6.44-7.09,7.33c-.53-.35-5-.42-8.94,2.62-4.11,2.14-2.4,2.14-11.63,4.83a49.06,49.06,0,0,1-5.65,3.75l-4.83,1.43-10.19,5-2.51.72a52.57,52.57,0,0,0-2.79,4.65c-.54,1.25-3.76,7.44-3.76,7.44S160.27,264.55,157.41,266.7Z"/><path class="cls-1" d="M169,275.46s4.29,2.08,7.51,2.25,3.93,2.15,7.33,2.15a91.35,91.35,0,0,1,12.63,1.25c1.07.36,7.51,1.08,7.51,1.08a41.5,41.5,0,0,1,8.7,1.79c4.29,1.43,5.72,1.25,8.76,2.5a54.24,54.24,0,0,0,9.66,2.5,51.37,51.37,0,0,0,11.2,1.44c4.29,0,4.65,1.43,5-1.26s-.54-5.18,2.14-6.62,5.55-2,6.08-3.22-1.07-9.23-1.61-10.84-2-6.26-2.5-8.76-1.61-6.9-1.61-6.9l-.71-3.94a5.08,5.08,0,0,1-3.4.72c-1.79-.36-2.87-.54-2.87-.54s-3.57,2-4.65,1.61a14.7,14.7,0,0,1-1.78-.72l-4.05.9a59.9,59.9,0,0,1-5.36,4,24.14,24.14,0,0,0-3.22,2.15s-5.73.35-6.26,1.61.71,2.86-1.44,2.5-2.57-1.25-3.75-.54-.47,1.08-3.15,2-5.9.36-7.33,1.08l-2.87,1.43c-1.43.71-4.83.89-5.72,1.07s-1.68-.18-2.86.54-5.12,2.14-6.73,2-.89-1.07-2.32.18-2.15,3-4.3,3.58a40,40,0,0,0-5,1.79Z"/><path class="cls-1" d="M169,275.46s4.29,2.08,7.51,2.25,3.93,2.15,7.33,2.15a91.35,91.35,0,0,1,12.63,1.25c1.07.36,7.51,1.08,7.51,1.08a41.5,41.5,0,0,1,8.7,1.79c4.29,1.43,5.72,1.25,8.76,2.5a54.24,54.24,0,0,0,9.66,2.5,51.37,51.37,0,0,0,11.2,1.44c4.29,0,4.65,1.43,5-1.26s-.54-5.18,2.14-6.62,5.55-2,6.08-3.22-1.07-9.23-1.61-10.84-2-6.26-2.5-8.76-1.61-6.9-1.61-6.9l-.71-3.94a5.08,5.08,0,0,1-3.4.72c-1.79-.36-2.87-.54-2.87-.54s-3.57,2-4.65,1.61a14.7,14.7,0,0,1-1.78-.72l-4.05.9a59.9,59.9,0,0,1-5.36,4,24.14,24.14,0,0,0-3.22,2.15s-5.73.35-6.26,1.61.71,2.86-1.44,2.5-2.57-1.25-3.75-.54-.47,1.08-3.15,2-5.9.36-7.33,1.08l-2.87,1.43c-1.43.71-4.83.89-5.72,1.07s-1.68-.18-2.86.54-5.12,2.14-6.73,2-.89-1.07-2.32.18-2.15,3-4.3,3.58a40,40,0,0,0-5,1.79Z"/><path class="cls-1" d="M348,153.36a3.4,3.4,0,0,0-.84,5c2.06,2.94,1.85,2.06,3.74,6.88s-.63,6.09,2.09,7.14,2.52,1.46,4.62,1,1.89-.83,4.19.42a9.56,9.56,0,0,0,7.56.63c2.3-.84,1.21-.84,4.36-1.25s4-2.31,4.62.2,1.46,20.52,1.88,24.3-.21,10.86-1.26,13.8-7.72,16.53-8.55,20.52-2.73,7.34-2.52,12,.63,5.45-1.89,5.24-1.68-3.36-6.5-2.94-5.71-1.25-8.6,1-5.42.68-6.26,4,1.89,1.84-1.88,3.94-5.88-.42-7.14,1.47-4.19,4.2-4.82,6.92-1.47,1.89.63,5.67,2.31,4.61,5,4.82,5.88,1.85,6.09,3.95,1.67,1.05.84,4.61.42,5.46-2.52,6.09-6.09,1.46-8,0-2.1-2.94-3.57-1.47-3.1,1.89-6.67,3.35a26.06,26.06,0,0,0-5.25,2.73,16.9,16.9,0,0,1-6.5-.63c-3.57-1.05-3.61-1.68-7.13-1.68s-6.25-1.67-8.35-1.88-3.78-.21-5.67-2.73-2.72-2.31-2.51-5.46.42-6.25-1.89-6.25-6-.21-8.77.63-7.34.05-9.86,1.26a22.41,22.41,0,0,1-4.41,1.64l-6.88,1a21.48,21.48,0,0,0-.83-8.77c-1.68-5-5.46-21.78-5.46-21.78s.63-4.61,2.73-5.87a49.54,49.54,0,0,0,5.24-4s1-7.72,1-9.19,1.21-1.68-.42-3.35-4.36-2.94-5.62-2.1-.21,2.1-2.1,1.26a29.66,29.66,0,0,1-3.78-2.1l-3.77-1.68s-3.78,2.1-5-.63c-.42-.21-1.21-2.52-3.1-2.94a12.86,12.86,0,0,1-2.73-.83l-1.68-2.31,2.31-2.31s2.06,1.47,3.31.42c1.89-.84,4.2-.42,5.67-.42h2.94s-2.31-4.36-4.2-5.2-4.41-1.89-4.41-1.89a5.28,5.28,0,0,1-3.1-1.68,3.28,3.28,0,0,1-1.05-2.52s2.69-2.72,5-2.09a51.55,51.55,0,0,0,5.25,1l2.52-1.68a10.24,10.24,0,0,1,2.93-1.26c1.26-.21,5.67-.63,5.67-2.94,0-2.52.63-2.52.84-3.36a12.33,12.33,0,0,0,.21-2.3l-.21-3.32s2.51,0,3.14-1.26a5.91,5.91,0,0,0,.42-2.93,2.15,2.15,0,0,0,1.85.21c.84-.42,3.14-2.31,3.35-.84s.21,2.31.84,3.14.63,2.73,1.26,1.89a9.71,9.71,0,0,0,1.68-2.72c.21-.84.84-1.68,1.89-.84s1.47,2.3,3.36,1,2.51-3.15,4.61-3.15,8.56,2.1,8.56,2.1l7.34-.42,6.72,2.51,4.78.21s2.31,5,3.14,2.69.21-9,.21-9v-5s-.83-2.94-1.46-5.46-1.89-5.41-1.89-6.88-.63-4.83,2.73-6.08,5.66-3.15,8.39-3.36,6.54.21,9.23-1.26,3.31-2.52,3.94-4.61,1.47-5.46,3.15-3.15,1.68,4.19,3.56,4,4.41-1,5.46,0,1.47,2.94,2.52,3.36.84.21,2.51.21A2.94,2.94,0,0,1,348,153.36Z"/><path class="cls-1" d="M348,153.36a3.4,3.4,0,0,0-.84,5c2.06,2.94,1.85,2.06,3.74,6.88s-.63,6.09,2.09,7.14,2.52,1.46,4.62,1,1.89-.83,4.19.42a9.56,9.56,0,0,0,7.56.63c2.3-.84,1.21-.84,4.36-1.25s4-2.31,4.62.2,1.46,20.52,1.88,24.3-.21,10.86-1.26,13.8-7.72,16.53-8.55,20.52-2.73,7.34-2.52,12,.63,5.45-1.89,5.24-1.68-3.36-6.5-2.94-5.71-1.25-8.6,1-5.42.68-6.26,4,1.89,1.84-1.88,3.94-5.88-.42-7.14,1.47-4.19,4.2-4.82,6.92-1.47,1.89.63,5.67,2.31,4.61,5,4.82,5.88,1.85,6.09,3.95,1.67,1.05.84,4.61.42,5.46-2.52,6.09-6.09,1.46-8,0-2.1-2.94-3.57-1.47-3.1,1.89-6.67,3.35a26.06,26.06,0,0,0-5.25,2.73,16.9,16.9,0,0,1-6.5-.63c-3.57-1.05-3.61-1.68-7.13-1.68s-6.25-1.67-8.35-1.88-3.78-.21-5.67-2.73-2.72-2.31-2.51-5.46.42-6.25-1.89-6.25-6-.21-8.77.63-7.34.05-9.86,1.26a22.41,22.41,0,0,1-4.41,1.64l-6.88,1a21.48,21.48,0,0,0-.83-8.77c-1.68-5-5.46-21.78-5.46-21.78s.63-4.61,2.73-5.87a49.54,49.54,0,0,0,5.24-4s1-7.72,1-9.19,1.21-1.68-.42-3.35-4.36-2.94-5.62-2.1-.21,2.1-2.1,1.26a29.66,29.66,0,0,1-3.78-2.1l-3.77-1.68s-3.78,2.1-5-.63c-.42-.21-1.21-2.52-3.1-2.94a12.86,12.86,0,0,1-2.73-.83l-1.68-2.31,2.31-2.31s2.06,1.47,3.31.42c1.89-.84,4.2-.42,5.67-.42h2.94s-2.31-4.36-4.2-5.2-4.41-1.89-4.41-1.89a5.28,5.28,0,0,1-3.1-1.68,3.28,3.28,0,0,1-1.05-2.52s2.69-2.72,5-2.09a51.55,51.55,0,0,0,5.25,1l2.52-1.68a10.24,10.24,0,0,1,2.93-1.26c1.26-.21,5.67-.63,5.67-2.94,0-2.52.63-2.52.84-3.36a12.33,12.33,0,0,0,.21-2.3l-.21-3.32s2.51,0,3.14-1.26a5.91,5.91,0,0,0,.42-2.93,2.15,2.15,0,0,0,1.85.21c.84-.42,3.14-2.31,3.35-.84s.21,2.31.84,3.14.63,2.73,1.26,1.89a9.71,9.71,0,0,0,1.68-2.72c.21-.84.84-1.68,1.89-.84s1.47,2.3,3.36,1,2.51-3.15,4.61-3.15,8.56,2.1,8.56,2.1l7.34-.42,6.72,2.51,4.78.21s2.31,5,3.14,2.69.21-9,.21-9v-5s-.83-2.94-1.46-5.46-1.89-5.41-1.89-6.88-.63-4.83,2.73-6.08,5.66-3.15,8.39-3.36,6.54.21,9.23-1.26,3.31-2.52,3.94-4.61,1.47-5.46,3.15-3.15,1.68,4.19,3.56,4,4.41-1,5.46,0,1.47,2.94,2.52,3.36.84.21,2.51.21A2.94,2.94,0,0,1,348,153.36Z"/><path class="cls-1" d="M425.49,123.61l.55,38,17.3,41.23s6.35,7.36,5.52,11.5-.27,6.63-2.48,11.33-3.5,7.08-8.19,9.56-13.26,14.36-13.81,16-4.87,11.78-8.46,16.47-5.53,5.9-9.39,9.12-6.91,5.7-7.74,9.84-4.87,12.33-6,14.54-1.39,2.76-2.49,1.11a14.37,14.37,0,0,1-2.21-4.6c-1.1-3-1.38-3.59-2.76-3.59s-3.87-1.93-4.7-1.38,0,3.31-1.93,1.38-4.24-5.25-6.63-4.7-1.83,3-3.21.56-.56-4.42-2.76-4.42-3.32,1.93-4.42-.55-.83-5.25-3.87-4.42-3,.83-3.31,4.14,1,1.93-3,3-3.49,3.31-5.15-.28a18.56,18.56,0,0,0-3-5s-.28-6.53-4.14-7.91a6.29,6.29,0,0,1-4.42-1.11l-4.69-7.18,1.93-5.24,5.25-5H340l4.69-1.84s-1.28-5.25,2.49-4.7a38.42,38.42,0,0,0,6-3.31h8s2.49,0,3.32,1.93,3,2.21,3.31-.55,1-19.61,11-34.7c1.66-2.48,2.49-13.71,1.93-17.85s-1.38-13.71-1.38-14.82,0-8.83-1.65-8.28-4.32,1.38-6.26,1.93-3,1.11-5.52.55-4.14-1.1-4.14-1.1l-3.32-.28s-6.07,2.49-6.62-3-1.84-9.3-3.22-10.68-2.49-1.66-2.21-2.48-.28-1.94,1.1-2.49,3.77-2.76,5.15-4.42,1.38-2.48,3-2.48a32.81,32.81,0,0,1,5.25,0c1.38.27,1.93,2.21,2.76-1.11s.55-5,2.76-5,2.67,1.84,6.26-.55,4.69-1.84,7.45-5.15,1.66-2.76,4.7-3.87.55-2.76,4.42-1.93,5.06,0,5.24-1.38-.65.55,2.12,0,3.59-1.38,3.59-2.76.55-.83,2.2-.83,2.21.83,3-2.21.55-3.87,2.76-1.66,1.94,4.14,3.32,1.66,1.38-6.26,2.48-6.26,1.66-1.65,1.94-2.76,1-1.65,1.56-.83,1.1,4,1.65,5.43a3.7,3.7,0,0,0,2.77,2.21C423,120.85,425.49,123.61,425.49,123.61Z"/><path class="cls-1" d="M425.49,123.61l.55,38,17.3,41.23s6.35,7.36,5.52,11.5-.27,6.63-2.48,11.33-3.5,7.08-8.19,9.56-13.26,14.36-13.81,16-4.87,11.78-8.46,16.47-5.53,5.9-9.39,9.12-6.91,5.7-7.74,9.84-4.87,12.33-6,14.54-1.39,2.76-2.49,1.11a14.37,14.37,0,0,1-2.21-4.6c-1.1-3-1.38-3.59-2.76-3.59s-3.87-1.93-4.7-1.38,0,3.31-1.93,1.38-4.24-5.25-6.63-4.7-1.83,3-3.21.56-.56-4.42-2.76-4.42-3.32,1.93-4.42-.55-.83-5.25-3.87-4.42-3,.83-3.31,4.14,1,1.93-3,3-3.49,3.31-5.15-.28a18.56,18.56,0,0,0-3-5s-.28-6.53-4.14-7.91a6.29,6.29,0,0,1-4.42-1.11l-4.69-7.18,1.93-5.24,5.25-5H340l4.69-1.84s-1.28-5.25,2.49-4.7a38.42,38.42,0,0,0,6-3.31h8s2.49,0,3.32,1.93,3,2.21,3.31-.55,1-19.61,11-34.7c1.66-2.48,2.49-13.71,1.93-17.85s-1.38-13.71-1.38-14.82,0-8.83-1.65-8.28-4.32,1.38-6.26,1.93-3,1.11-5.52.55-4.14-1.1-4.14-1.1l-3.32-.28s-6.07,2.49-6.62-3-1.84-9.3-3.22-10.68-2.49-1.66-2.21-2.48-.28-1.94,1.1-2.49,3.77-2.76,5.15-4.42,1.38-2.48,3-2.48a32.81,32.81,0,0,1,5.25,0c1.38.27,1.93,2.21,2.76-1.11s.55-5,2.76-5,2.67,1.84,6.26-.55,4.69-1.84,7.45-5.15,1.66-2.76,4.7-3.87.55-2.76,4.42-1.93,5.06,0,5.24-1.38-.65.55,2.12,0,3.59-1.38,3.59-2.76.55-.83,2.2-.83,2.21.83,3-2.21.55-3.87,2.76-1.66,1.94,4.14,3.32,1.66,1.38-6.26,2.48-6.26,1.66-1.65,1.94-2.76,1-1.65,1.56-.83,1.1,4,1.65,5.43a3.7,3.7,0,0,0,2.77,2.21C423,120.85,425.49,123.61,425.49,123.61Z"/><path class="cls-1" d="M331.15,287s-1.66,7.18-1.66,9.39.56,9.57,0,11.22,1.11,1.94-1.1,2.77-9,.27-10.12,2.48-8,6.63-9.12,8.29-4.69,2.94-5.24,4.59-1.38.56-.28,4.42.28,2.76,1.66,6.08.27,3.31,2.21,3.86,3,2.86,3.31,5.25.55,2.39,1.66,3.77,0,2.49,1.65,5.25,3.59,2.76,3.32,4.42-1.66,6.07-.28,7.45,3.87.73,4.7,2.39,3.21,3.59,4.6,2.76,2.2-1.65,4.14-1.1a11.4,11.4,0,0,0,4.14.27,9.69,9.69,0,0,1,5,1.66c1.38,1.11,4.7,3.59,4.42,5.52s-2.21.56-1.38,2.21.27.56,2.76,3.32,3.49,5.34,3.49,7.18-.83,4,3.87,6.53,8.28,3.31,10.22,5a13.52,13.52,0,0,0,5.52,3c2.49.83,9.29,2.48,10.67,5s3.87,7.08,5.8,6.81.56-.38,3-2.21,4.79-1,6.08-2.12,1-1.65,2.94-2.76,2.21-1.93,4.42-1.1,3.86,2.21,5,1.38-.56-3,2.48-.83,6.26,4.69,8.74,2.49,5.53-4.15,5.8-6.63,2.76-6.91,2.76-6.91l1.38-5.52s3-4,4.7-6,2.48-4.69.83-5.8-2.76-.27-3.59-2.76.83-3-.55-5.8-1.39-1.28-3-4.32-1.94-14.64-1.38-17.95,2.21-9.29,2.76-12.88,1.1-5-.55-8.29-3-3.22-2.77-8.19,3.59-9.66,5-12.42,1.93-5.35.55-7.46-2.49-2.39-6.08-2.39-7.08.46-9,2.11-7.46,6.63-10.22,6.08-4-1.66-8-1.66-4.88-1.1-4.88-1.1L389,300.13,387,294.7l-6.36-1.93s.28,2.76-.55,2.21-1.38-1.94-2.76-3-2.3-2.49-4.14-2.21a7.57,7.57,0,0,0-3.22,1.38,6,6,0,0,1-1.1-2.21c-.56-1.65-2.21-3.59-3.32-3.31s-.83,1.38-2.21.27a6,6,0,0,1-2.21-2.48c-.55-1.11-1.65-3.87-3.59-2.49s-2.76.28-2.76,1.66,1.11,4.7,0,5-1.1-.55-2.76.28a33.22,33.22,0,0,1-4.6,1.65s-3.31-8-3.86-6.9,1.1,3-.83,4.7-1.93,2.2-4.14,2.2-4.15.83-5,0Z"/><path class="cls-1" d="M331.15,287s-1.66,7.18-1.66,9.39.56,9.57,0,11.22,1.11,1.94-1.1,2.77-9,.27-10.12,2.48-8,6.63-9.12,8.29-4.69,2.94-5.24,4.59-1.38.56-.28,4.42.28,2.76,1.66,6.08.27,3.31,2.21,3.86,3,2.86,3.31,5.25.55,2.39,1.66,3.77,0,2.49,1.65,5.25,3.59,2.76,3.32,4.42-1.66,6.07-.28,7.45,3.87.73,4.7,2.39,3.21,3.59,4.6,2.76,2.2-1.65,4.14-1.1a11.4,11.4,0,0,0,4.14.27,9.69,9.69,0,0,1,5,1.66c1.38,1.11,4.7,3.59,4.42,5.52s-2.21.56-1.38,2.21.27.56,2.76,3.32,3.49,5.34,3.49,7.18-.83,4,3.87,6.53,8.28,3.31,10.22,5a13.52,13.52,0,0,0,5.52,3c2.49.83,9.29,2.48,10.67,5s3.87,7.08,5.8,6.81.56-.38,3-2.21,4.79-1,6.08-2.12,1-1.65,2.94-2.76,2.21-1.93,4.42-1.1,3.86,2.21,5,1.38-.56-3,2.48-.83,6.26,4.69,8.74,2.49,5.53-4.15,5.8-6.63,2.76-6.91,2.76-6.91l1.38-5.52s3-4,4.7-6,2.48-4.69.83-5.8-2.76-.27-3.59-2.76.83-3-.55-5.8-1.39-1.28-3-4.32-1.94-14.64-1.38-17.95,2.21-9.29,2.76-12.88,1.1-5-.55-8.29-3-3.22-2.77-8.19,3.59-9.66,5-12.42,1.93-5.35.55-7.46-2.49-2.39-6.08-2.39-7.08.46-9,2.11-7.46,6.63-10.22,6.08-4-1.66-8-1.66-4.88-1.1-4.88-1.1L389,300.13,387,294.7l-6.36-1.93s.28,2.76-.55,2.21-1.38-1.94-2.76-3-2.3-2.49-4.14-2.21a7.57,7.57,0,0,0-3.22,1.38,6,6,0,0,1-1.1-2.21c-.56-1.65-2.21-3.59-3.32-3.31s-.83,1.38-2.21.27a6,6,0,0,1-2.21-2.48c-.55-1.11-1.65-3.87-3.59-2.49s-2.76.28-2.76,1.66,1.11,4.7,0,5-1.1-.55-2.76.28a33.22,33.22,0,0,1-4.6,1.65s-3.31-8-3.86-6.9,1.1,3-.83,4.7-1.93,2.2-4.14,2.2-4.15.83-5,0Z"/><path class="cls-1" d="M246.76,290.56c0-.83,1.38.55,3.59,2.48s3.31-1,3.59,3.32,1.38,5.43-.56,9-2.48,1.93-3,6.35a59.36,59.36,0,0,0-.56,6.62,26,26,0,0,1,9,3c3.87,2.39,12.15,4.6,15.46,6.53s3.5,3.59,9.85,1.94,8.56-2.49,8.56-2.49,2.76-4.14,5.8-2.48,4.32,1.93,5.15,1.65,8-6.53,10.49-9.29,3.59-5.25,6.36-5.8,6.53-.83,7.36-1.1,1.65.55,1.65-2.21-.83-9.3-.27-11.23,1.65-9.66,1.65-9.66a3,3,0,0,0-1.93.82c-.83.83-4.05,1.94-6,2.77s-3,3-5.52,2.76-8.38-1.94-11.32-2.49-6.54-.55-9.57-1.1-3.87-.83-5.53-2.21-3.86-5.25-3.86-5.25v-5s2.3-3.77-6.81-2.67a94.35,94.35,0,0,0-9.94,1.66,51.67,51.67,0,0,0-6.91,2.11c-1.65.83-4,.28-5.79.56s-2.39,0-3.22.83-1.38,1.1-3.87,2.2-3.86,2.49-3.59,4.15C247.31,286.14,246.76,291.39,246.76,290.56Z"/><path class="cls-1" d="M246.76,290.56c0-.83,1.38.55,3.59,2.48s3.31-1,3.59,3.32,1.38,5.43-.56,9-2.48,1.93-3,6.35a59.36,59.36,0,0,0-.56,6.62,26,26,0,0,1,9,3c3.87,2.39,12.15,4.6,15.46,6.53s3.5,3.59,9.85,1.94,8.56-2.49,8.56-2.49,2.76-4.14,5.8-2.48,4.32,1.93,5.15,1.65,8-6.53,10.49-9.29,3.59-5.25,6.36-5.8,6.53-.83,7.36-1.1,1.65.55,1.65-2.21-.83-9.3-.27-11.23,1.65-9.66,1.65-9.66a3,3,0,0,0-1.93.82c-.83.83-4.05,1.94-6,2.77s-3,3-5.52,2.76-8.38-1.94-11.32-2.49-6.54-.55-9.57-1.1-3.87-.83-5.53-2.21-3.86-5.25-3.86-5.25v-5s2.3-3.77-6.81-2.67a94.35,94.35,0,0,0-9.94,1.66,51.67,51.67,0,0,0-6.91,2.11c-1.65.83-4,.28-5.79.56s-2.39,0-3.22.83-1.38,1.1-3.87,2.2-3.86,2.49-3.59,4.15C247.31,286.14,246.76,291.39,246.76,290.56Z"/><path class="cls-1" d="M121.86,276.85a7.91,7.91,0,0,1,.83,4,5.17,5.17,0,0,0,3.32,5.25c2.2,1.11,4.41,1.38,5.52.28s3.31-.28,5,.83.83,1.65,1.1,4.41.28,3,1.94,5.53.27,2.66,1.65,5.42.18,3,3.77,2.77,5.8-.56,9.39,0,2.49-1.11,6.63-.83,3.77.55,7.36,2.76,6.63,5.25,6.63,6.9-.83-.55-.83,3-1.93,1.2.28,5.25,3.86,7.63,4.14,10.12-.28,1.1-.83,3.86-.83,3-.55,5.53-3.32,6.53-.83,6.25,3.87-.45,5.8-4.6,3-5.52,4.69-6.62,3.77-2.49,3.77.27,0,5.25,1.94,6.08,4.41.45,5.8,2.39,5,3.86,7.18,3.59,2-2,5.24-3,5.43-1.46,6.53-1,7.74,1.66,12.43-.27a26.67,26.67,0,0,0,9-5.8c1.65-1.66,4.42-6.91,7.73-8s5.52.27,4.42-3.32-4.7-7.36-4.7-7.36l3.59-2.48.83-6.63s.55-3.87,2.21-5.25,1.66-5.42,1.66-7.08-.28-4.42-1.94-5a16.25,16.25,0,0,1-3.31-1.66l-2.48-1.65s-15.65-1.11-20.07-2.77-23.1-6.62-26.69-6.62-15.92-.83-18.13-1.94-6.63-2.11-8.56-2.66-3-1.38-5-1.38-2.66-.83-4.05-1.94-.82-.55-3.31-1.93a10.85,10.85,0,0,1-3.87-4.42s-2.76-.27-3.86-.55-1.93-.55-1.93-.55h-4.15"/><path class="cls-1" d="M142.3,305.1a6.41,6.41,0,0,1,1.84,2.76c.27,1.38-.28,3.59,1.1,3.87s2.76.83,2.76,2.48.55,1.94,1.66,3.32.55,1.2,1.1,3.59.83,1.83,1.38,4.32-.55,3.59.56,5,.82,1.1,1.93.83,1.93-1.11,1.93.55,1.11,2.21,2.49,3.87,2.76,4.14,4.14,5.52a5.08,5.08,0,0,1,1.66,2.76,13.37,13.37,0,0,0,1.83,3.22c.83,1.1,2.21,3.31,3,4.14a7.3,7.3,0,0,1,1.93,4.42c.28,2.21.83,4.14,1.11,6.63s-.55,4.32.55,8.18a18.81,18.81,0,0,0,3.87,7.46c1.65,2.21,2.48,6.08,4.69,7.18s2.76,1.66,5,1.11a8.46,8.46,0,0,1,6.81,1.1c1.93,1.38,3,1.66,3.87.28a10.29,10.29,0,0,1,5.52-4.15c3-1.1,2.49-1.65,4.69-1.93s5.15-1.93,5.71-3.31a7.36,7.36,0,0,1,4.42-3.59c1.93-.56.55-2.58,1.1-4.7a22.12,22.12,0,0,0,.28-7.36c-.28-2.21,1.1-3.86,1.38-5.8s-.55-2.48-.83-5a28.44,28.44,0,0,1,.28-6.07s-5.71-2.21-9.3.55c-1.93,1.38-5.52,5.15-9.94,1.38,0,0-4.42-4-5.8-3.49,0-.28-3.86,1.38-4.14-4.7-.28-.83.45-3.86-1.11-3.59s-4.59.37-7.36,7.73c-1.38,2.95-3.31,4.6-5.52,4.6,0,0-1.93.38-.83-2.94l.83-2.76V339s2.21-5.52,1.66-6.63-4.42-10.95-4.42-10.95a3.11,3.11,0,0,1-.28-2.76,9.46,9.46,0,0,1,1.11-4.42c-.55-2.21-4.88-8.28-12.88-9.39-.56-.27-3.32,0-5.25.83a57.89,57.89,0,0,1-6.91-.83l-3.59.56Z"/><path class="cls-1" d="M142.3,305.1a6.41,6.41,0,0,1,1.84,2.76c.27,1.38-.28,3.59,1.1,3.87s2.76.83,2.76,2.48.55,1.94,1.66,3.32.55,1.2,1.1,3.59.83,1.83,1.38,4.32-.55,3.59.56,5,.82,1.1,1.93.83,1.93-1.11,1.93.55,1.11,2.21,2.49,3.87,2.76,4.14,4.14,5.52a5.08,5.08,0,0,1,1.66,2.76,13.37,13.37,0,0,0,1.83,3.22c.83,1.1,2.21,3.31,3,4.14a7.3,7.3,0,0,1,1.93,4.42c.28,2.21.83,4.14,1.11,6.63s-.55,4.32.55,8.18a18.81,18.81,0,0,0,3.87,7.46c1.65,2.21,2.48,6.08,4.69,7.18s2.76,1.66,5,1.11a8.46,8.46,0,0,1,6.81,1.1c1.93,1.38,3,1.66,3.87.28a10.29,10.29,0,0,1,5.52-4.15c3-1.1,2.49-1.65,4.69-1.93s5.15-1.93,5.71-3.31a7.36,7.36,0,0,1,4.42-3.59c1.93-.56.55-2.58,1.1-4.7a22.12,22.12,0,0,0,.28-7.36c-.28-2.21,1.1-3.86,1.38-5.8s-.55-2.48-.83-5a28.44,28.44,0,0,1,.28-6.07s-5.71-2.21-9.3.55c-1.93,1.38-5.52,5.15-9.94,1.38,0,0-4.42-4-5.8-3.49,0-.28-3.86,1.38-4.14-4.7-.28-.83.45-3.86-1.11-3.59s-4.59.37-7.36,7.73c-1.38,2.95-3.31,4.6-5.52,4.6,0,0-1.93.38-.83-2.94l.83-2.76V339s2.21-5.52,1.66-6.63-4.42-10.95-4.42-10.95a3.11,3.11,0,0,1-.28-2.76,9.46,9.46,0,0,1,1.11-4.42c-.55-2.21-4.88-8.28-12.88-9.39-.56-.27-3.32,0-5.25.83a57.89,57.89,0,0,1-6.91-.83l-3.59.56Z"/><path class="cls-1" d="M158.22,411a2.4,2.4,0,0,0-.11-2.29l36.44-21.4a8.55,8.55,0,0,1,1.86,1.7,5.87,5.87,0,0,0,1.94-1.94c.55-1.1,2.48-1.93,4.14-3s8.56-3.32,8.56-3.32l3.77-4.14,3.86-3.59,1.66,2.49s.83.82.55,3-1.65,1.94-1.38,3.59a15.66,15.66,0,0,0,2.21,4.42,13.64,13.64,0,0,0-1.38,4.88c0,2.11,6.35,1.1,6.35,1.1a19.9,19.9,0,0,1-5.24,4.42c-3,1.66-4.42,5.25-7.18,6.9s-4.6,4.7-7.36,5.8-7.74,5.43-8.56,6.53.82,4.7,2.2,6.08,3.32,2.76,4.7,5a18.06,18.06,0,0,0,5.8,5.52c1.66.83,2.11,7.64,1.83,9.3s-2.94.82-2.94.82l-5.8,4.42s-10.21,2.49-10.49,2.76c-3-5.24-11.5-1.93-11.5-1.93l-8.84-.55-4.42-3a21.75,21.75,0,0,0,1.38-5.52c0-1.93-.82-3.22-3-5.7a18.11,18.11,0,0,1-4.05-6.91c-.83-2.48-.55-4.69-3-5s-1.1-1.93-2.48-4.69S157.39,413.52,158.22,411Z"/><path class="cls-1" d="M158.22,411a2.4,2.4,0,0,0-.11-2.29l36.44-21.4a8.55,8.55,0,0,1,1.86,1.7,5.87,5.87,0,0,0,1.94-1.94c.55-1.1,2.48-1.93,4.14-3s8.56-3.32,8.56-3.32l3.77-4.14,3.86-3.59,1.66,2.49s.83.82.55,3-1.65,1.94-1.38,3.59a15.66,15.66,0,0,0,2.21,4.42,13.64,13.64,0,0,0-1.38,4.88c0,2.11,6.35,1.1,6.35,1.1a19.9,19.9,0,0,1-5.24,4.42c-3,1.66-4.42,5.25-7.18,6.9s-4.6,4.7-7.36,5.8-7.74,5.43-8.56,6.53.82,4.7,2.2,6.08,3.32,2.76,4.7,5a18.06,18.06,0,0,0,5.8,5.52c1.66.83,2.11,7.64,1.83,9.3s-2.94.82-2.94.82l-5.8,4.42s-10.21,2.49-10.49,2.76c-3-5.24-11.5-1.93-11.5-1.93l-8.84-.55-4.42-3a21.75,21.75,0,0,0,1.38-5.52c0-1.93-.82-3.22-3-5.7a18.11,18.11,0,0,1-4.05-6.91c-.83-2.48-.55-4.69-3-5s-1.1-1.93-2.48-4.69S157.39,413.52,158.22,411Z"/><path class="cls-1" d="M190.89,386.28a5.62,5.62,0,0,1,3.55,1L158,408.58a8.81,8.81,0,0,1-1.45-3.07c-.83-3.31.55-6.9,1.94-9.94s3.86-3.87,4.69-6.26,4.32-3.31,4.6-7.18-.55-4.69,0-7.18,1.1-4.14-1.11-4.69-1.56-2.67-4.32-5.7-3-2.49-3.59-4.15-1.1-4.41-2.76-4.14-1.38,2.49-3-.55-.27-3.87-2.76-4.42-2.21-3.87-3-6.81-2.48-3.86-5.42-4.69-3-5.52-3.32-7.73a15.18,15.18,0,0,0-3-7.46,6.62,6.62,0,0,1-.55-7.36c1.11-1.93,0-4.42-1.1-6.9s-.55-3.32-.28-5-2.48-3-4.69-4.42a26.75,26.75,0,0,1-5.8-4.88c-1.11-1.38-.83-6.35-1.11-8.83a45.81,45.81,0,0,1,.28-7.18c1.1,8.18,8.84,7.18,8.84,7.18s.82-1.11,1.38-1.11c3-1.1,5,2.49,5,2.49l.27,3.31.56,2.49,2.48,4.69.28,2.11.55,1.94,2.94,4.69.28,3.31,2.76,1.66,1.1,3,1.66,3.87,1.93,5.15-.27,4.69,2.21,1.93,2.21-.27,1.65,3.31,6.35,7.46,1.39,3s3.77,5.42,5.15,7.91,1.93,8.83,1.93,8.83v7.09L175,374.4l1.38,1.66s1.93,4.69,2.21,4.69c.55,3.32,6.35,6.08,6.35,6.08S187.67,386.55,190.89,386.28Z"/><path class="cls-1" d="M190.89,386.28a5.62,5.62,0,0,1,3.55,1L158,408.58a8.81,8.81,0,0,1-1.45-3.07c-.83-3.31.55-6.9,1.94-9.94s3.86-3.87,4.69-6.26,4.32-3.31,4.6-7.18-.55-4.69,0-7.18,1.1-4.14-1.11-4.69-1.56-2.67-4.32-5.7-3-2.49-3.59-4.15-1.1-4.41-2.76-4.14-1.38,2.49-3-.55-.27-3.87-2.76-4.42-2.21-3.87-3-6.81-2.48-3.86-5.42-4.69-3-5.52-3.32-7.73a15.18,15.18,0,0,0-3-7.46,6.62,6.62,0,0,1-.55-7.36c1.11-1.93,0-4.42-1.1-6.9s-.55-3.32-.28-5-2.48-3-4.69-4.42a26.75,26.75,0,0,1-5.8-4.88c-1.11-1.38-.83-6.35-1.11-8.83a45.81,45.81,0,0,1,.28-7.18c1.1,8.18,8.84,7.18,8.84,7.18s.82-1.11,1.38-1.11c3-1.1,5,2.49,5,2.49l.27,3.31.56,2.49,2.48,4.69.28,2.11.55,1.94,2.94,4.69.28,3.31,2.76,1.66,1.1,3,1.66,3.87,1.93,5.15-.27,4.69,2.21,1.93,2.21-.27,1.65,3.31,6.35,7.46,1.39,3s3.77,5.42,5.15,7.91,1.93,8.83,1.93,8.83v7.09L175,374.4l1.38,1.66s1.93,4.69,2.21,4.69c.55,3.32,6.35,6.08,6.35,6.08S187.67,386.55,190.89,386.28Z"/><path class="cls-1" d="M226,392.5c-.24,0,3.1-2.63,4.77-.24s4.46,3.57,6.37,3.34,5.49,1.19,7.39,2.14,2.39-.48,5.49,1.19,3.88,1.67,7.39,2.15,5.66-1.67,8-2.38,6.2-2.39,8.35-2.15,5.41,2.62,6.61,4.05,2.14.72,4,.24,2.62-1.19,5.72-.24,3.1,0,3.34-2.38,3.58-3.1,5.25-1.67,2.14,4.53,2.14,5.48-2.14,4.06-4.29,4.53-3.58.24-5.24,1.91-3.82,4.36-3.58,5.25,1.91,1.6,5.24,2.08,11.14,0,13,0,4.06-1.13,4.06-3.27a25.42,25.42,0,0,1,.23-6c.48-2.14,0-4.53.48-5.24s2.15-2.86,4.06-.24,4.05,3.1,4.29-.72,2.14-4.35,0-7.39-3.82-3.51-4.29-5.65-1.44-4.77-1.91-6.92-1-4.77,0-5.48a51.58,51.58,0,0,1,5.24-2.63h1.91s1.67-4.7.48-4.94-4.77,0-3.82-4.05a21.28,21.28,0,0,0,1-3.82s.71-1.43-1.91-2.86a34,34,0,0,1-2.39-4.29l-1.19-3.81-1.19-.72s-.48-6.85-2.62-7.56c-2.15-.48-2.15-1-2.15-1l-2.15-6.91-1.12-3.82.41-1.67-1.6-.71s-5.73-5-9.06.95c-.24.72-10.26,3.58-10.26,3.58s-5.65.24-7.08-1.91c-1,0-12.17-5.25-12.17-5.25l-5.89-3L250,318.13l-3.58,2.62a12.42,12.42,0,0,1,4.53,8c0,.24.72,1.19-2.14,1.91s-6.68,2.38-8.59,6.2-6.61,7.15-8.75,7.63-6.92.89-11.21,1.6a26.17,26.17,0,0,0-.48,6.68l1,3.57-1.67,4.54v12.33s2.86,3.81,1.43,6.44c-.72,1.66-1,3.1,1.19,7.15.24.24-1.43,2.62-1.43,2.62S218.85,393.86,226,392.5Z"/><path class="cls-1" d="M226,392.5c-.24,0,3.1-2.63,4.77-.24s4.46,3.57,6.37,3.34,5.49,1.19,7.39,2.14,2.39-.48,5.49,1.19,3.88,1.67,7.39,2.15,5.66-1.67,8-2.38,6.2-2.39,8.35-2.15,5.41,2.62,6.61,4.05,2.14.72,4,.24,2.62-1.19,5.72-.24,3.1,0,3.34-2.38,3.58-3.1,5.25-1.67,2.14,4.53,2.14,5.48-2.14,4.06-4.29,4.53-3.58.24-5.24,1.91-3.82,4.36-3.58,5.25,1.91,1.6,5.24,2.08,11.14,0,13,0,4.06-1.13,4.06-3.27a25.42,25.42,0,0,1,.23-6c.48-2.14,0-4.53.48-5.24s2.15-2.86,4.06-.24,4.05,3.1,4.29-.72,2.14-4.35,0-7.39-3.82-3.51-4.29-5.65-1.44-4.77-1.91-6.92-1-4.77,0-5.48a51.58,51.58,0,0,1,5.24-2.63h1.91s1.67-4.7.48-4.94-4.77,0-3.82-4.05a21.28,21.28,0,0,0,1-3.82s.71-1.43-1.91-2.86a34,34,0,0,1-2.39-4.29l-1.19-3.81-1.19-.72s-.48-6.85-2.62-7.56c-2.15-.48-2.15-1-2.15-1l-2.15-6.91-1.12-3.82.41-1.67-1.6-.71s-5.73-5-9.06.95c-.24.72-10.26,3.58-10.26,3.58s-5.65.24-7.08-1.91c-1,0-12.17-5.25-12.17-5.25l-5.89-3L250,318.13l-3.58,2.62a12.42,12.42,0,0,1,4.53,8c0,.24.72,1.19-2.14,1.91s-6.68,2.38-8.59,6.2-6.61,7.15-8.75,7.63-6.92.89-11.21,1.6a26.17,26.17,0,0,0-.48,6.68l1,3.57-1.67,4.54v12.33s2.86,3.81,1.43,6.44c-.72,1.66-1,3.1,1.19,7.15.24.24-1.43,2.62-1.43,2.62S218.85,393.86,226,392.5Z"/><path class="cls-1" d="M290.66,415.08c-.48,0,1.91,3.34.72,4.53s-3.1,2.15-2.15,3.58,4.29,2.86,2.15,4.29-2.63.72-4.54.95-2.14-2.62-2.62-.47.17,2.38-2.38,2.38-4,.55-3.51,3.82,2.14,4.94,0,7.08-4.77,1.67-5.25,4.77-2.38,3.58-4.53,4.3-2.62-1.44-5.25-1.2-6.84-1.67-7.56.24S255.5,452,252.4,452s-3.57,3.1-5.24,3.58a13.66,13.66,0,0,1-5.73.95c-2.38-.23-6.61-1.84-6.84,1.44s-1,6.37-3.1,7.56-1.67,1.43-4.06,1.43a37.71,37.71,0,0,1-5.24-.48s-4.77-6.13-3.58-7.56a24,24,0,0,0,1.91-2.62l-3.58-8.11-4.29-5.49s1.5-6.84-2.56-10.66a57.46,57.46,0,0,1-6.2-6.91c-.71-1-3.57-3.34-3.81-4.3s-3.34-3.51.47-6.37,10.5-7.15,10.5-7.15l5.65-5.72s4.29-5.25,7.16-6.2c.47-.48,3.88-7.63,8.58-1.43a51.34,51.34,0,0,0,6.37,1.67,64.5,64.5,0,0,0,6.68,2.62l2.38-.24s9.24,3.82,12.57,3.34c3.34-2.39,11.69-4.29,11.69-4.29s2.38-1.43,5.24,1.43a47.6,47.6,0,0,1,4.23,3.1l5.24-1.43s4.06,1.43,5,.95,1.67-2.62,1.67-3.34,3.58-3.81,6.2-.48c1.91,2.39,1.19,6.44-.48,7.63A17.09,17.09,0,0,1,294,407c-1,.24-4.77,2.21-5.49,4.77S288.75,414.37,290.66,415.08Z"/><path class="cls-1" d="M290.66,415.08c-.48,0,1.91,3.34.72,4.53s-3.1,2.15-2.15,3.58,4.29,2.86,2.15,4.29-2.63.72-4.54.95-2.14-2.62-2.62-.47.17,2.38-2.38,2.38-4,.55-3.51,3.82,2.14,4.94,0,7.08-4.77,1.67-5.25,4.77-2.38,3.58-4.53,4.3-2.62-1.44-5.25-1.2-6.84-1.67-7.56.24S255.5,452,252.4,452s-3.57,3.1-5.24,3.58a13.66,13.66,0,0,1-5.73.95c-2.38-.23-6.61-1.84-6.84,1.44s-1,6.37-3.1,7.56-1.67,1.43-4.06,1.43a37.71,37.71,0,0,1-5.24-.48s-4.77-6.13-3.58-7.56a24,24,0,0,0,1.91-2.62l-3.58-8.11-4.29-5.49s1.5-6.84-2.56-10.66a57.46,57.46,0,0,1-6.2-6.91c-.71-1-3.57-3.34-3.81-4.3s-3.34-3.51.47-6.37,10.5-7.15,10.5-7.15l5.65-5.72s4.29-5.25,7.16-6.2c.47-.48,3.88-7.63,8.58-1.43a51.34,51.34,0,0,0,6.37,1.67,64.5,64.5,0,0,0,6.68,2.62l2.38-.24s9.24,3.82,12.57,3.34c3.34-2.39,11.69-4.29,11.69-4.29s2.38-1.43,5.24,1.43a47.6,47.6,0,0,1,4.23,3.1l5.24-1.43s4.06,1.43,5,.95,1.67-2.62,1.67-3.34,3.58-3.81,6.2-.48c1.91,2.39,1.19,6.44-.48,7.63A17.09,17.09,0,0,1,294,407c-1,.24-4.77,2.21-5.49,4.77S288.75,414.37,290.66,415.08Z"/><path class="cls-1" d="M309,414.84s-.71,5.25.24,6.44,4.29-.71,6.2,2.15,2.39,8.89,3.34,12.16.95,5.42,1.67,8.75,2.15,4.3,2.15,6.92a63.74,63.74,0,0,1-1.2,11.62,39.8,39.8,0,0,0-.47,11.92c.47,2.86,2.14,7.8,2.86,10.42s.47,10,0,11.69c0,0-19,6.13-20.92,8.52s-8.58,4.53-10,5.24-13.29.24-17.58-1.19-6-2.86-9.06-2.62-14.24.17-16.15-.72-7.63-3.51-8.11-4.7-13.29-11.69-15.43-11.92-8.35-1.26-10-6.44.24-9.23,1.2-10.19S221,465.5,221,465.5s8.11,3.34,10.73,0a11.36,11.36,0,0,0,2.39-5.66c.24-.71-.07-4.77,4.46-4,4.53,1.19,8.59,0,9.78-1.43s2.86-3.1,4.53-2.62c-.48,0,1.91.47,1.91.47l.24-2.14,2.38-1.2h6.85s2.62,1.91,5,1.2,3.81-2.39,3.81-4.3a5.15,5.15,0,0,1,3.58-3.1c2.86-.71,2.86-3.64,2.62-5.48a9.68,9.68,0,0,0-.71-2.79v-2.63l1.66-1.9,3,.47,1-2.62,2.15,1.43,3.34-.72,2.62-1.9-2.62-2.86s-1.43-1.91.23-2.87,1.2-2.14,1.2-2.14l-.48-3.1,2.38.24h13Z"/><path class="cls-1" d="M309,414.84s-.71,5.25.24,6.44,4.29-.71,6.2,2.15,2.39,8.89,3.34,12.16.95,5.42,1.67,8.75,2.15,4.3,2.15,6.92a63.74,63.74,0,0,1-1.2,11.62,39.8,39.8,0,0,0-.47,11.92c.47,2.86,2.14,7.8,2.86,10.42s.47,10,0,11.69c0,0-19,6.13-20.92,8.52s-8.58,4.53-10,5.24-13.29.24-17.58-1.19-6-2.86-9.06-2.62-14.24.17-16.15-.72-7.63-3.51-8.11-4.7-13.29-11.69-15.43-11.92-8.35-1.26-10-6.44.24-9.23,1.2-10.19S221,465.5,221,465.5s8.11,3.34,10.73,0a11.36,11.36,0,0,0,2.39-5.66c.24-.71-.07-4.77,4.46-4,4.53,1.19,8.59,0,9.78-1.43s2.86-3.1,4.53-2.62c-.48,0,1.91.47,1.91.47l.24-2.14,2.38-1.2h6.85s2.62,1.91,5,1.2,3.81-2.39,3.81-4.3a5.15,5.15,0,0,1,3.58-3.1c2.86-.71,2.86-3.64,2.62-5.48a9.68,9.68,0,0,0-.71-2.79v-2.63l1.66-1.9,3,.47,1-2.62,2.15,1.43,3.34-.72,2.62-1.9-2.62-2.86s-1.43-1.91.23-2.87,1.2-2.14,1.2-2.14l-.48-3.1,2.38.24h13Z"/><path class="cls-1" d="M323.5,496.43s5.18-2.86,7.32-2.86,11.21.95,11.21.95a28.61,28.61,0,0,0,5.72,1.2,31.92,31.92,0,0,0,7.57-1.67c2.14-.72,3.1-1.91,7.15-3.1s5-2.39,4.77-4.3-.71-3,.95-5.41,1.61-2.86,3.51-1.43,4.3,2.62,5.25.71a83.32,83.32,0,0,0,3.82-7.87c1-2.62,3.1-7.87,5-8.34s9.47-1.5,11.62-3.1a18.24,18.24,0,0,0,3.1-2.8s-1.67-5.24-.48-8.34,2.15-8.35,4.3-9.06,6,.41,6.67-2.15.72-8.76,1.67-10.9,4.77-4.53,3.82-6-5.49-4.06-5.49-4.06-1.43-1.43-1.19-2.14,4.29-3.27,4.29-3.27l-6.44-3.82s-1.9,1.91-4.05.72c-.48,0-2-3-7.39.95a24.92,24.92,0,0,0-2.56,2.38s-5.24.18-7.39,3.75c-.48-.24-1.91,2-5-3.27-2.14-2.62-4.36-6.44-9.54-7.63a23.1,23.1,0,0,1-8.27-3.58s-8.35-3.81-9.78-5-5.35-.65-4.7-6.61c-1.67-4.06-3.1-6.92-3.82-7.63a31.06,31.06,0,0,1-2.38-3.58s1.9-.95.47-3.34-4.35-5.72-11.92-5a18.47,18.47,0,0,0-3.58-.47l-1.6,1.19a2.15,2.15,0,0,1-2.38-1c-1.19-1.43-2.39-3-2.39-3l-.71,4.47-1.91.23-5.25,1.91s-1.43,1.43-.47,4.53a68.71,68.71,0,0,1,1.67,7.87s1.19,3.17,2.38,4,3.34,2.56,2.62,6.85-.95,5.25-.95,5.25-2.38.95-2.86-.24a10.33,10.33,0,0,0-1.91-2.62s-2.62-.72-3.1,2.86-.71,7.39-.71,7.39-.24,4.46-1.2,4.94c.48-.24-.23,1.67-.23,1.67l.47,3.1s-.95,2.38,2.86,1.91c.24,0,2.87-2.8,5.49,7.39s2.14,13.52,2.62,14.48,2.62,6,2.62,6l-.47,10.9-1,6.2-.47,9.06,3.57,11.14Z"/><path class="cls-1" d="M323.5,496.43s5.18-2.86,7.32-2.86,11.21.95,11.21.95a28.61,28.61,0,0,0,5.72,1.2,31.92,31.92,0,0,0,7.57-1.67c2.14-.72,3.1-1.91,7.15-3.1s5-2.39,4.77-4.3-.71-3,.95-5.41,1.61-2.86,3.51-1.43,4.3,2.62,5.25.71a83.32,83.32,0,0,0,3.82-7.87c1-2.62,3.1-7.87,5-8.34s9.47-1.5,11.62-3.1a18.24,18.24,0,0,0,3.1-2.8s-1.67-5.24-.48-8.34,2.15-8.35,4.3-9.06,6,.41,6.67-2.15.72-8.76,1.67-10.9,4.77-4.53,3.82-6-5.49-4.06-5.49-4.06-1.43-1.43-1.19-2.14,4.29-3.27,4.29-3.27l-6.44-3.82s-1.9,1.91-4.05.72c-.48,0-2-3-7.39.95a24.92,24.92,0,0,0-2.56,2.38s-5.24.18-7.39,3.75c-.48-.24-1.91,2-5-3.27-2.14-2.62-4.36-6.44-9.54-7.63a23.1,23.1,0,0,1-8.27-3.58s-8.35-3.81-9.78-5-5.35-.65-4.7-6.61c-1.67-4.06-3.1-6.92-3.82-7.63a31.06,31.06,0,0,1-2.38-3.58s1.9-.95.47-3.34-4.35-5.72-11.92-5a18.47,18.47,0,0,0-3.58-.47l-1.6,1.19a2.15,2.15,0,0,1-2.38-1c-1.19-1.43-2.39-3-2.39-3l-.71,4.47-1.91.23-5.25,1.91s-1.43,1.43-.47,4.53a68.71,68.71,0,0,1,1.67,7.87s1.19,3.17,2.38,4,3.34,2.56,2.62,6.85-.95,5.25-.95,5.25-2.38.95-2.86-.24a10.33,10.33,0,0,0-1.91-2.62s-2.62-.72-3.1,2.86-.71,7.39-.71,7.39-.24,4.46-1.2,4.94c.48-.24-.23,1.67-.23,1.67l.47,3.1s-.95,2.38,2.86,1.91c.24,0,2.87-2.8,5.49,7.39s2.14,13.52,2.62,14.48,2.62,6,2.62,6l-.47,10.9-1,6.2-.47,9.06,3.57,11.14Z"/><path class="cls-1" d="M103.77,63.52s-15,5.38-20.08,7-8.23.49-8.23,2.84S75.07,78.9,76.64,82s.09,1.18-.79,3.92.79,3.92.79,3.92,5.19,1.47,1.56,3.52-3.23.89-4.4,4-.64,3.58-.64,3.58,4.65,12.09,6.61,13.66,3.53,2.06,3.53,6.37-.79,8.62,2.74,11.75,3.53,7.94,5.09,8.72,4.22,2.74,5.88.79,5.58-3.73,7.54-2.45,2.36,4,5.1,5.19,2.35,2.35,5.09,1.17a21.73,21.73,0,0,1,6-2c3.52-.78,2.74.4,6.66-.39s6.27-1.27,5.88-5.19,2.74-8.23-.4-11.36-3.52-7.06.4-6.27,9.5.78,13.42.78,3.92.79,7.83,1.57,6.27,2,7.06.39,2-3.43,3.13-5.88,2-2.84.39-4.8-2-3.13-3.52-4.7-4.31-1.17-3.53-4.7-1.18-5,0-7.45,3.13-4,3.13-5.58,3.92-9.4,3.92-9.4-3.92,2-5.09,3.92-.78,4.31-2.74,5.09-2.75.39-4.31-3.14-2.75-11.36-5.88-12.53-10.68-6.76-10.68-6.76a7.29,7.29,0,0,1-3.53-2.75c-1.17-2-3.52-6.66-4.7-8.23a20.71,20.71,0,0,0-4.31-3.52,31.2,31.2,0,0,0-5.58,3.13c-2,1.57-6.27,2.75-7.45,4.7a16.86,16.86,0,0,1-3.91,3.92l-1.57-.78"/><path class="cls-1" d="M121.86,276.85a7.91,7.91,0,0,1,.83,4,5.17,5.17,0,0,0,3.32,5.25c2.2,1.11,4.41,1.38,5.52.28s3.31-.28,5,.83.83,1.65,1.1,4.41.28,3,1.94,5.53.27,2.66,1.65,5.42.18,3,3.77,2.77,5.8-.56,9.39,0,2.49-1.11,6.63-.83,3.77.55,7.36,2.76,6.63,5.25,6.63,6.9-.83-.55-.83,3-1.93,1.2.28,5.25,3.86,7.63,4.14,10.12-.28,1.1-.83,3.86-.83,3-.55,5.53-3.32,6.53-.83,6.25,3.87-.45,5.8-4.6,3-5.52,4.69-6.62,3.77-2.49,3.77.27,0,5.25,1.94,6.08,4.41.45,5.8,2.39,5,3.86,7.18,3.59,2-2,5.24-3,5.43-1.46,6.53-1,7.74,1.66,12.43-.27a26.67,26.67,0,0,0,9-5.8c1.65-1.66,4.42-6.91,7.73-8s5.52.27,4.42-3.32-4.7-7.36-4.7-7.36l3.59-2.48.83-6.63s.55-3.87,2.21-5.25,1.66-5.42,1.66-7.08-.28-4.42-1.94-5a16.25,16.25,0,0,1-3.31-1.66l-2.48-1.65s-15.65-1.11-20.07-2.77-23.1-6.62-26.69-6.62-15.92-.83-18.13-1.94-6.63-2.11-8.56-2.66-3-1.38-5-1.38-2.66-.83-4.05-1.94-.82-.55-3.31-1.93a10.85,10.85,0,0,1-3.87-4.42s-2.76-.27-3.86-.55-1.93-.55-1.93-.55h-4.15"/><path class="cls-1" d="M120.68,277.68s-7.62,7.62-10.47,10-31.87,19.5-31.87,19.5-6.64,1.9-6.64,6.66v12.83s-4.76,11-3.81,16.66S70.27,360,70.27,360s1,9.5,4.28,11.88,4.27,4.29,4.27,4.29,1.9,0,4.28-2.86c0,0,3.81-1.43,5.71,2.86s5.71,3.8,5.71,3.8a5.7,5.7,0,0,1,2.38,5.24,65.39,65.39,0,0,0-.47,7.6s3.78-.48,4.26,2.37,1.9,11.9,5.24,15.23a72.91,72.91,0,0,1,7.13,9l8.55,4.76L133,431.76l7.14,1.43,1.51,4.11v2.1s2.43,0,4.53,3.6a20.46,20.46,0,0,0,3.9,5.1l6,.6,4.5-2.1s3.94-6.6,8.43-2.1c.6.3,1.2-6,1.2-6a11.28,11.28,0,0,0-3-6,22.27,22.27,0,0,1-3.93-6s.3-3-3.6-5.39c0,.3-2.7-6-2.7-6l1.8-5.43a9.71,9.71,0,0,1-2.1-8.7c0-2.4,1.8-6,1.8-6l4.2-3.93,1.5-3,2.43-2.7a9.41,9.41,0,0,0,1.5-5.4,44.86,44.86,0,0,1-.3-4.49s3.27-5.1-2.43-5.4c.3-.3-1.18-3.49-3.15-5.85s-3.28-2.62-3.28-2.62l-.92-3.67a1.94,1.94,0,0,0-3.28-.79c-.13,0-.78.92-1.7-1.18a8.81,8.81,0,0,1-.92-2.89s.53-1-1.57-1.7c-.79.26-1.71.26-2.5-3.15s-1.44-7.08-5.11-7.87c0,.13-3.41-.13-4.07-5.25-.26-1.05-.92-4.72-.92-4.72a23.6,23.6,0,0,0-2.36-5.51c-1.44-2.23-2.1-4.59-1.18-6.69s1.18-3,.13-5.77-1.31-3.67-1.31-3.67a3.63,3.63,0,0,1,0-2.5c.53-1.18-.52-2.75-1.31-3.28s-3.8-2.49-5.12-3.54-4.19-1.57-4.59-5.64a88.7,88.7,0,0,1-.26-9.05l.39-3.8-.52-3.81-.66-.26Z"/><path class="cls-1" d="M120.68,277.68s-7.62,7.62-10.47,10-31.87,19.5-31.87,19.5-6.64,1.9-6.64,6.66v12.83s-4.76,11-3.81,16.66S70.27,360,70.27,360s1,9.5,4.28,11.88,4.27,4.29,4.27,4.29,1.9,0,4.28-2.86c0,0,3.81-1.43,5.71,2.86s5.71,3.8,5.71,3.8a5.7,5.7,0,0,1,2.38,5.24,65.39,65.39,0,0,0-.47,7.6s3.78-.48,4.26,2.37,1.9,11.9,5.24,15.23a72.91,72.91,0,0,1,7.13,9l8.55,4.76L133,431.76l7.14,1.43,1.51,4.11v2.1s2.43,0,4.53,3.6a20.46,20.46,0,0,0,3.9,5.1l6,.6,4.5-2.1s3.94-6.6,8.43-2.1c.6.3,1.2-6,1.2-6a11.28,11.28,0,0,0-3-6,22.27,22.27,0,0,1-3.93-6s.3-3-3.6-5.39c0,.3-2.7-6-2.7-6l1.8-5.43a9.71,9.71,0,0,1-2.1-8.7c0-2.4,1.8-6,1.8-6l4.2-3.93,1.5-3,2.43-2.7a9.41,9.41,0,0,0,1.5-5.4,44.86,44.86,0,0,1-.3-4.49s3.27-5.1-2.43-5.4c.3-.3-1.18-3.49-3.15-5.85s-3.28-2.62-3.28-2.62l-.92-3.67a1.94,1.94,0,0,0-3.28-.79c-.13,0-.78.92-1.7-1.18a8.81,8.81,0,0,1-.92-2.89s.53-1-1.57-1.7c-.79.26-1.71.26-2.5-3.15s-1.44-7.08-5.11-7.87c0,.13-3.41-.13-4.07-5.25-.26-1.05-.92-4.72-.92-4.72a23.6,23.6,0,0,0-2.36-5.51c-1.44-2.23-2.1-4.59-1.18-6.69s1.18-3,.13-5.77-1.31-3.67-1.31-3.67a3.63,3.63,0,0,1,0-2.5c.53-1.18-.52-2.75-1.31-3.28s-3.8-2.49-5.12-3.54-4.19-1.57-4.59-5.64a88.7,88.7,0,0,1-.26-9.05l.39-3.8-.52-3.81-.66-.26Z"/><path class="cls-1" d="M103.77,63.52s-15,5.38-20.08,7-8.23.49-8.23,2.84S75.07,78.9,76.64,82s.09,1.18-.79,3.92.79,3.92.79,3.92,5.19,1.47,1.56,3.52-3.23.89-4.4,4-.64,3.58-.64,3.58,4.65,12.09,6.61,13.66,3.53,2.06,3.53,6.37-.79,8.62,2.74,11.75,3.53,7.94,5.09,8.72,4.22,2.74,5.88.79,5.58-3.73,7.54-2.45,2.36,4,5.1,5.19,2.35,2.35,5.09,1.17a21.73,21.73,0,0,1,6-2c3.52-.78,2.74.4,6.66-.39s6.27-1.27,5.88-5.19,2.74-8.23-.4-11.36-3.52-7.06.4-6.27,9.5.78,13.42.78,3.92.79,7.83,1.57,6.27,2,7.06.39,2-3.43,3.13-5.88,2-2.84.39-4.8-2-3.13-3.52-4.7-4.31-1.17-3.53-4.7-1.18-5,0-7.45,3.13-4,3.13-5.58,3.92-9.4,3.92-9.4-3.92,2-5.09,3.92-.78,4.31-2.74,5.09-2.75.39-4.31-3.14-2.75-11.36-5.88-12.53-10.68-6.76-10.68-6.76a7.29,7.29,0,0,1-3.53-2.75c-1.17-2-3.52-6.66-4.7-8.23a20.71,20.71,0,0,0-4.31-3.52,31.2,31.2,0,0,0-5.58,3.13c-2,1.57-6.27,2.75-7.45,4.7a16.86,16.86,0,0,1-3.91,3.92l-1.57-.78"/><path class="cls-1" d="M121.86,276.85a7.91,7.91,0,0,1,.83,4,5.17,5.17,0,0,0,3.32,5.25c2.2,1.11,4.41,1.38,5.52.28s3.31-.28,5,.83.83,1.65,1.1,4.41.28,3,1.94,5.53.27,2.66,1.65,5.42.18,3,3.77,2.77,5.8-.56,9.39,0,2.49-1.11,6.63-.83,3.77.55,7.36,2.76,6.63,5.25,6.63,6.9-.83-.55-.83,3-1.93,1.2.28,5.25,3.86,7.63,4.14,10.12-.28,1.1-.83,3.86-.83,3-.55,5.53-3.32,6.53-.83,6.25,3.87-.45,5.8-4.6,3-5.52,4.69-6.62,3.77-2.49,3.77.27,0,5.25,1.94,6.08,4.41.45,5.8,2.39,5,3.86,7.18,3.59,2-2,5.24-3,5.43-1.46,6.53-1,7.74,1.66,12.43-.27a26.67,26.67,0,0,0,9-5.8c1.65-1.66,4.42-6.91,7.73-8s5.52.27,4.42-3.32-4.7-7.36-4.7-7.36l3.59-2.48.83-6.63s.55-3.87,2.21-5.25,1.66-5.42,1.66-7.08-.28-4.42-1.94-5a16.25,16.25,0,0,1-3.31-1.66l-2.48-1.65s-15.65-1.11-20.07-2.77-23.1-6.62-26.69-6.62-15.92-.83-18.13-1.94-6.63-2.11-8.56-2.66-3-1.38-5-1.38-2.66-.83-4.05-1.94-.82-.55-3.31-1.93a10.85,10.85,0,0,1-3.87-4.42s-2.76-.27-3.86-.55-1.93-.55-1.93-.55h-4.15"/><path class="cls-1" d="M103.77,63.52s-15,5.38-20.08,7-8.23.49-8.23,2.84S75.07,78.9,76.64,82s.09,1.18-.79,3.92.79,3.92.79,3.92,5.19,1.47,1.56,3.52-3.23.89-4.4,4-.64,3.58-.64,3.58,4.65,12.09,6.61,13.66,3.53,2.06,3.53,6.37-.79,8.62,2.74,11.75,3.53,7.94,5.09,8.72,4.22,2.74,5.88.79,5.58-3.73,7.54-2.45,2.36,4,5.1,5.19,2.35,2.35,5.09,1.17a21.73,21.73,0,0,1,6-2c3.52-.78,2.74.4,6.66-.39s6.27-1.27,5.88-5.19,2.74-8.23-.4-11.36-3.52-7.06.4-6.27,9.5.78,13.42.78,3.92.79,7.83,1.57,6.27,2,7.06.39,2-3.43,3.13-5.88,2-2.84.39-4.8-2-3.13-3.52-4.7-4.31-1.17-3.53-4.7-1.18-5,0-7.45,3.13-4,3.13-5.58,3.92-9.4,3.92-9.4-3.92,2-5.09,3.92-.78,4.31-2.74,5.09-2.75.39-4.31-3.14-2.75-11.36-5.88-12.53-10.68-6.76-10.68-6.76a7.29,7.29,0,0,1-3.53-2.75c-1.17-2-3.52-6.66-4.7-8.23a20.71,20.71,0,0,0-4.31-3.52,31.2,31.2,0,0,0-5.58,3.13c-2,1.57-6.27,2.75-7.45,4.7a16.86,16.86,0,0,1-3.91,3.92l-1.57-.78Z"/><path class="cls-1" d="M103.77,63.52s-15,5.38-20.08,7-8.23.49-8.23,2.84S75.07,78.9,76.64,82s.09,1.18-.79,3.92.79,3.92.79,3.92,5.19,1.47,1.56,3.52-3.23.89-4.4,4-.64,3.58-.64,3.58,4.65,12.09,6.61,13.66,3.53,2.06,3.53,6.37-.79,8.62,2.74,11.75,3.53,7.94,5.09,8.72,4.22,2.74,5.88.79,5.58-3.73,7.54-2.45,2.36,4,5.1,5.19,2.35,2.35,5.09,1.17a21.73,21.73,0,0,1,6-2c3.52-.78,2.74.4,6.66-.39s6.27-1.27,5.88-5.19,2.74-8.23-.4-11.36-3.52-7.06.4-6.27,9.5.78,13.42.78,3.92.79,7.83,1.57,6.27,2,7.06.39,2-3.43,3.13-5.88,2-2.84.39-4.8-2-3.13-3.52-4.7-4.31-1.17-3.53-4.7-1.18-5,0-7.45,3.13-4,3.13-5.58,3.92-9.4,3.92-9.4-3.92,2-5.09,3.92-.78,4.31-2.74,5.09-2.75.39-4.31-3.14-2.75-11.36-5.88-12.53-10.68-6.76-10.68-6.76a7.29,7.29,0,0,1-3.53-2.75c-1.17-2-3.52-6.66-4.7-8.23a20.71,20.71,0,0,0-4.31-3.52,31.2,31.2,0,0,0-5.58,3.13c-2,1.57-6.27,2.75-7.45,4.7a16.86,16.86,0,0,1-3.91,3.92l-1.57-.78Z"/><path class="cls-1" d="M121.86,276.85a7.91,7.91,0,0,1,.83,4,5.17,5.17,0,0,0,3.32,5.25c2.2,1.11,4.41,1.38,5.52.28s3.31-.28,5,.83.83,1.65,1.1,4.41.28,3,1.94,5.53.27,2.66,1.65,5.42.18,3,3.77,2.77,5.8-.56,9.39,0,2.49-1.11,6.63-.83,3.77.55,7.36,2.76,6.63,5.25,6.63,6.9-.83-.55-.83,3-1.93,1.2.28,5.25,3.86,7.63,4.14,10.12-.28,1.1-.83,3.86-.83,3-.55,5.53-3.32,6.53-.83,6.25,3.87-.45,5.8-4.6,3-5.52,4.69-6.62,3.77-2.49,3.77.27,0,5.25,1.94,6.08,4.41.45,5.8,2.39,5,3.86,7.18,3.59,2-2,5.24-3,5.43-1.46,6.53-1,7.74,1.66,12.43-.27a26.67,26.67,0,0,0,9-5.8c1.65-1.66,4.42-6.91,7.73-8s5.52.27,4.42-3.32-4.7-7.36-4.7-7.36l3.59-2.48.83-6.63s.55-3.87,2.21-5.25,1.66-5.42,1.66-7.08-.28-4.42-1.94-5a16.25,16.25,0,0,1-3.31-1.66l-2.48-1.65s-15.65-1.11-20.07-2.77-23.1-6.62-26.69-6.62-15.92-.83-18.13-1.94-6.63-2.11-8.56-2.66-3-1.38-5-1.38-2.66-.83-4.05-1.94-.82-.55-3.31-1.93a10.85,10.85,0,0,1-3.87-4.42s-2.76-.27-3.86-.55-1.93-.55-1.93-.55l-3.28.29a9,9,0,0,1-3.21-.34c-.8-.46-2-1-2-1L137,263.4l-1.37-.57s-1.72-1.15-2.52-.69-1.26.57-1.37,2.17-.46,2.75-1.83,3.21a15.14,15.14,0,0,0-3.89,2.06,4.06,4.06,0,0,0-1,1.37s-.58.12-.81,1.15a15.5,15.5,0,0,1-.68,2.17,7.41,7.41,0,0,0-1,1.26C122.24,276,121.86,276.85,121.86,276.85Z"/><path class="cls-1" d="M121.86,276.85a7.91,7.91,0,0,1,.83,4,5.17,5.17,0,0,0,3.32,5.25c2.2,1.11,4.41,1.38,5.52.28s3.31-.28,5,.83.83,1.65,1.1,4.41.28,3,1.94,5.53.27,2.66,1.65,5.42.18,3,3.77,2.77,5.8-.56,9.39,0,2.49-1.11,6.63-.83,3.77.55,7.36,2.76,6.63,5.25,6.63,6.9-.83-.55-.83,3-1.93,1.2.28,5.25,3.86,7.63,4.14,10.12-.28,1.1-.83,3.86-.83,3-.55,5.53-3.32,6.53-.83,6.25,3.87-.45,5.8-4.6,3-5.52,4.69-6.62,3.77-2.49,3.77.27,0,5.25,1.94,6.08,4.41.45,5.8,2.39,5,3.86,7.18,3.59,2-2,5.24-3,5.43-1.46,6.53-1,7.74,1.66,12.43-.27a26.67,26.67,0,0,0,9-5.8c1.65-1.66,4.42-6.91,7.73-8s5.52.27,4.42-3.32-4.7-7.36-4.7-7.36l3.59-2.48.83-6.63s.55-3.87,2.21-5.25,1.66-5.42,1.66-7.08-.28-4.42-1.94-5a16.25,16.25,0,0,1-3.31-1.66l-2.48-1.65s-15.65-1.11-20.07-2.77-23.1-6.62-26.69-6.62-15.92-.83-18.13-1.94-6.63-2.11-8.56-2.66-3-1.38-5-1.38-2.66-.83-4.05-1.94-.82-.55-3.31-1.93a10.85,10.85,0,0,1-3.87-4.42s-2.76-.27-3.86-.55-1.93-.55-1.93-.55l-3.28.29a9,9,0,0,1-3.21-.34c-.8-.46-2-1-2-1L137,263.4l-1.37-.57s-1.72-1.15-2.52-.69-1.26.57-1.37,2.17-.46,2.75-1.83,3.21a15.14,15.14,0,0,0-3.89,2.06,4.06,4.06,0,0,0-1,1.37s-.58.12-.81,1.15a15.5,15.5,0,0,1-.68,2.17,7.41,7.41,0,0,0-1,1.26C122.24,276,121.86,276.85,121.86,276.85Z"/><path class="cls-3" d="M222.94,13.86a16.74,16.74,0,0,1,.77,2Zm-52.66-1.48s3.92-1.17,3.92,1.18.4,7,3.92,6.27,4.7-2.75,4.7-2.75a4.25,4.25,0,0,1,4.31.4c2,1.56,4,3.91,5.59,1.95s1.17-2.35,3.92-1.95,3.52-.4,5.09-2.75,1.57-3.52,4.7-2.74,5.19.78,6.76-.39,1.57,0,3.14.78,5.87,0,5.87,0-.78-2.74,2.75-2.74,4.21,0,7.05-.79,1.27-.78,4.41-2.35,2.74.89,4.7-1.56,2.74-4.8,6.27-3.63,7.35,2.06,9.79,3.23,8.72,2.75,10.68,3.53S276.47,12,276.47,12l6.76,3.13s1.57,2.75,4.31,2.36,3.53-.4,4.7,1.56A7.61,7.61,0,0,0,295,21.79a11.6,11.6,0,0,0-3.53,4.4,8.82,8.82,0,0,1-3.13,3.92A52.65,52.65,0,0,0,284,37.56c-1.57,3.52,1.27,5.09-2.75,6.66S273.73,45.39,273,47s-1.57,1.27-.79,3.63,1.57,3.13,4.31,7.44,4.41,7.45,4.41,7.45l-2.06,4.31s-5.09,5.58-7.44,8.32-3.53,5.49-5.88,8.62a30.92,30.92,0,0,1-5.09,5.88c-3.63,3.62-6,6.37-6.76,9.89s-2,13.42-3.92,15-2,1.08-7.45-.1-7.54-2.35-9.89-2.35-2-1.56-5.88-1.17-6.66-2-7-3.92,0-2-2.74-5.1-5.1-3.42-2.75-7.83,5.1-7.54,1.57-7.94a22.33,22.33,0,0,0-8.72.4c-4.31.78-5.87,3.52-7.83.39s-2-4.7-4.31-4.7h-5.49s-.88.78-4.41.78-3.52,1.17-5.87,1.57-5.88,1.17-7.84-.4-5.88-1.17-4.31-7.05c.78.78,1.57-3.53,1.57-3.53l14.49-28s5.1-6.66-.39-6.27c.39.39-6.27.78-6.27.78l-5.09-3.52L169.5,36Z"/><path class="cls-3" d="M222.94,13.86a16.74,16.74,0,0,1,.77,2Zm-52.66-1.48s3.92-1.17,3.92,1.18.4,7,3.92,6.27,4.7-2.75,4.7-2.75a4.25,4.25,0,0,1,4.31.4c2,1.56,4,3.91,5.59,1.95s1.17-2.35,3.92-1.95,3.52-.4,5.09-2.75,1.57-3.52,4.7-2.74,5.19.78,6.76-.39,1.57,0,3.14.78,5.87,0,5.87,0-.78-2.74,2.75-2.74,4.21,0,7.05-.79,1.27-.78,4.41-2.35,2.74.89,4.7-1.56,2.74-4.8,6.27-3.63,7.35,2.06,9.79,3.23,8.72,2.75,10.68,3.53S276.47,12,276.47,12l6.76,3.13s1.57,2.75,4.31,2.36,3.53-.4,4.7,1.56A7.61,7.61,0,0,0,295,21.79a11.6,11.6,0,0,0-3.53,4.4,8.82,8.82,0,0,1-3.13,3.92A52.65,52.65,0,0,0,284,37.56c-1.57,3.52,1.27,5.09-2.75,6.66S273.73,45.39,273,47s-1.57,1.27-.79,3.63,1.57,3.13,4.31,7.44,4.41,7.45,4.41,7.45l-2.06,4.31s-5.09,5.58-7.44,8.32-3.53,5.49-5.88,8.62a30.92,30.92,0,0,1-5.09,5.88c-3.63,3.62-6,6.37-6.76,9.89s-2,13.42-3.92,15-2,1.08-7.45-.1-7.54-2.35-9.89-2.35-2-1.56-5.88-1.17-6.66-2-7-3.92,0-2-2.74-5.1-5.1-3.42-2.75-7.83,5.1-7.54,1.57-7.94a22.33,22.33,0,0,0-8.72.4c-4.31.78-5.87,3.52-7.83.39s-2-4.7-4.31-4.7h-5.49s-.88.78-4.41.78-3.52,1.17-5.87,1.57-5.88,1.17-7.84-.4-5.88-1.17-4.31-7.05c.78.78,1.57-3.53,1.57-3.53l14.49-28s5.1-6.66-.39-6.27c.39.39-6.27.78-6.27.78l-5.09-3.52L169.5,36Z"/></svg>