<svg id="Layer_1" data-name="Layer 1" xmlns="http://www.w3.org/2000/svg" viewBox="0 0 512 512"><defs><style>.cls-1{fill:#e6e7e8;}.cls-1,.cls-2{stroke:#fff;stroke-linejoin:round;fill-rule:evenodd;}.cls-2{fill:#a7a9ac;}</style></defs><path class="cls-1" d="M218,193.9a9.81,9.81,0,0,1-2.08.58c-.58,0-1.53-1-2.13-1.56s-.75-1.89-.84-3.06-1.34-2.11-2.25-2.52-1.8.6-2.47,1-.1.47-.66,1.3-5.76,4.76-7,5.72a1.16,1.16,0,0,1-1.88-.23,12.15,12.15,0,0,0-2.43-2.17c-1.15-.67-1.46-.29-2.23,0a7.07,7.07,0,0,0-1.94,1.33c-.7.57-5.84.56-5.84.56l-.46,1.85a18,18,0,0,1-1,3.06c-.38.77-3.86,2-4.53,2.21s-1.53.38-2.1,3.86-3.45,3.54-3.45,3.54l-.62,3v2.83l-2.31-.77-4.29-2.06,7.38,21.46s-4.38,4.9-5.41,5.67-4.29,2.06-3.78,3.61,3.26,10,3.78,11a5,5,0,0,1-.52,4.8c-1.2,1.81-4.55,4.9-3.52,6.7s3.78,5.25,4.29,6.7,1.81,5.32.78,6.61-3.26,5.51-4.55,7-3.61,5.32-3.61,6.87.26,2.57-1,4.38S159,299.9,159,300.93s-1,1.29-1.29,2.84-.51,2.06.26,3.09.26,1-.26,2.32-.25,1,.26,2.32-.26,3,.77,3.51,2.84.26,3.1,2.84,1,3.86,2.06,3.86a3,3,0,0,1,2.83,1.29c.52,1,.94,4.9,4.55,3.87,0,0,2.83.77,3.35-.52s0-3.09-.52-4.38a7.13,7.13,0,0,1-.51-3.09c0-1-.77-1.9.51-4.13s2.32-4.8,4.13-6.86,4.8-6.87,6.35-9.19,3.86-5.15,4.64-6.44,1.54-3.09,1-4.12-1.29-5.32-1.55-8.16-.77-4.73-1-6.7-.51-3,1.29-4.29.51-2.32,1-5.15-.77-5.06,1-5.84,3.44-3.09,4.38-4.12,2.23-3.86,2.74-3.09,1.55,2.32,1.55,1-.26-2.32.77-3.09a26,26,0,0,0,4.38-3.78c1.29-1.54,3.52-2.32,5.32-4.12s3.1-2.83,4.13-2.83,1.8-.26,1.8-1.81a4.61,4.61,0,0,1,1.55-4.12c1.54-1.46,1-2.23,3.09-2s2.23,1.8,4.55,0A8.81,8.81,0,0,0,228.1,227l-.26-1s1.55-5.41,1.81-6.7,0-1.46.25-2.23.78-1.29,0-2.06a8,8,0,0,1-1.28-1.81l-1.81-4.63L225,207l-10.22-.26,6.19-5.83s-.78-1.55-1.81-1.81c0,0-1.2-5.27-1.2-5.2a4.32,4.32,0,0,0,.43.82"/><path class="cls-1" d="M54.64,93.63a24.1,24.1,0,0,0,4.66-3.27C61,88.69,62.63,87.58,64,86.19s2-4.72,4.72-4.17,6.6,1.12,7.44,3.34-.84,1.11.27,3.06,1.12,1.45,1.39,3,1.67,2.43,3.34,3.82,1.46,2.23,3.33,2.23,1.88,1.66,3.54.83,2.51-3.34,4.73-1.67,4.1,3.06,6,4.45,6.39,4.23,8.34,5.28,9.38,3,12.43,4.65,4.94,3.61,8,2.5a45.21,45.21,0,0,1,5.56-1.94c2.22-.56,3.33-1.67,4.44-.28s2.71,1.11,3.27,2.22.28,3.06,2.5,2.78,3.61-1.39,6.39,0,5,2.29,3.89,3.61-2.22,1-1.67,2.16-1,3,1.39,3.89a33.62,33.62,0,0,1,4.38,1.94c2.5,1.11,2.5-1.11,3.89.56s.28,2.78,3.06,2.5,1.59.28,3.82,1.39,1.94,1.66,3.89,1.66a2.58,2.58,0,0,1,2.5,1.32l-1.67,1.12-6.32-.56-3.34,1.39a7.73,7.73,0,0,1-2.77,1.39,18.84,18.84,0,0,0-5,1.94c-1.38.84-2.15,1.12-5.21.56s-3.33-3.06-5.83-1.67a34.09,34.09,0,0,0-3.61,2.23,13.52,13.52,0,0,1-4.38,3.33c-2.22.83-3.06,1.18-4.17,2.22s-1.66,2.71-3.05,3.27a5.23,5.23,0,0,0-2.23,1.94l-4.1,3.89a4.29,4.29,0,0,0-2.77-1.39c-2-.27-3.62,1.11-4.45-1.94s-.83-3.89-2.22-4.17-2.16.35-4.1-1-2-3.34-4.45-3.89-4.72,1.67-5.28-.84,3-3.33-1.11-4.44-6.32-3.54-6.88-4.66-1.11-3.61-1.94-5-3.06-3.61-3.61-5,.49-2.71-.56-5.49-4.37-5.28-4.37-5.28a60.51,60.51,0,0,0-8.62-3.89c-3-.83-7.15-5.48-7.15-5.48S61,98.35,59.85,97.79A55.39,55.39,0,0,1,54.64,93.63Z"/><path class="cls-1" d="M54.64,93.63a24.1,24.1,0,0,0,4.66-3.27C61,88.69,62.63,87.58,64,86.19s2-4.72,4.72-4.17,6.6,1.12,7.44,3.34-.84,1.11.27,3.06,1.12,1.45,1.39,3,1.67,2.43,3.34,3.82,1.46,2.23,3.33,2.23,1.88,1.66,3.54.83,2.51-3.34,4.73-1.67,4.1,3.06,6,4.45,6.39,4.23,8.34,5.28,9.38,3,12.43,4.65,4.94,3.61,8,2.5a45.21,45.21,0,0,1,5.56-1.94c2.22-.56,3.33-1.67,4.44-.28s2.71,1.11,3.27,2.22.28,3.06,2.5,2.78,3.61-1.39,6.39,0,5,2.29,3.89,3.61-2.22,1-1.67,2.16-1,3,1.39,3.89a33.62,33.62,0,0,1,4.38,1.94c2.5,1.11,2.5-1.11,3.89.56s.28,2.78,3.06,2.5,1.59.28,3.82,1.39,1.94,1.66,3.89,1.66a2.58,2.58,0,0,1,2.5,1.32l-1.67,1.12-6.32-.56-3.34,1.39a7.73,7.73,0,0,1-2.77,1.39,18.84,18.84,0,0,0-5,1.94c-1.38.84-2.15,1.12-5.21.56s-3.33-3.06-5.83-1.67a34.09,34.09,0,0,0-3.61,2.23,13.52,13.52,0,0,1-4.38,3.33c-2.22.83-3.06,1.18-4.17,2.22s-1.66,2.71-3.05,3.27a5.23,5.23,0,0,0-2.23,1.94l-4.1,3.89a4.29,4.29,0,0,0-2.77-1.39c-2-.27-3.62,1.11-4.45-1.94s-.83-3.89-2.22-4.17-2.16.35-4.1-1-2-3.34-4.45-3.89-4.72,1.67-5.28-.84,3-3.33-1.11-4.44-6.32-3.54-6.88-4.66-1.11-3.61-1.94-5-3.06-3.61-3.61-5,.49-2.71-.56-5.49-4.37-5.28-4.37-5.28a60.51,60.51,0,0,0-8.62-3.89c-3-.83-7.15-5.48-7.15-5.48S61,98.35,59.85,97.79A55.39,55.39,0,0,1,54.64,93.63Z"/><path class="cls-1" d="M141.68,141.77a24.12,24.12,0,0,1,3.34,5.55c.83,2.43.83,5.21,1.11,6.6s.28,3.06,2.22,4.45.84,3.89,2.5,1.39,3.55-3.62,4.93-3.34a18.35,18.35,0,0,0,5,.84c2.5,0,6,0,8.82-.28s6.39-.56,6.39-.56l1.11-1.39,1.95.84a16.94,16.94,0,0,1,4.09.83c1.12.56,2.51,1.67,4.45,2.5a9.23,9.23,0,0,0,4.17.56s3.26-6.12,3.82-7.23,4.44-6.32,4.72-7.43.56-3.06,1.67-3.33,3.06-.56,3.06-.56l.83-2.5,4.65-6.6-1.87-.83v-2.23s-3.34-1.66-4.45-.83a34.43,34.43,0,0,0-2.78,2.5L200,132.39l-.55,1.94-5.21.77c-2,.27-2.22,1.11-3.89.55s-2.22-.21-3.61-1.32a7.25,7.25,0,0,0-2.78-1.39s-.77,1.39-3.27,1.39a31.77,31.77,0,0,0-5.83.77l-1.11,1.39-6.6-.56-5.28,2.5-6.12,2.5h-5.21s-1.38-.55-2.5-1.11a6.41,6.41,0,0,0-3-.28Z"/><path class="cls-1" d="M141.68,141.77a24.12,24.12,0,0,1,3.34,5.55c.83,2.43.83,5.21,1.11,6.6s.28,3.06,2.22,4.45.84,3.89,2.5,1.39,3.55-3.62,4.93-3.34a18.35,18.35,0,0,0,5,.84c2.5,0,6,0,8.82-.28s6.39-.56,6.39-.56l1.11-1.39,1.95.84a16.94,16.94,0,0,1,4.09.83c1.12.56,2.51,1.67,4.45,2.5a9.23,9.23,0,0,0,4.17.56s3.26-6.12,3.82-7.23,4.44-6.32,4.72-7.43.56-3.06,1.67-3.33,3.06-.56,3.06-.56l.83-2.5,4.65-6.6-1.87-.83v-2.23s-3.34-1.66-4.45-.83a34.43,34.43,0,0,0-2.78,2.5L200,132.39l-.55,1.94-5.21.77c-2,.27-2.22,1.11-3.89.55s-2.22-.21-3.61-1.32a7.25,7.25,0,0,0-2.78-1.39s-.77,1.39-3.27,1.39a31.77,31.77,0,0,0-5.83.77l-1.11,1.39-6.6-.56-5.28,2.5-6.12,2.5h-5.21s-1.38-.55-2.5-1.11a6.41,6.41,0,0,0-3-.28Z"/><path class="cls-1" d="M122.93,157s2.57.28,3,1.94-1.11,6.05-1.11,6.05a5.83,5.83,0,0,0-2.78,2.78c-.83,1.94.28,5.28.28,5.28a6.59,6.59,0,0,0-1.39,3.26c-.55,2.5.28,3.33-.83,5s-2.78,2.78-3.06,4.73-1.39,1.32-2.5,4.09a14.1,14.1,0,0,0-1.11,4.73s1.39,2.22.56,4.17-.56,2-.56,3.61a3.88,3.88,0,0,1-.83,3c-.77,1.11-2.09,3.61-1.05,3.61s.49-1.11,1.88-1.67,1.11-.28,2.22,0,.84.28,2-.56,1.94-1.38,2.5,0,1.11,2.51,1.11,2.51,1.11.27,1.67-1.67,2.43-3,3.82-4.66,2.5-4.72,3.89-5,2.57.56,6.67,1.11,7.71.28,9.93.84,5.21,2.22,6.6,1.11a24.63,24.63,0,0,0,3.89-3.61c.83-1.12,3.61-2,5-2s2.22,1.67,2.78,3.34.49,6.32,2.15,7.15,3.62,3.06,5.28,3.34,4.73-.63,5.28-3.34.28-3.54,1.67-4.1,4.38-1.11,5.21-2.78a15.9,15.9,0,0,0,1.11-4.44l5.84-.56s2.15-2.5,3.82-1.66a8.36,8.36,0,0,1,2.78,2.5s.55,1.38,2.22,0,3-2.5,3-2.5a46.29,46.29,0,0,0,3.62-3c1.11-1.11-.35-1.11,1.87-1.95a8.61,8.61,0,0,0,2.78-1.39,4,4,0,0,1,1.67-2.5,19,19,0,0,1,5.28-2.22c2.22-.56,3.54-2.22,4.93-2.78s5.83-2.5,5.83-2.5,3.62-3,5-5.49,2.71-5.62,3.54-7.22,0-6.6.28-8,.55-7,.55-7-1.39-1.32-.83-2.71,2.43-1.66-.28-3.61-1.32-3.61-3.82-3.06-1.94,1.39-3.33,2-3.06-1.11-4.73-1.39-.34,1.11-3-.28a15.7,15.7,0,0,1-6.05-5.76c-1.11-1.95-.55-2.78-2.5-3.06s-1.11.83-2.22-.56-2.71-2.22-3.82-1.94-2,.56-2,.56l2,2.22,2.15,1.39-3.26,4.1-2.23,2.22-.27,2.78L202,142a12.19,12.19,0,0,0-1.39,2.78c-.28,1.11-3.61,5.77-3.61,5.77l-4.38,6.94-.55,2.5-5-.83-5.76-3.33H178.5l-1.11-.84L176,156.7s-9.1.28-11.88.28h-5.56a20.6,20.6,0,0,1-4.72-.84A24.81,24.81,0,0,1,150,160.8c.28-.49-2.5-3.82-2.5-3.82s-1.67-3.06-1.67-5.28a11.74,11.74,0,0,0-1.39-5.77c-.83-1.39-1.11-1.11-1.67-2.5s-1.11-1.66-1.11-1.66a8,8,0,0,1-2.71,2.5,25.4,25.4,0,0,0-4.16,1.66c-1.39.84-2.78,1.32-3.62,2.71s-3.89,3.62-3.89,3.62l-1.59,1.66Z"/><path class="cls-1" d="M122.93,157s2.57.28,3,1.94-1.11,6.05-1.11,6.05a5.83,5.83,0,0,0-2.78,2.78c-.83,1.94.28,5.28.28,5.28a6.59,6.59,0,0,0-1.39,3.26c-.55,2.5.28,3.33-.83,5s-2.78,2.78-3.06,4.73-1.39,1.32-2.5,4.09a14.1,14.1,0,0,0-1.11,4.73s1.39,2.22.56,4.17-.56,2-.56,3.61a3.88,3.88,0,0,1-.83,3c-.77,1.11-2.09,3.61-1.05,3.61s.49-1.11,1.88-1.67,1.11-.28,2.22,0,.84.28,2-.56,1.94-1.38,2.5,0,1.11,2.51,1.11,2.51,1.11.27,1.67-1.67,2.43-3,3.82-4.66,2.5-4.72,3.89-5,2.57.56,6.67,1.11,7.71.28,9.93.84,5.21,2.22,6.6,1.11a24.63,24.63,0,0,0,3.89-3.61c.83-1.12,3.61-2,5-2s2.22,1.67,2.78,3.34.49,6.32,2.15,7.15,3.62,3.06,5.28,3.34,4.73-.63,5.28-3.34.28-3.54,1.67-4.1,4.38-1.11,5.21-2.78a15.9,15.9,0,0,0,1.11-4.44l5.84-.56s2.15-2.5,3.82-1.66a8.36,8.36,0,0,1,2.78,2.5s.55,1.38,2.22,0,3-2.5,3-2.5a46.29,46.29,0,0,0,3.62-3c1.11-1.11-.35-1.11,1.87-1.95a8.61,8.61,0,0,0,2.78-1.39,4,4,0,0,1,1.67-2.5,19,19,0,0,1,5.28-2.22c2.22-.56,3.54-2.22,4.93-2.78s5.83-2.5,5.83-2.5,3.62-3,5-5.49,2.71-5.62,3.54-7.22,0-6.6.28-8,.55-7,.55-7-1.39-1.32-.83-2.71,2.43-1.66-.28-3.61-1.32-3.61-3.82-3.06-1.94,1.39-3.33,2-3.06-1.11-4.73-1.39-.34,1.11-3-.28a15.7,15.7,0,0,1-6.05-5.76c-1.11-1.95-.55-2.78-2.5-3.06s-1.11.83-2.22-.56-2.71-2.22-3.82-1.94-2,.56-2,.56l2,2.22,2.15,1.39-3.26,4.1-2.23,2.22-.27,2.78L202,142a12.19,12.19,0,0,0-1.39,2.78c-.28,1.11-3.61,5.77-3.61,5.77l-4.38,6.94-.55,2.5-5-.83-5.76-3.33H178.5l-1.11-.84L176,156.7s-9.1.28-11.88.28h-5.56a20.6,20.6,0,0,1-4.72-.84A24.81,24.81,0,0,1,150,160.8c.28-.49-2.5-3.82-2.5-3.82s-1.67-3.06-1.67-5.28a11.74,11.74,0,0,0-1.39-5.77c-.83-1.39-1.11-1.11-1.67-2.5s-1.11-1.66-1.11-1.66a8,8,0,0,1-2.71,2.5,25.4,25.4,0,0,0-4.16,1.66c-1.39.84-2.78,1.32-3.62,2.71s-3.89,3.62-3.89,3.62l-1.59,1.66Z"/><path class="cls-1" d="M239.28,148.64s2.78-2.08,4.17-.48,2.29,3.54,5.28,3.82a68.48,68.48,0,0,0,6.88.28c1.66,0,2.5-.28,4.44.27s4.38.84,6.33,1.39,1.38-.83,3.05,1.11,2.78,1.39,1.95,3.89a5.51,5.51,0,0,0,0,4.1s-.56,1.67.55,1.95,1.39-.28,3.06.55,3.82,1.11,4.1,2.5-1.11,2.5-.56,4.73.84,2.15.28,3.82-.56,2.5,0,3.61-.56,1.39-.28,3.61.21,1.39-.28,3.06a37.69,37.69,0,0,1-1.59,4.1l-2.51.55a3.21,3.21,0,0,0-2.5,2.23c-.55,1.94-.83,3.61-2.5,2.5a61.55,61.55,0,0,1-4.93-3.89c-1.67-1.39-2.22-1.05-3.06-3.82s-.27-2.78-2.22-6.67-1.67-6-5.83-5.28-4.38,3.05-4.38,3.05-3.06,2.51-3.06,5,1.12,4.72-1.11,5-3.61-1.95-5.28-2.5-4.37-.28-5.21-1.95a31.86,31.86,0,0,0-2.22-3.61l-4.17-1.67-2.5-1.39s5.28-2.71,6.67-4.1a40.22,40.22,0,0,0,3.06-3.61l4.1-9.1-.28-7.78Z"/><path class="cls-1" d="M239.28,148.64s2.78-2.08,4.17-.48,2.29,3.54,5.28,3.82a68.48,68.48,0,0,0,6.88.28c1.66,0,2.5-.28,4.44.27s4.38.84,6.33,1.39,1.38-.83,3.05,1.11,2.78,1.39,1.95,3.89a5.51,5.51,0,0,0,0,4.1s-.56,1.67.55,1.95,1.39-.28,3.06.55,3.82,1.11,4.1,2.5-1.11,2.5-.56,4.73.84,2.15.28,3.82-.56,2.5,0,3.61-.56,1.39-.28,3.61.21,1.39-.28,3.06a37.69,37.69,0,0,1-1.59,4.1l-2.51.55a3.21,3.21,0,0,0-2.5,2.23c-.55,1.94-.83,3.61-2.5,2.5a61.55,61.55,0,0,1-4.93-3.89c-1.67-1.39-2.22-1.05-3.06-3.82s-.27-2.78-2.22-6.67-1.67-6-5.83-5.28-4.38,3.05-4.38,3.05-3.06,2.51-3.06,5,1.12,4.72-1.11,5-3.61-1.95-5.28-2.5-4.37-.28-5.21-1.95a31.86,31.86,0,0,0-2.22-3.61l-4.17-1.67-2.5-1.39s5.28-2.71,6.67-4.1a40.22,40.22,0,0,0,3.06-3.61l4.1-9.1-.28-7.78Z"/><path class="cls-1" d="M276.66,191l.83,2.78-.56,2.22,1.88,1.67,3.89-.84,4.45.28,2.5,2.78s4.1,1.67,5.48,2.5,5,3.54,5,3.54l2.5,3.06,1.11,4.45,2.43,1.11a11.12,11.12,0,0,1,1.67,2.77,8.56,8.56,0,0,0,1.39,2.44l2.22,3L312,225l2.5,3,.28,3.34-1.94,1.6V236l3.33,1.67,3.34-.28,1.59,2L319,240.48l-.28,1.39-1.11,3-2.78-.83-3.33,1.11-4.17,2.15,1.11,3.34v4.17l-.28,3.61.28,3.82-1.66,2.22-.56,2.5s2.43,3.34.28,4.17-3.82,1.11-5.21.56-2.5-1.67-3.62-1.39-2.22,0-2.22,1.11a16.58,16.58,0,0,1-.83,3.54l-1.11,3.61L291.31,282l-.83,1.11,2.71,3.06a8.85,8.85,0,0,0-3,1,34.3,34.3,0,0,0-4.17,3.61s-1.39,3.06-2.77,3.34a4.15,4.15,0,0,1-2.18-.05,2.23,2.23,0,0,0-.26-2.57c-1-1.55-1.8-2.32-1.8-3.09s.25-2,.25-3.78a7.68,7.68,0,0,0-.94-3.86c-.51-1,.52-1.29-.51-2.58s-1.29-1.55-2.06-2.58-1.29-1.12-1.29-2.57v-3.52l.51-2.84a1.89,1.89,0,0,0,1.29-2.06c-.26-1.54.61-3.09,2.06-2.06s2,3.09,3.26,2.58,1-1.55,2.06-3.35,2.07-2.49,2.58-5.06-1-2.32.26-4.38.77-1.81,2.83-1.81,2.91,1.29,2.75-.77,1.12-3.44-.17-4.38l-3.09-2.23s1.8.26-1.55-.77-3.86.77-3.86-2.06.51-3.35,0-4.64a20.65,20.65,0,0,1-.78-4.81c-.25-2.06-.77-4.12-.25-5.67s1.54-3.86,1.28-5.15-.51-3-2.57-4-2.49-.52-3.78-2.84-2.57-3.35-2.83-5.15.51-2.15-.26-4.12-2.06-4.29-2.32-5.07a16.67,16.67,0,0,0-1.54-2.57,14.25,14.25,0,0,0,1.3-2.54c.5-1.33,2.5-2.23,2.5-2.23Z"/><path class="cls-1" d="M276.66,191l.83,2.78-.56,2.22,1.88,1.67,3.89-.84,4.45.28,2.5,2.78s4.1,1.67,5.48,2.5,5,3.54,5,3.54l2.5,3.06,1.11,4.45,2.43,1.11a11.12,11.12,0,0,1,1.67,2.77,8.56,8.56,0,0,0,1.39,2.44l2.22,3L312,225l2.5,3,.28,3.34-1.94,1.6V236l3.33,1.67,3.34-.28,1.59,2L319,240.48l-.28,1.39-1.11,3-2.78-.83-3.33,1.11-4.17,2.15,1.11,3.34v4.17l-.28,3.61.28,3.82-1.66,2.22-.56,2.5s2.43,3.34.28,4.17-3.82,1.11-5.21.56-2.5-1.67-3.62-1.39-2.22,0-2.22,1.11a16.58,16.58,0,0,1-.83,3.54l-1.11,3.61L291.31,282l-.83,1.11,2.71,3.06a8.85,8.85,0,0,0-3,1,34.3,34.3,0,0,0-4.17,3.61s-1.39,3.06-2.77,3.34a4.15,4.15,0,0,1-2.18-.05,2.23,2.23,0,0,0-.26-2.57c-1-1.55-1.8-2.32-1.8-3.09s.25-2,.25-3.78a7.68,7.68,0,0,0-.94-3.86c-.51-1,.52-1.29-.51-2.58s-1.29-1.55-2.06-2.58-1.29-1.12-1.29-2.57v-3.52l.51-2.84a1.89,1.89,0,0,0,1.29-2.06c-.26-1.54.61-3.09,2.06-2.06s2,3.09,3.26,2.58,1-1.55,2.06-3.35,2.07-2.49,2.58-5.06-1-2.32.26-4.38.77-1.81,2.83-1.81,2.91,1.29,2.75-.77,1.12-3.44-.17-4.38l-3.09-2.23s1.8.26-1.55-.77-3.86.77-3.86-2.06.51-3.35,0-4.64a20.65,20.65,0,0,1-.78-4.81c-.25-2.06-.77-4.12-.25-5.67s1.54-3.86,1.28-5.15-.51-3-2.57-4-2.49-.52-3.78-2.84-2.57-3.35-2.83-5.15.51-2.15-.26-4.12-2.06-4.29-2.32-5.07a16.67,16.67,0,0,0-1.54-2.57,14.25,14.25,0,0,0,1.3-2.54c.5-1.33,2.5-2.23,2.5-2.23Z"/><path class="cls-1" d="M210.67,187.34s2.06.86,2.32,2.06,0,2.74.77,3.52,1.55,2.06,2.58,1.54,1.8-1,2.06.26.77,4.38.77,4.38,2.07,1,1.81,1.81-6.19,5.83-6.19,5.83L225,207s2.58,2.32,2.83,3.86.26,2.32,1,3.1,1.29.77,1.29,2.06a19.55,19.55,0,0,1-.51,4.55c-.52,2.83-2.06,3.86-1.81,5.41s0,1,1.55,2.32a16.38,16.38,0,0,0,3.61,2.57c.77.26,3.77,1.72,4.8,3a22.68,22.68,0,0,1,2.06,3.61c1,1.8,1.81,3.09,1.81,4.64a48.27,48.27,0,0,1,0,6.09c-.26,2.84-.52,3.61-.78,5.67s-.77,3.19.52,4.9a13.57,13.57,0,0,1,2.83,5.58c.26,1.8,1,1.8.78,3.86s.51.61.25,2.84-.77,2.48-1.8,4.28-.51,1.81-1,3.1-1.29,1.8-.77,3.35,1.8,2.83,1,3.6-1.81.94-1.81,2.23a15.55,15.55,0,0,1-.25,2.58s1-.26,4.38-1.29,3.7-1.38,5.15-1.8,3.52-1.2,4.29-1.46a12.44,12.44,0,0,1,3.87-1,7,7,0,0,0,3.6-1.29c1-.51,2,.52,2.75-.77s.77-1.8,1.8-2.06.77.51,2.06-.52.77-1.54,2.06-2.06,2.32-1,2.32-1l.26-2.83,1.29-1v-4.55a6.54,6.54,0,0,1,1.8-3.09l-.26-2.32s1.13-1.55,2.32-.52,2.49,2.32,2.49,2.32l1.55-.77,3.09-4.9a6.83,6.83,0,0,0,.77-3.51c-.26-1.55-.77-3.87,1.29-4.9a3.93,3.93,0,0,1,3.86.26,8.66,8.66,0,0,0,.94-3.09c0-1.29,1.13-1.64-.42-2.58s-2.58-1.46-3.09-2.23-.26-.77-1.55-.77-3.61-.26-3.61-.26a16,16,0,0,1-.25-4.12,7.2,7.2,0,0,0-.26-3.35c-.26-1-.52-6.35-.52-6.35s-.77-2.58.26-4.38a7,7,0,0,0,.52-4.9c-.26-.77-.78-2.74-2.32-3s-1.64-.26-2.32-1-3.52-5.16-3.52-5.16-1.54-1.28-1-2.57,0-2.41,0-3.35-2.32-5.07-2.32-5.07l-1.54-2.57-2.07-1s-2.15-1.55-3.09-2.32-3-2.06-3-2.06L260.13,184s-2.32-5.15-3.35-6.18a6.86,6.86,0,0,0-1.55-1.29s-3.26-.52-5.06,1a38.13,38.13,0,0,0-4.38,5.15s.77,5.67,0,6.19a4,4,0,0,1-4.12-.26c-1.81-1-2.41-2.06-3.87-2.06s-3.17-.2-3.73-1.39-1-3.45-2.22-3.61a22.68,22.68,0,0,1-4.17-1.67l-2.5-1.39s-4.27,2.19-6,3.06-5.28,2.22-5.28,2.22-2,.94-1.67,2.5Z"/><path class="cls-1" d="M210.67,187.34s2.06.86,2.32,2.06,0,2.74.77,3.52,1.55,2.06,2.58,1.54,1.8-1,2.06.26.77,4.38.77,4.38,2.07,1,1.81,1.81-6.19,5.83-6.19,5.83L225,207s2.58,2.32,2.83,3.86.26,2.32,1,3.1,1.29.77,1.29,2.06a19.55,19.55,0,0,1-.51,4.55c-.52,2.83-2.06,3.86-1.81,5.41s0,1,1.55,2.32a16.38,16.38,0,0,0,3.61,2.57c.77.26,3.77,1.72,4.8,3a22.68,22.68,0,0,1,2.06,3.61c1,1.8,1.81,3.09,1.81,4.64a48.27,48.27,0,0,1,0,6.09c-.26,2.84-.52,3.61-.78,5.67s-.77,3.19.52,4.9a13.57,13.57,0,0,1,2.83,5.58c.26,1.8,1,1.8.78,3.86s.51.61.25,2.84-.77,2.48-1.8,4.28-.51,1.81-1,3.1-1.29,1.8-.77,3.35,1.8,2.83,1,3.6-1.81.94-1.81,2.23a15.55,15.55,0,0,1-.25,2.58s1-.26,4.38-1.29,3.7-1.38,5.15-1.8,3.52-1.2,4.29-1.46a12.44,12.44,0,0,1,3.87-1,7,7,0,0,0,3.6-1.29c1-.51,2,.52,2.75-.77s.77-1.8,1.8-2.06.77.51,2.06-.52.77-1.54,2.06-2.06,2.32-1,2.32-1l.26-2.83,1.29-1v-4.55a6.54,6.54,0,0,1,1.8-3.09l-.26-2.32s1.13-1.55,2.32-.52,2.49,2.32,2.49,2.32l1.55-.77,3.09-4.9a6.83,6.83,0,0,0,.77-3.51c-.26-1.55-.77-3.87,1.29-4.9a3.93,3.93,0,0,1,3.86.26,8.66,8.66,0,0,0,.94-3.09c0-1.29,1.13-1.64-.42-2.58s-2.58-1.46-3.09-2.23-.26-.77-1.55-.77-3.61-.26-3.61-.26a16,16,0,0,1-.25-4.12,7.2,7.2,0,0,0-.26-3.35c-.26-1-.52-6.35-.52-6.35s-.77-2.58.26-4.38a7,7,0,0,0,.52-4.9c-.26-.77-.78-2.74-2.32-3s-1.64-.26-2.32-1-3.52-5.16-3.52-5.16-1.54-1.28-1-2.57,0-2.41,0-3.35-2.32-5.07-2.32-5.07l-1.54-2.57-2.07-1s-2.15-1.55-3.09-2.32-3-2.06-3-2.06L260.13,184s-2.32-5.15-3.35-6.18a6.86,6.86,0,0,0-1.55-1.29s-3.26-.52-5.06,1a38.13,38.13,0,0,0-4.38,5.15s.77,5.67,0,6.19a4,4,0,0,1-4.12-.26c-1.81-1-2.41-2.06-3.87-2.06s-3.17-.2-3.73-1.39-1-3.45-2.22-3.61a22.68,22.68,0,0,1-4.17-1.67l-2.5-1.39s-4.27,2.19-6,3.06-5.28,2.22-5.28,2.22-2,.94-1.67,2.5Z"/><path class="cls-1" d="M111.6,209.22s-.11,1.18-2.39,1.39-3.93-.21-5.37,1-1.45,1.86-2.28,2.89-1.86,1-2.06,1.86.2,3.7,2.48,3.7,3.1,2.48,3.1,4.13a39.44,39.44,0,0,1-1.66,7.83c-.41,1-.82,4.76,0,5.58s6.64,5.82,8.07,7,4.1,3.7,4.52,4.94,1,6.2,2.68,7.23,1.66,2,2.07,3.08.21,4.13,1.86,5.16.21,1.87,1.45,2.49,4.52,2.27,5.35,3.3,3.72,4.11,3.3,4.94-.2,7.26,0,9.09,0,3.29.83,4.73a49.91,49.91,0,0,1,2.9,7.44,34.69,34.69,0,0,0,1.24,4.53c.41,1,2,1.24,2.66,1.24s5,0,5.79.41,5,4.75,6.4,6.82,3.08,3.72,3.91,3.93,1.86.39,1.86.39a19.67,19.67,0,0,1-.83-3.91,3.13,3.13,0,0,1,.83-2.06l.2-.62s-1.44-1.45-1-2.48.62-2.9.83-3.52.62-2.25,1.44-2.87,2.48-2.68,2.48-3.3a8.47,8.47,0,0,1,1-5.79c1.65-2.48,7.41-10.52,7.62-11.55s-.23-4.94-3.1-8.86c-1.63-2.48-3.67-4-1.22-7.45.69-.82,2.9-2.48,3.29-5.34.19-1.46-.49-2.74-1.24-5.38a30,30,0,0,1-2.94-8.1s0-1.8,3.14-3.45c2.07-1.86,6.05-5.83,6.05-5.83l-7.38-21.46,6.6,2.83v-2.83l.62-3-1.77.14L167,205.44s-1.24-8-3.52-9.69c-3.92.41-5.85,1.06-9,5.06-1.5.93-4.4.52-6.26-.31a7.51,7.51,0,0,0-3.92-.82,49.35,49.35,0,0,1-5.77-.21c-1-.21-2.48-.41-3.92-.83s-3.93-1.24-5.38.62-1.44,3.3-2.46,3.91a11.91,11.91,0,0,0-3.3,3.1c-.41.82-.87,3.35-2.19,3.23,0,0-.71-3.65-2-3.44s-1.65,1.65-2.48,1.86-1.65-1-2.68-.62A10.73,10.73,0,0,0,111.6,209.22Z"/><path class="cls-1" d="M111.6,209.22s-.11,1.18-2.39,1.39-3.93-.21-5.37,1-1.45,1.86-2.28,2.89-1.86,1-2.06,1.86.2,3.7,2.48,3.7,3.1,2.48,3.1,4.13a39.44,39.44,0,0,1-1.66,7.83c-.41,1-.82,4.76,0,5.58s6.64,5.82,8.07,7,4.1,3.7,4.52,4.94,1,6.2,2.68,7.23,1.66,2,2.07,3.08.21,4.13,1.86,5.16.21,1.87,1.45,2.49,4.52,2.27,5.35,3.3,3.72,4.11,3.3,4.94-.2,7.26,0,9.09,0,3.29.83,4.73a49.91,49.91,0,0,1,2.9,7.44,34.69,34.69,0,0,0,1.24,4.53c.41,1,2,1.24,2.66,1.24s5,0,5.79.41,5,4.75,6.4,6.82,3.08,3.72,3.91,3.93,1.86.39,1.86.39a19.67,19.67,0,0,1-.83-3.91,3.13,3.13,0,0,1,.83-2.06l.2-.62s-1.44-1.45-1-2.48.62-2.9.83-3.52.62-2.25,1.44-2.87,2.48-2.68,2.48-3.3a8.47,8.47,0,0,1,1-5.79c1.65-2.48,7.41-10.52,7.62-11.55s-.23-4.94-3.1-8.86c-1.63-2.48-3.67-4-1.22-7.45.69-.82,2.9-2.48,3.29-5.34.19-1.46-.49-2.74-1.24-5.38a30,30,0,0,1-2.94-8.1s0-1.8,3.14-3.45c2.07-1.86,6.05-5.83,6.05-5.83l-7.38-21.46,6.6,2.83v-2.83l.62-3-1.77.14L167,205.44s-1.24-8-3.52-9.69c-3.92.41-5.85,1.06-9,5.06-1.5.93-4.4.52-6.26-.31a7.51,7.51,0,0,0-3.92-.82,49.35,49.35,0,0,1-5.77-.21c-1-.21-2.48-.41-3.92-.83s-3.93-1.24-5.38.62-1.44,3.3-2.46,3.91a11.91,11.91,0,0,0-3.3,3.1c-.41.82-.87,3.35-2.19,3.23,0,0-.71-3.65-2-3.44s-1.65,1.65-2.48,1.86-1.65-1-2.68-.62A10.73,10.73,0,0,0,111.6,209.22Z"/><path class="cls-1" d="M99.5,216.39s.23-.2-1.63-1.24-2.28-1-2.9-1.86a2.73,2.73,0,0,0-3.51-.82c-1.45.82-.21,1.44-2.07,2.27s-.85-.39-2.89,1.24-1.63,2.22-4.32,1.84-3.1-1-3.51.2-1.24.83-.83,2.69,1.66,2.89,1.86,4.55-.2,2.5,1,4.75,2.48,3.49,1.86,4.73-3.1,1-3.93,4.13-2.07,4.94-.41,6.39S83.42,249,82.18,251s-2.89,2.69-2.89,4.35.41,5.14-2.07,6.58-2.71,2.48-6,2.9-11.16,2.07-14,2.48a23.91,23.91,0,0,1-6.38.41,30.24,30.24,0,0,0-6.21.62s-1,4.11-1.62,6.18-1.24,6.61-3.52,7.65-7.65,3.69-7.85,4.52-1.22.62-2.46,2.89-2.68,1.66-4.55,2.48.42,1.45-2.89,2.28a15.46,15.46,0,0,1-5,.62s-4.29,1.05-2.46,3.92,2.87,3.29,3.49,6.8.42,4.34,1,5.79,2.89,2.25,2.06,3.69,1.45,1.66-1.86,2.69-4.31-.21-5.14,1-2.89,1.24-2.27,2.48,3.51,1.45,1.65,2.9-2.48,1-3.72,1.86-1.86,1-1.86,2,0,1.86-2.48,3.31-3.93,3.72-3.31,5.78,1.66,2.51,1,4.14.23,2.45-1.22,4.11-.44,3.1.6,4.13.2,3.54.2,5.58-1.24,6.18.83,6.18,3.72-1.86,5.37-1.24,3.31,3.51,3.93,4.34,1.84,2.69,4.11,1.65,2.27-1.65,4.13-1.44,2.48,1.65,3.93.41,2.9-1.45,3.72-.62,3.28,2.69,4.52,1.45,4.35-3.1,5.59-2.48,2.09,3.3,3.72,2.89,2.45-2.69,2.66-3.93.41-.83,1.24-2.89-.21-1.42.83-3.9,1-3.72,2.89-5,4.57-.62,6.41,0,2.45,1.66,4.11.42.62-.42,4.34-1.66,2.92-1.86,5-4.34,2.25-3.69,5.35-4.52,3.92,0,6.2-.41,4.11-2.48,4.73-.42.2,1.84.62,4.32A16.28,16.28,0,0,0,88,348.22c.41,1.24-.62,4.35,1.44,4.35s3.72-1.24,5.79-.62,2.66,2.48,4.11,1-.62-3.52,2.27-3.31,3.31-.21,4.14,1.66.2,3.07,1.86,5.14,2.06,2,2.89.62.18-2,3.08-1.84,3.51-.41,5-1.44,2.89.2,4.34-1a3.7,3.7,0,0,0,1-3.31l5.56-.82a5.56,5.56,0,0,1,4.55.2,12.46,12.46,0,0,0,4.75,1.45s3.07.21,3.69,2.07a3.85,3.85,0,0,0,4.55,2.69c2.28-.42,2.28-.42,3.93-.83s3.08-2.48,3.08-2.48,1.86-3.93,3.3-4.76,1.66-1.86,3.1-2.06,2.07-.21,2.9-1a4.5,4.5,0,0,1,4.52-1c2.07.62,3.51,1.86,3.31,3.31,0,0,1-1.45,1.24.2s-1.24,4.55.41,5.17,3.32,1.11,3.32,1.11l3.71-1.11.66-1.52,4.89-4.68,3.1.62,2.28-.41-.62-2.9-1-2.45-1.86-1.86-1.09.48-.77.76-2.15-1.05-2.74-.58-.58-2.34L177.53,333l-2.63-1.17L172,328.6l-.72-1.73-2.23-.09-1.42-1.45-1.24-3.1L162.44,321l-.83-2.48-.2-2.07L158.72,315l-.41-.63s-2.07.23-2.48-.39a46.07,46.07,0,0,0-3.7-4.55c-1.24-1.24-2.48-2.69-3.72-3.72s-.62-2.27-2.27-2.48a20.29,20.29,0,0,0-3.31-.41c-1.45,0-1.27.62-2.48,0s-3.08-1-3.28-2.87a49,49,0,0,0-2.9-9.3c-1.45-3.72-1.45-4.73-1.45-6.8s-.2-6-.2-6,.83-2.07-.42-3.31-2.48-3.7-3.72-4.52-2-.62-3.28-1.66a5.82,5.82,0,0,1-1.65-2.06l-.83-1.25a17.14,17.14,0,0,1-1.86-3.51,15.84,15.84,0,0,0-2.07-4.73,11.59,11.59,0,0,1-1.44-2.89s0-2.9-1.24-4.34-4.11-5.35-6-6.39a23.5,23.5,0,0,1-4.76-4.13c-1.24-1.24-2.68-.44-2.27-4.34s1.24-6.8,1.45-8.45,1-1.65.2-3.72-.82-2.07-2.06-2.48-1.86-.62-2.28-1.24A11.16,11.16,0,0,1,99.5,216.39Z"/><path class="cls-1" d="M99.5,216.39s.23-.2-1.63-1.24-2.28-1-2.9-1.86a2.73,2.73,0,0,0-3.51-.82c-1.45.82-.21,1.44-2.07,2.27s-.85-.39-2.89,1.24-1.63,2.22-4.32,1.84-3.1-1-3.51.2-1.24.83-.83,2.69,1.66,2.89,1.86,4.55-.2,2.5,1,4.75,2.48,3.49,1.86,4.73-3.1,1-3.93,4.13-2.07,4.94-.41,6.39S83.42,249,82.18,251s-2.89,2.69-2.89,4.35.41,5.14-2.07,6.58-2.71,2.48-6,2.9-11.16,2.07-14,2.48a23.91,23.91,0,0,1-6.38.41,30.24,30.24,0,0,0-6.21.62s-1,4.11-1.62,6.18-1.24,6.61-3.52,7.65-7.65,3.69-7.85,4.52-1.22.62-2.46,2.89-2.68,1.66-4.55,2.48.42,1.45-2.89,2.28a15.46,15.46,0,0,1-5,.62s-4.29,1.05-2.46,3.92,2.87,3.29,3.49,6.8.42,4.34,1,5.79,2.89,2.25,2.06,3.69,1.45,1.66-1.86,2.69-4.31-.21-5.14,1-2.89,1.24-2.27,2.48,3.51,1.45,1.65,2.9-2.48,1-3.72,1.86-1.86,1-1.86,2,0,1.86-2.48,3.31-3.93,3.72-3.31,5.78,1.66,2.51,1,4.14.23,2.45-1.22,4.11-.44,3.1.6,4.13.2,3.54.2,5.58-1.24,6.18.83,6.18,3.72-1.86,5.37-1.24,3.31,3.51,3.93,4.34,1.84,2.69,4.11,1.65,2.27-1.65,4.13-1.44,2.48,1.65,3.93.41,2.9-1.45,3.72-.62,3.28,2.69,4.52,1.45,4.35-3.1,5.59-2.48,2.09,3.3,3.72,2.89,2.45-2.69,2.66-3.93.41-.83,1.24-2.89-.21-1.42.83-3.9,1-3.72,2.89-5,4.57-.62,6.41,0,2.45,1.66,4.11.42.62-.42,4.34-1.66,2.92-1.86,5-4.34,2.25-3.69,5.35-4.52,3.92,0,6.2-.41,4.11-2.48,4.73-.42.2,1.84.62,4.32A16.28,16.28,0,0,0,88,348.22c.41,1.24-.62,4.35,1.44,4.35s3.72-1.24,5.79-.62,2.66,2.48,4.11,1-.62-3.52,2.27-3.31,3.31-.21,4.14,1.66.2,3.07,1.86,5.14,2.06,2,2.89.62.18-2,3.08-1.84,3.51-.41,5-1.44,2.89.2,4.34-1a3.7,3.7,0,0,0,1-3.31l5.56-.82a5.56,5.56,0,0,1,4.55.2,12.46,12.46,0,0,0,4.75,1.45s3.07.21,3.69,2.07a3.85,3.85,0,0,0,4.55,2.69c2.28-.42,2.28-.42,3.93-.83s3.08-2.48,3.08-2.48,1.86-3.93,3.3-4.76,1.66-1.86,3.1-2.06,2.07-.21,2.9-1a4.5,4.5,0,0,1,4.52-1c2.07.62,3.51,1.86,3.31,3.31,0,0,1-1.45,1.24.2s-1.24,4.55.41,5.17,3.32,1.11,3.32,1.11l3.71-1.11.66-1.52,4.89-4.68,3.1.62,2.28-.41-.62-2.9-1-2.45-1.86-1.86-1.09.48-.77.76-2.15-1.05-2.74-.58-.58-2.34L177.53,333l-2.63-1.17L172,328.6l-.72-1.73-2.23-.09-1.42-1.45-1.24-3.1L162.44,321l-.83-2.48-.2-2.07L158.72,315l-.41-.63s-2.07.23-2.48-.39a46.07,46.07,0,0,0-3.7-4.55c-1.24-1.24-2.48-2.69-3.72-3.72s-.62-2.27-2.27-2.48a20.29,20.29,0,0,0-3.31-.41c-1.45,0-1.27.62-2.48,0s-3.08-1-3.28-2.87a49,49,0,0,0-2.9-9.3c-1.45-3.72-1.45-4.73-1.45-6.8s-.2-6-.2-6,.83-2.07-.42-3.31-2.48-3.7-3.72-4.52-2-.62-3.28-1.66a5.82,5.82,0,0,1-1.65-2.06l-.83-1.25a17.14,17.14,0,0,1-1.86-3.51,15.84,15.84,0,0,0-2.07-4.73,11.59,11.59,0,0,1-1.44-2.89s0-2.9-1.24-4.34-4.11-5.35-6-6.39a23.5,23.5,0,0,1-4.76-4.13c-1.24-1.24-2.68-.44-2.27-4.34s1.24-6.8,1.45-8.45,1-1.65.2-3.72-.82-2.07-2.06-2.48-1.86-.62-2.28-1.24A11.16,11.16,0,0,1,99.5,216.39Z"/><path class="cls-1" d="M240.64,290.2s.12-1.94.25-2.58,1.81-2.23,1.81-2.23l.26-.83-1.29-2.77-.07-2.06s1-2.52,1.36-3.29,1-1.74,1.35-2.7,1-2.68,1-2.68l-.38-1.68-.2-2.71-1.35-5-2.9-4.74s.78-4.83,1.16-8.12a25.49,25.49,0,0,0-.19-7.25c-.19-.77-3-7.92-4.94-8.7a41,41,0,0,1-5.6-3.19c-.58-.39-2.77-2.64-2.77-2.64s-1.87,3.22-3.22,3.8-2,.77-3.2.19-1.73-1.46-2.89-.39a19.2,19.2,0,0,0-2.32,2.81s.38,1.87-.39,2.77-.13,1.36-1.8,1.81-2.06.64-2.84,1.61a51.33,51.33,0,0,1-5.51,4.44,39.3,39.3,0,0,0-3.48,3c-1,1-1.29,1-2,1.68s-.77,3.09-.77,3.09l-1.55-1A9.35,9.35,0,0,0,195.5,253a14.3,14.3,0,0,1-2.24,3.48A7.44,7.44,0,0,1,191,258l-1,1.14V268s-2.51.77-2.51,2.7c.19,2.43,1.54,10,1.54,10l.39,3.48,1.16,4.94s-9.19,14.59-10.15,15.75l-4.06,4.83a57.24,57.24,0,0,0-2.71,5.71,11.35,11.35,0,0,0-.38,2.71,33.61,33.61,0,0,0,.83,3.86c.33.77.91,2.9.91,2.9l-.39,1.48L176,328l1,1.65,2.35,1.62,2.39,1.09,1.35,2.31,2.9.58,1.74-.19-1.27-1.46.11-2.4s.77-1.55,1.55-1,1,.39,1.16,1.35,1.38,2.12,1.85,2.9.31,1.77.58,2.62a2.25,2.25,0,0,0,2.34,1.46,52.87,52.87,0,0,0,5.65,0c1.85-.21,2.82-.41,2.43-2.92-.19-1.55-1-4.64-1-4.64a6.33,6.33,0,0,1,2.12-1.35c1.16-.39,2.76-.6,3.12-1.7s.55-1.5-.41-1.88-.75-.53-1.92-1-.79-1.64-1.75-1.75a5,5,0,0,1-2.63-1.17c-.85-.68-1.69-.67-1.46-2.91a7.31,7.31,0,0,1,4,1.6c1.43.33,2.64.66,2.64.66s.38,2.41,2.43.65c1,.89,2.7,2.1,3,.56.11-2.42,0-4.62-.43-5.39s-1.85-2.06-2.18-3.27-.66-2.75-.66-2.75,1.41-4.51,2.29-5.06c.87.11,1-.66,2.08-1.1a24.69,24.69,0,0,1,2.42-1.2c1.1-.33,2-.11,2.75-.55a1.91,1.91,0,0,0,.44-2.64c-.66-.74-.88-.41-1.43-1.95s-1.87-1.87-.44-2.31a9.29,9.29,0,0,1,4.29.22,7.5,7.5,0,0,0,4.15-.33,2.27,2.27,0,0,1,2.31-.33c.88.33,2.64.66,3.41-.11a7.33,7.33,0,0,1,2.85-2.2,8,8,0,0,0,2.75-1.21c.88-.66,1.73-1,2.61-1.54A9.81,9.81,0,0,1,240.64,290.2Z"/><path class="cls-1" d="M240.64,290.2s.12-1.94.25-2.58,1.81-2.23,1.81-2.23l.26-.83-1.29-2.77-.07-2.06s1-2.52,1.36-3.29,1-1.74,1.35-2.7,1-2.68,1-2.68l-.38-1.68-.2-2.71-1.35-5-2.9-4.74s.78-4.83,1.16-8.12a25.49,25.49,0,0,0-.19-7.25c-.19-.77-3-7.92-4.94-8.7a41,41,0,0,1-5.6-3.19c-.58-.39-2.77-2.64-2.77-2.64s-1.87,3.22-3.22,3.8-2,.77-3.2.19-1.73-1.46-2.89-.39a19.2,19.2,0,0,0-2.32,2.81s.38,1.87-.39,2.77-.13,1.36-1.8,1.81-2.06.64-2.84,1.61a51.33,51.33,0,0,1-5.51,4.44,39.3,39.3,0,0,0-3.48,3c-1,1-1.29,1-2,1.68s-.77,3.09-.77,3.09l-1.55-1A9.35,9.35,0,0,0,195.5,253a14.3,14.3,0,0,1-2.24,3.48A7.44,7.44,0,0,1,191,258l-1,1.14V268s-2.51.77-2.51,2.7c.19,2.43,1.54,10,1.54,10l.39,3.48,1.16,4.94s-9.19,14.59-10.15,15.75l-4.06,4.83a57.24,57.24,0,0,0-2.71,5.71,11.35,11.35,0,0,0-.38,2.71,33.61,33.61,0,0,0,.83,3.86c.33.77.91,2.9.91,2.9l-.39,1.48L176,328l1,1.65,2.35,1.62,2.39,1.09,1.35,2.31,2.9.58,1.74-.19-1.27-1.46.11-2.4s.77-1.55,1.55-1,1,.39,1.16,1.35,1.38,2.12,1.85,2.9.31,1.77.58,2.62a2.25,2.25,0,0,0,2.34,1.46,52.87,52.87,0,0,0,5.65,0c1.85-.21,2.82-.41,2.43-2.92-.19-1.55-1-4.64-1-4.64a6.33,6.33,0,0,1,2.12-1.35c1.16-.39,2.76-.6,3.12-1.7s.55-1.5-.41-1.88-.75-.53-1.92-1-.79-1.64-1.75-1.75a5,5,0,0,1-2.63-1.17c-.85-.68-1.69-.67-1.46-2.91a7.31,7.31,0,0,1,4,1.6c1.43.33,2.64.66,2.64.66s.38,2.41,2.43.65c1,.89,2.7,2.1,3,.56.11-2.42,0-4.62-.43-5.39s-1.85-2.06-2.18-3.27-.66-2.75-.66-2.75,1.41-4.51,2.29-5.06c.87.11,1-.66,2.08-1.1a24.69,24.69,0,0,1,2.42-1.2c1.1-.33,2-.11,2.75-.55a1.91,1.91,0,0,0,.44-2.64c-.66-.74-.88-.41-1.43-1.95s-1.87-1.87-.44-2.31a9.29,9.29,0,0,1,4.29.22,7.5,7.5,0,0,0,4.15-.33,2.27,2.27,0,0,1,2.31-.33c.88.33,2.64.66,3.41-.11a7.33,7.33,0,0,1,2.85-2.2,8,8,0,0,0,2.75-1.21c.88-.66,1.73-1,2.61-1.54A9.81,9.81,0,0,1,240.64,290.2Z"/><path class="cls-1" d="M240.64,290.2l.21,4.71,1.82.46.6,2.12s.91,2.28,1.37,1.37.61-1.52,1.36-2,2.13-.61,2.58-1.37a1.5,1.5,0,0,1,2.15-.76,5.86,5.86,0,0,1,2.73,1.82c.76.91.3.89.3,2.58s-1.36,4.12,0,4.72.46.76,1.67,1.52,2.12-.15,2.88.61.61,2.88.61,2.88a2.91,2.91,0,0,0,1.36,3c1.82,1.22,2.28,1.84,1.52,2.91s-3.49,3.33-4.1,4.55a7.94,7.94,0,0,0-1.21,3,3.49,3.49,0,0,1-1.21,2.28l-1.23-.58-1.65,1.18s-.91.31-.61,1.06.87.68.51,1.26-1.86,1-1.86,1l-1.71.81s-.75.61-1.21,0-.76-1.39-1.21-2-1.06-.91-.61-1.82,0-1.07,1.37-1.82,2-2,1.21-3-1.52-1.82-1.37-2.58a3.83,3.83,0,0,1,1.22-2.27c.76-.61,1.8-1.69,2.27-2.15s1.48-.26-.55-1.12-3.54-1.45-3.54-1.45v1.36s1.21.59.91,1.37.3,1.08-1.06,1.53-2.2.22-1.56,1.1,1.7,2.23,1.17,2.92a7.18,7.18,0,0,0-1.28,2.05,3.9,3.9,0,0,0-.31,2,3,3,0,0,1-.75,2l-1.22,1.07.94,3.55s-1.49.91-2.05.59-1-2-2.07-1.24-2.77,1.69-3.29,1.53-1.46.17-1.75-1.75.77-2.38-.14-3.9a21.66,21.66,0,0,0-1.82-2.58l-.15,2.73-1.39,3.75s-1.51-2.64-2.34-1.28-1.22,1.65-.87,3.32.3,2.39-.58,2.33a4.72,4.72,0,0,0-2,0c-.81.25-1,1-2.35.7s-2.12-.6-2.73-1.67-.57-2.33-2-2.53-2,0-1.75-1.46,1.28-2.83,1.17-3.9.18-2.59,0-3.35a7.9,7.9,0,0,0-1.21-2.88c-.61-.76-2-1.22-2.73-1.82s-2.51-2.16-2.51-2.16l-.53-3-.64-2.05a4.18,4.18,0,0,0,.8-3.26c.6-.15,1.21-1.67,4.39-2.28,1.52-.15,4-1.71,2.4-3.21a15.15,15.15,0,0,1-2.4-3.94,8.47,8.47,0,0,1,1.82-.15,21.13,21.13,0,0,1,4.1.31,6.29,6.29,0,0,0,4.42-.91c.76-.61,2.32,1.58,4.35-.12s2.93-2.46,4-2.77,1.8-1.36,2.88-1.66,2.6-.91,2.6-.91Z"/><path class="cls-1" d="M240.64,290.2l.21,4.71,1.82.46.6,2.12s.91,2.28,1.37,1.37.61-1.52,1.36-2,2.13-.61,2.58-1.37a1.5,1.5,0,0,1,2.15-.76,5.86,5.86,0,0,1,2.73,1.82c.76.91.3.89.3,2.58s-1.36,4.12,0,4.72.46.76,1.67,1.52,2.12-.15,2.88.61.61,2.88.61,2.88a2.91,2.91,0,0,0,1.36,3c1.82,1.22,2.28,1.84,1.52,2.91s-3.49,3.33-4.1,4.55a7.94,7.94,0,0,0-1.21,3,3.49,3.49,0,0,1-1.21,2.28l-1.23-.58-1.65,1.18s-.91.31-.61,1.06.87.68.51,1.26-1.86,1-1.86,1l-1.71.81s-.75.61-1.21,0-.76-1.39-1.21-2-1.06-.91-.61-1.82,0-1.07,1.37-1.82,2-2,1.21-3-1.52-1.82-1.37-2.58a3.83,3.83,0,0,1,1.22-2.27c.76-.61,1.8-1.69,2.27-2.15s1.48-.26-.55-1.12-3.54-1.45-3.54-1.45v1.36s1.21.59.91,1.37.3,1.08-1.06,1.53-2.2.22-1.56,1.1,1.7,2.23,1.17,2.92a7.18,7.18,0,0,0-1.28,2.05,3.9,3.9,0,0,0-.31,2,3,3,0,0,1-.75,2l-1.22,1.07.94,3.55s-1.49.91-2.05.59-1-2-2.07-1.24-2.77,1.69-3.29,1.53-1.46.17-1.75-1.75.77-2.38-.14-3.9a21.66,21.66,0,0,0-1.82-2.58l-.15,2.73-1.39,3.75s-1.51-2.64-2.34-1.28-1.22,1.65-.87,3.32.3,2.39-.58,2.33a4.72,4.72,0,0,0-2,0c-.81.25-1,1-2.35.7s-2.12-.6-2.73-1.67-.57-2.33-2-2.53-2,0-1.75-1.46,1.28-2.83,1.17-3.9.18-2.59,0-3.35a7.9,7.9,0,0,0-1.21-2.88c-.61-.76-2-1.22-2.73-1.82s-2.51-2.16-2.51-2.16l-.53-3-.64-2.05a4.18,4.18,0,0,0,.8-3.26c.6-.15,1.21-1.67,4.39-2.28,1.52-.15,4-1.71,2.4-3.21a15.15,15.15,0,0,1-2.4-3.94,8.47,8.47,0,0,1,1.82-.15,21.13,21.13,0,0,1,4.1.31,6.29,6.29,0,0,0,4.42-.91c.76-.61,2.32,1.58,4.35-.12s2.93-2.46,4-2.77,1.8-1.36,2.88-1.66,2.6-.91,2.6-.91Z"/><path class="cls-2" d="M283.26,294.11s1.33,1-.18,2.17-2.28,1.52-1.37,2.27,1.37.44,1.52,1.22-.61,0-.61,2,2.43,1.52.31,2.43-2.28.45-2.58,1.21-.93,1.67-2.91,2.43-1.51,1.67-2.42,2.43.15.3-1.67.91-3.19.15-4,.91a7.8,7.8,0,0,0-1.21,2.9s-1.06,1.82-1.82,3.18-.28,2.13-1.21,3.34a18.55,18.55,0,0,1-2.15,2.28l-.91,2.27-2.27,2.3-.76-.63-1.37,1.08-.45,1.67-1.16-.12-1.27-1.4.46-2.14v-2.12l.76-1.07s1.21-3.48,1.66-4.24,2.73-3.49,2.73-3.49l1.37-1.06v-1.54l-1.52-1.37-1.06-1.51-.15-2.13v-1.36l-.76-.91-2.88-.61-.76-.45-.91-1.07-.45-1.51.75-4-.6-1.82-1.82-1.21-1.54-.61-.91.46-1.21.91-2,.76-1.36,2-.61-.76-1.36-2.73-1.82-.46-.21-4.71,9.53-3.09,3.14-.71,3.48-1.52,3.19-.45,1.95-1.1,2-.12,1.69-2.42,2.28-.15,2.12-2.13,2.91-1.62.26-2.83,1.29-1,.55,1.84,2.12,2.43,1.39,1.36L278.2,280l1.08,3.34-.15,2.42L279,288.4,280.5,291l1.06,1.52-.48,1.57Z"/><path class="cls-2" d="M283.26,294.11s1.33,1-.18,2.17-2.28,1.52-1.37,2.27,1.37.44,1.52,1.22-.61,0-.61,2,2.43,1.52.31,2.43-2.28.45-2.58,1.21-.93,1.67-2.91,2.43-1.51,1.67-2.42,2.43.15.3-1.67.91-3.19.15-4,.91a7.8,7.8,0,0,0-1.21,2.9s-1.06,1.82-1.82,3.18-.28,2.13-1.21,3.34a18.55,18.55,0,0,1-2.15,2.28l-.91,2.27-2.27,2.3-.76-.63-1.37,1.08-.45,1.67-1.16-.12-1.27-1.4.46-2.14v-2.12l.76-1.07s1.21-3.48,1.66-4.24,2.73-3.49,2.73-3.49l1.37-1.06v-1.54l-1.52-1.37-1.06-1.51-.15-2.13v-1.36l-.76-.91-2.88-.61-.76-.45-.91-1.07-.45-1.51.75-4-.6-1.82-1.82-1.21-1.54-.61-.91.46-1.21.91-2,.76-1.36,2-.61-.76-1.36-2.73-1.82-.46-.21-4.71,9.53-3.09,3.14-.71,3.48-1.52,3.19-.45,1.95-1.1,2-.12,1.69-2.42,2.28-.15,2.12-2.13,2.91-1.62.26-2.83,1.29-1,.55,1.84,2.12,2.43,1.39,1.36L278.2,280l1.08,3.34-.15,2.42L279,288.4,280.5,291l1.06,1.52-.48,1.57Z"/><path class="cls-1" d="M308.4,262.29s2.48.43,3.39,1.94A14.17,14.17,0,0,1,313,267c.61,1.37-.46,2,.61,2.89a3.31,3.31,0,0,1,1.36,2.42,15.05,15.05,0,0,1-.15,2.45c0,1.21-.61,2.58-.15,4.1a11,11,0,0,1,.15,4.39,28.31,28.31,0,0,0-.3,5.18,4.94,4.94,0,0,1-.61,3.49,5.46,5.46,0,0,0-.91,3c-.15,1.52-.61,1.67-2.12,3s-1.22,1.95-2.58,2.42a24.55,24.55,0,0,1-4,.78,3.42,3.42,0,0,1-.15,3.49c-1.21,1.52-3,1.67-3.34,2.88a5.71,5.71,0,0,0,0,2.43,16.76,16.76,0,0,0-1.36,2c-1.06,1.67-1.67,1.84-.91,2.91s1.67,1.67,1.36,2.58-1.06,1.06-1.06,2a2.93,2.93,0,0,1-1.51,3,27.32,27.32,0,0,1-3.49,1.37s-1.84-.46-2,.75-.75,2.56-.3,3.34,1.37,1.39-.3,1.84-.76,1.52-2.73,2.13-2.13.45-2.88,1.06-3,.15-3,.15a9.14,9.14,0,0,0-.76,2.43c0,.75.15,2-1.06,2.27a4.16,4.16,0,0,1-2.12,0L275.62,335l-.6-1.67L272,332.1l-1.49-1.48-2.59-.27-1.81,1.49-3,.56-2.81-1-.45-3,2.27-2.3.91-2.27,2.15-2.28,1.21-3.34,1.82-3.18s.61-4,3.64-3.51a14.58,14.58,0,0,0,2.73-.61s.76-2,2-2.43,3.21-1.36,3.21-1.36l.61-1.67,3.33-1.52-.6-1.21a2.7,2.7,0,0,1,.15-2.9c-.61-.76-3.34-.91-.76-2.88,1.37-.61,1.72-2.23.79-2.78,1.18-1,2.24-3,3.31-3.9a26.83,26.83,0,0,1,3.63-3,6,6,0,0,1,3-1l-2.71-3.06,3-4.45,2.22-6s-.46-2.28,1.36-2.13a15,15,0,0,1,4.2,1.29s3.56.68,4.62-.23,2-1.21,1.52-2.42S306,268,306.18,267s.56-2.5.56-2.5Z"/><path class="cls-1" d="M308.4,262.29s2.48.43,3.39,1.94A14.17,14.17,0,0,1,313,267c.61,1.37-.46,2,.61,2.89a3.31,3.31,0,0,1,1.36,2.42,15.05,15.05,0,0,1-.15,2.45c0,1.21-.61,2.58-.15,4.1a11,11,0,0,1,.15,4.39,28.31,28.31,0,0,0-.3,5.18,4.94,4.94,0,0,1-.61,3.49,5.46,5.46,0,0,0-.91,3c-.15,1.52-.61,1.67-2.12,3s-1.22,1.95-2.58,2.42a24.55,24.55,0,0,1-4,.78,3.42,3.42,0,0,1-.15,3.49c-1.21,1.52-3,1.67-3.34,2.88a5.71,5.71,0,0,0,0,2.43,16.76,16.76,0,0,0-1.36,2c-1.06,1.67-1.67,1.84-.91,2.91s1.67,1.67,1.36,2.58-1.06,1.06-1.06,2a2.93,2.93,0,0,1-1.51,3,27.32,27.32,0,0,1-3.49,1.37s-1.84-.46-2,.75-.75,2.56-.3,3.34,1.37,1.39-.3,1.84-.76,1.52-2.73,2.13-2.13.45-2.88,1.06-3,.15-3,.15a9.14,9.14,0,0,0-.76,2.43c0,.75.15,2-1.06,2.27a4.16,4.16,0,0,1-2.12,0L275.62,335l-.6-1.67L272,332.1l-1.49-1.48-2.59-.27-1.81,1.49-3,.56-2.81-1-.45-3,2.27-2.3.91-2.27,2.15-2.28,1.21-3.34,1.82-3.18s.61-4,3.64-3.51a14.58,14.58,0,0,0,2.73-.61s.76-2,2-2.43,3.21-1.36,3.21-1.36l.61-1.67,3.33-1.52-.6-1.21a2.7,2.7,0,0,1,.15-2.9c-.61-.76-3.34-.91-.76-2.88,1.37-.61,1.72-2.23.79-2.78,1.18-1,2.24-3,3.31-3.9a26.83,26.83,0,0,1,3.63-3,6,6,0,0,1,3-1l-2.71-3.06,3-4.45,2.22-6s-.46-2.28,1.36-2.13a15,15,0,0,1,4.2,1.29s3.56.68,4.62-.23,2-1.21,1.52-2.42S306,268,306.18,267s.56-2.5.56-2.5Z"/><path class="cls-1" d="M314.36,291.27s4.12,1.22,6.09.31,4.1-.46,5-.91a8.86,8.86,0,0,0,3.18-1.82c1.22-1.22,2.28-2.15,3.19-2.3a15.64,15.64,0,0,0,2.9-.61c.76-.3.61-2,.31-2.57s-1.69-.91-2.45-1.67-2.28-1.52-1.82-2.73.91-3.34,0-4-1.22.33-2.28-1.36-1.21-1.54-1.06-3.21-.15-1.21.61-2.42,1.36-1.67.76-3.19-1.37-2.43-2.58-2.28-2.28.76-3.19.46a2,2,0,0,1-.91-2.88,7.73,7.73,0,0,0,1.21-2.75c.46-1.52,1.37-.76.91-2.58s-.75-2.28-1.66-2.58-2.56-1.37-2.73-2.12a12.33,12.33,0,0,0-.93-2.58c-.46-.91-1.35-2.61-1.35-2.61l-2.78-.83-3.33,1.11-4.17,2.15,1.11,3.34-.1,5.48-.31,3.06.41,3.06,2.63,1.18.76.76L313,267l.15,2,1.21,2,.61,1.36.15,1.08-.45,2.89-.31,1.21a14.8,14.8,0,0,1,.61,3.64c-.15.91-.61,4.4-.61,4.4l.16,4.87Z"/><path class="cls-1" d="M314.36,291.27s4.12,1.22,6.09.31,4.1-.46,5-.91a8.86,8.86,0,0,0,3.18-1.82c1.22-1.22,2.28-2.15,3.19-2.3a15.64,15.64,0,0,0,2.9-.61c.76-.3.61-2,.31-2.57s-1.69-.91-2.45-1.67-2.28-1.52-1.82-2.73.91-3.34,0-4-1.22.33-2.28-1.36-1.21-1.54-1.06-3.21-.15-1.21.61-2.42,1.36-1.67.76-3.19-1.37-2.43-2.58-2.28-2.28.76-3.19.46a2,2,0,0,1-.91-2.88,7.73,7.73,0,0,0,1.21-2.75c.46-1.52,1.37-.76.91-2.58s-.75-2.28-1.66-2.58-2.56-1.37-2.73-2.12a12.33,12.33,0,0,0-.93-2.58c-.46-.91-1.35-2.61-1.35-2.61l-2.78-.83-3.33,1.11-4.17,2.15,1.11,3.34-.1,5.48-.31,3.06.41,3.06,2.63,1.18.76.76L313,267l.15,2,1.21,2,.61,1.36.15,1.08-.45,2.89-.31,1.21a14.8,14.8,0,0,1,.61,3.64c-.15.91-.61,4.4-.61,4.4l.16,4.87Z"/><path class="cls-1" d="M344.12,287.77a15.91,15.91,0,0,1-1.05-1.77l20.63-10.34c-.12.78-.52,1.73-1,3.61-.6,2.28-.91,2.58-.15,4.25s1.06,1.34,1.06,2.42a7.5,7.5,0,0,0,2,4,29.65,29.65,0,0,1,4.31,2.34c1.08.87,2.81,2.16,2.81,3.68s-.23,4,.11,4.76a8.25,8.25,0,0,1,.79,2.38,3.11,3.11,0,0,0,.46,2.15c.56.68,1,1,1.13,1.7s-.57,1-.79,1.7.22,1-.57,1.36-.23,1-.91,1.36-1.47,0-1.92,1-.57,1.59-1.59,2.15-1.59-.11-1.93.79.23,2-1,1.82-.22-1.14-1.92-1.14-1.82-1.13-2.27-.22-2.83,1.58-2.83,1.58-2,.23-2.15-.56a3.73,3.73,0,0,1-.12-2.27,2.4,2.4,0,0,0-.34-2.72c-.79-.9-1.24-1.13-2.26-2.26s.34-1.93-.8-3.29a7.6,7.6,0,0,0-2.72-2.38c-1.36-.79-.68-1.7-1.36-2.38s-1.24-.34-1.7-1.47-2.15-2.61-2.38-3.4-1.24-1.36-1.24-2.83a18.69,18.69,0,0,1,.11-3.74A2.28,2.28,0,0,0,344.12,287.77Z"/><path class="cls-1" d="M344.12,287.77a15.91,15.91,0,0,1-1.05-1.77l20.63-10.34c-.12.78-.52,1.73-1,3.61-.6,2.28-.91,2.58-.15,4.25s1.06,1.34,1.06,2.42a7.5,7.5,0,0,0,2,4,29.65,29.65,0,0,1,4.31,2.34c1.08.87,2.81,2.16,2.81,3.68s-.23,4,.11,4.76a8.25,8.25,0,0,1,.79,2.38,3.11,3.11,0,0,0,.46,2.15c.56.68,1,1,1.13,1.7s-.57,1-.79,1.7.22,1-.57,1.36-.23,1-.91,1.36-1.47,0-1.92,1-.57,1.59-1.59,2.15-1.59-.11-1.93.79.23,2-1,1.82-.22-1.14-1.92-1.14-1.82-1.13-2.27-.22-2.83,1.58-2.83,1.58-2,.23-2.15-.56a3.73,3.73,0,0,1-.12-2.27,2.4,2.4,0,0,0-.34-2.72c-.79-.9-1.24-1.13-2.26-2.26s.34-1.93-.8-3.29a7.6,7.6,0,0,0-2.72-2.38c-1.36-.79-.68-1.7-1.36-2.38s-1.24-.34-1.7-1.47-2.15-2.61-2.38-3.4-1.24-1.36-1.24-2.83a18.69,18.69,0,0,1,.11-3.74A2.28,2.28,0,0,0,344.12,287.77Z"/><path class="cls-1" d="M363.74,275.18l0,.39-4,2.6-2,4-4.52.85-2.83,3.67L343,285.9c-.36-.64-.71-1.19-.93-1.19-.45,0-.34-.45-1.92-.11s-1.7.56-2.5.68a9.71,9.71,0,0,1-2.38-.23,2.66,2.66,0,0,0-1.13-2.38c-1.25-.68-2.95-1.36-3.17-2.49a5,5,0,0,1,.11-2.61c.23-1.13.26-2.15-.32-2.55s-1.27,0-1.83-.85a5,5,0,0,1-1.36-4.87c.56-1.59,1.13-2.27,1.36-3.06a2.85,2.85,0,0,0-.68-2.6,2.88,2.88,0,0,0-2-1.08c-.91-.06-3.63,1.53-4.08-.4,0-.56-.57-1.92.23-2.49a1.66,1.66,0,0,0,.9-1.47,9.63,9.63,0,0,1,.57-1.7l.57-1.25-.57-2.27a20.32,20.32,0,0,0-2.49-1.58,2.5,2.5,0,0,1-1.7-2.15,21.84,21.84,0,0,0-2.08-4.33,15.22,15.22,0,0,1,.83-2.47c.34-.57,0-1.68.56-2s1.59-.87,1.59-.87l.56-.24-.51-.36s2.28-.45,3.19.91.76,2.43,1.82,1.82.91-2.12,2.12-1.36,1.07.6,2,0,2.27,1.06,2.27,1.06,1,.76,1.52.3,2.29-1.67,2.75-1.06a17.51,17.51,0,0,1,1.36,2.12c.31.61-.45.74-.91,2.13s-2,2-2,2.75-.61,1.82-.15,3.49a20.93,20.93,0,0,1,.61,3.79c.15,1.21,0,2.56.76,3.49s.75,2.45,1.06,3.36a4.65,4.65,0,0,0,2.58,3.18,15.33,15.33,0,0,1,3.64,2.28c1.21,1.06,1.34,2,2.88,2.58s1.69,2.27,3.81.6,3.94-2.88,4.55-3.33a4.48,4.48,0,0,1,3.64-1.52c2.43,0,4.57-.76,4.42.15a3.57,3.57,0,0,1-.91,1.67s-1.67,2.4-.15,3.94S363.74,274.27,363.74,275.18Z"/><path class="cls-1" d="M363.74,275.18l0,.39-4,2.6-2,4-4.52.85-2.83,3.67L343,285.9c-.36-.64-.71-1.19-.93-1.19-.45,0-.34-.45-1.92-.11s-1.7.56-2.5.68a9.71,9.71,0,0,1-2.38-.23,2.66,2.66,0,0,0-1.13-2.38c-1.25-.68-2.95-1.36-3.17-2.49a5,5,0,0,1,.11-2.61c.23-1.13.26-2.15-.32-2.55s-1.27,0-1.83-.85a5,5,0,0,1-1.36-4.87c.56-1.59,1.13-2.27,1.36-3.06a2.85,2.85,0,0,0-.68-2.6,2.88,2.88,0,0,0-2-1.08c-.91-.06-3.63,1.53-4.08-.4,0-.56-.57-1.92.23-2.49a1.66,1.66,0,0,0,.9-1.47,9.63,9.63,0,0,1,.57-1.7l.57-1.25-.57-2.27a20.32,20.32,0,0,0-2.49-1.58,2.5,2.5,0,0,1-1.7-2.15,21.84,21.84,0,0,0-2.08-4.33,15.22,15.22,0,0,1,.83-2.47c.34-.57,0-1.68.56-2s1.59-.87,1.59-.87l.56-.24-.51-.36s2.28-.45,3.19.91.76,2.43,1.82,1.82.91-2.12,2.12-1.36,1.07.6,2,0,2.27,1.06,2.27,1.06,1,.76,1.52.3,2.29-1.67,2.75-1.06a17.51,17.51,0,0,1,1.36,2.12c.31.61-.45.74-.91,2.13s-2,2-2,2.75-.61,1.82-.15,3.49a20.93,20.93,0,0,1,.61,3.79c.15,1.21,0,2.56.76,3.49s.75,2.45,1.06,3.36a4.65,4.65,0,0,0,2.58,3.18,15.33,15.33,0,0,1,3.64,2.28c1.21,1.06,1.34,2,2.88,2.58s1.69,2.27,3.81.6,3.94-2.88,4.55-3.33a4.48,4.48,0,0,1,3.64-1.52c2.43,0,4.57-.76,4.42.15a3.57,3.57,0,0,1-.91,1.67s-1.67,2.4-.15,3.94S363.74,274.27,363.74,275.18Z"/><path class="cls-1" d="M337,241.31a2.36,2.36,0,0,1,1.59-.56c.79.11,1.13.34,1.7.11s.68-.91,1.59,0,.68,1.59,1.47,1.25a8.61,8.61,0,0,0,2-1.14,5,5,0,0,1,3.17-.45c.79.23,4.08,1.13,4.65,1.25a20.23,20.23,0,0,0,2.72,0c1.7,0,3.17-.23,3.51.79a7.78,7.78,0,0,1,.45,3.29c0,1.92-.34,2.6.45,3.28s.34,1.7,1.48,2.61a2.29,2.29,0,0,0,2.72.45c1.13-.34,2.38-1,4.08-.11s2.15,1.58,3.17,1.47,2.72-.11,3.4.79A4.09,4.09,0,0,1,376,256s.45,1.48-.34,1.82a10.78,10.78,0,0,1-3.28.34c-.8,0-2.95-.57-3.74.9a15.32,15.32,0,0,1-3.52,4.08,24.72,24.72,0,0,0-2.55,2.57,1.94,1.94,0,0,0-1.75-.3c-1.25.23-3.06,0-4.19.45a36.44,36.44,0,0,0-3.74,2.38c-.8.45-2,1.74-2.93,2.17s-1.49,1.12-2.4.44-1.93-.91-2.38-1.48a14.51,14.51,0,0,0-3.51-3.05c-1.7-1-2.38-1.25-2.95-1.93a4.79,4.79,0,0,1-1.58-2.49,21.15,21.15,0,0,0-.8-3.18l-.68-1.58a12.49,12.49,0,0,1-.43-2.22,10,10,0,0,0-.25-2.09,16.32,16.32,0,0,1-.56-3.28c.11-.34.35-1.91.35-1.91s1-1.15,1.46-1.83A8.42,8.42,0,0,0,337,244l.63-1.23Z"/><path class="cls-1" d="M337,241.31a2.36,2.36,0,0,1,1.59-.56c.79.11,1.13.34,1.7.11s.68-.91,1.59,0,.68,1.59,1.47,1.25a8.61,8.61,0,0,0,2-1.14,5,5,0,0,1,3.17-.45c.79.23,4.08,1.13,4.65,1.25a20.23,20.23,0,0,0,2.72,0c1.7,0,3.17-.23,3.51.79a7.78,7.78,0,0,1,.45,3.29c0,1.92-.34,2.6.45,3.28s.34,1.7,1.48,2.61a2.29,2.29,0,0,0,2.72.45c1.13-.34,2.38-1,4.08-.11s2.15,1.58,3.17,1.47,2.72-.11,3.4.79A4.09,4.09,0,0,1,376,256s.45,1.48-.34,1.82a10.78,10.78,0,0,1-3.28.34c-.8,0-2.95-.57-3.74.9a15.32,15.32,0,0,1-3.52,4.08,24.72,24.72,0,0,0-2.55,2.57,1.94,1.94,0,0,0-1.75-.3c-1.25.23-3.06,0-4.19.45a36.44,36.44,0,0,0-3.74,2.38c-.8.45-2,1.74-2.93,2.17s-1.49,1.12-2.4.44-1.93-.91-2.38-1.48a14.51,14.51,0,0,0-3.51-3.05c-1.7-1-2.38-1.25-2.95-1.93a4.79,4.79,0,0,1-1.58-2.49,21.15,21.15,0,0,0-.8-3.18l-.68-1.58a12.49,12.49,0,0,1-.43-2.22,10,10,0,0,0-.25-2.09,16.32,16.32,0,0,1-.56-3.28c.11-.34.35-1.91.35-1.91s1-1.15,1.46-1.83A8.42,8.42,0,0,0,337,244l.63-1.23Z"/><path class="cls-1" d="M299.7,316.78a20.54,20.54,0,0,0,3.52-.12c1.24-.22,2.72-.22,2.94.46a4.21,4.21,0,0,0,.91,1.7,5.47,5.47,0,0,1,1.36,1.92,1.64,1.64,0,0,0,1.13,1.14c.57.22,1.36.11,1.59.56s.68.8-.23,1.25-2.15.34-1.7,1,.91.57,1.36.91-.11.68,1.36.68,3.17-.23,3.51.34,0,2.15,1.48,2,1.7.68,2.26-.34,1.36-2.16,2.16-2.16,2.49.57,4.08.23,1.92-.11,2.94-1.36,1.81-2.49,3.06-2.49,3.17.22,4.19,1.47,1.7,1.81,4.2,2.15,3.62,1,5.21.34A5,5,0,0,0,348,323a8.65,8.65,0,0,0,.23-3.4,14.8,14.8,0,0,1-.45-3.74,17.26,17.26,0,0,1,.45-2.26,8.19,8.19,0,0,0,.79-3.18c.12-1.92-.56-3.4-.45-4.19a8.36,8.36,0,0,1,1.25-2.49,6.14,6.14,0,0,0,.11-1.93l-1.47-1.25-.91-1.69a26.15,26.15,0,0,1-1.93-2.27c-.34-.57-1.58-2.61-1.36-3.51s0-2.72.23-3.06-.34-2.27-.34-2.27a17.14,17.14,0,0,0-1.47-2.49,2,2,0,0,0-1.59-.8,14,14,0,0,0-2.83.57c-.34.11,0,.34-.57.23s-2.38-.23-2.38-.23,0,1-.9,1.13-1.59-.28-2.55.37-1.76,1.11-2.33,1.45-1.36,1.36-1.81,1.7a4.85,4.85,0,0,1-2.23,1c-1,.16-2.64.05-3,.16s-2,.75-2,.75a8.89,8.89,0,0,1-2.28.27,16.11,16.11,0,0,1-2.6-.23l-1.21-.35s-1.4,1.94-1.29,2.73a3.92,3.92,0,0,1-.68,2.84,10.29,10.29,0,0,1-1.51,1.11,6.24,6.24,0,0,0-1.32,1.15l-.68.91-4.55,1.14s1.27,1.69.13,3.05-2.26,1.7-2.94,2.38a2.55,2.55,0,0,0-.8,1.93,13.72,13.72,0,0,0,.12,1.44,11.49,11.49,0,0,0-2,2.64c-.23.79-.91,1.53-.23,2.24A6.48,6.48,0,0,1,299.7,316.78Z"/><path class="cls-1" d="M299.7,316.78a20.54,20.54,0,0,0,3.52-.12c1.24-.22,2.72-.22,2.94.46a4.21,4.21,0,0,0,.91,1.7,5.47,5.47,0,0,1,1.36,1.92,1.64,1.64,0,0,0,1.13,1.14c.57.22,1.36.11,1.59.56s.68.8-.23,1.25-2.15.34-1.7,1,.91.57,1.36.91-.11.68,1.36.68,3.17-.23,3.51.34,0,2.15,1.48,2,1.7.68,2.26-.34,1.36-2.16,2.16-2.16,2.49.57,4.08.23,1.92-.11,2.94-1.36,1.81-2.49,3.06-2.49,3.17.22,4.19,1.47,1.7,1.81,4.2,2.15,3.62,1,5.21.34A5,5,0,0,0,348,323a8.65,8.65,0,0,0,.23-3.4,14.8,14.8,0,0,1-.45-3.74,17.26,17.26,0,0,1,.45-2.26,8.19,8.19,0,0,0,.79-3.18c.12-1.92-.56-3.4-.45-4.19a8.36,8.36,0,0,1,1.25-2.49,6.14,6.14,0,0,0,.11-1.93l-1.47-1.25-.91-1.69a26.15,26.15,0,0,1-1.93-2.27c-.34-.57-1.58-2.61-1.36-3.51s0-2.72.23-3.06-.34-2.27-.34-2.27a17.14,17.14,0,0,0-1.47-2.49,2,2,0,0,0-1.59-.8,14,14,0,0,0-2.83.57c-.34.11,0,.34-.57.23s-2.38-.23-2.38-.23,0,1-.9,1.13-1.59-.28-2.55.37-1.76,1.11-2.33,1.45-1.36,1.36-1.81,1.7a4.85,4.85,0,0,1-2.23,1c-1,.16-2.64.05-3,.16s-2,.75-2,.75a8.89,8.89,0,0,1-2.28.27,16.11,16.11,0,0,1-2.6-.23l-1.21-.35s-1.4,1.94-1.29,2.73a3.92,3.92,0,0,1-.68,2.84,10.29,10.29,0,0,1-1.51,1.11,6.24,6.24,0,0,0-1.32,1.15l-.68.91-4.55,1.14s1.27,1.69.13,3.05-2.26,1.7-2.94,2.38a2.55,2.55,0,0,0-.8,1.93,13.72,13.72,0,0,0,.12,1.44,11.49,11.49,0,0,0-2,2.64c-.23.79-.91,1.53-.23,2.24A6.48,6.48,0,0,1,299.7,316.78Z"/><path class="cls-1" d="M361.46,316.78a7.11,7.11,0,0,0,.9,2,26.29,26.29,0,0,0,2.73,3.71c.26.39.66.13,1.33.93s.93,1.06,1.06,1.59,0,1.73.93,1.73,2.13-.27,3.06.53a11.86,11.86,0,0,1,2,2.53c.66.93,2,1.46,2.66,2.52a2.65,2.65,0,0,0,3.06,1.2c1.06-.4,1.06-1.33,1.86-.53s.4,2,1.19,2.66a4.11,4.11,0,0,1,1.73,3.05c.4,2-.13,1.2.53,2.53a21.71,21.71,0,0,1,1.33,3.59,10.66,10.66,0,0,0,1.73,3.32c.53.66.4,2.13,1.2,2.79s1.06.67.93,1.73-.93,1.73-.93,2.39a13.42,13.42,0,0,1-.67,2.13,2.68,2.68,0,0,0,.67,2.52,6.35,6.35,0,0,1,1.86,1.87c.4.79.4,1.59.93,4.25s1.06,1.86,2,1.19.67-1.72,2.13-1.19,1.06,1.73,3,2,3.33-.66,3.46-1.59-.26-1.2,0-1.73-1.06-1.6-1.06-2.26.8-.66,1.19-2,.8-2.53,1.86-1.6,1.87,2.93,3.46.93.27-2.39,2.26-2.39,3.46,0,4.25-.93a5.18,5.18,0,0,0,1.2-2.26c.53-1.33.8-2.39,1.73-2.53a20.23,20.23,0,0,1,2.26-.13,6.16,6.16,0,0,0,1.81.35,4.15,4.15,0,0,1,2.45,1.44,6.9,6.9,0,0,1,.72,2.6,8.11,8.11,0,0,0,0,1.87,3.43,3.43,0,0,1-.14,1.87,1.83,1.83,0,0,0,.14,1.15s.43-.84.87.6a7.8,7.8,0,0,0,.13,2.41c.22.94,1.92.48,2.23,1.68,0,0,3.6-1.73,4.23-1.89l2.83.32c.94.63,2.36,1.94,2.06,3,.3.94.85,2.78.44,3.67l.84,1.37.53,2.23L438,376.7l1.05,1.75,1.21,1.6-1.9,1.48s-.95,1.74-.54,2.66a13.46,13.46,0,0,1-1.75,2.63s-1.6,1.29-.06,2.17.66-.47,1.48,0c2.25,1.29,1.06.69,2.17,1.81-1,1.55-2.18,1.28-1.46,2.36-.18,1.7-1.44,1.42-.81,3.22a7.32,7.32,0,0,1-2.7,1.32,2.79,2.79,0,0,1-2.77-.28,1.22,1.22,0,0,0-1.31,1.21l-1.95-.58c-.9,1.28-2.09-7.95-2.42-8.53-.78-1.35-.82-3-1.25-2.67a20.05,20.05,0,0,1-2.45,1.44c-.43.14-.14.43-1.29.86a17.93,17.93,0,0,1-2.74.72,7.78,7.78,0,0,1-3.17-.72c-.43-.28-.57-1-1.15-1.15s-1.29-.86-2.16-.57-1.73.43-2,1.15-2.31.72-3.32.43a6.35,6.35,0,0,1-2.44-1.3c-.44-.43-.44-.86-1.59-.86a12.1,12.1,0,0,1-3.45-.72c-.87-.29-.44-1.3-2-1.3a10.91,10.91,0,0,0-4,.58c-1,.43-2.59,1.44-4.18,1.15a5.08,5.08,0,0,0-3.45.43,12.88,12.88,0,0,0-2.45,1.3c-.43.43-1.3,1.3-1.73,1s-.72-.43-.72-1.44a6.46,6.46,0,0,0-.72-3.17,10.47,10.47,0,0,0-1.87-1.44c-.72-.43-2-1.44-2.16-2s0-.86-2-1.44-2.44,0-4.46-.43-2.16-1-3.31-.72-1.3,1.15-3.89.72-2-1-3.89-.43-1.29,1.3-3.31.72-2.16-.86-2.16-.86,1.58-.44.58-2.16a6,6,0,0,0-2.31-2.6,7.08,7.08,0,0,1-1.73-2l-2.73-1.73a5.25,5.25,0,0,0-.58-2.74,5.84,5.84,0,0,0-2-2s-2.16-1-3.32-1.59-1.58-1.15-3.45-1.15a23.7,23.7,0,0,0-4.61.15c-1.58.28-1.58-.58-3.46-.72s-2.16-.87-3,0a5.31,5.31,0,0,0-1.58,1.87c-.87,1.44-1,2.45-2.16,3.17s-1.88.86-2.31,2.44a10.75,10.75,0,0,0-.43,4.76c.29,1.58-.14,2.3.29,4.17s.86,2.59.29,3.6-.72,2-1.3,2.45l-2.16,1.58a15.78,15.78,0,0,1-1,3,4.5,4.5,0,0,1-2,2.16,19.31,19.31,0,0,1-2-1.87,5.34,5.34,0,0,1-1.3-1.88,6.51,6.51,0,0,1-.72-2.88,7.15,7.15,0,0,1,2-2.88,2.67,2.67,0,0,0,1.15-2.59,3.82,3.82,0,0,0-2-3.56c-1.38-.69-2.52-1.15-3.67-1.84s-1.69-.68-2.6-2.29-1.38-1.46-2.75-2.83a6.25,6.25,0,0,1-2.06-3.43c-.23-1.15-1.37-2.52-2.52-3.9s-.69-2.74-.46-3.89,1.15-2.6-.68-2.6-2.06-1.38-3-.92a4.68,4.68,0,0,0-1.46,1.15l-1.14-.6-1.41,1.25-1.76-.65-.92,0-1.57.62-.47-3v-2l-1.12-2.34.18-1.59-.94-3-2.2-1.88-1.1-1.1-.71-3.24h2.12a2,2,0,0,0,.94-1.63,10.59,10.59,0,0,1,.88-3.07l3-.15,2-1,1.89-.47.47-1,1.73-.78a8.3,8.3,0,0,0-.23-1.81c-.08-.7-.08-2.27-.08-2.27l1.09-1.73,1.29-.09a19.36,19.36,0,0,1,2.95-1.33c.63,0,2.06-.65,2.05-3.07a10.06,10.06,0,0,0,1.06-2l2.55-.77s3.13-.93,3.68.48a7.3,7.3,0,0,0,1.82,3c.62.47.31,1.1,1.1,1.41s2.67.79,2.2,1.57-2.54,1.06-2.06,1.63a6.3,6.3,0,0,0,1.9,1.52,6.41,6.41,0,0,0,1.73,0s2.29-.22,3,1.1,1.1,1.35,1.1,1.35l1.89.21a4.53,4.53,0,0,1,1.57-2c.94-.47,1.1-.62,2-.47a38.17,38.17,0,0,0,4.71-.15s1.89-2.52,3.15-3.15a4.44,4.44,0,0,1,3.76-.15c1.42.47,3,2.67,3,2.67s6.55,2,8,.92,3.32-3.12,3.32-5.17-1-4.56-.47-6.12,1.57-3.61,1.25-5.34-1.1-3.93-.47-4.56a7.66,7.66,0,0,0,1.13-1.58l.29-1.41s1.41,1.73,2,2.36,1.57,1.26,1.89,2.2a19.41,19.41,0,0,1,.54,2.63l2.91,3s-1.65,3.26-.19,4.22S361.46,316.78,361.46,316.78Z"/><path class="cls-1" d="M361.46,316.78a7.11,7.11,0,0,0,.9,2,26.29,26.29,0,0,0,2.73,3.71c.26.39.66.13,1.33.93s.93,1.06,1.06,1.59,0,1.73.93,1.73,2.13-.27,3.06.53a11.86,11.86,0,0,1,2,2.53c.66.93,2,1.46,2.66,2.52a2.65,2.65,0,0,0,3.06,1.2c1.06-.4,1.06-1.33,1.86-.53s.4,2,1.19,2.66a4.11,4.11,0,0,1,1.73,3.05c.4,2-.13,1.2.53,2.53a21.71,21.71,0,0,1,1.33,3.59,10.66,10.66,0,0,0,1.73,3.32c.53.66.4,2.13,1.2,2.79s1.06.67.93,1.73-.93,1.73-.93,2.39a13.42,13.42,0,0,1-.67,2.13,2.68,2.68,0,0,0,.67,2.52,6.35,6.35,0,0,1,1.86,1.87c.4.79.4,1.59.93,4.25s1.06,1.86,2,1.19.67-1.72,2.13-1.19,1.06,1.73,3,2,3.33-.66,3.46-1.59-.26-1.2,0-1.73-1.06-1.6-1.06-2.26.8-.66,1.19-2,.8-2.53,1.86-1.6,1.87,2.93,3.46.93.27-2.39,2.26-2.39,3.46,0,4.25-.93a5.18,5.18,0,0,0,1.2-2.26c.53-1.33.8-2.39,1.73-2.53a20.23,20.23,0,0,1,2.26-.13,6.16,6.16,0,0,0,1.81.35,4.15,4.15,0,0,1,2.45,1.44,6.9,6.9,0,0,1,.72,2.6,8.11,8.11,0,0,0,0,1.87,3.43,3.43,0,0,1-.14,1.87,1.83,1.83,0,0,0,.14,1.15s.43-.84.87.6a7.8,7.8,0,0,0,.13,2.41c.22.94,1.92.48,2.23,1.68,0,0,3.6-1.73,4.23-1.89l2.83.32c.94.63,2.36,1.94,2.06,3,.3.94.85,2.78.44,3.67l.84,1.37.53,2.23L438,376.7l1.05,1.75,1.21,1.6-1.9,1.48s-.95,1.74-.54,2.66a13.46,13.46,0,0,1-1.75,2.63s-1.6,1.29-.06,2.17.66-.47,1.48,0c2.25,1.29,1.06.69,2.17,1.81-1,1.55-2.18,1.28-1.46,2.36-.18,1.7-1.44,1.42-.81,3.22a7.32,7.32,0,0,1-2.7,1.32,2.79,2.79,0,0,1-2.77-.28,1.22,1.22,0,0,0-1.31,1.21l-1.95-.58c-.9,1.28-2.09-7.95-2.42-8.53-.78-1.35-.82-3-1.25-2.67a20.05,20.05,0,0,1-2.45,1.44c-.43.14-.14.43-1.29.86a17.93,17.93,0,0,1-2.74.72,7.78,7.78,0,0,1-3.17-.72c-.43-.28-.57-1-1.15-1.15s-1.29-.86-2.16-.57-1.73.43-2,1.15-2.31.72-3.32.43a6.35,6.35,0,0,1-2.44-1.3c-.44-.43-.44-.86-1.59-.86a12.1,12.1,0,0,1-3.45-.72c-.87-.29-.44-1.3-2-1.3a10.91,10.91,0,0,0-4,.58c-1,.43-2.59,1.44-4.18,1.15a5.08,5.08,0,0,0-3.45.43,12.88,12.88,0,0,0-2.45,1.3c-.43.43-1.3,1.3-1.73,1s-.72-.43-.72-1.44a6.46,6.46,0,0,0-.72-3.17,10.47,10.47,0,0,0-1.87-1.44c-.72-.43-2-1.44-2.16-2s0-.86-2-1.44-2.44,0-4.46-.43-2.16-1-3.31-.72-1.3,1.15-3.89.72-2-1-3.89-.43-1.29,1.3-3.31.72-2.16-.86-2.16-.86,1.58-.44.58-2.16a6,6,0,0,0-2.31-2.6,7.08,7.08,0,0,1-1.73-2l-2.73-1.73a5.25,5.25,0,0,0-.58-2.74,5.84,5.84,0,0,0-2-2s-2.16-1-3.32-1.59-1.58-1.15-3.45-1.15a23.7,23.7,0,0,0-4.61.15c-1.58.28-1.58-.58-3.46-.72s-2.16-.87-3,0a5.31,5.31,0,0,0-1.58,1.87c-.87,1.44-1,2.45-2.16,3.17s-1.88.86-2.31,2.44a10.75,10.75,0,0,0-.43,4.76c.29,1.58-.14,2.3.29,4.17s.86,2.59.29,3.6-.72,2-1.3,2.45l-2.16,1.58a15.78,15.78,0,0,1-1,3,4.5,4.5,0,0,1-2,2.16,19.31,19.31,0,0,1-2-1.87,5.34,5.34,0,0,1-1.3-1.88,6.51,6.51,0,0,1-.72-2.88,7.15,7.15,0,0,1,2-2.88,2.67,2.67,0,0,0,1.15-2.59,3.82,3.82,0,0,0-2-3.56c-1.38-.69-2.52-1.15-3.67-1.84s-1.69-.68-2.6-2.29-1.38-1.46-2.75-2.83a6.25,6.25,0,0,1-2.06-3.43c-.23-1.15-1.37-2.52-2.52-3.9s-.69-2.74-.46-3.89,1.15-2.6-.68-2.6-2.06-1.38-3-.92a4.68,4.68,0,0,0-1.46,1.15l-1.14-.6-1.41,1.25-1.76-.65-.92,0-1.57.62-.47-3v-2l-1.12-2.34.18-1.59-.94-3-2.2-1.88-1.1-1.1-.71-3.24h2.12a2,2,0,0,0,.94-1.63,10.59,10.59,0,0,1,.88-3.07l3-.15,2-1,1.89-.47.47-1,1.73-.78a8.3,8.3,0,0,0-.23-1.81c-.08-.7-.08-2.27-.08-2.27l1.09-1.73,1.29-.09a19.36,19.36,0,0,1,2.95-1.33c.63,0,2.06-.65,2.05-3.07a10.06,10.06,0,0,0,1.06-2l2.55-.77s3.13-.93,3.68.48a7.3,7.3,0,0,0,1.82,3c.62.47.31,1.1,1.1,1.41s2.67.79,2.2,1.57-2.54,1.06-2.06,1.63a6.3,6.3,0,0,0,1.9,1.52,6.41,6.41,0,0,0,1.73,0s2.29-.22,3,1.1,1.1,1.35,1.1,1.35l1.89.21a4.53,4.53,0,0,1,1.57-2c.94-.47,1.1-.62,2-.47a38.17,38.17,0,0,0,4.71-.15s1.89-2.52,3.15-3.15a4.44,4.44,0,0,1,3.76-.15c1.42.47,3,2.67,3,2.67s6.55,2,8,.92,3.32-3.12,3.32-5.17-1-4.56-.47-6.12,1.57-3.61,1.25-5.34-1.1-3.93-.47-4.56a7.66,7.66,0,0,0,1.13-1.58l.29-1.41s1.41,1.73,2,2.36,1.57,1.26,1.89,2.2a19.41,19.41,0,0,1,.54,2.63l2.91,3s-1.65,3.26-.19,4.22S361.46,316.78,361.46,316.78Z"/><path class="cls-1" d="M288.81,379.64c11.09,4.17,18.46,7.14,22.13,8.6l.34.66,2.58,2.57-.23,1.36a5.67,5.67,0,0,1-2,.94c-1.26.32-1.1,1-1.89,2.36s-.15,1.1-.62,2.2-.95,2.51-1.73,3.14-1.26.94-1.26.94a29.3,29.3,0,0,1-3,2.67,33.45,33.45,0,0,0-2.67,2.05L298.08,403l-2-2.36s-4.4-4.39-5-4.86a24.56,24.56,0,0,1-2.2-3.15c-.47-.63-1.28-1.77-1.28-1.77a22.63,22.63,0,0,1-.29-3.57c-1.25-2.51,1.42-4.87,1.42-4.87A12,12,0,0,0,288.81,379.64Z"/><path class="cls-1" d="M288.81,379.64c11.09,4.17,18.46,7.14,22.13,8.6l.34.66,2.58,2.57-.23,1.36a5.67,5.67,0,0,1-2,.94c-1.26.32-1.1,1-1.89,2.36s-.15,1.1-.62,2.2-.95,2.51-1.73,3.14-1.26.94-1.26.94a29.3,29.3,0,0,1-3,2.67,33.45,33.45,0,0,0-2.67,2.05L298.08,403l-2-2.36s-4.4-4.39-5-4.86a24.56,24.56,0,0,1-2.2-3.15c-.47-.63-1.28-1.77-1.28-1.77a22.63,22.63,0,0,1-.29-3.57c-1.25-2.51,1.42-4.87,1.42-4.87A12,12,0,0,0,288.81,379.64Z"/><path class="cls-1" d="M335.62,406.18a4.39,4.39,0,0,0,3.15.63,11.65,11.65,0,0,0,3.45-1.73c.79-.63,2.52-1.57,3.78-2.67s2.35-2,3.6-3.3a5.8,5.8,0,0,1,4.09-1.88,10,10,0,0,0,4.24-.94,6.34,6.34,0,0,0,1.26-1.57,24.07,24.07,0,0,1-2-2.05,24.33,24.33,0,0,0-2.83-2.67c-.94-.78-1.73-.63-2.2-1.73s-1.57-1.1-.79-2.67,1.42-1.56,1.42-2.66.13-4.14.13-4.14,1.44-.58,1-1.52a15.05,15.05,0,0,0-1.73-2.36s-2.09-2.33-2.7-2.89-2.36-.86-2.73-1.73-.07-3.23-2.27-4.65a19.53,19.53,0,0,0-4.55-2,6.87,6.87,0,0,0-3.62-.78c-2,0-4.08.15-4.08.15a2.74,2.74,0,0,0-1.41-.63,11,11,0,0,0-2.05-.15c-.62,0-1.25-.63-1.88-.32a12.33,12.33,0,0,0-1.89,1.57s-.47,2.2-1.41,2.68a7,7,0,0,0-2.52,2.2,24.12,24.12,0,0,0-1.1,4.23s.16,3.15.16,4.09a12.64,12.64,0,0,0,.32,3.61,3.91,3.91,0,0,1-.78,3.3c-.79.78-.63,1.73-2.05,2.83s-1.18,2.54-1.69,2.92a24.73,24.73,0,0,0-2,2.16s3.7,1,4.65,2.15,2.35,3,3.6,3.45,5.44,2.4,5.44,2.4l3.05.9,2.36,3Z"/><path class="cls-1" d="M335.62,406.18a4.39,4.39,0,0,0,3.15.63,11.65,11.65,0,0,0,3.45-1.73c.79-.63,2.52-1.57,3.78-2.67s2.35-2,3.6-3.3a5.8,5.8,0,0,1,4.09-1.88,10,10,0,0,0,4.24-.94,6.34,6.34,0,0,0,1.26-1.57,24.07,24.07,0,0,1-2-2.05,24.33,24.33,0,0,0-2.83-2.67c-.94-.78-1.73-.63-2.2-1.73s-1.57-1.1-.79-2.67,1.42-1.56,1.42-2.66.13-4.14.13-4.14,1.44-.58,1-1.52a15.05,15.05,0,0,0-1.73-2.36s-2.09-2.33-2.7-2.89-2.36-.86-2.73-1.73-.07-3.23-2.27-4.65a19.53,19.53,0,0,0-4.55-2,6.87,6.87,0,0,0-3.62-.78c-2,0-4.08.15-4.08.15a2.74,2.74,0,0,0-1.41-.63,11,11,0,0,0-2.05-.15c-.62,0-1.25-.63-1.88-.32a12.33,12.33,0,0,0-1.89,1.57s-.47,2.2-1.41,2.68a7,7,0,0,0-2.52,2.2,24.12,24.12,0,0,0-1.1,4.23s.16,3.15.16,4.09a12.64,12.64,0,0,0,.32,3.61,3.91,3.91,0,0,1-.78,3.3c-.79.78-.63,1.73-2.05,2.83s-1.18,2.54-1.69,2.92a24.73,24.73,0,0,0-2,2.16s3.7,1,4.65,2.15,2.35,3,3.6,3.45,5.44,2.4,5.44,2.4l3.05.9,2.36,3Z"/><path class="cls-1" d="M379.92,398.17a1.82,1.82,0,0,1,.23.39l-2.32,8.84-5.65,8.77-.34,11-1.5.69L367.27,430a1.59,1.59,0,0,0-1.75-2c-2.25,0-4.6.17-4.76-2.18a16.41,16.41,0,0,1,.32-5.81,14.93,14.93,0,0,1,1.25-2.36,2.69,2.69,0,0,0,.27-2.31c-.27-.52-1.28-2.63-1.28-2.63l1.79-1.5a2.72,2.72,0,0,0,.79-1.57c0-.79.94-1.57-.16-1.73a10.52,10.52,0,0,0-2.35-.31,18.43,18.43,0,0,1-2.36-.16l-1.5-.67-1.75,1.45-1.46-.58,1.41-1.46h-2.2l-.63,1.1-4.12.65a18,18,0,0,1-1.17,2.92,6.59,6.59,0,0,1-2.4,1.61l-5,.25-.87,2.92s2.47,1.82.87,2.63a10.67,10.67,0,0,1-3.79.87l.29,2.92s-1.4,2.36-3,1.41-1.23-1.7-1.23-1.7l-1.46,1.45-1.08.1a8.62,8.62,0,0,0,.16-1.42,8.7,8.7,0,0,1,0-2,12.13,12.13,0,0,1,1.57-2.36l1.41-3.14s.79-2.21.94-2.83a13.81,13.81,0,0,1,1.73-2.51l-.16-2.83a4.32,4.32,0,0,0,4.56,0,32.25,32.25,0,0,0,7.54-5.18,11.72,11.72,0,0,1,3.46-3,32.06,32.06,0,0,1,4.71-.94c1.42-.15,3.3-2.35,3.3-2.35s-4.71-4.72-5.81-5.19c-.79-.79-2.2-2.51-2.2-2.51s.31-2.52,1.41-3.3c-.16.15.29-4.92.29-4.92s2.7,1.94,4.74.52a4.83,4.83,0,0,1,4.08.16,7,7,0,0,0,3.14-.16,6.78,6.78,0,0,1,3.62-.16,15.89,15.89,0,0,0,3.45.48c.79,0,3.14.15,3.61.94a14.75,14.75,0,0,0,2.56,2.68c.9.77,1.87,1.44,1.87,1.44s.71,3.76,1.44,4.61-1,2.42-1,3.52a17.22,17.22,0,0,1-.63,3.3S379.45,397.54,379.92,398.17Z"/><path class="cls-1" d="M379.92,398.17a1.82,1.82,0,0,1,.23.39l-2.32,8.84-5.65,8.77-.34,11-1.5.69L367.27,430a1.59,1.59,0,0,0-1.75-2c-2.25,0-4.6.17-4.76-2.18a16.41,16.41,0,0,1,.32-5.81,14.93,14.93,0,0,1,1.25-2.36,2.69,2.69,0,0,0,.27-2.31c-.27-.52-1.28-2.63-1.28-2.63l1.79-1.5a2.72,2.72,0,0,0,.79-1.57c0-.79.94-1.57-.16-1.73a10.52,10.52,0,0,0-2.35-.31,18.43,18.43,0,0,1-2.36-.16l-1.5-.67-1.75,1.45-1.46-.58,1.41-1.46h-2.2l-.63,1.1-4.12.65a18,18,0,0,1-1.17,2.92,6.59,6.59,0,0,1-2.4,1.61l-5,.25-.87,2.92s2.47,1.82.87,2.63a10.67,10.67,0,0,1-3.79.87l.29,2.92s-1.4,2.36-3,1.41-1.23-1.7-1.23-1.7l-1.46,1.45-1.08.1a8.62,8.62,0,0,0,.16-1.42,8.7,8.7,0,0,1,0-2,12.13,12.13,0,0,1,1.57-2.36l1.41-3.14s.79-2.21.94-2.83a13.81,13.81,0,0,1,1.73-2.51l-.16-2.83a4.32,4.32,0,0,0,4.56,0,32.25,32.25,0,0,0,7.54-5.18,11.72,11.72,0,0,1,3.46-3,32.06,32.06,0,0,1,4.71-.94c1.42-.15,3.3-2.35,3.3-2.35s-4.71-4.72-5.81-5.19c-.79-.79-2.2-2.51-2.2-2.51s.31-2.52,1.41-3.3c-.16.15.29-4.92.29-4.92s2.7,1.94,4.74.52a4.83,4.83,0,0,1,4.08.16,7,7,0,0,0,3.14-.16,6.78,6.78,0,0,1,3.62-.16,15.89,15.89,0,0,0,3.45.48c.79,0,3.14.15,3.61.94a14.75,14.75,0,0,0,2.56,2.68c.9.77,1.87,1.44,1.87,1.44s.71,3.76,1.44,4.61-1,2.42-1,3.52a17.22,17.22,0,0,1-.63,3.3S379.45,397.54,379.92,398.17Z"/><path class="cls-1" d="M372,427.12l-.9-6.15-2.83-3.67.28-7.35,3.68-5.38h4.52l3.51-5.9a8.81,8.81,0,0,1,.5,1.54l.47,1.57s2.2,1,1.89,2.2,0,1.89.63,3.62a6.43,6.43,0,0,0,1.1,2.2l.47,1.56.47,2.83h2.36l.47,3.93-1.26,1.57-4.09,3.62-2.35,2.82s-.32,1.26-1.26,1.41a9.79,9.79,0,0,1-3.77-.47,5.53,5.53,0,0,0-3.14-.31Z"/><path class="cls-1" d="M372,427.12l-.9-6.15-2.83-3.67.28-7.35,3.68-5.38h4.52l3.51-5.9a8.81,8.81,0,0,1,.5,1.54l.47,1.57s2.2,1,1.89,2.2,0,1.89.63,3.62a6.43,6.43,0,0,0,1.1,2.2l.47,1.56.47,2.83h2.36l.47,3.93-1.26,1.57-4.09,3.62-2.35,2.82s-.32,1.26-1.26,1.41a9.79,9.79,0,0,1-3.77-.47,5.53,5.53,0,0,0-3.14-.31Z"/><path class="cls-1" d="M382.28,389.37l1.69-1.2c7,11.53,11.36,18.65,13,21.26l-.57,1.13-1.75.69s1.51,1.78,0,2.05a4.91,4.91,0,0,1-2.76-.37,2.87,2.87,0,0,0-2.19.07,8.41,8.41,0,0,0-1.57,1.19h-2.36a8.84,8.84,0,0,0-.94-4.39,25.25,25.25,0,0,1-1.73-3.62l-.16-2.83-1.73-1.57-1.26-3.61.16-3.61.32-1.73,1.41-2.2-.42-1.32Z"/><path class="cls-1" d="M382.28,389.37l1.69-1.2c7,11.53,11.36,18.65,13,21.26l-.57,1.13-1.75.69s1.51,1.78,0,2.05a4.91,4.91,0,0,1-2.76-.37,2.87,2.87,0,0,0-2.19.07,8.41,8.41,0,0,0-1.57,1.19h-2.36a8.84,8.84,0,0,0-.94-4.39,25.25,25.25,0,0,1-1.73-3.62l-.16-2.83-1.73-1.57-1.26-3.61.16-3.61.32-1.73,1.41-2.2-.42-1.32Z"/><path class="cls-1" d="M397.25,408.81l-.3.6c-1.58-2.62-5.86-9.68-12.92-21.28l.45-.33,1.09-.8,2.05-.46,1.4,0,1.43.13a36.17,36.17,0,0,1,4.55-1.57c1.1-.16,2.68-.31,3.46.31A5.4,5.4,0,0,0,401,386.7c.63,0,2.38,0,3.31,1a5.8,5.8,0,0,0,3.6,1.5,3.93,3.93,0,0,0,2.16-.63c.82-.47,2-1.78,4.17-.58s2.26,1.91,4.32,1.87,2.86-1.08,4-1.58a14.36,14.36,0,0,0,2.45-1.44,8.27,8.27,0,0,1,1.25,2.67,21.61,21.61,0,0,1,.78,3c0,.78.47,3.45.47,3.45a5.33,5.33,0,0,0,1.1,2,9.66,9.66,0,0,0,2.52.88l1.56,2.26a2.48,2.48,0,0,1-1.88,1.73,24.77,24.77,0,0,1-2.51.16l-2.54-.65-1.46-.29-.58-2.63-1.55,2.94-2.83-.16-.87-.15-2.74,1.16-1.75.3-2.33-.36.29,2.11h-2.63v2l2,1.17-4.89,8.5-1.57-.31-2.69-2.54-.29-1.55-1.17,1.55-2.6-1.39s-.32-.47.63-.95,1.65-1.37.51-1.86A11.31,11.31,0,0,1,397.25,408.81Z"/><path class="cls-1" d="M397.25,408.81l-.3.6c-1.58-2.62-5.86-9.68-12.92-21.28l.45-.33,1.09-.8,2.05-.46,1.4,0,1.43.13a36.17,36.17,0,0,1,4.55-1.57c1.1-.16,2.68-.31,3.46.31A5.4,5.4,0,0,0,401,386.7c.63,0,2.38,0,3.31,1a5.8,5.8,0,0,0,3.6,1.5,3.93,3.93,0,0,0,2.16-.63c.82-.47,2-1.78,4.17-.58s2.26,1.91,4.32,1.87,2.86-1.08,4-1.58a14.36,14.36,0,0,0,2.45-1.44,8.27,8.27,0,0,1,1.25,2.67,21.61,21.61,0,0,1,.78,3c0,.78.47,3.45.47,3.45a5.33,5.33,0,0,0,1.1,2,9.66,9.66,0,0,0,2.52.88l1.56,2.26a2.48,2.48,0,0,1-1.88,1.73,24.77,24.77,0,0,1-2.51.16l-2.54-.65-1.46-.29-.58-2.63-1.55,2.94-2.83-.16-.87-.15-2.74,1.16-1.75.3-2.33-.36.29,2.11h-2.63v2l2,1.17-4.89,8.5-1.57-.31-2.69-2.54-.29-1.55-1.17,1.55-2.6-1.39s-.32-.47.63-.95,1.65-1.37.51-1.86A11.31,11.31,0,0,1,397.25,408.81Z"/><path class="cls-1" d="M424.07,352.93a6.84,6.84,0,0,0,3-1.1c.79-.79,2-2.51,3.3-3s3-.47,3.61-1.1a12.22,12.22,0,0,1,2.83-2.2c1.42-.78,3.3-1.72,4.09-1.41s3.29.94,4.39,1.26,3.14.31,3.62,1.25.94,2.05.94,2.05l2.67,1.88.16,2.83a1.08,1.08,0,0,0-.63,1.42,3.59,3.59,0,0,0,1.1,2,28.42,28.42,0,0,0,2.67,2c1.26.94,2.2,1.25,2.82,2a17.81,17.81,0,0,1,1.26,1.89s.16,4.24,0,5.34a35.33,35.33,0,0,0-.31,5.65,21.62,21.62,0,0,1-.32,5.5c-.31.79-1.09,2-1.88,2.2s-3.46,1.88-4.56,2.35a10.31,10.31,0,0,1-2.6.61s-1.8-.61-2.58,2.06a8.7,8.7,0,0,1-2,0,6.74,6.74,0,0,0-3.37-3.34,36.25,36.25,0,0,0-.56-3.72c-.15-.79-1.41.47-1.41.47a18.2,18.2,0,0,1-2.11-3.17c-.09-.6.38-2,.22-2.8s0-.63-.15-1.42a5.94,5.94,0,0,0-.63-1.57s-.79-.46-.63-2.35,0-2.51-.95-3.61a5,5,0,0,0-2.51-1.42l-1.73-.16a5.55,5.55,0,0,0-1.56.63c-.79.47-2.68,1.26-2.68,1.26l-2-1.73a21.39,21.39,0,0,0-.31-2.36,5,5,0,0,0-.95-1.25s.32-3,.32-3.62a11.7,11.7,0,0,0-.63-2.35l-.33-.87Z"/><path class="cls-1" d="M424.07,352.93a6.84,6.84,0,0,0,3-1.1c.79-.79,2-2.51,3.3-3s3-.47,3.61-1.1a12.22,12.22,0,0,1,2.83-2.2c1.42-.78,3.3-1.72,4.09-1.41s3.29.94,4.39,1.26,3.14.31,3.62,1.25.94,2.05.94,2.05l2.67,1.88.16,2.83a1.08,1.08,0,0,0-.63,1.42,3.59,3.59,0,0,0,1.1,2,28.42,28.42,0,0,0,2.67,2c1.26.94,2.2,1.25,2.82,2a17.81,17.81,0,0,1,1.26,1.89s.16,4.24,0,5.34a35.33,35.33,0,0,0-.31,5.65,21.62,21.62,0,0,1-.32,5.5c-.31.79-1.09,2-1.88,2.2s-3.46,1.88-4.56,2.35a10.31,10.31,0,0,1-2.6.61s-1.8-.61-2.58,2.06a8.7,8.7,0,0,1-2,0,6.74,6.74,0,0,0-3.37-3.34,36.25,36.25,0,0,0-.56-3.72c-.15-.79-1.41.47-1.41.47a18.2,18.2,0,0,1-2.11-3.17c-.09-.6.38-2,.22-2.8s0-.63-.15-1.42a5.94,5.94,0,0,0-.63-1.57s-.79-.46-.63-2.35,0-2.51-.95-3.61a5,5,0,0,0-2.51-1.42l-1.73-.16a5.55,5.55,0,0,0-1.56.63c-.79.47-2.68,1.26-2.68,1.26l-2-1.73a21.39,21.39,0,0,0-.31-2.36,5,5,0,0,0-.95-1.25s.32-3,.32-3.62a11.7,11.7,0,0,0-.63-2.35l-.33-.87Z"/><path class="cls-1" d="M457.53,391.42a3.84,3.84,0,0,0,2.19-1.58,7.94,7.94,0,0,1,3.62-3.14c1.88-.78,2.2-.47,3.3-1.1a11.27,11.27,0,0,1,2.83-1.1c.63-.16,2.82-.94,4.39.32s.79,1.72,3.14,1.88,3.46.16,5-1.26a6.91,6.91,0,0,1,4.71-2c2.36-.32,2.67.31,3.46-.63a2.84,2.84,0,0,1,3.14-1.1c1.1.47,1.89.78,3.3-.63s2-2.2,4.4-2.67,2.67.16,3.77-.47a6.37,6.37,0,0,1,3.3-.79c1.1,0,2.2,0,2.51-.63a3.08,3.08,0,0,0,.32-2c-.16-.63-.63-.94-1.26-2.36s-1.1-2.82-1.88-3-2.52-1.88-1.73-2.2,2.35-2.51,2.35-2.51a7.23,7.23,0,0,1-.94-2,10.23,10.23,0,0,0-1.57-3,15.29,15.29,0,0,0-2.2-2.83c-1.1-1.1-2.52-2.35-3.46-2.51a10.4,10.4,0,0,0-2.19-.31c-1.89-.16-1.89.15-3.93-.63s-2.52-1.57-3.77-1.42-1.1.63-2.2,1.26-2.2.79-2.83,1.73,0,3.14-2.35,2.82-2.05-.78-2.2-2.19.62-1.89-.95-3-1.41-1.73-2.51-2.67-1.1.16-2-1.26-.16-1.57-.95-2.51-.94-2.36-2.2-2-.15.78-1.88.62-3.14-1.1-4.24-.31-.94,1.73-1.57,2.36a6.28,6.28,0,0,1-2.52,1.57c-1.25.47-1.41.47-1.41,1.57s.47,2.2-.16,3.3-.63,2.2-1.88,1.57a5.15,5.15,0,0,0-2.36-.78,20.35,20.35,0,0,0-3.45-.32s-1.26,2.2.47,3.45,3.78,2.83,4.56,3.3a4.28,4.28,0,0,1,2.19,2.68c.16,1.25-.31,7.38-.31,8.32s.47,5.5.15,6.6-.15,2.83-2.35,3.77-3.93,2.51-4.56,2.35-1.88.79-1.88.79l3.46,1.57s.31,2.36.94,2.67S457.69,390.32,457.53,391.42Z"/><path class="cls-1" d="M457.53,391.42a3.84,3.84,0,0,0,2.19-1.58,7.94,7.94,0,0,1,3.62-3.14c1.88-.78,2.2-.47,3.3-1.1a11.27,11.27,0,0,1,2.83-1.1c.63-.16,2.82-.94,4.39.32s.79,1.72,3.14,1.88,3.46.16,5-1.26a6.91,6.91,0,0,1,4.71-2c2.36-.32,2.67.31,3.46-.63a2.84,2.84,0,0,1,3.14-1.1c1.1.47,1.89.78,3.3-.63s2-2.2,4.4-2.67,2.67.16,3.77-.47a6.37,6.37,0,0,1,3.3-.79c1.1,0,2.2,0,2.51-.63a3.08,3.08,0,0,0,.32-2c-.16-.63-.63-.94-1.26-2.36s-1.1-2.82-1.88-3-2.52-1.88-1.73-2.2,2.35-2.51,2.35-2.51a7.23,7.23,0,0,1-.94-2,10.23,10.23,0,0,0-1.57-3,15.29,15.29,0,0,0-2.2-2.83c-1.1-1.1-2.52-2.35-3.46-2.51a10.4,10.4,0,0,0-2.19-.31c-1.89-.16-1.89.15-3.93-.63s-2.52-1.57-3.77-1.42-1.1.63-2.2,1.26-2.2.79-2.83,1.73,0,3.14-2.35,2.82-2.05-.78-2.2-2.19.62-1.89-.95-3-1.41-1.73-2.51-2.67-1.1.16-2-1.26-.16-1.57-.95-2.51-.94-2.36-2.2-2-.15.78-1.88.62-3.14-1.1-4.24-.31-.94,1.73-1.57,2.36a6.28,6.28,0,0,1-2.52,1.57c-1.25.47-1.41.47-1.41,1.57s.47,2.2-.16,3.3-.63,2.2-1.88,1.57a5.15,5.15,0,0,0-2.36-.78,20.35,20.35,0,0,0-3.45-.32s-1.26,2.2.47,3.45,3.78,2.83,4.56,3.3a4.28,4.28,0,0,1,2.19,2.68c.16,1.25-.31,7.38-.31,8.32s.47,5.5.15,6.6-.15,2.83-2.35,3.77-3.93,2.51-4.56,2.35-1.88.79-1.88.79l3.46,1.57s.31,2.36.94,2.67S457.69,390.32,457.53,391.42Z"/><path class="cls-1" d="M472.13,343.82a11.13,11.13,0,0,1-1.6-3.83,18.37,18.37,0,0,1-.22-3.24c0-1.3-.86-1.08-.86-3s.86-1.08,0-3.24-1.73-3.23-1.52-4.53-1.08-1.95-.43-3.67,1.95-2.16,1.51-4.11-1.72-1.72-.21-3.24,1.08-1.94,2.16-3a40.5,40.5,0,0,0,3-2.81c.65-.86.22-2.59-.21-4.75s.64-2.59-.65-3.24-1.3-1.51-2.16-.43-.65,1.73-2.81,2.16a17.9,17.9,0,0,0-3.67,1.08c-2,.65-3.24,1.29-3.67,2.59s0,3.67-1.52,2.59A5,5,0,0,0,456.7,308s0,1.08-1.51,1.08-2.81-.86-3,.22,1.08,2.16-.22,2.59-1.08.86-1.94.65-.44-1.3-1.3-1.3-.43,1.51-1.3,1.73-1.08-.43-2.16,0a2.48,2.48,0,0,0-1.72,2.16,20.17,20.17,0,0,1,0,2.48,2.11,2.11,0,0,0,1.29,2.49c1.51.65,2.16,1.29,1.95,2.16a6.15,6.15,0,0,0,.43,2.59l1.29,1.94a4.15,4.15,0,0,0,.87,1.95,2.55,2.55,0,0,0,1.94,1.29l.43,1.95a8.51,8.51,0,0,0,.45,2.78c.49,1.34.73,1.94,0,2.8a6.73,6.73,0,0,1-3,2.06c-1.22.37-2.31.13-3.41.73a15.56,15.56,0,0,0-1.65.86c-.49.36-1.83.56-2.32,1a6,6,0,0,0-.88,1.86s4.73,1.43,5.34,1.55,2.29.22,2.67,1,.94,2.05.94,2.05l2.67,1.88.16,2.83s3.41,0,3.9.31,2.63,1.46,3.12.49,1.21-1.83,1.09-2.68-.12-2.68-.12-2.68,1.58-.73,2.43-1.21a6.83,6.83,0,0,0,1.83-1.95c.49-.61.85-2.19,2.43-1.82s3.65.6,3.65.6Z"/><path class="cls-1" d="M472.13,343.82a11.13,11.13,0,0,1-1.6-3.83,18.37,18.37,0,0,1-.22-3.24c0-1.3-.86-1.08-.86-3s.86-1.08,0-3.24-1.73-3.23-1.52-4.53-1.08-1.95-.43-3.67,1.95-2.16,1.51-4.11-1.72-1.72-.21-3.24,1.08-1.94,2.16-3a40.5,40.5,0,0,0,3-2.81c.65-.86.22-2.59-.21-4.75s.64-2.59-.65-3.24-1.3-1.51-2.16-.43-.65,1.73-2.81,2.16a17.9,17.9,0,0,0-3.67,1.08c-2,.65-3.24,1.29-3.67,2.59s0,3.67-1.52,2.59A5,5,0,0,0,456.7,308s0,1.08-1.51,1.08-2.81-.86-3,.22,1.08,2.16-.22,2.59-1.08.86-1.94.65-.44-1.3-1.3-1.3-.43,1.51-1.3,1.73-1.08-.43-2.16,0a2.48,2.48,0,0,0-1.72,2.16,20.17,20.17,0,0,1,0,2.48,2.11,2.11,0,0,0,1.29,2.49c1.51.65,2.16,1.29,1.95,2.16a6.15,6.15,0,0,0,.43,2.59l1.29,1.94a4.15,4.15,0,0,0,.87,1.95,2.55,2.55,0,0,0,1.94,1.29l.43,1.95a8.51,8.51,0,0,0,.45,2.78c.49,1.34.73,1.94,0,2.8a6.73,6.73,0,0,1-3,2.06c-1.22.37-2.31.13-3.41.73a15.56,15.56,0,0,0-1.65.86c-.49.36-1.83.56-2.32,1a6,6,0,0,0-.88,1.86s4.73,1.43,5.34,1.55,2.29.22,2.67,1,.94,2.05.94,2.05l2.67,1.88.16,2.83s3.41,0,3.9.31,2.63,1.46,3.12.49,1.21-1.83,1.09-2.68-.12-2.68-.12-2.68,1.58-.73,2.43-1.21a6.83,6.83,0,0,0,1.83-1.95c.49-.61.85-2.19,2.43-1.82s3.65.6,3.65.6Z"/><path class="cls-1" d="M444.08,313.58s.85-1-1.83-1.58-2.92-.73-3.53-1.46a2.32,2.32,0,0,0-2.07-.85,3.75,3.75,0,0,1-2.67.12c-1.22-.49-2.12-1.1-2.92-1a5.78,5.78,0,0,1-2.27-.48s-1.82-2.07-2.55-1.34-1.46,1.82-1.95,1.58-1.83-1.46-2.8-1.22-1.7-.12-1.95.73a1.77,1.77,0,0,1-2.31,1.1c-1-.37-2.63-.85-3.24-.37a9.81,9.81,0,0,1-1.58.86c-.61.36-1.09,1-1.94.85s-2.32,0-2.8-.37-1.46-1-1.95-.12a6,6,0,0,1-1.22,1.83c-.48.36-1.7,1.21-1.7,1.7s-1.05,1.41-.68,2.63a6,6,0,0,0,1.29,2.55c.49.49,1.95,1.83,2.68,2.44s1.7,2.19,2.43,2.67a26.52,26.52,0,0,1,3,2.56,5.65,5.65,0,0,0,3.41,1.66,11.76,11.76,0,0,1,2.63-.08,2.83,2.83,0,0,1,1.58,1.17s-.37.24-.61,1.22a4.89,4.89,0,0,0-.24,2.67,6.05,6.05,0,0,0,1.34,2.68,9.46,9.46,0,0,1,1.21,2.19c.37.73,2.19,1.7,2.44,2.43s.85,1.54.61,2.15-.49,3.28-1.22,3.77-.61,1.58-1.1,2.19a14.27,14.27,0,0,0-1.09,3.16,4.2,4.2,0,0,1,3.06,1.52c1.32-.42,3.27-.91,3.27-.91l2.19-2.31,1.31-1.1a13,13,0,0,0,2.41-.36,5.56,5.56,0,0,0,1.83-1.1,7,7,0,0,1,1.82-1.46c.61-.24,2.43-1.09,2.43-1.09l2-.7s.32-1.93,1.86-2.3a9.43,9.43,0,0,0,3-1.46,3.4,3.4,0,0,1,1.58-.6,6.18,6.18,0,0,0,3.41-.86c.85-.73,1.7-1.33,1.95-2.19s-.61-2.19-.61-2.67a10.16,10.16,0,0,1-.33-2.05,4.42,4.42,0,0,0-.43-1.95s-1.72-.55-1.94-1.29a10.1,10.1,0,0,0-.95-2.45,9.81,9.81,0,0,1-1.46-2.44,3.68,3.68,0,0,1-.18-1.59,1.94,1.94,0,0,0-.43-1.45,3.22,3.22,0,0,1-1.52-.71,3.18,3.18,0,0,1-1.29-2.49,14.92,14.92,0,0,1,0-2.48A11.82,11.82,0,0,1,444.08,313.58Z"/><path class="cls-1" d="M444.08,313.58s.85-1-1.83-1.58-2.92-.73-3.53-1.46a2.32,2.32,0,0,0-2.07-.85,3.75,3.75,0,0,1-2.67.12c-1.22-.49-2.12-1.1-2.92-1a5.78,5.78,0,0,1-2.27-.48s-1.82-2.07-2.55-1.34-1.46,1.82-1.95,1.58-1.83-1.46-2.8-1.22-1.7-.12-1.95.73a1.77,1.77,0,0,1-2.31,1.1c-1-.37-2.63-.85-3.24-.37a9.81,9.81,0,0,1-1.58.86c-.61.36-1.09,1-1.94.85s-2.32,0-2.8-.37-1.46-1-1.95-.12a6,6,0,0,1-1.22,1.83c-.48.36-1.7,1.21-1.7,1.7s-1.05,1.41-.68,2.63a6,6,0,0,0,1.29,2.55c.49.49,1.95,1.83,2.68,2.44s1.7,2.19,2.43,2.67a26.52,26.52,0,0,1,3,2.56,5.65,5.65,0,0,0,3.41,1.66,11.76,11.76,0,0,1,2.63-.08,2.83,2.83,0,0,1,1.58,1.17s-.37.24-.61,1.22a4.89,4.89,0,0,0-.24,2.67,6.05,6.05,0,0,0,1.34,2.68,9.46,9.46,0,0,1,1.21,2.19c.37.73,2.19,1.7,2.44,2.43s.85,1.54.61,2.15-.49,3.28-1.22,3.77-.61,1.58-1.1,2.19a14.27,14.27,0,0,0-1.09,3.16,4.2,4.2,0,0,1,3.06,1.52c1.32-.42,3.27-.91,3.27-.91l2.19-2.31,1.31-1.1a13,13,0,0,0,2.41-.36,5.56,5.56,0,0,0,1.83-1.1,7,7,0,0,1,1.82-1.46c.61-.24,2.43-1.09,2.43-1.09l2-.7s.32-1.93,1.86-2.3a9.43,9.43,0,0,0,3-1.46,3.4,3.4,0,0,1,1.58-.6,6.18,6.18,0,0,0,3.41-.86c.85-.73,1.7-1.33,1.95-2.19s-.61-2.19-.61-2.67a10.16,10.16,0,0,1-.33-2.05,4.42,4.42,0,0,0-.43-1.95s-1.72-.55-1.94-1.29a10.1,10.1,0,0,0-.95-2.45,9.81,9.81,0,0,1-1.46-2.44,3.68,3.68,0,0,1-.18-1.59,1.94,1.94,0,0,0-.43-1.45,3.22,3.22,0,0,1-1.52-.71,3.18,3.18,0,0,1-1.29-2.49,14.92,14.92,0,0,1,0-2.48A11.82,11.82,0,0,1,444.08,313.58Z"/><path class="cls-1" d="M402.12,316.21c.12.12-1.22-.12-2.8,0a10.25,10.25,0,0,0-3.65.61c-1.1.48-1.95.61-2.68,1.82a18.31,18.31,0,0,0-1.34,3.41c-.36,1-.6.73-.85,1.82a39.21,39.21,0,0,0-.61,4.7c0,.73-.36,2.56,0,3.29s1,1.34.49,2.43-.85,2.19-.85,2.19a17.24,17.24,0,0,0,.12,3.29,16.19,16.19,0,0,1,.37,4.21,13.41,13.41,0,0,0,.12,2.67c0,.73-.73,1.22-.85,2.44a13.06,13.06,0,0,0,0,2.43s.3.78.09,1.18a28.85,28.85,0,0,0-1.39,3.88c-.12.73-.38,2.31.46,3.16a7.62,7.62,0,0,1,2.17,3.05,17.38,17.38,0,0,0,.62,3.07c.36.7.36,2.28,1.33,1.55a14.44,14.44,0,0,0,1.83-1.7s1.7.24,2.19,1,1.1,1.37,1.82,1.17a8.51,8.51,0,0,0,2.07-.44,2,2,0,0,0,1.22-2.06,4.4,4.4,0,0,0-.37-2.19c-.24-.49-1.09-1.46-.49-1.59s1-.24,1.1-.85.2-1.82.8-2.07.54-.43,1.12,0,1.68,1.92,2.29,1.68a5.47,5.47,0,0,0,1.46-1.34,2.37,2.37,0,0,1,1-1.46,8.14,8.14,0,0,1,2.56-.37s2.1-.27,2.69-.9a8.18,8.18,0,0,0,1.2-2.26c.25-.56.05-1.29.73-1.66a5.53,5.53,0,0,1,2.39-.85c.85,0,2.07.12,2.07.12l1.09-3.16a16,16,0,0,1,1.1-2.19,13.31,13.31,0,0,0,1.09-2.68c.25-.61.73-1.65.37-2.14a10.23,10.23,0,0,0-1.58-2c-.73-.61-1.71-1.58-1.71-1.58a8.1,8.1,0,0,1-1.21-2.19,13.83,13.83,0,0,0-1.34-2.68,8.19,8.19,0,0,1,.24-2.67,3.92,3.92,0,0,1,.61-1.22s-.73-1.24-1.58-1.17a5.32,5.32,0,0,1-2.63.08c-1.71-.32-3.77-2-4.38-2.51s-2.8-2.68-2.8-2.68-.24-.61-1.7-1.7a11.16,11.16,0,0,1-2.68-2.44C402.92,318,401.87,316.57,402.12,316.21Z"/><path class="cls-1" d="M402.12,316.21c.12.12-1.22-.12-2.8,0a10.25,10.25,0,0,0-3.65.61c-1.1.48-1.95.61-2.68,1.82a18.31,18.31,0,0,0-1.34,3.41c-.36,1-.6.73-.85,1.82a39.21,39.21,0,0,0-.61,4.7c0,.73-.36,2.56,0,3.29s1,1.34.49,2.43-.85,2.19-.85,2.19a17.24,17.24,0,0,0,.12,3.29,16.19,16.19,0,0,1,.37,4.21,13.41,13.41,0,0,0,.12,2.67c0,.73-.73,1.22-.85,2.44a13.06,13.06,0,0,0,0,2.43s.3.78.09,1.18a28.85,28.85,0,0,0-1.39,3.88c-.12.73-.38,2.31.46,3.16a7.62,7.62,0,0,1,2.17,3.05,17.38,17.38,0,0,0,.62,3.07c.36.7.36,2.28,1.33,1.55a14.44,14.44,0,0,0,1.83-1.7s1.7.24,2.19,1,1.1,1.37,1.82,1.17a8.51,8.51,0,0,0,2.07-.44,2,2,0,0,0,1.22-2.06,4.4,4.4,0,0,0-.37-2.19c-.24-.49-1.09-1.46-.49-1.59s1-.24,1.1-.85.2-1.82.8-2.07.54-.43,1.12,0,1.68,1.92,2.29,1.68a5.47,5.47,0,0,0,1.46-1.34,2.37,2.37,0,0,1,1-1.46,8.14,8.14,0,0,1,2.56-.37s2.1-.27,2.69-.9a8.18,8.18,0,0,0,1.2-2.26c.25-.56.05-1.29.73-1.66a5.53,5.53,0,0,1,2.39-.85c.85,0,2.07.12,2.07.12l1.09-3.16a16,16,0,0,1,1.1-2.19,13.31,13.31,0,0,0,1.09-2.68c.25-.61.73-1.65.37-2.14a10.23,10.23,0,0,0-1.58-2c-.73-.61-1.71-1.58-1.71-1.58a8.1,8.1,0,0,1-1.21-2.19,13.83,13.83,0,0,0-1.34-2.68,8.19,8.19,0,0,1,.24-2.67,3.92,3.92,0,0,1,.61-1.22s-.73-1.24-1.58-1.17a5.32,5.32,0,0,1-2.63.08c-1.71-.32-3.77-2-4.38-2.51s-2.8-2.68-2.8-2.68-.24-.61-1.7-1.7a11.16,11.16,0,0,1-2.68-2.44C402.92,318,401.87,316.57,402.12,316.21Z"/><path class="cls-1" d="M375.17,306.92a2.19,2.19,0,0,1,2.05.94c.61,1.1.85,1.7,1.58,2.07a15.25,15.25,0,0,0,4.51.49,7.77,7.77,0,0,1,3.16.36,4.6,4.6,0,0,1,2.19,1.83c.32.6.93.8.8,1.89a7,7,0,0,0,.25,2.93,5.39,5.39,0,0,1,.73,1.94,4.16,4.16,0,0,0,1.21,2.19,7.35,7.35,0,0,0-.6,1.83c-.13.85-.37,2.11-.61,3.4a9.46,9.46,0,0,0-.37,3.61c.25,1.09.25,1.46.49,2.19s.85,1,.12,1.7a3.68,3.68,0,0,0-1,3.53,38.79,38.79,0,0,1,.48,3.89c.13.69-.12,2.27,0,3.12a4.81,4.81,0,0,1-.24,2.92,5.31,5.31,0,0,0-.24,2.68,5.11,5.11,0,0,1-.12,1.09s-1.66-1.22-1.78-2.19a7.23,7.23,0,0,0-1.22-2.8c-.49-.73-2.43-6.28-2.43-6.28l-.85-3.65L382,335.26s-.53-2.16-.93-2.23a3.32,3.32,0,0,0-1,0,2.54,2.54,0,0,1-1.46.49c-.85,0-1.63-.36-3-1.7a16.25,16.25,0,0,1-2.51-2.8c-.49-.73-.17-1.23-1.54-1.75a5.46,5.46,0,0,0-2.6-.64c-.48.12-.84-.93-1.39-1.62s-.68-1.42-1.53-1.91a7.65,7.65,0,0,1-2.55-2.31c-.49-.85-1.58-2.92-1.58-2.92l-.36-1.13s.84-1.67,1.69-1.18.66.28,1.37.38a4.21,4.21,0,0,1,1.31.47s1.22,1,1.34.25.29-1.4.29-1.4a1.17,1.17,0,0,1,.93-.67,2.21,2.21,0,0,0,1.7-1.05c.49-.73.49-1.34,1.34-1.7a2.82,2.82,0,0,0,1.46-1c.36-.48.5-.87.92-.92s.42-.17.42-.17l.15-1.19Z"/><path class="cls-1" d="M375.17,306.92a2.19,2.19,0,0,1,2.05.94c.61,1.1.85,1.7,1.58,2.07a15.25,15.25,0,0,0,4.51.49,7.77,7.77,0,0,1,3.16.36,4.6,4.6,0,0,1,2.19,1.83c.32.6.93.8.8,1.89a7,7,0,0,0,.25,2.93,5.39,5.39,0,0,1,.73,1.94,4.16,4.16,0,0,0,1.21,2.19,7.35,7.35,0,0,0-.6,1.83c-.13.85-.37,2.11-.61,3.4a9.46,9.46,0,0,0-.37,3.61c.25,1.09.25,1.46.49,2.19s.85,1,.12,1.7a3.68,3.68,0,0,0-1,3.53,38.79,38.79,0,0,1,.48,3.89c.13.69-.12,2.27,0,3.12a4.81,4.81,0,0,1-.24,2.92,5.31,5.31,0,0,0-.24,2.68,5.11,5.11,0,0,1-.12,1.09s-1.66-1.22-1.78-2.19a7.23,7.23,0,0,0-1.22-2.8c-.49-.73-2.43-6.28-2.43-6.28l-.85-3.65L382,335.26s-.53-2.16-.93-2.23a3.32,3.32,0,0,0-1,0,2.54,2.54,0,0,1-1.46.49c-.85,0-1.63-.36-3-1.7a16.25,16.25,0,0,1-2.51-2.8c-.49-.73-.17-1.23-1.54-1.75a5.46,5.46,0,0,0-2.6-.64c-.48.12-.84-.93-1.39-1.62s-.68-1.42-1.53-1.91a7.65,7.65,0,0,1-2.55-2.31c-.49-.85-1.58-2.92-1.58-2.92l-.36-1.13s.84-1.67,1.69-1.18.66.28,1.37.38a4.21,4.21,0,0,1,1.31.47s1.22,1,1.34.25.29-1.4.29-1.4a1.17,1.17,0,0,1,.93-.67,2.21,2.21,0,0,0,1.7-1.05c.49-.73.49-1.34,1.34-1.7a2.82,2.82,0,0,0,1.46-1c.36-.48.5-.87.92-.92s.42-.17.42-.17l.15-1.19Z"/><path class="cls-1" d="M376.25,255.73a3.42,3.42,0,0,1,2.43,1.09c1.34,1.22,1.71,3.12,3.41,3.24s2.31.12,2.8,1.22,0,2,.73,2.8,1.46.36,1.94,1.34a1.78,1.78,0,0,1-.12,2.06,2.59,2.59,0,0,0-.24,2.32c.36.85,1,1.38,1.09,2.31a31.83,31.83,0,0,1,.81,3.11,3.9,3.9,0,0,0,.61,2.68c.73,1.1.12,1.46,1.46,1.58a5.82,5.82,0,0,1,2.43.85,30.57,30.57,0,0,1,1.58,2.68c.25.61-.12,1.58,1,2.31s1.94,1.42,1.21,2.15-1.34,1.33-1.09,2.19-.37,2.43.73,3,2.07,1.34,2.55.61.49-1.95,1.46-1.34,1.78,1.34,1.78,2.07a10.33,10.33,0,0,0,.49,3.4c.36.61.73.37.85,1.58a14.58,14.58,0,0,0,.73,2.88,2,2,0,0,0,.49,2.92,8.2,8.2,0,0,0,2.55,1.7s1.22,2.31.12,2.19-1.34.25-1.46.73-.85.61-.85.61a4.56,4.56,0,0,1-1.22,1.83,20,20,0,0,0-1.7,1.7l-.44,1.41-.24,1.22s-2.92-.61-4-.25-2.43.86-3.28,1.22-2.19,1.22-2.31,2.07a21.77,21.77,0,0,1-.86,2.8s-1-2.07-1.21-2.68a17.9,17.9,0,0,1-.73-2.8,8.21,8.21,0,0,0-.25-2.07,6.28,6.28,0,0,0-2.5-3.35,7.73,7.73,0,0,0-3.65-.73,6.93,6.93,0,0,1-2.32.12,7,7,0,0,1-2.19-.61,8.8,8.8,0,0,0-1.58-2.07,4.85,4.85,0,0,0-2.05-.94,11.11,11.11,0,0,0-1.13-1.7c-.42-.4-.37-1.71-.46-2.15a31.15,31.15,0,0,1-.81-3.56,19.32,19.32,0,0,1-.37-2.92,3.74,3.74,0,0,0-1.09-3.16c-1.1-1.34-1.22-1.22-2.92-2.07s-3.05-.85-3.41-1.7-.73-2.36-1.1-3.05a22.6,22.6,0,0,1-.73-2.26c-.24-.61-1.09-1.46-1-2.8a30.39,30.39,0,0,1,.61-3.41c.12-.6.95-3,.95-3a7.62,7.62,0,0,0-1.07-2.59,26.56,26.56,0,0,1-1.78-2.19,6.9,6.9,0,0,1,.24-2.19,17.74,17.74,0,0,1,1.4-2.46,29.44,29.44,0,0,0,3.42-3c.49-.73,1.83-2.44,2.19-3A2.63,2.63,0,0,1,370.7,258a9.54,9.54,0,0,0,3.77-.12,3.57,3.57,0,0,0,1.53-1Z"/><path class="cls-1" d="M376.25,255.73a3.42,3.42,0,0,1,2.43,1.09c1.34,1.22,1.71,3.12,3.41,3.24s2.31.12,2.8,1.22,0,2,.73,2.8,1.46.36,1.94,1.34a1.78,1.78,0,0,1-.12,2.06,2.59,2.59,0,0,0-.24,2.32c.36.85,1,1.38,1.09,2.31a31.83,31.83,0,0,1,.81,3.11,3.9,3.9,0,0,0,.61,2.68c.73,1.1.12,1.46,1.46,1.58a5.82,5.82,0,0,1,2.43.85,30.57,30.57,0,0,1,1.58,2.68c.25.61-.12,1.58,1,2.31s1.94,1.42,1.21,2.15-1.34,1.33-1.09,2.19-.37,2.43.73,3,2.07,1.34,2.55.61.49-1.95,1.46-1.34,1.78,1.34,1.78,2.07a10.33,10.33,0,0,0,.49,3.4c.36.61.73.37.85,1.58a14.58,14.58,0,0,0,.73,2.88,2,2,0,0,0,.49,2.92,8.2,8.2,0,0,0,2.55,1.7s1.22,2.31.12,2.19-1.34.25-1.46.73-.85.61-.85.61a4.56,4.56,0,0,1-1.22,1.83,20,20,0,0,0-1.7,1.7l-.44,1.41-.24,1.22s-2.92-.61-4-.25-2.43.86-3.28,1.22-2.19,1.22-2.31,2.07a21.77,21.77,0,0,1-.86,2.8s-1-2.07-1.21-2.68a17.9,17.9,0,0,1-.73-2.8,8.21,8.21,0,0,0-.25-2.07,6.28,6.28,0,0,0-2.5-3.35,7.73,7.73,0,0,0-3.65-.73,6.93,6.93,0,0,1-2.32.12,7,7,0,0,1-2.19-.61,8.8,8.8,0,0,0-1.58-2.07,4.85,4.85,0,0,0-2.05-.94,11.11,11.11,0,0,0-1.13-1.7c-.42-.4-.37-1.71-.46-2.15a31.15,31.15,0,0,1-.81-3.56,19.32,19.32,0,0,1-.37-2.92,3.74,3.74,0,0,0-1.09-3.16c-1.1-1.34-1.22-1.22-2.92-2.07s-3.05-.85-3.41-1.7-.73-2.36-1.1-3.05a22.6,22.6,0,0,1-.73-2.26c-.24-.61-1.09-1.46-1-2.8a30.39,30.39,0,0,1,.61-3.41c.12-.6.95-3,.95-3a7.62,7.62,0,0,0-1.07-2.59,26.56,26.56,0,0,1-1.78-2.19,6.9,6.9,0,0,1,.24-2.19,17.74,17.74,0,0,1,1.4-2.46,29.44,29.44,0,0,0,3.42-3c.49-.73,1.83-2.44,2.19-3A2.63,2.63,0,0,1,370.7,258a9.54,9.54,0,0,0,3.77-.12,3.57,3.57,0,0,0,1.53-1Z"/><path class="cls-1" d="M218,193.9a9.81,9.81,0,0,1-2.08.58c-.58,0-1.53-1-2.13-1.56s-.75-1.89-.84-3.06-1.34-2.11-2.25-2.52-1.8.6-2.47,1-.1.47-.66,1.3-5.76,4.76-7,5.72a1.16,1.16,0,0,1-1.88-.23,12.15,12.15,0,0,0-2.43-2.17c-1.15-.67-1.46-.29-2.23,0a7.07,7.07,0,0,0-1.94,1.33c-.7.57-5.84.56-5.84.56l-.46,1.85a18,18,0,0,1-1,3.06c-.38.77-3.86,2-4.53,2.21s-1.53.38-2.1,3.86-3.45,3.54-3.45,3.54l-.62,3v2.83l-2.31-.77-4.29-2.06,7.38,21.46s-4.38,4.9-5.41,5.67-4.29,2.06-3.78,3.61,3.26,10,3.78,11a5,5,0,0,1-.52,4.8c-1.2,1.81-4.55,4.9-3.52,6.7s3.78,5.25,4.29,6.7,1.81,5.32.78,6.61-3.26,5.51-4.55,7-3.61,5.32-3.61,6.87.26,2.57-1,4.38S159,299.9,159,300.93s-1,1.29-1.29,2.84-.51,2.06.26,3.09.26,1-.26,2.32-.25,1,.26,2.32-.26,3,.77,3.51,2.84.26,3.1,2.84,1,3.86,2.06,3.86a3,3,0,0,1,2.83,1.29c.52,1,.94,4.9,4.55,3.87,0,0,2.83.77,3.35-.52s0-3.09-.52-4.38a7.13,7.13,0,0,1-.51-3.09c0-1-.77-1.9.51-4.13s2.32-4.8,4.13-6.86,4.8-6.87,6.35-9.19,3.86-5.15,4.64-6.44,1.54-3.09,1-4.12-1.29-5.32-1.55-8.16-.77-4.73-1-6.7-.51-3,1.29-4.29.51-2.32,1-5.15-.77-5.06,1-5.84,3.44-3.09,4.38-4.12,2.23-3.86,2.74-3.09,1.55,2.32,1.55,1-.26-2.32.77-3.09a26,26,0,0,0,4.38-3.78c1.29-1.54,3.52-2.32,5.32-4.12s3.1-2.83,4.13-2.83,1.8-.26,1.8-1.81a4.61,4.61,0,0,1,1.55-4.12c1.54-1.46,1-2.23,3.09-2s2.23,1.8,4.55,0A8.81,8.81,0,0,0,228.1,227l-.26-1s1.55-5.41,1.81-6.7,0-1.46.25-2.23.78-1.29,0-2.06a8,8,0,0,1-1.28-1.81l-1.81-4.63L225,207l-10.22-.26,6.19-5.83s-.78-1.55-1.81-1.81c0,0-1.2-5.27-1.2-5.2a4.32,4.32,0,0,0,.43.82Z"/><path class="cls-1" d="M218,193.9a9.81,9.81,0,0,1-2.08.58c-.58,0-1.53-1-2.13-1.56s-.75-1.89-.84-3.06-1.34-2.11-2.25-2.52-1.8.6-2.47,1-.1.47-.66,1.3-5.76,4.76-7,5.72a1.16,1.16,0,0,1-1.88-.23,12.15,12.15,0,0,0-2.43-2.17c-1.15-.67-1.46-.29-2.23,0a7.07,7.07,0,0,0-1.94,1.33c-.7.57-5.84.56-5.84.56l-.46,1.85a18,18,0,0,1-1,3.06c-.38.77-3.86,2-4.53,2.21s-1.53.38-2.1,3.86-3.45,3.54-3.45,3.54l-.62,3v2.83l-2.31-.77-4.29-2.06,7.38,21.46s-4.38,4.9-5.41,5.67-4.29,2.06-3.78,3.61,3.26,10,3.78,11a5,5,0,0,1-.52,4.8c-1.2,1.81-4.55,4.9-3.52,6.7s3.78,5.25,4.29,6.7,1.81,5.32.78,6.61-3.26,5.51-4.55,7-3.61,5.32-3.61,6.87.26,2.57-1,4.38S159,299.9,159,300.93s-1,1.29-1.29,2.84-.51,2.06.26,3.09.26,1-.26,2.32-.25,1,.26,2.32-.26,3,.77,3.51,2.84.26,3.1,2.84,1,3.86,2.06,3.86a3,3,0,0,1,2.83,1.29c.52,1,.94,4.9,4.55,3.87,0,0,2.83.77,3.35-.52s0-3.09-.52-4.38a7.13,7.13,0,0,1-.51-3.09c0-1-.77-1.9.51-4.13s2.32-4.8,4.13-6.86,4.8-6.87,6.35-9.19,3.86-5.15,4.64-6.44,1.54-3.09,1-4.12-1.29-5.32-1.55-8.16-.77-4.73-1-6.7-.51-3,1.29-4.29.51-2.32,1-5.15-.77-5.06,1-5.84,3.44-3.09,4.38-4.12,2.23-3.86,2.74-3.09,1.55,2.32,1.55,1-.26-2.32.77-3.09a26,26,0,0,0,4.38-3.78c1.29-1.54,3.52-2.32,5.32-4.12s3.1-2.83,4.13-2.83,1.8-.26,1.8-1.81a4.61,4.61,0,0,1,1.55-4.12c1.54-1.46,1-2.23,3.09-2s2.23,1.8,4.55,0A8.81,8.81,0,0,0,228.1,227l-.26-1s1.55-5.41,1.81-6.7,0-1.46.25-2.23.78-1.29,0-2.06a8,8,0,0,1-1.28-1.81l-1.81-4.63L225,207l-10.22-.26,6.19-5.83s-.78-1.55-1.81-1.81c0,0-1.2-5.27-1.2-5.2a4.32,4.32,0,0,0,.43.82Z"/><path class="cls-1" d="M294.78,411.83s1.89-.46,2.36-1.72.16-1.41,1.26-1.88a15.31,15.31,0,0,0,2-1.1,5.81,5.81,0,0,0-.79-1.58c-.63-.94-.15-1.41-1.57-2.51a5.53,5.53,0,0,1-2-2.36,18.68,18.68,0,0,0-3-3.14l-3.14-3.14-2.38-3.5s1.28,4,1.13,4.76-1,2.82-1,3.45a30.33,30.33,0,0,1-.47,3.77c-.15.63.95,2.05,1.42,2.67s1.57,2.2,2.2,3,1.3.67,1.75,1.43,1.75,2.45,1.75,2.45Z"/><path class="cls-1" d="M294.78,411.83s1.89-.46,2.36-1.72.16-1.41,1.26-1.88a15.31,15.31,0,0,0,2-1.1,5.81,5.81,0,0,0-.79-1.58c-.63-.94-.15-1.41-1.57-2.51a5.53,5.53,0,0,1-2-2.36,18.68,18.68,0,0,0-3-3.14l-3.14-3.14-2.38-3.5s1.28,4,1.13,4.76-1,2.82-1,3.45a30.33,30.33,0,0,1-.47,3.77c-.15.63.95,2.05,1.42,2.67s1.57,2.2,2.2,3,1.3.67,1.75,1.43,1.75,2.45,1.75,2.45Z"/><path class="cls-1" d="M313.86,391.47s1.35.42,2.13.73a5.15,5.15,0,0,1,2.52,1.42,17.5,17.5,0,0,0,2.19,2.51,18.82,18.82,0,0,0,3.14,1.88,8.82,8.82,0,0,0,2.67,1.1c.95.16,4.09,1.26,4.09,1.26l2.36,3,2.66,2.83.16,2.36s-1.26,2-1.73,3-.31,2-.94,2.83a17.82,17.82,0,0,0-1.41,3.14c-.31.63-1.57,1.42-1.57,2.36s-.16,3.46-.16,3.46l-2.71-.68a14.16,14.16,0,0,1-.43-3.57,11.64,11.64,0,0,0,.13-3.14c-.13-.63.18-1.41-.45-2.36a28.3,28.3,0,0,1-1.59-3.29s1,.64,1.46-1.17a18.36,18.36,0,0,0,.58-3.5,19.32,19.32,0,0,1,.59-2.34s1.16-.69,1.16-1.16-.15-1.57-.15-1.57l-1.57-.95-1.49,1.35v3.5a22.25,22.25,0,0,0-2.76.81c-.63.31-1.73,0-2.2.63s-1.27,0-.87,1.19,1.17,4.49,1.17,4.49a10.35,10.35,0,0,1,2.33,3.5,11,11,0,0,1,0,3.54l0,1.12a6.28,6.28,0,0,1-2.63.61c-.93-.16-2.35-.63-3-.78a21.77,21.77,0,0,0-2.35-.63,5.85,5.85,0,0,1-2.68-.79,12.5,12.5,0,0,1-2-1.91A2.48,2.48,0,0,0,308.6,414a17.47,17.47,0,0,1-3.13-1.11c-1.1-.31-2.2-.94-3-.62a4.76,4.76,0,0,1-2.51.78h-3.62l-2-.67a7.38,7.38,0,0,0,2.46-1.68,15.08,15.08,0,0,0,.95-2l2.67-1.57c.78-.48,7.06-5.5,8.16-7.7s1.42-4.71,2.2-5.19,2.83-1.41,2.83-1.41l.16-.79Z"/><path class="cls-1" d="M313.86,391.47s1.35.42,2.13.73a5.15,5.15,0,0,1,2.52,1.42,17.5,17.5,0,0,0,2.19,2.51,18.82,18.82,0,0,0,3.14,1.88,8.82,8.82,0,0,0,2.67,1.1c.95.16,4.09,1.26,4.09,1.26l2.36,3,2.66,2.83.16,2.36s-1.26,2-1.73,3-.31,2-.94,2.83a17.82,17.82,0,0,0-1.41,3.14c-.31.63-1.57,1.42-1.57,2.36s-.16,3.46-.16,3.46l-2.71-.68a14.16,14.16,0,0,1-.43-3.57,11.64,11.64,0,0,0,.13-3.14c-.13-.63.18-1.41-.45-2.36a28.3,28.3,0,0,1-1.59-3.29s1,.64,1.46-1.17a18.36,18.36,0,0,0,.58-3.5,19.32,19.32,0,0,1,.59-2.34s1.16-.69,1.16-1.16-.15-1.57-.15-1.57l-1.57-.95-1.49,1.35v3.5a22.25,22.25,0,0,0-2.76.81c-.63.31-1.73,0-2.2.63s-1.27,0-.87,1.19,1.17,4.49,1.17,4.49a10.35,10.35,0,0,1,2.33,3.5,11,11,0,0,1,0,3.54l0,1.12a6.28,6.28,0,0,1-2.63.61c-.93-.16-2.35-.63-3-.78a21.77,21.77,0,0,0-2.35-.63,5.85,5.85,0,0,1-2.68-.79,12.5,12.5,0,0,1-2-1.91A2.48,2.48,0,0,0,308.6,414a17.47,17.47,0,0,1-3.13-1.11c-1.1-.31-2.2-.94-3-.62a4.76,4.76,0,0,1-2.51.78h-3.62l-2-.67a7.38,7.38,0,0,0,2.46-1.68,15.08,15.08,0,0,0,.95-2l2.67-1.57c.78-.48,7.06-5.5,8.16-7.7s1.42-4.71,2.2-5.19,2.83-1.41,2.83-1.41l.16-.79Z"/><path class="cls-1" d="M309.82,384.84c-.24.47.58,2.29,1.09,3.33-2.42-1-8.9-1.12-14.52-3.39-2.9-1.18-3.76-4-7.51-5.54.34-.59,1.66-.7,1.66-.7l.16-.79-.83-1.26c-.52-.78-.58-1.41-.9-1.88a6.42,6.42,0,0,1-.27-2.2,12.82,12.82,0,0,1-1.14-3.3c0-.94-.63-.78-1.48-1.19s-1.67-.38-2.61-.85.63-1.1,1.57-1.42a29.62,29.62,0,0,0,3.66-1.52c1.14-.59,1.21-.05,2,.11a1.73,1.73,0,0,0,1.26-.16s.62-1.57.94-2.67-1.26-3.61-1.26-3.61l.2-2.54a6.68,6.68,0,0,0,1.46-1.15c.87-.86.7.23,1.32.55a2.47,2.47,0,0,0,.95.31,3.87,3.87,0,0,1,1.88.47c.63.48-.15,1.41-.49,2.19a4.33,4.33,0,0,0-.14,2.52c.16,1.1.63,1.42,1.58,2.36a9.19,9.19,0,0,1,1.88,3.93c.47,1.57,4.47,5.24,4.47,5.24a13.47,13.47,0,0,0,2.6,2.29c.79.31,2.67,1.42,3.67,1.84a4.75,4.75,0,0,1,2,3.56,10.11,10.11,0,0,1-2,3.88A4.08,4.08,0,0,0,309.82,384.84Z"/><path class="cls-1" d="M309.82,384.84c-.24.47.58,2.29,1.09,3.33-2.42-1-8.9-1.12-14.52-3.39-2.9-1.18-3.76-4-7.51-5.54.34-.59,1.66-.7,1.66-.7l.16-.79-.83-1.26c-.52-.78-.58-1.41-.9-1.88a6.42,6.42,0,0,1-.27-2.2,12.82,12.82,0,0,1-1.14-3.3c0-.94-.63-.78-1.48-1.19s-1.67-.38-2.61-.85.63-1.1,1.57-1.42a29.62,29.62,0,0,0,3.66-1.52c1.14-.59,1.21-.05,2,.11a1.73,1.73,0,0,0,1.26-.16s.62-1.57.94-2.67-1.26-3.61-1.26-3.61l.2-2.54a6.68,6.68,0,0,0,1.46-1.15c.87-.86.7.23,1.32.55a2.47,2.47,0,0,0,.95.31,3.87,3.87,0,0,1,1.88.47c.63.48-.15,1.41-.49,2.19a4.33,4.33,0,0,0-.14,2.52c.16,1.1.63,1.42,1.58,2.36a9.19,9.19,0,0,1,1.88,3.93c.47,1.57,4.47,5.24,4.47,5.24a13.47,13.47,0,0,0,2.6,2.29c.79.31,2.67,1.42,3.67,1.84a4.75,4.75,0,0,1,2,3.56,10.11,10.11,0,0,1-2,3.88A4.08,4.08,0,0,0,309.82,384.84Z"/></svg>