<svg id="Layer_1" data-name="Layer 1" xmlns="http://www.w3.org/2000/svg" viewBox="0 0 512 512"><defs><style>.cls-1{fill:#e6e7e8;}.cls-1,.cls-2{stroke:#fff;stroke-linejoin:round;fill-rule:evenodd;}.cls-2{fill:#a7a9ac;}</style></defs><path class="cls-1" d="M509.89,102.75a17.87,17.87,0,0,1-6.69.49,12.45,12.45,0,0,0-5.86.48,5.66,5.66,0,0,0-7.32-1.46c-4.39,2.44-3.77,1.95-8.65,3.42a59.24,59.24,0,0,1-9.27,1.95s-7.32,2.93-4.88,6.34,5.37,3.55,8.3,5.37,3.06-.14,5.85,3.77a16.36,16.36,0,0,0,7.68,5.37s1.46-.49,2.44,3.9-5.37,8.29.48,9.76,9.28,0,9.28,0l-.49-5.86,4.39-4.88,3.56-3.83s2.37-2.51-.35-6.83c0,0,.56-4.33.07-4.33C513.18,107.76,509.89,102.75,509.89,102.75Z"/><path class="cls-1" d="M509.89,102.75a17.87,17.87,0,0,1-6.69.49,12.45,12.45,0,0,0-5.86.48,5.66,5.66,0,0,0-7.32-1.46c-4.39,2.44-3.77,1.95-8.65,3.42a59.24,59.24,0,0,1-9.27,1.95s-7.32,2.93-4.88,6.34,5.37,3.55,8.3,5.37,3.06-.14,5.85,3.77a16.36,16.36,0,0,0,7.68,5.37s1.46-.49,2.44,3.9-5.37,8.29.48,9.76,9.28,0,9.28,0l-.49-5.86,4.39-4.88,3.56-3.83s2.37-2.51-.35-6.83c0,0,.56-4.33.07-4.33C513.18,107.76,509.89,102.75,509.89,102.75Z"/><path class="cls-2" d="M480.89,80.93,468.2,82.88s.35,3.9-6.34,4.88-6.7,1.46-10.61-.49-1.95-2.44-6.34-3.91-4.52-4.39-7.81-2-4.25,4.88-6.69,7.81-2.44,5.72-.49,8.16.49,5.86,1,6.83,2.92,5.37,2.92,5.37V115l-4.39-.49-1.95-2.93-6.34-2s-6-.49-7.81-1.46-3.28-1-5.23-2.44-3.42-2-5.86-1-4.39,2.44-7.81,2.93-5.85.49-4.88-1.47.49-5.85.49-5.85A3,3,0,0,0,388.71,97c-1.95-1.47-2.44-5.37-2.44-5.37a28.42,28.42,0,0,0,.49-4.88c0-2.44-3.42-5.85-3.42-5.85s-2.92-2.44-2.92-4.4.48-7.67.48-7.67S377.49,65.93,378,63s2.92-3.42,1.46-6.35,2.44-4.39-2.44-4.39a45.73,45.73,0,0,1-10.25-1.46,44.75,44.75,0,0,1-2.3-6.21c-1-3.42-3.42-4.39-6.34-4.88s-3.91-2.44-5.86-1-.49,4.39-5.37,3.91-2.79-.49-7.18-2-5.37-1-5.37-1,0,2.44-4.39,2.44S326,44.6,326,44.6a4.06,4.06,0,0,1-3.41,1.46c-2.44,0-2.44,0-2.44-2s-1,.49-1-2.93,1-3.9,1-3.9,3.42-1,3.42-2.93a38.33,38.33,0,0,1,.48-4.88s2.44-1.46,4.39,0a6.09,6.09,0,0,0,4.4,1l3.9,1a2.44,2.44,0,0,1,2-2.93c2.44-.48,4.26-1.95,5.72.49s3.42,3.42,3.42,1,0-2.31,1.95-4.26,6.34-1.95,6.34-1.95L357.62,27s.49-.84,1.46-2.79a7.31,7.31,0,0,1,3.42-2.93s3.28,2.44,5.23,2,3.9,1.46,3.9,1.46l2.93,3.77,2.93,3.42,2.44-1.46L383.34,28s2.44,1.95,2,3.9,2.44,3.42,2.44,3.42l4.74.48s1.47,4.4,3.42,3.42,5.36-1,5.85,1.46,1.47,5.86,1.47,5.86l2.44,4.74L412,54.71s.84-.49,3.28,1,3.9,3.41,5.86,2,1.95-2.44,4.88-2,5.85,1,7.8.48,2.44,2,2.44,2a13.46,13.46,0,0,0,4.75,0c2.44-.49,1.46,1,3.41-1s2.93-2.93,4.88-2.93,2.44.49,4.88,0a4.1,4.1,0,0,1,3.91,1.47l3.77,2.92,2.83-4.83,2.12,2.47,7.24.41,2.29,2.06L476,66.83l3.18,6.84Z"/><path class="cls-2" d="M480.89,80.93,468.2,82.88s.35,3.9-6.34,4.88-6.7,1.46-10.61-.49-1.95-2.44-6.34-3.91-4.52-4.39-7.81-2-4.25,4.88-6.69,7.81-2.44,5.72-.49,8.16.49,5.86,1,6.83,2.92,5.37,2.92,5.37V115l-4.39-.49-1.95-2.93-6.34-2s-6-.49-7.81-1.46-3.28-1-5.23-2.44-3.42-2-5.86-1-4.39,2.44-7.81,2.93-5.85.49-4.88-1.47.49-5.85.49-5.85A3,3,0,0,0,388.71,97c-1.95-1.47-2.44-5.37-2.44-5.37a28.42,28.42,0,0,0,.49-4.88c0-2.44-3.42-5.85-3.42-5.85s-2.92-2.44-2.92-4.4.48-7.67.48-7.67S377.49,65.93,378,63s2.92-3.42,1.46-6.35,2.44-4.39-2.44-4.39a45.73,45.73,0,0,1-10.25-1.46,44.75,44.75,0,0,1-2.3-6.21c-1-3.42-3.42-4.39-6.34-4.88s-3.91-2.44-5.86-1-.49,4.39-5.37,3.91-2.79-.49-7.18-2-5.37-1-5.37-1,0,2.44-4.39,2.44S326,44.6,326,44.6a4.06,4.06,0,0,1-3.41,1.46c-2.44,0-2.44,0-2.44-2s-1,.49-1-2.93,1-3.9,1-3.9,3.42-1,3.42-2.93a38.33,38.33,0,0,1,.48-4.88s2.44-1.46,4.39,0a6.09,6.09,0,0,0,4.4,1l3.9,1a2.44,2.44,0,0,1,2-2.93c2.44-.48,4.26-1.95,5.72.49s3.42,3.42,3.42,1,0-2.31,1.95-4.26,6.34-1.95,6.34-1.95L357.62,27s.49-.84,1.46-2.79a7.31,7.31,0,0,1,3.42-2.93s3.28,2.44,5.23,2,3.9,1.46,3.9,1.46l2.93,3.77,2.93,3.42,2.44-1.46L383.34,28s2.44,1.95,2,3.9,2.44,3.42,2.44,3.42l4.74.48s1.47,4.4,3.42,3.42,5.36-1,5.85,1.46,1.47,5.86,1.47,5.86l2.44,4.74L412,54.71s.84-.49,3.28,1,3.9,3.41,5.86,2,1.95-2.44,4.88-2,5.85,1,7.8.48,2.44,2,2.44,2a13.46,13.46,0,0,0,4.75,0c2.44-.49,1.46,1,3.41-1s2.93-2.93,4.88-2.93,2.44.49,4.88,0a4.1,4.1,0,0,1,3.91,1.47l3.77,2.92,2.83-4.83,2.12,2.47,7.24.41,2.29,2.06L476,66.83l3.18,6.84Z"/><path class="cls-1" d="M389.55,106.16s-3.77,2.44-2.3,4.4a4.94,4.94,0,0,1,1,3.9L393,115a13.41,13.41,0,0,0,3.9.49,20.42,20.42,0,0,1,4.39.48s4.88,1.11,5.37,3.42,1,3.77,2.93,4.74a48.85,48.85,0,0,0,4.75,2,18.93,18.93,0,0,1,5.85,1,74,74,0,0,1,6.83,2.93,11.48,11.48,0,0,1,4.39,3.9s.49,7,.49,9.27a37.58,37.58,0,0,0,1,7.19,44.54,44.54,0,0,0,2.44,6.83s3.28,2,3.28,3.9,1.95,4.53,1.95,6.35-.49,2.3,2,3.77,2.44,4.88,2.44,4.88h-7.32l-3.77.48a9.5,9.5,0,0,0,.49,7.32,82.39,82.39,0,0,1,3.77,7.81v4.75a7,7,0,0,0,.49,6.34,20.48,20.48,0,0,1,2.44,9.76c0,2.44,1,10.11,1,10.11s0-2.44,3.91-3.9a64.25,64.25,0,0,1,10.24-2.44l6.7-2.31s.49-2.93,5.37-1.95a78,78,0,0,0,12,1l.18-11.27a54.06,54.06,0,0,0,2-13c0-6.34.19-9.28.34-11.47s7.82-10.35,7.82-10.35l-.28-6.37,6.71-7.41,4.31-11-5.37.49s-7.32,0-6.35-2.44,2-2,2-4.88a40.72,40.72,0,0,0-.49-5.86L485.14,127l-3.77-3.9-10.73-6.7s-9.76-4.88,1.46-8.78a27.11,27.11,0,0,0,12.56-3.42c3.9-2.44,5.36-1.95,5.36-1.95s3.42-3.41,7.32,1.46c.49.49,3.91-.48,5.86-.48s6.69-.49,6.69-.49,4.4-11.84-14-13.9c-.49-.61-3.91-.61-3.91-.61l-2.8-2.92-8.28-4.39L468.2,82.88s-1.33,4.88-12.55,5.85c1,1-10.74-5.37-10.74-5.37L440,80.44l-4.74,3.41-4.88,5.37-1.47,5.37,1,2.79,1,6.83,2.92,5.37V115l-4.39-.49-1.95-2.93-6.34-2-7.81-1.46-8.65-3.91-8.3,3.91Z"/><path class="cls-1" d="M389.55,106.16s-3.77,2.44-2.3,4.4a4.94,4.94,0,0,1,1,3.9L393,115a13.41,13.41,0,0,0,3.9.49,20.42,20.42,0,0,1,4.39.48s4.88,1.11,5.37,3.42,1,3.77,2.93,4.74a48.85,48.85,0,0,0,4.75,2,18.93,18.93,0,0,1,5.85,1,74,74,0,0,1,6.83,2.93,11.48,11.48,0,0,1,4.39,3.9s.49,7,.49,9.27a37.58,37.58,0,0,0,1,7.19,44.54,44.54,0,0,0,2.44,6.83s3.28,2,3.28,3.9,1.95,4.53,1.95,6.35-.49,2.3,2,3.77,2.44,4.88,2.44,4.88h-7.32l-3.77.48a9.5,9.5,0,0,0,.49,7.32,82.39,82.39,0,0,1,3.77,7.81v4.75a7,7,0,0,0,.49,6.34,20.48,20.48,0,0,1,2.44,9.76c0,2.44,1,10.11,1,10.11s0-2.44,3.91-3.9a64.25,64.25,0,0,1,10.24-2.44l6.7-2.31s.49-2.93,5.37-1.95a78,78,0,0,0,12,1l.18-11.27a54.06,54.06,0,0,0,2-13c0-6.34.19-9.28.34-11.47s7.82-10.35,7.82-10.35l-.28-6.37,6.71-7.41,4.31-11-5.37.49s-7.32,0-6.35-2.44,2-2,2-4.88a40.72,40.72,0,0,0-.49-5.86L485.14,127l-3.77-3.9-10.73-6.7s-9.76-4.88,1.46-8.78a27.11,27.11,0,0,0,12.56-3.42c3.9-2.44,5.36-1.95,5.36-1.95s3.42-3.41,7.32,1.46c.49.49,3.91-.48,5.86-.48s6.69-.49,6.69-.49,4.4-11.84-14-13.9c-.49-.61-3.91-.61-3.91-.61l-2.8-2.92-8.28-4.39L468.2,82.88s-1.33,4.88-12.55,5.85c1,1-10.74-5.37-10.74-5.37L440,80.44l-4.74,3.41-4.88,5.37-1.47,5.37,1,2.79,1,6.83,2.92,5.37V115l-4.39-.49-1.95-2.93-6.34-2-7.81-1.46-8.65-3.91-8.3,3.91Z"/><path class="cls-1" d="M396.87,115.44s2.44,10.6,3.91,14.5.48,9.4,1,12.2,1,4.26,5.37,6.21,6.7,2,9.14,4.88,1.95,2.44,3.9,4.88,3.42,3.06,5.86,8.29a82.38,82.38,0,0,0,5.36,9.63l2.44.48,11.09-.48V173.1l-4.39-5.72L438.57,161l-3.28-3.9-2.93-10.25-1-13-4.39-3.9L420.16,127h-2.93l-7.67-2.93-2.93-4.74-2.44-2.93Z"/><path class="cls-1" d="M396.87,115.44s2.44,10.6,3.91,14.5.48,9.4,1,12.2,1,4.26,5.37,6.21,6.7,2,9.14,4.88,1.95,2.44,3.9,4.88,3.42,3.06,5.86,8.29a82.38,82.38,0,0,0,5.36,9.63l2.44.48,11.09-.48V173.1l-4.39-5.72L438.57,161l-3.28-3.9-2.93-10.25-1-13-4.39-3.9L420.16,127h-2.93l-7.67-2.93-2.93-4.74-2.44-2.93Z"/><path class="cls-1" d="M320.18,46.55s-4.26-1.33-4.75,1,0,6.57-3.41,4.26-1.95-5.23-6.34-5.23-10.12-1.95-12.07-1-3.42,3.28-5.37,4.26-1.95-.49-4.39,2-1,1.95-5.37,3.42-7.67,1.46-9.62,2.93-2.31,2.44-.49,5.85,3.42,5.86,1,7.32-1,4.75-2,7.19a14.2,14.2,0,0,1-5.36,3.9c-2.93,1-2.44,2-5.37.49s-4.39-1-4.88,2.92-1.6,2.93-4.39,2.93-6.7,0-5.72,3.91,2.44,3.28,0,6.69-2.44,4.88-4.39,5.37-2.93-4.39-3.91-1.46a44.35,44.35,0,0,0-1.46,7.32,7,7,0,0,1-3.42,1.46c-2.44.49-.62,1-4.39,2.44s-4.74.49-6.21,2.44,2.44,3.55-2.93,3.9-7.8-1.6-8.29,1.33-3.42,3.42-3.42,6.35-2.3,5.36-4.74,6.83-3.9,0-3.9,2.92,0,3.91,1.95,3.91,3.77-.49,5.72,0,5.37,1.46,5.37,1.46,2.44.84,2.44,2.8.48,3.41,4.87,4.39a47.87,47.87,0,0,1,6.84,2s4.25-.49,5.23,2.44-1.46,2.93,2.44,3.9a17.65,17.65,0,0,1,5.85,2.44,63.67,63.67,0,0,1,6.35,1.95c2.44,1,1.11,1.6,2.93,3.42s2.79-.13,3.28,2.79-.49,2.44,3.9,4.39,4.39,4.4,5.37,6.84,2,2,4.88,1.46,5.36.49,6.34,2.93-.13,2.93,2.8,2.93.48,2.79,3.41,4.25,4.39.49,4.39,2.44,1.47,5.86,3.42,7.32,3.41,2.93,3.41,5.86,2.93,4,4.88,6.34.84,2.31,3.77,2.31,3.42,3.9,3.42,3.9-2.93,6.34,1.46,7.81,8.3-2.44,8.3-2.44l13-1.47s1.46-1.46,5.36-1a35.77,35.77,0,0,0,7.81,0l3.42-.49s-1.47,2.93.49,4.39a50.53,50.53,0,0,1,4.74,4.39l5.37,1.47,4.39-1,2.93,1.95s4.52-3.9,7.8-3.41,5.73-1,9.63,1.46,7.32,3.42,9.27,4.88,4,4.12,5.86,3.28,3.77-4.26,4.74-6.21,1-3.41,2.93-4.39.49-1.46,3.41-2.93a63,63,0,0,0,5.86-3.41s.62-2.44,6.83-.49,7.67,1,11.58-.49a39.84,39.84,0,0,1,8.29-1.95l7.19,1,3.41-2.44s0-10.12-2-14-2.44-2.44-2.44-5.37.49-4,.49-6.34a13.57,13.57,0,0,0-2.79-7.19c-1.47-2-1.47-9.76-1.47-9.76l-2.44-.48s-5.85-10.6-7.8-14-7.32-8.78-7.32-8.78a19,19,0,0,0-5.24-3.42c-3.9-1.95-11.22-1.46-9.27-16,.49,0-4.88-18.4-4.88-18.4l-8.65-1-1.46-5.86,2.79-2.44L388.71,97l-2.44-5.37.49-4.88-3.42-5.85s-3.9-3.77-2.92-8.65-.49-4.4-2-6.84a5.87,5.87,0,0,1-.48-4.87l1.95-8.3-10.25-1s-2.44.14-3.41-3.77S364,41.67,362,40.69a62.36,62.36,0,0,0-7.81-2.44s-1.46,1-3.41,2.44-6,2-8.79,1-5.72-4.39-7.67-2-1,1.46-4.39,2.44-1.47,1-3.91,2.44A18.37,18.37,0,0,1,320.18,46.55Z"/><path class="cls-1" d="M320.18,46.55s-4.26-1.33-4.75,1,0,6.57-3.41,4.26-1.95-5.23-6.34-5.23-10.12-1.95-12.07-1-3.42,3.28-5.37,4.26-1.95-.49-4.39,2-1,1.95-5.37,3.42-7.67,1.46-9.62,2.93-2.31,2.44-.49,5.85,3.42,5.86,1,7.32-1,4.75-2,7.19a14.2,14.2,0,0,1-5.36,3.9c-2.93,1-2.44,2-5.37.49s-4.39-1-4.88,2.92-1.6,2.93-4.39,2.93-6.7,0-5.72,3.91,2.44,3.28,0,6.69-2.44,4.88-4.39,5.37-2.93-4.39-3.91-1.46a44.35,44.35,0,0,0-1.46,7.32,7,7,0,0,1-3.42,1.46c-2.44.49-.62,1-4.39,2.44s-4.74.49-6.21,2.44,2.44,3.55-2.93,3.9-7.8-1.6-8.29,1.33-3.42,3.42-3.42,6.35-2.3,5.36-4.74,6.83-3.9,0-3.9,2.92,0,3.91,1.95,3.91,3.77-.49,5.72,0,5.37,1.46,5.37,1.46,2.44.84,2.44,2.8.48,3.41,4.87,4.39a47.87,47.87,0,0,1,6.84,2s4.25-.49,5.23,2.44-1.46,2.93,2.44,3.9a17.65,17.65,0,0,1,5.85,2.44,63.67,63.67,0,0,1,6.35,1.95c2.44,1,1.11,1.6,2.93,3.42s2.79-.13,3.28,2.79-.49,2.44,3.9,4.39,4.39,4.4,5.37,6.84,2,2,4.88,1.46,5.36.49,6.34,2.93-.13,2.93,2.8,2.93.48,2.79,3.41,4.25,4.39.49,4.39,2.44,1.47,5.86,3.42,7.32,3.41,2.93,3.41,5.86,2.93,4,4.88,6.34.84,2.31,3.77,2.31,3.42,3.9,3.42,3.9-2.93,6.34,1.46,7.81,8.3-2.44,8.3-2.44l13-1.47s1.46-1.46,5.36-1a35.77,35.77,0,0,0,7.81,0l3.42-.49s-1.47,2.93.49,4.39a50.53,50.53,0,0,1,4.74,4.39l5.37,1.47,4.39-1,2.93,1.95s4.52-3.9,7.8-3.41,5.73-1,9.63,1.46,7.32,3.42,9.27,4.88,4,4.12,5.86,3.28,3.77-4.26,4.74-6.21,1-3.41,2.93-4.39.49-1.46,3.41-2.93a63,63,0,0,0,5.86-3.41s.62-2.44,6.83-.49,7.67,1,11.58-.49a39.84,39.84,0,0,1,8.29-1.95l7.19,1,3.41-2.44s0-10.12-2-14-2.44-2.44-2.44-5.37.49-4,.49-6.34a13.57,13.57,0,0,0-2.79-7.19c-1.47-2-1.47-9.76-1.47-9.76l-2.44-.48s-5.85-10.6-7.8-14-7.32-8.78-7.32-8.78a19,19,0,0,0-5.24-3.42c-3.9-1.95-11.22-1.46-9.27-16,.49,0-4.88-18.4-4.88-18.4l-8.65-1-1.46-5.86,2.79-2.44L388.71,97l-2.44-5.37.49-4.88-3.42-5.85s-3.9-3.77-2.92-8.65-.49-4.4-2-6.84a5.87,5.87,0,0,1-.48-4.87l1.95-8.3-10.25-1s-2.44.14-3.41-3.77S364,41.67,362,40.69a62.36,62.36,0,0,0-7.81-2.44s-1.46,1-3.41,2.44-6,2-8.79,1-5.72-4.39-7.67-2-1,1.46-4.39,2.44-1.47,1-3.91,2.44A18.37,18.37,0,0,1,320.18,46.55Z"/><path class="cls-1" d="M193.14,139.21s-7.32-2-7.81.49,2.44,9.49-1,7.18a65.41,65.41,0,0,0-6.34-3.77s1.59,1.33-3.77,2.31-5.86-1-5.86,2.44-1.95,4.39-4.39,1.95a6.35,6.35,0,0,0-5.86-1.46s2,4.39-1.46,5.36-2.57-1.46-4.88,2,1.6,3.9-3.28,5.36-5.37-1-7.81,2.93.49,3.77-4.88,5.24-8.29,4.87-8.29,7.31.62,3.42-2.31,5.37-1,2.93,0,5.86,4.88,3.77-1,5.23-8.29-1.46-8.78,2.44a23.44,23.44,0,0,0,0,8.3A55.46,55.46,0,0,1,116,211s2,6.7-1,7.19-3.41,0-4.39,1.95-2.57,1.47-4.88,2-2.79,0-6.69,2-2.44,2-8.3,2.43S83.4,228,83.4,228L80,231.87a5.31,5.31,0,0,1,2,2.93c.49,1.95-2.44,2.09,2.44,4.88s7.32,2.79,11.71,2.31,12.55-2.44,17.43-1.47a27,27,0,0,0,8.3.49l9.13.49a37.2,37.2,0,0,1,2.93,6.83c1.46,4.39-1,8.29,2,9.76s1.47,2,4.39-1.47,5.37-4.39,7.81-4.88,6.21-2.92,9.14-2.44.49.49,3.41,2.44,5.37-1,6.35,2a16.44,16.44,0,0,1,1,8.29c-.49,2.79.62,4.61,5.37,2.79s9.62-4.25,15.48-2.79,10.6,3.15,15.48,2.31,10.87-1,15.13.48a28.55,28.55,0,0,0,10.6,1.47c3.41,0,5.36-1,10.24,0s5.24-1,9.14,1.46,5.37,5.86,4.39,7.81-1.46,3.9-2.92,5.85-1.82,4.53-4.75,5.37-3.42,1.33-6.34,1.82-4.88,0-3.91,2.93a18.79,18.79,0,0,1,1,5.37s-2.93,1.46-2.93,3.41,1.46,5.86-.49,7.32-2.92,1.6-2.92,3.42-1.47,2.3-2,4.74.49,1.95,0,7.32a23.47,23.47,0,0,1-3.41,9.76s-3.77,1.33-4.26,3.28a20.31,20.31,0,0,1-1.95,4.39s.49,2.44-1.47,2.44-3.41-1-3.9,1.47,0,3.9-2.44,5.36a8.92,8.92,0,0,0-3.41,3.91s3.41,2.92,5.85,1.95,3.55-.49,7.32-1.47,1.33,1,4.75-1.46,3.41-1,5.36-2.93,3.42-1.46,3.42-4.39-1.47-4.88.49-4.88,1,1,4.39,0,2,0,3.9-1.46,3.28-2.31,4.26-4.26-.49-4.39,0-6.34,0-1.95,2.44-3.42,1.95.49,2.44-2.93,0-6.34,2.44-7.8,4.88-.36,4.88-3.77-1.95-5.86,0-7.32a14.65,14.65,0,0,0,3.41-4.39l.49-5.37a9.24,9.24,0,0,0,1.95-4.39c.49-2.8-2.3-4.26,2.44-7.68s5.24-2.92,7.68-4.87,1.46-2.44,5.36-4.4,6.35-2,7.32-3.9,1.95-4.26-.49-5.72-2.92-3.42-2.92-6.34,2.44-3.91,1.46-6.35-2-1.46-2-4.88,1-.62,1.46-4.39-2.44-3.77-.49-6.7,4.88-1.46,3.42-4.88.49-4.39.49-4.39a3.06,3.06,0,0,0,1.46-3.41c-.49-2.44,1.95-5.24,1.95-5.24L286.78,211l-2.44-5.85-3.42-5.37L279,194.92l-4.39-2.44-3.41-4.25-2.8-.49-1.95-3.91L262,182.37l-4.88-1.46L254.71,176l-2.93-2c-2.93-1.95-2.44-1.59-3.9-4.39s-3.28-.84-3.28-2.79.48-2.44-2.93-3.42-3.42-.48-6.35-1.95a51.09,51.09,0,0,0-5.85-2.44l-2.44-3.9a2.61,2.61,0,0,0-2.44-2c-2,0-3.77-1.95-7.67-2.44s-4.39,0-5.37-2.44-3.9-4.75-3.9-4.75a15,15,0,0,0-5.37-1.46,17,17,0,0,0-5.72,0Z"/><path class="cls-1" d="M193.14,139.21s-7.32-2-7.81.49,2.44,9.49-1,7.18a65.41,65.41,0,0,0-6.34-3.77s1.59,1.33-3.77,2.31-5.86-1-5.86,2.44-1.95,4.39-4.39,1.95a6.35,6.35,0,0,0-5.86-1.46s2,4.39-1.46,5.36-2.57-1.46-4.88,2,1.6,3.9-3.28,5.36-5.37-1-7.81,2.93.49,3.77-4.88,5.24-8.29,4.87-8.29,7.31.62,3.42-2.31,5.37-1,2.93,0,5.86,4.88,3.77-1,5.23-8.29-1.46-8.78,2.44a23.44,23.44,0,0,0,0,8.3A55.46,55.46,0,0,1,116,211s2,6.7-1,7.19-3.41,0-4.39,1.95-2.57,1.47-4.88,2-2.79,0-6.69,2-2.44,2-8.3,2.43S83.4,228,83.4,228L80,231.87a5.31,5.31,0,0,1,2,2.93c.49,1.95-2.44,2.09,2.44,4.88s7.32,2.79,11.71,2.31,12.55-2.44,17.43-1.47a27,27,0,0,0,8.3.49l9.13.49a37.2,37.2,0,0,1,2.93,6.83c1.46,4.39-1,8.29,2,9.76s1.47,2,4.39-1.47,5.37-4.39,7.81-4.88,6.21-2.92,9.14-2.44.49.49,3.41,2.44,5.37-1,6.35,2a16.44,16.44,0,0,1,1,8.29c-.49,2.79.62,4.61,5.37,2.79s9.62-4.25,15.48-2.79,10.6,3.15,15.48,2.31,10.87-1,15.13.48a28.55,28.55,0,0,0,10.6,1.47c3.41,0,5.36-1,10.24,0s5.24-1,9.14,1.46,5.37,5.86,4.39,7.81-1.46,3.9-2.92,5.85-1.82,4.53-4.75,5.37-3.42,1.33-6.34,1.82-4.88,0-3.91,2.93a18.79,18.79,0,0,1,1,5.37s-2.93,1.46-2.93,3.41,1.46,5.86-.49,7.32-2.92,1.6-2.92,3.42-1.47,2.3-2,4.74.49,1.95,0,7.32a23.47,23.47,0,0,1-3.41,9.76s-3.77,1.33-4.26,3.28a20.31,20.31,0,0,1-1.95,4.39s.49,2.44-1.47,2.44-3.41-1-3.9,1.47,0,3.9-2.44,5.36a8.92,8.92,0,0,0-3.41,3.91s3.41,2.92,5.85,1.95,3.55-.49,7.32-1.47,1.33,1,4.75-1.46,3.41-1,5.36-2.93,3.42-1.46,3.42-4.39-1.47-4.88.49-4.88,1,1,4.39,0,2,0,3.9-1.46,3.28-2.31,4.26-4.26-.49-4.39,0-6.34,0-1.95,2.44-3.42,1.95.49,2.44-2.93,0-6.34,2.44-7.8,4.88-.36,4.88-3.77-1.95-5.86,0-7.32a14.65,14.65,0,0,0,3.41-4.39l.49-5.37a9.24,9.24,0,0,0,1.95-4.39c.49-2.8-2.3-4.26,2.44-7.68s5.24-2.92,7.68-4.87,1.46-2.44,5.36-4.4,6.35-2,7.32-3.9,1.95-4.26-.49-5.72-2.92-3.42-2.92-6.34,2.44-3.91,1.46-6.35-2-1.46-2-4.88,1-.62,1.46-4.39-2.44-3.77-.49-6.7,4.88-1.46,3.42-4.88.49-4.39.49-4.39a3.06,3.06,0,0,0,1.46-3.41c-.49-2.44,1.95-5.24,1.95-5.24L286.78,211l-2.44-5.85-3.42-5.37L279,194.92l-4.39-2.44-3.41-4.25-2.8-.49-1.95-3.91L262,182.37l-4.88-1.46L254.71,176l-2.93-2c-2.93-1.95-2.44-1.59-3.9-4.39s-3.28-.84-3.28-2.79.48-2.44-2.93-3.42-3.42-.48-6.35-1.95a51.09,51.09,0,0,0-5.85-2.44l-2.44-3.9a2.61,2.61,0,0,0-2.44-2c-2,0-3.77-1.95-7.67-2.44s-4.39,0-5.37-2.44-3.9-4.75-3.9-4.75a15,15,0,0,0-5.37-1.46,17,17,0,0,0-5.72,0Z"/><path class="cls-1" d="M82,236.75s-1.33.14-6.21,2.44S67.49,242,66,244.43s-1.46.48-2.92,4.87,1,2-2.93,6.84-4.75,5.5-6.7,6.83-3.9,2.3-3.9,4.74,2,1.47,0,6.83-2,3.42-2.93,6.35-1.46,3.55-3.9,5.85-2,1.33-4.88,2.31-2.58,0-4.39,2.93a67.57,67.57,0,0,1-5.24,6.83,10.49,10.49,0,0,0,1,5.85c1.46,2.93,5.72,4.26,4.74,8.16s2.31,3.91-.48,7.81-8.17-.49-8.65,3.42,3.41,4.39,1.95,6.83-6.83.62-5.86,3.9,4.88,3.28,2.44,6.7-4.88,6.83-3.41,10.73.48,8.52,4.88,7.19,2.57-3.77,5.85-2.8,4.26.36,4.75,3.29,3.41,6.83,3.41,6.83,7.32,3.41,5.37,6.34-8.78,7.45-4.88,9.27,5.37-1.6,6.83,1.82,2.44,6.83-2.44,8.29-5.85,1.47-5.37,4.88,1.47,8.79-2,6.35-4.74-3.91-6.7-3.42-1,4.39-3.9,3.91-2.44-1-2.93-4.4-1.46-7.32-3.41-5.36-.49,2-2.93,3.9-3.06,3.9-5.85,2.44S1.53,395.37,1,397.32s3.55,5.86,6.83,5.86,6.7.62,8.65,1.95,18.41,7.67,20.36,8.16,15.48,5.86,19.38,7.81,11.71,5.37,13.67,6.34,13,6.7,15,7.68S96.14,440,99.56,442a73.23,73.23,0,0,1,7.18,4.88s-1-3.91,2.44-5.37,1.95-3.42,6.35-1,7.31,7.81,8.78,5.37-1-1,.49-4.39,1.33,0,3.77-2.44-.49-1.46,2-4.39,1.95.35,3.9-3.91,2.44-2.79,1-5.72-1.47-2.92-4.39-1.95-4.26,1-4.75-1.95-.13-2.93,2.31-6.34,4.88-3.55,5.36-6.84.49-4.74,2.44-6.69,2.44-2,2.44-5.37-.48-5.37,1.47-6.34,2.92-1.47,2.92-3.42,1-2.79,2.93-5.72a59.81,59.81,0,0,0,3.42-5.37c2.3-3.9,3.77-4.88,3.77-4.88l2.44-3.41s1-2.93,5.36-.49,7.95,10.25,12.2,7.81,3.29-1,3.77-3.42a19.44,19.44,0,0,1,4.88-8.78c2.93-3.28,3.91-3.28,3.91-6.7s-.49-3.42,1-5.37,3.42-1.95,6.35,0,7.67,5.37,10.11,4.88a37.28,37.28,0,0,0,3.9-1l5.86-5.37s-1.82-6.83,3.9-5.37c0,0,2.31-7.67,7.67-10.11,3.91-4.88,3.42-9.27,3.42-13.18A27.49,27.49,0,0,1,230,311l2.93-3.42.49-4.39s-3.42-2.44.48-5.37,2.44-1,2.44-1-1.46-3.42-1-5.37,2-2.44,3.9-2.93,8.65-.35,10.11-3.77,3.91-7.32,3.91-9.27-3.06-7.81-6.34-8.78-3.29,0-7.19-.49-7.81.49-10.25,0-3.77,1-8.65-.49-6.83-1.95-8.78-1.95H199.4c-3.77,0-11.08-1.82-11.08-1.82s-6.35.13-9.28,1-2.79,1.33-6.2,1.81-4.88-.84-5.37-2.79,3.41-7.32-1-8.29-4.39-.49-6.34-2-2.57-2.92-7.81-1.46-7.18.49-9.14,2.93-2.92,4.88-4.87,5.37-3.91-4.88-3.91-4.88a4.77,4.77,0,0,0-1-5.37c-2.44-2.44-2.93-6.83-2.93-6.83s.62.49-4.26,0a62.33,62.33,0,0,0-8.78-.49c-3.42,0-4.39-.49-4.39-.49s-4.26,0-10.12.49-2.92.49-7.32,1-7.32.48-7.32.48A14.53,14.53,0,0,1,82,236.75Z"/><path class="cls-1" d="M82,236.75s-1.33.14-6.21,2.44S67.49,242,66,244.43s-1.46.48-2.92,4.87,1,2-2.93,6.84-4.75,5.5-6.7,6.83-3.9,2.3-3.9,4.74,2,1.47,0,6.83-2,3.42-2.93,6.35-1.46,3.55-3.9,5.85-2,1.33-4.88,2.31-2.58,0-4.39,2.93a67.57,67.57,0,0,1-5.24,6.83,10.49,10.49,0,0,0,1,5.85c1.46,2.93,5.72,4.26,4.74,8.16s2.31,3.91-.48,7.81-8.17-.49-8.65,3.42,3.41,4.39,1.95,6.83-6.83.62-5.86,3.9,4.88,3.28,2.44,6.7-4.88,6.83-3.41,10.73.48,8.52,4.88,7.19,2.57-3.77,5.85-2.8,4.26.36,4.75,3.29,3.41,6.83,3.41,6.83,7.32,3.41,5.37,6.34-8.78,7.45-4.88,9.27,5.37-1.6,6.83,1.82,2.44,6.83-2.44,8.29-5.85,1.47-5.37,4.88,1.47,8.79-2,6.35-4.74-3.91-6.7-3.42-1,4.39-3.9,3.91-2.44-1-2.93-4.4-1.46-7.32-3.41-5.36-.49,2-2.93,3.9-3.06,3.9-5.85,2.44S1.53,395.37,1,397.32s3.55,5.86,6.83,5.86,6.7.62,8.65,1.95,18.41,7.67,20.36,8.16,15.48,5.86,19.38,7.81,11.71,5.37,13.67,6.34,13,6.7,15,7.68S96.14,440,99.56,442a73.23,73.23,0,0,1,7.18,4.88s-1-3.91,2.44-5.37,1.95-3.42,6.35-1,7.31,7.81,8.78,5.37-1-1,.49-4.39,1.33,0,3.77-2.44-.49-1.46,2-4.39,1.95.35,3.9-3.91,2.44-2.79,1-5.72-1.47-2.92-4.39-1.95-4.26,1-4.75-1.95-.13-2.93,2.31-6.34,4.88-3.55,5.36-6.84.49-4.74,2.44-6.69,2.44-2,2.44-5.37-.48-5.37,1.47-6.34,2.92-1.47,2.92-3.42,1-2.79,2.93-5.72a59.81,59.81,0,0,0,3.42-5.37c2.3-3.9,3.77-4.88,3.77-4.88l2.44-3.41s1-2.93,5.36-.49,7.95,10.25,12.2,7.81,3.29-1,3.77-3.42a19.44,19.44,0,0,1,4.88-8.78c2.93-3.28,3.91-3.28,3.91-6.7s-.49-3.42,1-5.37,3.42-1.95,6.35,0,7.67,5.37,10.11,4.88a37.28,37.28,0,0,0,3.9-1l5.86-5.37s-1.82-6.83,3.9-5.37c0,0,2.31-7.67,7.67-10.11,3.91-4.88,3.42-9.27,3.42-13.18A27.49,27.49,0,0,1,230,311l2.93-3.42.49-4.39s-3.42-2.44.48-5.37,2.44-1,2.44-1-1.46-3.42-1-5.37,2-2.44,3.9-2.93,8.65-.35,10.11-3.77,3.91-7.32,3.91-9.27-3.06-7.81-6.34-8.78-3.29,0-7.19-.49-7.81.49-10.25,0-3.77,1-8.65-.49-6.83-1.95-8.78-1.95H199.4c-3.77,0-11.08-1.82-11.08-1.82s-6.35.13-9.28,1-2.79,1.33-6.2,1.81-4.88-.84-5.37-2.79,3.41-7.32-1-8.29-4.39-.49-6.34-2-2.57-2.92-7.81-1.46-7.18.49-9.14,2.93-2.92,4.88-4.87,5.37-3.91-4.88-3.91-4.88a4.77,4.77,0,0,0-1-5.37c-2.44-2.44-2.93-6.83-2.93-6.83s.62.49-4.26,0a62.33,62.33,0,0,0-8.78-.49c-3.42,0-4.39-.49-4.39-.49s-4.26,0-10.12.49-2.92.49-7.32,1-7.32.48-7.32.48A14.53,14.53,0,0,1,82,236.75Z"/><path class="cls-1" d="M107.18,446.83a5.79,5.79,0,0,1,2.44-5.37c2.92-1.95,3.41-2.44,6.34-1s4.52,5.86,8.78,5.37l.49-4.39L129,439l1.95-4.39,2-1,3.42-6.7-1.46-4.39a20.34,20.34,0,0,0-3.42.49c-2.44.49-4.75,1.46-4.75-1.95s.85-3.42,2.31-6.34a14.51,14.51,0,0,1,4.39-4.88l1.47-4.75,3.41-5.85,1-3.42-1-4.88,2.44-1.46,3.9-7.68L150,375l3.77-4.88s1.95-5.36,4.88-4.88a10.26,10.26,0,0,1,6.83,3.42c2.44,2.44,1.47,6.34,5.37,5.37s6.21-1,6.7-3.42,4.88-8.78,4.88-8.78a4.71,4.71,0,0,0,2.92-3.28c.49-2.44,1-.49,1-3.42s1-8.29,4.88-5.85,12.06,7.8,16.46,4.39l3.9,2.44,9.27-2h2.31s4.88-2.44,7.8-4.39a7.71,7.71,0,0,0,3.42-4.39l.49-4.88s1.46,1,4.39,0,5.5-1.11,6.34-3.41,1.82-2.31,1.82-2.31v-6.34l2.44-3.42,2.93-10.24,5.85-2,1-2.3s5.85,2.3,7.8,3.28,2.8,1.95,7.19,1,10.73-1,13.66-2,8.16-1.11,11.09-1.46,7.32.62,10.74-.84,1.59-2.44,5.85-2.93,5.72,0,9.14.49,2.44-1.95,5.37,0,8.29,4.26,6.34,5.72-3.42,2.44-3.42,4.88-1.46,3.41-1,5.37,3.41,1.95,1,4.88a9.49,9.49,0,0,0-2,6.69l3.42,3.42s.49,3.41,2.44,2.44,2.3-4.39,4.26-2,2,2,1,4.88a34.37,34.37,0,0,0-1.33,5.85s-8.78,7.67-11.71,10.6a40.4,40.4,0,0,1-11.71,8.79c-5.23,2.43-8.65,7-12.55,10.24s-6.83,5.24-8.79,6.7-3.28,3.41-7.18,4.39-6.83-1-5.86,1.46a16.64,16.64,0,0,1,1,5.37,45.51,45.51,0,0,0-.49,6.35c0,3.28-.49,9.13-.49,9.13s-2.92,3.91-1.95,6.83S283.36,427,279,427s-3.9-2.3-4.88,2.44-2.92,6.21-2.92,6.21-.85,2.44-4.75,2.93-2.93,1-5.86,1.47-3.41-1.47-5.36,1-1.6,5.37-6.35,5.86-8.16.48-9.13,3.41,1.46,2.8-2,5.72-4.39,4.4-5.36,8.3-5.86,5.85-5.86,5.85-8.16,6.7-9.14,9.14,0,3.42-3.9,4.39-3.9-1.46-5.37,1.95-2.44,5.86-5.36,4.88-5.24-2-5.24-2-28.65-13-32.56-15-11.08-6.34-18.89-9.76-12.82-6.34-17.57-7.81-9.13-4.25-12.06-5.23S107.18,446.83,107.18,446.83Z"/><path class="cls-1" d="M107.18,446.83a5.79,5.79,0,0,1,2.44-5.37c2.92-1.95,3.41-2.44,6.34-1s4.52,5.86,8.78,5.37l.49-4.39L129,439l1.95-4.39,2-1,3.42-6.7-1.46-4.39a20.34,20.34,0,0,0-3.42.49c-2.44.49-4.75,1.46-4.75-1.95s.85-3.42,2.31-6.34a14.51,14.51,0,0,1,4.39-4.88l1.47-4.75,3.41-5.85,1-3.42-1-4.88,2.44-1.46,3.9-7.68L150,375l3.77-4.88s1.95-5.36,4.88-4.88a10.26,10.26,0,0,1,6.83,3.42c2.44,2.44,1.47,6.34,5.37,5.37s6.21-1,6.7-3.42,4.88-8.78,4.88-8.78a4.71,4.71,0,0,0,2.92-3.28c.49-2.44,1-.49,1-3.42s1-8.29,4.88-5.85,12.06,7.8,16.46,4.39l3.9,2.44,9.27-2h2.31s4.88-2.44,7.8-4.39a7.71,7.71,0,0,0,3.42-4.39l.49-4.88s1.46,1,4.39,0,5.5-1.11,6.34-3.41,1.82-2.31,1.82-2.31v-6.34l2.44-3.42,2.93-10.24,5.85-2,1-2.3s5.85,2.3,7.8,3.28,2.8,1.95,7.19,1,10.73-1,13.66-2,8.16-1.11,11.09-1.46,7.32.62,10.74-.84,1.59-2.44,5.85-2.93,5.72,0,9.14.49,2.44-1.95,5.37,0,8.29,4.26,6.34,5.72-3.42,2.44-3.42,4.88-1.46,3.41-1,5.37,3.41,1.95,1,4.88a9.49,9.49,0,0,0-2,6.69l3.42,3.42s.49,3.41,2.44,2.44,2.3-4.39,4.26-2,2,2,1,4.88a34.37,34.37,0,0,0-1.33,5.85s-8.78,7.67-11.71,10.6a40.4,40.4,0,0,1-11.71,8.79c-5.23,2.43-8.65,7-12.55,10.24s-6.83,5.24-8.79,6.7-3.28,3.41-7.18,4.39-6.83-1-5.86,1.46a16.64,16.64,0,0,1,1,5.37,45.51,45.51,0,0,0-.49,6.35c0,3.28-.49,9.13-.49,9.13s-2.92,3.91-1.95,6.83S283.36,427,279,427s-3.9-2.3-4.88,2.44-2.92,6.21-2.92,6.21-.85,2.44-4.75,2.93-2.93,1-5.86,1.47-3.41-1.47-5.36,1-1.6,5.37-6.35,5.86-8.16.48-9.13,3.41,1.46,2.8-2,5.72-4.39,4.4-5.36,8.3-5.86,5.85-5.86,5.85-8.16,6.7-9.14,9.14,0,3.42-3.9,4.39-3.9-1.46-5.37,1.95-2.44,5.86-5.36,4.88-5.24-2-5.24-2-28.65-13-32.56-15-11.08-6.34-18.89-9.76-12.82-6.34-17.57-7.81-9.13-4.25-12.06-5.23S107.18,446.83,107.18,446.83Z"/><path class="cls-1" d="M271.17,437.56s2.43,6.83,5.85,8.78,2.44,5.23,5.86,8.65,3.06,3.41,7.8,4.39,2.8.49,7.68,3.9,5.85,2,8.78,3.42,3.41,1.95,6.34,4.88,1.82,3.06,6.7,4.88,2.44,3.15,8.78,1.82S339.08,475,342,475s1.95,0,6.35-1,5.85-1,8.78-2.44,3.9.49,5.37-2.44.13-1.47,1.95-4.39,1.82-5.5,1.82-9.27-1.47-6.7-.49-9.63,2.93-5.85,2.44-9.76,1-5.23-1-10.11.14-3.42-3.28-7.32-4.88-3.42-4.39-6.34-.49-2.31,2.44-6.21,3.9-3.42,2.93-6.35-1.33-2.92-.49-6.34,3.28-8.65,2.3-11.58-2.44-5.85-1.46-9.27a22.9,22.9,0,0,0,1-7.32,35,35,0,0,1,1.46-8.65c1-3.41-.49-3.41-.49-6.34s-1-4.88-.49-9.27,0-4.75,0-7.67V326s-7.18,5-10.11,8.29-4.88,7.19-8.78,10.12a59,59,0,0,0-6.7,5.85l-3.9,3.9-10.74,10.12a94.35,94.35,0,0,0-10.6,5.85c-3.41,2.44-5.37,2.93-7.32,5.86s-9.76,8.16-9.76,8.16S294.1,389,292.15,390s-8.79,2.44-8.79,2.44v3.42l.49,8.3-.49,9.13s-2.92,3.42-1.95,6.83S279,427,279,427l-3.9-.48-3.9,9.13Z"/><path class="cls-1" d="M271.17,437.56s2.43,6.83,5.85,8.78,2.44,5.23,5.86,8.65,3.06,3.41,7.8,4.39,2.8.49,7.68,3.9,5.85,2,8.78,3.42,3.41,1.95,6.34,4.88,1.82,3.06,6.7,4.88,2.44,3.15,8.78,1.82S339.08,475,342,475s1.95,0,6.35-1,5.85-1,8.78-2.44,3.9.49,5.37-2.44.13-1.47,1.95-4.39,1.82-5.5,1.82-9.27-1.47-6.7-.49-9.63,2.93-5.85,2.44-9.76,1-5.23-1-10.11.14-3.42-3.28-7.32-4.88-3.42-4.39-6.34-.49-2.31,2.44-6.21,3.9-3.42,2.93-6.35-1.33-2.92-.49-6.34,3.28-8.65,2.3-11.58-2.44-5.85-1.46-9.27a22.9,22.9,0,0,0,1-7.32,35,35,0,0,1,1.46-8.65c1-3.41-.49-3.41-.49-6.34s-1-4.88-.49-9.27,0-4.75,0-7.67V326s-7.18,5-10.11,8.29-4.88,7.19-8.78,10.12a59,59,0,0,0-6.7,5.85l-3.9,3.9-10.74,10.12a94.35,94.35,0,0,0-10.6,5.85c-3.41,2.44-5.37,2.93-7.32,5.86s-9.76,8.16-9.76,8.16S294.1,389,292.15,390s-8.79,2.44-8.79,2.44v3.42l.49,8.3-.49,9.13s-2.92,3.42-1.95,6.83S279,427,279,427l-3.9-.48-3.9,9.13Z"/><path class="cls-1" d="M355.18,234.31s-3.42,6.21-.49,10.12,3.42,3.41,3.42,6.83-1,3.55,0,9.75,1.46,5.73,1,11.09-1,2.93.49,7.81,0,7.19,1.95,8.16,2.57-2.93,3.42,1.95a21.94,21.94,0,0,0,2.79,7.81s1.95,2.44,1,4.39-.49,5,.48,7.32,1.47.36.49,4.26-2.44,4.88-1.46,6.83a7.83,7.83,0,0,1,.49,4.39l-6.21,4.39-7.32,7.68-3.91,4.39-10.11,8.78s1.82-3.9,1.33-5.85,1.33-4.4-1-4.88-1.82,2.92-4.26,2,1-.49-2.44-2.44-3.42-3.42-3.42-3.42V329.9l2.93-3.41s-1.95,0-1.95-2.44.49-6.35,2.44-7.32a3.47,3.47,0,0,0,1.95-2.93l-6.34-5.72h-5.37l-9.14-.49-5.85,2.93-7.81.49-11.58,1.33-10.73,2-9.76,1.46-10.6-5.23-1.95-6.35,5.36-5.36.49-5.37,1.95-4.39v-5.72l10.12-6.83,5.36-4.4,7.32-3.9.49-3.9-3.9-4.75v-3.41l1-4.4.49-2-2-2.44v-2.44l1.46-4.39-.49-6.7,2.93-2.44,1-6.83,1.46-3.41.49-2.93s-2.09-2.93,3.28-1.46,4.39,1,3.42,3.9-2.44,8.29,1.46,7.81,5.37-2,8.3-2.44,5.5-.49,8.78-1,6.21-1,6.21-1l8.78-.49,5.86-.49s-1.33,4.88,2.92,6.83,5.24,4.39,7.68,3.42a13,13,0,0,1,4.39-1Z"/><path class="cls-1" d="M355.18,234.31s-3.42,6.21-.49,10.12,3.42,3.41,3.42,6.83-1,3.55,0,9.75,1.46,5.73,1,11.09-1,2.93.49,7.81,0,7.19,1.95,8.16,2.57-2.93,3.42,1.95a21.94,21.94,0,0,0,2.79,7.81s1.95,2.44,1,4.39-.49,5,.48,7.32,1.47.36.49,4.26-2.44,4.88-1.46,6.83a7.83,7.83,0,0,1,.49,4.39l-6.21,4.39-7.32,7.68-3.91,4.39-10.11,8.78s1.82-3.9,1.33-5.85,1.33-4.4-1-4.88-1.82,2.92-4.26,2,1-.49-2.44-2.44-3.42-3.42-3.42-3.42V329.9l2.93-3.41s-1.95,0-1.95-2.44.49-6.35,2.44-7.32a3.47,3.47,0,0,0,1.95-2.93l-6.34-5.72h-5.37l-9.14-.49-5.85,2.93-7.81.49-11.58,1.33-10.73,2-9.76,1.46-10.6-5.23-1.95-6.35,5.36-5.36.49-5.37,1.95-4.39v-5.72l10.12-6.83,5.36-4.4,7.32-3.9.49-3.9-3.9-4.75v-3.41l1-4.4.49-2-2-2.44v-2.44l1.46-4.39-.49-6.7,2.93-2.44,1-6.83,1.46-3.41.49-2.93s-2.09-2.93,3.28-1.46,4.39,1,3.42,3.9-2.44,8.29,1.46,7.81,5.37-2,8.3-2.44,5.5-.49,8.78-1,6.21-1,6.21-1l8.78-.49,5.86-.49s-1.33,4.88,2.92,6.83,5.24,4.39,7.68,3.42a13,13,0,0,1,4.39-1Z"/><path class="cls-1" d="M405.17,225.53l-1.95,13.66a7.17,7.17,0,0,1,6.34,2.8c2.93,3.41,1.95,4.87,2.44,6.83s2.31,6.34,5.72,7.32,7.81,1.1,8.78,4.87,4.4,7.19-1,8.17-7.32,1.95-7.81,3.9-.49,11.36-2.44,14.15-2.08,3.77-2.44,6.7-4.26,6.34-6.7,10.24-1.95,3.77-1.95,8.17-2.44,14.15-2.44,14.15,0,1-2.44-4.4-3.41-6.34-5.85-5.85-3.77-.49-7.19,1.46-1.95,3.42-4.88,3.91-1.95,1-6.83,1.46-5.85,1.95-5.85,1.95l-1-7.81,2.93-5.36-2.44-5.72.49-3.91-1-4.39-2.44-3.9-.84-5.86h-2.93l-1.95-2.79v-5.37l-1.46-5.85.48-8.79-1-11.57.49-5.37-4.4-6.83,1.47-7.19,4.88-3.9,8.65,1L378,234.8l3.9,2.44L385.3,241l2.92-2.79,4.26-3.91,2.93-4.39,7.32-5.37Z"/><path class="cls-1" d="M405.17,225.53l-1.95,13.66a7.17,7.17,0,0,1,6.34,2.8c2.93,3.41,1.95,4.87,2.44,6.83s2.31,6.34,5.72,7.32,7.81,1.1,8.78,4.87,4.4,7.19-1,8.17-7.32,1.95-7.81,3.9-.49,11.36-2.44,14.15-2.08,3.77-2.44,6.7-4.26,6.34-6.7,10.24-1.95,3.77-1.95,8.17-2.44,14.15-2.44,14.15,0,1-2.44-4.4-3.41-6.34-5.85-5.85-3.77-.49-7.19,1.46-1.95,3.42-4.88,3.91-1.95,1-6.83,1.46-5.85,1.95-5.85,1.95l-1-7.81,2.93-5.36-2.44-5.72.49-3.91-1-4.39-2.44-3.9-.84-5.86h-2.93l-1.95-2.79v-5.37l-1.46-5.85.48-8.79-1-11.57.49-5.37-4.4-6.83,1.47-7.19,4.88-3.9,8.65,1L378,234.8l3.9,2.44L385.3,241l2.92-2.79,4.26-3.91,2.93-4.39,7.32-5.37Z"/><path class="cls-1" d="M366.27,422.08l4.88-8.3s4.39-6.21,9.27-12.06a44,44,0,0,1,8.65-8.3l10.24-.49,1-17.92s-2.93-17.92-2.44-20.85S400.29,340,400.29,340l1.46-13.52-4.88-10.25-6.34-.49-7.19,3.9-1.95,2-10.73,2.44L366.75,326l.49,24.26s-.49,7.67-1,12.55-1.47,13.67-1,16.11,1.46,1.81,1,6.21a44.19,44.19,0,0,1-1.82,8.29l.49,10.25-5.86,5.72v4.88Z"/><path class="cls-1" d="M366.27,422.08l4.88-8.3s4.39-6.21,9.27-12.06a44,44,0,0,1,8.65-8.3l10.24-.49,1-17.92s-2.93-17.92-2.44-20.85S400.29,340,400.29,340l1.46-13.52-4.88-10.25-6.34-.49-7.19,3.9-1.95,2-10.73,2.44L366.75,326l.49,24.26s-.49,7.67-1,12.55-1.47,13.67-1,16.11,1.46,1.81,1,6.21a44.19,44.19,0,0,1-1.82,8.29l.49,10.25-5.86,5.72v4.88Z"/></svg>