<svg id="Layer_2" data-name="Layer 2" xmlns="http://www.w3.org/2000/svg" viewBox="0 0 512 512"><defs><style>.cls-1{fill:#ee402f;}.cls-2{fill:#fff;}.cls-3{fill:#008ccf;}.cls-4{fill:none;stroke:#231f20;stroke-miterlimit:3.86;stroke-width:6.76px;}.cls-5{fill:#231f20;fill-rule:evenodd;}</style></defs><polygon class="cls-1" points="0 320.41 512 320.41 512 512 0 512 0 320.41 0 320.41"/><polygon class="cls-2" points="0 193.42 512 193.42 512 320.41 0 320.41 0 193.42 0 193.42"/><polygon class="cls-3" points="0 0 512 0 512 193.42 0 193.42 0 0 0 0"/><polygon class="cls-2" points="205 113.77 321.79 113.77 321.79 197.09 402.63 197.09 402.63 317.46 321.79 317.46 321.79 400.78 205 400.78 205 317.46 124.17 317.46 124.17 197.09 205 197.09 205 113.77"/><polygon class="cls-4" points="205 113.77 321.79 113.77 321.79 197.09 402.63 197.09 402.63 317.46 321.79 317.46 321.79 400.78 205 400.78 205 317.46 124.17 317.46 124.17 197.09 205 197.09 205 113.77"/><path class="cls-5" d="M351,244.77,357,260.23H344.85L351,244.77ZM328,276.5h10.47l3.68-9.38h17.59l3.55,9.38H374l-17.58-42.11h-10.6L328,276.5Zm-43.44,0h9.68V248.31l19.69,28.19h10.33V234.39h-9.67v28.25l-19.75-28.25H284.55V276.5Zm-42.36,0h35.68v-7.78H252.52V258.4H275.3v-7.2H252.52v-9h24.83v-7.78H242.19V276.5Zm-36.86-34.91h11.32c4.61,0,7.11,1.77,7.11,5.84,0,4.24-2.5,6-7.11,6H205.33V241.59ZM195,276.5h10.34V260.05h10.34c5.19,0,7.11,1.94,7.83,6.37.53,3.36.4,7.43,1.64,10.08h10.34c-1.84-2.36-1.78-7.31-2-10-.32-4.25-1.77-8.68-6.84-9.85,5.2-2,7.44-5.72,7.44-10.68,0-6.37-5.33-11.62-13.76-11.62H195V276.5Zm-26.8-31.73,6.06,15.46H162.07l6.12-15.46Zm-23,31.73h10.47l3.68-9.38H177l3.55,9.38h10.74l-17.58-42.11h-10.6L145.22,276.5Z"/></svg>