<svg id="Layer_1" data-name="Layer 1" xmlns="http://www.w3.org/2000/svg" viewBox="0 0 512 512"><defs><style>.cls-1{fill:#fff;}.cls-2{fill:#e6e7e8;}</style></defs><polygon class="cls-1" points="486.93 480.39 25.06 480.39 25.06 30.05 392.75 30.05 392.75 159.5 486.93 159.5 486.93 480.39"/><polygon class="cls-2" points="237.12 318.79 263.02 318.79 263.02 258.32 331.32 258.32 331.32 232.37 237.12 232.37 237.12 318.79"/><path class="cls-2" d="M255.8,381.63c-67.93,0-123.18-55.35-123.18-123.22a123.21,123.21,0,1,1,246.41,0c0,67.87-55.28,123.22-123.23,123.22m0-218.52a95.26,95.26,0,1,0,95.3,95.3,95.38,95.38,0,0,0-95.3-95.3"/><path class="cls-2" d="M274.45,143.66c0,5.7-8.34,10.33-18.65,10.33s-18.62-4.63-18.62-10.33V120.22c0-5.62,8.32-10.26,18.62-10.26s18.65,4.64,18.65,10.26Z"/><path class="cls-2" d="M394.64-.15H0V512H512V153.76Zm92.29,480.54H25.06V30.05H392.75V159.5h94.18Z"/></svg>