<svg id="Layer_7" data-name="Layer 7" xmlns="http://www.w3.org/2000/svg" viewBox="0 0 512 512"><defs><style>.cls-1{fill:#ffdd2e;}.cls-2,.cls-3{fill:#006b9e;}.cls-3{fill-rule:evenodd;}</style></defs><polygon class="cls-1" points="0 235.75 512 235.75 512 511.58 0 511.58 0 235.75 0 235.75"/><polygon class="cls-2" points="0 0 512 0 512 235.75 0 235.75 0 0 0 0"/><path class="cls-3" d="M211.92,342.54l37.27,11.25q-3.75,15.66-11.83,26.16a51.22,51.22,0,0,1-20.05,15.84q-12,5.35-30.47,5.35-22.44,0-36.67-6.52t-24.55-22.91q-10.34-16.4-10.33-42,0-34.11,18.17-52.44T184.86,259q26,0,40.88,10.52t22.11,32.29l-37.46,8.3a31.82,31.82,0,0,0-4.14-9.14,24.32,24.32,0,0,0-8.74-7.46A25.3,25.3,0,0,0,186,290.86q-14.47,0-22.18,11.6-5.84,8.61-5.83,27,0,22.81,6.95,31.28t19.53,8.47q12.2,0,18.45-6.84T211.92,342.54Z"/><path class="cls-3" d="M270.11,261.28h63.15q18.69,0,30.18,5.07a48.93,48.93,0,0,1,19,14.54,60.14,60.14,0,0,1,10.89,22.05,102.36,102.36,0,0,1,3.38,26.65q0,22-5,34.2a56.76,56.76,0,0,1-13.94,20.36,45.42,45.42,0,0,1-19.14,10.93,98.78,98.78,0,0,1-25.35,3.75H270.11Zm42.45,31.12v75.12H323q13.37,0,19-3t8.84-10.31q3.19-7.37,3.2-23.87,0-21.86-7.15-29.91t-23.72-8.07Z"/></svg>