<svg id="Layer_10" data-name="Layer 10" xmlns="http://www.w3.org/2000/svg" viewBox="0 0 512 512"><defs><style>.cls-1{fill:#fff;}.cls-2{fill:#11577a;}.cls-3,.cls-4{fill:#005d80;}.cls-3{fill-rule:evenodd;}.cls-5{fill:#52ab56;}.cls-6{fill:#0f4673;}.cls-7{fill:#87be82;}</style></defs><polygon class="cls-1" points="0 0 512 0 512 512 0 512 0 0 0 0"/><polygon class="cls-1" points="0 64 512 64 512 448 0 448 0 64 0 64"/><path class="cls-2" d="M167.67,236.13v13.42h1.47a5.09,5.09,0,0,0,2.68-.53,3.47,3.47,0,0,0,1.24-1.84,14.44,14.44,0,0,0,.45-4.26c0-2.61-.33-4.39-1-5.35a3.77,3.77,0,0,0-3.33-1.44Zm-6-5.55h8.89a8.69,8.69,0,0,1,4.24.9,7.3,7.3,0,0,1,2.67,2.6A12.09,12.09,0,0,1,179,238a23.5,23.5,0,0,1,.47,4.76,20.31,20.31,0,0,1-.71,6.11,10.42,10.42,0,0,1-2,3.63,6.22,6.22,0,0,1-2.69,2,11.35,11.35,0,0,1-3.56.67H161.7Zm20.92,0h16v5.24h-10v3.92h9.27v5h-9.27v4.84h10.3v5.56h-16.3Zm19.45,0H210l3,14.94,3-14.94h7.85v24.56h-4.89V236.41l-3.77,18.73h-4.44L207,236.41v18.73h-4.9Zm24.84,12.29c0-4,.88-7.12,2.64-9.36a9.92,9.92,0,0,1,14.8,0q2.63,3.28,2.62,9.21a18.65,18.65,0,0,1-1.14,7.06,9.64,9.64,0,0,1-3.3,4.29,9.09,9.09,0,0,1-5.38,1.53,10.16,10.16,0,0,1-5.43-1.33,9.4,9.4,0,0,1-3.47-4.18A17,17,0,0,1,226.91,242.87Zm6,0q0,3.72,1.09,5.34a3.57,3.57,0,0,0,6,0q1.06-1.59,1.06-5.71a9,9,0,0,0-1.11-5.06,3.46,3.46,0,0,0-3-1.6,3.38,3.38,0,0,0-2.92,1.63Q232.89,239.14,232.89,242.89Zm30.16,2.2,5.25,2a13.83,13.83,0,0,1-1.67,4.67,7.65,7.65,0,0,1-2.82,2.83,8.57,8.57,0,0,1-4.29,1,10.16,10.16,0,0,1-5.16-1.17,9.27,9.27,0,0,1-3.45-4.09,16.83,16.83,0,0,1-1.45-7.49q0-6.09,2.55-9.36a8.67,8.67,0,0,1,7.24-3.27A8.31,8.31,0,0,1,265,232a11.38,11.38,0,0,1,3.11,5.77l-5.27,1.48a6.8,6.8,0,0,0-.58-1.63,3.87,3.87,0,0,0-1.23-1.33,2.9,2.9,0,0,0-1.63-.47,3.38,3.38,0,0,0-3.12,2.07,10.67,10.67,0,0,0-.82,4.83c0,2.71.33,4.58,1,5.58a3.1,3.1,0,0,0,2.75,1.51,3,3,0,0,0,2.6-1.22A8.54,8.54,0,0,0,263.05,245.09Zm14.19-4.53h2.53a7,7,0,0,0,1.58-.34,1.63,1.63,0,0,0,1-.77,2.7,2.7,0,0,0,.37-1.43,2.6,2.6,0,0,0-.59-1.83,3,3,0,0,0-2.24-.64h-2.63Zm26.83,10.53h-6.78l-1,4H283.51l-3.19-7.49a6,6,0,0,0-1.08-1.89,2.19,2.19,0,0,0-1.47-.57h-.53v9.95h-6V230.58h10a11.61,11.61,0,0,1,4.23.6,4.78,4.78,0,0,1,2.37,2.24,8.17,8.17,0,0,1,.89,4,8.33,8.33,0,0,1-.68,3.53,6.32,6.32,0,0,1-1.9,2.41,6.43,6.43,0,0,1-2.1,1,5.62,5.62,0,0,1,1.56.9,7.91,7.91,0,0,1,.95,1.3,9.78,9.78,0,0,1,.84,1.52l2.84,7.1,7.29-24.56H304l7.26,24.56H305Zm-1.27-5.32-2.11-8.83-2.12,8.83Zm22.88-.68,5.24,2a14.05,14.05,0,0,1-1.66,4.67,7.8,7.8,0,0,1-2.82,2.83,8.62,8.62,0,0,1-4.29,1,10.11,10.11,0,0,1-5.16-1.17,9.22,9.22,0,0,1-3.46-4.09,16.83,16.83,0,0,1-1.45-7.49q0-6.09,2.55-9.36a8.67,8.67,0,0,1,7.24-3.27,8.29,8.29,0,0,1,5.75,1.87,11.38,11.38,0,0,1,3.11,5.77l-5.27,1.48a6.39,6.39,0,0,0-.58-1.63,3.87,3.87,0,0,0-1.23-1.33,2.9,2.9,0,0,0-1.63-.47,3.38,3.38,0,0,0-3.12,2.07,10.67,10.67,0,0,0-.82,4.83c0,2.71.33,4.58,1,5.58a3.09,3.09,0,0,0,2.74,1.51,3,3,0,0,0,2.6-1.22A8.54,8.54,0,0,0,325.68,245.09ZM334,230.58h6v24.56h-6Zm22.16,20.51h-6.78l-1,4h-6.1l7.28-24.56h6.55l7.25,24.56h-6.26Zm-1.27-5.32-2.11-8.83-2.12,8.83Z"/><path class="cls-3" d="M161.7,230.58h8.89a8.69,8.69,0,0,1,4.24.9,7.3,7.3,0,0,1,2.67,2.6A12.09,12.09,0,0,1,179,238a23.5,23.5,0,0,1,.47,4.76,20.31,20.31,0,0,1-.71,6.11,10.42,10.42,0,0,1-2,3.63,6.22,6.22,0,0,1-2.69,2,11.35,11.35,0,0,1-3.56.67H161.7Zm6,5.55v13.42h1.47a5.09,5.09,0,0,0,2.68-.53,3.47,3.47,0,0,0,1.24-1.84,14.44,14.44,0,0,0,.45-4.26c0-2.61-.33-4.39-1-5.35a3.77,3.77,0,0,0-3.33-1.44Z"/><polygon class="cls-3" points="182.62 230.58 198.62 230.58 198.62 235.82 188.62 235.82 188.62 239.74 197.89 239.74 197.89 244.74 188.62 244.74 188.62 249.58 198.92 249.58 198.92 255.14 182.62 255.14 182.62 230.58"/><polygon class="cls-3" points="202.07 230.58 209.96 230.58 212.97 245.52 215.98 230.58 223.83 230.58 223.83 255.14 218.94 255.14 218.94 236.41 215.17 255.14 210.73 255.14 206.97 236.41 206.97 255.14 202.07 255.14 202.07 230.58"/><path class="cls-3" d="M226.91,242.87c0-4,.88-7.12,2.64-9.36a9.92,9.92,0,0,1,14.8,0q2.63,3.28,2.62,9.21a18.65,18.65,0,0,1-1.14,7.06,9.64,9.64,0,0,1-3.3,4.29,9.09,9.09,0,0,1-5.38,1.53,10.16,10.16,0,0,1-5.43-1.33,9.4,9.4,0,0,1-3.47-4.18A17,17,0,0,1,226.91,242.87Zm6,0q0,3.72,1.09,5.34a3.57,3.57,0,0,0,6,0q1.06-1.59,1.06-5.71a9,9,0,0,0-1.11-5.06,3.46,3.46,0,0,0-3-1.6,3.38,3.38,0,0,0-2.92,1.63Q232.89,239.14,232.89,242.89Z"/><path class="cls-3" d="M263.05,245.09l5.25,2a13.83,13.83,0,0,1-1.67,4.67,7.65,7.65,0,0,1-2.82,2.83,8.57,8.57,0,0,1-4.29,1,10.16,10.16,0,0,1-5.16-1.17,9.27,9.27,0,0,1-3.45-4.09,16.83,16.83,0,0,1-1.45-7.49q0-6.09,2.55-9.36a8.67,8.67,0,0,1,7.24-3.27A8.31,8.31,0,0,1,265,232a11.38,11.38,0,0,1,3.11,5.77l-5.27,1.48a6.8,6.8,0,0,0-.58-1.63,3.87,3.87,0,0,0-1.23-1.33,2.9,2.9,0,0,0-1.63-.47,3.38,3.38,0,0,0-3.12,2.07,10.67,10.67,0,0,0-.82,4.83c0,2.71.33,4.58,1,5.58a3.1,3.1,0,0,0,2.75,1.51,3,3,0,0,0,2.6-1.22A8.54,8.54,0,0,0,263.05,245.09Z"/><path class="cls-3" d="M271.24,255.14V230.58h10a11.61,11.61,0,0,1,4.23.6,4.78,4.78,0,0,1,2.37,2.24,8.17,8.17,0,0,1,.89,4,8.33,8.33,0,0,1-.68,3.53,6.32,6.32,0,0,1-1.9,2.41,6.43,6.43,0,0,1-2.1,1,5.62,5.62,0,0,1,1.56.9,7.91,7.91,0,0,1,.95,1.3,9.78,9.78,0,0,1,.84,1.52l2.9,7.1h-6.76l-3.19-7.49a6,6,0,0,0-1.08-1.89,2.19,2.19,0,0,0-1.47-.57h-.53v9.95Zm6-14.58h2.53a7,7,0,0,0,1.58-.34,1.63,1.63,0,0,0,1-.77,2.7,2.7,0,0,0,.37-1.43,2.6,2.6,0,0,0-.59-1.83,3,3,0,0,0-2.24-.64h-2.63Z"/><path class="cls-3" d="M304.07,251.09h-6.78l-1,4h-6.11l7.29-24.56H304l7.26,24.56H305Zm-1.27-5.32-2.11-8.83-2.12,8.83Z"/><path class="cls-3" d="M325.68,245.09l5.24,2a14.05,14.05,0,0,1-1.66,4.67,7.8,7.8,0,0,1-2.82,2.83,8.62,8.62,0,0,1-4.29,1,10.11,10.11,0,0,1-5.16-1.17,9.22,9.22,0,0,1-3.46-4.09,16.83,16.83,0,0,1-1.45-7.49q0-6.09,2.55-9.36a8.67,8.67,0,0,1,7.24-3.27,8.29,8.29,0,0,1,5.75,1.87,11.38,11.38,0,0,1,3.11,5.77l-5.27,1.48a6.39,6.39,0,0,0-.58-1.63,3.87,3.87,0,0,0-1.23-1.33,2.9,2.9,0,0,0-1.63-.47,3.38,3.38,0,0,0-3.12,2.07,10.67,10.67,0,0,0-.82,4.83c0,2.71.33,4.58,1,5.58a3.09,3.09,0,0,0,2.74,1.51,3,3,0,0,0,2.6-1.22A8.54,8.54,0,0,0,325.68,245.09Z"/><rect class="cls-4" x="334.03" y="230.58" width="6" height="24.56"/><path class="cls-3" d="M356.19,251.09h-6.78l-1,4h-6.1l7.28-24.56h6.55l7.25,24.56h-6.26Zm-1.27-5.32-2.11-8.83-2.12,8.83Z"/><path class="cls-3" d="M156,285l7.89-.61a8.71,8.71,0,0,0,1,3.61,4.1,4.1,0,0,0,3.67,2,3.55,3.55,0,0,0,2.74-1,3.38,3.38,0,0,0,1-2.39,3.44,3.44,0,0,0-.9-2.32q-.91-1-4.25-1.92c-3.65-1-6.24-2.37-7.79-4.05a9,9,0,0,1-2.35-6.42,10.23,10.23,0,0,1,1.2-4.84,8.62,8.62,0,0,1,3.61-3.59,14,14,0,0,1,6.62-1.3c3.44,0,6,.79,7.86,2.38s2.88,4.1,3.22,7.56l-7.82.57a5.7,5.7,0,0,0-1.31-3.29,3.67,3.67,0,0,0-2.76-1,2.88,2.88,0,0,0-2.18.76,2.55,2.55,0,0,0-.74,1.85,2,2,0,0,0,.6,1.43,6,6,0,0,0,2.77,1.22,29.87,29.87,0,0,1,7.8,2.95,9,9,0,0,1,3.43,3.69,11,11,0,0,1,1.07,4.93,12.49,12.49,0,0,1-1.42,5.91,9.77,9.77,0,0,1-4,4.1,13.46,13.46,0,0,1-6.48,1.4q-6.85,0-9.5-3.27A14.52,14.52,0,0,1,156,285Z"/><path class="cls-3" d="M201.09,290.5h-9.42L190.32,296h-8.49L192,262.68h9.1L211.14,296h-8.7Zm-1.76-7.21-2.94-12-2.94,12Z"/><polygon class="cls-3" points="213.73 262.68 222.04 262.68 222.04 287.8 235.04 287.8 235.04 295.99 213.73 295.99 213.73 262.68"/><polygon class="cls-3" points="234.84 262.68 243.53 262.68 249.59 286.65 255.56 262.68 264 262.68 254.01 295.99 245 295.99 234.84 262.68"/><path class="cls-3" d="M281.68,290.5h-9.42L270.91,296h-8.49l10.12-33.31h9.11L291.73,296H283Zm-1.77-7.21-2.93-12-3,12Z"/><path class="cls-3" d="M294.43,262.68h12.36a12.28,12.28,0,0,1,5.9,1.23,10.09,10.09,0,0,1,3.72,3.52,16.15,16.15,0,0,1,2.13,5.34,30.39,30.39,0,0,1,.66,6.45,27.45,27.45,0,0,1-1,8.28,14.28,14.28,0,0,1-2.73,4.93,8.62,8.62,0,0,1-3.74,2.65,16.11,16.11,0,0,1-5,.91H294.43Zm8.31,7.54v18.19h2a7.14,7.14,0,0,0,3.72-.72,4.7,4.7,0,0,0,1.73-2.5,19,19,0,0,0,.63-5.78q0-5.3-1.4-7.24c-.94-1.3-2.48-1.95-4.64-1.95Z"/><path class="cls-3" d="M322.46,279.36q0-8.16,3.67-12.7t10.23-4.54q6.72,0,10.35,4.46t3.64,12.5a24.69,24.69,0,0,1-1.59,9.58,13.19,13.19,0,0,1-4.59,5.81,12.86,12.86,0,0,1-7.48,2.08,14.39,14.39,0,0,1-7.54-1.8,12.71,12.71,0,0,1-4.83-5.68A22.39,22.39,0,0,1,322.46,279.36Zm8.31,0q0,5,1.51,7.24a5,5,0,0,0,8.29.05q1.47-2.16,1.47-7.74,0-4.71-1.53-6.87a4.85,4.85,0,0,0-4.17-2.17,4.71,4.71,0,0,0-4,2.2Q330.78,274.3,330.77,279.38Z"/><path class="cls-3" d="M354.89,296V262.68h13.86a16.37,16.37,0,0,1,5.89.82,6.58,6.58,0,0,1,3.28,3,10.89,10.89,0,0,1,1.25,5.4,11,11,0,0,1-1,4.79,8.67,8.67,0,0,1-2.63,3.27,8.94,8.94,0,0,1-2.92,1.32,7.87,7.87,0,0,1,2.16,1.22,10.27,10.27,0,0,1,1.33,1.76,13.06,13.06,0,0,1,1.16,2.06l4,9.63H372l-4.44-10.16a7.7,7.7,0,0,0-1.5-2.56,3,3,0,0,0-2-.77h-.73V296Zm8.35-19.77h3.51a10.66,10.66,0,0,0,2.2-.46,2.23,2.23,0,0,0,1.35-1.05,3.59,3.59,0,0,0,.53-1.94,3.47,3.47,0,0,0-.83-2.48,4.27,4.27,0,0,0-3.11-.87h-3.65Z"/><polygon class="cls-3" points="383.97 262.68 406.22 262.68 406.22 269.8 392.32 269.8 392.32 275.1 405.21 275.1 405.21 281.89 392.32 281.89 392.32 288.45 406.64 288.45 406.64 295.99 383.97 295.99 383.97 262.68"/><path class="cls-3" d="M411.17,262.68h7.77L429,281.07V262.68h7.85V296H429L419,277.7V296h-7.82Zm16.58-8.28h2.89c0,.39,0,.73,0,1a6.46,6.46,0,0,1-1,3.92,3.14,3.14,0,0,1-2.63,1.38,9.13,9.13,0,0,1-3.56-1.18,5.65,5.65,0,0,0-2-.72.93.93,0,0,0-.82.41,2.62,2.62,0,0,0-.31,1.45h-2.86c0-.37,0-.69,0-1a6.31,6.31,0,0,1,1.08-3.88,3.16,3.16,0,0,1,2.57-1.44,4,4,0,0,1,1.21.18,16.8,16.8,0,0,1,2.09,1,5.74,5.74,0,0,0,2.23.79.94.94,0,0,0,.8-.42A3,3,0,0,0,427.75,254.4Z"/><path class="cls-3" d="M458.92,290.5H449.5L448.15,296h-8.49l10.12-33.31h9.11L469,296h-8.7Zm-1.76-7.21-2.94-12-3,12Z"/><path class="cls-5" d="M107.67,262.46a10.58,10.58,0,0,0,1.61.18c-.13,3.84-.3,12.7.54,18.42,1.11,7.47,3,14.32,11.42,14,4.25-.15,6.21-3.46,8.57-8.1s4.56-7.88,9.6-10.78,8.66-6.44,8.35-10.54-4.64-10.47-14.63-11.26l-13.45-1.07q0-.39,0-.78c0-.21,0-.42,0-.62,29-.26,30.83-11.25,30.83-15.78s-4-9-6.76-10.12-5-3.2-6.12-9.06-3.51-11-9.66-11.3-12.4,6.58-14.71,18.37a102.83,102.83,0,0,0-1.76,18.57,10.16,10.16,0,0,0-1.92-.18,10.73,10.73,0,0,0-1.28.08,156.42,156.42,0,0,0,.2-21.52c-.92-10.89-7.51-21.62-16.7-21.47S79,209.93,77.41,212.69s-5.66,5.2-9,6.12-10.58,1.08-13.63,7.82,2.74,14.55,11.32,19.93c11.19,5.33,27.56,5.61,33.42,5.54v.43a10.6,10.6,0,0,0,.06,1.14c-5.41-.2-19.38-.36-28.4,2.76-11.39,3.95-22.68,12.43-15.33,22.68,3.44,3.65,8.39,4.95,11.67,5.83s6.59,3.12,9.62,8.2,7.06,8.48,12.77,7.35,12.55-7.35,14.7-18C106,275.34,107.1,267.08,107.67,262.46ZM45.11,248.74a55.81,55.81,0,1,1,55.81,55.81A55.81,55.81,0,0,1,45.11,248.74Z"/><polygon class="cls-6" points="0 0 512 0 512 182.11 0 182.11 0 0 0 0"/><polygon class="cls-7" points="0 331.84 512 331.84 512 511.58 0 511.58 0 331.84 0 331.84"/></svg>