<svg id="Layer_3" data-name="Layer 3" xmlns="http://www.w3.org/2000/svg" viewBox="0 0 512 512"><defs><style>.cls-1{fill:#ee402f;}.cls-2{fill:#fff;fill-rule:evenodd;}.cls-3{fill:none;}</style></defs><polygon class="cls-1" points="0 0 512 0 512 512 0 512 0 0 0 0"/><path class="cls-2" d="M374.86,298.94c-9.13,17.43-19.34,35-28.48,52.45-3.28,6.25-4.83,9.21-1.8,10.86,4.33,2.3,9.91,3.45,18.37,3.45,6.18,0,8.62-2.8,10.43-6.25,1.3-2.47,1.94-4.93,3.32-7.57,1.64-3.12,3.85-6.08,5.48-9.2,12.16-23.19,34.81-37.82,41.64-37.82,1.31,0-.71,5.09-1,5.59-6.47,12.33-14.41,25-21.57,38.64-4.75,9-7,13.32,11.88,13.32,8.46,0,12.82-1.48,15.23-6.08,8.8-16.78,18.58-33.55,27.38-50.32,6.2-11.84-1.69-17.27-27.38-17.27-11.07,0-24.49,10.69-27.09,10.69-1.3,0-1-.66-.43-1.64,1.72-3.29,1-4.44-12.65-4.44C380.41,293.35,377,294.83,374.86,298.94Zm-32.43,25.81c12.17-23.18,28.56-46.36,42.79-73.49,1.55-3-16.24-6.26-18.85-6.26-10.74,0-11.93,1.65-14.51,6.58-14.92,28.45-31.78,56.23-46.36,84-9.57,18.25-13.11,25-10.16,26.8,3.2,2,9,3.29,14.88,3.29,11.38,0,12.72-1.32,15.66-6.91C331.82,347.45,336.48,336.1,342.43,324.75Zm-40.27-17.26c6.22-11.84,8.53-18.75-24.32-18.75-22.46,0-30.56,9.87-33.81,9.87-.65,0-5.57-9.87-24.11-9.87-11.71,0-26.86,11.51-28.81,11.51-1.3,0-1-.66-.44-1.64L194,292.2c2-3.79-4-4.77-10.51-4.77-7.16,0-14.27,1.15-16.42,5.26-2.08,3.95-2.52,7.9-4.59,11.84l-27.26,52c-3.28,6.25,11.44,9.21,17,9.21,8.78,0,11.77-4.44,16.85-14.14l9-17.11c7.59-14.46,31-29.26,35.52-29.26,4.23,0,3.5,2.62,2.2,5.1-6.12,11.67-14.71,26.8-23,42.58-2,3.79-2,5.1.23,5.76a71.29,71.29,0,0,0,20.18,2.47c5.21,0,10.29-9.71,13.14-15.14,14.15-27,38.41-44.06,43.62-44.06,3.25,0,3.3,1.15-.58,8.55-8.54,16.28-18.63,32.39-27.16,48.67-1.56,3,9.12,4.93,17.58,4.93,4.56,0,7.18-.65,9.12-3.12,8.8-11.18,18.67-25.65,22.89-33.71ZM133.1,308.81c.61-1.15,4.92-1.32,8.18-1.32,4.23,0,8.11.66,12.35.66s6.06-1.65,7.27-3.95l4.91-9.37c.61-1.15-.2-1.48-2.8-1.48H143.48c-1,0-1.77-.33.3-4.28,9.49-18.09,16.63-28.61,23.14-28.61,3.58,0,27.7.49,31.11-10.44s-28.59-5.58-32.11-5A62.36,62.36,0,0,0,127,267.7c-11.17,14.47-14.14,21.37-18.2,26.64-1.11,1.48-3.71,1.48-6,1.48-3.26,0-13.67,0-15,2.63-1.56,3-2.13,10.85.48,10.85h9.11c2.6,0,3.62,1.15.6,6.9L81.86,347c-4.84,9.21-8.29,15.79-5.7,16.45a89.27,89.27,0,0,0,19.61,2.3c7.48,0,9.3-3.45,12.49-9.54Zm87.09-56.32L188.57,227,81.65,267.07l65.85-53.46L54.23,188.88l120.41.08,47.73-42.66-1.88,43.15,53.88-.59L221,205.68Z"/><polygon class="cls-3" points="0 64 512 64 512 448 0 448 0 64 0 64"/></svg>