<svg id="Layer_11" data-name="Layer 11" xmlns="http://www.w3.org/2000/svg" xmlns:xlink="http://www.w3.org/1999/xlink" viewBox="0 0 512 512"><defs><style>.cls-1,.cls-10,.cls-2,.cls-8{fill:none;stroke:#231f20;}.cls-1,.cls-8{stroke-miterlimit:3.86;stroke-width:1.69px;}.cls-1,.cls-2{clip-rule:evenodd;}.cls-10,.cls-2{stroke-miterlimit:3.86;stroke-width:0.84px;}.cls-3{fill:#fff;}.cls-4{fill:#a6a8ab;}.cls-5{fill:#00a4e4;}.cls-6{clip-path:url(#clip-path);}.cls-7{fill:#231f20;}.cls-10,.cls-11,.cls-7,.cls-8{fill-rule:evenodd;}.cls-9{clip-path:url(#clip-path-2);}.cls-11{fill:#ee402f;}</style><clipPath id="clip-path"><path class="cls-1" d="M176.5,331.36s4.09-11.66,4.49-13.9,1.18-6.43,1.84-7.49a8.79,8.79,0,0,0,1.37-3.68c.08-1.19-1.28-3.51-3.3-6.16s-4.39-6.21-4.39-6.21l1.18.92s-.39-5.79-1.84-7.9-4.6-11.57-5.25-14.08-1.06-7.62-1.85-9.6a60.58,60.58,0,0,0-2.5-5.66c-.79-1.45-2.5-8.39-2.9-8.66s-.53,8.66.79,12.08,5.14,7.36,6.19,14.48c1.71,5.26,1.6,11.17,2.24,14.07A87.79,87.79,0,0,0,176.24,301c.53.79,1.19,1.19,1.45,2.24s1.58,8.55.4,12.24a34.6,34.6,0,0,0-1.85,8.82c0,1.72-.13,4.46-.13,4.46Zm-63.3,40.5L170.37,383s-2.9-10.88-4.07-14.07-1.45-7.69-2-12-3.78-8.26-5.65-13.78-4.07-18.56-4.94-18.86-5.23.3-7.56.88-3.32.29-5.35,1.21-8.43,7.05-8.43,7.05-5.36-3.49-8.27-4.07,1.17-12,1.17-12-12.63,3.78-14.37,3.78,0,3.19,1.16,5.28.87,3,.87,10.54S113.2,371.86,113.2,371.86Zm-15-2.57s-2.59-21-2-25.84-2-14.31-1.73-21.24,2-13.5,9.75-18.4,14.37-13.21,16.39-15.23,0-2.83,3.17-5.13,3.17-2.89,3.17-2.89,1.16-9.31-.86-12.27-4.33-10.4-6.34-15.59-7.74-18.12-10-20.42-12.92-17.2-14.65-19.51-9.17-8.3-11.19-15.51,0-23,1.73-30.18,2.88-11.48,2.3-12.34-3.74-.58-3.74-4,1.39-9.17,8-9.46,9.51,4,8.94,7.44-.58,2.31-2,4.9-1.73-.63-1.44,5.14-.29,11.77-.29,13.79-.87,18.4-.87,20.13-3.89.76,4.14,6.67,10.74,9.24,13.32,9.39,4.4,1.81,5.16.75,1.83-2.11-.46-3.47-3.19-2.57-3.64-3.78a41.53,41.53,0,0,0-2.27-4.4c-1.21-2.27-1.06-3-1.66-4.84s0,.31-1.36-3.78-2.12-4.55-2.12-8.33-1.21-3.78,1.06-4.84-.62-3.49,6.8-7,8-2.27,13-2.12,11.06,1.06,11.66.76,2-2.87,2.42-2.42-.3,5-.3,5l7.27-.15L142,174.65s5.31,5.44,9.09,5.59,6.2-1.21,5.45.31,1.81,4.38-4.39,4.38-5.9.3-5.9.3-2.12,3.34,1.06,3.34,7.56.15,7.56.15l-.23,2.73s.12,1.24-2.38,2.61a18.67,18.67,0,0,1-6.12,1.69,49,49,0,0,1,4.42,4.67c1.48,1.93.9,5.44,7.37,8.39s12,10.44,12.38,15.67,2.39,9.3,4.89,15.09,2.61,11.37,4.76,16.36,4.2,11.47,4.42,15.78.46,8.62.46,9.07.23,7.28.23,7.28a13.16,13.16,0,0,0,2.16,1.92,29.68,29.68,0,0,1,3.07,2.38l-1.7-10.9-2.29-1,1.49-7.37,3.63,6.69-1.47,1.59,2.6,12.15s8.07-5.46,13.86.34,12.14,11,13.73,14.19,2.16,5.23,2.61,5.34-1.7.68-1.7.68-1,.34-1.25.8-.91-1-1.36-2.72-5.17-10-7.81-12-3.31-3.76-8.31-5.12-7.84-2-8.18.23a25.27,25.27,0,0,0-.34,6.48c.23,2,4.54,23.73,5.33,27.7s1.36,13.51,1.36,13.51-1.58.46-1.81-2-2-19-2.95-23.39-2.83-7.86-2.83-10.46a46.1,46.1,0,0,0-.23-4.64s-.34-1.48-1-.23.56,5.89-.34,4.87-1-3.51-1-3.51l-2.39-2.27a16.13,16.13,0,0,1,1,3.75c0,1.13,1,2.72.6,2.94s-2.17-1-2.52.23,0,2.94-.24,3.63-2.61.47-2.61,3,.68,2.27-.68,6.24-2,14.07-3.06,18-1.37,2.62-1.37,2.62-1.47-4.34-1.36-1.71a50.09,50.09,0,0,0,1.14,6.93c.11.68-.91.22.91,1.47s2.83,1.58,3.4,3.86,3.06,2.85,2.15,3.53-2.49,1.24-1.7,3.17,2.38,3.4,2.27,5.79-.34,2.16-.34,5.11-.34,2.39.23,4.65-.57,1.47.22,4.88,1.15,4.55,1.49,5.8,1.14,3.29,1.36,4.42a22.93,22.93,0,0,0,.71,2.5l-20.58.22-98.17-.58v-3.87c0-1.29,3.23-19.76,3.23-19.76s10.73-3.11,14.93-1A24.21,24.21,0,0,0,98.22,369.29Z"/></clipPath><clipPath id="clip-path-2"><path class="cls-2" d="M222.44,314.17s-6.67,13.5-7.45,15.44-2.14,5.07-2,6.63-1.56,3.75-2.34,5.11-3.89,6.24-4.28,7.8-3,5.11-3.36,5.7a15.74,15.74,0,0,1-5.07,2.92c-2.14.78-8,2.14-8,2.14l-4.48-.19s10.77-1.17,12.52-2.93-.39-1.94,1.76-1.94,2.09,1.31,3.89-2.78,5.7-9.5,6.09-10.91,2.34-4.53,2.34-6.29,4.62-15.05,6.23-16.8S222.44,314.17,222.44,314.17Z"/></clipPath></defs><rect class="cls-3" x="1.03" y="1.03" width="509.95" height="509.95"/><path class="cls-4" d="M510,2.05V510H2.05V2.05H510M512,0H0V512H512V0Z"/><polygon class="cls-3" points="0 64 512 64 512 448 0 448 0 64 0 64"/><polygon class="cls-5" points="280.18 0 512 0 512 511.74 280.18 511.74 280.18 0 280.18 0"/><g class="cls-6"><path class="cls-7" d="M126.82,372.38s.52,5.94.69,7-.69,5.05-.69,5.05l6.9-1.29s4.9-.44,5.07-1.83,1.05-.7,2.28-.35,5.85,3.58,8.13,4.11,3,.66,3.15-.64,0-6.27,0-6.27a57.84,57.84,0,0,1,1.57,6.27c0,1-2.62,2.38-4.9,2.38s.79,4-2.45,3.5-5,1.75-5.85-1.92.35-4.59-1.05-4-6.12.46-6.65,1-8.65.53-8.65.53a25.79,25.79,0,0,0,.52-4.63,4.34,4.34,0,0,1,.18-2.63c.35-.52.17-.52.35-3.32A63.54,63.54,0,0,1,127,367Z"/><path class="cls-7" d="M87.89,154.74a37,37,0,0,1,4.92,6.16c1.54,2.75-2.42,4.29-1.1,4.84s2.64-1.32,3.19,1-.22,1.76.88,4.4,1.87,3.85,1,5.39-.11,2.09-2.53,4.07-4.18,4.07-2.53,3.63,3,.1,1.76,2.19-3.08,6.61,0,4.46,1.54-5,3.74-2.48,4.84,7.26,3.19,8.25,8.36,1.43,8.14.11-2.2-4.94-2.64-5.88-3.19-12.49-2-14.54,2.48-.87,7.57-1.08,3-.87,6.94-2.17,2.59-2.28,7-2.71,1.63-.11,6.28-1.3,8.12-3.79,7.25-2.81-5.18,4.66-7.46,5.25-4.66,1.46-4.66,1.46l-5.41.87s-5.63,1.08-.65,1.41,5.19.32,8.44-.22a31.09,31.09,0,0,1,7-.65H141s3.36,3.25-1.73,3.25-6.92.21-8.55.21a13.72,13.72,0,0,1-4.33-.54c-1.41-.43,3,2.17,2.38,2.28s-4.54-4.33-8.55-3.25a37.42,37.42,0,0,0-9.53,4.54,1.94,1.94,0,0,0-.76,3s4.66-4.76,9-4.65,8.44-.11,9.31,1.41,2.06,1.4,2.82.86,2.16-3.14,2.49-2.59,3.35,1.51,2.48,2.7a8.68,8.68,0,0,1-1.84,1.84c-.32.33-1.3-.11-.64.76s3.78,1.51,3.68.11-.44-2.92,0-3.14.86-1.84,3.78.32a58.57,58.57,0,0,1,4.66,3.8s-.43,3.14,3.36,3.57,8.44.87,3.14,1-7.59-1.62-7.69-.64-.65,1.83,2.38,2.59,3,.76,6.39,1.84,2.92,1.63,1.41,1.95-6,1-7.47.11-5.09-2.82-5.09-3.46-3.9-2.93-5.31-3.36-2.81-1.52-1.08.65a25.87,25.87,0,0,0,6.49,6c2.17,1.19,6.61,3,7.48,3.36a17.67,17.67,0,0,1,2.16,1.09l-9.64-2.61L155,204.05s-9.1-3.13-10.4-4-2.48-3-1.51-1a16.22,16.22,0,0,0,3.47,4.23s-2.5,1-3.47.11l-4.22-3.79,1.73,3.68-2.27-1.51s2.49,3,.86,2.27-3.14-1.62-3.79-2.92-.21-2.06-1.19-1.73-.63-1-1.16-3.06-1.24-3.19-1.87-3-1.39,1.06-1.39.35-.8-2.3-.8-4.16-1-5-.62-4.17,1.59,2.93,1.59,2.93a6.85,6.85,0,0,0-.8-4c-1.06-1.59-7.35-3.1-7.79-3.19a9.55,9.55,0,0,0-4.7,1.15c-1.4,1-.69,2.24-3.53,2.75s-3.1-.64-3.1.78-1,1.15,2,1.51,3.73.89,3.73.89a3.07,3.07,0,0,0-2.48.88c-.89,1.07-1,1.78-.45,2.49s1,.72,1.33,4.34.09,3.08.62,5.39,2.47,4.61,5,4.61,5.14-1.33,5.67-2.57,1.78-4.15,1.69-5.3,1.77-3.55.62-4.44-3.46-1.15-2.84-1.15,2.22-1.77,3.1-.35.2.46,2.49,4.78,4.76,6.1,5.21,6.81,3.81,1.95,2.92,2.57a28.1,28.1,0,0,0-3.28,2.31,3.35,3.35,0,0,0-1.33,2.3s6.41-4.65,7.29-3.55.22,1.54-.33,4.18,0,.66-.44,3.3-.77,3.3-.88,4,.44-3-1.54-2.31-2.2,1.87-2,2.86,2.53,1.32,2.75,2.64-.11,1.21-.44,2.2a8.13,8.13,0,0,0-.33,2.2s.11,2.19-.77,1.09.55-3-1.65-3.51-3.63-.22-3.63.55.33,1-1.32,1.1-5.72.33-6.38.66,1.21,1.2.66,1.76-2.75.33.22,1.59,3.52,1.49,3.52,1.49.11,1.09-2.75,1a10.13,10.13,0,0,1-6-2c-1.54-1.09-2.09,0-3.19-2.64s-1.2-2.19-1.43-4.28a6.35,6.35,0,0,0-1.75-4.29c-1.21-1.43.1-.33-.66-5.61s-2.42-6.27-5.61-6.82-5.06-1.21-6.16-2.42-3.08-3.74-4.4-4.29-2.53-.77-2-.33,6.93,6.05,11.33,8.25,4.29,2,5,5a31.14,31.14,0,0,1,1.11,6.71c.11,2,3.18,4.07,2.63,7.36s-.22,3.53-1,4.73-.67-.22-.33,2.31a7.94,7.94,0,0,0,1.75,4.51c.77,1,1.43,1.65,1.88,1.65s3-4.07,4.17-2.31,2,4.73,2.75,4.29.66-1.87.88-2.42-1.21,1.21.33-.88,1.43-3.41,2.86-4.51,1.87-.11,1.76-1.65-.77-3-.11-2.8,1.54,4.12,2.64,3.46,2.75-1.76,2.09-2.85a23.24,23.24,0,0,0-1.43-2.1s4.07,3.3,3.19,5.39-2.31,2.64-2,3.41.55,2.2,1.54,1,1.43-2.42,1.76-.66-.11,1.54.55,2.42a20.5,20.5,0,0,0,3.53,2.65s1.18-1.67-.33-2.67-4.7-1.68-1.68-1.68,10.39-1.34,11.73-3.52,4.19-5.38,3.85-6.38a60.63,60.63,0,0,1-.5-6.86s2.5,4.53,5.69,4.69,3.36-3.51,5.54,0,4,3.74,1,3.71-6.37,2.15-3.52,6.35-.33,4.51,3.69,9.88,2.85,7.38,4,7.55,4.18,2.67,3.34,2.67-4.35,0-3.85.84.86,2.35,1.51,2.35h2.51s-2.35,2.68-1.51,5.7,2.18,10.05,3,13.57,1.34,7.54,1.67,9.72,1.18,6.37,1.18,6.37-5-11.83-7.25-16.89-2.42-14.51-3.08-15.61-4.4-9.46-4.4-10.56-1.54-3.3-1.54-3.3,0,13,2.2,15.84a37.08,37.08,0,0,1,6.82,20.67c.22,10.12,2.86,12.32,3.74,15.4s1.76-1.54,2.2,5.28,0,10.11-.66,12.53-1.32,7.26-1.32,7.26.44,7.26.66,6.16,5.72-17.81,5.72-19.57,2.64-2.86,2-5.5-.66-3.3-3.3-6.16a35.36,35.36,0,0,1-4.18-5.5s3.3,1.1,4.84.66,5.28-1.32,5.28-1.32,3.74,2.2,3.74,4.4-2.29,5.5-1.7,6.6-.72,3.3-1.38,4.62-4.84,21.77-5.5,25.51a22,22,0,0,1-2,6.16l-3.3-2a59.89,59.89,0,0,0-.66,6.43v3.91s3.74.44,2.42.88-4.18.88-5.28,1.76-5.94,2.42-5.94,2.42,5.72,1.76,8.14,1.53,6.6-1.1,6.6-1.1-5.5,2.86-6.6,3.52-1.1,9.46-1.1,9.46-.88-6.38,3.74,4,3.74,9.46,4.18,11.22,1.32,4.18,1.54,2.64-1.1-19.91-1.54-20.84a25.32,25.32,0,0,1-.88-4.24s1.54-5.94,2.86-5.5,9.68-3.73,8.36,2.43,4.17,23.75,3.52,24.85-1.33,12.1-1.33,12.1-14.07,2.2-19.79,1.76-10.34-.22-18.25-.44-17.38-1.32-24.42-1.32-11-.22-11-.22l3.08-10.07s1.32,4.35,2.42,5.45,7-1.32,7-1.32,8.58.44,9.46.66,15.39,1.54,20.45,1.1a34,34,0,0,0,10.12-2.86s-6.6-4-6.6-5.5-5.72-16.88-5.72-16.88-11.21-20.29-9-22.49,5.72-3.3,6.16-5.5.44-7.7-1.32-11.44-2.86-9.23-3.3-7.92.22,8.14-.65,9.68a30.2,30.2,0,0,1-3.52,4.18s-7.26,1.32-8.36.44-.88-4.4-.88-7,2.2-12.1,2-14.51-2.2-11-2.2-11,3.3-2.64.22-3.74-12.1-6.71-11.22-8.08,10.12-1.38,13.64-.94,16.49,3.74,17.81,4.84a41.7,41.7,0,0,1,5.28,6.16c.44.88,3.3,2.64,3.3,2.64s-4.18.88-5.5-.22-3.52-6.82-6.82-5.94-2.2,2.86-4.17.88a31.9,31.9,0,0,0-6.38-4.18s-8.58-1.1-4,3.3,10.56,3.08,12.54,7,2,4.51,6.37,5.77,9,5.66,9,5.66a25.08,25.08,0,0,1-7.26-1.09c-2.86-1.1-4.62-3.74-3.52-.44s2.2,2.19,2.42,4.17,2-.22,0,5.28-4.4,5.28-2,8.36,1.54,3.74,3.74,3.74,4.84,1.32,3.52,2-4,.66-2.2,2.2,2.64,2.64,4.84,2,5.28,2,4.18-1.54-.66-4.18-2.42-6.38-4.18-5.5-3.3-5.5,3.08,2.42,2-1.1-2.86-6.38-2.86-7.25a5.4,5.4,0,0,1,.22-1.55s4.84-4.61,2.86-5.93-6.82-2.42-4.4-4.84,3.52-4.18,2.42-7.48-1.76-13.2-1.76-13.2l-6.38,4.62s1.32-1.76,2.86-3.52,2-5.5,2-5.5l.66-6.82s-7,5.5-8.58,6.38-7.91,3.74-7.91,3.74-4.84,3.08-4,1.54a49,49,0,0,1,4.4-5.28s-8.8,5.94-15,6.38-7.92-3.74-7.92-3.74l-2.42-3.52,7.26,1.32,1.1-8.79,3.52,6.81s8.36-2.2,9.68-1.76-1.1,3.3-1.1,3.3,13-4.83,15.83-6.6,4.84-2.74,2.64-4.34-2.42,2.59-4.39-3.13-1.77-7.92-3.75-6.6-1.1,3.3-3.29,5.72-2.86,3-9,4-13.2,2.37-15.62,2.37a20.27,20.27,0,0,0-3.52.22s-21.33-8.8-4.84-8.8,27.5-9,31.24-11.22,13.41,1.76,7-4.18-2.86-5.72-6.38-5.94-9.23-2-7.25.22,4,4.62,4.62,5.5,4,3.3.88,3.3-1.76-.88-5.28-2.2-7.92-5.94-7.7-2.42,1.76,3.63,4,3.8,5.5-.28,5.5.82-.66,1.54-2.42,2-3.52-2.31-4.62-2.8-3.52-2.48-3.52-5.12-2.86-5.06-2.86-5.06-3.52-3.3-5.5,2.2-3.74.22-7,.22-7.69,2.64-7.69.88-3.52-4.4-16.5-15.62S79.06,219,78.62,206.65s-.66-15.4-1.1-24.41-5-11.44.22-18A41.92,41.92,0,0,1,87.89,154.74Z"/><path class="cls-7" d="M114.86,197s.51-2.58,1.75-2.39,4.11.28,4.11.28-2.19,1-3.06,1.34S114.86,197,114.86,197Z"/><path class="cls-7" d="M115.91,201.27s-1-3.09,1.08-4a16.24,16.24,0,0,1,6.22-.67c.57.1.57,1.06,0,1.63s-1.34,2.51-2,2.51-3.06.29-3.54.29S115.91,201.27,115.91,201.27Z"/><path class="cls-7" d="M118,202.51a15.08,15.08,0,0,0,3.73-1.14c.67-.39,2.48-1.15,1.91-.48s-1.72,2.86-2.77,3-1.53,0-1.82-.29S118,202.51,118,202.51Z"/><path class="cls-7" d="M117.85,184.58s-1.72,1.56-.76,1.56,2.48-.57,1.91.1-2.58.86-1.81,1.14,1,1.15,2.29,1.25,1.91-.58,2.87-1.34,1.24-2.23,1.62-2.13-.67,0-2.1,0A24.93,24.93,0,0,1,117.85,184.58Z"/><path class="cls-7" d="M145.05,206.43s0,2,.86,1.91,4-3.06,4.4.86-.26,3.28-3.54,4.71-4.23,2.87-3.85,2.87,1.08-2,3.38-.29a10,10,0,0,0,3.91,1.82c.48.29.86,2.67.86.19s-.57-3.13-.28-4.78-.2-2.76.57-3.49,1.91-2.18.67-2.85-5.16-1.71-5.54-1.52S145.05,206.43,145.05,206.43Z"/><path class="cls-7" d="M139,328.76c-.13-.66-.79-.87-.79-5.76s2.37-9.84,2.51-13-2.25-8.18-2.25-8.18,1.06,4.94-.53,8.85-.52,8.52-1.45,11.3-3.43,2.17-3.43,3.7.13,4.3-.53,3.25-1.45-.48-.92-3.78,1.19-6.47,2-9.51,3.56-3.78,3.56-6.42.53-5,.4-6.47-1.45-7.47-1.45-7.47-2.91-1.46-2.78-.93.4,6.29,1.06,9.59.53,3.17.79,4.62-1.58,5.94-2,3.3-.66-7.79-1.06-6.6-3.24,10.25-3.24,11.17-.14,3.23,0,6.74-.14,6-.93,5.62-1.72-6.94-1.72-8.13-1.45-3-1.58-.66-1.32,9.45-.92,11.17-2.46,6.21,3,4.36,4.44-1.59,6.82-3,2.64-2,3.83-2S139,328.76,139,328.76Z"/><path class="cls-7" d="M86,145.76s.76,2.91.9,3.6,1.06,1,1.48,1,2.21-.83,3.18,0,1,.62,1.18,1.25.62.69.55,1.1-1.1.83-1.73,1-1.66,1.18-.41.76a5.11,5.11,0,0,1,2.21-.28c1.18-.06,3,.28,2.63-.06s-.62-.28-1.31-.63-.9-.27-1.11-.9a7.89,7.89,0,0,1-.48-2c.07-.21,2.62-1.59,3.32-2.43s1.24-.27.76-1-1-4.5-1.52-3.46.2,2.56-.21,3.25-1.73,1.66-1.87,1.17-.62.84-1.11-.62a27.51,27.51,0,0,0-1.73-3.67s-.76-.83,0,1,1.8,2.84,1.25,3.46-2.36,1.25-2.36-.27-1.2-4.43-1.34-4a7.2,7.2,0,0,0,.51,2.91c.35.9.14,1.66-.13,1.66a6.24,6.24,0,0,1-2-2.91c-.42-1.31-1.52-3.18-1.66-2.7a2.28,2.28,0,0,0,.14,1.66A4.61,4.61,0,0,0,86,145.76Z"/><path class="cls-7" d="M131,291.81s3,8.72-.26,15.93-7.07,11-9.58,14.87-2.25,4.59-3.31,3.75S115.75,351,116,359s-3.17,12.76-2.25,13.68,4,.26,2,2.9-3.3,3-5.28,4.63-5.41,4.6-5.41,4.18,3.25-7.62,0-7.62-3.12,2.12-5.63-1.58-3.43-3.57-2.51-4.49.85-3.17,4.36-1.32,3.12,4.17,5.36,1.19,2.25-1.93,2.25-3,1-25.51,1-27.89.27-6.2-.66-7.13-2.9-.53-4.49-.26-.6,2.64-2.72,2.11-4.22-4.49-4.62-3-3.56,3.3-1.71,1.19,6.81-3.43,9.19-3.56,3.56.39,3.56-1.06,1.32-2.85-1.85-2.72-4.83-.39-6.41,0-5.81,1.59-3.31,0a40.74,40.74,0,0,1,8.4-3.43c1.72-.53.92-2.91.53-4.49s-5.7-2.83-4-5.29,3.64-2.85,4.17-2.85,2.38,5,2.64.93-.92-6.87.53-8.19,2.78-2.38,3.83-.79-1,2.77.66,3.3,4-3,3.91-4.62-.13-6.37.79-3.78.53,2.32.53,5.89.53,8.05,2.25,5.94,2.11-6.34,4.22-4.75,3.43,2,4,0,.14-1.24-.13-3.83,2.25-4.31-.92-6.42-1.46-2.11-5.28-3.17-7.67,3.9-4.63-2.05,2.91-8.86,4.49-7.27.66,3.25,2.38,4,4.75-.92,5,.13-2,2.12-3.3,2.38-4.63-.15-2,.72,2.29-.85,4.09,1A6.07,6.07,0,0,1,131,291.81Z"/><path class="cls-7" d="M70.86,384.42l8.83-4.87,1.75,4.87s1.22-6.62,1.22-7.32-.87-1.05,1.75-.88S87,378.15,87,378.15l6.91,1.05s-8,5.86-9.18,6.55-3.5.53-3.32,1.05-.35,3.15.52,4,3,3.67,3.33,2.09,0-.87,0-2.79.26-2.28,3-4.55A16.64,16.64,0,0,0,92,381.82s3.15.92,2.62,2.6-2.27,5.36-2.1,6.41,2.45-4.72,6.12-4.72,9.53-.36,9.53-.36-5.68-2.88-7.43-4.1-3-1.23-3.5-3.33-3.67-3.49-.35-3.32,5.69-.52,7.43.35,2.28,4,2.28,4-7.08-6.64-10.23-6.64-6.91,1-7.7,1-1.83-.18-2-1.4-1.22-1.75,0-2.62,3.67-2,2-2-4.46.34-4.46.34,4.2,3.94,0,5.51-4.72,1.75-4.72,1.75h-9.7Z"/><path class="cls-7" d="M94.12,392.4s-.44-2.62,4.54-2.62a41.13,41.13,0,0,1,5.68.17s7.52,1.75,6-.7-5.25-1.35-1.22-4.83-.44-6.27,5.59-5.57,6.91-1.31,7.43,2.8,1.58,3.41-1.57,5.68.52,1.75-1.4,4-21.68,4.9-21.68,4.37S94.12,392.4,94.12,392.4Z"/><path class="cls-7" d="M163.1,381.3l-7.26,5a16.26,16.26,0,0,1,3.41.35c1.23.35,3,2.1,4.2,3s-3.68-3-2.1-4.37a26.91,26.91,0,0,1,2.45-2.1,2.7,2.7,0,0,0,1-2Z"/><path class="cls-7" d="M188.72,290.64s-2-2.26-2-3-2.09-8.57-2.09-8.57,2-11.81,3-12-5-10.83,5.8,2.95,7.81,8.4,18.41,16.74,12.67,5,13,15.79-.87,15.11,1.21,20-.87,23-9.54,30.27-13.9,11.29-18.58,10.6-10.43,2.06-12.46-3.74S178,345.74,184,339s2.84-11.18,5.62-19.68,2.61-13.72,3.47-16,2.09-4.17,1.57-6.77-3.65-2.78-3.65-2.78Z"/><path class="cls-7" d="M142.67,264.74s7.63-5.67,5.87-8.41-9.79-4.69-10.18-5.87-.58-1.56-2.93-6.85-7.21-8-8-6.25,4.89,4.69-1.57,3.91-2-3.13-8.8-1.18-9.39,3.92-9,7.44-12.13,2.15-.39,9.19,5.11,10.37,16.43,8,12.1-2.54,12.1-2.54Z"/></g><path class="cls-8" d="M176.5,331.36s4.09-11.66,4.49-13.9,1.18-6.43,1.84-7.49a8.79,8.79,0,0,0,1.37-3.68c.08-1.19-1.28-3.51-3.3-6.16s-4.39-6.21-4.39-6.21l1.18.92s-.39-5.79-1.84-7.9-4.6-11.57-5.25-14.08-1.06-7.62-1.85-9.6a60.58,60.58,0,0,0-2.5-5.66c-.79-1.45-2.5-8.39-2.9-8.66s-.53,8.66.79,12.08,5.14,7.36,6.19,14.48c1.71,5.26,1.6,11.17,2.24,14.07A87.79,87.79,0,0,0,176.24,301c.53.79,1.19,1.19,1.45,2.24s1.58,8.55.4,12.24a34.6,34.6,0,0,0-1.85,8.82c0,1.72-.13,4.46-.13,4.46Zm-63.3,40.5L170.37,383s-2.9-10.88-4.07-14.07-1.45-7.69-2-12-3.78-8.26-5.65-13.78-4.07-18.56-4.94-18.86-5.23.3-7.56.88-3.32.29-5.35,1.21-8.43,7.05-8.43,7.05-5.36-3.49-8.27-4.07,1.17-12,1.17-12-12.63,3.78-14.37,3.78,0,3.19,1.16,5.28.87,3,.87,10.54S113.2,371.86,113.2,371.86Zm-15-2.57s-2.59-21-2-25.84-2-14.31-1.73-21.24,2-13.5,9.75-18.4,14.37-13.21,16.39-15.23,0-2.83,3.17-5.13,3.17-2.89,3.17-2.89,1.16-9.31-.86-12.27-4.33-10.4-6.34-15.59-7.74-18.12-10-20.42-12.92-17.2-14.65-19.51-9.17-8.3-11.19-15.51,0-23,1.73-30.18,2.88-11.48,2.3-12.34-3.74-.58-3.74-4,1.39-9.17,8-9.46,9.51,4,8.94,7.44-.58,2.31-2,4.9-1.73-.63-1.44,5.14-.29,11.77-.29,13.79-.87,18.4-.87,20.13-3.89.76,4.14,6.67,10.74,9.24,13.32,9.39,4.4,1.81,5.16.75,1.83-2.11-.46-3.47-3.19-2.57-3.64-3.78a41.53,41.53,0,0,0-2.27-4.4c-1.21-2.27-1.06-3-1.66-4.84s0,.31-1.36-3.78-2.12-4.55-2.12-8.33-1.21-3.78,1.06-4.84-.62-3.49,6.8-7,8-2.27,13-2.12,11.06,1.06,11.66.76,2-2.87,2.42-2.42-.3,5-.3,5l7.27-.15L142,174.65s5.31,5.44,9.09,5.59,6.2-1.21,5.45.31,1.81,4.38-4.39,4.38-5.9.3-5.9.3-2.12,3.34,1.06,3.34,7.56.15,7.56.15l-.23,2.73s.12,1.24-2.38,2.61a18.67,18.67,0,0,1-6.12,1.69,49,49,0,0,1,4.42,4.67c1.48,1.93.9,5.44,7.37,8.39s12,10.44,12.38,15.67,2.39,9.3,4.89,15.09,2.61,11.37,4.76,16.36,4.2,11.47,4.42,15.78.46,8.62.46,9.07.23,7.28.23,7.28a13.16,13.16,0,0,0,2.16,1.92,29.68,29.68,0,0,1,3.07,2.38l-1.7-10.9-2.29-1,1.49-7.37,3.63,6.69-1.47,1.59,2.6,12.15s8.07-5.46,13.86.34,12.14,11,13.73,14.19,2.16,5.23,2.61,5.34-1.7.68-1.7.68-1,.34-1.25.8-.91-1-1.36-2.72-5.17-10-7.81-12-3.31-3.76-8.31-5.12-7.84-2-8.18.23a25.27,25.27,0,0,0-.34,6.48c.23,2,4.54,23.73,5.33,27.7s1.36,13.51,1.36,13.51-1.58.46-1.81-2-2-19-2.95-23.39-2.83-7.86-2.83-10.46a46.1,46.1,0,0,0-.23-4.64s-.34-1.48-1-.23.56,5.89-.34,4.87-1-3.51-1-3.51l-2.39-2.27a16.13,16.13,0,0,1,1,3.75c0,1.13,1,2.72.6,2.94s-2.17-1-2.52.23,0,2.94-.24,3.63-2.61.47-2.61,3,.68,2.27-.68,6.24-2,14.07-3.06,18-1.37,2.62-1.37,2.62-1.47-4.34-1.36-1.71a50.09,50.09,0,0,0,1.14,6.93c.11.68-.91.22.91,1.47s2.83,1.58,3.4,3.86,3.06,2.85,2.15,3.53-2.49,1.24-1.7,3.17,2.38,3.4,2.27,5.79-.34,2.16-.34,5.11-.34,2.39.23,4.65-.57,1.47.22,4.88,1.15,4.55,1.49,5.8,1.14,3.29,1.36,4.42a22.93,22.93,0,0,0,.71,2.5l-20.58.22-98.17-.58v-3.87c0-1.29,3.23-19.76,3.23-19.76s10.73-3.11,14.93-1A24.21,24.21,0,0,0,98.22,369.29Z"/><g class="cls-9"><path class="cls-7" d="M188.72,290.64s-2-2.26-2-3-2.09-8.57-2.09-8.57,2-11.81,3-12-5-10.83,5.8,2.95,7.81,8.4,18.41,16.74,12.67,5,13,15.79-.87,15.11,1.21,20-.87,23-9.54,30.27-13.9,11.29-18.58,10.6-10.43,2.06-12.46-3.74S178,345.74,184,339s2.84-11.18,5.62-19.68,2.61-13.72,3.47-16,2.09-4.17,1.57-6.77-3.65-2.78-3.65-2.78Z"/></g><path class="cls-10" d="M222.44,314.17s-6.67,13.5-7.45,15.44-2.14,5.07-2,6.63-1.56,3.75-2.34,5.11-3.89,6.24-4.28,7.8-3,5.11-3.36,5.7a15.74,15.74,0,0,1-5.07,2.92c-2.14.78-8,2.14-8,2.14l-4.48-.19s10.77-1.17,12.52-2.93-.39-1.94,1.76-1.94,2.09,1.31,3.89-2.78,5.7-9.5,6.09-10.91,2.34-4.53,2.34-6.29,4.62-15.05,6.23-16.8S222.44,314.17,222.44,314.17Z"/><polygon class="cls-11" points="370.35 117.14 428.48 117.14 428.48 133.5 393.94 133.5 393.94 146.78 423.49 146.78 423.49 162.19 393.94 162.19 393.94 193.22 370.35 193.22 370.35 117.14"/><path class="cls-11" d="M370.14,223.4h39.11q12.78,0,19.14,6.09t6.36,17.31q0,11.54-6.94,18t-21.19,6.5H393.73v28.16H370.14Zm23.59,32.52h5.8q6.84,0,9.6-2.36a7.61,7.61,0,0,0,2.77-6.06,8.44,8.44,0,0,0-2.4-6.08q-2.4-2.5-9-2.5h-6.74Z"/><path class="cls-11" d="M366.21,380.59l22.31-1.4c.49,3.62,1.47,6.37,3,8.27q3.63,4.59,10.37,4.59c3.36,0,5.94-.78,7.76-2.36a6.8,6.8,0,0,0,.15-10.76q-2.58-2.32-12-4.4-15.45-3.48-22-9.23a18.56,18.56,0,0,1-6.63-14.67,19.93,19.93,0,0,1,3.39-11.06,22.51,22.51,0,0,1,10.22-8.19q6.82-3,18.71-3,14.57,0,22.23,5.43t9.1,17.28l-22.1,1.31q-.88-5.19-3.71-7.54c-1.89-1.56-4.49-2.35-7.81-2.35q-4.1,0-6.17,1.74a5.32,5.32,0,0,0-2.08,4.23,4.26,4.26,0,0,0,1.68,3.26c1.09,1,3.7,1.94,7.85,2.8q15.39,3.31,22.06,6.72a23.19,23.19,0,0,1,9.69,8.44,21.4,21.4,0,0,1,3,11.26,24.14,24.14,0,0,1-4.05,13.5,25.27,25.27,0,0,1-11.3,9.37Q412.57,407,401.52,407q-19.39,0-26.86-7.47A29.42,29.42,0,0,1,366.21,380.59Z"/></svg>