<svg id="Layer_9" data-name="Layer 9" xmlns="http://www.w3.org/2000/svg" viewBox="0 0 512 512"><defs><style>.cls-1{fill:#45adb4;}.cls-2{fill:#fafdff;}.cls-3{fill:#f3f9f9;}</style></defs><polygon class="cls-1" points="0 0 512 0 512 512 0 512 0 0 0 0"/><path class="cls-2" d="M253.51,341c-1.49-14.21-3.17-28.41-4.45-42.65-2.31-25.72-4.32-51.46-6.59-77.18A39.88,39.88,0,0,0,237,203.77c-6.61-10.91-19.41-15.18-31.11-10.25-32.41,13.66-56.08,36-69.05,69.14-.82,2.1-1.16,4.55-4.84,5.24a111.51,111.51,0,0,1,.3-43.12c10-51.15,48.17-89.73,99.14-100.24,4.83-1,6.93-3.28,7.82-7.83a57,57,0,0,1,11.1-25c3.19-4,5.88-4,9.08,0a48.68,48.68,0,0,1,10.41,22.8c.94,6.09,3.56,8.48,9.45,9.73,53.94,11.44,87.28,44.55,100.73,97.64,4.12,16.25,3.66,33,.51,50.13-2.84-2-2.87-4.89-3.74-7.25-13.32-36.3-39.17-59.87-74.91-73-13.35-4.9-29.63,6-33.19,21.94-3.14,14-3.07,28.43-4.56,42.65-2.95,28.21-4.7,56.54-8.55,84.66Z"/><path class="cls-3" d="M253.51,341l2.09-.06a13.69,13.69,0,0,1-2.09,12Z"/><path class="cls-2" d="M173.29,397.65a82.76,82.76,0,0,1-25.67,4.29c-12.64,0-23.06-3-31.24-10.33-7.19-6.5-11.66-16.95-11.66-29.14.13-23.33,17.24-40.39,45.26-40.39,9.67,0,17.23,2,20.83,3.6l-2.61,8.24c-4.46-1.86-10-3.37-18.47-3.37-20.33,0-33.6,11.84-33.6,31.46,0,19.85,12.77,31.57,32.24,31.57,7.06,0,11.9-.93,14.38-2.08V368.16h-17V360h27.53Z"/><path class="cls-2" d="M203.27,376.52l-8.68,24.61H183.43l28.4-78.24h13l28.52,78.24H241.83l-8.93-24.61Zm27.4-7.89-8.18-22.52c-1.86-5.11-3.1-9.75-4.34-14.28h-.25c-1.24,4.64-2.6,9.4-4.21,14.16l-8.19,22.64Z"/><path class="cls-2" d="M265.62,401.13V322.89h11.77l26.79,39.58a219.27,219.27,0,0,1,15,25.43l.25-.12c-1-10.45-1.24-20-1.24-32.15V322.89h10.16v78.24H317.44l-26.53-39.7a242.75,242.75,0,0,1-15.62-26.12l-.38.12c.62,9.86.87,19.27.87,32.27v33.43Z"/><path class="cls-2" d="M360.69,376.52,352,401.13H340.85l28.39-78.24h13l28.52,78.24H399.25l-8.93-24.61Zm27.4-7.89-8.18-22.52c-1.86-5.11-3.1-9.75-4.34-14.28h-.25c-1.24,4.64-2.6,9.4-4.22,14.16l-8.18,22.64Z"/></svg>