<svg id="Layer_14" data-name="Layer 14" xmlns="http://www.w3.org/2000/svg" viewBox="0 0 512 512"><defs><style>.cls-1{fill:#fff;}.cls-2{fill:#1e2f5d;}.cls-3{fill:#9dcd67;}</style></defs><rect class="cls-1" width="512" height="512"/><path class="cls-2" d="M432,512c0-5.41.09-10.83-.07-16.24-.06-2.24.7-2.8,2.86-2.8,18.16.08,36.32,0,54.48,0,3.72,0,3.72,0,3.72-3.58V22c0-3.4,0-3.41-3.41-3.41H22.2c-3.57,0-3.58,0-3.58,3.59V277.88c0,4,0,4-4.08,4-4.83,0-9.66.05-14.49.08Q.05,142.17,0,2.35C0,.57.26,0,2.25,0Q256,.09,509.81,0c1.75,0,2.19.3,2.19,2.15q-.09,253.91,0,507.81c0,1.74-.39,2-2.07,2Q470.95,511.9,432,512Z"/><path class="cls-3" d="M.05,319.49c5.74-.05,11.48-.09,17.22-.17,1.08,0,1.52.39,1.44,1.46-.05.75,0,1.5,0,2.25V489.46c0,3.5,0,3.5,3.61,3.5q184.55,0,369.09-.06c2.45,0,3.25.48,3.13,3.07-.23,5.32-.07,10.65-.07,16Q198.39,512,2.3,512c-1.88,0-2.3-.42-2.3-2.3Q.09,414.6.05,319.49Z"/><path class="cls-2" d="M193.5,436.92c-.5,3.16-1,6.22-1.46,9.28-1.31,8.63-2.65,17.26-3.88,25.9-.23,1.63-.81,2.32-2.5,2.3-4.33-.08-8.66-.06-13,0-1.6,0-2.18-.37-1.86-2.18q5.41-31.45,10.67-62.94a2.25,2.25,0,0,1,2.64-2.23c4.16.06,8.33.11,12.48,0,1.92-.06,2.81.7,3.45,2.43,3.56,9.68,7.22,19.33,10.86,29a10.26,10.26,0,0,0,1.85,3.71c1.21-3.17,2.3-6,3.36-8.84,3-7.95,6-15.88,8.87-23.86a3.07,3.07,0,0,1,3.44-2.42c4.16.13,8.33.08,12.49,0,1.6,0,2.34.49,2.63,2.2q5.2,31.36,10.61,62.7c.35,2-.15,2.5-2,2.46-4.16-.08-8.33-.09-12.49,0-1.88.05-2.56-.63-2.83-2.51-1.52-10.78-3.2-21.54-4.81-32.31a4.57,4.57,0,0,0-1-2.79c-1.14,2.73-2.24,5.3-3.3,7.88-3.67,8.93-7.51,17.8-10.89,26.84-1.14,3.07-3.1,2.73-5.43,2.93-2.52.22-3.23-1.16-4-3.11-4.21-10.95-8.51-21.86-12.78-32.79C194.45,438,194.44,437.37,193.5,436.92Z"/><path class="cls-2" d="M87.12,359.41v-6.74c0-10.08.07-20.15-.06-30.23,0-2.45.77-3.18,3.15-3.08,4,.18,8,.1,12,0,1.68,0,2.36.5,2.35,2.28q-.06,31.35,0,62.71c0,1.68-.67,2.14-2.23,2.12-4.41-.07-8.83-.06-13.24,0a3.56,3.56,0,0,1-3.14-1.58Q71.51,366.41,57,348c-.44-.56-.73-1.32-1.64-1.45-.57.83-.29,1.76-.29,2.63q0,17,0,34c0,3.34,0,3.35-3.45,3.35-3.67,0-7.34-.14-11,0-2.38.12-3.12-.61-3.1-3,.1-15.41,0-30.82,0-46.22,0-4.92.11-9.84,0-14.74-.07-2.34.54-3.28,3-3.16,4,.19,8,.14,12,0a4.61,4.61,0,0,1,4.2,2.05q13.82,17.73,27.73,35.38A8.56,8.56,0,0,0,87.12,359.41Z"/><path class="cls-2" d="M476,352.5c0,19.47-14.23,34.32-33.25,35.59-10.38.68-19.85-1.39-28.13-7.88-14.88-11.67-17.16-35.6-4.8-49.92,9.13-10.58,20.92-14,34.37-12.48,11.41,1.27,20.5,6.58,26.69,16.4A31.9,31.9,0,0,1,476,352.5ZM439,334.43c-10.5,0-18.86,8-19,18.23s8.44,18.69,18.82,18.78,19.05-8.35,19.1-18.51S449.55,334.44,439,334.43Z"/><path class="cls-2" d="M359.79,476.07c-18-.05-32-10.4-35.93-26.67-5.07-20.69,8.06-40.35,29.17-43.48,11.9-1.77,22.92.36,32.25,8.42A33.25,33.25,0,0,1,397,438.58c.5,9-1.8,17.19-7.54,24.21C381.8,472.14,371.64,476.05,359.79,476.07Zm.14-53.68c-10.66,0-19,8.1-18.92,18.42a18.87,18.87,0,0,0,18.82,18.48c10.41,0,19.08-8.42,19.1-18.51C379,430.5,370.56,422.38,359.93,422.39Z"/><path class="cls-2" d="M360.48,361.73c0,4.3.07,8.61,0,12.91-.09,3.81.42,7.63-.3,11.42-3.85.91-7.76.19-11.64.41-.83,0-1.68-.09-2.49,0-2.39.33-3.12-.59-3.1-3,.1-18.08.05-36.15.05-54.23,0-2.5.08-5,0-7.49-.07-1.7.51-2.38,2.27-2.36,9.33.08,18.68-.3,28,.17,12.81.65,20,10.39,19,22.73-.63,8.17-4.75,13.69-12.67,16.12-2.28.69-.9,1.66-.3,2.45,5.71,7.48,11.47,14.91,17.16,22.41.66.87,2.13,1.73,1.52,2.85-.47.86-2,.34-3.06.34-5.08,0-10.16-.07-15.24.07a4.08,4.08,0,0,1-4-2.23c-4.2-6.7-8.52-13.33-12.8-20-.58-.91-1.19-1.79-1.79-2.69Zm4.18-28.82c-4.18,0-4.18,0-4.18,3.73,0,3.49.07,7,0,10.49-.05,1.77.62,2.37,2.33,2.3a20.49,20.49,0,0,0,6.62-1.06,7.31,7.31,0,0,0,5-6.8,7.41,7.41,0,0,0-4.5-7.65A11.45,11.45,0,0,0,364.66,332.91Z"/><path class="cls-2" d="M177,343.34c-.32,6.45.4,14.36-.46,22.27-1.47,13.42-10.28,21.75-23.73,22.44a58.36,58.36,0,0,1-13.41-.49C127,385.36,120,377.61,119,365c-1.09-14.47-.21-29-.5-43.46,0-1.72.75-2.11,2.27-2.09,4.25.05,8.5.1,12.75,0,2-.06,2.53.72,2.52,2.63-.05,12.16,0,24.32,0,36.48a24.29,24.29,0,0,0,1,7.15c1.53,5,4.91,7.28,10.6,7.32,5.88,0,9.32-2.22,11-7.12,1.14-3.24.92-6.58.94-9.9.06-11.16.09-22.33,0-33.49,0-2.42.73-3.2,3.13-3.09a105.36,105.36,0,0,0,11.24,0c2.64-.16,3.22.85,3.17,3.29C176.94,329.06,177,335.48,177,343.34Z"/><path class="cls-2" d="M265.5,440.83c0-10.33.05-20.65-.05-31,0-2.2.63-2.9,2.83-2.84,9.56.28,19.13-.26,28.7.38,11.62.78,19.46,8.87,19.52,20.48a38.87,38.87,0,0,1-.22,6.48C314.5,445.21,307,451.64,296,452c-3.41.1-6.83.17-10.24,0-2.27-.11-2.82.75-2.77,2.88.13,5.74,0,11.49.07,17.23,0,1.71-.53,2.39-2.28,2.35-4.25-.08-8.5-.11-12.74,0-2,.06-2.55-.69-2.54-2.61C265.53,461.48,265.5,451.15,265.5,440.83Zm17.5-11.2c0,2.08,0,4.16,0,6.23,0,1.42.36,2.2,1.95,2.12,1.91-.09,3.83.07,5.73-.09,4.91-.42,7.84-3.63,7.77-8.34-.06-5-3-7.91-8.14-8.12-1.74-.07-3.49,0-5.23-.05-1.46-.06-2.14.49-2.08,2C283.05,425.48,283,427.56,283,429.63Z"/><path class="cls-2" d="M263.12,317.47c4,.06,10.24,1.6,16.23,4.34,1.58.73,1.89,1.54,1.06,3.08-1.7,3.15-3.35,6.33-4.86,9.57-.81,1.74-1.67,1.67-3.05.69A15.63,15.63,0,0,0,262.21,332a7.75,7.75,0,0,0-4.8,1.87,4.61,4.61,0,0,0,0,7.37c2,1.79,4.51,2.45,7,3.18A41.12,41.12,0,0,1,276.86,350a16.86,16.86,0,0,1,7.06,11.89c2,14.16-7.23,25.2-21.5,26.22a43,43,0,0,1-25.15-5.55c-2-1.17-2.72-2.27-1.35-4.5,1.87-3,3.45-6.27,5.07-9.46.78-1.53,1.51-1.64,2.83-.55,4.16,3.42,8.83,5.65,14.37,5.44a8,8,0,0,0,5.88-2.32,5.65,5.65,0,0,0-1.06-9,28,28,0,0,0-5.92-2.63c-2.51-.9-5-1.72-7.53-2.65-11.13-4.17-13.31-12.14-11.8-21.68C239.55,323.89,248.13,317.48,263.12,317.47Z"/><path class="cls-2" d="M122.94,440.58c0-10.24.06-20.49,0-30.74,0-2.22.72-2.84,2.88-2.82q16.23.14,32.48,0c2.24,0,2.91.72,2.8,2.88a79.12,79.12,0,0,0,0,9.24c.16,2.41-.81,2.94-3,2.88-5.16-.13-10.33,0-15.49-.07-1.82,0-2.6.51-2.49,2.4a46.2,46.2,0,0,1,0,6c-.13,2,.58,2.81,2.69,2.75,4.82-.12,9.66,0,14.49-.07,2.1,0,2.79.74,2.71,2.78-.12,3.24-.11,6.5,0,9.74.06,1.83-.55,2.5-2.43,2.46-5-.1-10,0-15-.07-1.85,0-2.55.57-2.46,2.44a60.62,60.62,0,0,1,0,6.74c-.1,1.92.71,2.42,2.51,2.39,5.33-.1,10.66,0,16-.07,1.81,0,2.55.48,2.48,2.39-.12,3.5-.08,7,0,10.5,0,1.5-.53,2.07-2,2.07-11.32,0-22.65-.05-34,0-2,0-2.08-1.08-2.08-2.57C123,461.41,122.94,451,122.94,440.58Z"/><path class="cls-2" d="M189,352.73c0-10.16,0-20.33-.05-30.49,0-2.16.59-2.89,2.82-2.87q16.25.15,32.49,0c2.16,0,3,.61,2.87,2.83-.16,3.16-.1,6.34,0,9.5.05,1.71-.56,2.36-2.31,2.34-5.24-.08-10.49,0-15.74-.06-2,0-2.71.57-2.57,2.56a52.05,52.05,0,0,1,0,6.49c-.12,1.92.7,2.43,2.48,2.4,4.84-.08,9.67,0,14.5-.05,1.93,0,2.69.56,2.6,2.56-.14,3.16-.12,6.34,0,9.5.07,1.91-.52,2.66-2.54,2.61-4.91-.13-9.83,0-14.75-.07-1.75,0-2.36.6-2.29,2.32.11,2.33.11,4.67,0,7-.08,1.78.67,2.31,2.35,2.29,5.17-.07,10.34,0,15.5-.06,2,0,2.88.49,2.79,2.65-.15,3.41-.08,6.83,0,10.25,0,1.48-.53,2.07-2.05,2.06-11.33,0-22.66-.05-34,0-2,0-2.08-1-2.08-2.53Q189,368.35,189,352.73Z"/><path class="cls-2" d="M52,448.25c0-7.91-.05-15.81,0-23.72,0-1.92-.54-2.68-2.55-2.6-3.24.15-6.49,0-9.74.06-1.6,0-2.22-.52-2.18-2.16.08-3.57.07-7.15,0-10.73,0-1.52.57-2.05,2.06-2.05q21,0,41.94,0c1.5,0,2.07.57,2,2.07-.06,3.58-.08,7.16,0,10.74,0,1.65-.63,2.17-2.21,2.13-3-.08-6,.12-9-.06-2.3-.14-3,.67-3,2.95.09,15.32,0,30.63,0,45.95,0,3.54,0,3.54-3.55,3.55-3.75,0-7.49-.09-11.24,0-2,.07-2.77-.59-2.74-2.69C52,463.9,52,456.07,52,448.25Z"/><path class="cls-2" d="M303.49,360.23v-23c0-3.22,0-3.22-3.33-3.23-3,0-6-.05-9,0-1.47,0-2.12-.5-2.09-2,.05-3.5,0-7,0-10.5,0-1.45.49-2.11,2-2.11q21.12,0,42.23,0c1.48,0,2.11.55,2.09,2.05-.05,3.5-.07,7,0,10.49,0,1.71-.76,2.12-2.28,2.09-3.17-.07-6.34.09-9.5-.06-2.08-.09-2.69.65-2.68,2.71.07,15.49,0,31,0,46.47,0,3.32,0,3.32-3.21,3.33-3.92,0-7.84-.09-11.75,0-1.95.07-2.59-.57-2.57-2.55C303.54,376.05,303.49,368.14,303.49,360.23Z"/><path class="cls-2" d="M91.45,440.7c0-10.23.06-20.46,0-30.69,0-2.28.64-3.09,3-3,3.9.16,7.81.1,11.72,0,1.74,0,2.55.43,2.55,2.37q-.09,31.32,0,62.64c0,1.72-.58,2.38-2.31,2.35-4.08-.08-8.16-.12-12.23,0-2.12.07-2.69-.74-2.68-2.76C91.49,461.34,91.45,451,91.45,440.7Z"/></svg>