<svg id="Layer_4" data-name="Layer 4" xmlns="http://www.w3.org/2000/svg" xmlns:xlink="http://www.w3.org/1999/xlink" viewBox="0 0 512 512"><defs><style>.cls-1,.cls-5,.cls-9{fill:#fff;}.cls-1,.cls-12,.cls-3,.cls-4,.cls-8{stroke:#fff;}.cls-1,.cls-12,.cls-3,.cls-4{stroke-miterlimit:3.86;}.cls-1,.cls-12{stroke-width:1.6px;}.cls-2,.cls-7{fill:#3163ae;}.cls-11,.cls-12,.cls-13,.cls-3,.cls-4,.cls-8{fill:none;}.cls-3{stroke-width:3.29px;}.cls-4{stroke-width:19.74px;}.cls-11,.cls-5,.cls-6,.cls-7{fill-rule:evenodd;}.cls-6{fill:#85b9e4;}.cls-13,.cls-8{stroke-linejoin:round;}.cls-8{stroke-width:6.88px;}.cls-10{clip-path:url(#clip-path);}.cls-11,.cls-13{stroke:#3163ae;}.cls-11{stroke-miterlimit:3.86;stroke-width:1.26px;}.cls-13{stroke-width:3.13px;}</style><clipPath id="clip-path"><polygon class="cls-1" points="253.25 296.9 83.28 296.9 168.51 154.71 253.25 296.9 253.25 296.9 253.25 296.9 253.25 296.9"/></clipPath></defs><polygon class="cls-2" points="0 0 512 0 512 512 0 512 0 0 0 0"/><path class="cls-2" d="M30.48,248.34c0-74.67,62.75-135.19,140.17-135.19s140.16,60.52,140.16,135.19S248.05,383.52,170.65,383.52,30.48,323,30.48,248.34Z"/><path class="cls-3" d="M30.48,248.34c0-74.67,62.75-135.19,140.17-135.19s140.16,60.52,140.16,135.19S248.05,383.52,170.65,383.52,30.48,323,30.48,248.34Z"/><path class="cls-4" d="M74,250.89c0-50.79,42.68-92,95.35-92s95.35,41.18,95.35,92-42.7,92-95.35,92S74,301.68,74,250.89Z"/><path class="cls-2" d="M74,250.89c0-50.79,42.68-92,95.35-92s95.35,41.18,95.35,92-42.7,92-95.35,92S74,301.68,74,250.89Z"/><polygon class="cls-5" points="113.98 142.51 117.53 140.77 121.92 151.64 125.87 149.7 121.48 138.83 125.02 137.09 123.46 133.22 112.42 138.64 113.98 142.51"/><path class="cls-5" d="M157.5,129.74c-1.13-4-3.79-5.73-7.72-4.67-3.59,1-5.79,4.91-4.79,10s4.19,7.59,8.44,6.44c3.4-.93,5.29-4,4.87-8.18l-4.05,1.1c.14,1.56-.28,2.89-1.64,3.25-2.14.59-2.94-1.38-3.38-3.57-.59-3,0-4.82,1.48-5.23,1.32-.37,2.34.35,2.79,1.95Z"/><path class="cls-6" d="M100.46,147.79l1.59-1.38c.79-.69,1.66-.75,2.26.17s.25,1.72-.81,2.64l-1.34,1.16Z"/><polygon class="cls-5" points="292.67 296.67 291.16 295.31 293.3 291.17 295.31 291.56 297.45 287.42 281.8 285.26 279.61 289.49 290.57 300.74 292.67 296.67"/><polygon class="cls-7" points="290.15 290.5 288.79 293.12 284.7 289.43 290.15 290.5"/><polygon class="cls-5" points="271.79 302.77 269.02 306.04 280.41 316.21 283.24 312.87 279.63 309.66 276.93 307.47 286.34 309.22 289.12 305.97 277.73 295.79 274.89 299.12 278.52 302.35 281.23 304.55 271.79 302.77"/><path class="cls-5" d="M262.32,314.11c-2.93,3.13-2.76,7.59.54,11.14,3.59,3.84,7.62,3.94,10.57.77,2.79-3,2.92-7.45-.68-11.3C270,311.74,265.68,310.52,262.32,314.11Z"/><path class="cls-7" d="M264.88,316.91c1.31-1.51,3.36-.42,4.79,1.11,1.75,1.87,2.51,3.81,1.18,5.23-1.47,1.59-3.53.17-4.87-1.27S263.48,318.4,264.88,316.91Z"/><polygon class="cls-5" points="265.47 333.57 255.61 321.56 252.4 324.72 262.28 336.74 265.47 333.57"/><path class="cls-5" d="M252.68,331.53c-2.66-3-5.78-3.23-8.83-.35-2.79,2.64-3.11,7.22-.09,11.26s6.92,4.69,10.22,1.58c2.64-2.5,3-6.18.91-9.68l-3.15,3c.78,1.32,1,2.71-.09,3.7-1.66,1.58-3.2.22-4.51-1.53-1.8-2.4-2-4.29-.87-5.37s2.23-.85,3.3.36Z"/><polygon class="cls-5" points="236.56 355.58 236.08 353.43 239.78 350.9 241.13 352.47 244.83 349.94 233.87 338.66 230.09 341.24 232.93 358.05 236.56 355.58"/><polygon class="cls-5" points="215.14 349.5 211.3 351.27 216.26 366.04 220.18 364.23 218.61 359.55 217.33 356.26 224.48 362.25 228.31 360.48 223.36 345.7 219.44 347.51 221.01 352.2 222.29 355.5 215.14 349.5"/><polygon class="cls-7" points="237.7 348.42 235.35 350.03 234.03 344.2 237.7 348.42"/><path class="cls-5" d="M280.64,234.64l3.29-.82-.76-6.61L294,224.53l-.54-4.82-14.07,3.49ZM275.78,212l1.94-.31,1.4,4.5-1.61,1.35,1.41,4.5,11.95-11.16-1.43-4.6-15.05,1.3Zm5.91,2.1-.88-2.85,5.26-.83Zm1.25-24.56-1.75-4-13,7.63,1.8,4.09,4.1-2.42,2.88-1.89-5,8.8,1.74,4,13-7.63-1.78-4.1-4.13,2.43-2.89,1.9Zm-8.67-14.62c-2.51-3.54-6.61-3.91-10.27-.78-3.95,3.4-4.53,7.72-2,11.28,2.38,3.36,6.47,4,10.43.65C275.51,183.4,277.14,178.93,274.27,174.88Zm-2.88,2.4c1.22,1.6,0,3.67-1.6,5-1.93,1.65-3.79,2.24-4.93.63-1.28-1.78.27-3.82,1.76-5.09S270.2,175.6,271.39,177.28Zm-15.17.24L267,166.41l-3-3.36-10.75,11.11ZM257.45,165c2.23-3.36,1.94-6.73-1.21-9.49-2.88-2.52-7.1-2.06-10.24,1.87s-3.07,8.2.34,11.18c2.73,2.38,6.14,2.17,8.95-.71L252,165c-1.06,1-2.3,1.49-3.38.53-1.72-1.5-.75-3.37.61-5.07,1.87-2.34,3.55-2.91,4.73-1.87a2.52,2.52,0,0,1,.25,3.59Zm-26.08-6.85,1.47-1.52,3.87,2.21-.57,2.05,3.87,2.21,3.53-15.93-4-2.26-12,11.07Zm6.28-2.51-2.45-1.4,4-4.15Zm-15.42-18.71-4.06-1.18L213,150.32l4.14,1.2,1.63-4.63,1-3.37,1.92,9.33,4.05,1.17,5.14-14.62-4.14-1.2-1.63,4.64-1,3.38Zm-26-9-4.16-1.1-4.91,14.38,4.26,1.12,1.56-4.55.94-3.31,2.17,9.1,4.17,1.09,4.91-14.37-4.26-1.13-1.57,4.58L198.4,137ZM179.36,125c-4.43-.24-7.92,2.61-8.61,7.26-.77,5,1.79,8.07,6.28,8.31,4.21.23,7.91-2.43,8.66-7.46C186.28,129.2,184.46,125.28,179.36,125Zm-.58,3.61c2.07,0,2.54,2.23,2.24,4.25-.37,2.44-1.43,4.2-3.45,4.1-2.25-.12-2.45-2.52-2.16-4.41S176.66,128.5,178.78,128.61ZM167,139.92l.72-14.79-4.72.25-.72,14.79Zm-32.69,5.54.06-2,4.57-1.66,1,1.64,4.57-1.66L136,129.66l-4.67,1.69-1.48,15.74Zm3.1-6.29-2.9,1.05.16-5.5ZM83.13,169.5c-2.77-2.22-6-1.76-9.23,1.71-2.93,3.17-3.27,7.63-.12,10.8s7.21,2.89,10.68-.86c2.75-3,3.18-6.62,1-9.48l-3.31,3.58a2.6,2.6,0,0,1-.1,3.57c-1.75,1.9-3.35,1-4.71-.42-1.88-1.89-2.11-3.64-.9-5a2.33,2.33,0,0,1,3.45-.42Zm-23,20.31-2.64,4,11.38,7.66,2.7-4.05L68,195l-2.7-1.58,9.27-.43,2.65-4-11.38-7.66-2.7,4,3.62,2.44,2.7,1.58Zm-9.32,16.66c-1.89,4.41-.54,8.41,3.51,9.92,4.4,1.64,8.18-.4,10.09-4.85,1.79-4.21.71-8.38-3.69-10C57.32,200.25,53,201.4,50.82,206.47ZM54,207.68c.82-2.07,3-2.16,4.78-1.5,2.14.79,3.38,2.17,2.52,4.18-.95,2.23-3.25,2-4.9,1.39S53.06,209.79,54,207.68Zm-2.18,10.91c-3.59-.46-6.44,1.54-7.86,6-1.31,4.08.37,7.95,4.74,9s8.06-1.18,9.6-6c1.24-3.86,0-7.07-3.34-8.35l-1.48,4.61a2.26,2.26,0,0,1,1.5,3c-.78,2.43-2.7,2.45-4.59,2-2.61-.64-3.61-2-3.07-3.66a2.65,2.65,0,0,1,3-2.06Zm49-54.81-2.37-2.47-5.46,4.9-1.6-1.67,4.43-4-2.38-2.48-4.44,4-1.46-1.52,5.24-4.71-2.39-2.48-8.76,7.89,10.22,10.59Zm4.82-10.55c1.64-1.31,2.23-.93,3.29.81a10.32,10.32,0,0,0,1.61,2.19l3.54-2.85c-.67-.08-1-.71-2-2.45-1.64-2.69-2.52-2.47-4-2.07a4.21,4.21,0,0,0-.2-4.71c-1.58-2.6-3.49-2.86-7,0l-5,4.07,8.15,13.34,3.5-2.82-2.84-4.65Z"/><path class="cls-7" d="M100.46,147.79l1.59-1.38c.79-.69,1.66-.75,2.26.17s.25,1.72-.81,2.64l-1.34,1.16Z"/><polygon class="cls-5" points="302.14 271.18 298.87 270.28 296.77 276.55 286.04 273.62 284.5 278.19 298.5 282.01 302.14 271.18"/><polygon class="cls-5" points="111.51 349.93 115.1 351.55 110.76 362.45 114.76 364.25 119.1 353.36 122.69 354.98 124.23 351.1 113.05 346.05 111.51 349.93"/><path class="cls-5" d="M153.14,364.35c.05-4.14-2-6.72-6-7-3.69-.27-6.91,2.73-7.4,7.9s1.83,8.62,6.19,8.95c3.5.26,6.18-2,7-6.15l-4.17-.31c-.3,1.53-1.09,2.66-2.48,2.54-2.2-.15-2.4-2.29-2.19-4.53.3-3.08,1.37-4.58,2.89-4.47s2.14,1.11,2.1,2.78Z"/><polygon class="cls-5" points="189.73 357.09 185.54 358.07 186.94 373.33 191.23 372.31 190.78 367.48 190.29 364.06 195.93 371.2 200.12 370.2 198.71 354.95 194.43 355.97 194.87 360.82 195.37 364.25 189.73 357.09"/><path class="cls-5" d="M174.19,359.1a8.28,8.28,0,0,0-7.47,8.63c0,5.1,2.94,7.67,7.41,7.14,4.19-.49,7.46-3.74,7.47-8.84C181.62,362.08,179.25,358.51,174.19,359.1Z"/><path class="cls-7" d="M174.13,362.76c2.06-.3,2.83,1.78,2.82,3.82,0,2.47-.8,4.4-2.81,4.63-2.23.26-2.78-2.07-2.76-4S172,363,174.13,362.76Z"/><polygon class="cls-5" points="161.37 374.8 162.8 360.07 158.08 360.06 156.64 374.79 161.37 374.8"/><polygon class="cls-5" points="124.61 367.53 125.76 365.93 130.35 367.5 130.28 369.47 134.88 371.03 134.53 355.81 129.83 354.2 120.1 365.99 124.61 367.53"/><polygon class="cls-7" points="130.53 364.41 127.62 363.41 130.73 359.06 130.53 364.41"/><path class="cls-5" d="M82.5,328.38c2-3,1.51-6.57-1.75-10-3-3.12-7.09-3.41-10,0s-2.54,7.88,1,11.56c2.82,2.94,6.17,3.34,8.76.9l-3.36-3.51a2.15,2.15,0,0,1-3.29-.06c-1.78-1.86-.94-3.61.31-5.11,1.7-2.06,3.32-2.35,4.55-1.06a2.82,2.82,0,0,1,.44,3.73Z"/><polygon class="cls-5" points="69.85 301.21 67.46 297.07 56.65 305.63 59.09 309.86 62.52 307.15 64.88 305.03 61.77 314.52 64.17 318.66 74.98 310.09 72.54 305.86 69.1 308.58 66.73 310.7 69.85 301.21"/><path class="cls-5" d="M62.89,286.9c-2-4.37-5.69-5.75-9.33-3.29-3.94,2.68-4.86,7.15-2.86,11.55,1.88,4.16,5.55,5.88,9.5,3.2C63.26,296.29,65.16,291.91,62.89,286.9Z"/><path class="cls-7" d="M60,288.78c1,2-.35,3.91-1.93,5-1.91,1.3-3.69,1.47-4.58-.51-1-2.2.6-4,2.09-5S59.1,286.69,60,288.78Z"/><path class="cls-5" d="M54.05,279c2.76-2.53,3.35-6.14,1.31-10.32-1.86-3.82-5.62-5.13-9.32-2.39s-4.7,7.19-2.5,11.71c1.77,3.61,4.78,4.82,7.92,3l-2.1-4.31c-1.18.63-2.35.57-3.06-.87-1.11-2.28.2-3.82,1.8-5,2.2-1.64,3.79-1.52,4.57.06a3.06,3.06,0,0,1-.7,3.82Z"/><polygon class="cls-5" points="88.33 346.74 90.25 343.85 85.02 338.67 86.32 336.72 90.58 340.92 92.5 338.02 88.24 333.82 89.42 332.04 94.45 337 96.39 334.1 87.96 325.79 79.71 338.23 88.33 346.74"/><path class="cls-5" d="M99.88,349.78c1.69,1.21,1.56,1.94.42,3.62A11.17,11.17,0,0,0,99,355.79l3.69,2.63c-.17-.7.27-1.24,1.41-2.92,1.77-2.59,1.28-3.42.45-4.76,1.58.52,3-.33,4-1.81,1.71-2.5,1.28-4.53-2.42-7.18L100.83,338l-8.77,12.86,3.64,2.6L98.76,349Z"/><path class="cls-7" d="M102.84,342.7l1.74,1.14a1.62,1.62,0,0,1,.63,2.37c-.58.91-1.41.84-2.57.08l-1.46-1Z"/><polygon class="cls-8" points="253.25 296.9 83.28 296.9 168.51 154.71 253.25 296.9 253.25 296.9"/><polygon class="cls-9" points="253.25 296.9 83.28 296.9 168.51 154.71 253.25 296.9 253.25 296.9 253.25 296.9 253.25 296.9"/><g class="cls-10"><polygon class="cls-7" points="115.92 237.11 137.16 240.04 146.99 235.8 157.46 231.16 168.95 231.16 176.49 234.19 185.9 242.06 221.88 236.61 225.23 241.65 187.16 244.07 189.45 252.95 184.23 244.47 175.02 235.4 158.29 234.19 148.24 237.81 137.58 249.92 140.93 255.37 147.41 254.16 152.64 249.52 153.05 247.5 161.64 247.1 165.19 247.5 166.86 252.55 170 259.2 175.44 263.24 180.25 261.62 183.81 259.61 182.55 263.24 185.47 262.97 180.55 264.96 186.59 267.73 189.53 266.46 190.42 261.27 190.19 259.56 191.52 262.33 191.74 265.18 191.97 267.52 244.73 274.63 247.16 279.18 220.34 272.28 199.34 269.94 191.74 270.15 192.41 272.93 193.29 277.26 191.52 280.03 186.37 280.46 187.69 283.73 185.7 287.35 181.43 287.78 180.77 291.48 179.22 293.61 174.06 292.96 171.19 291.9 168.23 294.46 165.36 294.25 162.93 292.12 159.76 294.03 156.15 294.03 153.95 291.05 150.18 292.12 145.03 291.05 144.14 287.56 139.2 288.91 135.81 286.93 134.93 283.08 127.34 275.49 92.49 276.4 95.58 270.58 109.66 274.2 126.68 272.5 135.59 281.95 137.65 284.15 140.53 286.29 144.58 286.29 150.62 290.2 153.95 290.2 158.22 291.9 163.15 291.05 166.92 292.96 170.3 291.26 177.67 291.48 179.67 287.99 172.29 286.5 162.42 281.32 156.88 276.4 163.15 281.1 172.73 285.01 181.65 286.29 185.47 284.58 185.26 280.67 179.22 279.61 172.95 277.68 166.25 272.5 173.4 276.83 182.09 278.75 189.97 278.11 191.09 275.06 190.42 271 184.15 269.94 176.79 267.73 168.9 262.55 177.67 266.25 179.22 265.6 173.62 263.4 169.42 260.63 164.48 252.88 164.48 248.75 154.17 248.33 153.5 251.38 149.67 256.72 140.53 256.3 136.7 250.47 140.75 244.42 139.2 241.65 134.71 240.8 112.6 242.29 115.92 237.11 115.92 237.11"/><polygon class="cls-11" points="115.92 237.11 137.16 240.04 146.99 235.8 157.46 231.16 168.95 231.16 176.49 234.19 185.9 242.06 221.88 236.61 225.23 241.65 187.16 244.07 189.45 252.95 184.23 244.47 175.02 235.4 158.29 234.19 148.24 237.81 137.58 249.92 140.93 255.37 147.41 254.16 152.64 249.52 153.05 247.5 161.64 247.1 165.19 247.5 166.86 252.55 170 259.2 175.44 263.24 180.25 261.62 183.81 259.61 182.55 263.24 185.47 262.97 180.55 264.96 186.59 267.73 189.53 266.46 190.42 261.27 190.19 259.56 191.52 262.33 191.74 265.18 191.97 267.52 244.73 274.63 247.16 279.18 220.34 272.28 199.34 269.94 191.74 270.15 192.41 272.93 193.29 277.26 191.52 280.03 186.37 280.46 187.69 283.73 185.7 287.35 181.43 287.78 180.77 291.48 179.22 293.61 174.06 292.96 171.19 291.9 168.23 294.46 165.36 294.25 162.93 292.12 159.76 294.03 156.15 294.03 153.95 291.05 150.18 292.12 145.03 291.05 144.14 287.56 139.2 288.91 135.81 286.93 134.93 283.08 127.34 275.49 92.49 276.4 95.58 270.58 109.66 274.2 126.68 272.5 135.59 281.95 137.65 284.15 140.53 286.29 144.58 286.29 150.62 290.2 153.95 290.2 158.22 291.9 163.15 291.05 166.92 292.96 170.3 291.26 177.67 291.48 179.67 287.99 172.29 286.5 162.42 281.32 156.88 276.4 163.15 281.1 172.73 285.01 181.65 286.29 185.47 284.58 185.26 280.67 179.22 279.61 172.95 277.68 166.25 272.5 173.4 276.83 182.09 278.75 189.97 278.11 191.09 275.06 190.42 271 184.15 269.94 176.79 267.73 168.9 262.55 177.67 266.25 179.22 265.6 173.62 263.4 169.42 260.63 164.48 252.88 164.48 248.75 154.17 248.33 153.5 251.38 149.67 256.72 140.53 256.3 136.7 250.47 140.75 244.42 139.2 241.65 134.71 240.8 112.6 242.29 115.92 237.11 115.92 237.11"/></g><polygon class="cls-12" points="253.25 296.9 83.28 296.9 168.51 154.71 253.25 296.9 253.25 296.9 253.25 296.9 253.25 296.9"/><polygon class="cls-13" points="253.25 296.9 83.28 296.9 168.51 154.71 253.25 296.9 253.25 296.9"/><path class="cls-5" d="M347.61,136.25h1.85c5.47,0,8.19,0,8.19,8.76,0,6.51-.78,9.13-6,9.13h-4.05V136.25ZM331.4,195.61h16.21V167h9.17c14.54,0,17.09-11,17.09-21.6,0-18.88-7.31-22-25.11-22H331.4v72.19Z"/><path class="cls-9" d="M386.22,175.49c0,12.82,8,20.87,20.88,20.87S428,188.31,428,175.49v-9.13H411.77v10.58c0,1.89,0,6.59-4.67,6.59s-4.67-4.7-4.67-6.59V141.25c0-2.44,0-6.6,4.67-6.6s4.67,4.16,4.67,6.6v8.13H428V142.7c0-14.1-8.81-20.88-20.89-20.88s-20.88,6.78-20.88,20.88v32.79Z"/><polygon class="cls-9" points="435.6 195.18 451.29 195.18 451.29 150.56 451.47 150.56 464.59 195.18 482.21 195.18 482.21 123 466.53 123 466.53 165.55 466.36 165.55 453.31 123 435.6 123 435.6 195.18 435.6 195.18"/></svg>