<svg id="Layer_5" data-name="Layer 5" xmlns="http://www.w3.org/2000/svg" viewBox="0 0 512 512"><defs><style>.cls-1{fill:#61b96f;}.cls-2{fill:#fff;}</style></defs><polygon class="cls-1" points="0 0 512 0 512 512 0 512 0 0 0 0"/><path class="cls-2" d="M128.07,315.49v27.93h21.09c5.36,0,9.5-1.15,12.43-3.41s4.48-5.83,4.48-10.82-1.53-8.47-4.48-10.54-7.07-3.16-12.43-3.16Zm0,44.27v34.12H105.58V299h47.19q16.32,0,26,7.34t9.71,22.71q0,16.81-9.71,23.75t-27.71,6.95ZM248.32,377.4q16,0,22.35-13.84a43.43,43.43,0,0,0,3.45-18.08q0-14.5-5.22-22.21c-3.41-5.17-10.24-7.78-20.58-7.78H227.45V377.4Zm46.76-49a65,65,0,0,1,2.05,15.7q0,18.93-8.68,32.05-11.74,17.7-36.31,17.7H205.47V299h46.67a64.9,64.9,0,0,1,16.76,2.06,35.85,35.85,0,0,1,18.46,12,40,40,0,0,1,7.72,15.31Zm103.27-15.51q7,8.82,7.49,17.7H383.21c-1.48-4.54-3.36-8-5.66-10.29q-6.18-6.18-18.3-6.18-12.37,0-19.49,8.74t-7.12,24.66q0,15.94,7.5,23.93t19.17,7.92q12,0,18.15-6.82,3.46-3.66,5.75-11h22.41a41.07,41.07,0,0,1-15.06,25.22q-12.06,9.72-30.95,9.72-23.37,0-36.75-13.13t-13.38-36.17q0-24.84,15.22-38.29,13.21-11.7,33.66-11.71,27.34,0,40,15.7Z"/><path class="cls-2" d="M66.22,210.76A172.73,172.73,0,0,0,85,220.26a309.6,309.6,0,0,0,68,20.48c55.28,10.12,129.83,9.2,208.85-31.48l6.9-3.56L361.86,202c-145.1-78-288.88-12.73-300.54-.18l-3.11,3.35,3.68,2.72C63,208.71,64.41,209.67,66.22,210.76Zm347.63-8.06-5.27,3.48,5.32,3.39c17.8,11.32,32.28,18.48,53,26.7,7.23,2.86,8.17,8.68,5.51,13s-8.92,7.31-16.14,4.45c-25.44-10.1-43.32-19.69-65.51-34.26l-2.06-1.36-2.15,1.2c-166,91.72-351,21.55-351-13.68,0-69.54,221.66-79.52,350.54-12.68l2.1,1.09,2-1.28c10.34-6.62,20.5-13.54,31-20a225.59,225.59,0,0,1,35.12-18.2c7.22-2.86,13.48.08,16.14,4.45s1.72,10.17-5.51,13a191.66,191.66,0,0,0-30.11,15.68C429,192.61,421.37,197.75,413.85,202.7Z"/><path class="cls-2" d="M111.19,203.74c0,4.12-4.36,7.59-10,7.59s-10-3.47-10-7.59,4.36-7.58,10-7.58,10,3.47,10,7.58Z"/></svg>