<svg id="Layer_6" data-name="Layer 6" xmlns="http://www.w3.org/2000/svg" viewBox="0 0 512 512"><defs><style>.cls-1{fill:#fff;}.cls-2{fill:#a6a8ab;}.cls-3,.cls-4{fill:none;stroke:#231f20;stroke-miterlimit:3.86;stroke-width:8.04px;}.cls-11,.cls-3,.cls-6,.cls-7,.cls-9{fill-rule:evenodd;}.cls-5,.cls-6{fill:#f05d3c;}.cls-7,.cls-8{fill:#1c8f51;}.cls-10,.cls-9{fill:#231f20;}.cls-11,.cls-12{fill:#f1643a;}</style></defs><rect class="cls-1" x="1.03" y="1.03" width="509.95" height="509.95"/><path class="cls-2" d="M510,2.05V510H2.05V2.05H510M512,0H0V512H512V0Z"/><path class="cls-3" d="M283.08,212.33s10,6.71,10,14.61v41.12"/><path class="cls-3" d="M213.09,231.66v20s-4,17.43,17.79,17.43c16.86,0,32.53-4.59,32.53-14.61v-17.2"/><path class="cls-3" d="M263.41,254.51s1.06,13.2,10.72,13.2H327a20.7,20.7,0,0,0,5.42-13.9,17.25,17.25,0,0,0-6.13-13.2"/><path class="cls-4" d="M272.34,276.31a7.9,7.9,0,0,1,7.9-7.89h52.91a7.89,7.89,0,0,1,7.89,7.89v9.31a7.9,7.9,0,0,1-7.89,7.9H280.24a7.9,7.9,0,0,1-7.9-7.9v-9.31Z"/><path class="cls-4" d="M260.2,306c0-4.36,3.19-7.9,7.14-7.9h47.87c4,0,7.14,3.54,7.14,7.9v9.31c0,4.36-3.19,7.89-7.14,7.89H267.34c-3.95,0-7.14-3.53-7.14-7.89V306Z"/><path class="cls-5" d="M263.81,106.31a7.91,7.91,0,1,1,7.91,7.9A7.91,7.91,0,0,1,263.81,106.31Z"/><path class="cls-6" d="M263.48,113.2s-4,11.58,12.55,21.28c8.62,4.43,17.41,6.18,21.34,2.92s4.7-18.92-3.76-29.13c-6.71-5.94-7.61-6.49-9.13-6.13s-1.84,1.2-1.51,2.2.58,7-3.18,10.38-8.87,4-11,2.51-3.29-4-3.86-4Z"/><path class="cls-5" d="M239.84,125.3a29.15,29.15,0,0,1,23.73-28.63,29.15,29.15,0,0,0,29.49,45,29.13,29.13,0,0,1-53.22-16.39Z"/><path class="cls-5" d="M242,107c0-14.55,12.45-26.34,27.79-26.34A28.15,28.15,0,0,1,293.3,92.87l-6.22,6.27A27.47,27.47,0,0,0,270.55,94c-12,.36-22.22,5.2-27.15,15.67C242.28,109.45,242,109.76,242,107Z"/><path class="cls-5" d="M210.12,117.27c0-15.12,11.19-27.38,25-27.38a23,23,0,0,1,10.23,2.4c-5.53,6.2-9.05,15.56-9.05,26,0,9.65,3,18.35,7.79,24.51a22.89,22.89,0,0,1-9,1.82C221.31,144.65,210.12,132.39,210.12,117.27Z"/><path class="cls-5" d="M208.06,135a31.1,31.1,0,0,1,.42-5c5.52,9.8,16.82,16.52,29.86,16.52a36.44,36.44,0,0,0,7.3-.72,60.45,60.45,0,0,0,10.13,8.58,26.77,26.77,0,0,1-20.3,9.45C220.33,163.82,208.06,150.93,208.06,135Z"/><path class="cls-5" d="M299,112.39A27.2,27.2,0,1,1,285.74,155c10.16-4.23,17.36-14.81,17.36-27.19A30.59,30.59,0,0,0,299,112.39Z"/><path class="cls-5" d="M290,100.31a26.26,26.26,0,0,1,45.32,18.08,62.13,62.13,0,0,1-.42,7.27c-5.84-9.71-13.63-19.41-26.78-19.41-4.19,0-8.16-.24-11.71,1.14Z"/><path class="cls-7" d="M256.7,206.32s-16.73,1.19-28.48-1.44-16.53-9.13-18.9-17.33S208,162.63,208,162.63s6,6.62,14.3,6.88,22.9-.79,31.1,5.58,9.26,16.4,9.26,22,1.05,6.1-.66,6.76a4.42,4.42,0,0,1-4.92-.79c-1.84-1.45-2.7-4.53-5.38-5.58s-3.08-.6-3.48-3.28,1.32-6.29-2.1-9.58-6-7.8-14.76-7.54c1.25,1.05,11.08,6,13,10s2.89,8.08,1.58,7.81-4.08-2.68-8.2-3.86-8.26-3.63-10.76-5-3.49-2-5.39-3.2-3.6-1.69-3.34-.52,4.84,6.09,10.76,8.19,14,5.45,13.19,5.71a21.5,21.5,0,0,1-7.41-.4,24.81,24.81,0,0,0-8.73-.65c-2.1.39-2.76.13-1.05,1.18s4.2,2.5,10.17,2.5,11.87.31,15.28,2A20.51,20.51,0,0,1,256.7,206.32Z"/><polygon class="cls-8" points="279.29 156.37 279.29 208.78 264.9 208.78 264.9 167.04 279.29 156.37"/><path class="cls-7" d="M287.82,206.32s16.73,1.19,28.48-1.44,16.53-9.13,18.9-17.33,1.31-24.92,1.31-24.92-6,6.62-14.3,6.88-22.9-.79-31.1,5.58-9.26,16.4-9.26,22-1.05,6.1.66,6.76a4.42,4.42,0,0,0,4.92-.79c1.84-1.45,2.71-4.53,5.39-5.58s3.07-.6,3.47-3.28-1.31-6.29,2.1-9.58,6-7.8,14.76-7.54c-1.24,1.05-11.08,6-13,10s-2.89,8.08-1.58,7.81,4.08-2.68,8.21-3.86,8.25-3.63,10.75-5,3.49-2,5.39-3.2,3.6-1.69,3.34-.52-4.84,6.09-10.75,8.19-14,5.45-13.2,5.71a21.5,21.5,0,0,0,7.41-.4,24.83,24.83,0,0,1,8.73-.65c2.1.39,2.76.13,1.05,1.18s-4.2,2.5-10.17,2.5-11.86.31-15.28,2A20.51,20.51,0,0,0,287.82,206.32Z"/><path class="cls-9" d="M27.41,379.05V348.49h11a25.69,25.69,0,0,1,4.42.29,8.62,8.62,0,0,1,3.59,1.42,7.48,7.48,0,0,1,2.33,2.95,9.7,9.7,0,0,1,.88,4.16,9.59,9.59,0,0,1-2.36,6.58q-2.35,2.7-8.52,2.7H31.27v12.46ZM31.27,363h7.5q3.73,0,5.29-1.46a5.31,5.31,0,0,0,1.57-4.11,5.75,5.75,0,0,0-.92-3.28,4.34,4.34,0,0,0-2.43-1.8,15,15,0,0,0-3.59-.28H31.27Z"/><path class="cls-9" d="M67.74,376.28a13.54,13.54,0,0,1-3.83,2.51,10.49,10.49,0,0,1-3.94.73,7.42,7.42,0,0,1-5.34-1.78,6,6,0,0,1-1.87-4.54,6.25,6.25,0,0,1,.71-3,5.81,5.81,0,0,1,1.85-2.15,8.26,8.26,0,0,1,2.57-1.23,23.51,23.51,0,0,1,3.17-.56A31.1,31.1,0,0,0,67.43,365c0-.51,0-.84,0-1a4.28,4.28,0,0,0-1-3.22,5.82,5.82,0,0,0-4.07-1.27,6.09,6.09,0,0,0-3.73.93,5.83,5.83,0,0,0-1.78,3.3l-3.49-.51a9.4,9.4,0,0,1,1.57-3.81,6.91,6.91,0,0,1,3.16-2.24,13.57,13.57,0,0,1,4.8-.78,12,12,0,0,1,4.39.67,5.7,5.7,0,0,1,2.48,1.68,6.14,6.14,0,0,1,1.12,2.56,21.92,21.92,0,0,1,.18,3.45v5a56.9,56.9,0,0,0,.22,6.6,8.51,8.51,0,0,0,.87,2.68H68.43A8.59,8.59,0,0,1,67.74,376.28ZM67.45,368a24.44,24.44,0,0,1-5.84,1.41,12.8,12.8,0,0,0-3.12.75,3.16,3.16,0,0,0-1.41,1.21,3.29,3.29,0,0,0-.5,1.77,3.23,3.23,0,0,0,1.08,2.49,4.55,4.55,0,0,0,3.17,1,7.14,7.14,0,0,0,3.67-.94,5.71,5.71,0,0,0,2.36-2.58,9.42,9.42,0,0,0,.57-3.73Z"/><path class="cls-9" d="M76.53,379.05V356.9h3.21v3.39A9.19,9.19,0,0,1,82,357.18a3.83,3.83,0,0,1,2.29-.75A6.79,6.79,0,0,1,88,357.61l-1.27,3.47a5.1,5.1,0,0,0-2.6-.77,3.25,3.25,0,0,0-2.08.74,4,4,0,0,0-1.32,2.05,15.14,15.14,0,0,0-.6,4.37v11.58Z"/><path class="cls-9" d="M97.88,375.7l.48,3.31a12,12,0,0,1-2.68.34,5.85,5.85,0,0,1-3-.65,3.56,3.56,0,0,1-1.5-1.7,14.11,14.11,0,0,1-.44-4.44V359.8H88.1v-2.9h2.63v-5.48l3.58-2.25v7.73h3.57v2.9H94.31v13a7.24,7.24,0,0,0,.18,2.07,1.57,1.57,0,0,0,.62.73,2.24,2.24,0,0,0,1.21.27A10.8,10.8,0,0,0,97.88,375.7Z"/><path class="cls-9" d="M101.38,352.76v-4.27H105v4.27Zm0,26.29V356.9H105v22.15Z"/><path class="cls-9" d="M124,379.05v-2.81a6.48,6.48,0,0,1-5.89,3.28,8,8,0,0,1-4.62-1.46,9.41,9.41,0,0,1-3.27-4.06,14.75,14.75,0,0,1-1.15-6,16.43,16.43,0,0,1,1-6,8.67,8.67,0,0,1,3.15-4.13,8.16,8.16,0,0,1,4.69-1.43,6.67,6.67,0,0,1,3.39.85,7.18,7.18,0,0,1,2.41,2.2v-11h3.57v30.56Zm-11.28-11c0,2.82.57,4.94,1.7,6.34a5.09,5.09,0,0,0,4,2.1,5,5,0,0,0,4-2q1.64-2,1.64-6.12,0-4.53-1.67-6.66a5.07,5.07,0,0,0-4.11-2.12,4.86,4.86,0,0,0-4,2Q112.73,363.62,112.73,368Z"/><path class="cls-9" d="M131.66,368q0-6.15,3.25-9.1a9.55,9.55,0,0,1,6.62-2.45,9.22,9.22,0,0,1,7.1,3q2.75,3,2.75,8.25a15.31,15.31,0,0,1-1.21,6.71,8.93,8.93,0,0,1-3.55,3.8,10,10,0,0,1-5.09,1.35,9.24,9.24,0,0,1-7.14-3Q131.66,373.57,131.66,368Zm3.65,0c0,2.83.6,4.95,1.77,6.36a5.72,5.72,0,0,0,8.88,0c1.18-1.42,1.77-3.57,1.77-6.47q0-4.1-1.78-6.21a5.72,5.72,0,0,0-8.87,0C135.91,363,135.31,365.16,135.31,368Z"/><path class="cls-9" d="M166,369.23l3.61-.34a8.78,8.78,0,0,0,1.2,3.79,6.67,6.67,0,0,0,2.92,2.39,10.67,10.67,0,0,0,4.46.91,10.18,10.18,0,0,0,3.88-.69,5.45,5.45,0,0,0,2.5-1.9,4.57,4.57,0,0,0,.83-2.62,4.06,4.06,0,0,0-.8-2.5,5.89,5.89,0,0,0-2.61-1.8,48.71,48.71,0,0,0-5.17-1.49,25.69,25.69,0,0,1-5.61-1.91,8,8,0,0,1-3.09-2.85,7.24,7.24,0,0,1-1-3.81,8.09,8.09,0,0,1,1.24-4.33A7.9,7.9,0,0,1,172,349a13.34,13.34,0,0,1,5.33-1,14,14,0,0,1,5.7,1.09,8.34,8.34,0,0,1,3.79,3.22,9.62,9.62,0,0,1,1.43,4.82l-3.7.3a6.31,6.31,0,0,0-2-4.37,7.53,7.53,0,0,0-5.06-1.48q-3.5,0-5.08,1.35a4.08,4.08,0,0,0-1.6,3.24,3.57,3.57,0,0,0,1.13,2.71c.74.71,2.67,1.43,5.8,2.18a35.81,35.81,0,0,1,6.42,1.95,8.76,8.76,0,0,1,3.74,3.11,7.8,7.8,0,0,1,1.21,4.33,8.56,8.56,0,0,1-1.33,4.59,8.86,8.86,0,0,1-3.81,3.35,12.76,12.76,0,0,1-5.58,1.19,16,16,0,0,1-6.6-1.2,9.38,9.38,0,0,1-4.18-3.64A10.87,10.87,0,0,1,166,369.23Z"/><path class="cls-9" d="M192.52,368q0-6.15,3.25-9.1a9.55,9.55,0,0,1,6.62-2.45,9.22,9.22,0,0,1,7.1,3q2.74,3,2.75,8.25a15.15,15.15,0,0,1-1.22,6.71,8.85,8.85,0,0,1-3.54,3.8,10,10,0,0,1-5.09,1.35,9.24,9.24,0,0,1-7.14-3Q192.52,373.57,192.52,368Zm3.65,0q0,4.25,1.77,6.36a5.6,5.6,0,0,0,4.45,2.11,5.54,5.54,0,0,0,4.43-2.12c1.18-1.42,1.77-3.57,1.77-6.47q0-4.1-1.78-6.21a5.72,5.72,0,0,0-8.87,0C196.76,363,196.17,365.16,196.17,368Z"/><path class="cls-9" d="M230.21,370.94l3.49.51a9.66,9.66,0,0,1-2.94,5.93,8.33,8.33,0,0,1-5.81,2.14,8.8,8.8,0,0,1-6.93-3q-2.62-3-2.62-8.49a15.87,15.87,0,0,1,1.13-6.26,8.1,8.1,0,0,1,3.43-4,9.86,9.86,0,0,1,5-1.34,7.91,7.91,0,0,1,8.39,7l-3.45.55a6.14,6.14,0,0,0-1.75-3.35,4.43,4.43,0,0,0-3-1.13,5.42,5.42,0,0,0-4.38,2c-1.13,1.35-1.69,3.5-1.69,6.42s.54,5.13,1.62,6.48a5.22,5.22,0,0,0,4.25,2,4.88,4.88,0,0,0,3.51-1.35A6.9,6.9,0,0,0,230.21,370.94Z"/><path class="cls-9" d="M236.74,352.76v-4.27h3.57v4.27Zm0,26.29V356.9h3.57v22.15Z"/><path class="cls-9" d="M259.53,376.28a13.41,13.41,0,0,1-3.83,2.51,10.46,10.46,0,0,1-3.94.73,7.44,7.44,0,0,1-5.34-1.78,6,6,0,0,1-1.86-4.54,6.25,6.25,0,0,1,.7-3,5.9,5.9,0,0,1,1.85-2.15,8.37,8.37,0,0,1,2.57-1.23,23.42,23.42,0,0,1,3.18-.56,31.41,31.41,0,0,0,6.37-1.29c0-.51,0-.84,0-1a4.24,4.24,0,0,0-1-3.22,5.82,5.82,0,0,0-4.07-1.27,6.06,6.06,0,0,0-3.72.93,5.72,5.72,0,0,0-1.78,3.3l-3.49-.51a9.26,9.26,0,0,1,1.57-3.81,6.85,6.85,0,0,1,3.16-2.24,13.51,13.51,0,0,1,4.79-.78,12,12,0,0,1,4.39.67,5.59,5.59,0,0,1,2.48,1.68,5.9,5.9,0,0,1,1.12,2.56,21.92,21.92,0,0,1,.18,3.45v5a56.9,56.9,0,0,0,.22,6.6,8.77,8.77,0,0,0,.87,2.68h-3.73A8.59,8.59,0,0,1,259.53,376.28Zm-.28-8.33a24.68,24.68,0,0,1-5.85,1.41,12.8,12.8,0,0,0-3.12.75,3.16,3.16,0,0,0-1.41,1.21,3.29,3.29,0,0,0-.5,1.77,3.23,3.23,0,0,0,1.08,2.49,4.55,4.55,0,0,0,3.17,1,7.11,7.11,0,0,0,3.67-.94,5.71,5.71,0,0,0,2.36-2.58,9.21,9.21,0,0,0,.58-3.73Z"/><rect class="cls-10" x="268.28" y="348.49" width="3.57" height="30.56"/><path class="cls-9" d="M289.1,379.05V348.49h10a22.59,22.59,0,0,1,5.17.44,9.63,9.63,0,0,1,4.26,2.19,12.47,12.47,0,0,1,3.44,5.22,21.44,21.44,0,0,1,1.14,7.26,22.53,22.53,0,0,1-.77,6.17,15.2,15.2,0,0,1-2,4.45,9.69,9.69,0,0,1-6.11,4.31,18.78,18.78,0,0,1-4.67.52Zm3.85-3.58h6.2a14.15,14.15,0,0,0,4.5-.57,6.28,6.28,0,0,0,2.6-1.59,9.81,9.81,0,0,0,2.13-3.87,19.85,19.85,0,0,0,.76-5.9,15,15,0,0,0-1.49-7.38A7.69,7.69,0,0,0,304,352.7a14.23,14.23,0,0,0-5-.63H293Z"/><path class="cls-9" d="M332.34,371.88l3.69.51a9.49,9.49,0,0,1-3.22,5.26,10.49,10.49,0,0,1-13.31-1.12q-2.7-3-2.7-8.37c0-3.71.91-6.6,2.73-8.65a9,9,0,0,1,7.07-3.08,8.76,8.76,0,0,1,6.88,3q2.67,3,2.67,8.5c0,.22,0,.55,0,1H320.45a8.71,8.71,0,0,0,2,5.58,5.69,5.69,0,0,0,4.39,1.94,5.25,5.25,0,0,0,3.34-1.09A7.25,7.25,0,0,0,332.34,371.88Zm-11.69-6h11.73a7.76,7.76,0,0,0-1.35-4.19,5.33,5.33,0,0,0-4.41-2.17,5.53,5.53,0,0,0-4.12,1.73A7.08,7.08,0,0,0,320.65,365.86Z"/><path class="cls-9" d="M340.56,379.05V356.9h3.21V360a7.64,7.64,0,0,1,2.63-2.61,7.09,7.09,0,0,1,3.74-1,6.68,6.68,0,0,1,3.83,1,5.4,5.4,0,0,1,2.1,2.85c1.68-2.58,3.85-3.87,6.53-3.87a6.26,6.26,0,0,1,4.83,1.82q1.69,1.83,1.7,5.62v15.18h-3.58V365.11a10.85,10.85,0,0,0-.34-3.24,3.14,3.14,0,0,0-1.27-1.59,3.73,3.73,0,0,0-2.14-.61,4.86,4.86,0,0,0-3.7,1.56q-1.47,1.54-1.47,5v12.86h-3.57V364.67a6.62,6.62,0,0,0-.87-3.75,3.23,3.23,0,0,0-2.85-1.25,5,5,0,0,0-2.78.84,4.64,4.64,0,0,0-1.85,2.43,14.17,14.17,0,0,0-.58,4.63v11.48Z"/><path class="cls-9" d="M373.07,368q0-6.15,3.25-9.1a9.53,9.53,0,0,1,6.62-2.45,9.2,9.2,0,0,1,7.09,3q2.76,3,2.76,8.25a15.29,15.29,0,0,1-1.22,6.71,8.93,8.93,0,0,1-3.55,3.8,10,10,0,0,1-5.08,1.35,9.25,9.25,0,0,1-7.15-3Q373.08,373.57,373.07,368Zm3.65,0q0,4.25,1.77,6.36a5.72,5.72,0,0,0,8.88,0c1.18-1.42,1.76-3.57,1.76-6.47q0-4.1-1.77-6.21a5.72,5.72,0,0,0-8.87,0C377.31,363,376.72,365.16,376.72,368ZM380,354.17l2.59-5.85h4.71l-4.34,5.85Z"/><path class="cls-9" d="M410.75,370.94l3.49.51a9.61,9.61,0,0,1-2.94,5.93,8.3,8.3,0,0,1-5.8,2.14,8.81,8.81,0,0,1-6.94-3q-2.62-3-2.62-8.49a16,16,0,0,1,1.13-6.26,8.15,8.15,0,0,1,3.43-4,9.86,9.86,0,0,1,5-1.34,7.93,7.93,0,0,1,8.4,7l-3.45.55a6.15,6.15,0,0,0-1.76-3.35,4.41,4.41,0,0,0-3-1.13,5.44,5.44,0,0,0-4.38,2c-1.13,1.35-1.69,3.5-1.69,6.42s.54,5.13,1.63,6.48a5.19,5.19,0,0,0,4.24,2A4.88,4.88,0,0,0,409,375.1,6.9,6.9,0,0,0,410.75,370.94Z"/><path class="cls-9" d="M417.24,379.05V356.9h3.21v3.39a9.19,9.19,0,0,1,2.27-3.11,3.83,3.83,0,0,1,2.29-.75,6.82,6.82,0,0,1,3.67,1.18l-1.27,3.47a5.1,5.1,0,0,0-2.6-.77,3.27,3.27,0,0,0-2.08.74,4,4,0,0,0-1.32,2.05,15.14,15.14,0,0,0-.6,4.37v11.58Z"/><path class="cls-9" d="M444.59,376.28a13.51,13.51,0,0,1-3.82,2.51,10.55,10.55,0,0,1-3.95.73,7.4,7.4,0,0,1-5.33-1.78,6,6,0,0,1-1.87-4.54,6.37,6.37,0,0,1,.7-3,5.9,5.9,0,0,1,1.85-2.15,8.37,8.37,0,0,1,2.57-1.23,23.42,23.42,0,0,1,3.18-.56,31.25,31.25,0,0,0,6.37-1.29c0-.51,0-.84,0-1a4.28,4.28,0,0,0-1-3.22,5.86,5.86,0,0,0-4.08-1.27,6.06,6.06,0,0,0-3.72.93,5.78,5.78,0,0,0-1.78,3.3l-3.49-.51a9.26,9.26,0,0,1,1.57-3.81,6.85,6.85,0,0,1,3.16-2.24,13.51,13.51,0,0,1,4.79-.78,12,12,0,0,1,4.39.67,5.68,5.68,0,0,1,2.49,1.68,6,6,0,0,1,1.11,2.56,21.92,21.92,0,0,1,.18,3.45v5a56.9,56.9,0,0,0,.22,6.6,9.05,9.05,0,0,0,.87,2.68h-3.73A8.59,8.59,0,0,1,444.59,376.28Zm-.28-8.33a24.68,24.68,0,0,1-5.85,1.41,12.8,12.8,0,0,0-3.12.75,3.16,3.16,0,0,0-1.41,1.21,3.29,3.29,0,0,0-.5,1.77,3.21,3.21,0,0,0,1.09,2.49,4.5,4.5,0,0,0,3.16,1,7.11,7.11,0,0,0,3.67-.94,5.71,5.71,0,0,0,2.36-2.58,9.21,9.21,0,0,0,.58-3.73Z"/><path class="cls-9" d="M461.18,375.7l.48,3.31a12,12,0,0,1-2.68.34,5.85,5.85,0,0,1-3-.65,3.56,3.56,0,0,1-1.5-1.7,14.11,14.11,0,0,1-.44-4.44V359.8H451.4v-2.9H454v-5.48l3.58-2.25v7.73h3.57v2.9h-3.57v13a7.24,7.24,0,0,0,.18,2.07,1.57,1.57,0,0,0,.62.73,2.24,2.24,0,0,0,1.21.27A10.8,10.8,0,0,0,461.18,375.7Z"/><path class="cls-9" d="M478,376.28a13.54,13.54,0,0,1-3.83,2.51,10.53,10.53,0,0,1-3.94.73,7.41,7.41,0,0,1-5.34-1.78A6,6,0,0,1,463,373.2a6.25,6.25,0,0,1,.7-3,5.87,5.87,0,0,1,1.84-2.15,8.32,8.32,0,0,1,2.58-1.23,23.51,23.51,0,0,1,3.17-.56,31.1,31.1,0,0,0,6.37-1.29c0-.51,0-.84,0-1a4.28,4.28,0,0,0-1-3.22,5.84,5.84,0,0,0-4.07-1.27,6.07,6.07,0,0,0-3.73.93,5.83,5.83,0,0,0-1.78,3.3l-3.49-.51a9.26,9.26,0,0,1,1.57-3.81,6.85,6.85,0,0,1,3.16-2.24,13.55,13.55,0,0,1,4.79-.78,12,12,0,0,1,4.4.67,5.7,5.7,0,0,1,2.48,1.68,6,6,0,0,1,1.11,2.56,21.92,21.92,0,0,1,.18,3.45v5a59.42,59.42,0,0,0,.22,6.6,8.79,8.79,0,0,0,.88,2.68h-3.74A8.86,8.86,0,0,1,478,376.28Zm-.29-8.33a24.57,24.57,0,0,1-5.84,1.41,12.91,12.91,0,0,0-3.13.75,3.17,3.17,0,0,0-1.9,3,3.23,3.23,0,0,0,1.08,2.49,4.53,4.53,0,0,0,3.16,1,7.15,7.15,0,0,0,3.68-.94,5.77,5.77,0,0,0,2.36-2.58,9.42,9.42,0,0,0,.57-3.73Z"/><path class="cls-11" d="M53.81,401.81H50.18v-3.26a13.52,13.52,0,0,1,.28-3.13,5,5,0,0,1,1-2.06,5.15,5.15,0,0,1,1.92-1.43l.7,1.9a3,3,0,0,0-1.54,1.27,4.41,4.41,0,0,0-.5,2.15h1.75Zm6.08,0H56.25v-3.26a14.14,14.14,0,0,1,.28-3.14,5.05,5.05,0,0,1,1-2.05,5.24,5.24,0,0,1,1.9-1.43l.71,1.9a3,3,0,0,0-1.55,1.27,4.41,4.41,0,0,0-.49,2.15h1.75Z"/><path class="cls-11" d="M63.66,392.16h7a10.82,10.82,0,0,1,3.61.46,6.33,6.33,0,0,1,2.86,2.19,11.41,11.41,0,0,1,1.81,3.86,22,22,0,0,1,.62,5.63,19.76,19.76,0,0,1-.58,5.07,11.33,11.33,0,0,1-2,4.21,6.56,6.56,0,0,1-2.69,1.9,9.31,9.31,0,0,1-3.39.51h-7.2Zm3.84,4V412h2.85a8.09,8.09,0,0,0,2.32-.23,3.32,3.32,0,0,0,1.54-1,5.46,5.46,0,0,0,1-2.3,19.28,19.28,0,0,0,.38-4.36,17.73,17.73,0,0,0-.38-4.24,5.8,5.8,0,0,0-1.09-2.3,3.32,3.32,0,0,0-1.77-1.12,13.77,13.77,0,0,0-3.13-.23Z"/><path class="cls-11" d="M90.76,410.53l3.64.76a7.68,7.68,0,0,1-2.21,3.82,5.59,5.59,0,0,1-3.78,1.31,5.73,5.73,0,0,1-5.31-2.95,11.75,11.75,0,0,1-1.36-6,11.16,11.16,0,0,1,1.79-6.73,5.39,5.39,0,0,1,4.52-2.44,5.59,5.59,0,0,1,4.84,2.55c1.18,1.7,1.75,4.3,1.69,7.8h-9.1a5.39,5.39,0,0,0,.88,3.16A2.53,2.53,0,0,0,88.45,413a2,2,0,0,0,1.44-.58A4,4,0,0,0,90.76,410.53Zm.22-4.62a5.18,5.18,0,0,0-.82-3,2.28,2.28,0,0,0-1.88-1,2.32,2.32,0,0,0-2,1.09,5,5,0,0,0-.76,3Z"/><path class="cls-11" d="M97.31,398.72h3.34v2.35q1.8-2.71,4.29-2.72a3.92,3.92,0,0,1,2.29.68,4.9,4.9,0,0,1,1.59,2.07,7.13,7.13,0,0,1,2-2.07,4.06,4.06,0,0,1,2.24-.68,4.23,4.23,0,0,1,2.56.77,4.56,4.56,0,0,1,1.57,2.27,12.11,12.11,0,0,1,.38,3.57v11h-3.64v-9.86a9.06,9.06,0,0,0-.37-3.31,1.65,1.65,0,0,0-1.56-1,2.16,2.16,0,0,0-1.44.58,3.32,3.32,0,0,0-1,1.71,15.28,15.28,0,0,0-.3,3.57V416h-3.63v-9.45a16.18,16.18,0,0,0-.2-3.25,2.15,2.15,0,0,0-.6-1.09,1.61,1.61,0,0,0-1.11-.35,2.32,2.32,0,0,0-1.51.56,3.14,3.14,0,0,0-1,1.64,14.78,14.78,0,0,0-.3,3.56V416H97.31Z"/><path class="cls-11" d="M120.3,407.14a11.22,11.22,0,0,1,.9-4.41,7.24,7.24,0,0,1,2.53-3.26,6.38,6.38,0,0,1,3.66-1.12,6.2,6.2,0,0,1,5.11,2.55,11.42,11.42,0,0,1,0,12.94,6.17,6.17,0,0,1-5.07,2.58,6.75,6.75,0,0,1-6.21-4.22A12.72,12.72,0,0,1,120.3,407.14Zm3.74.25a6.71,6.71,0,0,0,1,3.93,2.76,2.76,0,0,0,4.77,0,6.78,6.78,0,0,0,1-4,6.65,6.65,0,0,0-1-3.9,2.76,2.76,0,0,0-4.77,0A6.72,6.72,0,0,0,124,407.39Z"/><path class="cls-11" d="M149.36,403.84l-3.58.8a3.58,3.58,0,0,0-.82-2,2.19,2.19,0,0,0-1.66-.67,2.5,2.5,0,0,0-2.17,1.18,7.19,7.19,0,0,0-.81,3.94,8.38,8.38,0,0,0,.82,4.35,2.51,2.51,0,0,0,2.2,1.27A2.16,2.16,0,0,0,145,412a5,5,0,0,0,.93-2.55l3.58.76a8.56,8.56,0,0,1-2.14,4.68,6.21,6.21,0,0,1-9-.81,13.2,13.2,0,0,1,0-13.29,6.31,6.31,0,0,1,8.86-1A7.89,7.89,0,0,1,149.36,403.84Z"/><path class="cls-11" d="M155.62,416H152V398.72h3.36v2.45a7,7,0,0,1,1.57-2.28,2.5,2.5,0,0,1,1.58-.54,4,4,0,0,1,2.4.86l-1.13,4a2.82,2.82,0,0,0-1.71-.74,1.79,1.79,0,0,0-1.3.52,4,4,0,0,0-.84,1.91,34.35,34.35,0,0,0-.3,5.78Z"/><path class="cls-11" d="M165.16,404l-3.29-.73a6.78,6.78,0,0,1,1.92-3.74,5.91,5.91,0,0,1,4-1.22,7.16,7.16,0,0,1,3.63.72,4,4,0,0,1,1.68,1.84,11.61,11.61,0,0,1,.49,4.08l-.06,5.33a22.45,22.45,0,0,0,.18,3.35,11.22,11.22,0,0,0,.65,2.32h-3.61c-.1-.3-.21-.75-.35-1.34-.06-.27-.1-.44-.13-.53a6.56,6.56,0,0,1-2,1.72,4.61,4.61,0,0,1-2.26.58,4.12,4.12,0,0,1-3.34-1.45,5.47,5.47,0,0,1-1.22-3.65,5.92,5.92,0,0,1,.56-2.61,4,4,0,0,1,1.56-1.75,10.09,10.09,0,0,1,2.89-1.06,16.73,16.73,0,0,0,3.53-1.13v-.46a2.82,2.82,0,0,0-.51-1.9,2.68,2.68,0,0,0-2-.56,2.21,2.21,0,0,0-1.51.48A3.58,3.58,0,0,0,165.16,404Zm4.88,3.7a19.78,19.78,0,0,1-2.21.69,5.75,5.75,0,0,0-2,.8,2,2,0,0,0-.72,1.61,2.52,2.52,0,0,0,.58,1.65,1.77,1.77,0,0,0,1.44.7,2.76,2.76,0,0,0,1.88-.81,2.92,2.92,0,0,0,.87-1.51,11.73,11.73,0,0,0,.14-2.23Z"/><path class="cls-11" d="M189.22,403.84l-3.58.8a3.65,3.65,0,0,0-.82-2,2.21,2.21,0,0,0-1.67-.67,2.51,2.51,0,0,0-2.17,1.18,7.19,7.19,0,0,0-.81,3.94,8.48,8.48,0,0,0,.82,4.35,2.52,2.52,0,0,0,2.21,1.27,2.14,2.14,0,0,0,1.69-.74,5,5,0,0,0,.93-2.55l3.58.76a8.62,8.62,0,0,1-2.13,4.68,6.23,6.23,0,0,1-9.05-.81,13.2,13.2,0,0,1,0-13.29,5.78,5.78,0,0,1,4.87-2.39,5.71,5.71,0,0,1,4,1.36A7.82,7.82,0,0,1,189.22,403.84Z"/><path class="cls-11" d="M192,396.39v-4.23h3.63v4.23Zm0,19.6V398.72h3.63V416Z"/><path class="cls-11" d="M202.06,404l-3.29-.73a6.78,6.78,0,0,1,1.92-3.74,5.91,5.91,0,0,1,4-1.22,7.16,7.16,0,0,1,3.63.72,4,4,0,0,1,1.68,1.84,11.61,11.61,0,0,1,.49,4.08l-.06,5.33a22.45,22.45,0,0,0,.18,3.35,11.81,11.81,0,0,0,.64,2.32h-3.6c-.1-.3-.21-.75-.35-1.34-.06-.27-.11-.44-.13-.53a6.56,6.56,0,0,1-2,1.72,4.58,4.58,0,0,1-2.26.58,4.14,4.14,0,0,1-3.34-1.45,5.47,5.47,0,0,1-1.22-3.65,5.92,5.92,0,0,1,.56-2.61,4,4,0,0,1,1.56-1.75,10.2,10.2,0,0,1,2.89-1.06,16.73,16.73,0,0,0,3.53-1.13v-.46a2.77,2.77,0,0,0-.52-1.9,2.63,2.63,0,0,0-2-.56,2.21,2.21,0,0,0-1.51.48A3.58,3.58,0,0,0,202.06,404Zm4.88,3.7a19.78,19.78,0,0,1-2.21.69,5.75,5.75,0,0,0-2,.8,2,2,0,0,0-.71,1.61,2.51,2.51,0,0,0,.57,1.65,1.78,1.78,0,0,0,1.45.7,2.8,2.8,0,0,0,1.88-.81,3,3,0,0,0,.86-1.51,10.92,10.92,0,0,0,.14-2.23Z"/><path class="cls-11" d="M233.48,403.84l-3.59.8a3.58,3.58,0,0,0-.82-2,2.17,2.17,0,0,0-1.66-.67,2.5,2.5,0,0,0-2.17,1.18,7.19,7.19,0,0,0-.81,3.94,8.38,8.38,0,0,0,.82,4.35,2.51,2.51,0,0,0,2.21,1.27,2.14,2.14,0,0,0,1.69-.74,5,5,0,0,0,.93-2.55l3.58.76a8.62,8.62,0,0,1-2.13,4.68,6.23,6.23,0,0,1-9.05-.81,13.2,13.2,0,0,1,0-13.29,5.78,5.78,0,0,1,4.87-2.39,5.71,5.71,0,0,1,4,1.36A7.82,7.82,0,0,1,233.48,403.84Z"/><path class="cls-11" d="M235.41,407.14a11.39,11.39,0,0,1,.89-4.41,7.31,7.31,0,0,1,2.53-3.26,6.38,6.38,0,0,1,3.66-1.12,6.22,6.22,0,0,1,5.12,2.55,10.12,10.12,0,0,1,2,6.44,10.26,10.26,0,0,1-2,6.5,6.17,6.17,0,0,1-5.07,2.58,6.75,6.75,0,0,1-6.22-4.22A12.91,12.91,0,0,1,235.41,407.14Zm3.74.25a6.71,6.71,0,0,0,1,3.93,2.77,2.77,0,0,0,4.78,0,6.86,6.86,0,0,0,1-4,6.73,6.73,0,0,0-1-3.9,2.77,2.77,0,0,0-4.78,0A6.72,6.72,0,0,0,239.15,407.39Z"/><path class="cls-11" d="M265,416h-3.64v-8.8a16.82,16.82,0,0,0-.23-3.62,2.54,2.54,0,0,0-.77-1.27,1.88,1.88,0,0,0-1.27-.45,2.52,2.52,0,0,0-1.71.65,3.25,3.25,0,0,0-1,1.72,18.13,18.13,0,0,0-.28,4V416h-3.64V398.72h3.37v2.53q1.82-2.89,4.56-2.9a4.45,4.45,0,0,1,2.21.55,3.86,3.86,0,0,1,1.52,1.38,6,6,0,0,1,.72,1.92,18.26,18.26,0,0,1,.2,3.07Z"/><path class="cls-11" d="M276,396.39v-4.23h3.64v4.23Zm3.64,2.33v16.71a22.26,22.26,0,0,1-.34,4.66,3.76,3.76,0,0,1-1.33,2.12,3.91,3.91,0,0,1-2.49.76,6.28,6.28,0,0,1-1.17-.12,11.09,11.09,0,0,1-1.36-.36l.63-3.89.49.11a3.29,3.29,0,0,0,.42,0,1.39,1.39,0,0,0,.92-.3,1.42,1.42,0,0,0,.48-.73,16,16,0,0,0,.11-2.53V398.72Z"/><path class="cls-11" d="M292.51,416V413.4a6,6,0,0,1-2,2.2,4.56,4.56,0,0,1-2.59.82,4.26,4.26,0,0,1-4.09-2.92,11.79,11.79,0,0,1-.49-3.83V398.72H287v7.95a28.18,28.18,0,0,0,.2,4.47,2.5,2.5,0,0,0,.74,1.3,1.93,1.93,0,0,0,1.35.49,2.5,2.5,0,0,0,1.68-.65,3.26,3.26,0,0,0,1-1.6,22.48,22.48,0,0,0,.27-4.66v-7.3h3.64V416Z"/><path class="cls-11" d="M298.33,411.13l3.66-.7a3.58,3.58,0,0,0,.95,2,2.73,2.73,0,0,0,2,.68,3.05,3.05,0,0,0,2.13-.65,1.6,1.6,0,0,0,.48-1.22,1.4,1.4,0,0,0-.26-.86,2.61,2.61,0,0,0-1.22-.6c-2.94-.82-4.81-1.56-5.59-2.23a4.87,4.87,0,0,1-1.64-3.9,5.38,5.38,0,0,1,1.42-3.78,5.68,5.68,0,0,1,4.38-1.53,6.44,6.44,0,0,1,4.2,1.16,6.16,6.16,0,0,1,1.89,3.43l-3.42.8a2.81,2.81,0,0,0-.84-1.55,2.6,2.6,0,0,0-1.77-.54,3.31,3.31,0,0,0-2.07.5,1.17,1.17,0,0,0-.42.93,1.12,1.12,0,0,0,.37.83,11.83,11.83,0,0,0,3.41,1.28,9.27,9.27,0,0,1,4.07,2,4.75,4.75,0,0,1,1.15,3.4,5.82,5.82,0,0,1-1.58,4.08,6.09,6.09,0,0,1-4.69,1.71,6.55,6.55,0,0,1-4.45-1.43A6.69,6.69,0,0,1,298.33,411.13Z"/><path class="cls-11" d="M320.69,398.72v3.62H318.2v7a21.53,21.53,0,0,0,.07,2.48,1,1,0,0,0,.32.58.91.91,0,0,0,.62.23,4,4,0,0,0,1.47-.44l.3,3.55a6,6,0,0,1-2.87.68,3.73,3.73,0,0,1-1.77-.42,2.66,2.66,0,0,1-1.15-1.07,4.89,4.89,0,0,1-.51-1.79,27.32,27.32,0,0,1-.12-3.24v-7.56h-1.67v-3.62h1.67v-3.43l3.64-2.69v6.12Z"/><path class="cls-11" d="M323.26,396.39v-4.23h3.64v4.23Zm0,19.6V398.72h3.64V416Z"/><path class="cls-11" d="M342.61,403.84l-3.58.8a3.58,3.58,0,0,0-.82-2,2.19,2.19,0,0,0-1.66-.67,2.5,2.5,0,0,0-2.17,1.18,7.19,7.19,0,0,0-.81,3.94,8.38,8.38,0,0,0,.82,4.35,2.51,2.51,0,0,0,2.2,1.27,2.16,2.16,0,0,0,1.7-.74,5,5,0,0,0,.93-2.55l3.58.76a8.56,8.56,0,0,1-2.14,4.68,6.21,6.21,0,0,1-9-.81,13.23,13.23,0,0,1,0-13.29,5.81,5.81,0,0,1,4.87-2.39,5.72,5.72,0,0,1,4,1.36A7.89,7.89,0,0,1,342.61,403.84Z"/><path class="cls-11" d="M345.39,396.39v-4.23H349v4.23Zm0,19.6V398.72H349V416Z"/><path class="cls-11" d="M355.46,404l-3.29-.73a6.84,6.84,0,0,1,1.91-3.74,5.92,5.92,0,0,1,4.05-1.22,7.21,7.21,0,0,1,3.63.72,4.08,4.08,0,0,1,1.67,1.84,11.38,11.38,0,0,1,.49,4.08l-.05,5.33a22.77,22.77,0,0,0,.17,3.35,11.88,11.88,0,0,0,.65,2.32h-3.61c-.09-.3-.21-.75-.35-1.34-.06-.27-.1-.44-.13-.53a6.45,6.45,0,0,1-2,1.72,4.56,4.56,0,0,1-2.26.58A4.1,4.1,0,0,1,353,415a5.42,5.42,0,0,1-1.22-3.65,5.92,5.92,0,0,1,.55-2.61,4,4,0,0,1,1.56-1.75,10.2,10.2,0,0,1,2.89-1.06,17.08,17.08,0,0,0,3.54-1.13v-.46a2.77,2.77,0,0,0-.52-1.9,2.67,2.67,0,0,0-2-.56,2.22,2.22,0,0,0-1.52.48A3.58,3.58,0,0,0,355.46,404Zm4.88,3.7a20.11,20.11,0,0,1-2.22.69,5.84,5.84,0,0,0-2,.8,2.07,2.07,0,0,0-.71,1.61,2.51,2.51,0,0,0,.57,1.65,1.78,1.78,0,0,0,1.45.7,2.78,2.78,0,0,0,1.88-.81,2.92,2.92,0,0,0,.87-1.51,11.73,11.73,0,0,0,.14-2.23Z"/><path class="cls-11" d="M373.58,411.13l3.66-.7a3.58,3.58,0,0,0,.95,2,2.73,2.73,0,0,0,2,.68,3.05,3.05,0,0,0,2.13-.65,1.6,1.6,0,0,0,.48-1.22,1.4,1.4,0,0,0-.26-.86,2.61,2.61,0,0,0-1.22-.6q-4.41-1.23-5.59-2.23a4.87,4.87,0,0,1-1.64-3.9,5.33,5.33,0,0,1,1.42-3.78,5.68,5.68,0,0,1,4.38-1.53,6.44,6.44,0,0,1,4.2,1.16,6.16,6.16,0,0,1,1.89,3.43l-3.42.8a2.81,2.81,0,0,0-.84-1.55,2.62,2.62,0,0,0-1.77-.54,3.31,3.31,0,0,0-2.07.5,1.17,1.17,0,0,0-.42.93,1.12,1.12,0,0,0,.37.83,11.83,11.83,0,0,0,3.41,1.28,9.27,9.27,0,0,1,4.07,2,4.75,4.75,0,0,1,1.15,3.4,5.82,5.82,0,0,1-1.58,4.08,6.09,6.09,0,0,1-4.69,1.71,6.55,6.55,0,0,1-4.45-1.43A6.69,6.69,0,0,1,373.58,411.13Z"/><path class="cls-11" d="M388.8,407.14a11.22,11.22,0,0,1,.9-4.41,7.17,7.17,0,0,1,2.53-3.26,6.38,6.38,0,0,1,3.66-1.12A6.2,6.2,0,0,1,401,400.9a10.12,10.12,0,0,1,2,6.44,10.27,10.27,0,0,1-2,6.5,6.17,6.17,0,0,1-5.07,2.58,6.72,6.72,0,0,1-6.21-4.22A12.72,12.72,0,0,1,388.8,407.14Zm3.74.25a6.78,6.78,0,0,0,1,3.93,2.86,2.86,0,0,0,2.4,1.37,2.83,2.83,0,0,0,2.38-1.37,6.86,6.86,0,0,0,1-4,6.73,6.73,0,0,0-1-3.9,2.83,2.83,0,0,0-2.38-1.37,2.86,2.86,0,0,0-2.4,1.37A6.8,6.8,0,0,0,392.54,407.39Z"/><path class="cls-11" d="M417.86,403.84l-3.58.8a3.58,3.58,0,0,0-.82-2,2.19,2.19,0,0,0-1.67-.67,2.49,2.49,0,0,0-2.16,1.18,7.11,7.11,0,0,0-.81,3.94,8.38,8.38,0,0,0,.82,4.35,2.51,2.51,0,0,0,2.2,1.27,2.16,2.16,0,0,0,1.7-.74,5.06,5.06,0,0,0,.93-2.55l3.58.76a8.56,8.56,0,0,1-2.14,4.68,6.21,6.21,0,0,1-9-.81,13.23,13.23,0,0,1,0-13.29,5.79,5.79,0,0,1,4.87-2.39,5.68,5.68,0,0,1,4,1.36A7.82,7.82,0,0,1,417.86,403.84Z"/><path class="cls-11" d="M420.64,396.39v-4.23h3.64v4.23Zm0,19.6V398.72h3.64V416Z"/><path class="cls-11" d="M430.71,404l-3.29-.73a6.84,6.84,0,0,1,1.91-3.74,5.92,5.92,0,0,1,4.05-1.22,7.21,7.21,0,0,1,3.63.72,4.08,4.08,0,0,1,1.67,1.84,11.38,11.38,0,0,1,.49,4.08l-.05,5.33a24.28,24.28,0,0,0,.17,3.35,11.88,11.88,0,0,0,.65,2.32h-3.61c-.1-.3-.21-.75-.35-1.34-.06-.27-.1-.44-.13-.53a6.56,6.56,0,0,1-2,1.72,4.58,4.58,0,0,1-2.26.58,4.14,4.14,0,0,1-3.34-1.45,5.47,5.47,0,0,1-1.22-3.65,5.92,5.92,0,0,1,.56-2.61,4,4,0,0,1,1.56-1.75,10.2,10.2,0,0,1,2.89-1.06,17.08,17.08,0,0,0,3.54-1.13v-.46a2.82,2.82,0,0,0-.52-1.9,2.67,2.67,0,0,0-2-.56,2.22,2.22,0,0,0-1.52.48A3.58,3.58,0,0,0,430.71,404Zm4.88,3.7a20.84,20.84,0,0,1-2.22.69,5.75,5.75,0,0,0-2,.8,2.07,2.07,0,0,0-.71,1.61,2.51,2.51,0,0,0,.57,1.65,1.78,1.78,0,0,0,1.45.7,2.78,2.78,0,0,0,1.88-.81,2.84,2.84,0,0,0,.86-1.51,10.7,10.7,0,0,0,.15-2.23Z"/><rect class="cls-12" x="442.77" y="392.16" width="3.64" height="23.82"/><path class="cls-11" d="M456,392.16h3.63v3.28a13.49,13.49,0,0,1-.28,3.12,5.1,5.1,0,0,1-1,2.05,5.27,5.27,0,0,1-1.9,1.44l-.72-1.9a3.11,3.11,0,0,0,1.56-1.27,4.31,4.31,0,0,0,.49-2.16H456Zm-6.11,0h3.64v3.28a14.16,14.16,0,0,1-.27,3.12,5.1,5.1,0,0,1-1,2.05,5.34,5.34,0,0,1-1.92,1.44l-.71-1.9a3.11,3.11,0,0,0,1.56-1.27,4.54,4.54,0,0,0,.48-2.16h-1.75Z"/><path class="cls-3" d="M270.59,323.45H237.72S213.8,325,213.8,303.89l-40.77.35V231.3h38.88s.48-19,15.44-19H322.8s8.6.35,8.6,13.2c0,7.54-2.48,16.49-10.37,16.49H293.1"/></svg>