<svg id="Layer_8" data-name="Layer 8" xmlns="http://www.w3.org/2000/svg" viewBox="0 0 512 512"><defs><style>.cls-1{fill:#fff;}.cls-2{fill:#a6a8ab;}.cls-3{fill:#3e6eab;}.cls-3,.cls-4,.cls-5,.cls-6,.cls-7{fill-rule:evenodd;}.cls-4{fill:#79cdd5;}.cls-5{fill:#3a6ba3;}.cls-6{fill:#d2d1cf;}.cls-7{fill:#929497;}</style></defs><rect class="cls-1" x="1.03" y="1.03" width="509.95" height="509.95"/><path class="cls-2" d="M510,2.05V510H2.05V2.05H510M512,0H0V512H512V0Z"/><path class="cls-3" d="M19.42,329.6,43.73,203.88H82.55q22.07,0,28.4,1.89a24,24,0,0,1,14.87,12.31q5.12,9.46,2.21,24.48A50.14,50.14,0,0,1,120.27,262a45.45,45.45,0,0,1-12.56,12.4,42.67,42.67,0,0,1-13.68,6q-9,1.8-25.41,1.8H52.87L43.7,329.6ZM63.91,225.12,57,260.94h13.2q14.26,0,19.46-2a20.9,20.9,0,0,0,8.73-6.2A21.16,21.16,0,0,0,103,243q1.34-6.88-1.63-11.37A12.86,12.86,0,0,0,92.75,226q-4.16-.87-17.19-.87Z"/><path class="cls-3" d="M122.24,320.89a30.71,30.71,0,0,1-5.92-10.47L137.47,292q.78,8.21,4.67,12.62,5.12,5.83,15.64,5.83,11.16,0,17.76-5.19t7.9-12.12a10.83,10.83,0,0,0-1-7.58q-1.78-3.13-7.28-5.44-3.77-1.54-17.44-5.5-17.61-5.08-23.72-12.47-8.58-10.41-5.82-25.38A42.56,42.56,0,0,1,153.11,206a58.23,58.23,0,0,1,23.3-4.38q21.53,0,30.46,10.47a27.87,27.87,0,0,1,2.81,4l-13,14.94-10.89-4.21q-4.1-4.09-13.59-4.09-10,0-16.52,4.56a11.83,11.83,0,0,0-5.1,7.83,8.58,8.58,0,0,0,2,7.67q3.62,4,19.66,8.43t23.25,9.06A25.62,25.62,0,0,1,205.82,273q3.08,8.1.86,20a47.13,47.13,0,0,1-9.21,20.25,43.93,43.93,0,0,1-18.08,14q-10.86,4.59-25.79,4.59Q131.87,331.88,122.24,320.89Z"/><path class="cls-3" d="M200.2,329.6l24.23-125.72h38.69q22,0,28.31,1.89a24,24,0,0,1,14.81,12.31q5.1,9.46,2.21,24.48A50.28,50.28,0,0,1,300.71,262a45.19,45.19,0,0,1-12.52,12.4,42.45,42.45,0,0,1-13.63,6q-9,1.8-25.32,1.8h-15.7L224.4,329.6Zm44.34-104.48-6.9,35.82h13.15q14.22,0,19.39-2a20.9,20.9,0,0,0,8.71-6.2A21.23,21.23,0,0,0,283.5,243q1.33-6.88-1.63-11.37a12.78,12.78,0,0,0-8.59-5.59q-4.12-.87-17.13-.87Z"/><path class="cls-4" d="M152.71,204.2s23.4-18.77,68.85-33c19.33-5.47,54.63-12.39,78.56,1.17-25.68-12.77-45-21.52-79-17.14s-46.76,11.37-46.76,11.37Z"/><path class="cls-5" d="M256.07,165.31s23.84,13.56,37.05,31.36,28.3,41.21,58.57,52c8.4,1.84,27.95-1.44,41.08-14.87-9.71,0-23.63-2.71-34-11.24s-31.89-30.27-39.11-36.4-15.39-11-22.83-15.17-20.21-6.35-29.18-6.57S256.07,165.31,256.07,165.31Z"/><path class="cls-6" d="M351.69,248.68s11.75,9.67,38.91,7.14,42.74-19.39,53.68-38.53S475,175,494.6,162.34c2.74-19.16,2.74-19,2.74-19s-19.39.42-40,19.79-41.48,48-52.63,59.79-15.38,15.78-26.95,21.48c-4.42,1.68-8.4,3.36-14.94,4.2A40.11,40.11,0,0,1,351.69,248.68Z"/><path class="cls-7" d="M14.66,365.25h2.5l1.06-5.38h2.45A4.65,4.65,0,0,0,24,358.36a8,8,0,0,0,2.07-4.29c.72-3.67-.27-5.48-3-5.44H17.94ZM19.78,352h1.83c.32,0,.62,0,.91,0a1.44,1.44,0,0,1,.71.26,1.15,1.15,0,0,1,.41.71,3.8,3.8,0,0,1-.09,1.37,5.07,5.07,0,0,1-.38,1.21,3.15,3.15,0,0,1-.62.82,1.83,1.83,0,0,1-.66.43,1.81,1.81,0,0,1-.67.13H18.81Z"/><path class="cls-7" d="M31.51,365.25H33.8l2-10.1a4,4,0,0,0-.4-3.27,3.18,3.18,0,0,0-2.56-1,5.07,5.07,0,0,0-2.41.54,8,8,0,0,0-2.13,1.88l-.65,3.3a5.28,5.28,0,0,1,4.3-2.63,2,2,0,0,1,1.2.32,1,1,0,0,1,.28,1.09,1.91,1.91,0,0,1-1.21,1.41l-.48.2-.56.21c-.39.13-.8.27-1.22.43a7,7,0,0,0-2.33,1.3,4.71,4.71,0,0,0-1.51,2.84,4,4,0,0,0,.28,2.75,2,2,0,0,0,1.85,1.12q2.48,0,3.76-3.07h0Zm1.37-6.88-.16.81a8,8,0,0,1-1.09,2.8,2.47,2.47,0,0,1-2.08,1.28,1,1,0,0,1-.88-.4,1.57,1.57,0,0,1-.13-1.24,2.25,2.25,0,0,1,.73-1.25,5.36,5.36,0,0,1,1.24-.79l1.36-.6A2.89,2.89,0,0,0,32.88,358.37Z"/><path class="cls-7" d="M40.22,359a14.4,14.4,0,0,1,.41-1.55,8.94,8.94,0,0,1,.62-1.5,4.55,4.55,0,0,1,.91-1.16,1.76,1.76,0,0,1,1.2-.45,1.23,1.23,0,0,1,1.24,1l.76-3.87a1,1,0,0,0-.4-.4,2.18,2.18,0,0,0-.8-.19,2.32,2.32,0,0,0-2,1.24,11.7,11.7,0,0,0-1.38,3.17h0l.79-4H39.25l-2.76,13.95H39Z"/><path class="cls-7" d="M50.72,361.24a5.07,5.07,0,0,1-.88,1.24,1.55,1.55,0,0,1-1.13.49.78.78,0,0,1-.62-.24,1.49,1.49,0,0,1-.29-.62,4.4,4.4,0,0,1,0-.89,7.77,7.77,0,0,1,.13-1q.59-2.9,1.23-5.82h3.06l.61-3.09h-3l.74-3.39H49.41a9.14,9.14,0,0,1-1.51,2.61A4.73,4.73,0,0,1,45.77,352l-.46,2.36h1.47c-.41,1.82-.87,4-1.36,6.43a12,12,0,0,0-.24,1.78,5,5,0,0,0,.12,1.58,1.91,1.91,0,0,0,.69,1.05,2.16,2.16,0,0,0,1.38.42,2.85,2.85,0,0,0,1.49-.38,4.4,4.4,0,0,0,1.26-1Z"/><path class="cls-7" d="M51.61,365.25h2.5l2.75-13.93a2.36,2.36,0,0,1-1.29.36,1.74,1.74,0,0,1-1.21-.38Zm3-16.4c-.21.93.2,1.4,1.22,1.42a1.62,1.62,0,0,0,1.76-1.42c.11-.56.07-.94-.12-1.13a1.62,1.62,0,0,0-1.09-.28,2.07,2.07,0,0,0-1.17.28A1.67,1.67,0,0,0,54.62,348.85Z"/><path class="cls-7" d="M68.67,347.91h-2.5l-1.17,6h0c0-2-.78-3-2.26-3a3.22,3.22,0,0,0-2,.66,6,6,0,0,0-1.56,1.74,16.89,16.89,0,0,0-1.84,5.13A20.91,20.91,0,0,0,57,361a8.9,8.9,0,0,0,.12,2.35,2.47,2.47,0,0,0,2.63,2.32A3,3,0,0,0,62,364.59,8.1,8.1,0,0,0,63.53,362h0l-.65,3.29h2.34Zm-4.45,10.42a9.84,9.84,0,0,1-1.12,3.05,3.73,3.73,0,0,1-.93,1,1.9,1.9,0,0,1-1.19.42,1.42,1.42,0,0,1-1.5-1.21,7.23,7.23,0,0,1,.11-3.1,8.44,8.44,0,0,1,1.13-3,2.5,2.5,0,0,1,2.08-1.31,1.47,1.47,0,0,1,1.58,1.3,4.29,4.29,0,0,1,.06,1.31,12.92,12.92,0,0,1-.22,1.5Z"/><path class="cls-7" d="M68.83,358.05q-1.47,7.54,3.37,7.6t6.39-7.58q1.47-7.11-3.47-7.18T68.83,358.05Zm3.93,4.78A1.62,1.62,0,0,1,71,361.51a7.05,7.05,0,0,1,.06-3.35,6.55,6.55,0,0,1,1.14-2.83,2.66,2.66,0,0,1,2.23-1.1,1.71,1.71,0,0,1,1.81,1.1,5.81,5.81,0,0,1,0,2.83A9.47,9.47,0,0,1,75,361.51,2.65,2.65,0,0,1,72.76,362.83Z"/><path class="cls-7" d="M93.33,354.14l.79-4a3,3,0,0,0-.84-1.21,2.63,2.63,0,0,0-.89-.51,4.08,4.08,0,0,0-1.34-.19,4.56,4.56,0,0,0-3.19,1.39,6.69,6.69,0,0,0-1.93,3.66,6.23,6.23,0,0,0-.13,2,3.68,3.68,0,0,0,.35,1.39,2.86,2.86,0,0,0,.76.92,6.34,6.34,0,0,0,.91.62l1,.43a4.23,4.23,0,0,1,.82.49,1.59,1.59,0,0,1,.52.67,1.89,1.89,0,0,1,0,1,2.15,2.15,0,0,1-2.38,1.86,2.4,2.4,0,0,1-1.79-.77,3,3,0,0,1-.61-.89,4.85,4.85,0,0,1-.38-1.22l-.77,3.91a3.74,3.74,0,0,0,1.41,1.48,3.52,3.52,0,0,0,1.74.44,4.54,4.54,0,0,0,3.26-1.43,7.62,7.62,0,0,0,1.93-4,3.54,3.54,0,0,0-1.92-4.41c-.32-.19-.63-.35-.92-.5a4.94,4.94,0,0,1-.82-.49,2,2,0,0,1-.52-.58,1.11,1.11,0,0,1-.11-.79,2.21,2.21,0,0,1,1-1.54,2,2,0,0,1,.7-.32,3.83,3.83,0,0,1,.73-.07C92.11,351.56,93,352.42,93.33,354.14Z"/><path class="cls-7" d="M99.14,365.25h2.3l2-10.1a4,4,0,0,0-.4-3.27,3.19,3.19,0,0,0-2.56-1,5.11,5.11,0,0,0-2.42.54,8,8,0,0,0-2.13,1.88l-.65,3.3A5.28,5.28,0,0,1,99.58,354a2.05,2.05,0,0,1,1.2.32,1.07,1.07,0,0,1,.27,1.09,1.89,1.89,0,0,1-1.21,1.41l-.48.2-.55.21c-.4.13-.8.27-1.22.43a6.82,6.82,0,0,0-2.33,1.3,4.67,4.67,0,0,0-1.52,2.84,4,4,0,0,0,.29,2.75,2,2,0,0,0,1.85,1.12c1.64,0,2.9-1,3.76-3.07h0Zm1.38-6.88-.17.81a7.8,7.8,0,0,1-1.09,2.8,2.46,2.46,0,0,1-2.08,1.28,1,1,0,0,1-.87-.4,1.56,1.56,0,0,1-.14-1.24,2.21,2.21,0,0,1,.74-1.25,5.51,5.51,0,0,1,1.23-.79l1.36-.6A2.94,2.94,0,0,0,100.52,358.37Z"/><polygon class="cls-7" points="104.01 365.25 106.51 365.25 109.92 347.91 107.43 347.91 104.01 365.25"/><polygon class="cls-7" points="120.49 351.3 117.74 351.3 113.4 361.36 113.36 361.36 113.1 351.3 110.28 351.3 111.03 365.25 114.17 365.25 120.49 351.3"/><path class="cls-7" d="M124.83,365.25h2.3l2-10.1a4,4,0,0,0-.4-3.27,3.19,3.19,0,0,0-2.56-1,5.14,5.14,0,0,0-2.42.54,7.84,7.84,0,0,0-2.12,1.88l-.66,3.3a5.29,5.29,0,0,1,4.31-2.63,2,2,0,0,1,1.2.32,1,1,0,0,1,.27,1.09,1.89,1.89,0,0,1-1.21,1.41l-.48.2-.55.21c-.39.13-.8.27-1.22.43a6.91,6.91,0,0,0-2.33,1.3,4.72,4.72,0,0,0-1.52,2.84,4,4,0,0,0,.29,2.75,2,2,0,0,0,1.85,1.12c1.64,0,2.9-1,3.76-3.07h0Zm1.38-6.88-.16.81A8,8,0,0,1,125,362a2.44,2.44,0,0,1-2.08,1.28,1,1,0,0,1-.87-.4,1.56,1.56,0,0,1-.14-1.24,2.27,2.27,0,0,1,.74-1.25,5.51,5.51,0,0,1,1.23-.79l1.37-.6A3,3,0,0,0,126.21,358.37Z"/><path class="cls-7" d="M142,347.91h-2.5l-1.18,6h0c0-2-.79-3-2.27-3a3.19,3.19,0,0,0-2,.66,5.89,5.89,0,0,0-1.56,1.74,16.38,16.38,0,0,0-1.84,5.13,20.91,20.91,0,0,0-.34,2.56,8.9,8.9,0,0,0,.12,2.35,2.47,2.47,0,0,0,2.63,2.32,3,3,0,0,0,2.25-1.06,7.93,7.93,0,0,0,1.55-2.63h0l-.64,3.29h2.34Zm-4.45,10.42a9.84,9.84,0,0,1-1.12,3.05,3.73,3.73,0,0,1-.93,1,1.9,1.9,0,0,1-1.19.42,1.43,1.43,0,0,1-1.51-1.21,7.39,7.39,0,0,1,.11-3.1,8.27,8.27,0,0,1,1.14-3,2.48,2.48,0,0,1,2.08-1.31,1.47,1.47,0,0,1,1.58,1.3,4.64,4.64,0,0,1,.06,1.31c-.05.5-.12,1-.22,1.5Z"/><path class="cls-7" d="M142.14,358.05q-1.47,7.54,3.37,7.6t6.39-7.58q1.47-7.11-3.48-7.18T142.14,358.05Zm3.93,4.78a1.64,1.64,0,0,1-1.73-1.32,7.21,7.21,0,0,1,.07-3.35,6.43,6.43,0,0,1,1.14-2.83,2.65,2.65,0,0,1,2.23-1.1,1.69,1.69,0,0,1,1.8,1.1,5.67,5.67,0,0,1,0,2.83,9.66,9.66,0,0,1-1.24,3.35A2.65,2.65,0,0,1,146.07,362.83Z"/><path class="cls-7" d="M156.41,359a12.25,12.25,0,0,1,.4-1.55,8.21,8.21,0,0,1,.63-1.5,4.32,4.32,0,0,1,.9-1.16,1.76,1.76,0,0,1,1.21-.45,1.23,1.23,0,0,1,1.23,1l.76-3.87a.91.91,0,0,0-.4-.4,2.13,2.13,0,0,0-.8-.19,2.32,2.32,0,0,0-2,1.24A11.7,11.7,0,0,0,157,355.3h0l.79-4h-2.31l-2.76,13.95h2.51Z"/><path class="cls-7" d="M169.08,360.32a8.44,8.44,0,0,1-1.59,1.91,3.05,3.05,0,0,1-2.09.74q-2.72,0-2.13-3.54h6.42c.16-.57.29-1.15.42-1.73a10,10,0,0,0,0-4.95,2.81,2.81,0,0,0-3-1.86,4.84,4.84,0,0,0-3.78,1.95,12,12,0,0,0-2.28,5.36,9.88,9.88,0,0,0,.12,5.37,3.19,3.19,0,0,0,3.3,2.08,3.93,3.93,0,0,0,2.07-.67,7.33,7.33,0,0,0,1.89-1.69Zm-5.28-3.58a4.37,4.37,0,0,1,1.21-2.07,2.6,2.6,0,0,1,1.7-.69,1.9,1.9,0,0,1,1.54.67,2.51,2.51,0,0,1,.36,2.09Z"/><path class="cls-7" d="M170.71,365.25h2.5l1.45-7.33a7.3,7.3,0,0,1,1-2.63,2.28,2.28,0,0,1,1.92-1.17,1.22,1.22,0,0,1,.84.25,1.08,1.08,0,0,1,.33.71,4.32,4.32,0,0,1,0,1.08c-.07.43-.15.89-.25,1.39l-1.51,7.7h2.5l1.82-9.25a18.68,18.68,0,0,0,.28-1.95,4.31,4.31,0,0,0-.15-1.61,2,2,0,0,0-2.17-1.55,3.27,3.27,0,0,0-2.36,1.15,8.21,8.21,0,0,0-1.72,2.73h0l.69-3.47h-2.39Zm10.49-18a3,3,0,0,1-.58.6,1.23,1.23,0,0,1-.75.27,1.8,1.8,0,0,1-1-.4,1.91,1.91,0,0,0-.55-.28,1.56,1.56,0,0,0-.57-.1,1.48,1.48,0,0,0-.79.21,4.5,4.5,0,0,0-.66.57l-.43,2.22a3,3,0,0,1,.6-.63,1.17,1.17,0,0,1,.71-.22,2.52,2.52,0,0,1,1.09.31,2.24,2.24,0,0,0,1,.34,2,2,0,0,0,1.48-.7Z"/><path class="cls-7" d="M183.07,358.05q-1.47,7.54,3.37,7.6t6.39-7.58q1.47-7.11-3.48-7.18T183.07,358.05Zm3.93,4.78a1.64,1.64,0,0,1-1.73-1.32,7.07,7.07,0,0,1,.07-3.35,6.43,6.43,0,0,1,1.14-2.83,2.65,2.65,0,0,1,2.23-1.1,1.72,1.72,0,0,1,1.81,1.1,5.81,5.81,0,0,1,0,2.83,9.47,9.47,0,0,1-1.24,3.35A2.65,2.65,0,0,1,187,362.83Z"/><path class="cls-7" d="M198.44,365.25h2.5l1.06-5.38h2.44a4.69,4.69,0,0,0,3.37-1.51,8.12,8.12,0,0,0,2.07-4.29q1.06-5.51-2.95-5.44h-5.22ZM203.56,352h1.82c.32,0,.63,0,.92,0a1.48,1.48,0,0,1,.71.26,1.18,1.18,0,0,1,.4.71,4,4,0,0,1-.08,1.37,4.65,4.65,0,0,1-.39,1.21,3.13,3.13,0,0,1-.61.82,1.92,1.92,0,0,1-.66.43,1.86,1.86,0,0,1-.68.13h-2.41Z"/><path class="cls-7" d="M213.54,359a14.4,14.4,0,0,1,.41-1.55,8.94,8.94,0,0,1,.62-1.5,4.36,4.36,0,0,1,.92-1.16,1.71,1.71,0,0,1,1.19-.45,1.24,1.24,0,0,1,1.24,1l.76-3.87a1,1,0,0,0-.4-.4,2.18,2.18,0,0,0-.8-.19,2.32,2.32,0,0,0-2,1.24,11.7,11.7,0,0,0-1.38,3.17h0l.79-4h-2.32l-2.75,13.95h2.5Z"/><path class="cls-7" d="M218.32,358.05q-1.47,7.54,3.38,7.6c3.26,0,5.38-2.57,6.39-7.58,1-4.74-.19-7.13-3.48-7.18S219.21,353.32,218.32,358.05Zm3.93,4.78a1.63,1.63,0,0,1-1.72-1.32,7,7,0,0,1,.07-3.35,6.54,6.54,0,0,1,1.13-2.83,2.66,2.66,0,0,1,2.24-1.1,1.7,1.7,0,0,1,1.8,1.1,5.81,5.81,0,0,1,0,2.83,9.28,9.28,0,0,1-1.24,3.35A2.65,2.65,0,0,1,222.25,362.83Z"/><path class="cls-7" d="M240.35,351.3h-2.3l-.44,2.24h0a2.86,2.86,0,0,0-.66-2.08,2.66,2.66,0,0,0-1.8-.57,4.08,4.08,0,0,0-3.56,2,13.22,13.22,0,0,0-1.72,4.65,10.17,10.17,0,0,0-.05,4.42,2.49,2.49,0,0,0,2.64,2.1c1.4,0,2.57-1,3.53-2.78h0l-.32,1.64a4.61,4.61,0,0,1-.59,1.6,3,3,0,0,1-1.8,1.44,3.83,3.83,0,0,1-.95.14,3.17,3.17,0,0,1-3-1.74l-.54,2.75a3.85,3.85,0,0,0,1.42,1.05,5,5,0,0,0,2.2.47,5.38,5.38,0,0,0,3.44-1.18,6.75,6.75,0,0,0,2.08-4Zm-3.61,6.17a7.49,7.49,0,0,1-1.06,2.71,2.38,2.38,0,0,1-2,1.17,1.47,1.47,0,0,1-1.49-1.1,4.88,4.88,0,0,1-.08-2.55,6.61,6.61,0,0,1,1-2.62,2.35,2.35,0,0,1,2-1.1,1.5,1.5,0,0,1,1.58,1A5.36,5.36,0,0,1,236.74,357.47Z"/><path class="cls-7" d="M244,359a14.4,14.4,0,0,1,.41-1.55,9,9,0,0,1,.63-1.5,4.15,4.15,0,0,1,.91-1.16,1.72,1.72,0,0,1,1.2-.45,1.23,1.23,0,0,1,1.23,1l.76-3.87a.89.89,0,0,0-.39-.4,2.24,2.24,0,0,0-.8-.19,2.33,2.33,0,0,0-2,1.24,11.4,11.4,0,0,0-1.37,3.17h0l.8-4H243l-2.75,13.95h2.5Z"/><path class="cls-7" d="M256.69,360.32a8.44,8.44,0,0,1-1.59,1.91A3,3,0,0,1,253,363q-2.72,0-2.12-3.54h6.41c.16-.57.3-1.15.42-1.73a10.16,10.16,0,0,0,0-4.95,2.83,2.83,0,0,0-3-1.86,4.84,4.84,0,0,0-3.78,1.95,12,12,0,0,0-2.28,5.36,9.88,9.88,0,0,0,.12,5.37,3.19,3.19,0,0,0,3.3,2.08,3.93,3.93,0,0,0,2.07-.67,7.33,7.33,0,0,0,1.89-1.69Zm-5.27-3.58a4.28,4.28,0,0,1,1.2-2.07,2.6,2.6,0,0,1,1.7-.69,1.9,1.9,0,0,1,1.54.67,2.51,2.51,0,0,1,.36,2.09Z"/><path class="cls-7" d="M259.05,360.44l-.71,3.6a4,4,0,0,0,1.13,1.21,2.63,2.63,0,0,0,1.51.4,4.14,4.14,0,0,0,2.86-1.23,6.06,6.06,0,0,0,1.73-3.32,6.21,6.21,0,0,0,.14-1.63,2.56,2.56,0,0,0-.3-1.1,2.76,2.76,0,0,0-.59-.71,2.81,2.81,0,0,0-.75-.43c-.26-.14-.52-.26-.76-.36a5.37,5.37,0,0,1-.67-.29,1,1,0,0,1-.43-.48,1,1,0,0,1-.08-.69,1.73,1.73,0,0,1,.67-1.05,1.92,1.92,0,0,1,1.13-.38,2.23,2.23,0,0,1,1.5.52,2.5,2.5,0,0,1,.74,1.64l.71-3.63a2.22,2.22,0,0,0-.91-1.21,2.82,2.82,0,0,0-1.51-.41,4.19,4.19,0,0,0-2.9,1.26,6.47,6.47,0,0,0-1.76,3.44,3.41,3.41,0,0,0,.24,2.52,3.13,3.13,0,0,0,1.37,1.18,7.93,7.93,0,0,0,.8.36,3,3,0,0,1,.66.36,1.43,1.43,0,0,1,.45.47,1.18,1.18,0,0,1,0,.71,1.87,1.87,0,0,1-.8,1.28,1.82,1.82,0,0,1-1.07.36C260.07,362.82,259.26,362,259.05,360.44Z"/><path class="cls-7" d="M266.83,365.25h2.5l2.75-13.93a2.36,2.36,0,0,1-1.28.36,1.75,1.75,0,0,1-1.22-.38Zm3-16.4c-.21.93.2,1.4,1.22,1.42a1.62,1.62,0,0,0,1.76-1.42c.12-.56.07-.94-.12-1.13a1.62,1.62,0,0,0-1.09-.28,2.07,2.07,0,0,0-1.17.28A1.67,1.67,0,0,0,269.84,348.85Z"/><path class="cls-7" d="M272.42,360.44l-.71,3.6a4.16,4.16,0,0,0,1.13,1.21,2.63,2.63,0,0,0,1.51.4,4.14,4.14,0,0,0,2.86-1.23,6,6,0,0,0,1.73-3.32,6.21,6.21,0,0,0,.14-1.63,2.43,2.43,0,0,0-.3-1.1,2.57,2.57,0,0,0-.59-.71,2.81,2.81,0,0,0-.75-.43,7.4,7.4,0,0,0-.76-.36,6.11,6.11,0,0,1-.67-.29,1,1,0,0,1-.43-.48,1,1,0,0,1-.08-.69,1.71,1.71,0,0,1,.68-1.05,1.87,1.87,0,0,1,1.12-.38,2.23,2.23,0,0,1,1.5.52,2.5,2.5,0,0,1,.74,1.64l.71-3.63a2.22,2.22,0,0,0-.91-1.21,2.8,2.8,0,0,0-1.51-.41,4.21,4.21,0,0,0-2.9,1.26,6.46,6.46,0,0,0-1.75,3.44,3.36,3.36,0,0,0,.23,2.52,3.19,3.19,0,0,0,1.37,1.18,7.93,7.93,0,0,0,.8.36,3,3,0,0,1,.66.36,1.34,1.34,0,0,1,.45.47,1.26,1.26,0,0,1,.05.71,1.87,1.87,0,0,1-.81,1.28,1.82,1.82,0,0,1-1.07.36C273.44,362.82,272.63,362,272.42,360.44Z"/><path class="cls-7" d="M286.93,361.24a5.07,5.07,0,0,1-.88,1.24,1.52,1.52,0,0,1-1.12.49.76.76,0,0,1-.62-.24,1.5,1.5,0,0,1-.3-.62,4.4,4.4,0,0,1,0-.89,7.77,7.77,0,0,1,.13-1q.6-2.9,1.23-5.82h3.07l.61-3.09h-3l.73-3.39h-1.14a9.41,9.41,0,0,1-1.52,2.61A4.65,4.65,0,0,1,282,352l-.46,2.36H283q-.62,2.73-1.36,6.43a13.47,13.47,0,0,0-.24,1.78,5,5,0,0,0,.12,1.58,1.93,1.93,0,0,0,.7,1.05,2.14,2.14,0,0,0,1.38.42,2.9,2.9,0,0,0,1.49-.38,4.69,4.69,0,0,0,1.26-1Z"/><path class="cls-7" d="M293.41,365.25h2.3l2-10.1a4,4,0,0,0-.4-3.27,3.19,3.19,0,0,0-2.56-1,5.11,5.11,0,0,0-2.42.54,8,8,0,0,0-2.13,1.88l-.65,3.3a5.28,5.28,0,0,1,4.31-2.63,2,2,0,0,1,1.19.32,1,1,0,0,1,.28,1.09,1.89,1.89,0,0,1-1.21,1.41l-.48.2-.55.21c-.4.13-.8.27-1.22.43a6.82,6.82,0,0,0-2.33,1.3,4.72,4.72,0,0,0-1.52,2.84,4,4,0,0,0,.29,2.75,2,2,0,0,0,1.85,1.12c1.64,0,2.9-1,3.76-3.07h0Zm1.37-6.88-.16.81a7.8,7.8,0,0,1-1.09,2.8,2.44,2.44,0,0,1-2.08,1.28,1,1,0,0,1-.87-.4,1.56,1.56,0,0,1-.14-1.24,2.27,2.27,0,0,1,.74-1.25,5.51,5.51,0,0,1,1.23-.79l1.37-.6A2.84,2.84,0,0,0,294.78,358.37Z"/></svg>