<svg id="Layer_12" data-name="Layer 12" xmlns="http://www.w3.org/2000/svg" viewBox="0 0 512 512"><defs><style>.cls-1{fill:#fff;}.cls-2{fill:#a6a8ab;}.cls-3{fill:#156eb6;}.cls-4{fill:#075484;}</style></defs><rect class="cls-1" x="1.03" y="1.03" width="509.95" height="509.95"/><path class="cls-2" d="M510,2.05V510H2.05V2.05H510M512,0H0V512H512V0Z"/><path class="cls-3" d="M193.8,377c-1.46,8.48-2.9,17-4.42,25.45-.21,1.18.14,3.08-1.44,3.27a29.77,29.77,0,0,1-7.42-.21c-.81-.11-.31-1.47-.18-2.23,2.42-14,4.94-28.07,7.26-42.12.43-2.58,1.45-3.23,3.91-3.11,6.71.33,4.92-1.09,7.16,5.34,2.78,8,5.32,16,8,24,.32.95.38,2.09,1.68,3.09,2.29-6.73,4.52-13.26,6.73-19.81,1.1-3.26,2.28-6.5,3.21-9.81.57-2,1.52-2.82,3.74-2.79,5.85.07,5.9-.06,6.92,5.82,2.27,13.1,4.44,26.22,6.73,39.32.35,1.95.07,2.7-2.17,2.72-6,.07-6.08.19-7.17-5.87-1.39-7.68-2.68-15.38-4.2-24.11-3.26,9.65-6.45,18.21-9,26.95-1,3.44-3,2.89-5.32,3s-4.06,0-5-3c-2.62-8.72-5.68-17.31-8.57-25.95Z"/><path class="cls-3" d="M266.05,357.19a25,25,0,1,1-24.93,24.57A24.88,24.88,0,0,1,266.05,357.19Zm15.56,25A15.82,15.82,0,0,0,265.74,366c-8.65,0-15.53,7.23-15.48,16.22.06,9.19,7,16.3,15.9,16.21C274.87,398.29,281.62,391.2,281.61,382.16Z"/><path class="cls-3" d="M176.29,405.71c-1,.07-1.44.13-1.9.14-7.38.14-7.45.17-10-6.88-.8-2.19-1.76-3.24-4.3-3.09-4.38.25-8.79.18-13.18,0-2.18-.07-3.33.48-4.19,2.7-2.94,7.67-3.06,7.62-11.84,7.09.33-2.85,1.74-5.29,2.73-7.86,4.71-12.28,9.66-24.48,14.1-36.85,1.49-4.14,4.39-2.5,6.9-2.86,2.21-.31,3.55.24,4.48,2.72C164.62,375.7,170.41,390.47,176.29,405.71ZM147.1,387.27c4,0,7.26,0,10.57,0,1.2,0,2.21,0,1.54-1.72-1.85-4.65-3.67-9.31-5.76-14.62Z"/><path class="cls-3" d="M105.56,392.11c3.81-10.57,7.32-20.38,10.9-30.15.5-1.36.28-3.48,2.17-3.72a24.48,24.48,0,0,1,7.45,0c1.37.25.28,1.75,0,2.65l-10.57,29.46c-1.56,4.35-3.2,8.67-4.64,13.06-.61,1.9-1.58,2.68-3.58,2.44a20.31,20.31,0,0,0-4.27,0c-1.46.14-2.1-.52-2.55-1.8q-7.73-22-15.52-43.92c-.61-1.69-.15-2.18,1.47-2.05h.36c6.67-.31,6.67-.31,8.9,6Z"/><path class="cls-3" d="M310.48,357.18c5.34-.1,9.24,2.63,12.66,6.34.59.64,1.14,1.24.2,2.06q-2.43,2.09-4.81,4.25c-1.14,1-1.63,0-2.24-.66-1.45-1.61-3-3.07-5.32-3.29-1.75-.16-3.44.13-4.25,1.89a3.37,3.37,0,0,0,1.14,4.15c3.66,3.22,7.36,6.4,11,9.68,4.23,3.85,7.16,8.35,6.05,14.42-1.84,10.15-14.64,14.69-23.54,8.38a16.71,16.71,0,0,1-2.18-1.84c-4.76-4.82-3.82-8.08,2.74-9.88,1.51-.42,1.52.77,2,1.41,1.53,2.05,3.22,3.81,5.9,4.28a5.24,5.24,0,0,0,5.59-2.26,4.2,4.2,0,0,0-.67-5.55c-2.14-2.23-4.55-4.18-6.81-6.29a87,87,0,0,1-7.18-6.92c-3.29-3.86-4.69-8.28-2.15-13.18S305.16,357.19,310.48,357.18Z"/><path class="cls-3" d="M163,283.33c4.73-5.61,6.87-11,3.89-18.75-7.52-19.66-13.87-39.76-21.13-59.53-2.19-6-.68-7,5.1-6.84,12.16.36,24.35.53,36.48-.06,6.83-.33,10.9,1.34,11.87,8.5.22,1.63,1.21,3.16,2.49,6.31L273.58,80l1.05.47c-7.35,19.71-14.64,39.45-22.07,59.13q-18.24,48.3-36.68,96.53c-2.34,6.08-2.71,11.62-.11,17.85,4,9.54,7.06,19.44,11.23,31.19,35.31-65.37,69.76-129.18,104.22-193l2.06.88c-1.4,4.46-2.58,9-4.22,13.36Q285.29,223,241.54,339.49c-1.81,4.84-4.15,6.39-9.16,6.2-10.16-.39-20.37-.47-30.52,0-5.6.27-7.91-1.91-9.34-7-1.73-6.12-4.26-12-6.87-19.21-4.36,6.9-6.15,13.7-8.43,20.19-1.6,4.53-3.95,6.09-8.68,5.95-10.66-.32-21.34-.27-32,0-4.06.1-6.3-1-7.7-5.08q-23.66-68.5-47.71-136.88c-2-5.65.34-5.47,4.43-5.43,13.4.13,26.81.25,40.21-.06,4.76-.11,6.9,1.43,8.46,6,8.43,24.63,17.24,49.14,25.93,73.69C160.79,279.72,161,281.75,163,283.33Z"/><polygon class="cls-4" points="128.83 340.58 119.25 312.76 163.03 283.33 128.83 340.58"/><polygon class="cls-4" points="193.8 340.58 184.22 312.76 228.01 283.33 193.8 340.58"/></svg>