<svg id="Layer_1" data-name="Layer 1" xmlns="http://www.w3.org/2000/svg" viewBox="0 0 512 512"><defs><style>.cls-1{fill:#e6e7e8;}.cls-1,.cls-2{stroke:#fff;stroke-linejoin:round;fill-rule:evenodd;}.cls-2{fill:#a7a9ac;}</style></defs><path class="cls-1" d="M215.61,17.21s1.76.53,2.65-.53,1.93-4.23,2.64-2.29,1.71,2.29,2.82,2.12,3.22-.88,3.75.7.71,2.47,1.94,2.47a3,3,0,0,1,3,1.41c.7,1.23.88,1.23,2.29.53S237,19.86,235.93,19s-1.94-1.41-.7-2.64,2.24-2.47,2.47-1.06,1.63,3.35,2.34,2.12,0-1.71,0-3A1.45,1.45,0,0,1,242,12.93c.7.35,2.47.88,2.29-.35s-.53-2.12,1.06-1.24,1.94.71,2.64,0,1.89-1.41,2.82-.88,2,3.76,2,3.76l14.15,46.51s-2.52,2.29-3.4,2.46a3.59,3.59,0,0,0-2.82,2.47,6,6,0,0,0,.36,3.23,2.71,2.71,0,0,1,2.82,1.41c.93,1.76.75,3.7,1.63,3.7s2.65-.18,2.65,1.06,1.41,1.58,1.41,1.58,2.11,0,2.29,1.41-1.76,13.27-1.76,13.27-5,.53-5.7.53-3.52-.53-3.52-.53-1.23-1.76-2.29-.53-1.41.89-3.17.89-1.77-1.06-2.82-1.41-2.7,1.93-2.7,1.93l-3.7,5S234.35,98.6,231,101.42c-3,2.47-11.33,8-11.33,8l-3.35-19.14s3.65-5.82,6.52-7a11.42,11.42,0,0,0,6-8.16c.36-3.18,1.64-5.7-2.29-11C224.48,60.55,216,39.65,216,39.65Z"/><path class="cls-1" d="M215.61,17.21s1.76.53,2.65-.53,1.93-4.23,2.64-2.29,1.71,2.29,2.82,2.12,3.22-.88,3.75.7.71,2.47,1.94,2.47a3,3,0,0,1,3,1.41c.7,1.23.88,1.23,2.29.53S237,19.86,235.93,19s-1.94-1.41-.7-2.64,2.24-2.47,2.47-1.06,1.63,3.35,2.34,2.12,0-1.71,0-3A1.45,1.45,0,0,1,242,12.93c.7.35,2.47.88,2.29-.35s-.53-2.12,1.06-1.24,1.94.71,2.64,0,1.89-1.41,2.82-.88,2,3.76,2,3.76l14.15,46.51s-2.52,2.29-3.4,2.46a3.59,3.59,0,0,0-2.82,2.47,6,6,0,0,0,.36,3.23,2.71,2.71,0,0,1,2.82,1.41c.93,1.76.75,3.7,1.63,3.7s2.65-.18,2.65,1.06,1.41,1.58,1.41,1.58,2.11,0,2.29,1.41-1.76,13.27-1.76,13.27-5,.53-5.7.53-3.52-.53-3.52-.53-1.23-1.76-2.29-.53-1.41.89-3.17.89-1.77-1.06-2.82-1.41-2.7,1.93-2.7,1.93l-3.7,5S234.35,98.6,231,101.42c-3,2.47-11.33,8-11.33,8l-3.35-19.14s3.65-5.82,6.52-7a11.42,11.42,0,0,0,6-8.16c.36-3.18,1.64-5.7-2.29-11C224.48,60.55,216,39.65,216,39.65Z"/><path class="cls-1" d="M251.19,10.81s2.47,0,2.47,1.24,2.12,1.76,2.29.88,1.24-1.94,2.12-1.41a1.63,1.63,0,0,0,1.76-.18s.53-2.11,1.41-1.05,2.77.12,3.17,1.76.59,1.64,1.82,1.81,1.59,1.64,2.82.36,1.06-1.64,2.64-1.29,1.94,2.17,3.18,2,2.16.35,3.92.35a11.86,11.86,0,0,0,3.35-.53s1.24-2.22,2.47-1.63,1.24,2.52,3.17,2.87,1.64,2.11,3.76,2.11,4.23-1.05,4.93.36,1.24,2.64,2.12,1.76.88-2.47,2.47-1.24,3.22.53,4.1.53,3.7-.88,3.7.71.88,2.47.18,3.52-1.59,2.52-.18,3.76,1.77,1.05,1.77,2.46-1.94,1.94-3.18,2.3a26.14,26.14,0,0,0-4.63,1.23c-2.12.88-5.11,1.94-5.11,1.94s-2.47,0-2.3,1.58a12.35,12.35,0,0,1,.18,3.53c-.18,1.11,1.41.23,1.41,1.46s1.24,3.35.35,4.41a7.26,7.26,0,0,0-1.94,4.23c0,1.58-1.05,1.53-1.05,3.17s.17,3.05-1.06,4.81-2.29,1.76-.88,4.23,3.17,1.41,2.29,2.65-2.47,1.63-2.47,3.4a16.8,16.8,0,0,0,.18,4.23c.35,1.58.18,2.11,1.41,2.64a14.07,14.07,0,0,1,4.23,3.53,43.86,43.86,0,0,0,3.7,3.93s2.29.17,2.47,1.93-.18,4.41.17,5.82a44.92,44.92,0,0,1,.58,5.34s.36-.7,1.24.35,2.29,1.94,3.17,3,1.24,1.23,1.94,1.41a9.81,9.81,0,0,1,2.47,1.59,3.81,3.81,0,0,1,1.23,3.52c-.17,1.82-3.17,2.7-3.17,2.7a4.8,4.8,0,0,0-3.7,1.58c-1.59,1.77-2.82,2.82-2.82,4.41s-.18,3.35.7,3.17,1.76-1.23,1.76,0,.36,3.76.36,3.76,1.41.35,2.11,3,.18,3.17,1.24,4.06,2.11.35,2.82,1.41,1.94,2.06,2.29,4.05a11.35,11.35,0,0,1-.18,4.11,7.18,7.18,0,0,0-3.35-.71c-2.11,0-2.29.88-3.17-.7s-.53-2.88-1.41-3.93-1.76-2.12-2.47-.89a3.09,3.09,0,0,1-2.16,1.41,25.72,25.72,0,0,0-.71-3.7c-.35-.88-2.82-2.46-2.82-2.46a23.63,23.63,0,0,1-3-4.76c-.52-1.64-2.29-3.05-2.82-4.64a35.23,35.23,0,0,1-.88-6.52c-.17-2.11-2-6.93-3.22-8.16A17,17,0,0,1,288,99.48s-2.64-1.58-4-1.58S280.38,96,279.68,96s-4.46-.18-4.46-.18l-2.82-.7-2.47-3.93,1.94-12s1.06-2.47-2.29-2.47c-.18.18-1.76.18-1.59-1.58,0-.89-.7-1.41-1.76-1.24.17,0-1.64,1.24-1.82-2.11,0-.18,0-3.7-3.17-2.65-.17,0-2.17-3.75,1.41-5.69a9.32,9.32,0,0,0,4.11-2.82c.17-.18-14.15-46.86-14.15-46.86Z"/><path class="cls-1" d="M251.19,10.81s2.47,0,2.47,1.24,2.12,1.76,2.29.88,1.24-1.94,2.12-1.41a1.63,1.63,0,0,0,1.76-.18s.53-2.11,1.41-1.05,2.77.12,3.17,1.76.59,1.64,1.82,1.81,1.59,1.64,2.82.36,1.06-1.64,2.64-1.29,1.94,2.17,3.18,2,2.16.35,3.92.35a11.86,11.86,0,0,0,3.35-.53s1.24-2.22,2.47-1.63,1.24,2.52,3.17,2.87,1.64,2.11,3.76,2.11,4.23-1.05,4.93.36,1.24,2.64,2.12,1.76.88-2.47,2.47-1.24,3.22.53,4.1.53,3.7-.88,3.7.71.88,2.47.18,3.52-1.59,2.52-.18,3.76,1.77,1.05,1.77,2.46-1.94,1.94-3.18,2.3a26.14,26.14,0,0,0-4.63,1.23c-2.12.88-5.11,1.94-5.11,1.94s-2.47,0-2.3,1.58a12.35,12.35,0,0,1,.18,3.53c-.18,1.11,1.41.23,1.41,1.46s1.24,3.35.35,4.41a7.26,7.26,0,0,0-1.94,4.23c0,1.58-1.05,1.53-1.05,3.17s.17,3.05-1.06,4.81-2.29,1.76-.88,4.23,3.17,1.41,2.29,2.65-2.47,1.63-2.47,3.4a16.8,16.8,0,0,0,.18,4.23c.35,1.58.18,2.11,1.41,2.64a14.07,14.07,0,0,1,4.23,3.53,43.86,43.86,0,0,0,3.7,3.93s2.29.17,2.47,1.93-.18,4.41.17,5.82a44.92,44.92,0,0,1,.58,5.34s.36-.7,1.24.35,2.29,1.94,3.17,3,1.24,1.23,1.94,1.41a9.81,9.81,0,0,1,2.47,1.59,3.81,3.81,0,0,1,1.23,3.52c-.17,1.82-3.17,2.7-3.17,2.7a4.8,4.8,0,0,0-3.7,1.58c-1.59,1.77-2.82,2.82-2.82,4.41s-.18,3.35.7,3.17,1.76-1.23,1.76,0,.36,3.76.36,3.76,1.41.35,2.11,3,.18,3.17,1.24,4.06,2.11.35,2.82,1.41,1.94,2.06,2.29,4.05a11.35,11.35,0,0,1-.18,4.11,7.18,7.18,0,0,0-3.35-.71c-2.11,0-2.29.88-3.17-.7s-.53-2.88-1.41-3.93-1.76-2.12-2.47-.89a3.09,3.09,0,0,1-2.16,1.41,25.72,25.72,0,0,0-.71-3.7c-.35-.88-2.82-2.46-2.82-2.46a23.63,23.63,0,0,1-3-4.76c-.52-1.64-2.29-3.05-2.82-4.64a35.23,35.23,0,0,1-.88-6.52c-.17-2.11-2-6.93-3.22-8.16A17,17,0,0,1,288,99.48s-2.64-1.58-4-1.58S280.38,96,279.68,96s-4.46-.18-4.46-.18l-2.82-.7-2.47-3.93,1.94-12s1.06-2.47-2.29-2.47c-.18.18-1.76.18-1.59-1.58,0-.89-.7-1.41-1.76-1.24.17,0-1.64,1.24-1.82-2.11,0-.18,0-3.7-3.17-2.65-.17,0-2.17-3.75,1.41-5.69a9.32,9.32,0,0,0,4.11-2.82c.17-.18-14.15-46.86-14.15-46.86Z"/><path class="cls-1" d="M284.33,13a9.87,9.87,0,0,1,1.14-2.73A14.81,14.81,0,0,0,286.83,8c.23-.57.69-2.39,2.28-2.27a4.89,4.89,0,0,0,2.87-.8s.46-1.59,1.25-1.82,2.16.34,2.28-.68.11-1.82,1.59-1.14,2.39,1.48,2.39,2.5S299,4.89,300.85,5s3.26.12,3.75.12,2-1.25,3.22.11,1.48,1.71,2.61,2.05,3.3.68,3.87,1.48,1.47,1.32,1.47,3.18-.68,3.22,0,4.81,4.13,3.07,5.84,4.09,4,2.27,4,3.75,1,3,1.94,3.1,4.58.69,5.6.12,1.93.45,3.18,1.48,3.19,3.41,2.73,4.31-2.27,3.64-3.41,4.1a16.09,16.09,0,0,1-3.78.56c-.91.12-3.53.72-3.41,2.65a6.7,6.7,0,0,0,2,4.21,7.42,7.42,0,0,0,3.45,1.93c1,.12,2.61,0,2.38,1.37a9.24,9.24,0,0,0-.34,3.41c.23,1.25,1.59,1.4,1.37,3.56s-1,2.72,0,3.29,2.16-.23,3.63,1.36a12.79,12.79,0,0,0,4,2.85c.95.45.23.68,0,2.5s-2.5,4.92-3.29,5.83-1.37,3.75-1.94,5.11-1.81,4.47-2.38,5.5-.46,3.52-.46,5.34.34,5.83-.57,7.65a25.57,25.57,0,0,0-1.81,4.77c-.46,1.59-.69,1.59.45,3.07s.8,2.16.8,2.16-2.39.11-3,1.36.08,2-.94,2.54-2.28,1-2.16,2,.53,2.16,1.59,2.16,1.06,1.36,1.06,2.16-.8,2.5-.23,2.61.91,1.14,1,2-.11,2.31.68,2.43,2.73.57,2.62,1.59a1.46,1.46,0,0,1-1,1.25l-3,.23a7.26,7.26,0,0,0-.45,2.38,9.87,9.87,0,0,1-.38,2.5l-2.27-.11s-3.41-.23-3.41.68a18,18,0,0,1-.46,2.84l-3.52.34s-3-1.47-2.73-3,.26-1.48-.45-2.61-1.4-4.44-2-5.12a4.83,4.83,0,0,1-1.25-2.54c0-.79,1.25-2.72.34-3.06s-2.5-.35-2.84-.91-2.16-1.25-2.5-2.05-1.48-.91-1.48-.91l-2.05-.34-1.25-.11a31,31,0,0,0,2.28-2.62,4.82,4.82,0,0,1,2.84-1.59c1.47-.34,4.2-.94,4.09-3.56a4.86,4.86,0,0,0-3.52-4.32c-1.14-.22-3.3-2.84-3.3-2.84l-1.48-1.48-1-.56-.72.11-.68-6.4V85l-.12-.57-1.36-.8-1-.45-3-3.33-3.41-3.07A4.35,4.35,0,0,1,293,75a12.85,12.85,0,0,1-.8-5,5.29,5.29,0,0,1,1.25-3.33c.91-1,1.48-1.71,1.48-1.71A8.76,8.76,0,0,1,292.78,63a9.49,9.49,0,0,1-.91-2.39A16.87,16.87,0,0,1,293,59a6.82,6.82,0,0,0,1.25-3.41c0-1,.45-3.22,1.13-3.9.12.12,0-2.84,1-4.32s1.59-1.7,1.13-3.29a21.82,21.82,0,0,1-.57-2.39L295.73,41l-.11-2.88s-.91-2.61,1.71-2.61c.34.11,7.61-2.84,7.61-2.84l2.2-.35s3.63-.9,3.52-2.27c0-.11-.23-1-.23-1L309,27.47a1.82,1.82,0,0,1-.79-1.74c.11.34,1.14-2.85,1.14-3.19a14.36,14.36,0,0,0-.35-1.7s.69-1.59-1.59-1.48a28,28,0,0,1-4.47.34,6.77,6.77,0,0,1-2.15-.91.91.91,0,0,0-1.48.23c-.57,1-1.71,2.16-2.05.8,0-.12-.45-1.25-.45-1.25a2.49,2.49,0,0,0-2.16-1,14.58,14.58,0,0,0-2.39.68S289.9,18,289.33,17c.12,0-.11-.34-1.47-.79,0,.11-1.25-.57-1.25-.57l-.91-1.48Z"/><path class="cls-1" d="M284.33,13a9.87,9.87,0,0,1,1.14-2.73A14.81,14.81,0,0,0,286.83,8c.23-.57.69-2.39,2.28-2.27a4.89,4.89,0,0,0,2.87-.8s.46-1.59,1.25-1.82,2.16.34,2.28-.68.11-1.82,1.59-1.14,2.39,1.48,2.39,2.5S299,4.89,300.85,5s3.26.12,3.75.12,2-1.25,3.22.11,1.48,1.71,2.61,2.05,3.3.68,3.87,1.48,1.47,1.32,1.47,3.18-.68,3.22,0,4.81,4.13,3.07,5.84,4.09,4,2.27,4,3.75,1,3,1.94,3.1,4.58.69,5.6.12,1.93.45,3.18,1.48,3.19,3.41,2.73,4.31-2.27,3.64-3.41,4.1a16.09,16.09,0,0,1-3.78.56c-.91.12-3.53.72-3.41,2.65a6.7,6.7,0,0,0,2,4.21,7.42,7.42,0,0,0,3.45,1.93c1,.12,2.61,0,2.38,1.37a9.24,9.24,0,0,0-.34,3.41c.23,1.25,1.59,1.4,1.37,3.56s-1,2.72,0,3.29,2.16-.23,3.63,1.36a12.79,12.79,0,0,0,4,2.85c.95.45.23.68,0,2.5s-2.5,4.92-3.29,5.83-1.37,3.75-1.94,5.11-1.81,4.47-2.38,5.5-.46,3.52-.46,5.34.34,5.83-.57,7.65a25.57,25.57,0,0,0-1.81,4.77c-.46,1.59-.69,1.59.45,3.07s.8,2.16.8,2.16-2.39.11-3,1.36.08,2-.94,2.54-2.28,1-2.16,2,.53,2.16,1.59,2.16,1.06,1.36,1.06,2.16-.8,2.5-.23,2.61.91,1.14,1,2-.11,2.31.68,2.43,2.73.57,2.62,1.59a1.46,1.46,0,0,1-1,1.25l-3,.23a7.26,7.26,0,0,0-.45,2.38,9.87,9.87,0,0,1-.38,2.5l-2.27-.11s-3.41-.23-3.41.68a18,18,0,0,1-.46,2.84l-3.52.34s-3-1.47-2.73-3,.26-1.48-.45-2.61-1.4-4.44-2-5.12a4.83,4.83,0,0,1-1.25-2.54c0-.79,1.25-2.72.34-3.06s-2.5-.35-2.84-.91-2.16-1.25-2.5-2.05-1.48-.91-1.48-.91l-2.05-.34-1.25-.11a31,31,0,0,0,2.28-2.62,4.82,4.82,0,0,1,2.84-1.59c1.47-.34,4.2-.94,4.09-3.56a4.86,4.86,0,0,0-3.52-4.32c-1.14-.22-3.3-2.84-3.3-2.84l-1.48-1.48-1-.56-.72.11-.68-6.4V85l-.12-.57-1.36-.8-1-.45-3-3.33-3.41-3.07A4.35,4.35,0,0,1,293,75a12.85,12.85,0,0,1-.8-5,5.29,5.29,0,0,1,1.25-3.33c.91-1,1.48-1.71,1.48-1.71A8.76,8.76,0,0,1,292.78,63a9.49,9.49,0,0,1-.91-2.39A16.87,16.87,0,0,1,293,59a6.82,6.82,0,0,0,1.25-3.41c0-1,.45-3.22,1.13-3.9.12.12,0-2.84,1-4.32s1.59-1.7,1.13-3.29a21.82,21.82,0,0,1-.57-2.39L295.73,41l-.11-2.88s-.91-2.61,1.71-2.61c.34.11,7.61-2.84,7.61-2.84l2.2-.35s3.63-.9,3.52-2.27c0-.11-.23-1-.23-1L309,27.47a1.82,1.82,0,0,1-.79-1.74c.11.34,1.14-2.85,1.14-3.19a14.36,14.36,0,0,0-.35-1.7s.69-1.59-1.59-1.48a28,28,0,0,1-4.47.34,6.77,6.77,0,0,1-2.15-.91.91.91,0,0,0-1.48.23c-.57,1-1.71,2.16-2.05.8,0-.12-.45-1.25-.45-1.25a2.49,2.49,0,0,0-2.16-1,14.58,14.58,0,0,0-2.39.68S289.9,18,289.33,17c.12,0-.11-.34-1.47-.79,0,.11-1.25-.57-1.25-.57l-.91-1.48Z"/><path class="cls-1" d="M338.9,32.88s2,0,2.43,1.06.64,1.06,2,1.48,1.17.95,2.23,1.69,1.16,1,2.43,1.8,2.54.43,2.65,2.86.1,3.6.1,4.66-.42,3,.32,3.81-.21,1.06-.21,2.65-.53,2.12.11,2.86a12.11,12.11,0,0,0,2.11,1.8,4.39,4.39,0,0,0,3.07,1c.85-.21,2.86-.53,3.07.21s1.38,1.81,1.38,2.65.95,1.7,2.12,2.23,2.43.21,3.28.74.95,0,2.23.21,2.64.32,2.54,1.48,0,2.22,1.06,2.22.95.64,1.05,1.8,1.49,3.39,1.7,3.82,1.37,1.27.95,2.75a18.38,18.38,0,0,0-.95,4.24,17.18,17.18,0,0,0,.21,3.38c.21,1,1.59,1.49.21,2.33s-3.17,4.87-3.81,6.36-2,3.7-2,4.87A5.21,5.21,0,0,1,367.7,101c-.85,1.06-4.66,3.07-5.09,4.13a18.2,18.2,0,0,0-1.16,4.56c0,1-.21,2.54-1.48,2.85s-3.6,1.7-2.76,3.39,1.27,2.54,3,2.65,1.59-.42,2.75,2,1.06,3.92.32,5.19-2.44,1.48-2.44,2.65.22,2.43-.21,2.75-2.54.21-1.9,1.38,2.22,1.06,2.11,2.12-2.75,1.79-3.07,3-3.17,3.92-3.81,4.76-1.38,2.23-2.33,2.23-2.33-.21-2.33-1.59-.21-4.55-.32-5.19.11-3.17-1.16-3.92a7,7,0,0,1-2.54-2.86c-.43-.84-1.06-.21-1.27-1.27s-1.17-1.48-2.33-1.16a2.57,2.57,0,0,1-3-.85c-.63-1-1.37-2.12-1.37-2.12l-1.06-1.27s.95-1-1.17-1.9a5.62,5.62,0,0,1-1.27-.21s-.84-.32-.63-2.23a14.91,14.91,0,0,1-.64-1.69c-.21-.64-.63-.21-.32-2.22s-.1-2.86-.74-3.08a1.78,1.78,0,0,1-1.48-1.48c-.21-1.06-.32-1.48.53-2s1.27-.74,1.27-.74.53-.21.64-1.27.84-2.54,2.33-2.54c.21.1,1.37.42.63-1.38a13.43,13.43,0,0,1-.95-1.91,3,3,0,0,1,.1-2.32c.53-1.59,1.7-4,1.7-4a10.9,10.9,0,0,0,.74-3.6,36.39,36.39,0,0,1,.11-4.13,23,23,0,0,1-.11-5,26.34,26.34,0,0,1,2-3.91,40.47,40.47,0,0,0,1.38-4.56c.1-1,2.12-4.34,3.17-5.71a12.63,12.63,0,0,0,1.8-5.3c.11,0-3.38-1.48-4.13-3,.43.32-1-1.49-2.85-1.27-.22.1-2-.53-1.38-2.65.11.11.95-1.69-.53-3.6-.21,0-.85-1.69-.32-3.6.11-.53,1.17-1.69-1.06-1.91-1.59-.31-5.82-.84-6.46-5.29,0,0-1.37-3.07,3.39-3.6,0,.21,2.76-.42,2.76-.42s1.27.42,2.85-2l1.17-1.9Z"/><path class="cls-1" d="M338.9,32.88s2,0,2.43,1.06.64,1.06,2,1.48,1.17.95,2.23,1.69,1.16,1,2.43,1.8,2.54.43,2.65,2.86.1,3.6.1,4.66-.42,3,.32,3.81-.21,1.06-.21,2.65-.53,2.12.11,2.86a12.11,12.11,0,0,0,2.11,1.8,4.39,4.39,0,0,0,3.07,1c.85-.21,2.86-.53,3.07.21s1.38,1.81,1.38,2.65.95,1.7,2.12,2.23,2.43.21,3.28.74.95,0,2.23.21,2.64.32,2.54,1.48,0,2.22,1.06,2.22.95.64,1.05,1.8,1.49,3.39,1.7,3.82,1.37,1.27.95,2.75a18.38,18.38,0,0,0-.95,4.24,17.18,17.18,0,0,0,.21,3.38c.21,1,1.59,1.49.21,2.33s-3.17,4.87-3.81,6.36-2,3.7-2,4.87A5.21,5.21,0,0,1,367.7,101c-.85,1.06-4.66,3.07-5.09,4.13a18.2,18.2,0,0,0-1.16,4.56c0,1-.21,2.54-1.48,2.85s-3.6,1.7-2.76,3.39,1.27,2.54,3,2.65,1.59-.42,2.75,2,1.06,3.92.32,5.19-2.44,1.48-2.44,2.65.22,2.43-.21,2.75-2.54.21-1.9,1.38,2.22,1.06,2.11,2.12-2.75,1.79-3.07,3-3.17,3.92-3.81,4.76-1.38,2.23-2.33,2.23-2.33-.21-2.33-1.59-.21-4.55-.32-5.19.11-3.17-1.16-3.92a7,7,0,0,1-2.54-2.86c-.43-.84-1.06-.21-1.27-1.27s-1.17-1.48-2.33-1.16a2.57,2.57,0,0,1-3-.85c-.63-1-1.37-2.12-1.37-2.12l-1.06-1.27s.95-1-1.17-1.9a5.62,5.62,0,0,1-1.27-.21s-.84-.32-.63-2.23a14.91,14.91,0,0,1-.64-1.69c-.21-.64-.63-.21-.32-2.22s-.1-2.86-.74-3.08a1.78,1.78,0,0,1-1.48-1.48c-.21-1.06-.32-1.48.53-2s1.27-.74,1.27-.74.53-.21.64-1.27.84-2.54,2.33-2.54c.21.1,1.37.42.63-1.38a13.43,13.43,0,0,1-.95-1.91,3,3,0,0,1,.1-2.32c.53-1.59,1.7-4,1.7-4a10.9,10.9,0,0,0,.74-3.6,36.39,36.39,0,0,1,.11-4.13,23,23,0,0,1-.11-5,26.34,26.34,0,0,1,2-3.91,40.47,40.47,0,0,0,1.38-4.56c.1-1,2.12-4.34,3.17-5.71a12.63,12.63,0,0,0,1.8-5.3c.11,0-3.38-1.48-4.13-3,.43.32-1-1.49-2.85-1.27-.22.1-2-.53-1.38-2.65.11.11.95-1.69-.53-3.6-.21,0-.85-1.69-.32-3.6.11-.53,1.17-1.69-1.06-1.91-1.59-.31-5.82-.84-6.46-5.29,0,0-1.37-3.07,3.39-3.6,0,.21,2.76-.42,2.76-.42s1.27.42,2.85-2l1.17-1.9Z"/><path class="cls-1" d="M316.39,138.59A6.86,6.86,0,0,0,312,138c-.16,0-2,.42-2.51-2.2,0,.32-.79-2.77-.79-2.77L307,131.57a3.94,3.94,0,0,1-3.25,1.89l-.79-4.4s-3.92-.67-5.49-6.9c-.16.16-3-4.51-3-4.51l-.63-6.59-2.31-5.91-3.29-5.65a16.79,16.79,0,0,0-5.18-1.73l-3.45-1.56-7-.95-2.36-3.87s-5.44,1.25-9.37,0c.16,0-.78-2.62-3.29.47.16.31-3-.32-3-.32s-2.31-2.66-4.35,0c-.31.16-3.92,5.45-3.92,5.45s-10.78,2.2-14.23,3.45c-.16.16-12.51,8.9-12.51,8.9l-3.45-18.42s-2.36,2-2.51,4.19S210.38,103,204,107.82c-1.1,1.2-3.3,2.15-4.08,5.44s-4.35,10-4.35,10,.89,1.1,3.72.78c0,0,2.2.16,2.67.63-.32.16,2.51,1,5-1.41.62-.63,3.87-3.09,6.54-3.09,1.41,0,6.43-.36,4.55,5-1.41,2-3.45,5.38-3.14,8.63a8.78,8.78,0,0,0,4.55,6.86c2,.94,3.25,2.82,5.29,3.14s7.69,0,9.26.31,6.39.63,8,2.35,3,4.35,4.71,5.6a37.75,37.75,0,0,0,5.13,3.61c1.89,1,5,2.51,8,2.67s8.11,1.1,9.83,1.26,2.51.94,3.61-.47.94-2.36,1.1-3.61,1.26-1.1,1.57-2.36-.36-1.88,2.31-1.57,2.51,1.26,3.61,1.42,1.41.31,2.35,1.72a2.59,2.59,0,0,0,4.08-.15c.78-1.26,2.93-2.36,3.72-1s1.25,2.36,2.67,2.36,2.35.15,3.13-1.41,2.51-.16,2.51-1.73-1.41-1.1-.31-2.35,1.41-2,.47-3.25-1.36-5.14-1.36-5.14,4.39-2.39,5.6-2.86,2.15-.16,4-.16S316.39,138.59,316.39,138.59Z"/><path class="cls-1" d="M316.39,138.59A6.86,6.86,0,0,0,312,138c-.16,0-2,.42-2.51-2.2,0,.32-.79-2.77-.79-2.77L307,131.57a3.94,3.94,0,0,1-3.25,1.89l-.79-4.4s-3.92-.67-5.49-6.9c-.16.16-3-4.51-3-4.51l-.63-6.59-2.31-5.91-3.29-5.65a16.79,16.79,0,0,0-5.18-1.73l-3.45-1.56-7-.95-2.36-3.87s-5.44,1.25-9.37,0c.16,0-.78-2.62-3.29.47.16.31-3-.32-3-.32s-2.31-2.66-4.35,0c-.31.16-3.92,5.45-3.92,5.45s-10.78,2.2-14.23,3.45c-.16.16-12.51,8.9-12.51,8.9l-3.45-18.42s-2.36,2-2.51,4.19S210.38,103,204,107.82c-1.1,1.2-3.3,2.15-4.08,5.44s-4.35,10-4.35,10,.89,1.1,3.72.78c0,0,2.2.16,2.67.63-.32.16,2.51,1,5-1.41.62-.63,3.87-3.09,6.54-3.09,1.41,0,6.43-.36,4.55,5-1.41,2-3.45,5.38-3.14,8.63a8.78,8.78,0,0,0,4.55,6.86c2,.94,3.25,2.82,5.29,3.14s7.69,0,9.26.31,6.39.63,8,2.35,3,4.35,4.71,5.6a37.75,37.75,0,0,0,5.13,3.61c1.89,1,5,2.51,8,2.67s8.11,1.1,9.83,1.26,2.51.94,3.61-.47.94-2.36,1.1-3.61,1.26-1.1,1.57-2.36-.36-1.88,2.31-1.57,2.51,1.26,3.61,1.42,1.41.31,2.35,1.72a2.59,2.59,0,0,0,4.08-.15c.78-1.26,2.93-2.36,3.72-1s1.25,2.36,2.67,2.36,2.35.15,3.13-1.41,2.51-.16,2.51-1.73-1.41-1.1-.31-2.35,1.41-2,.47-3.25-1.36-5.14-1.36-5.14,4.39-2.39,5.6-2.86,2.15-.16,4-.16S316.39,138.59,316.39,138.59Z"/><path class="cls-1" d="M294.54,197.36s9.91.3,11.91.61a88.13,88.13,0,0,0,11.23.46c2.22-.15,3.6-.46,5.3-.46s3.07-.92,4.15,0,3.6,2,5.14,1.23,2.15-1.84,3.54-1.54,1.23,1.85,2.31.93,1.07-1.39,2-2.16,1.53-1.54,2.15-.61a6.46,6.46,0,0,0,2.15,2.31c.77.3,1.45.15,1.14-1.24s.16-4.77.16-5.54a17,17,0,0,0,0-2.76,5.3,5.3,0,0,1,.3-3.14c.47-.62,1.85-1.39,1.54-2.47s-1.07-2-1.38-2.92.46-3.69.46-3.69,1.08-2.22,0-2.37-1.6,1.54-1.91.15a6.38,6.38,0,0,1,.16-3.69c.36-.61,1.6-2.77,1.29-4.46s-.46-.46-.62-2a5.35,5.35,0,0,1,.31-2.83,19.8,19.8,0,0,0,.46-4,9,9,0,0,0-.46-2.93,4.14,4.14,0,0,1,0-2l2.31-.92a8.89,8.89,0,0,0,2-2.77,13.74,13.74,0,0,1,1.08-2.52l.61-1.69s-2.61,1.07-2.61-2.16l-.31-6a2.91,2.91,0,0,0-1.69-2.52l-1.7-2.46a11.53,11.53,0,0,1-1.29-1.08c-.62-.62-.46-1.39-1.54-1.39a21.05,21.05,0,0,0-2.31.16,4.6,4.6,0,0,1-2-1.85,11.24,11.24,0,0,0-2.15-2.61l-1.08.76h-2.77l-1,4.93h-3.85s-1.84-.52-2.15,3.38c.15,0-3.08.62-3.08.62a4,4,0,0,1-3.08-4.46c-.15-.31-1.29-3.7-1.29-3.7l-.92-2.92-1.54-2.37.46-2.15s.77-.77-1.08-1.23c.16-.16-2.3.61-4.61-2.93-.16.16-1.85-.77-1.85-.77l-2.46-.15-.62.77v3.08s.31,1.23,1.85.3c0-.15.77-.46.77.77v1.85l.31,1.75s1.54-.15,2.31,3.7c.3.92-.31,3.84,2.3,3.69,1.85.61,3.08,2.68,3.7,5.91a15.22,15.22,0,0,1-.16,3.38l-11.23.46L298.85,142l.62,3.69,1.23,2s1.07.68,0,1.75c0,.31-1.08,1.54-1.08,1.54s1.85,2.46-.77,2.77c.15.16-1.08-.15-1.85,2-.15,0-2.3.31-2.3.31s-2.16-.15-2.31-1.69c.15.15-.83-2.93-3.6-.62-.46.46-2.77,3.23-4.62.93a13.76,13.76,0,0,0-1.23-1.39l-3.69-1.38-2.06-.62a1.4,1.4,0,0,0-1.23,1.39,1.48,1.48,0,0,1-1.08,1.53c-.46.16-.77.93-.46,1.85s-.77,2.92-1.7,3.39c1.08,1.07,3.24,2.52,3.7,3.29a5.75,5.75,0,0,1,.61,1.84s1.82.47,1.3,1.39-2.53,1.23-2.53,2.15-.37,1.54.93,2.46a8.83,8.83,0,0,1,2.67,4.16c.31,1.14-.61,2.83.62,3.75a8.33,8.33,0,0,1,2.46,3.39,32,32,0,0,0,2.46,5.23c.92,1.23,3.39,3.29,4.31,4.37s1.75,2.61,2.83,2.92S294.54,197.36,294.54,197.36Z"/><path class="cls-1" d="M294.54,197.36s9.91.3,11.91.61a88.13,88.13,0,0,0,11.23.46c2.22-.15,3.6-.46,5.3-.46s3.07-.92,4.15,0,3.6,2,5.14,1.23,2.15-1.84,3.54-1.54,1.23,1.85,2.31.93,1.07-1.39,2-2.16,1.53-1.54,2.15-.61a6.46,6.46,0,0,0,2.15,2.31c.77.3,1.45.15,1.14-1.24s.16-4.77.16-5.54a17,17,0,0,0,0-2.76,5.3,5.3,0,0,1,.3-3.14c.47-.62,1.85-1.39,1.54-2.47s-1.07-2-1.38-2.92.46-3.69.46-3.69,1.08-2.22,0-2.37-1.6,1.54-1.91.15a6.38,6.38,0,0,1,.16-3.69c.36-.61,1.6-2.77,1.29-4.46s-.46-.46-.62-2a5.35,5.35,0,0,1,.31-2.83,19.8,19.8,0,0,0,.46-4,9,9,0,0,0-.46-2.93,4.14,4.14,0,0,1,0-2l2.31-.92a8.89,8.89,0,0,0,2-2.77,13.74,13.74,0,0,1,1.08-2.52l.61-1.69s-2.61,1.07-2.61-2.16l-.31-6a2.91,2.91,0,0,0-1.69-2.52l-1.7-2.46a11.53,11.53,0,0,1-1.29-1.08c-.62-.62-.46-1.39-1.54-1.39a21.05,21.05,0,0,0-2.31.16,4.6,4.6,0,0,1-2-1.85,11.24,11.24,0,0,0-2.15-2.61l-1.08.76h-2.77l-1,4.93h-3.85s-1.84-.52-2.15,3.38c.15,0-3.08.62-3.08.62a4,4,0,0,1-3.08-4.46c-.15-.31-1.29-3.7-1.29-3.7l-.92-2.92-1.54-2.37.46-2.15s.77-.77-1.08-1.23c.16-.16-2.3.61-4.61-2.93-.16.16-1.85-.77-1.85-.77l-2.46-.15-.62.77v3.08s.31,1.23,1.85.3c0-.15.77-.46.77.77v1.85l.31,1.75s1.54-.15,2.31,3.7c.3.92-.31,3.84,2.3,3.69,1.85.61,3.08,2.68,3.7,5.91a15.22,15.22,0,0,1-.16,3.38l-11.23.46L298.85,142l.62,3.69,1.23,2s1.07.68,0,1.75c0,.31-1.08,1.54-1.08,1.54s1.85,2.46-.77,2.77c.15.16-1.08-.15-1.85,2-.15,0-2.3.31-2.3.31s-2.16-.15-2.31-1.69c.15.15-.83-2.93-3.6-.62-.46.46-2.77,3.23-4.62.93a13.76,13.76,0,0,0-1.23-1.39l-3.69-1.38-2.06-.62a1.4,1.4,0,0,0-1.23,1.39,1.48,1.48,0,0,1-1.08,1.53c-.46.16-.77.93-.46,1.85s-.77,2.92-1.7,3.39c1.08,1.07,3.24,2.52,3.7,3.29a5.75,5.75,0,0,1,.61,1.84s1.82.47,1.3,1.39-2.53,1.23-2.53,2.15-.37,1.54.93,2.46a8.83,8.83,0,0,1,2.67,4.16c.31,1.14-.61,2.83.62,3.75a8.33,8.33,0,0,1,2.46,3.39,32,32,0,0,0,2.46,5.23c.92,1.23,3.39,3.29,4.31,4.37s1.75,2.61,2.83,2.92S294.54,197.36,294.54,197.36Z"/><path class="cls-1" d="M294.76,197.31l-1.62-2.11L289.63,192l-4.72-4.88-2.61-5.58-1.36-2.12-1.62-1.24-.12-3.51L278.08,172l-1.4-1.49-.5-1-.49-1.62s3-1.73,2.76-2.36c.13.38-.28-.74-1.52-.86l-.37-1.87-3.73-3.26a3.15,3.15,0,0,1-2.61.12,64.21,64.21,0,0,0-10.59-1.36A24,24,0,0,1,247.8,153a19.15,19.15,0,0,1-5-5.5c-.5-.62-1.37-3.48-11-3.48-2.86,0-6.21-.25-6.21-.25s-2.89.13-4-1.74c-1-.62-4.35-2.36-5.34-4.47,1.24,3.35.37,5.84,0,7.95s-2,5.87-1.12,10c.12,2.36-1,4.26,2.24,7.49.49,1.24,1,1.86.49,3,0,.62-.49,2.36,2,2.73a2,2,0,0,1,.12,3.1,38.87,38.87,0,0,0-3.22,3.89,32.06,32.06,0,0,1-.75,3.72,21.28,21.28,0,0,0-1.49,3.61,5.41,5.41,0,0,1-2.48,3.35c-1.28.62-1.53,1.37-3.14,1.12a24.58,24.58,0,0,1-2.61,1.77,1.63,1.63,0,0,0,.74,1.49c.87.62,3.23,2.11,3.23,2.11l-.25,1.12a11.23,11.23,0,0,0-1.61,2,18.54,18.54,0,0,0-1,4c0,.5-.38,2.64-.38,2.64a7.43,7.43,0,0,0,2,.75,11.62,11.62,0,0,1,3.14,1.37c.62.37.75.86,2,.86s3.35.87,3.72,1.74a4.09,4.09,0,0,0,2.36,2c.75.12,1.62-.12,2,.5a2.25,2.25,0,0,0,1.86,1.11c.78,0,1.9.25,2.15,1.25s.5,2.48,1.36,2.85a2.76,2.76,0,0,0,2.49-.25,2.21,2.21,0,0,1,2.48-.12c.87.62,1,1.53,1.62,1.15s.49.75.62,1.87-.5,2,1,2.11,1.58.25,1.86,1.36.78,2.49,2,2.11,1.73-.62,3.22.38,2.61,1.61,3.48.62,2.2-1.24,3.6-1.49,4.14.74,5.13,0,3.6-1,4.84-1,3.45.62,4.47,0a7.33,7.33,0,0,0,2.15-2.73,7.31,7.31,0,0,1,2-2.61c.87-.49,1-1,1-2a3.48,3.48,0,0,1,2-2.73c1-.37.62-.75,1-2.24s1.12-3.35,2.73-3.72a24.21,24.21,0,0,0,5.38-1.62c1.37-.74,4.72-2.27,6.33-3.88a16.57,16.57,0,0,1,3.48-2.61Z"/><path class="cls-1" d="M294.76,197.31l-1.62-2.11L289.63,192l-4.72-4.88-2.61-5.58-1.36-2.12-1.62-1.24-.12-3.51L278.08,172l-1.4-1.49-.5-1-.49-1.62s3-1.73,2.76-2.36c.13.38-.28-.74-1.52-.86l-.37-1.87-3.73-3.26a3.15,3.15,0,0,1-2.61.12,64.21,64.21,0,0,0-10.59-1.36A24,24,0,0,1,247.8,153a19.15,19.15,0,0,1-5-5.5c-.5-.62-1.37-3.48-11-3.48-2.86,0-6.21-.25-6.21-.25s-2.89.13-4-1.74c-1-.62-4.35-2.36-5.34-4.47,1.24,3.35.37,5.84,0,7.95s-2,5.87-1.12,10c.12,2.36-1,4.26,2.24,7.49.49,1.24,1,1.86.49,3,0,.62-.49,2.36,2,2.73a2,2,0,0,1,.12,3.1,38.87,38.87,0,0,0-3.22,3.89,32.06,32.06,0,0,1-.75,3.72,21.28,21.28,0,0,0-1.49,3.61,5.41,5.41,0,0,1-2.48,3.35c-1.28.62-1.53,1.37-3.14,1.12a24.58,24.58,0,0,1-2.61,1.77,1.63,1.63,0,0,0,.74,1.49c.87.62,3.23,2.11,3.23,2.11l-.25,1.12a11.23,11.23,0,0,0-1.61,2,18.54,18.54,0,0,0-1,4c0,.5-.38,2.64-.38,2.64a7.43,7.43,0,0,0,2,.75,11.62,11.62,0,0,1,3.14,1.37c.62.37.75.86,2,.86s3.35.87,3.72,1.74a4.09,4.09,0,0,0,2.36,2c.75.12,1.62-.12,2,.5a2.25,2.25,0,0,0,1.86,1.11c.78,0,1.9.25,2.15,1.25s.5,2.48,1.36,2.85a2.76,2.76,0,0,0,2.49-.25,2.21,2.21,0,0,1,2.48-.12c.87.62,1,1.53,1.62,1.15s.49.75.62,1.87-.5,2,1,2.11,1.58.25,1.86,1.36.78,2.49,2,2.11,1.73-.62,3.22.38,2.61,1.61,3.48.62,2.2-1.24,3.6-1.49,4.14.74,5.13,0,3.6-1,4.84-1,3.45.62,4.47,0a7.33,7.33,0,0,0,2.15-2.73,7.31,7.31,0,0,1,2-2.61c.87-.49,1-1,1-2a3.48,3.48,0,0,1,2-2.73c1-.37.62-.75,1-2.24s1.12-3.35,2.73-3.72a24.21,24.21,0,0,0,5.38-1.62c1.37-.74,4.72-2.27,6.33-3.88a16.57,16.57,0,0,1,3.48-2.61Z"/><path class="cls-1" d="M238.63,223.3a7.43,7.43,0,0,0-2.19,1.84c-.55.93-.64,1.57-1,1.85a5.54,5.54,0,0,0-1,1.48,2.94,2.94,0,0,1-1.47,1.44,2.36,2.36,0,0,0-1.39,2c-.09.93.56,1.85-.09,2.59a2.53,2.53,0,0,0-.92,2.49c.27,1.11.92,1.94,1.2,2.95s.83.68.83,2.22-1,.71-1.48,2.19-.28,2-.74,2.49-.83,1.57,0,2,1.2-.28,1.66.92a4.31,4.31,0,0,0,1.48,2c.74.74,1.38.37,1.57-.09s.65-.74.83.74-.55,1.69.09,2.49,1.66.9,1,2.1-1.29,1.2-1.57,2.12-.28,1.11-1.39,1.29-1.93.65-2.12,1.66a3,3,0,0,0,.09,2.22c.37.74.65,1.94,1.2,2.21s1.11.56,1.57.19a1.32,1.32,0,0,1,1.85,1c.09,1-.06,1.54.83,1.82s1.54,1.11,2.37.55.74-.64,1.57-.46a9.79,9.79,0,0,0,2.4.37c.92,0,.65.09,1.48.83a5.2,5.2,0,0,0,3.23,1.48,5.86,5.86,0,0,0,2.21-.37c1.54-.46,1.91-1.39,2.93-.28s3,2.31,3.32,1.29.18-2,.74-2.4,1.94-1.2,2.67-.92,1.11.65,1.48.37,1.2-.55,1.39.83-.25,2.86,1,2.49.25-1.1,1.63-.73,1.48.27,2.13,1a3.83,3.83,0,0,0,1.38,1l.65-.47.09-8.73-1.66-16.78V244l-2.31-2.47s-1,.37-.74-1.93c0,.27.56-2.87.56-2.87a5,5,0,0,0,1.57-3.5c.46-.37.18-3,.18-3l-.92-3.75-1.48-3-.46-2.21s-1,1-3.66.46c-.47-.28-4.07-.09-5.91.92a9.49,9.49,0,0,1-3.51.1,7.58,7.58,0,0,0-3.29.27c-2,.65-2.22,2-3.6,1.57s-2.4-1.84-3.23-1.66a8.31,8.31,0,0,1-1.57.18Z"/><path class="cls-1" d="M238.63,223.3a7.43,7.43,0,0,0-2.19,1.84c-.55.93-.64,1.57-1,1.85a5.54,5.54,0,0,0-1,1.48,2.94,2.94,0,0,1-1.47,1.44,2.36,2.36,0,0,0-1.39,2c-.09.93.56,1.85-.09,2.59a2.53,2.53,0,0,0-.92,2.49c.27,1.11.92,1.94,1.2,2.95s.83.68.83,2.22-1,.71-1.48,2.19-.28,2-.74,2.49-.83,1.57,0,2,1.2-.28,1.66.92a4.31,4.31,0,0,0,1.48,2c.74.74,1.38.37,1.57-.09s.65-.74.83.74-.55,1.69.09,2.49,1.66.9,1,2.1-1.29,1.2-1.57,2.12-.28,1.11-1.39,1.29-1.93.65-2.12,1.66a3,3,0,0,0,.09,2.22c.37.74.65,1.94,1.2,2.21s1.11.56,1.57.19a1.32,1.32,0,0,1,1.85,1c.09,1-.06,1.54.83,1.82s1.54,1.11,2.37.55.74-.64,1.57-.46a9.79,9.79,0,0,0,2.4.37c.92,0,.65.09,1.48.83a5.2,5.2,0,0,0,3.23,1.48,5.86,5.86,0,0,0,2.21-.37c1.54-.46,1.91-1.39,2.93-.28s3,2.31,3.32,1.29.18-2,.74-2.4,1.94-1.2,2.67-.92,1.11.65,1.48.37,1.2-.55,1.39.83-.25,2.86,1,2.49.25-1.1,1.63-.73,1.48.27,2.13,1a3.83,3.83,0,0,0,1.38,1l.65-.47.09-8.73-1.66-16.78V244l-2.31-2.47s-1,.37-.74-1.93c0,.27.56-2.87.56-2.87a5,5,0,0,0,1.57-3.5c.46-.37.18-3,.18-3l-.92-3.75-1.48-3-.46-2.21s-1,1-3.66.46c-.47-.28-4.07-.09-5.91.92a9.49,9.49,0,0,1-3.51.1,7.58,7.58,0,0,0-3.29.27c-2,.65-2.22,2-3.6,1.57s-2.4-1.84-3.23-1.66a8.31,8.31,0,0,1-1.57.18Z"/><path class="cls-1" d="M191.93,218.39a36.44,36.44,0,0,1,2.78,5c.58,1.62,1.27,3.12,2.09,5.22s1.63,6.26,2.67,7.65a22.77,22.77,0,0,1,2.2,4.52,15.85,15.85,0,0,1,1.27,3.71c0,.7.35,1.05,1.63,1.86s2.55,1.16,2,2.08-1.39,1.16-1.39,2.55-.7,2-1.05,3.13.58,2.09-.11,3.25-1.05.7-.7,2.32.23,2.89,1,3.13a2.75,2.75,0,0,1,1.51,2.55c.12,1.27.12.92.81,2.08s1,1.4.93,2.67-.46,2.09.58,3.48.45,1.16,1.74,1.27,1.39.81,2.44,1.05,3-.81,4.63-2.09,5-3.71,6.14-4.64,3.25-2.32,4.3-2.43a41.27,41.27,0,0,0,4.63-1.39l.23-.58s-2.09-3.94,2.78-4.52c-.11.11.35-1.05.35-1.05l1.39-2s1-.22-.11-1.39c-.12-.12-1.05-1.39-1.05-1.39s.93-1.86-.35-3a2.78,2.78,0,0,1-.34.82s-1.05.92-2.67-1.74c.12-.12-.58-1-.58-1l-.81-.35a1.24,1.24,0,0,1-.58-2c0-.12.47-1.86.47-1.86a4.53,4.53,0,0,1,1.15-2c-.11.12,1.28-.12.12-3l-1.27-3s-.82-1,.58-2.43c-.12-.23.46-.23.34-2.09a2.37,2.37,0,0,1,.12-2.08c-.35.46,1.16-.93,1.16-.93l.58-.23,1.39-2.09.69-.58.93-1.86,2.09-1.73-.58-1.63-.82-1.39-1.62-.46s-.92.12-.81-1.39c.12.11,0-1.62,0-1.62s.12-1.74-.93-.93c0,.12-.92-2-2.66-1.51.12,0-1.85.81-1.85.81s-2.44.69-2.55-1.16c.23,0-.58-1.74-.58-1.74s-.11-1.16-1.74-1.27c-.12,0-1.86-.58-1.86-.58l-1-1.16s-1.86.58-3.48-1.62c-.23.11.12-1.86-5-2.32-.12,0-2.67-1.86-2.67-1.86l-1.74-.11-1.51-.7a3.26,3.26,0,0,1-2.9,1.63c-.34-.12-2-.7-2.66,1.85-.58,1.85-1.39,2.43-1.39,4.17a14.19,14.19,0,0,0,.23,2.78l.46,1.74a9,9,0,0,1-3.83,2.09c-2.31.58-3.82.81-3.82.81Z"/><path class="cls-1" d="M191.93,218.39a36.44,36.44,0,0,1,2.78,5c.58,1.62,1.27,3.12,2.09,5.22s1.63,6.26,2.67,7.65a22.77,22.77,0,0,1,2.2,4.52,15.85,15.85,0,0,1,1.27,3.71c0,.7.35,1.05,1.63,1.86s2.55,1.16,2,2.08-1.39,1.16-1.39,2.55-.7,2-1.05,3.13.58,2.09-.11,3.25-1.05.7-.7,2.32.23,2.89,1,3.13a2.75,2.75,0,0,1,1.51,2.55c.12,1.27.12.92.81,2.08s1,1.4.93,2.67-.46,2.09.58,3.48.45,1.16,1.74,1.27,1.39.81,2.44,1.05,3-.81,4.63-2.09,5-3.71,6.14-4.64,3.25-2.32,4.3-2.43a41.27,41.27,0,0,0,4.63-1.39l.23-.58s-2.09-3.94,2.78-4.52c-.11.11.35-1.05.35-1.05l1.39-2s1-.22-.11-1.39c-.12-.12-1.05-1.39-1.05-1.39s.93-1.86-.35-3a2.78,2.78,0,0,1-.34.82s-1.05.92-2.67-1.74c.12-.12-.58-1-.58-1l-.81-.35a1.24,1.24,0,0,1-.58-2c0-.12.47-1.86.47-1.86a4.53,4.53,0,0,1,1.15-2c-.11.12,1.28-.12.12-3l-1.27-3s-.82-1,.58-2.43c-.12-.23.46-.23.34-2.09a2.37,2.37,0,0,1,.12-2.08c-.35.46,1.16-.93,1.16-.93l.58-.23,1.39-2.09.69-.58.93-1.86,2.09-1.73-.58-1.63-.82-1.39-1.62-.46s-.92.12-.81-1.39c.12.11,0-1.62,0-1.62s.12-1.74-.93-.93c0,.12-.92-2-2.66-1.51.12,0-1.85.81-1.85.81s-2.44.69-2.55-1.16c.23,0-.58-1.74-.58-1.74s-.11-1.16-1.74-1.27c-.12,0-1.86-.58-1.86-.58l-1-1.16s-1.86.58-3.48-1.62c-.23.11.12-1.86-5-2.32-.12,0-2.67-1.86-2.67-1.86l-1.74-.11-1.51-.7a3.26,3.26,0,0,1-2.9,1.63c-.34-.12-2-.7-2.66,1.85-.58,1.85-1.39,2.43-1.39,4.17a14.19,14.19,0,0,0,.23,2.78l.46,1.74a9,9,0,0,1-3.83,2.09c-2.31.58-3.82.81-3.82.81Z"/><path class="cls-1" d="M192.05,218.27s1.73,3.25,2.31,4.17a71.29,71.29,0,0,1,3.37,9.16,15,15,0,0,0,1.74,4.52,43.68,43.68,0,0,1,2.78,5.8c.23.81.81,3.6.81,3.6l3.13,2s.93.46.11,1.27a12.89,12.89,0,0,0-1.15,1.51S205,251.54,205,252a10.35,10.35,0,0,1-.93,2.21,15,15,0,0,1,.12,1.5c0,.59.46.82-.35,1.75s-.58,1.27-.35,2.31a7.82,7.82,0,0,1,.12,2.21,1.43,1.43,0,0,0,.93,1.15,4.06,4.06,0,0,1,1.5,3.25c-.11.11,2.32,1.4,1.39,5.8a14.73,14.73,0,0,0,1.39,2.66,4.52,4.52,0,0,1,2.68.7c.23.11,1.27.81,1.73.35a11.24,11.24,0,0,1-3.13.81,28.37,28.37,0,0,0-4.64,1,39.28,39.28,0,0,1-4.17.7c-1.16.11-2.79-.24-4.06.11s-3.59.93-3.59.93l-2.78.11s-2.44,0-2.44.93-.92,2.21.12,2.56,1.85.46,1,1-2.43,0-3.13.81-2,2.67-2,2.67-.12,2.08-1.16,2.31a6.15,6.15,0,0,1-2.78-.46l-3.25-1.51-2.43-.92-2.55-1.51-3-.93a3.16,3.16,0,0,0-.35-2.78,8.68,8.68,0,0,1-1.73-2.44c-.35-.92-.47-1.27-.47-1.27s1-1.28,1.63-1.39a3.27,3.27,0,0,0,1.27-.93l.35-1.16L169,272.87s-1.16-1.15.24-.81c.23,0,.92-.57.92-2,0-.23,0-2.32.12-3.25a14.87,14.87,0,0,0-.12-3.36c-.11-.35-1.16-4.29-1.5-5.1a9.89,9.89,0,0,0-2.9-2.9,19.26,19.26,0,0,1-2.32-1.74l-1.27-1s3.36,0,3.71-1.85c.34-1.16.34-2,.69-2.32s1.51-1.16-.46-2.78v-3.49l-.35-2.89.58-1.74.69-1.51s2.91.93,4.65.12a15.43,15.43,0,0,0,5.56-2.09,12.53,12.53,0,0,0,2.08-.81s2.55.12,2-3.13c.23,0-.93-.81,1.16-2.9-.11.46.34-1.39,1.16-.23.23.11,1.63.93,1.63.93a1.74,1.74,0,0,0,2.09-.93c0,.11,2.43-5.33,2.43-5.33l1.16-2.78Z"/><path class="cls-1" d="M192.05,218.27s1.73,3.25,2.31,4.17a71.29,71.29,0,0,1,3.37,9.16,15,15,0,0,0,1.74,4.52,43.68,43.68,0,0,1,2.78,5.8c.23.81.81,3.6.81,3.6l3.13,2s.93.46.11,1.27a12.89,12.89,0,0,0-1.15,1.51S205,251.54,205,252a10.35,10.35,0,0,1-.93,2.21,15,15,0,0,1,.12,1.5c0,.59.46.82-.35,1.75s-.58,1.27-.35,2.31a7.82,7.82,0,0,1,.12,2.21,1.43,1.43,0,0,0,.93,1.15,4.06,4.06,0,0,1,1.5,3.25c-.11.11,2.32,1.4,1.39,5.8a14.73,14.73,0,0,0,1.39,2.66,4.52,4.52,0,0,1,2.68.7c.23.11,1.27.81,1.73.35a11.24,11.24,0,0,1-3.13.81,28.37,28.37,0,0,0-4.64,1,39.28,39.28,0,0,1-4.17.7c-1.16.11-2.79-.24-4.06.11s-3.59.93-3.59.93l-2.78.11s-2.44,0-2.44.93-.92,2.21.12,2.56,1.85.46,1,1-2.43,0-3.13.81-2,2.67-2,2.67-.12,2.08-1.16,2.31a6.15,6.15,0,0,1-2.78-.46l-3.25-1.51-2.43-.92-2.55-1.51-3-.93a3.16,3.16,0,0,0-.35-2.78,8.68,8.68,0,0,1-1.73-2.44c-.35-.92-.47-1.27-.47-1.27s1-1.28,1.63-1.39a3.27,3.27,0,0,0,1.27-.93l.35-1.16L169,272.87s-1.16-1.15.24-.81c.23,0,.92-.57.92-2,0-.23,0-2.32.12-3.25a14.87,14.87,0,0,0-.12-3.36c-.11-.35-1.16-4.29-1.5-5.1a9.89,9.89,0,0,0-2.9-2.9,19.26,19.26,0,0,1-2.32-1.74l-1.27-1s3.36,0,3.71-1.85c.34-1.16.34-2,.69-2.32s1.51-1.16-.46-2.78v-3.49l-.35-2.89.58-1.74.69-1.51s2.91.93,4.65.12a15.43,15.43,0,0,0,5.56-2.09,12.53,12.53,0,0,0,2.08-.81s2.55.12,2-3.13c.23,0-.93-.81,1.16-2.9-.11.46.34-1.39,1.16-.23.23.11,1.63.93,1.63.93a1.74,1.74,0,0,0,2.09-.93c0,.11,2.43-5.33,2.43-5.33l1.16-2.78Z"/><path class="cls-1" d="M182.88,289.75c-.1.32,1,1.37,0,1.79s-1.15.84-1.47,1.89-1.16.74-1,2.21-.42,2.31.42,2.83a3.51,3.51,0,0,1,1.47,2.53,2.28,2.28,0,0,0,1.68,2.1c1.26.52,2-.32,2.84.42a3.22,3.22,0,0,0,2.52.84c.73-.11,1.05.31.63,1.36s-.84.53-.84,1.47,0,2-.63,2.42a2.71,2.71,0,0,0-1.16,2.42c0,1.26.53,2-.1,2.94s-.53,2.41-.84,3.89-1.47,1.47-1.37,2.62a12.82,12.82,0,0,1-1,4.94,5.9,5.9,0,0,0-.73,2.73,18.51,18.51,0,0,1-1,3.36c-.32,1.05.52,2.63,0,3.79a25.55,25.55,0,0,0-1.06,2.62,28.89,28.89,0,0,0-1.15,5.15c0,1.16-1.37,3.26-1.37,3.78s-.73,3.36-.73,3.36a1.49,1.49,0,0,0-1.47.53,1.72,1.72,0,0,1-2.1.63c-.74-.32-1.58-.63-1.89-.21s.21,1.68-1.27,1.68-4.09-.21-4.09-.21l-.63-1.16a7.1,7.1,0,0,0,1.05-2.1,6.25,6.25,0,0,1,1.78-2.73c.63-.52,2-1.68,1.47-2.63a3.13,3.13,0,0,0-1.78-1.26l-12.19-4.2-3.78-17.86,2.1-6.41-1.16-13.55,11.35-14s3.57-2.31,4-3.26c.11.11,2.94.84,2.94.84l2.53,1.68s4.2,1.37,5.35,2.31C180.15,289.33,181.73,290.38,182.88,289.75Z"/><path class="cls-1" d="M182.88,289.75c-.1.32,1,1.37,0,1.79s-1.15.84-1.47,1.89-1.16.74-1,2.21-.42,2.31.42,2.83a3.51,3.51,0,0,1,1.47,2.53,2.28,2.28,0,0,0,1.68,2.1c1.26.52,2-.32,2.84.42a3.22,3.22,0,0,0,2.52.84c.73-.11,1.05.31.63,1.36s-.84.53-.84,1.47,0,2-.63,2.42a2.71,2.71,0,0,0-1.16,2.42c0,1.26.53,2-.1,2.94s-.53,2.41-.84,3.89-1.47,1.47-1.37,2.62a12.82,12.82,0,0,1-1,4.94,5.9,5.9,0,0,0-.73,2.73,18.51,18.51,0,0,1-1,3.36c-.32,1.05.52,2.63,0,3.79a25.55,25.55,0,0,0-1.06,2.62,28.89,28.89,0,0,0-1.15,5.15c0,1.16-1.37,3.26-1.37,3.78s-.73,3.36-.73,3.36a1.49,1.49,0,0,0-1.47.53,1.72,1.72,0,0,1-2.1.63c-.74-.32-1.58-.63-1.89-.21s.21,1.68-1.27,1.68-4.09-.21-4.09-.21l-.63-1.16a7.1,7.1,0,0,0,1.05-2.1,6.25,6.25,0,0,1,1.78-2.73c.63-.52,2-1.68,1.47-2.63a3.13,3.13,0,0,0-1.78-1.26l-12.19-4.2-3.78-17.86,2.1-6.41-1.16-13.55,11.35-14s3.57-2.31,4-3.26c.11.11,2.94.84,2.94.84l2.53,1.68s4.2,1.37,5.35,2.31C180.15,289.33,181.73,290.38,182.88,289.75Z"/><path class="cls-1" d="M344.75,198.16a4.09,4.09,0,0,1,.37,2.59c-.37,1.11-1.36,1.61-1.11,2.84s-.5,1.11.37,2.59,1.85.87,2,2.35-.12,2.71-1.48,3-2.1-.37-3.21.37-1.73,1.23-2.59,1.72a6.6,6.6,0,0,0-2.1,2.6,31.53,31.53,0,0,0-.37,3.82c0,.86.74,2.47-.74,3s-2.59.74-2.34,1.85,1.6,2.47,1.11,3.82.13,2.47-2.1,2.23-2.34-1.11-3.08-.87-2.22.74-2.35,1.61.25,2.09,1.24,2.22,1.35-.13,1.11,1.48a8.54,8.54,0,0,1-1.61,4.19,18.88,18.88,0,0,0-2.34,3.83c-.37.86.49,2,.49,3.08a4.48,4.48,0,0,1-.49,2.71c-.49.62-1.11,2.35-.62,2.84l1.73,1.73c.62.62,2.34,1.11,2.47,2.34a4,4,0,0,1-1,3c-.62.74-3,1.48-4.56,2.22s-2.72,1.48-2.72,2.46,2,2.22,3.09,2a9.4,9.4,0,0,1,3.82-.25c1.48.25,3.21,0,2.84,1.23s-2.72,1.48-2.84,2.35a1.9,1.9,0,0,0,2.1,2,6.53,6.53,0,0,1,3,.74c1,.37,1.36,0,2.59,0s.62.62,1.48,1.24a3.62,3.62,0,0,0,4.32-.87c1.35-1.48,1.72-3,2.71-3.95s2.1-1.6,3.33-1.23a2.9,2.9,0,0,1,2.35,2.72,5.4,5.4,0,0,0,.74,3c.37.61,1.72,1.6,2.59,1.35a12.72,12.72,0,0,1,4.93-.24c1.48.37,3.95,1.11,4.57,1.72a5.29,5.29,0,0,0,2.47,1.73c1.11.25,2.59,1,2.59,1.85a5.75,5.75,0,0,1-.87,2.71,5.38,5.38,0,0,0-.86,3.09c.12,1.11,1.36,2.22,1.6,3.58s.74,2.22.25,3.7-.49,1.35.25,2.83.86,1.12,1.35,2.84,1,3.09.5,4.44-1.85,2-1.85,3.83a24.62,24.62,0,0,0,.12,4.32,6.48,6.48,0,0,1-.37,3.82c-.49,1.36-.25,4.2-.74,4.44a1.65,1.65,0,0,1-2.22-.86c-.74-1.23-.25-1.6-2.22-1.6s-2.35-1.24-4.07-.25-1.85.37-2.84,1.48-.62,1.23-1.6,2.71-2.72,3.09-4.08,2.22-.36-1.23-3.2-1.85-3.09-.49-4.57.37-2.84.86-3.7,2.1-1.48,1.11-2.59,1.73a6.22,6.22,0,0,0-2.47,3.08c-.49,1.24-1.73,2.59-2.47,2.47s-2-.37-2.22-1.6-1.11-2.72-2-1.36-2.34,2.34-2.34,3.58-.62,2.09-.74,3.08-1,3.21-2.1,3.95-3.58,1.48-3.83,1a7,7,0,0,1-.37-1.61s.5.25.5-.86a3.85,3.85,0,0,0-1.11-2.35c-.37-.49-.62-.49-.5-1.85s-.37-2.83-.74-2.59-.49,1.11-.49,1.85a4.16,4.16,0,0,0,.62,2.35c.49.74.86.86,1,1.85a2,2,0,0,1-.49,1.6,23.1,23.1,0,0,0-2.34-.24c-.74,0-2.84-.38-3.21-1a12.48,12.48,0,0,1-.86-3.7c0-.74.24-.87.86-1.11s.86-.37,1.48-1.85,1.23-2.35,1.85-2.59a13.38,13.38,0,0,0,3.21-2.35c.61-.74,2.34-3,3-3.08a10.15,10.15,0,0,1,3.82.24,23.54,23.54,0,0,1,2.59,1.36c.62.37,1.85.74,1.61-.25s-.37-2.59-.87-1.85-1,1-1.35.37a2.09,2.09,0,0,0-1.61-1.11c-.61,0-2.34-.37-2.46-.86s-.25-1.36-.25-1.36l1.73.13s1.11.61,1.72.12,1.36-1.73,2.1-1.85,1.48-1.11,1.73-2.22-.37-1.85-.74-1.23-.87,1.23-1.11,1.72-.87.74-1.11,1.36-.37,1.36-1.24,1.36-1.23.37-1.85,0-.37-2,.13-2.47a9.75,9.75,0,0,0,1.72-2.22c.25-.62,0-2.22,1.48-2.22h3.33c.74,0,.87-.62,1.85-.13a6.9,6.9,0,0,0,2.6.5c.86.12,1.6.86,1.6.24s-.74-1-.74-1-1.73-1.11-2.1-1.36-1.11-1.11-1.6-.49-3.21.86-3.95.86a3.15,3.15,0,0,0-2.1.74c-.49.49-1.11,1.6-1.48,1.11a3.28,3.28,0,0,1,0-3.21,6.23,6.23,0,0,0,1.24-2.09c.37-.87,1.72-1.86,2-2.47s0-1.48-.37-1.24a19.59,19.59,0,0,0-1.73,1.61c-.49.49-1,.61-1.23,1.48s-.25,2.34-.49,2.84-.87,1.11-1.24.86a5.14,5.14,0,0,1-1.72-1.6c-.37-.74-1.12-1.36-1.61-1.24s-1-.24-1.48-.49-1.36-.12-1.36-1,.37-2.47,0-3.08a8.23,8.23,0,0,1-1.11-2c-.12-.61-2-1.85-2.46-1.6s-1.61.5-1.61-.62-.12-2.71-.12-2.71a20.43,20.43,0,0,0-2.22-.37c-.49,0-.62,1-1.48,1s-1.85-.24-1.85.87a9.12,9.12,0,0,0,.24,2.1c.13.74-.74,1.23-1.72.86s-2.59-2.46-3.33-2.59-2.72-1.61-3.71-1.36-2.59.62-3.2,0-.62-2.1.12-2.1a1,1,0,0,0,.74-1.72c-.74-.87-2.59,0-2.59,0s-2.72.37-3.95.37-2.84-1.11-3.45.24a23.24,23.24,0,0,1-1.73,3l-4.81-.24-2-2.59s-.37-2-.61-3.21a23.22,23.22,0,0,0-1.24-3.45s-1.72.37-2,0a10.44,10.44,0,0,0-1.36-1.24l-1.72-.49-.5-1.73s.87.25,1.61-1,1.23-1.72.74-3.08a6.29,6.29,0,0,1,0-3.21L270,266l-.86-9.75s-.74-6.79-.74-8.14v-4.2s-1.48-1.6-2-2.09-1.11-.37-1-1.86a24.86,24.86,0,0,1,.49-3.08,8.41,8.41,0,0,0,1.61-2.84,22.72,22.72,0,0,0,.24-3.33l-1-3.95-1.48-3.2-.37-2.22,2.09-3.21a7.84,7.84,0,0,1,1.48-1.6c.13.12,1.11-1,1.11-2.1a3.79,3.79,0,0,1,1.61-2.72c.12.13,1.35,0,1.35-2,0-.49.62-3.95,3.46-4.56,2.59,0,8.76-3,12.83-6.67a10.6,10.6,0,0,0,1.6-1s6.17-.5,21.72.61c0-.12,8.51,1,12.46-.49a3.3,3.3,0,0,1,3.2.74c.13.25,3.46,2.22,5.56,0,.86,0,2-1.48,3.33-.25-.13.25.74.62.74.62l1.23-.62,1.6-1.85,1.24-.74.74.37,1.11,1.61Z"/><path class="cls-1" d="M344.75,198.16a4.09,4.09,0,0,1,.37,2.59c-.37,1.11-1.36,1.61-1.11,2.84s-.5,1.11.37,2.59,1.85.87,2,2.35-.12,2.71-1.48,3-2.1-.37-3.21.37-1.73,1.23-2.59,1.72a6.6,6.6,0,0,0-2.1,2.6,31.53,31.53,0,0,0-.37,3.82c0,.86.74,2.47-.74,3s-2.59.74-2.34,1.85,1.6,2.47,1.11,3.82.13,2.47-2.1,2.23-2.34-1.11-3.08-.87-2.22.74-2.35,1.61.25,2.09,1.24,2.22,1.35-.13,1.11,1.48a8.54,8.54,0,0,1-1.61,4.19,18.88,18.88,0,0,0-2.34,3.83c-.37.86.49,2,.49,3.08a4.48,4.48,0,0,1-.49,2.71c-.49.62-1.11,2.35-.62,2.84l1.73,1.73c.62.62,2.34,1.11,2.47,2.34a4,4,0,0,1-1,3c-.62.74-3,1.48-4.56,2.22s-2.72,1.48-2.72,2.46,2,2.22,3.09,2a9.4,9.4,0,0,1,3.82-.25c1.48.25,3.21,0,2.84,1.23s-2.72,1.48-2.84,2.35a1.9,1.9,0,0,0,2.1,2,6.53,6.53,0,0,1,3,.74c1,.37,1.36,0,2.59,0s.62.62,1.48,1.24a3.62,3.62,0,0,0,4.32-.87c1.35-1.48,1.72-3,2.71-3.95s2.1-1.6,3.33-1.23a2.9,2.9,0,0,1,2.35,2.72,5.4,5.4,0,0,0,.74,3c.37.61,1.72,1.6,2.59,1.35a12.72,12.72,0,0,1,4.93-.24c1.48.37,3.95,1.11,4.57,1.72a5.29,5.29,0,0,0,2.47,1.73c1.11.25,2.59,1,2.59,1.85a5.75,5.75,0,0,1-.87,2.71,5.38,5.38,0,0,0-.86,3.09c.12,1.11,1.36,2.22,1.6,3.58s.74,2.22.25,3.7-.49,1.35.25,2.83.86,1.12,1.35,2.84,1,3.09.5,4.44-1.85,2-1.85,3.83a24.62,24.62,0,0,0,.12,4.32,6.48,6.48,0,0,1-.37,3.82c-.49,1.36-.25,4.2-.74,4.44a1.65,1.65,0,0,1-2.22-.86c-.74-1.23-.25-1.6-2.22-1.6s-2.35-1.24-4.07-.25-1.85.37-2.84,1.48-.62,1.23-1.6,2.71-2.72,3.09-4.08,2.22-.36-1.23-3.2-1.85-3.09-.49-4.57.37-2.84.86-3.7,2.1-1.48,1.11-2.59,1.73a6.22,6.22,0,0,0-2.47,3.08c-.49,1.24-1.73,2.59-2.47,2.47s-2-.37-2.22-1.6-1.11-2.72-2-1.36-2.34,2.34-2.34,3.58-.62,2.09-.74,3.08-1,3.21-2.1,3.95-3.58,1.48-3.83,1a7,7,0,0,1-.37-1.61s.5.25.5-.86a3.85,3.85,0,0,0-1.11-2.35c-.37-.49-.62-.49-.5-1.85s-.37-2.83-.74-2.59-.49,1.11-.49,1.85a4.16,4.16,0,0,0,.62,2.35c.49.74.86.86,1,1.85a2,2,0,0,1-.49,1.6,23.1,23.1,0,0,0-2.34-.24c-.74,0-2.84-.38-3.21-1a12.48,12.48,0,0,1-.86-3.7c0-.74.24-.87.86-1.11s.86-.37,1.48-1.85,1.23-2.35,1.85-2.59a13.38,13.38,0,0,0,3.21-2.35c.61-.74,2.34-3,3-3.08a10.15,10.15,0,0,1,3.82.24,23.54,23.54,0,0,1,2.59,1.36c.62.37,1.85.74,1.61-.25s-.37-2.59-.87-1.85-1,1-1.35.37a2.09,2.09,0,0,0-1.61-1.11c-.61,0-2.34-.37-2.46-.86s-.25-1.36-.25-1.36l1.73.13s1.11.61,1.72.12,1.36-1.73,2.1-1.85,1.48-1.11,1.73-2.22-.37-1.85-.74-1.23-.87,1.23-1.11,1.72-.87.74-1.11,1.36-.37,1.36-1.24,1.36-1.23.37-1.85,0-.37-2,.13-2.47a9.75,9.75,0,0,0,1.72-2.22c.25-.62,0-2.22,1.48-2.22h3.33c.74,0,.87-.62,1.85-.13a6.9,6.9,0,0,0,2.6.5c.86.12,1.6.86,1.6.24s-.74-1-.74-1-1.73-1.11-2.1-1.36-1.11-1.11-1.6-.49-3.21.86-3.95.86a3.15,3.15,0,0,0-2.1.74c-.49.49-1.11,1.6-1.48,1.11a3.28,3.28,0,0,1,0-3.21,6.23,6.23,0,0,0,1.24-2.09c.37-.87,1.72-1.86,2-2.47s0-1.48-.37-1.24a19.59,19.59,0,0,0-1.73,1.61c-.49.49-1,.61-1.23,1.48s-.25,2.34-.49,2.84-.87,1.11-1.24.86a5.14,5.14,0,0,1-1.72-1.6c-.37-.74-1.12-1.36-1.61-1.24s-1-.24-1.48-.49-1.36-.12-1.36-1,.37-2.47,0-3.08a8.23,8.23,0,0,1-1.11-2c-.12-.61-2-1.85-2.46-1.6s-1.61.5-1.61-.62-.12-2.71-.12-2.71a20.43,20.43,0,0,0-2.22-.37c-.49,0-.62,1-1.48,1s-1.85-.24-1.85.87a9.12,9.12,0,0,0,.24,2.1c.13.74-.74,1.23-1.72.86s-2.59-2.46-3.33-2.59-2.72-1.61-3.71-1.36-2.59.62-3.2,0-.62-2.1.12-2.1a1,1,0,0,0,.74-1.72c-.74-.87-2.59,0-2.59,0s-2.72.37-3.95.37-2.84-1.11-3.45.24a23.24,23.24,0,0,1-1.73,3l-4.81-.24-2-2.59s-.37-2-.61-3.21a23.22,23.22,0,0,0-1.24-3.45s-1.72.37-2,0a10.44,10.44,0,0,0-1.36-1.24l-1.72-.49-.5-1.73s.87.25,1.61-1,1.23-1.72.74-3.08a6.29,6.29,0,0,1,0-3.21L270,266l-.86-9.75s-.74-6.79-.74-8.14v-4.2s-1.48-1.6-2-2.09-1.11-.37-1-1.86a24.86,24.86,0,0,1,.49-3.08,8.41,8.41,0,0,0,1.61-2.84,22.72,22.72,0,0,0,.24-3.33l-1-3.95-1.48-3.2-.37-2.22,2.09-3.21a7.84,7.84,0,0,1,1.48-1.6c.13.12,1.11-1,1.11-2.1a3.79,3.79,0,0,1,1.61-2.72c.12.13,1.35,0,1.35-2,0-.49.62-3.95,3.46-4.56,2.59,0,8.76-3,12.83-6.67a10.6,10.6,0,0,0,1.6-1s6.17-.5,21.72.61c0-.12,8.51,1,12.46-.49a3.3,3.3,0,0,1,3.2.74c.13.25,3.46,2.22,5.56,0,.86,0,2-1.48,3.33-.25-.13.25.74.62.74.62l1.23-.62,1.6-1.85,1.24-.74.74.37,1.11,1.61Z"/><path class="cls-1" d="M309.91,329.58s1-.3,1.18-1a9.1,9.1,0,0,1,.79-2,3.47,3.47,0,0,1,1.48-1.78,14.34,14.34,0,0,0,2.95-1.77,6.14,6.14,0,0,0,1-1.54,4.65,4.65,0,0,0-.1-1.57,2,2,0,0,1,.89-2.07c.75-.49.26-1.28,1.05-1.77a22.17,22.17,0,0,0,2.06-1.48c.5-.39.2-.78.89-1.67s.89-1.87.1-2.06-.59-.53-1.28-1.09-.79-1.05-1.18-.75a7.1,7.1,0,0,0-1.08,1.54s-1.15-.1-1.45.39-.78,1.68-1.67,1a7.7,7.7,0,0,1-1.57-1.87c-.4-.49-1-1.8-1.18-.95s.49,2.13-.3,2-1.57.16-1.67-1-.3-1.84-1-1.74-2.06.49-2.06.49-.4,1.64-.79,1.84a1.69,1.69,0,0,0-.89,1.67c.1.89-.59,1.48.4,2s2.06.39,2.56,1.18.59,1.57,1.67,1.47,1.67-.19,1.67.69.1,1.48-.79,1.68-1.28.49-1.08,1.37,1,1.64.59,2.53a6,6,0,0,0-.49,1.57,23.77,23.77,0,0,1-.69,2.36,6.59,6.59,0,0,0-.29,1.38Z"/><path class="cls-1" d="M309.91,329.58s1-.3,1.18-1a9.1,9.1,0,0,1,.79-2,3.47,3.47,0,0,1,1.48-1.78,14.34,14.34,0,0,0,2.95-1.77,6.14,6.14,0,0,0,1-1.54,4.65,4.65,0,0,0-.1-1.57,2,2,0,0,1,.89-2.07c.75-.49.26-1.28,1.05-1.77a22.17,22.17,0,0,0,2.06-1.48c.5-.39.2-.78.89-1.67s.89-1.87.1-2.06-.59-.53-1.28-1.09-.79-1.05-1.18-.75a7.1,7.1,0,0,0-1.08,1.54s-1.15-.1-1.45.39-.78,1.68-1.67,1a7.7,7.7,0,0,1-1.57-1.87c-.4-.49-1-1.8-1.18-.95s.49,2.13-.3,2-1.57.16-1.67-1-.3-1.84-1-1.74-2.06.49-2.06.49-.4,1.64-.79,1.84a1.69,1.69,0,0,0-.89,1.67c.1.89-.59,1.48.4,2s2.06.39,2.56,1.18.59,1.57,1.67,1.47,1.67-.19,1.67.69.1,1.48-.79,1.68-1.28.49-1.08,1.37,1,1.64.59,2.53a6,6,0,0,0-.49,1.57,23.77,23.77,0,0,1-.69,2.36,6.59,6.59,0,0,0-.29,1.38Z"/><path class="cls-1" d="M289,322.92s1.38-1,.69-2-1.28-.19-1.58-1.08.3-1.48-.1-1.87a.83.83,0,0,0-1.37.1,2.1,2.1,0,0,1-1.48.88c-.69.2-2.56,1.09-2.26,1.68a1.6,1.6,0,0,0,1.67,1c1,0,1.58-.69,1.87.1s.59,1.18,1,1.18Z"/><path class="cls-1" d="M289,322.92s1.38-1,.69-2-1.28-.19-1.58-1.08.3-1.48-.1-1.87a.83.83,0,0,0-1.37.1,2.1,2.1,0,0,1-1.48.88c-.69.2-2.56,1.09-2.26,1.68a1.6,1.6,0,0,0,1.67,1c1,0,1.58-.69,1.87.1s.59,1.18,1,1.18Z"/><path class="cls-1" d="M178,351.33l.52-3.61a8.1,8.1,0,0,0,1.53-4.6c.13-.38.77-3.19.77-3.19l1.66-4.5a4.86,4.86,0,0,1-.13-3.58,19.9,19.9,0,0,0,.77-1.92l.12-2.43,1.69-3.45v-3.22s1.67-.38,1.67-3.45c0,.13.89-3.07.89-3.07l-.38-2.43s.25-1.88,1.28-2.17a1.18,1.18,0,0,0,.76-1.56c-.25-.9.39-1.66.64-2.17s.77-1.92-.77-1.67c-.12,0-2.3.13-2.55-.76.13,0-.39-.64-1.28-.26-.51.13-2.71-.25-2.84-1.79,0-.64-.64-2.81-2-3.32a22.56,22.56,0,0,0-.12-2.84,6.9,6.9,0,0,1,1-1.79c-.26.13,0-.89.64-1.4s1.4-1,1.4-1l-.12-1.27s1.18,0,1.18-.9c0,.13.12-1.28.12-1.28l1.79-2.81a3.39,3.39,0,0,1,1.66-.51c-.12.13,1.28-.13,1.28-.13l.64-.64-1.15-.38s-1-.29-.51-1.69c.26.38.26-1.28.26-1.28a8.59,8.59,0,0,1,2.55-.64,20.25,20.25,0,0,0,2.81,0l3.45-1,4.63-.13,6.14-1.28,4.75-1.15a15,15,0,0,0,4.46-2.37c1.79-1.19,9.09-6.71,9.09-6.71l5.68-1.52.27-.53s.59,2.52,2.51,1.92c-.33.13,1.78-.89,1.92,1.19.13.86.13,1.42.46,1.48s2.21.86,2.21.86l1.45-.66s2.32.4,3,.4a1.32,1.32,0,0,1,1.32.66,4.82,4.82,0,0,0,3,1.59,7.27,7.27,0,0,0,2.84-.4c.83-.33,1-.79,1.62-.66s.33-.2,1.12.59a5.44,5.44,0,0,0,2.38,1.52c.66.14.8-.06,1.06-.72s0-1.13.26-1.52.47-.8,1.06-.86.53-.53,1.52-.46,1.13.52,1.52.33a5.17,5.17,0,0,1,1-.33,1.65,1.65,0,0,1,.8,1.25l.13,1.85a.72.72,0,0,0,1,.4c0-.13.89-.79.89-.79l2.11.46s1.19,1.72,2,1.72l.66-.47a2,2,0,0,1-.07.8,7.88,7.88,0,0,0,.2,2.51,2.19,2.19,0,0,1-.4,2.25c-.33.86-1.05,1.78-2,1.78.27.93.6,1.75.6,1.75l1.58.4,1.52,1.45,1.79-.07,1.19,3.18.72,3.24,1.92,2.84,4.92.2,1.65-3.24s.53-.73,2-.33a4.89,4.89,0,0,0,3,.19,5.85,5.85,0,0,1,2.18-.19s1.48-.66,2.08-.4.86.2,1,.86-.46,1.12-1.13,1.19c-.66.33-.72,1.39.07,2.11s2,.27,2.71,0c.27,0,1.12-.06,1.12-.06l3.71,1.81s2.48,2.91,3.76,2.25a1.19,1.19,0,0,0,.53-1.39,6,6,0,0,1-.13-2,1,1,0,0,1,1-.53c.73.07,1.32.13,1.65-.66a1.26,1.26,0,0,1,1.13-.2c.13,0,1.58.27,1.58.27l.2,2.73s.2,1,1.13.8c.19-.07.39-.2,1.19.06a3.35,3.35,0,0,1,1.52.93c.19.26.19.53.46,1a4.28,4.28,0,0,1,.53,1.85.89.89,0,0,1-.53.79c-.33.14-1.19-.92-1.65-.39a4.94,4.94,0,0,0-1.06,1.58,1,1,0,0,0,.88,1.31,4.16,4.16,0,0,1,1.89.32,9.11,9.11,0,0,1,1.89.84c.84.52,2,.84,1.79,1.68a7.55,7.55,0,0,1-1.05,1.89c-.21.42-1.37,1.79-2.11,1.05a6.91,6.91,0,0,1-1.26-1.79c-.52-.84.21-1.47-.73-1.78s-1.16-.11-1.37-.84-.73-1.16-1.26-.84l-1.57.94s-.32.84-.84.95a1.94,1.94,0,0,0-1.27.73c-.31.42-.63,1.05-1.47,1s-1.26-.32-2,.1-.84,2.53-1.47,1.27-.63-2.63.31-3.05,1.58-.21,1.05-1.37-.42-2.1-1.36-.84-1.79,2.42-2.52,2.73-2.11,1.79-2,2.32.31,1.57,1.16.63,1.78-2.32,2-1.37-.1,2,.32,2.21,1.68,0,1.26.52-1,.11-1.79.21-1.78-.21-2.31,0-1.58,1.05-.32,1.16,1.37-.21,2.32-.11,1.57-.1,2,.42a1.87,1.87,0,0,1,.53,1.79,11.27,11.27,0,0,1-1.16,2c-.21.42-1.78,1.48-2.62.74s-.64-1.16-.64-2-.31-2.2-.63-1.68a6.94,6.94,0,0,0-.52,1.68s-.95,0-.95-.84.53-1.57-.21-1.57h-.94s-.74-1.68-1-1.05,0,1.15-.53,1.47a2.05,2.05,0,0,1-1.57.31c-.63-.1,0-1.26-.74-1.36s-1.36,0-1.36.63.42.84.42,1.57,0,1.05-.53,1.16-1,.52-1.05,0,0-1-.42-.95-.74.11-1.05.53-.74,1.15-1.37.84-.21-.63-.73-.95-1.16-.21-1.26.32.52.94.1,1.36-.21.64-.31,1.27-.42.63-1.16.73-1.47.21-1.68.63-.31.84.32.84a2.66,2.66,0,0,1,1.36.21c.42.21,1.37.11,1.58.53s1.26.73,1.26.73,2.2-.1,2.31.42.42,1.58-.21,1.79-1.26-.21-1.89-.11a3.35,3.35,0,0,1-1.79-.21c-.52-.21-1.26-.52-1.57,0s-1.26,1.16-1.47.74-.21-1.26-.74-1.26-.74-.63-.63-1.26.63-1.26.21-1.37-1.26-.73-1.47-.1-.74,1.36-1.26,1.47a6.89,6.89,0,0,1-2.21.52c-1.15,0-2.1-.21-2.73.32s-1.37.1-1.05,1.15.52.74,1.26,1.16.63.73.84,1.37,2,.84,2.31.1.63-1.58,1.16-1.68a4.14,4.14,0,0,0,1.15-.53s.32-.84,1-.1.84,1,1.37,1,.31.31.95.63a1.21,1.21,0,0,0,1.57-.21c.32-.42,1.37-1.05,1.68-.63a1.67,1.67,0,0,1,.42,1.58,5.41,5.41,0,0,1-.84,1.57c-.31.42-1.57,2-1.57,2l-1.47,1.68s-.95,1.26-1.58,1.36-1.26,1.26-1.68.53.63-1,0-1.58-1.68-1.15-1.68-.73-.11,1.57-.84,1.26-1.37-.95-2.31-.95-1.69,1.16-.53,1.47a5.15,5.15,0,0,1,2.73,1.26,7.07,7.07,0,0,0,2.1,1.37,5.78,5.78,0,0,0-.21,1.16,4.7,4.7,0,0,1-.84,2.41c-.52.53-.52,1.68-1.05,2s-.84,1.36-1.05,1.89.32,1.89-.1,2.42a2.65,2.65,0,0,1-1.58.84c-.52.1-.74,1.57-.74,1.57a7.71,7.71,0,0,0-.73,1.79c0,.42-.53,1.89-.21,2.94a6.56,6.56,0,0,1,.1,3.47c-.31.52-.52,2.62-1.26,2.62s-1.68-.84-1.68-1.26a3,3,0,0,0-.63-1.36,8.71,8.71,0,0,1-1.15-2.63c-.11-.84-.11-2.42-.53-2.84a7.15,7.15,0,0,1-1.15-1.36,2.38,2.38,0,0,0-2-.84c-.84,0-2.31.21-2-.42s1.58-1.16,1.58-1.16a7.35,7.35,0,0,0,.95-1.36,19.53,19.53,0,0,0,.52-2s.63-.84.95-.42a26.37,26.37,0,0,0,1.78,2.1c.53.53,1.05.53,1.26-.1a12.13,12.13,0,0,1,.74-1.58,5.93,5.93,0,0,0,1.05-2.31c0-.84.73-1.68.1-2.21s-1.26-.84-.84-1.89,1.37-1.57.42-2-2-.22-2,.42-.74,2,0,2.73,1.78.94,1.57,1.89a9.16,9.16,0,0,1-1.26,2.31c-.21.42-.52,1.47-.84.31s-.63-1.57-1.26-1.68-.94-.21-1.05-1.36-.73-1.68-1.26-1.37-1.26.42-1.05,1.16,1.16.21,1.05,1.05.32,1.15-.42,1.15h-2.21l-.42,1.26s.84.95,1.26.42.63-.52.84-.1.95,1.89.11,2-1.47.21-1.68.73-1.37,1.37-1.37,1.37a4.86,4.86,0,0,0-2.52.31c-.73.53-1.68.42-1.26,1s1.26-.32,1.16.52.1,1.37-.42,1.79-.53,1.36-1,1.47-.52.63.11.63,1.57-.11,1.78-.84,0-.95.74-1.37.63-.21.94-.94.63-1.16,1.26-.84.32.94,1.47.94,2.11-.42,2.32.21.84,1.47.63,1.89a2,2,0,0,0,0,1.37,4.93,4.93,0,0,0,.84,1.26s-.11,1.37-.11,1.89-.52.74-.73,1.16-1.48,1.26-1.48.63.85-1.26.11-1.47-1.05-1.37-1.05-1.79a.82.82,0,0,0-1.16-.63,7,7,0,0,0-1.26,1.26s-.84.21-.84.63-.1,1.47-.52,1.26-.95-.94-1.37-.73a4.38,4.38,0,0,1-1.05.31l-1.26-.84s-1.05-.1-1.05.53a5.83,5.83,0,0,1-.21,1.36l-1.16.63s-1.15.74-1.78,1.05a37.44,37.44,0,0,1-4,1.47c-1.37.42-3.47,1.37-5.05,1.69s-6,1.36-6.83,1.68-3.36.84-4.3,1.15-2,.11-3,.63a6.86,6.86,0,0,1-2.21.63,12,12,0,0,1-2.62.53,31,31,0,0,0-3.36.42s-6.83-3.15-9.14-3.78a49,49,0,0,1-9.25-4c-2.52-1.47-8.19-2.94-9.88-3.36s-5.25-3.36-6.09-3.78a27.67,27.67,0,0,0-3.78-1.05Z"/><path class="cls-1" d="M178,351.33l.52-3.61a8.1,8.1,0,0,0,1.53-4.6c.13-.38.77-3.19.77-3.19l1.66-4.5a4.86,4.86,0,0,1-.13-3.58,19.9,19.9,0,0,0,.77-1.92l.12-2.43,1.69-3.45v-3.22s1.67-.38,1.67-3.45c0,.13.89-3.07.89-3.07l-.38-2.43s.25-1.88,1.28-2.17a1.18,1.18,0,0,0,.76-1.56c-.25-.9.39-1.66.64-2.17s.77-1.92-.77-1.67c-.12,0-2.3.13-2.55-.76.13,0-.39-.64-1.28-.26-.51.13-2.71-.25-2.84-1.79,0-.64-.64-2.81-2-3.32a22.56,22.56,0,0,0-.12-2.84,6.9,6.9,0,0,1,1-1.79c-.26.13,0-.89.64-1.4s1.4-1,1.4-1l-.12-1.27s1.18,0,1.18-.9c0,.13.12-1.28.12-1.28l1.79-2.81a3.39,3.39,0,0,1,1.66-.51c-.12.13,1.28-.13,1.28-.13l.64-.64-1.15-.38s-1-.29-.51-1.69c.26.38.26-1.28.26-1.28a8.59,8.59,0,0,1,2.55-.64,20.25,20.25,0,0,0,2.81,0l3.45-1,4.63-.13,6.14-1.28,4.75-1.15a15,15,0,0,0,4.46-2.37c1.79-1.19,9.09-6.71,9.09-6.71l5.68-1.52.27-.53s.59,2.52,2.51,1.92c-.33.13,1.78-.89,1.92,1.19.13.86.13,1.42.46,1.48s2.21.86,2.21.86l1.45-.66s2.32.4,3,.4a1.32,1.32,0,0,1,1.32.66,4.82,4.82,0,0,0,3,1.59,7.27,7.27,0,0,0,2.84-.4c.83-.33,1-.79,1.62-.66s.33-.2,1.12.59a5.44,5.44,0,0,0,2.38,1.52c.66.14.8-.06,1.06-.72s0-1.13.26-1.52.47-.8,1.06-.86.53-.53,1.52-.46,1.13.52,1.52.33a5.17,5.17,0,0,1,1-.33,1.65,1.65,0,0,1,.8,1.25l.13,1.85a.72.72,0,0,0,1,.4c0-.13.89-.79.89-.79l2.11.46s1.19,1.72,2,1.72l.66-.47a2,2,0,0,1-.07.8,7.88,7.88,0,0,0,.2,2.51,2.19,2.19,0,0,1-.4,2.25c-.33.86-1.05,1.78-2,1.78.27.93.6,1.75.6,1.75l1.58.4,1.52,1.45,1.79-.07,1.19,3.18.72,3.24,1.92,2.84,4.92.2,1.65-3.24s.53-.73,2-.33a4.89,4.89,0,0,0,3,.19,5.85,5.85,0,0,1,2.18-.19s1.48-.66,2.08-.4.86.2,1,.86-.46,1.12-1.13,1.19c-.66.33-.72,1.39.07,2.11s2,.27,2.71,0c.27,0,1.12-.06,1.12-.06l3.71,1.81s2.48,2.91,3.76,2.25a1.19,1.19,0,0,0,.53-1.39,6,6,0,0,1-.13-2,1,1,0,0,1,1-.53c.73.07,1.32.13,1.65-.66a1.26,1.26,0,0,1,1.13-.2c.13,0,1.58.27,1.58.27l.2,2.73s.2,1,1.13.8c.19-.07.39-.2,1.19.06a3.35,3.35,0,0,1,1.52.93c.19.26.19.53.46,1a4.28,4.28,0,0,1,.53,1.85.89.89,0,0,1-.53.79c-.33.14-1.19-.92-1.65-.39a4.94,4.94,0,0,0-1.06,1.58,1,1,0,0,0,.88,1.31,4.16,4.16,0,0,1,1.89.32,9.11,9.11,0,0,1,1.89.84c.84.52,2,.84,1.79,1.68a7.55,7.55,0,0,1-1.05,1.89c-.21.42-1.37,1.79-2.11,1.05a6.91,6.91,0,0,1-1.26-1.79c-.52-.84.21-1.47-.73-1.78s-1.16-.11-1.37-.84-.73-1.16-1.26-.84l-1.57.94s-.32.84-.84.95a1.94,1.94,0,0,0-1.27.73c-.31.42-.63,1.05-1.47,1s-1.26-.32-2,.1-.84,2.53-1.47,1.27-.63-2.63.31-3.05,1.58-.21,1.05-1.37-.42-2.1-1.36-.84-1.79,2.42-2.52,2.73-2.11,1.79-2,2.32.31,1.57,1.16.63,1.78-2.32,2-1.37-.1,2,.32,2.21,1.68,0,1.26.52-1,.11-1.79.21-1.78-.21-2.31,0-1.58,1.05-.32,1.16,1.37-.21,2.32-.11,1.57-.1,2,.42a1.87,1.87,0,0,1,.53,1.79,11.27,11.27,0,0,1-1.16,2c-.21.42-1.78,1.48-2.62.74s-.64-1.16-.64-2-.31-2.2-.63-1.68a6.94,6.94,0,0,0-.52,1.68s-.95,0-.95-.84.53-1.57-.21-1.57h-.94s-.74-1.68-1-1.05,0,1.15-.53,1.47a2.05,2.05,0,0,1-1.57.31c-.63-.1,0-1.26-.74-1.36s-1.36,0-1.36.63.42.84.42,1.57,0,1.05-.53,1.16-1,.52-1.05,0,0-1-.42-.95-.74.11-1.05.53-.74,1.15-1.37.84-.21-.63-.73-.95-1.16-.21-1.26.32.52.94.1,1.36-.21.64-.31,1.27-.42.63-1.16.73-1.47.21-1.68.63-.31.84.32.84a2.66,2.66,0,0,1,1.36.21c.42.21,1.37.11,1.58.53s1.26.73,1.26.73,2.2-.1,2.31.42.42,1.58-.21,1.79-1.26-.21-1.89-.11a3.35,3.35,0,0,1-1.79-.21c-.52-.21-1.26-.52-1.57,0s-1.26,1.16-1.47.74-.21-1.26-.74-1.26-.74-.63-.63-1.26.63-1.26.21-1.37-1.26-.73-1.47-.1-.74,1.36-1.26,1.47a6.89,6.89,0,0,1-2.21.52c-1.15,0-2.1-.21-2.73.32s-1.37.1-1.05,1.15.52.74,1.26,1.16.63.73.84,1.37,2,.84,2.31.1.63-1.58,1.16-1.68a4.14,4.14,0,0,0,1.15-.53s.32-.84,1-.1.84,1,1.37,1,.31.31.95.63a1.21,1.21,0,0,0,1.57-.21c.32-.42,1.37-1.05,1.68-.63a1.67,1.67,0,0,1,.42,1.58,5.41,5.41,0,0,1-.84,1.57c-.31.42-1.57,2-1.57,2l-1.47,1.68s-.95,1.26-1.58,1.36-1.26,1.26-1.68.53.63-1,0-1.58-1.68-1.15-1.68-.73-.11,1.57-.84,1.26-1.37-.95-2.31-.95-1.69,1.16-.53,1.47a5.15,5.15,0,0,1,2.73,1.26,7.07,7.07,0,0,0,2.1,1.37,5.78,5.78,0,0,0-.21,1.16,4.7,4.7,0,0,1-.84,2.41c-.52.53-.52,1.68-1.05,2s-.84,1.36-1.05,1.89.32,1.89-.1,2.42a2.65,2.65,0,0,1-1.58.84c-.52.1-.74,1.57-.74,1.57a7.71,7.71,0,0,0-.73,1.79c0,.42-.53,1.89-.21,2.94a6.56,6.56,0,0,1,.1,3.47c-.31.52-.52,2.62-1.26,2.62s-1.68-.84-1.68-1.26a3,3,0,0,0-.63-1.36,8.71,8.71,0,0,1-1.15-2.63c-.11-.84-.11-2.42-.53-2.84a7.15,7.15,0,0,1-1.15-1.36,2.38,2.38,0,0,0-2-.84c-.84,0-2.31.21-2-.42s1.58-1.16,1.58-1.16a7.35,7.35,0,0,0,.95-1.36,19.53,19.53,0,0,0,.52-2s.63-.84.95-.42a26.37,26.37,0,0,0,1.78,2.1c.53.53,1.05.53,1.26-.1a12.13,12.13,0,0,1,.74-1.58,5.93,5.93,0,0,0,1.05-2.31c0-.84.73-1.68.1-2.21s-1.26-.84-.84-1.89,1.37-1.57.42-2-2-.22-2,.42-.74,2,0,2.73,1.78.94,1.57,1.89a9.16,9.16,0,0,1-1.26,2.31c-.21.42-.52,1.47-.84.31s-.63-1.57-1.26-1.68-.94-.21-1.05-1.36-.73-1.68-1.26-1.37-1.26.42-1.05,1.16,1.16.21,1.05,1.05.32,1.15-.42,1.15h-2.21l-.42,1.26s.84.95,1.26.42.63-.52.84-.1.95,1.89.11,2-1.47.21-1.68.73-1.37,1.37-1.37,1.37a4.86,4.86,0,0,0-2.52.31c-.73.53-1.68.42-1.26,1s1.26-.32,1.16.52.1,1.37-.42,1.79-.53,1.36-1,1.47-.52.63.11.63,1.57-.11,1.78-.84,0-.95.74-1.37.63-.21.94-.94.63-1.16,1.26-.84.32.94,1.47.94,2.11-.42,2.32.21.84,1.47.63,1.89a2,2,0,0,0,0,1.37,4.93,4.93,0,0,0,.84,1.26s-.11,1.37-.11,1.89-.52.74-.73,1.16-1.48,1.26-1.48.63.85-1.26.11-1.47-1.05-1.37-1.05-1.79a.82.82,0,0,0-1.16-.63,7,7,0,0,0-1.26,1.26s-.84.21-.84.63-.1,1.47-.52,1.26-.95-.94-1.37-.73a4.38,4.38,0,0,1-1.05.31l-1.26-.84s-1.05-.1-1.05.53a5.83,5.83,0,0,1-.21,1.36l-1.16.63s-1.15.74-1.78,1.05a37.44,37.44,0,0,1-4,1.47c-1.37.42-3.47,1.37-5.05,1.69s-6,1.36-6.83,1.68-3.36.84-4.3,1.15-2,.11-3,.63a6.86,6.86,0,0,1-2.21.63,12,12,0,0,1-2.62.53,31,31,0,0,0-3.36.42s-6.83-3.15-9.14-3.78a49,49,0,0,1-9.25-4c-2.52-1.47-8.19-2.94-9.88-3.36s-5.25-3.36-6.09-3.78a27.67,27.67,0,0,0-3.78-1.05Z"/><path class="cls-1" d="M315.42,339.48s.49-.69.1-1.18a2.12,2.12,0,0,0-1.67-.49,2,2,0,0,1-1.48-.39,3.64,3.64,0,0,0-1.47-.69,1.45,1.45,0,0,1-1.09-1.25,11.94,11.94,0,0,0-.78-2.16s-.89,0-.89-.59a14.56,14.56,0,0,1,.2-2.17,7.65,7.65,0,0,0,.29-1.47c0-.5-.79-1.78-.19-2.27s.68-.69.68-1.28.59-1.73.5-2.82a3.68,3.68,0,0,0-.5-2.06,3.49,3.49,0,0,1-.68-2.07,1.61,1.61,0,0,0-1-1.57,2.19,2.19,0,0,1-1.47-1,2.53,2.53,0,0,0-1.15-1l-.79,1.18a1.25,1.25,0,0,0,.39,1.08,1.82,1.82,0,0,1,.76,1.48c0,.59-.76,1.87-1.05,1.18s.29-2-.39-2-1.09-.2-1.28.39-.69.4-1.28.79-.69.79-1.48.89-1.77.49-2.07-.2-.39-1.18-1.18-1.08-1.37.59-1.77-.3a1.85,1.85,0,0,0-2.26-1.08c-.95.29-1.7,1.08-1.15,1.57a4.73,4.73,0,0,0,1.94.69l1.77.1,1.18.4s1.28.29.39.49a17.81,17.81,0,0,1-3.25,0s-1.18,1-.29,1.18,2.56.69,2.56.69,1.28,1.21,1.87.65.39-1.05.49-1.44.89-.79,1.28-.3a1.72,1.72,0,0,1,.39,1.28c0,.46.2.86-.39,1.25s-1.38.49-.69.88,1.77.69,2.07-.39.1-2,.69-1.83.49.55.88.75,1.18,1.08,1,1.47-1.19.2-1.38.79.59,2.56,0,2.95a3.49,3.49,0,0,0-1.28,1.09c-.4.59-2.17,1.28-2.17.49s.3-1.77.79-2,1.58-1,.89-1.38-1.77-.59-2-.19.1,1.37-.69,1.67-.89.59-1.38,1.08-.88,1.08-1.18.39-.49-1.27.3-1.67,2-.79,1.47-1.57,0-.49-.79-1.18a2.65,2.65,0,0,0-1.86-.89c-.6,0-1.38-.69-1.28.2s.29,1.47.78,1.77,1.09.79.5,1.28-1.28,1.08-1.28,1.08-.53-1-1-.69-1.05.79-.85,1.38.59,1.48,0,1.77-1,.59-.79,1-.29,1.28-.29,1.28-1.18.3-.69,1.09a5,5,0,0,0,2.62,1.77c.79.16,1.38,0,2.07.16s1.38.59,2.06.79,1.87.26,1.78-.4-.1-.65-.2-1.24-.1-2.17.59-2.07.59.79,1.38.59,2-.19,2,.5-1,.72-1.28,1.27-1.18,1.35-.5,1.64a10.74,10.74,0,0,0,2.46,1c.79.1.83.88,2,1a9.39,9.39,0,0,0,2.23-.1,13,13,0,0,0,.59-1.57c.2-.69-1.38-1.38-1.38-1.38s-.78-1.44,0-1.44,1.78-.3,2.07.49.79.36,1.08,1.25.5,1.37-.29,1.37-1.08.4-1,.89,1.48.79,2,.88a16,16,0,0,0,3.15.4c.59-.1,1.38-.2,1.38-.2Z"/><path class="cls-1" d="M315.42,339.48s.49-.69.1-1.18a2.12,2.12,0,0,0-1.67-.49,2,2,0,0,1-1.48-.39,3.64,3.64,0,0,0-1.47-.69,1.45,1.45,0,0,1-1.09-1.25,11.94,11.94,0,0,0-.78-2.16s-.89,0-.89-.59a14.56,14.56,0,0,1,.2-2.17,7.65,7.65,0,0,0,.29-1.47c0-.5-.79-1.78-.19-2.27s.68-.69.68-1.28.59-1.73.5-2.82a3.68,3.68,0,0,0-.5-2.06,3.49,3.49,0,0,1-.68-2.07,1.61,1.61,0,0,0-1-1.57,2.19,2.19,0,0,1-1.47-1,2.53,2.53,0,0,0-1.15-1l-.79,1.18a1.25,1.25,0,0,0,.39,1.08,1.82,1.82,0,0,1,.76,1.48c0,.59-.76,1.87-1.05,1.18s.29-2-.39-2-1.09-.2-1.28.39-.69.4-1.28.79-.69.79-1.48.89-1.77.49-2.07-.2-.39-1.18-1.18-1.08-1.37.59-1.77-.3a1.85,1.85,0,0,0-2.26-1.08c-.95.29-1.7,1.08-1.15,1.57a4.73,4.73,0,0,0,1.94.69l1.77.1,1.18.4s1.28.29.39.49a17.81,17.81,0,0,1-3.25,0s-1.18,1-.29,1.18,2.56.69,2.56.69,1.28,1.21,1.87.65.39-1.05.49-1.44.89-.79,1.28-.3a1.72,1.72,0,0,1,.39,1.28c0,.46.2.86-.39,1.25s-1.38.49-.69.88,1.77.69,2.07-.39.1-2,.69-1.83.49.55.88.75,1.18,1.08,1,1.47-1.19.2-1.38.79.59,2.56,0,2.95a3.49,3.49,0,0,0-1.28,1.09c-.4.59-2.17,1.28-2.17.49s.3-1.77.79-2,1.58-1,.89-1.38-1.77-.59-2-.19.1,1.37-.69,1.67-.89.59-1.38,1.08-.88,1.08-1.18.39-.49-1.27.3-1.67,2-.79,1.47-1.57,0-.49-.79-1.18a2.65,2.65,0,0,0-1.86-.89c-.6,0-1.38-.69-1.28.2s.29,1.47.78,1.77,1.09.79.5,1.28-1.28,1.08-1.28,1.08-.53-1-1-.69-1.05.79-.85,1.38.59,1.48,0,1.77-1,.59-.79,1-.29,1.28-.29,1.28-1.18.3-.69,1.09a5,5,0,0,0,2.62,1.77c.79.16,1.38,0,2.07.16s1.38.59,2.06.79,1.87.26,1.78-.4-.1-.65-.2-1.24-.1-2.17.59-2.07.59.79,1.38.59,2-.19,2,.5-1,.72-1.28,1.27-1.18,1.35-.5,1.64a10.74,10.74,0,0,0,2.46,1c.79.1.83.88,2,1a9.39,9.39,0,0,0,2.23-.1,13,13,0,0,0,.59-1.57c.2-.69-1.38-1.38-1.38-1.38s-.78-1.44,0-1.44,1.78-.3,2.07.49.79.36,1.08,1.25.5,1.37-.29,1.37-1.08.4-1,.89,1.48.79,2,.88a16,16,0,0,0,3.15.4c.59-.1,1.38-.2,1.38-.2Z"/><path class="cls-1" d="M271.08,364.4s1.3,1.73,2,.6c0,.35,1.56,2.08,1.9,1.3a5.1,5.1,0,0,1,1.21-1.9c.7-.69,1.6-.56,1.82-1.43a1.44,1.44,0,0,1,1.6-1.21c.86,0,2,.17,2.59-.35s.35-2,.78-2.42.69,0,1.13-1a5.26,5.26,0,0,0,.34-2.16s.26-.86-.34-.86a2.18,2.18,0,0,0-1.56.86,3,3,0,0,1-1.82.87c-.52,0-1,.34-1.55.34s-.48-.77-1.78-.69-2.07-.26-2.24.69.17,1.47-.18,2.34-.52.69-.78,1.64-.43,1.47-1.12,1.47-1.12-.43-1.38.09a4.64,4.64,0,0,1-1.21,1.17Z"/><path class="cls-1" d="M271.08,364.4s1.3,1.73,2,.6c0,.35,1.56,2.08,1.9,1.3a5.1,5.1,0,0,1,1.21-1.9c.7-.69,1.6-.56,1.82-1.43a1.44,1.44,0,0,1,1.6-1.21c.86,0,2,.17,2.59-.35s.35-2,.78-2.42.69,0,1.13-1a5.26,5.26,0,0,0,.34-2.16s.26-.86-.34-.86a2.18,2.18,0,0,0-1.56.86,3,3,0,0,1-1.82.87c-.52,0-1,.34-1.55.34s-.48-.77-1.78-.69-2.07-.26-2.24.69.17,1.47-.18,2.34-.52.69-.78,1.64-.43,1.47-1.12,1.47-1.12-.43-1.38.09a4.64,4.64,0,0,1-1.21,1.17Z"/><path class="cls-2" d="M217.82,369.49s-.67,3.06-.8,4.26,0,2.38-.27,3.85-.93,4.4-1.2,5.2-1.87,5.62-2.27,7.07-.26,3.31-1.06,5.18-3.72,4.8-4.25,5.73-.4,2.25-.67,3.85a4.74,4.74,0,0,1-1.6,3.2,7.35,7.35,0,0,0-2.13,3.2c-.67,1.6-1.2,4.26-.8,5.06s2.8,1.85,4,1.59,2.42.26,3.6,1.46a7.72,7.72,0,0,1,2.11,3.74c.4,1.46,1.34,1.86,1.87,2.53s.8,2.93.13,3.47a18.52,18.52,0,0,1-3.6,1.84,38.49,38.49,0,0,0-4,1.87,25.66,25.66,0,0,1-3.6,1.47,14.26,14.26,0,0,0-4.8,2.8,6.49,6.49,0,0,1-4.11,1.86c-1.2,0-2.27.14-3.6.14s-1.07-.54-2.53-.94-3.09-1.6-4.27-.53-2.52,1.73-2.65,2.53a11,11,0,0,1-.67,2.67c-.4.93-1.06,3.31-2,3.58a3.1,3.1,0,0,1-2.4-.27,5.19,5.19,0,0,0-2.66-.4c-.67.14-5.18,2-6.12,2.27s-4.4,1.33-4.8,1.33A18.23,18.23,0,0,1,160,449c-.4-.13-1.07-.4-1.07-.4a32.74,32.74,0,0,0,1.07-6.11c0-2.14-.27-8.54-.14-10s.54-7.58.8-8.52.94-4,.94-4l-.14-3.58.54-.67s1.2,2.65,2,3.19a7.21,7.21,0,0,0,1.73.8,30.68,30.68,0,0,1,1.07-2.92c.4-.8-.4-2.8-.4-2.8a1.6,1.6,0,0,1,0-1.47c.4-.8.8-2.8-.67-3.73s-2.27-2-2.27-3.2-.4-1.73-1.73-1.73-2.27-.38-2.13-1.45.66-1.2.53-1.87a2.22,2.22,0,0,0-.53-1.06s.93-1.87,1.33-2.54,1.87-3.73,1.87-3.73a34,34,0,0,0,3.46-3.71c.54-.94,1.47-1.6,1.6-2.27s1.07-1.6-.93-2.13-2.4-.14-3.33-2.94-1.34-4.78-2.54-6.11a12.62,12.62,0,0,0-3.6-2.8c-.51-.13-2.51-.67-2.78-1.33s.27-1.6.54-2,2.91-.54,4-.8,3.06-.27,3.6-.67,2.13.11,1.2-3.33a14.06,14.06,0,0,1-.14-1.6,5.14,5.14,0,0,0-.13-2.79c-.53-1.46-.27-4.13.27-4.8s2.4-2.53,2.4-2.53a11.83,11.83,0,0,1,1.6.27c.4.13,3,.26,3,.26a1.45,1.45,0,0,0,1.34-1.6c-.14,0,.53-.26.53-.26l1.33.4s1.34.4,1.74-.27c0,.13,1.2-1.07,1.2-1.07l.66.27,2.4,2.27,3.47.93,4.52,3.07,6.53,2L200,361.9l4.93,2.25Z"/><path class="cls-2" d="M217.82,369.49s-.67,3.06-.8,4.26,0,2.38-.27,3.85-.93,4.4-1.2,5.2-1.87,5.62-2.27,7.07-.26,3.31-1.06,5.18-3.72,4.8-4.25,5.73-.4,2.25-.67,3.85a4.74,4.74,0,0,1-1.6,3.2,7.35,7.35,0,0,0-2.13,3.2c-.67,1.6-1.2,4.26-.8,5.06s2.8,1.85,4,1.59,2.42.26,3.6,1.46a7.72,7.72,0,0,1,2.11,3.74c.4,1.46,1.34,1.86,1.87,2.53s.8,2.93.13,3.47a18.52,18.52,0,0,1-3.6,1.84,38.49,38.49,0,0,0-4,1.87,25.66,25.66,0,0,1-3.6,1.47,14.26,14.26,0,0,0-4.8,2.8,6.49,6.49,0,0,1-4.11,1.86c-1.2,0-2.27.14-3.6.14s-1.07-.54-2.53-.94-3.09-1.6-4.27-.53-2.52,1.73-2.65,2.53a11,11,0,0,1-.67,2.67c-.4.93-1.06,3.31-2,3.58a3.1,3.1,0,0,1-2.4-.27,5.19,5.19,0,0,0-2.66-.4c-.67.14-5.18,2-6.12,2.27s-4.4,1.33-4.8,1.33A18.23,18.23,0,0,1,160,449c-.4-.13-1.07-.4-1.07-.4a32.74,32.74,0,0,0,1.07-6.11c0-2.14-.27-8.54-.14-10s.54-7.58.8-8.52.94-4,.94-4l-.14-3.58.54-.67s1.2,2.65,2,3.19a7.21,7.21,0,0,0,1.73.8,30.68,30.68,0,0,1,1.07-2.92c.4-.8-.4-2.8-.4-2.8a1.6,1.6,0,0,1,0-1.47c.4-.8.8-2.8-.67-3.73s-2.27-2-2.27-3.2-.4-1.73-1.73-1.73-2.27-.38-2.13-1.45.66-1.2.53-1.87a2.22,2.22,0,0,0-.53-1.06s.93-1.87,1.33-2.54,1.87-3.73,1.87-3.73a34,34,0,0,0,3.46-3.71c.54-.94,1.47-1.6,1.6-2.27s1.07-1.6-.93-2.13-2.4-.14-3.33-2.94-1.34-4.78-2.54-6.11a12.62,12.62,0,0,0-3.6-2.8c-.51-.13-2.51-.67-2.78-1.33s.27-1.6.54-2,2.91-.54,4-.8,3.06-.27,3.6-.67,2.13.11,1.2-3.33a14.06,14.06,0,0,1-.14-1.6,5.14,5.14,0,0,0-.13-2.79c-.53-1.46-.27-4.13.27-4.8s2.4-2.53,2.4-2.53a11.83,11.83,0,0,1,1.6.27c.4.13,3,.26,3,.26a1.45,1.45,0,0,0,1.34-1.6c-.14,0,.53-.26.53-.26l1.33.4s1.34.4,1.74-.27c0,.13,1.2-1.07,1.2-1.07l.66.27,2.4,2.27,3.47.93,4.52,3.07,6.53,2L200,361.9l4.93,2.25Z"/><path class="cls-1" d="M259.45,358.65s-.17-1.3.26-1.39a.75.75,0,0,1,1,.61c.09.52.52.26.52,1a13,13,0,0,0,.09,1.47s.69-.35.86.34,1.21.44,1.38.09,0-.43.61-.78.21-.86,1.08-.78,1.9-.34,1.9.78a2.91,2.91,0,0,1-.78,1.9s-1.25-.52-1.55-.34-.87,1.12-.3,1.21,1.33-.26,1.77,0,1.73.82,1.21,1.16a5.38,5.38,0,0,1-2.16.26s-.65.61-1,.61-.78.17-.34.95.43,1-.26,1.47a3.53,3.53,0,0,1-2.08.35s-.69-1.21-.17-1.56,1.38-.43,1.38-1a1.73,1.73,0,0,0-.78-1.38c-.43-.35.18-.65-.51-1.17s-1.13-.69-1.22-.08a3,3,0,0,1-1.29,1.68c-.52.35-1.39,1.3-1.91,1.3s-.69-1.17-.43-2.21.09-1.21,1-1.47,1.21.26,1.47-.69.35-1.38.35-1.38Z"/><path class="cls-1" d="M259.45,358.65s-.17-1.3.26-1.39a.75.75,0,0,1,1,.61c.09.52.52.26.52,1a13,13,0,0,0,.09,1.47s.69-.35.86.34,1.21.44,1.38.09,0-.43.61-.78.21-.86,1.08-.78,1.9-.34,1.9.78a2.91,2.91,0,0,1-.78,1.9s-1.25-.52-1.55-.34-.87,1.12-.3,1.21,1.33-.26,1.77,0,1.73.82,1.21,1.16a5.38,5.38,0,0,1-2.16.26s-.65.61-1,.61-.78.17-.34.95.43,1-.26,1.47a3.53,3.53,0,0,1-2.08.35s-.69-1.21-.17-1.56,1.38-.43,1.38-1a1.73,1.73,0,0,0-.78-1.38c-.43-.35.18-.65-.51-1.17s-1.13-.69-1.22-.08a3,3,0,0,1-1.29,1.68c-.52.35-1.39,1.3-1.91,1.3s-.69-1.17-.43-2.21.09-1.21,1-1.47,1.21.26,1.47-.69.35-1.38.35-1.38Z"/><path class="cls-1" d="M256,368.29l-2.14,2.13c-.53.53-1.73,1.47-1.86,2.27s.11.66-.8,1.46a11.34,11.34,0,0,1-2.52,1.47,7.74,7.74,0,0,0-2.4,1.58c-1.06,1.07-1.33.93-2,2.4s-.8,1.2-1.6,2a7.28,7.28,0,0,0-1.6,2.93,5.55,5.55,0,0,1-1.86,2.4c-.94.8-2.52.67-2.52,1.47s-.67,2.91-.53,3.71.93,2,.26,2.54-2.13.93-2.26,1.6-1.74,1.46-2.14,1.33-1.46-.13-1.33.8-.8,1.6-1.33,1.87a9.92,9.92,0,0,0-2.67,1.06c-.8.67-1.48,2.52-2.27,2.65s-2-.67-2,.27a34.1,34.1,0,0,0,.54,5.2c.26.93.53,1.06.26,2.26a14.8,14.8,0,0,0,.4,4.14,5.08,5.08,0,0,1,.54,1.85c0,.8.89,1.73.24,2.53a8.3,8.3,0,0,0-1,2.13,2.62,2.62,0,0,0,.62,2.35c.62.89,1.35.3,1.5-.73s.15-3.1.89-2.95,1.32-.15,1.47,1.62-.29,3.39.74,2.51a4.65,4.65,0,0,0,1.77-2.51c.59-1.48-.44-3.25,1-1.92s.88,2.07,1.33,3.84,1.77,4.13,0,3.39-2.51-2.07-3-.74.15,1-1.18,1.33-2.21,1.21-1.18,2.09,3.1-1,2.95.44-1,1.77-1.62,2.95a2.92,2.92,0,0,1-1.63,1.48,2.5,2.5,0,0,1-1.62-2.22c-.15-1.77-.41-2.65-1.18-2.65s-1.94.29-1.65,1.62.12,2.21,1.33,3.1a5.59,5.59,0,0,0,2.09,1l.89-.44a18.07,18.07,0,0,1-.3,3.24c-.29,1.33-1.18,4.75-1.18,5.49V450c0,1.18-1.5,3.39-1.65,4.27a19,19,0,0,0-.25,3.19c0,1.26-1.47,2.73-2.1,4.2a5.43,5.43,0,0,0-.21,4.41,12.67,12.67,0,0,1,1.26,4c.21,1.48.21,4.42-.21,5.26s-.21,2.31-1,3.36-1.26,1.89-2.1,1.89-5.25.63-5.25.63-4,0-5,.63-4.21-.21-5.68,0a25.75,25.75,0,0,1-5.46-.63l-2.94-.63a20.82,20.82,0,0,1,.84,4c.21,2.1,1.05,2.73,1.05,4.42s-.63,3.57-.42,4.83.63,1.89.21,3.36a8.42,8.42,0,0,0-.63,3.78,2.23,2.23,0,0,0,2.1,1.89c1.05.21.42.21,1.89,1.05s2.52,1.26,2.52,2.31-1.26,2.95,1.68,3.37c1.47.42,2.73.63,3.36-1.26,2.11-.84,4.21-1.48,5.47-.84s2.1,2.31,4.2,1.47,3.36-1.89,5.25-1.68,3.15,1.68,4.63,1.47a5.17,5.17,0,0,1,4.2.84c1.47,1,2.94,1.68,4,.42s2.31-1.26,3.78-.63,2.1,1.68,4,1.47a13.6,13.6,0,0,1,5.05,0c2.1.42,4.83.21,4.83-.84s-1-1.47-1.47-2.94,1.05-2.11-.63-3.37-2.94-.63-5-1.26-3-1.68-4.21-2.31a3.89,3.89,0,0,1-1.89-3.57c0-1.47-.21-3.57-.21-4.83s0-1.89-1.26-1.89-2.73.21-2.94,1.26-.21,1.68-1,2.31-3.78.84-3.78.84a18.44,18.44,0,0,0,1.68,1.47c.84.63,1.26,3.15,1.26,3.15l-1.68-1.26V496.3h-1.89l-.42-1.89-3.79.21a9,9,0,0,0-.63,3.15c0,1.68.63,2.94-.21,2.31s-1.26-.84-1.05-2.52a8.41,8.41,0,0,1,1.47-3.36c.42-.84,0-.84.63-1.89s2.53-1.89.64-2.1-2.95-.21-3.79.84a3.06,3.06,0,0,1-2.52.84s0-1.68-1.47-1.47-1,1.05-2.1.84-1.47-.21-.84-1.26,1.05-2.32,2.1-1.27,2.1,2.11,3.15,1.48a13,13,0,0,1,3.36-1.26c.84-.22,3.79-1.27,3.79,0s1.47,1.89,1.47,1.89.84-.42.63-1.89-.63-3.16.42-3.58,2.52-2.94,2.52-2.94-.42-1.26,2.73-.84,3.78.63,4.2-1.26,0-1.89,1.68-2.1,2.31-1.68,3.37-.21,1.89,2.52,2.94,1.47,3.57-5,5-5.67a17.23,17.23,0,0,1,5.88-1.26c1.89,0,2.1,2.52,3.15,1.26s.64-3.16,2.53-3.16,2.1-.21,3.15-1.68a3.28,3.28,0,0,1,3.15-1.68c1.26,0,4-1.05,4.2-2.52s1.47-3.57,2.73-3.78a35.76,35.76,0,0,1,4.63-.84c1.26,0,4.2.84,5.25-.21s2.52-.84,3.57-1.26.84-1.68,1.68-1.89,1.89.42,2.52-.63,1.47-1.47,2.52-2.73,1.69-2.95,2.74-3.58,1.89.84,3.15-.42,1.26-.84,2.31-2.31.21-2.94,1.68-2.94a1.44,1.44,0,0,0,1.47-1.47,3.64,3.64,0,0,1,1.89-2.73,19.35,19.35,0,0,0,4.2-3.36,6.78,6.78,0,0,0,1.06-2.95s1.68,1.69,2.1,0,.63-1.89.21-2.94-2.52-2.52-3.37-3.36-7.35-7.14-7.35-7.14-2.52-5.47-4.62-5.89a49.45,49.45,0,0,1-7.78-2.94c-1.89-.84-6.51-2.52-6.51-2.52l-4.41-5.25-4-6.1-2.74-4,.21-4.2a10.18,10.18,0,0,1,0-3.78c.42-1.68.21-2.31,1.68-3.57s2.74-2.11,1.06-2.11-6.1-.63-6.1-.63a6.69,6.69,0,0,1-3.36-2.94,16.58,16.58,0,0,1-1.26-5.25,18.86,18.86,0,0,1,0-3.57c.21-1.26-.42-2.73-1.47-2.94s-1.89-1.26-2.31-.42.21,2.1-.84,2.94-1.68-.42-2.31,1.26-1.27,2.52-1.9,1.47-.84-2.31-1.68-2.1a4.31,4.31,0,0,1-2.1-.21C256.65,367.2,256,368.29,256,368.29Z"/><path class="cls-1" d="M256,368.29l-2.14,2.13c-.53.53-1.73,1.47-1.86,2.27s.11.66-.8,1.46a11.34,11.34,0,0,1-2.52,1.47,7.74,7.74,0,0,0-2.4,1.58c-1.06,1.07-1.33.93-2,2.4s-.8,1.2-1.6,2a7.28,7.28,0,0,0-1.6,2.93,5.55,5.55,0,0,1-1.86,2.4c-.94.8-2.52.67-2.52,1.47s-.67,2.91-.53,3.71.93,2,.26,2.54-2.13.93-2.26,1.6-1.74,1.46-2.14,1.33-1.46-.13-1.33.8-.8,1.6-1.33,1.87a9.92,9.92,0,0,0-2.67,1.06c-.8.67-1.48,2.52-2.27,2.65s-2-.67-2,.27a34.1,34.1,0,0,0,.54,5.2c.26.93.53,1.06.26,2.26a14.8,14.8,0,0,0,.4,4.14,5.08,5.08,0,0,1,.54,1.85c0,.8.89,1.73.24,2.53a8.3,8.3,0,0,0-1,2.13,2.62,2.62,0,0,0,.62,2.35c.62.89,1.35.3,1.5-.73s.15-3.1.89-2.95,1.32-.15,1.47,1.62-.29,3.39.74,2.51a4.65,4.65,0,0,0,1.77-2.51c.59-1.48-.44-3.25,1-1.92s.88,2.07,1.33,3.84,1.77,4.13,0,3.39-2.51-2.07-3-.74.15,1-1.18,1.33-2.21,1.21-1.18,2.09,3.1-1,2.95.44-1,1.77-1.62,2.95a2.92,2.92,0,0,1-1.63,1.48,2.5,2.5,0,0,1-1.62-2.22c-.15-1.77-.41-2.65-1.18-2.65s-1.94.29-1.65,1.62.12,2.21,1.33,3.1a5.59,5.59,0,0,0,2.09,1l.89-.44a18.07,18.07,0,0,1-.3,3.24c-.29,1.33-1.18,4.75-1.18,5.49V450c0,1.18-1.5,3.39-1.65,4.27a19,19,0,0,0-.25,3.19c0,1.26-1.47,2.73-2.1,4.2a5.43,5.43,0,0,0-.21,4.41,12.67,12.67,0,0,1,1.26,4c.21,1.48.21,4.42-.21,5.26s-.21,2.31-1,3.36-1.26,1.89-2.1,1.89-5.25.63-5.25.63-4,0-5,.63-4.21-.21-5.68,0a25.75,25.75,0,0,1-5.46-.63l-2.94-.63a20.82,20.82,0,0,1,.84,4c.21,2.1,1.05,2.73,1.05,4.42s-.63,3.57-.42,4.83.63,1.89.21,3.36a8.42,8.42,0,0,0-.63,3.78,2.23,2.23,0,0,0,2.1,1.89c1.05.21.42.21,1.89,1.05s2.52,1.26,2.52,2.31-1.26,2.95,1.68,3.37c1.47.42,2.73.63,3.36-1.26,2.11-.84,4.21-1.48,5.47-.84s2.1,2.31,4.2,1.47,3.36-1.89,5.25-1.68,3.15,1.68,4.63,1.47a5.17,5.17,0,0,1,4.2.84c1.47,1,2.94,1.68,4,.42s2.31-1.26,3.78-.63,2.1,1.68,4,1.47a13.6,13.6,0,0,1,5.05,0c2.1.42,4.83.21,4.83-.84s-1-1.47-1.47-2.94,1.05-2.11-.63-3.37-2.94-.63-5-1.26-3-1.68-4.21-2.31a3.89,3.89,0,0,1-1.89-3.57c0-1.47-.21-3.57-.21-4.83s0-1.89-1.26-1.89-2.73.21-2.94,1.26-.21,1.68-1,2.31-3.78.84-3.78.84a18.44,18.44,0,0,0,1.68,1.47c.84.63,1.26,3.15,1.26,3.15l-1.68-1.26V496.3h-1.89l-.42-1.89-3.79.21a9,9,0,0,0-.63,3.15c0,1.68.63,2.94-.21,2.31s-1.26-.84-1.05-2.52a8.41,8.41,0,0,1,1.47-3.36c.42-.84,0-.84.63-1.89s2.53-1.89.64-2.1-2.95-.21-3.79.84a3.06,3.06,0,0,1-2.52.84s0-1.68-1.47-1.47-1,1.05-2.1.84-1.47-.21-.84-1.26,1.05-2.32,2.1-1.27,2.1,2.11,3.15,1.48a13,13,0,0,1,3.36-1.26c.84-.22,3.79-1.27,3.79,0s1.47,1.89,1.47,1.89.84-.42.63-1.89-.63-3.16.42-3.58,2.52-2.94,2.52-2.94-.42-1.26,2.73-.84,3.78.63,4.2-1.26,0-1.89,1.68-2.1,2.31-1.68,3.37-.21,1.89,2.52,2.94,1.47,3.57-5,5-5.67a17.23,17.23,0,0,1,5.88-1.26c1.89,0,2.1,2.52,3.15,1.26s.64-3.16,2.53-3.16,2.1-.21,3.15-1.68a3.28,3.28,0,0,1,3.15-1.68c1.26,0,4-1.05,4.2-2.52s1.47-3.57,2.73-3.78a35.76,35.76,0,0,1,4.63-.84c1.26,0,4.2.84,5.25-.21s2.52-.84,3.57-1.26.84-1.68,1.68-1.89,1.89.42,2.52-.63,1.47-1.47,2.52-2.73,1.69-2.95,2.74-3.58,1.89.84,3.15-.42,1.26-.84,2.31-2.31.21-2.94,1.68-2.94a1.44,1.44,0,0,0,1.47-1.47,3.64,3.64,0,0,1,1.89-2.73,19.35,19.35,0,0,0,4.2-3.36,6.78,6.78,0,0,0,1.06-2.95s1.68,1.69,2.1,0,.63-1.89.21-2.94-2.52-2.52-3.37-3.36-7.35-7.14-7.35-7.14-2.52-5.47-4.62-5.89a49.45,49.45,0,0,1-7.78-2.94c-1.89-.84-6.51-2.52-6.51-2.52l-4.41-5.25-4-6.1-2.74-4,.21-4.2a10.18,10.18,0,0,1,0-3.78c.42-1.68.21-2.31,1.68-3.57s2.74-2.11,1.06-2.11-6.1-.63-6.1-.63a6.69,6.69,0,0,1-3.36-2.94,16.58,16.58,0,0,1-1.26-5.25,18.86,18.86,0,0,1,0-3.57c.21-1.26-.42-2.73-1.47-2.94s-1.89-1.26-2.31-.42.21,2.1-.84,2.94-1.68-.42-2.31,1.26-1.27,2.52-1.9,1.47-.84-2.31-1.68-2.1a4.31,4.31,0,0,1-2.1-.21C256.65,367.2,256,368.29,256,368.29Z"/><path class="cls-1" d="M177.89,446.18c.05,0,.14,1.92,1.51,2.6s4.26,2.75,5.08,3.3a20.58,20.58,0,0,1,2.88,2.6c1.1,1.1,2.2,1.1,3.16,2.89a19.44,19.44,0,0,1,1.51,6c.13,1.24,1.09,5.77,1.23,7.41s.82,5.08.82,5.9a28.67,28.67,0,0,0,.83,3.84l6,1.1,7,.14,2.47-.55,9.06-.69s2.74-1.78,2.88-4.66c.14.41,1.51-5.22-.68-9.47a5.69,5.69,0,0,1,.54-6.31c.14,0,1.65-1.79,1.65-5.22.14-.27.69-1.92.69-1.92l1.37-3.29-.41-5.35,1.51-6.45V436l-1,.38-2-1.18-.7-.64-.32-1-.37-1.77s-.05-1,1.18-1.17c-.16-.06,1-.7,1.39.75a3.47,3.47,0,0,1,.32,1.55c0,.64.53,2.2,1.55,2.52a6.08,6.08,0,0,0,1.66-1.34,20,20,0,0,1,1.56-2.09l.16-1a.49.49,0,0,0-.64-.53c-.54.1-1.34.32-1.34.32s-1.34,0-1.34-.86c.1-.05-.22-.8,1.07-1.34-.11,0,.86-.16.86-.16s.58.11.58-.64c0,.05.38-1,.38-1s.05-.53.75-.16,2.2,1.29,2.2,1.29,1,.21.69-.86c-.05-.05-.91-2.73-.91-2.73l-.21-2a3.61,3.61,0,0,0-.7-1.34c.11.11-1-.75-1-.75s-.26,0-.16.81a4.23,4.23,0,0,1-1.39,3.53c0-.05-.8.65-.8.65s-.65.32-.59-.7a14.74,14.74,0,0,0-.06-2.84c-.1-.27-.37-.59-1.07-.7s-1,.16-1,1a19.31,19.31,0,0,1-.37,2.52c-.11.37-.91,1-1.29.16a2.67,2.67,0,0,1-.48-2.74c.54-1,.91-1.87.91-1.87s.32-.38,0-1.29a9.7,9.7,0,0,1-.32-1.76l-.58-1.18-.43-2.79.21-2.09,0-.7a10.68,10.68,0,0,1-.59-1.92c0-.43-.27-3.76-.27-3.76s-.38-1,.64-.8c.06.11.81.11.81.11s.64.43,1.39-.7a7.26,7.26,0,0,0,.86-1.23s.16-.75,1.33-1.07a13.89,13.89,0,0,0,2.26-.86,1.54,1.54,0,0,0,.91-1.39c0-.16,0-1.34,1.23-1.07a2.58,2.58,0,0,0,2.41-1.61s1.39-.91,1.88-1.18.64-.43.42-1.23c-.1-.38-.48-1.4-.48-1.4v-1l.54-2.31a1.1,1.1,0,0,1,.91-1.17,5.19,5.19,0,0,0,1.5-.49l1.34-1.44a4.45,4.45,0,0,0,.8-1.77,12.15,12.15,0,0,1,1.39-2.36c.54-.54,1.07-.75,1.29-1.23a6.89,6.89,0,0,1,1.82-2.68c1.07-.86,1.23-1.23,1.61-1.39s1.82-.86,2.36-1.18,1.87-1.29,1.87-1.29a1.46,1.46,0,0,0,.43-1.07c.05-.16-.06-.53,1-1.45s3.22-3.16,3.22-3.16.64-.64.59-1a8.68,8.68,0,0,1-.11-1c-.05-.59-.27-1.12-.64-1.12s-.16-.86-.38-1.29-.37-.21-.69-.59-.75-.32-.7-.75.53-.43,1-.37,1.29-.06,1.18-.54-.48-.48-.8-.7-.22-1.07-.7-1.12-.86-.27-1.39-.05a3.48,3.48,0,0,1-1.07.16.85.85,0,0,1-.49-.06l-2.35,1.4-7.18,2.67-14,3.54a5.28,5.28,0,0,0-2,.43,4,4,0,0,1-1.61.64,1.86,1.86,0,0,0-.91.11A25.64,25.64,0,0,1,221,369l-1.93.27-1.23.21-.85,4.11a28,28,0,0,1-.31,4.52c-.32,1.05-2.63,9.45-2.63,9.45l-.84,2.31s-.21,5.26-2,6.73a40.85,40.85,0,0,1-2.73,3.36,5,5,0,0,0-1.06,2.94c-.1.84-.31,4-1.57,4.83-.95.53-2.1,2.42-2.52,4.42s-2.1,4.3,2.1,5.46a16.17,16.17,0,0,0,2.31,0,8.66,8.66,0,0,1,4.2,3.89c.32.42.58,2.46,1.78,3.3a2.53,2.53,0,0,1,1,2.18c0,1,.36,1.66-.89,2.23s-4,1.81-4.87,2.33a19,19,0,0,1-3.33,1.61c-1.09.36-4.73,1.92-4.73,1.92a21,21,0,0,0-2.7,2c-1.65,1.09-2.32,1.82-6.9,1.77a3.19,3.19,0,0,1-2.39-.63c.11-.05-3-1-3-1a2,2,0,0,0-2.27.31,26.73,26.73,0,0,1-2.08,1.82,2.75,2.75,0,0,0-.57,1.61,4.58,4.58,0,0,1-.68,2.24c-.36.73-.88,2.12-.88,2.12S178.63,446.8,177.89,446.18Z"/><path class="cls-1" d="M177.89,446.18c.05,0,.14,1.92,1.51,2.6s4.26,2.75,5.08,3.3a20.58,20.58,0,0,1,2.88,2.6c1.1,1.1,2.2,1.1,3.16,2.89a19.44,19.44,0,0,1,1.51,6c.13,1.24,1.09,5.77,1.23,7.41s.82,5.08.82,5.9a28.67,28.67,0,0,0,.83,3.84l6,1.1,7,.14,2.47-.55,9.06-.69s2.74-1.78,2.88-4.66c.14.41,1.51-5.22-.68-9.47a5.69,5.69,0,0,1,.54-6.31c.14,0,1.65-1.79,1.65-5.22.14-.27.69-1.92.69-1.92l1.37-3.29-.41-5.35,1.51-6.45V436l-1,.38-2-1.18-.7-.64-.32-1-.37-1.77s-.05-1,1.18-1.17c-.16-.06,1-.7,1.39.75a3.47,3.47,0,0,1,.32,1.55c0,.64.53,2.2,1.55,2.52a6.08,6.08,0,0,0,1.66-1.34,20,20,0,0,1,1.56-2.09l.16-1a.49.49,0,0,0-.64-.53c-.54.1-1.34.32-1.34.32s-1.34,0-1.34-.86c.1-.05-.22-.8,1.07-1.34-.11,0,.86-.16.86-.16s.58.11.58-.64c0,.05.38-1,.38-1s.05-.53.75-.16,2.2,1.29,2.2,1.29,1,.21.69-.86c-.05-.05-.91-2.73-.91-2.73l-.21-2a3.61,3.61,0,0,0-.7-1.34c.11.11-1-.75-1-.75s-.26,0-.16.81a4.23,4.23,0,0,1-1.39,3.53c0-.05-.8.65-.8.65s-.65.32-.59-.7a14.74,14.74,0,0,0-.06-2.84c-.1-.27-.37-.59-1.07-.7s-1,.16-1,1a19.31,19.31,0,0,1-.37,2.52c-.11.37-.91,1-1.29.16a2.67,2.67,0,0,1-.48-2.74c.54-1,.91-1.87.91-1.87s.32-.38,0-1.29a9.7,9.7,0,0,1-.32-1.76l-.58-1.18-.43-2.79.21-2.09,0-.7a10.68,10.68,0,0,1-.59-1.92c0-.43-.27-3.76-.27-3.76s-.38-1,.64-.8c.06.11.81.11.81.11s.64.43,1.39-.7a7.26,7.26,0,0,0,.86-1.23s.16-.75,1.33-1.07a13.89,13.89,0,0,0,2.26-.86,1.54,1.54,0,0,0,.91-1.39c0-.16,0-1.34,1.23-1.07a2.58,2.58,0,0,0,2.41-1.61s1.39-.91,1.88-1.18.64-.43.42-1.23c-.1-.38-.48-1.4-.48-1.4v-1l.54-2.31a1.1,1.1,0,0,1,.91-1.17,5.19,5.19,0,0,0,1.5-.49l1.34-1.44a4.45,4.45,0,0,0,.8-1.77,12.15,12.15,0,0,1,1.39-2.36c.54-.54,1.07-.75,1.29-1.23a6.89,6.89,0,0,1,1.82-2.68c1.07-.86,1.23-1.23,1.61-1.39s1.82-.86,2.36-1.18,1.87-1.29,1.87-1.29a1.46,1.46,0,0,0,.43-1.07c.05-.16-.06-.53,1-1.45s3.22-3.16,3.22-3.16.64-.64.59-1a8.68,8.68,0,0,1-.11-1c-.05-.59-.27-1.12-.64-1.12s-.16-.86-.38-1.29-.37-.21-.69-.59-.75-.32-.7-.75.53-.43,1-.37,1.29-.06,1.18-.54-.48-.48-.8-.7-.22-1.07-.7-1.12-.86-.27-1.39-.05a3.48,3.48,0,0,1-1.07.16.85.85,0,0,1-.49-.06l-2.35,1.4-7.18,2.67-14,3.54a5.28,5.28,0,0,0-2,.43,4,4,0,0,1-1.61.64,1.86,1.86,0,0,0-.91.11A25.64,25.64,0,0,1,221,369l-1.93.27-1.23.21-.85,4.11a28,28,0,0,1-.31,4.52c-.32,1.05-2.63,9.45-2.63,9.45l-.84,2.31s-.21,5.26-2,6.73a40.85,40.85,0,0,1-2.73,3.36,5,5,0,0,0-1.06,2.94c-.1.84-.31,4-1.57,4.83-.95.53-2.1,2.42-2.52,4.42s-2.1,4.3,2.1,5.46a16.17,16.17,0,0,0,2.31,0,8.66,8.66,0,0,1,4.2,3.89c.32.42.58,2.46,1.78,3.3a2.53,2.53,0,0,1,1,2.18c0,1,.36,1.66-.89,2.23s-4,1.81-4.87,2.33a19,19,0,0,1-3.33,1.61c-1.09.36-4.73,1.92-4.73,1.92a21,21,0,0,0-2.7,2c-1.65,1.09-2.32,1.82-6.9,1.77a3.19,3.19,0,0,1-2.39-.63c.11-.05-3-1-3-1a2,2,0,0,0-2.27.31,26.73,26.73,0,0,1-2.08,1.82,2.75,2.75,0,0,0-.57,1.61,4.58,4.58,0,0,1-.68,2.24c-.36.73-.88,2.12-.88,2.12S178.63,446.8,177.89,446.18Z"/><path class="cls-1" d="M365.47,472.06a10,10,0,0,0,1.34-2c.34-.84,1.35-1.68,2.18-.84s.17,2.08,1.68,1.71a20.67,20.67,0,0,1,3.89-.37l1.51.37,1.68.34s2,0,2.18.83,0,3.36.16,4.36,1.35.17,1.51,1.68-.16,2.18.67,2.85a11,11,0,0,1,1.85,2.52l.67,1.37.33,2.35a4.48,4.48,0,0,1,0,2.18c-.33.67-.36,1.51.17,3.19s1.07,1.67.54,3.18-.17,2.05.67,3.05a4.85,4.85,0,0,1,.84,2.69,8.05,8.05,0,0,0-1.51,1c-.54.5-.87,2-2.05,2a6.72,6.72,0,0,1-2.85-1.17,5.44,5.44,0,0,0-1.17,1.84c-.34,1-1,2.35-1.68,1.51s-1.68-1.84-.67-2.68,1.68-1.51,1-2-.51-.34-2.85-.84-3.05-.5-3.39.5-.84,1.18-.84,1.18,0,.84-1.84.67-3.36.5-3.19-.67a29.71,29.71,0,0,0,.84-4.2,19.34,19.34,0,0,0-.84-4.05s-2.18-2.52-2-3.19.5-.17.67-1.84-.84-3.19-1.17-4.2-1.35-2.21-.17-2.71,2.35-1.17,1.84-2.35-.84-2.51-1.17-3.52a26.52,26.52,0,0,1-.67-2.85Z"/><path class="cls-1" d="M365.47,472.06a10,10,0,0,0,1.34-2c.34-.84,1.35-1.68,2.18-.84s.17,2.08,1.68,1.71a20.67,20.67,0,0,1,3.89-.37l1.51.37,1.68.34s2,0,2.18.83,0,3.36.16,4.36,1.35.17,1.51,1.68-.16,2.18.67,2.85a11,11,0,0,1,1.85,2.52l.67,1.37.33,2.35a4.48,4.48,0,0,1,0,2.18c-.33.67-.36,1.51.17,3.19s1.07,1.67.54,3.18-.17,2.05.67,3.05a4.85,4.85,0,0,1,.84,2.69,8.05,8.05,0,0,0-1.51,1c-.54.5-.87,2-2.05,2a6.72,6.72,0,0,1-2.85-1.17,5.44,5.44,0,0,0-1.17,1.84c-.34,1-1,2.35-1.68,1.51s-1.68-1.84-.67-2.68,1.68-1.51,1-2-.51-.34-2.85-.84-3.05-.5-3.39.5-.84,1.18-.84,1.18,0,.84-1.84.67-3.36.5-3.19-.67a29.71,29.71,0,0,0,.84-4.2,19.34,19.34,0,0,0-.84-4.05s-2.18-2.52-2-3.19.5-.17.67-1.84-.84-3.19-1.17-4.2-1.35-2.21-.17-2.71,2.35-1.17,1.84-2.35-.84-2.51-1.17-3.52a26.52,26.52,0,0,1-.67-2.85Z"/><path class="cls-1" d="M195.55,501s.69,1.75-.35,2.27-2.1,1.05-2.45,0-1.4-1.92-1.92-1.22-.52,1.05.7,1.74,1.22.88,2.09,1.4,1.58,0,3.15.88a27.38,27.38,0,0,0,3.49,1.92c.7.17,2.27.87.87.7s-6.28-1.4-8-1.75-2.27,0-5.24-.35-3.14-.52-6.81-1.22a85.86,85.86,0,0,0-12.92-.88c-3,0-8.56-.7-10-.7s-10.48-1-12.57-1-3.67,0-3.67-1.05,1.4-1.92,3.14-1.75a8.25,8.25,0,0,1,3.15,1.05c.87.35.87,1.92,2.09,1.05s1.92-1.75,2.62-1.05a1.62,1.62,0,0,0,2.1.52c1.05-.34,1.4-.69,2.44-1a3.75,3.75,0,0,0,2.1-1.58c.7-.87.7-2.44,1.57-.34s1.22,3.49,1.75,2.79,1.57-3.32.17-3.67-1.74-1.22-2.79-1.05-.35.88-1.4,1.58a10,10,0,0,1-3,1s-.35,1.58-1.4,1.05-1.57-.87-2.09-.7-.87,1.23-1.75.88a9.56,9.56,0,0,1-2.27-1.92,6.19,6.19,0,0,1-3.14-.53c-1.05-.7-2.1-2.09-3-.87s-.52,3-1.75,3-2.09-1.05-3-.88-1.57-.17-3-.17-3.67-.7-4,0,.17,1.4,2.09,1.4,5.24-.7,6.29.35,1.57,1.57.35,1.74a56.87,56.87,0,0,1-7.68-.17c-1.4-.18-3-.7-3.85-.7h-3s-.87-7.86,1.58-10.83c.87-1.92,2.09-3.49,1.57-8.73-.35-3-1.75-7.68,2.27-11.7,1.05-1.92,4.89-7.16,5.24-11.18.35-4.36,4.36-6.81,9.08-7.33s13.8-1.92,14.32-3.67c-.35.17,3.67,1.75,6.46.17-.17,0,7.51-2.44,7.51-2.44s1.22-1.05,3.67.17h1.75s-.7,2.45,2.27,3.5a34.78,34.78,0,0,1,6.11,4.19,53.45,53.45,0,0,0,4.19,3.49s1.4,7,1.92,10.13,3,16.07,3,16.07l1.05,4.19-.35,5.76.35,2.8Z"/><path class="cls-1" d="M195.55,501s.69,1.75-.35,2.27-2.1,1.05-2.45,0-1.4-1.92-1.92-1.22-.52,1.05.7,1.74,1.22.88,2.09,1.4,1.58,0,3.15.88a27.38,27.38,0,0,0,3.49,1.92c.7.17,2.27.87.87.7s-6.28-1.4-8-1.75-2.27,0-5.24-.35-3.14-.52-6.81-1.22a85.86,85.86,0,0,0-12.92-.88c-3,0-8.56-.7-10-.7s-10.48-1-12.57-1-3.67,0-3.67-1.05,1.4-1.92,3.14-1.75a8.25,8.25,0,0,1,3.15,1.05c.87.35.87,1.92,2.09,1.05s1.92-1.75,2.62-1.05a1.62,1.62,0,0,0,2.1.52c1.05-.34,1.4-.69,2.44-1a3.75,3.75,0,0,0,2.1-1.58c.7-.87.7-2.44,1.57-.34s1.22,3.49,1.75,2.79,1.57-3.32.17-3.67-1.74-1.22-2.79-1.05-.35.88-1.4,1.58a10,10,0,0,1-3,1s-.35,1.58-1.4,1.05-1.57-.87-2.09-.7-.87,1.23-1.75.88a9.56,9.56,0,0,1-2.27-1.92,6.19,6.19,0,0,1-3.14-.53c-1.05-.7-2.1-2.09-3-.87s-.52,3-1.75,3-2.09-1.05-3-.88-1.57-.17-3-.17-3.67-.7-4,0,.17,1.4,2.09,1.4,5.24-.7,6.29.35,1.57,1.57.35,1.74a56.87,56.87,0,0,1-7.68-.17c-1.4-.18-3-.7-3.85-.7h-3s-.87-7.86,1.58-10.83c.87-1.92,2.09-3.49,1.57-8.73-.35-3-1.75-7.68,2.27-11.7,1.05-1.92,4.89-7.16,5.24-11.18.35-4.36,4.36-6.81,9.08-7.33s13.8-1.92,14.32-3.67c-.35.17,3.67,1.75,6.46.17-.17,0,7.51-2.44,7.51-2.44s1.22-1.05,3.67.17h1.75s-.7,2.45,2.27,3.5a34.78,34.78,0,0,1,6.11,4.19,53.45,53.45,0,0,0,4.19,3.49s1.4,7,1.92,10.13,3,16.07,3,16.07l1.05,4.19-.35,5.76.35,2.8Z"/><path class="cls-1" d="M281.73,380c-.1.22.77,1.31.55,2.5s.33,1,.87.88,1.53-.22,1.86.87.1,1.31,1,1.85,2.29.44,2.83,1.42.84,1.31,1.86,1.42,3.63-.26,4.61.54,1,1.78,2.18,2.22a15.44,15.44,0,0,0,3.71,1A1.88,1.88,0,0,1,303,394.3c0,.65,1.13.76,2,1s2.84,1.42,2.4,2.4-1.42-.22-.76,1.63.11,1.64.54,2.73,1,1.67,2.07,1.67a4.1,4.1,0,0,1,2.51,1.09c.76.55,2.84-.22,3.93,1.31a15.52,15.52,0,0,0,2.4,2.94,4.6,4.6,0,0,0,2.87,1.31c1,.22,2,.44,2.18,1.42s.76,1.31,1.85,2.4a7.52,7.52,0,0,1,1.53,2.61c.22.37.65-.4,1.63,1s1.31,1.75,1.09,2.29-1,0-2.07-.22-1.42-.54-1.74.11a15,15,0,0,0-1.31,2.73,10.43,10.43,0,0,1-.33,1.63l-1,1.2s-.11,1.75-.65,2.18-1.2.88-1.2.88.87,2.43.21,2.76a17.77,17.77,0,0,1-2.07.76l-.11-1.67-10.83-10.14s-1.89-4.94-4.39-5.82c-1.09-.21-8.18-2.94-8.18-2.94l-4.18-1.85-2.07-.55-4.58-5.6-6.8-9.92.36-4a14.69,14.69,0,0,1-.21-2c0-.76.54-3.93.54-3.93s1-1.41,1.53-2.07C280.32,381.39,281.73,381,281.73,380Z"/><path class="cls-1" d="M281.73,380c-.1.22.77,1.31.55,2.5s.33,1,.87.88,1.53-.22,1.86.87.1,1.31,1,1.85,2.29.44,2.83,1.42.84,1.31,1.86,1.42,3.63-.26,4.61.54,1,1.78,2.18,2.22a15.44,15.44,0,0,0,3.71,1A1.88,1.88,0,0,1,303,394.3c0,.65,1.13.76,2,1s2.84,1.42,2.4,2.4-1.42-.22-.76,1.63.11,1.64.54,2.73,1,1.67,2.07,1.67a4.1,4.1,0,0,1,2.51,1.09c.76.55,2.84-.22,3.93,1.31a15.52,15.52,0,0,0,2.4,2.94,4.6,4.6,0,0,0,2.87,1.31c1,.22,2,.44,2.18,1.42s.76,1.31,1.85,2.4a7.52,7.52,0,0,1,1.53,2.61c.22.37.65-.4,1.63,1s1.31,1.75,1.09,2.29-1,0-2.07-.22-1.42-.54-1.74.11a15,15,0,0,0-1.31,2.73,10.43,10.43,0,0,1-.33,1.63l-1,1.2s-.11,1.75-.65,2.18-1.2.88-1.2.88.87,2.43.21,2.76a17.77,17.77,0,0,1-2.07.76l-.11-1.67-10.83-10.14s-1.89-4.94-4.39-5.82c-1.09-.21-8.18-2.94-8.18-2.94l-4.18-1.85-2.07-.55-4.58-5.6-6.8-9.92.36-4a14.69,14.69,0,0,1-.21-2c0-.76.54-3.93.54-3.93s1-1.41,1.53-2.07C280.32,381.39,281.73,381,281.73,380Z"/><path class="cls-1" d="M335.89,419.11s2.18-.87,2.18-2.21.34-1.68-.5-2.35-.5-2.85-.5-2.85a9.08,9.08,0,0,0-.17-2.85,10.44,10.44,0,0,1-.33-3.18c0-1-.17-1.88.67-2.22s1.17-3,2-2.51-.34,1.81,1.34,2.35.34.16,2-.17,3.72,1.71,3.72,1.71a9.7,9.7,0,0,0,1.51-1c1.18-.87,4.36-3.55,5.2-2.38s2.18,2.38.5,3.22a4.8,4.8,0,0,0-2.34,1.84c-.51.68-1,.84-2.35.68a1.49,1.49,0,0,0-1.68,1l-.17,2.18a7.07,7.07,0,0,0-1.67,2.35c-.54,1.34-.67,1.17.5,1.34s1.84.67,1.51,1.51-1-.2-1.34,1.17.8,1.21-1.21,1.88a12.15,12.15,0,0,1-4.69.34c-1,0-.51.5-1.85.83s-2.35-1.17-2.35-1.17"/><path class="cls-1" d="M350.68,425.65a6.47,6.47,0,0,1,.67,1.68c.34,1.17,1.18,2.18,1.51,1.17s.51-1.17,1.51-1a3.73,3.73,0,0,0,2-.34,2.92,2.92,0,0,1,1.67-.67c1.21-.17,1.91-1.51.87-1.68s0-.83-1.2-2.18-1.85-2.51-2.85-1.34-1.85,2.35-1.85,2.35l-1,.5Z"/><path class="cls-1" d="M350.68,425.65a6.47,6.47,0,0,1,.67,1.68c.34,1.17,1.18,2.18,1.51,1.17s.51-1.17,1.51-1a3.73,3.73,0,0,0,2-.34,2.92,2.92,0,0,1,1.67-.67c1.21-.17,1.91-1.51.87-1.68s0-.83-1.2-2.18-1.85-2.51-2.85-1.34-1.85,2.35-1.85,2.35l-1,.5Z"/><path class="cls-1" d="M332.88,449s2.51.16,4.36.5,2.34-.34,3.52.5,2.18,2.35,2.68,2.69a8.06,8.06,0,0,1,2.05,3c.16.84-.34,2,1,2s1.85,1.17,1.85,2.35.33,2.68-.17,3.35-1.88.84-3.05,1a2.89,2.89,0,0,0-1.85,1.51s.51,2.51-.16,3.52a5.07,5.07,0,0,1-2.35,2.21c-1,.33-4.36-.14-4.7-.84s-1.67-1-2.18-1.2a2.75,2.75,0,0,1-1.67-2.52c0-1.51-.71-1-.71-2.52s.51-3.18-.33-3.52a2.94,2.94,0,0,1-1.51-2.18c-.17-.84-.34-3.05-.34-3.05s1.68-.84,1.18-1.67-1.68-1.68-.67-2.52.67-.17,1.17-.84A16.9,16.9,0,0,1,332.88,449Z"/><path class="cls-1" d="M332.88,449s2.51.16,4.36.5,2.34-.34,3.52.5,2.18,2.35,2.68,2.69a8.06,8.06,0,0,1,2.05,3c.16.84-.34,2,1,2s1.85,1.17,1.85,2.35.33,2.68-.17,3.35-1.88.84-3.05,1a2.89,2.89,0,0,0-1.85,1.51s.51,2.51-.16,3.52a5.07,5.07,0,0,1-2.35,2.21c-1,.33-4.36-.14-4.7-.84s-1.67-1-2.18-1.2a2.75,2.75,0,0,1-1.67-2.52c0-1.51-.71-1-.71-2.52s.51-3.18-.33-3.52a2.94,2.94,0,0,1-1.51-2.18c-.17-.84-.34-3.05-.34-3.05s1.68-.84,1.18-1.67-1.68-1.68-.67-2.52.67-.17,1.17-.84A16.9,16.9,0,0,1,332.88,449Z"/><path class="cls-1" d="M335.89,419.11s2.18-.87,2.18-2.21.34-1.68-.5-2.35-.5-2.85-.5-2.85a9.08,9.08,0,0,0-.17-2.85,10.44,10.44,0,0,1-.33-3.18c0-1-.17-1.88.67-2.22s1.17-3,2-2.51-.34,1.81,1.34,2.35.34.16,2-.17,3.72,1.71,3.72,1.71a9.7,9.7,0,0,0,1.51-1c1.18-.87,4.36-3.55,5.2-2.38s2.18,2.38.5,3.22a4.8,4.8,0,0,0-2.34,1.84c-.51.68-1,.84-2.35.68a1.49,1.49,0,0,0-1.68,1l-.17,2.18a7.07,7.07,0,0,0-1.67,2.35c-.54,1.34-.67,1.17.5,1.34s1.84.67,1.51,1.51-1-.2-1.34,1.17.8,1.21-1.21,1.88a12.15,12.15,0,0,1-4.69.34c-1,0-.51.5-1.85.83s-2.35-1.17-2.35-1.17Z"/><path class="cls-1" d="M335.89,419.11s2.18-.87,2.18-2.21.34-1.68-.5-2.35-.5-2.85-.5-2.85a9.08,9.08,0,0,0-.17-2.85,10.44,10.44,0,0,1-.33-3.18c0-1-.17-1.88.67-2.22s1.17-3,2-2.51-.34,1.81,1.34,2.35.34.16,2-.17,3.72,1.71,3.72,1.71a9.7,9.7,0,0,0,1.51-1c1.18-.87,4.36-3.55,5.2-2.38s2.18,2.38.5,3.22a4.8,4.8,0,0,0-2.34,1.84c-.51.68-1,.84-2.35.68a1.49,1.49,0,0,0-1.68,1l-.17,2.18a7.07,7.07,0,0,0-1.67,2.35c-.54,1.34-.67,1.17.5,1.34s1.84.67,1.51,1.51-1-.2-1.34,1.17.8,1.21-1.21,1.88a12.15,12.15,0,0,1-4.69.34c-1,0-.51.5-1.85.83s-2.35-1.17-2.35-1.17Z"/></svg>