<svg id="Layer_1" data-name="Layer 1" xmlns="http://www.w3.org/2000/svg" viewBox="0 0 512 512"><defs><style>.cls-1,.cls-3{fill:#e6e7e8;}.cls-1,.cls-2,.cls-3{stroke:#fff;stroke-linejoin:round;}.cls-1,.cls-2{fill-rule:evenodd;}.cls-2{fill:#a7a9ac;}</style></defs><path class="cls-1" d="M181.11,124.21s.24-3.11.24-4.06-.72-1.92.24-2.87a25.16,25.16,0,0,1,2.87-2.63c.72-.48,2.39-1.44,2.39-1.44s1.91-1.19,2.63-1.67,1.2.12,1.2-.84-.24-1.91.47-2.39a9.21,9.21,0,0,1,2.76-.72s-1.2-1.43.23-1.91,3.35-1,3.35-1.92-1.19-.71-1.91-1-1.44-1-1.67-2.63-.48-2.87.71-3.11,2.16-.36,2.63-1.32.24-1.67,1.92-2.39,2.15-.48,1.91-1.91,0-1.92,1.43-2.87,4.19-2.39,5.15-2.39S211,86,211.48,85s1.68-2.75,1.68-3.59-.48-1.79,1.67-3a36,36,0,0,1,6.22-2.63,12.36,12.36,0,0,0,2.51-1.19,30.11,30.11,0,0,0,1,3.1c.48,1.2,1,2.27,2.15,2.63s.24,2.52.24,2.52,1.91,2.39,3.83,2.15a6.32,6.32,0,0,0,3.82-1.67,8.76,8.76,0,0,1,4.19-1.44c1.43-.24,5.26-.48,6,.48a1.86,1.86,0,0,1,.24,2.39c-.48,1-2.16,3.83-2.39,5.26s-1.2,4.66-.72,5.74.72,1.8,1.43,1.8,1.68.47,2.15-.48,1.92-1.44,2.64-.72,2.39,2.15,2.15,2.87a24.76,24.76,0,0,0-.24,3.83,2.61,2.61,0,0,1,.72,1.67,13.09,13.09,0,0,0,1.19,4.07,11.31,11.31,0,0,1,.48,3.46s-1,1.92-1.67,2.16l-1.44.48s-1,3.34-.72,4.54.72,3.35,1,4.3a37.39,37.39,0,0,1,.24,4.67l-29.18.24s-14.23,6.93-14.95,7.89c-1.91-1.44-3.11-2.39-5-3.83s-2.63-2.15-4.3-2.15a6.77,6.77,0,0,1-4.19-1.19c-.72-.72-.72-1.44-1.91-1.44a6.43,6.43,0,0,1-2.87-.24,4.18,4.18,0,0,1-2.63-1.79l-1-1.68Z"/><path class="cls-1" d="M181.11,124.21s.24-3.11.24-4.06-.72-1.92.24-2.87a25.16,25.16,0,0,1,2.87-2.63c.72-.48,2.39-1.44,2.39-1.44s1.91-1.19,2.63-1.67,1.2.12,1.2-.84-.24-1.91.47-2.39a9.21,9.21,0,0,1,2.76-.72s-1.2-1.43.23-1.91,3.35-1,3.35-1.92-1.19-.71-1.91-1-1.44-1-1.67-2.63-.48-2.87.71-3.11,2.16-.36,2.63-1.32.24-1.67,1.92-2.39,2.15-.48,1.91-1.91,0-1.92,1.43-2.87,4.19-2.39,5.15-2.39S211,86,211.48,85s1.68-2.75,1.68-3.59-.48-1.79,1.67-3a36,36,0,0,1,6.22-2.63,12.36,12.36,0,0,0,2.51-1.19,30.11,30.11,0,0,0,1,3.1c.48,1.2,1,2.27,2.15,2.63s.24,2.52.24,2.52,1.91,2.39,3.83,2.15a6.32,6.32,0,0,0,3.82-1.67,8.76,8.76,0,0,1,4.19-1.44c1.43-.24,5.26-.48,6,.48a1.86,1.86,0,0,1,.24,2.39c-.48,1-2.16,3.83-2.39,5.26s-1.2,4.66-.72,5.74.72,1.8,1.43,1.8,1.68.47,2.15-.48,1.92-1.44,2.64-.72,2.39,2.15,2.15,2.87a24.76,24.76,0,0,0-.24,3.83,2.61,2.61,0,0,1,.72,1.67,13.09,13.09,0,0,0,1.19,4.07,11.31,11.31,0,0,1,.48,3.46s-1,1.92-1.67,2.16l-1.44.48s-1,3.34-.72,4.54.72,3.35,1,4.3a37.39,37.39,0,0,1,.24,4.67l-29.18.24s-14.23,6.93-14.95,7.89c-1.91-1.44-3.11-2.39-5-3.83s-2.63-2.15-4.3-2.15a6.77,6.77,0,0,1-4.19-1.19c-.72-.72-.72-1.44-1.91-1.44a6.43,6.43,0,0,1-2.87-.24,4.18,4.18,0,0,1-2.63-1.79l-1-1.68Z"/><path class="cls-1" d="M226.67,80.32c.17-.23,1.91.37,1.91.37s-.24-.37-1-1.56-1.44-1.44-1.44-2.15.72-1,1.68-1.2.24-1.43.24-1.43-2.16-1-1.2-1.2,1.43.24,2.15-.24,2.87-1.67,4.07-2.39a11.94,11.94,0,0,1,3.82-1s-.11,1.68,1.08,1.2,2.15-1.2,2.87-1.44,2.87,1,2.87,1a3.33,3.33,0,0,1,1.44,1.91c.23,1.2,1.19,0,.95-1.67s-1.91-4.9-2.63-5.38-.48-1.68-.95-2.39a10.33,10.33,0,0,0-1.68-1.68l1.68-.71-.24-2.16s1.19-1.19,1.43,0,.72,3.11,2.15,2.39.24-3.1,2.16-2.15,2.39,2.63,2.87,1.92-.37-2.16,1-2.64,4.19-.23,4.43,1.2S257.52,63,257.76,62a23.46,23.46,0,0,1,1-2.63,6.17,6.17,0,0,0,1-2.15c0-.72,2.15-1,2.15-1l2.15-.72s1.43-1.67,2.15-1.19,2,1.43,2,1.43l1.91.48,1.43,1.43,1.44,2.4s-1,1,.48,1.91,2.15,1,2.39,1.67-.24,2.28,1,2.76a7.32,7.32,0,0,0,2.39.47s1.51,1.55,1.51,2.61.33,1.91,1.49,1.91,2.65-.42,2.86.85.42,4,1.27,4.68,1.92.63,2.34,1.7a6.6,6.6,0,0,1,.21,5.2c-.85,2.76,0,3.4-.85,4.46s-1.27,1.91-1.06,2.55,2.13,2.55,2.34,3.4.21,2.22.85,2.65,1.49-.85,2.55.42,2.12,1.91,1.91,3.19a2.72,2.72,0,0,0,.43,2.55c.63,1.06.85,3.82-.64,4.89s-3.61,1.6-3.19,3,1.28,3.08.43,4.14-1.92,1.27-1.7,3.4.63,3.19-.85,5.1-2.55,2.65-2.77,4.35-.85.42-1.7,3.82-2.32,1.7-1.8,4.25,1.49,2.77-.85,3.4-1.7,1.18-3.61,1.92-4.25.1-4.67,2.43.42,2.77-.43,3.83-1.27,1.7-1.06,3,1.91,2.55,2.12,4a17.17,17.17,0,0,1,.22,2.22s-2.13,2.34-3.4,1.7a6.77,6.77,0,0,0-2.55-.85,6.84,6.84,0,0,1-4.14-2.22,18.58,18.58,0,0,1-2.12-4,7.21,7.21,0,0,1,.42-3.18c.64-2.13-.42-2.55-.64-4.25s.64-2.23-.63-3.93-1.7-2.12-1.92-3.82a10.82,10.82,0,0,0-1.27-4.47c-.85-1.48-1.06-3.18-1.91-3.82s-.85-.64-2.13-.21a28.3,28.3,0,0,1-4.48.66l-.24-4.67-1-4.3.72-4.54,1.44-.48,1.67-2.16-.48-3.46-.69-2-.71-3.18-.51-.59.28-3.17a2,2,0,0,0-.59-2.12l-1.6-1.41s-1.34-.95-2.05,0c.12.11-1.18,1.29-1.18,1.29s-2.82,1.17-3.06-3.06c.24-3.3,1.3-7.07,2.36-8.36a14.66,14.66,0,0,0,1.17-2.71s0-2.12-3.64-1.88-5.07.47-5.66.94A13,13,0,0,1,233.55,84c-.59.24-3.41,1.77-4.83.47.24.24-1.81-1.61-1.81-1.61A2,2,0,0,0,226.67,80.32Z"/><path class="cls-1" d="M226.67,80.32c.17-.23,1.91.37,1.91.37s-.24-.37-1-1.56-1.44-1.44-1.44-2.15.72-1,1.68-1.2.24-1.43.24-1.43-2.16-1-1.2-1.2,1.43.24,2.15-.24,2.87-1.67,4.07-2.39a11.94,11.94,0,0,1,3.82-1s-.11,1.68,1.08,1.2,2.15-1.2,2.87-1.44,2.87,1,2.87,1a3.33,3.33,0,0,1,1.44,1.91c.23,1.2,1.19,0,.95-1.67s-1.91-4.9-2.63-5.38-.48-1.68-.95-2.39a10.33,10.33,0,0,0-1.68-1.68l1.68-.71-.24-2.16s1.19-1.19,1.43,0,.72,3.11,2.15,2.39.24-3.1,2.16-2.15,2.39,2.63,2.87,1.92-.37-2.16,1-2.64,4.19-.23,4.43,1.2S257.52,63,257.76,62a23.46,23.46,0,0,1,1-2.63,6.17,6.17,0,0,0,1-2.15c0-.72,2.15-1,2.15-1l2.15-.72s1.43-1.67,2.15-1.19,2,1.43,2,1.43l1.91.48,1.43,1.43,1.44,2.4s-1,1,.48,1.91,2.15,1,2.39,1.67-.24,2.28,1,2.76a7.32,7.32,0,0,0,2.39.47s1.51,1.55,1.51,2.61.33,1.91,1.49,1.91,2.65-.42,2.86.85.42,4,1.27,4.68,1.92.63,2.34,1.7a6.6,6.6,0,0,1,.21,5.2c-.85,2.76,0,3.4-.85,4.46s-1.27,1.91-1.06,2.55,2.13,2.55,2.34,3.4.21,2.22.85,2.65,1.49-.85,2.55.42,2.12,1.91,1.91,3.19a2.72,2.72,0,0,0,.43,2.55c.63,1.06.85,3.82-.64,4.89s-3.61,1.6-3.19,3,1.28,3.08.43,4.14-1.92,1.27-1.7,3.4.63,3.19-.85,5.1-2.55,2.65-2.77,4.35-.85.42-1.7,3.82-2.32,1.7-1.8,4.25,1.49,2.77-.85,3.4-1.7,1.18-3.61,1.92-4.25.1-4.67,2.43.42,2.77-.43,3.83-1.27,1.7-1.06,3,1.91,2.55,2.12,4a17.17,17.17,0,0,1,.22,2.22s-2.13,2.34-3.4,1.7a6.77,6.77,0,0,0-2.55-.85,6.84,6.84,0,0,1-4.14-2.22,18.58,18.58,0,0,1-2.12-4,7.21,7.21,0,0,1,.42-3.18c.64-2.13-.42-2.55-.64-4.25s.64-2.23-.63-3.93-1.7-2.12-1.92-3.82a10.82,10.82,0,0,0-1.27-4.47c-.85-1.48-1.06-3.18-1.91-3.82s-.85-.64-2.13-.21a28.3,28.3,0,0,1-4.48.66l-.24-4.67-1-4.3.72-4.54,1.44-.48,1.67-2.16-.48-3.46-.69-2-.71-3.18-.51-.59.28-3.17a2,2,0,0,0-.59-2.12l-1.6-1.41s-1.34-.95-2.05,0c.12.11-1.18,1.29-1.18,1.29s-2.82,1.17-3.06-3.06c.24-3.3,1.3-7.07,2.36-8.36a14.66,14.66,0,0,0,1.17-2.71s0-2.12-3.64-1.88-5.07.47-5.66.94A13,13,0,0,1,233.55,84c-.59.24-3.41,1.77-4.83.47.24.24-1.81-1.61-1.81-1.61A2,2,0,0,0,226.67,80.32Z"/><path class="cls-1" d="M288.87,79.6s2.28-2.28,3-1.33,1,.76,1.71.38,2.06-1.71,3.6-.57,1.92,2.3,3.25,3.62a12.08,12.08,0,0,0,4.36,3c1.32.38,3.22,0,3.6-1.52s3.22-3.06,4-4,2.3-4.93,3.62-5.12,3.79,1.51,4,3.22,0,2.87.38,5.33,1.33,4,1.71,5.69,1.7,4.33.76,6.25-3.79,2.49-3.42,4.76-2.08.57-3.22.76a29.56,29.56,0,0,1-4.19,0s-1.71,1.71-.95,3.6,3.06,3.23,2.87,4.36a4.1,4.1,0,0,0,.95,3.63c1.13,1.51,3,3.41,3,4.36s-1.33,1.32-2.66,2.46-1.91.57-2.86,1.9-2.66,1.13-4.17,2.27a38.84,38.84,0,0,1-5.5,2.85,16,16,0,0,0-2.84,3.43,10.38,10.38,0,0,1-2.11,3c-.76.76-3.79,1.9-3.6,3.6a14,14,0,0,1-.19,4.93c-.38,1.35.38,2.87-.57,4s-2.08,1.89-2.46,4.17.38,2.25.56,5.49,1.33,3.06-.18,4.2-2.85,2.08-2.85,4.36a5.06,5.06,0,0,1-2.08,4.55c-1.33.94-4,2.25-4.76,3.79s-1.14,2.29-2.66,2.29-2.27-.38-4.55-.56-2.27-1.9-3.22-.19-1.71,3.22-2.46,3.6a7.11,7.11,0,0,1-2.68.19s.36-.93,1.52-3.42,1-3.43,1.91-4.95a10.75,10.75,0,0,0,1.9-3.6,26.92,26.92,0,0,0,.57-5.68l2.54-1.95a9.88,9.88,0,0,0-1.4-4.9c0,.38-.94-1.36-.94-1.36V148.9l1.07-1.3.43-3.83s-.74-2.2,4.67-2.43c.27-.05,4.63-2.51,4.63-2.51L282.8,136l0-1.55,1.16-.95L286.3,128a5.1,5.1,0,0,1,1.43-3c1.33-1.33,2.66-3.23,2.28-5.5.19-.38-.76-2.46,1.33-3.79a3.4,3.4,0,0,0,.18-3.6c.19.19-1.89-2.68,1.9-3.25,0,0,2.84-2.27,1.9-5.12a7.4,7.4,0,0,1-.95-4.36c.19.38-1.33-3.41-3.41-2.46.19,0-1.27.69-1.68-2.6,0,.11-1.8-2.56-2.34-3.4a44.69,44.69,0,0,0,1.93-6l.57-3.42Z"/><path class="cls-1" d="M288.87,79.6s2.28-2.28,3-1.33,1,.76,1.71.38,2.06-1.71,3.6-.57,1.92,2.3,3.25,3.62a12.08,12.08,0,0,0,4.36,3c1.32.38,3.22,0,3.6-1.52s3.22-3.06,4-4,2.3-4.93,3.62-5.12,3.79,1.51,4,3.22,0,2.87.38,5.33,1.33,4,1.71,5.69,1.7,4.33.76,6.25-3.79,2.49-3.42,4.76-2.08.57-3.22.76a29.56,29.56,0,0,1-4.19,0s-1.71,1.71-.95,3.6,3.06,3.23,2.87,4.36a4.1,4.1,0,0,0,.95,3.63c1.13,1.51,3,3.41,3,4.36s-1.33,1.32-2.66,2.46-1.91.57-2.86,1.9-2.66,1.13-4.17,2.27a38.84,38.84,0,0,1-5.5,2.85,16,16,0,0,0-2.84,3.43,10.38,10.38,0,0,1-2.11,3c-.76.76-3.79,1.9-3.6,3.6a14,14,0,0,1-.19,4.93c-.38,1.35.38,2.87-.57,4s-2.08,1.89-2.46,4.17.38,2.25.56,5.49,1.33,3.06-.18,4.2-2.85,2.08-2.85,4.36a5.06,5.06,0,0,1-2.08,4.55c-1.33.94-4,2.25-4.76,3.79s-1.14,2.29-2.66,2.29-2.27-.38-4.55-.56-2.27-1.9-3.22-.19-1.71,3.22-2.46,3.6a7.11,7.11,0,0,1-2.68.19s.36-.93,1.52-3.42,1-3.43,1.91-4.95a10.75,10.75,0,0,0,1.9-3.6,26.92,26.92,0,0,0,.57-5.68l2.54-1.95a9.88,9.88,0,0,0-1.4-4.9c0,.38-.94-1.36-.94-1.36V148.9l1.07-1.3.43-3.83s-.74-2.2,4.67-2.43c.27-.05,4.63-2.51,4.63-2.51L282.8,136l0-1.55,1.16-.95L286.3,128a5.1,5.1,0,0,1,1.43-3c1.33-1.33,2.66-3.23,2.28-5.5.19-.38-.76-2.46,1.33-3.79a3.4,3.4,0,0,0,.18-3.6c.19.19-1.89-2.68,1.9-3.25,0,0,2.84-2.27,1.9-5.12a7.4,7.4,0,0,1-.95-4.36c.19.38-1.33-3.41-3.41-2.46.19,0-1.27.69-1.68-2.6,0,.11-1.8-2.56-2.34-3.4a44.69,44.69,0,0,0,1.93-6l.57-3.42Z"/><path class="cls-1" d="M319.06,100.68a9,9,0,0,0,1.89,1.71c.76.38,2.28.57,2.09,2.27s-.38,1.71.56,3.22,3.23,2.11,3.23,3.44-.38,3.6.38,4.93-.19,2.84-.38,4.55-1.14,4.57-1.14,6.09-.76.94-3,2.27-4.93,1.9-6.26,2.65-2.46,1.9-2.27,3.23,1.7,4.9,1.89,6.06.76,2.68,0,4a28.16,28.16,0,0,0-1.7,3.42c-.38.94-2.68,4.93-1.73,6.44s4.38,2.11,5.33,3.25,2.08,3.41,3,7.39a27.5,27.5,0,0,1,.76,6.28,12.73,12.73,0,0,0,1.71,3.6s-3.61,3.22-5.31,2.84-8.74-2.27-9.69-2.65a25.31,25.31,0,0,0-4.55-1.52c-1.9-.38-4-1.73-6.09-2.49a6.73,6.73,0,0,0-5.12,0,33.27,33.27,0,0,1-6.25,1.35c-1.52.19-1.88,0-2.85.19a24.58,24.58,0,0,1-3.81,0s.78-2.67,6.09-5.52c.38,0,2.84-.75,2.65-4.92a2.94,2.94,0,0,1,1.33-2.66,28.13,28.13,0,0,0,2.27-2.65l-.94-6.09s-.76-4.17,1.51-6.07c.19,0,1.52-1.53,1.33-4.76a26.57,26.57,0,0,0,.38-3.41s-1.54-2.08,1.51-3.79c0-.19,2.3-.92,5-5.69.37.19.94-2.86,4.17-2.86.19,0,6.06-3,6.06-3l2.68-2.27,3-1.9,1.14-1.51-.95-2.28-2.08-2.08-.95-1.73v-1.9l-1.73-2.65s-3.06-2.08-.19-5.31C314.7,100.11,319.06,100.68,319.06,100.68Z"/><path class="cls-1" d="M319.06,100.68a9,9,0,0,0,1.89,1.71c.76.38,2.28.57,2.09,2.27s-.38,1.71.56,3.22,3.23,2.11,3.23,3.44-.38,3.6.38,4.93-.19,2.84-.38,4.55-1.14,4.57-1.14,6.09-.76.94-3,2.27-4.93,1.9-6.26,2.65-2.46,1.9-2.27,3.23,1.7,4.9,1.89,6.06.76,2.68,0,4a28.16,28.16,0,0,0-1.7,3.42c-.38.94-2.68,4.93-1.73,6.44s4.38,2.11,5.33,3.25,2.08,3.41,3,7.39a27.5,27.5,0,0,1,.76,6.28,12.73,12.73,0,0,0,1.71,3.6s-3.61,3.22-5.31,2.84-8.74-2.27-9.69-2.65a25.31,25.31,0,0,0-4.55-1.52c-1.9-.38-4-1.73-6.09-2.49a6.73,6.73,0,0,0-5.12,0,33.27,33.27,0,0,1-6.25,1.35c-1.52.19-1.88,0-2.85.19a24.58,24.58,0,0,1-3.81,0s.78-2.67,6.09-5.52c.38,0,2.84-.75,2.65-4.92a2.94,2.94,0,0,1,1.33-2.66,28.13,28.13,0,0,0,2.27-2.65l-.94-6.09s-.76-4.17,1.51-6.07c.19,0,1.52-1.53,1.33-4.76a26.57,26.57,0,0,0,.38-3.41s-1.54-2.08,1.51-3.79c0-.19,2.3-.92,5-5.69.37.19.94-2.86,4.17-2.86.19,0,6.06-3,6.06-3l2.68-2.27,3-1.9,1.14-1.51-.95-2.28-2.08-2.08-.95-1.73v-1.9l-1.73-2.65s-3.06-2.08-.19-5.31C314.7,100.11,319.06,100.68,319.06,100.68Z"/><path class="cls-1" d="M148.79,139.19a15.54,15.54,0,0,0,4.73.77c1.7-.19,7.41.57,8.93.19a20.27,20.27,0,0,1,4.93,0s4.54,4.58,6.63,5.52a10.09,10.09,0,0,1,3.62,3.42s0,.56,1.71.37,6.44-.75,7.77-.18,6.09,1.32,7.61.75,3.6-1.89,4.55,0,0,1.9,1.13,2.85,1.14,2.25,1.33,3.22-.76,2.3,1.33,4.19,3,3,2.84,4.55a6.67,6.67,0,0,0,1.33,4.93,24.15,24.15,0,0,1,2.1,2.87s.38,2.08,3.61,2.08a37.62,37.62,0,0,0,7.58-.57c4-.57,4.95-.57,8,0s6.07,0,7-.76,3.81-3.26,6.65-2.1,3.58,1.91,7.4,2.67a20.41,20.41,0,0,1,6.08,1.9c1.71.76,1.71-.19,3.61.76s5.49,1.32,6.82-.19c-.19,0,3.43-8.37,3.43-8.37s2.28-2.44,2.47-9.28l-6.09-2.09s-4.55-3.62-3.6-7a17.68,17.68,0,0,0,.76-3l-1-2.63.2-3.27L260,138.07s-1.3-9.65-4.92-10.81c-2.87.76-4.39,1.14-4.39,1.14l-30.13.24-14.95,7.89-7.3-5.47s-2.66-.57-3.41-.76-2.8-.94-2.8-.94-.72-1.54-1.91-1.44-4.88-.36-5.5-2-1-1.68-1-1.68h-2.63s-.63,2.86-2.15,4-6.28,2.47-7.6,3-4,.57-6.26.95-3.81.57-5.14,1.33-1.22.18-2.79,1-2.52.85-3.46,1.8S148.79,139.19,148.79,139.19Z"/><path class="cls-1" d="M148.79,139.19a15.54,15.54,0,0,0,4.73.77c1.7-.19,7.41.57,8.93.19a20.27,20.27,0,0,1,4.93,0s4.54,4.58,6.63,5.52a10.09,10.09,0,0,1,3.62,3.42s0,.56,1.71.37,6.44-.75,7.77-.18,6.09,1.32,7.61.75,3.6-1.89,4.55,0,0,1.9,1.13,2.85,1.14,2.25,1.33,3.22-.76,2.3,1.33,4.19,3,3,2.84,4.55a6.67,6.67,0,0,0,1.33,4.93,24.15,24.15,0,0,1,2.1,2.87s.38,2.08,3.61,2.08a37.62,37.62,0,0,0,7.58-.57c4-.57,4.95-.57,8,0s6.07,0,7-.76,3.81-3.26,6.65-2.1,3.58,1.91,7.4,2.67a20.41,20.41,0,0,1,6.08,1.9c1.71.76,1.71-.19,3.61.76s5.49,1.32,6.82-.19c-.19,0,3.43-8.37,3.43-8.37s2.28-2.44,2.47-9.28l-6.09-2.09s-4.55-3.62-3.6-7a17.68,17.68,0,0,0,.76-3l-1-2.63.2-3.27L260,138.07s-1.3-9.65-4.92-10.81c-2.87.76-4.39,1.14-4.39,1.14l-30.13.24-14.95,7.89-7.3-5.47s-2.66-.57-3.41-.76-2.8-.94-2.8-.94-.72-1.54-1.91-1.44-4.88-.36-5.5-2-1-1.68-1-1.68h-2.63s-.63,2.86-2.15,4-6.28,2.47-7.6,3-4,.57-6.26.95-3.81.57-5.14,1.33-1.22.18-2.79,1-2.52.85-3.46,1.8S148.79,139.19,148.79,139.19Z"/><path class="cls-1" d="M215.21,174.53a6.19,6.19,0,0,1,.38,3.6c-.38,2.09,0,2.28-.76,3.41s-1.89,2.09-1.89,3.61-.38,1.35.57,2.1,1.7,1.52.94,2.47-1.51,2.27.57,4.74,2.09,4,2.47,5.68a65.71,65.71,0,0,0,2.65,7.23c.76,1.89,1.52.76,0,3.6a25.85,25.85,0,0,0-2.65,8,23.13,23.13,0,0,1-2.66,6.64c-1,1.7-2.65,4-2.84,5.69s-.57,4.95-1.33,6.08-.92,2.09-3.22,2.47a14.94,14.94,0,0,1-4.57.38c-.76-.19-2.09-1.52-3-2.09s-3-3.77-4-4.93a29.27,29.27,0,0,1-3.81-4.95c-.95-1.89-3.22-6.06-4.55-6.63a18.23,18.23,0,0,0-5.69-2.28,196.62,196.62,0,0,1-20.13-7.41c-2.66-1.33-13.06-4-14.6-4.93s-12.56-6.66-17.1-8.74-11.4-6.64-15-8.72a28,28,0,0,0-5.69-2.68l-3.22-.95s2.65-3.2-.57-9.85v-7.42l5.69-4.93s3.2-1.13,4.55.38,3.07,1.08,5.34-.69,7-5.56,7-5.56,2.43-.49.93-5.66c.21,0-2.09-2.71.21-5a31.66,31.66,0,0,0,2.48-2.65l.19-2.09,1-4.19s1.21-2.24,4.3-.84c2.72.65,7.07,1.6,7.07,1.6s2.91,1.29,4.59.17c1.31.4,2.83,1,18.59,1-.19.19,4.54,4.2,5.68,4.95s3.25,1.52,4.57,4c1.71.56,5.5-.19,7,0s4.71,1.13,6.25,1.13,3.06.19,3.82-.19,4.17-2.27,4.55,0c.38,1.71.19,2.09,1.13,2.85s1.14,1.68,1.33,3.22,0,2.87,1.33,4.19,2.84,3.22,2.84,3.22a8.83,8.83,0,0,0,.38,3.42c.57,1.51.4,4.38,4.76,7.41C211.42,174.72,215.21,174.53,215.21,174.53Z"/><path class="cls-1" d="M215.21,174.53a6.19,6.19,0,0,1,.38,3.6c-.38,2.09,0,2.28-.76,3.41s-1.89,2.09-1.89,3.61-.38,1.35.57,2.1,1.7,1.52.94,2.47-1.51,2.27.57,4.74,2.09,4,2.47,5.68a65.71,65.71,0,0,0,2.65,7.23c.76,1.89,1.52.76,0,3.6a25.85,25.85,0,0,0-2.65,8,23.13,23.13,0,0,1-2.66,6.64c-1,1.7-2.65,4-2.84,5.69s-.57,4.95-1.33,6.08-.92,2.09-3.22,2.47a14.94,14.94,0,0,1-4.57.38c-.76-.19-2.09-1.52-3-2.09s-3-3.77-4-4.93a29.27,29.27,0,0,1-3.81-4.95c-.95-1.89-3.22-6.06-4.55-6.63a18.23,18.23,0,0,0-5.69-2.28,196.62,196.62,0,0,1-20.13-7.41c-2.66-1.33-13.06-4-14.6-4.93s-12.56-6.66-17.1-8.74-11.4-6.64-15-8.72a28,28,0,0,0-5.69-2.68l-3.22-.95s2.65-3.2-.57-9.85v-7.42l5.69-4.93s3.2-1.13,4.55.38,3.07,1.08,5.34-.69,7-5.56,7-5.56,2.43-.49.93-5.66c.21,0-2.09-2.71.21-5a31.66,31.66,0,0,0,2.48-2.65l.19-2.09,1-4.19s1.21-2.24,4.3-.84c2.72.65,7.07,1.6,7.07,1.6s2.91,1.29,4.59.17c1.31.4,2.83,1,18.59,1-.19.19,4.54,4.2,5.68,4.95s3.25,1.52,4.57,4c1.71.56,5.5-.19,7,0s4.71,1.13,6.25,1.13,3.06.19,3.82-.19,4.17-2.27,4.55,0c.38,1.71.19,2.09,1.13,2.85s1.14,1.68,1.33,3.22,0,2.87,1.33,4.19,2.84,3.22,2.84,3.22a8.83,8.83,0,0,0,.38,3.42c.57,1.51.4,4.38,4.76,7.41C211.42,174.72,215.21,174.53,215.21,174.53Z"/><path class="cls-1" d="M210.66,237.17c5.88-1.32,7.63-5.4,13.08-7.58s7.39-5.45,12.13-8.91c5.26-3.84,7.78-6.68,11.57-12.13,1.61-2.32,3.74-2.51,5.35-4.74,1.33-1.8,2.86-3.48,5-2.72,2.8,0,4.22-1.8,6-3.93,1-1.23,2.51-.71,4-1.33s1.94-1.85,2.7-3.22c1.18-2.18,3-3.86,1.92-6.14-2.37,0-3.89.76-6.07-.19-.85-.38,0-1.51.19-2.41s-.52-1.43-.38-2.28c.43-2.18,1.76-3.13,1.9-5.35-1.57.09-2.28,1-3.79,1.28-3.84.61-6.12-1-9.86-1.85-4-1-6.59-1-10.24-3-1.09-.57-1.56-1.47-2.84-1.56-2.89-.24-4.17,1.85-6.87,2.89-2.32.9-3.93,0-6.45,0-4.88,0-7.76-.38-12.55.71.57,3.27-.28,5.36-1.66,8.29s-1.56,2.54-.23,4.24c.37.38,1.32,1.71,1.32,1.71l-1.14,2.84,3.42,5.69V199l3,8.36,1.14,1.71s-3.23,5.66-3.6,8.34-1.52,6.08-2.28,7-3,4.17-3.22,5.5-.38,4.57-.38,4.57Z"/><path class="cls-1" d="M210.66,237.17c5.88-1.32,7.63-5.4,13.08-7.58s7.39-5.45,12.13-8.91c5.26-3.84,7.78-6.68,11.57-12.13,1.61-2.32,3.74-2.51,5.35-4.74,1.33-1.8,2.86-3.48,5-2.72,2.8,0,4.22-1.8,6-3.93,1-1.23,2.51-.71,4-1.33s1.94-1.85,2.7-3.22c1.18-2.18,3-3.86,1.92-6.14-2.37,0-3.89.76-6.07-.19-.85-.38,0-1.51.19-2.41s-.52-1.43-.38-2.28c.43-2.18,1.76-3.13,1.9-5.35-1.57.09-2.28,1-3.79,1.28-3.84.61-6.12-1-9.86-1.85-4-1-6.59-1-10.24-3-1.09-.57-1.56-1.47-2.84-1.56-2.89-.24-4.17,1.85-6.87,2.89-2.32.9-3.93,0-6.45,0-4.88,0-7.76-.38-12.55.71.57,3.27-.28,5.36-1.66,8.29s-1.56,2.54-.23,4.24c.37.38,1.32,1.71,1.32,1.71l-1.14,2.84,3.42,5.69V199l3,8.36,1.14,1.71s-3.23,5.66-3.6,8.34-1.52,6.08-2.28,7-3,4.17-3.22,5.5-.38,4.57-.38,4.57Z"/><path class="cls-1" d="M272.74,187.06a2.5,2.5,0,0,1,2.08-.4,2.63,2.63,0,0,0,2.66.19,5.16,5.16,0,0,1,3.6-.57,26.8,26.8,0,0,0,5.52,0c1.51-.19,4.74-.59,4.74.57s-.95,3.63-1.9,4.19-3.41,3.8-3.41,5.5a43.53,43.53,0,0,0,.76,5.69c.38,2.67.19,2.49.56,4.38s.57,3.41.19,4.36-1.7,4.15-1.51,5.5a6,6,0,0,1-.19,3.24c-.38.95-.57,3.6.38,4.17s3,3,4.55,4,1.13,1.71,2.27,2.47,2.66,1.7,3.41,1.7,3.06,2.49,3.25,3.25.57.76,2.08,2.08a56.23,56.23,0,0,0,4.74,3.42l-.38-19.36,12.92-.19s.75-3.63-.19-4.95-1.9-2.28-2.28-3.6-1.14-3.23,1.14-2.66,2.84-.57,3.41-1.51.95-2.66,2.84-1.71,4.93,2.28,4-1-1.89-4.38-2.08-7.79.38-9.5-.19-11.78-1.52-4.55-1.52-6.25a23.63,23.63,0,0,0-.75-4.55s-3.42,3.6-5.31,2.84-10.26-3-12.35-3.6-6.08-2.87-8-3.06-3-1.16-5.12,0-6,1.54-9.1,1.54a24.22,24.22,0,0,0-3.81,0,18.08,18.08,0,0,1-3.22,0,20.57,20.57,0,0,1-3.22-.75l-1.33-.57-2.09,3.22-1.13,1.14H268l-.59,2.65a3.38,3.38,0,0,0-1.14,3.41,6.86,6.86,0,0,1,.21,1.57s-2.13,2.79,1.31,2.79h3S272.74,185.74,272.74,187.06Z"/><path class="cls-1" d="M272.74,187.06a2.5,2.5,0,0,1,2.08-.4,2.63,2.63,0,0,0,2.66.19,5.16,5.16,0,0,1,3.6-.57,26.8,26.8,0,0,0,5.52,0c1.51-.19,4.74-.59,4.74.57s-.95,3.63-1.9,4.19-3.41,3.8-3.41,5.5a43.53,43.53,0,0,0,.76,5.69c.38,2.67.19,2.49.56,4.38s.57,3.41.19,4.36-1.7,4.15-1.51,5.5a6,6,0,0,1-.19,3.24c-.38.95-.57,3.6.38,4.17s3,3,4.55,4,1.13,1.71,2.27,2.47,2.66,1.7,3.41,1.7,3.06,2.49,3.25,3.25.57.76,2.08,2.08a56.23,56.23,0,0,0,4.74,3.42l-.38-19.36,12.92-.19s.75-3.63-.19-4.95-1.9-2.28-2.28-3.6-1.14-3.23,1.14-2.66,2.84-.57,3.41-1.51.95-2.66,2.84-1.71,4.93,2.28,4-1-1.89-4.38-2.08-7.79.38-9.5-.19-11.78-1.52-4.55-1.52-6.25a23.63,23.63,0,0,0-.75-4.55s-3.42,3.6-5.31,2.84-10.26-3-12.35-3.6-6.08-2.87-8-3.06-3-1.16-5.12,0-6,1.54-9.1,1.54a24.22,24.22,0,0,0-3.81,0,18.08,18.08,0,0,1-3.22,0,20.57,20.57,0,0,1-3.22-.75l-1.33-.57-2.09,3.22-1.13,1.14H268l-.59,2.65a3.38,3.38,0,0,0-1.14,3.41,6.86,6.86,0,0,1,.21,1.57s-2.13,2.79,1.31,2.79h3S272.74,185.74,272.74,187.06Z"/><path class="cls-1" d="M231.72,224.83s.17.57,3.61.57,3.43-.38,6.46,0,3-.19,5.12.57,2.63,1.14,5.12.57a13.66,13.66,0,0,1,7,.38c1.13.56,2.08,1.51,4.73,1.13a10.68,10.68,0,0,1,6.09.57,30.1,30.1,0,0,0,5.5,1.14,6.42,6.42,0,0,0,3.6-1.33,18.44,18.44,0,0,0,3.41-3.22,14.83,14.83,0,0,1,3.06-2.27s1-4.34.76-5.12a12.37,12.37,0,0,1,.38-3.63c.19-.94.94-3.22.94-3.22s0-2.84-.19-4.36-1.13-8-1.13-8-.76-4.36,1.51-6.07,3.42-3.79,3.42-4.55-.57-1.92-2.66-1.92-8,.19-8.93.19-3.79,1.71-4.74.38c-.19-.19-1.89-.73-2.08.4a18.06,18.06,0,0,1-1.71,5.12c-.76,1.14-1.11,2.85-2.65,3.41s-1.92-.19-3.06.76-2.84,1.9-4,3.41-3.6,1.33-3.6,1.33-1.49-.78-3.41.76-1.16,2.3-3.25,3.62-3.41,2.09-4.36,3.61-3,5.11-4.36,6.25-6.49,5.35-6.49,5.35l-3,2.63Z"/><path class="cls-1" d="M231.72,224.83s.17.57,3.61.57,3.43-.38,6.46,0,3-.19,5.12.57,2.63,1.14,5.12.57a13.66,13.66,0,0,1,7,.38c1.13.56,2.08,1.51,4.73,1.13a10.68,10.68,0,0,1,6.09.57,30.1,30.1,0,0,0,5.5,1.14,6.42,6.42,0,0,0,3.6-1.33,18.44,18.44,0,0,0,3.41-3.22,14.83,14.83,0,0,1,3.06-2.27s1-4.34.76-5.12a12.37,12.37,0,0,1,.38-3.63c.19-.94.94-3.22.94-3.22s0-2.84-.19-4.36-1.13-8-1.13-8-.76-4.36,1.51-6.07,3.42-3.79,3.42-4.55-.57-1.92-2.66-1.92-8,.19-8.93.19-3.79,1.71-4.74.38c-.19-.19-1.89-.73-2.08.4a18.06,18.06,0,0,1-1.71,5.12c-.76,1.14-1.11,2.85-2.65,3.41s-1.92-.19-3.06.76-2.84,1.9-4,3.41-3.6,1.33-3.6,1.33-1.49-.78-3.41.76-1.16,2.3-3.25,3.62-3.41,2.09-4.36,3.61-3,5.11-4.36,6.25-6.49,5.35-6.49,5.35l-3,2.63Z"/><path class="cls-1" d="M276.34,229.76c-.19,0,.19,2.11,0,3.81s-1.33,5.69-1.14,7a61.39,61.39,0,0,1,.19,8.36c-.19,1.33-.19,2.65-.76,3.41a33.56,33.56,0,0,0-2.84,5.31c-.57,1.52-1.71,3.05-1.52,6.09s-1.7,16.7-1.14,19.35-.56,4.55.38,6.45,1.9,3.43,5.69,5.71,10.64,4.55,11.78,5.31a19.94,19.94,0,0,0,1.89,1.13s12.91,1.52,14.43,1.33,1.71-.19,5.69-1,5.52-1.51,8-2.08a3.24,3.24,0,0,0,1.14-6.07c-1.71-1.35-4.74-2.68-3.79-4s1.7-2.47,2.84-2.28a4.2,4.2,0,0,0,2.27-.38s-.37-3.22,1.52-2.08,4.36,2.84,3.79,0-.38-6.66-2.27-7.8-7.18-1.89-8.15-3.6-1.52-4.17,0-5.11,4.36-4.58,4.55-6.85.19-3.79.19-6.64.56-8-1.14-6.82-7.42,4.17-8.55,4.74a9.07,9.07,0,0,1-2.28.76s-.38-3.39-.57-5.31,0-7.79,0-7.79l-5.87-4s-1.16-2.85-2.3-3.42l-3.41-1.73a12.77,12.77,0,0,1-1.9-1.32l-7.58-7.39s-2.11,1.7-3.06,2.27a9,9,0,0,0-2.65,2.65C279.37,228.62,277.66,229.38,276.34,229.76Z"/><path class="cls-1" d="M276.34,229.76c-.19,0,.19,2.11,0,3.81s-1.33,5.69-1.14,7a61.39,61.39,0,0,1,.19,8.36c-.19,1.33-.19,2.65-.76,3.41a33.56,33.56,0,0,0-2.84,5.31c-.57,1.52-1.71,3.05-1.52,6.09s-1.7,16.7-1.14,19.35-.56,4.55.38,6.45,1.9,3.43,5.69,5.71,10.64,4.55,11.78,5.31a19.94,19.94,0,0,0,1.89,1.13s12.91,1.52,14.43,1.33,1.71-.19,5.69-1,5.52-1.51,8-2.08a3.24,3.24,0,0,0,1.14-6.07c-1.71-1.35-4.74-2.68-3.79-4s1.7-2.47,2.84-2.28a4.2,4.2,0,0,0,2.27-.38s-.37-3.22,1.52-2.08,4.36,2.84,3.79,0-.38-6.66-2.27-7.8-7.18-1.89-8.15-3.6-1.52-4.17,0-5.11,4.36-4.58,4.55-6.85.19-3.79.19-6.64.56-8-1.14-6.82-7.42,4.17-8.55,4.74a9.07,9.07,0,0,1-2.28.76s-.38-3.39-.57-5.31,0-7.79,0-7.79l-5.87-4s-1.16-2.85-2.3-3.42l-3.41-1.73a12.77,12.77,0,0,1-1.9-1.32l-7.58-7.39s-2.11,1.7-3.06,2.27a9,9,0,0,0-2.65,2.65C279.37,228.62,277.66,229.38,276.34,229.76Z"/><path class="cls-1" d="M202.87,240.21c.19.19-.19.94.38,1.7a15.45,15.45,0,0,1,2.27,3.41c.38,1.14.76.36.76,1.9s-1.52,3.44-1.71,4.19-1.7,4-1.7,4a49,49,0,0,0-1.52,4.74c-.38,1.71-.57,1.54-1.7,3.63a20.48,20.48,0,0,0-1.71,4.55s2.84.38,4,1.51a13.86,13.86,0,0,0,4.36,2.66c1.73.75,6.85,4,8.55,4.74s2.85,1.53,3.79,1.53,5.71.38,8,.38,3.22-.78,3.22-1.73,1.52-2.08,2.08-3.6,0-3.6.76-4.74.38-1.32,2.28-2.08a17.69,17.69,0,0,0,3.24-1.71s2.28-2.08,4.74-1.51,3.22.38,4.36,0,1.33-.38,3,0a7.19,7.19,0,0,0,3.63-.38,7.3,7.3,0,0,1-.76-4.76,44.39,44.39,0,0,0,.38-8s-.59-5-3.06-5.71a17.44,17.44,0,0,1-3.41-1.33s-1.89-.19-1.52-4.17a40.06,40.06,0,0,1,.95-6.07l2.09-3.62-.19-3.22s-5.12-.95-6.64-1.14a36.54,36.54,0,0,0-4.57,0,18.36,18.36,0,0,0-3.41.19c-.76.19-2.09-.76-2.09-.76l-3.6,2.28-3.41,2.08a47.78,47.78,0,0,0-5.14,3c-1.14,1-.95,1.35-2.65,2.3s-3.79,1.9-3.79,1.9l-2.47.94a4.13,4.13,0,0,1-3.22,2.47C207,239.83,204,240.78,202.87,240.21Z"/><path class="cls-1" d="M202.87,240.21c.19.19-.19.94.38,1.7a15.45,15.45,0,0,1,2.27,3.41c.38,1.14.76.36.76,1.9s-1.52,3.44-1.71,4.19-1.7,4-1.7,4a49,49,0,0,0-1.52,4.74c-.38,1.71-.57,1.54-1.7,3.63a20.48,20.48,0,0,0-1.71,4.55s2.84.38,4,1.51a13.86,13.86,0,0,0,4.36,2.66c1.73.75,6.85,4,8.55,4.74s2.85,1.53,3.79,1.53,5.71.38,8,.38,3.22-.78,3.22-1.73,1.52-2.08,2.08-3.6,0-3.6.76-4.74.38-1.32,2.28-2.08a17.69,17.69,0,0,0,3.24-1.71s2.28-2.08,4.74-1.51,3.22.38,4.36,0,1.33-.38,3,0a7.19,7.19,0,0,0,3.63-.38,7.3,7.3,0,0,1-.76-4.76,44.39,44.39,0,0,0,.38-8s-.59-5-3.06-5.71a17.44,17.44,0,0,1-3.41-1.33s-1.89-.19-1.52-4.17a40.06,40.06,0,0,1,.95-6.07l2.09-3.62-.19-3.22s-5.12-.95-6.64-1.14a36.54,36.54,0,0,0-4.57,0,18.36,18.36,0,0,0-3.41.19c-.76.19-2.09-.76-2.09-.76l-3.6,2.28-3.41,2.08a47.78,47.78,0,0,0-5.14,3c-1.14,1-.95,1.35-2.65,2.3s-3.79,1.9-3.79,1.9l-2.47.94a4.13,4.13,0,0,1-3.22,2.47C207,239.83,204,240.78,202.87,240.21Z"/><path class="cls-1" d="M197.94,268.31a3.41,3.41,0,0,0-1.33,3.22c.19,2.27-.76,3-.57,4.55a3.21,3.21,0,0,1-1.7,3.43c-1.33.76-2.49,1.33-2.68,2.47s-.57.19-.95,1.7-1.51,1.71-1.32,3.6-1.14,1.9-1.9,2.09-2.08.17-1.89,2.08.75,2.87-.57,3.63a8.79,8.79,0,0,0-3,3.41c-.75,1.33-.94.19-1.51,2.28s-1.9,1.51-2.28,2.65-.59,2.27-2.48,1.14a24.76,24.76,0,0,1-3.8-2.85c-1.89-1.51-1.51-2.27-3-1.89s-3,0-4.74.19a30.8,30.8,0,0,1-4.19,0c-1.52,0-2.27-1.14-4.17-.19s-2.27,1.7-3,.57.57-.76-1.52-2.09-2.08-.57-3.41-2.46-2.68-1.16-2.49-3.44.21-2.27,1.16-3.6a11.78,11.78,0,0,0,2.09-3.6c.38-1.33.76-3,.76-3l.56-3s1-2.1,2.28-2.48,2.27-1.52,4.17-3.42S156.93,271,159,270s2.68,0,3.82-2.08.75-2.66,2.08-3.41,3-1.73,3.6-3.25.19-3.79,1-4.93.76-1.89,2.28-2.65a5.38,5.38,0,0,0,3.22-4.36c.38-2.49.76-4.38.76-4.38a3.65,3.65,0,0,1,.56-2.85c1-1.51-.16-2.27,1.54-3s2.66.57,4.17-.76,1.71-1.51,2.28-2.84.38-2.47,1.51-2.47,2.66-1.54,2.66-1.54-.38-1.13,1.14-1.51a4.85,4.85,0,0,0,2.46-1.71,60.83,60.83,0,0,0,3.81,4.95c1.14,1.14,3.23,4.17,4,4.93a22.15,22.15,0,0,0,3,2.09l.38,1.7,2.27,3.41a3.49,3.49,0,0,1,.38,3.63c-1,2.08-3,6.44-3,6.44a29.52,29.52,0,0,1-1.52,4.74c-.76,1.52-1.7,3.63-1.7,3.63Z"/><path class="cls-1" d="M197.94,268.31a3.41,3.41,0,0,0-1.33,3.22c.19,2.27-.76,3-.57,4.55a3.21,3.21,0,0,1-1.7,3.43c-1.33.76-2.49,1.33-2.68,2.47s-.57.19-.95,1.7-1.51,1.71-1.32,3.6-1.14,1.9-1.9,2.09-2.08.17-1.89,2.08.75,2.87-.57,3.63a8.79,8.79,0,0,0-3,3.41c-.75,1.33-.94.19-1.51,2.28s-1.9,1.51-2.28,2.65-.59,2.27-2.48,1.14a24.76,24.76,0,0,1-3.8-2.85c-1.89-1.51-1.51-2.27-3-1.89s-3,0-4.74.19a30.8,30.8,0,0,1-4.19,0c-1.52,0-2.27-1.14-4.17-.19s-2.27,1.7-3,.57.57-.76-1.52-2.09-2.08-.57-3.41-2.46-2.68-1.16-2.49-3.44.21-2.27,1.16-3.6a11.78,11.78,0,0,0,2.09-3.6c.38-1.33.76-3,.76-3l.56-3s1-2.1,2.28-2.48,2.27-1.52,4.17-3.42S156.93,271,159,270s2.68,0,3.82-2.08.75-2.66,2.08-3.41,3-1.73,3.6-3.25.19-3.79,1-4.93.76-1.89,2.28-2.65a5.38,5.38,0,0,0,3.22-4.36c.38-2.49.76-4.38.76-4.38a3.65,3.65,0,0,1,.56-2.85c1-1.51-.16-2.27,1.54-3s2.66.57,4.17-.76,1.71-1.51,2.28-2.84.38-2.47,1.51-2.47,2.66-1.54,2.66-1.54-.38-1.13,1.14-1.51a4.85,4.85,0,0,0,2.46-1.71,60.83,60.83,0,0,0,3.81,4.95c1.14,1.14,3.23,4.17,4,4.93a22.15,22.15,0,0,0,3,2.09l.38,1.7,2.27,3.41a3.49,3.49,0,0,1,.38,3.63c-1,2.08-3,6.44-3,6.44a29.52,29.52,0,0,1-1.52,4.74c-.76,1.52-1.7,3.63-1.7,3.63Z"/><path class="cls-1" d="M145.72,293.56a17.57,17.57,0,0,0-3.6,1.33,30,30,0,0,0-3,1.71l-2.47,1.51-2.08.57a6.1,6.1,0,0,0-1.52-2.27c-1-.76-5-2.87-6.28-3.82a17.51,17.51,0,0,1-4.17-3.41,11.54,11.54,0,0,0-3.41-2.84c-1.33-.95-2.84-2.09-2.84-3s-1.35-4.95-1.54-6.27-1.33-3.8-1.52-5.69-1.51-5.66-1.7-7-1.14-2.49-1.33-3.82a14.26,14.26,0,0,0-1-3s-.57-1.71.38-2.47a5.68,5.68,0,0,1,3.41-.75,4,4,0,0,0,2.85-1.33,5.13,5.13,0,0,1,3-1.14c1-.19,1.33-1.89,1.33-1.89s.57-1.71,2.08-1.52a28.45,28.45,0,0,0,5.69,0c1.33-.19,1.68-1.33,2.84-.19a3,3,0,0,0,2.87.57s2.84-2.11,3.79-2.87.76-1.13,2.28-1.32a9.09,9.09,0,0,0,2.65-.76s2.27-2.84,2.27-4.36-.57-.38,0-3.41a8.34,8.34,0,0,1,2.87-4.76s.38.94,1.9-.95a9.43,9.43,0,0,1,4.92-3c1.33-.37,2.66-.18,2.09-2.08s.57-3.41-1.71-3.41-1.14.76-3.79.76-3.24-.76-4.76.19-2.46,1.7-3.6,1.7h-3.22c-1.9,0-2.85-.19-4,.38s-.74-.57-3,.95-2.67.76-4.95,2.08-3,.38-4.55-.38-2.65-2.08-4-2.27,1.92-.76-2.65,0a23.9,23.9,0,0,1-6.28.57c-1.52,0-1.9-.57-3.22-.38s-1.71.57-2.28-.76-.38-3-1.7-1.14-1.31,1.71-1.9,1.9a3.24,3.24,0,0,1-1.73-.38s1-.57.38-3.22a20,20,0,0,1-.76-6.47c.19-2.27.74-6.07,1.71-7.39a10.93,10.93,0,0,0,2.3-5.9c0-2.28-.38-4.74.19-7.39s.87-5.51.87-5.51l2.16-3.24a24.88,24.88,0,0,1,10.45,4.58c4.93,3.79,27.48,14.05,29.59,16.32,1.54.38,32.86,11.21,38.74,13.67,2.08.95,4.17,1.9,5.12,3.79s2.08,4,2.08,4a4.39,4.39,0,0,1-1.33,1.14c-.75.38-2.46.57-2.27,1.33s-.95,1.89-.95,1.89a2.35,2.35,0,0,0-2.65,1.92c-.57,2.28-1,1.9-1.52,2.65s-1.14,1.71-2.46,1.71-3.25-.95-4.2,2.27a39.62,39.62,0,0,0-1.7,8.18c0,1.51,0,2.65-1.33,3.6s-1.89-.38-3,1.9a27.08,27.08,0,0,0-1.9,5.49,5.16,5.16,0,0,1-2.08,3.25c-1.33.95-2.47.57-3.41,3.22a4.54,4.54,0,0,1-3.44,3.22c-1,.38-1.89.38-2.65,1.9a6.77,6.77,0,0,1-2.85,3.41c-1.89,1.33-2.27,1.11-3.22,2.27s-1.89,1.92-1.7,3.63a9.51,9.51,0,0,1-1.52,5.69c-1,1.13-2.49,2.08-2.49,3.41A21,21,0,0,0,145.72,293.56Z"/><path class="cls-1" d="M145.72,293.56a17.57,17.57,0,0,0-3.6,1.33,30,30,0,0,0-3,1.71l-2.47,1.51-2.08.57a6.1,6.1,0,0,0-1.52-2.27c-1-.76-5-2.87-6.28-3.82a17.51,17.51,0,0,1-4.17-3.41,11.54,11.54,0,0,0-3.41-2.84c-1.33-.95-2.84-2.09-2.84-3s-1.35-4.95-1.54-6.27-1.33-3.8-1.52-5.69-1.51-5.66-1.7-7-1.14-2.49-1.33-3.82a14.26,14.26,0,0,0-1-3s-.57-1.71.38-2.47a5.68,5.68,0,0,1,3.41-.75,4,4,0,0,0,2.85-1.33,5.13,5.13,0,0,1,3-1.14c1-.19,1.33-1.89,1.33-1.89s.57-1.71,2.08-1.52a28.45,28.45,0,0,0,5.69,0c1.33-.19,1.68-1.33,2.84-.19a3,3,0,0,0,2.87.57s2.84-2.11,3.79-2.87.76-1.13,2.28-1.32a9.09,9.09,0,0,0,2.65-.76s2.27-2.84,2.27-4.36-.57-.38,0-3.41a8.34,8.34,0,0,1,2.87-4.76s.38.94,1.9-.95a9.43,9.43,0,0,1,4.92-3c1.33-.37,2.66-.18,2.09-2.08s.57-3.41-1.71-3.41-1.14.76-3.79.76-3.24-.76-4.76.19-2.46,1.7-3.6,1.7h-3.22c-1.9,0-2.85-.19-4,.38s-.74-.57-3,.95-2.67.76-4.95,2.08-3,.38-4.55-.38-2.65-2.08-4-2.27,1.92-.76-2.65,0a23.9,23.9,0,0,1-6.28.57c-1.52,0-1.9-.57-3.22-.38s-1.71.57-2.28-.76-.38-3-1.7-1.14-1.31,1.71-1.9,1.9a3.24,3.24,0,0,1-1.73-.38s1-.57.38-3.22a20,20,0,0,1-.76-6.47c.19-2.27.74-6.07,1.71-7.39a10.93,10.93,0,0,0,2.3-5.9c0-2.28-.38-4.74.19-7.39s.87-5.51.87-5.51l2.16-3.24a24.88,24.88,0,0,1,10.45,4.58c4.93,3.79,27.48,14.05,29.59,16.32,1.54.38,32.86,11.21,38.74,13.67,2.08.95,4.17,1.9,5.12,3.79s2.08,4,2.08,4a4.39,4.39,0,0,1-1.33,1.14c-.75.38-2.46.57-2.27,1.33s-.95,1.89-.95,1.89a2.35,2.35,0,0,0-2.65,1.92c-.57,2.28-1,1.9-1.52,2.65s-1.14,1.71-2.46,1.71-3.25-.95-4.2,2.27a39.62,39.62,0,0,0-1.7,8.18c0,1.51,0,2.65-1.33,3.6s-1.89-.38-3,1.9a27.08,27.08,0,0,0-1.9,5.49,5.16,5.16,0,0,1-2.08,3.25c-1.33.95-2.47.57-3.41,3.22a4.54,4.54,0,0,1-3.44,3.22c-1,.38-1.89.38-2.65,1.9a6.77,6.77,0,0,1-2.85,3.41c-1.89,1.33-2.27,1.11-3.22,2.27s-1.89,1.92-1.7,3.63a9.51,9.51,0,0,1-1.52,5.69c-1,1.13-2.49,2.08-2.49,3.41A21,21,0,0,0,145.72,293.56Z"/><path class="cls-1" d="M180.48,300.77a12.93,12.93,0,0,0,5.28,1.27c2.81,0,6.1.21,8.69.43s5.58.43,10,.86,7.19,1.3,10,1.3,6.06-1.51,6.49.22.22,3.07.65,4.59-.22,3.24-1.08,4.75-2.82,3.68-3,5.2a32.72,32.72,0,0,1-1.08,4.11s-3.9,5.67-.22,4.37c4.33-.22,7-1.73,8.48-1.73s5.84-.44,7.57-.44,4.81-1.47,6.54-1.73,1.29.82,2.16-.47.65-1.73.86-3.46,1.74-3,.22-5.85-2.16-3.89-2.16-3.89l-.65-5s2.59-2.38,1.73-5,.65-4.72.86-6.28a10.75,10.75,0,0,0-.43-3.72s1.3,0,1.08-2.16-.43-1.95-.43-3.25a47.93,47.93,0,0,1,.65-4.76,6.14,6.14,0,0,1,1.95-3.93c.86-.65,3.46-3.68,4.76-4.55a5.22,5.22,0,0,0,2.59-3,8.4,8.4,0,0,0,.65-2.59l1.39-2.66a5.22,5.22,0,0,1-4.42.28,6,6,0,0,0-2.24.1s.08.55-2.08.33-3.25-.43-4.76.22a25.32,25.32,0,0,0-4.81,2.59c-1.08.87-3.46,2-3.46,4.11s-.43,2.38-1.08,3.9a7.4,7.4,0,0,1-1.27,2.49c-.68.8-.36,1.81-3.22,1.73s-5.07-.07-5.94-.07-1.08-.43-3-.65c-1-.11-4-2-7.11-3.54s-6-2.57-6.56-3a14.24,14.24,0,0,0-3.68-2.6c-1.29-.43-2.81-1.51-3.46.87a22.72,22.72,0,0,0-.65,4.54c0,1.08.22,2.12-.43,3a11.39,11.39,0,0,1-1.41,1.79c-1,1.07-2.78,3.17-3.63,4.17a3.59,3.59,0,0,0-1.06,2.95c0,1.52.43,1.52-.65,2.17a13.65,13.65,0,0,1-2.38,1.08s-.86-.26-.86,2.38.7,1.7-.73,2.82a12.77,12.77,0,0,0-2.74,2.41A19.16,19.16,0,0,0,180.48,300.77Z"/><path class="cls-1" d="M180.48,300.77a12.93,12.93,0,0,0,5.28,1.27c2.81,0,6.1.21,8.69.43s5.58.43,10,.86,7.19,1.3,10,1.3,6.06-1.51,6.49.22.22,3.07.65,4.59-.22,3.24-1.08,4.75-2.82,3.68-3,5.2a32.72,32.72,0,0,1-1.08,4.11s-3.9,5.67-.22,4.37c4.33-.22,7-1.73,8.48-1.73s5.84-.44,7.57-.44,4.81-1.47,6.54-1.73,1.29.82,2.16-.47.65-1.73.86-3.46,1.74-3,.22-5.85-2.16-3.89-2.16-3.89l-.65-5s2.59-2.38,1.73-5,.65-4.72.86-6.28a10.75,10.75,0,0,0-.43-3.72s1.3,0,1.08-2.16-.43-1.95-.43-3.25a47.93,47.93,0,0,1,.65-4.76,6.14,6.14,0,0,1,1.95-3.93c.86-.65,3.46-3.68,4.76-4.55a5.22,5.22,0,0,0,2.59-3,8.4,8.4,0,0,0,.65-2.59l1.39-2.66a5.22,5.22,0,0,1-4.42.28,6,6,0,0,0-2.24.1s.08.55-2.08.33-3.25-.43-4.76.22a25.32,25.32,0,0,0-4.81,2.59c-1.08.87-3.46,2-3.46,4.11s-.43,2.38-1.08,3.9a7.4,7.4,0,0,1-1.27,2.49c-.68.8-.36,1.81-3.22,1.73s-5.07-.07-5.94-.07-1.08-.43-3-.65c-1-.11-4-2-7.11-3.54s-6-2.57-6.56-3a14.24,14.24,0,0,0-3.68-2.6c-1.29-.43-2.81-1.51-3.46.87a22.72,22.72,0,0,0-.65,4.54c0,1.08.22,2.12-.43,3a11.39,11.39,0,0,1-1.41,1.79c-1,1.07-2.78,3.17-3.63,4.17a3.59,3.59,0,0,0-1.06,2.95c0,1.52.43,1.52-.65,2.17a13.65,13.65,0,0,1-2.38,1.08s-.86-.26-.86,2.38.7,1.7-.73,2.82a12.77,12.77,0,0,0-2.74,2.41A19.16,19.16,0,0,0,180.48,300.77Z"/><path class="cls-2" d="M240.78,298.52c-.44-1.77.44-1.77.66-3.54q32.43,2.28,39.37,2.74l2.08,1.24c4.2.45,6,2.75,6,2.75l-1.2,4.12a14.85,14.85,0,0,1,0,3.67c-.22,2.57-1.11,4.21-1.11,7.08a18.46,18.46,0,0,1-.44,5.54,13.29,13.29,0,0,0-.45,3.23s.45,1.33,1.55,1.55,2.22,1.33,4,2.66,1.77.88,4.21,1.55,3.45-.67,5-.45,1.11,3.1,0,5.32.22,3,0,5.22a1.93,1.93,0,0,0,2,2.22,7.92,7.92,0,0,0,3.54,0,38.72,38.72,0,0,1,5.1-.67c2-.22,2.78,1.11,3.45,2.88s1.33,1.77,1.55,2.88.44,2.43-.44,3.32-2,0-3.68.44-1.11.89-2.88.44a2.15,2.15,0,0,1-1.77-2,10.85,10.85,0,0,1-2.21,2c-1.11.67-.89,2.57-1.11,3.68a3.72,3.72,0,0,1-2,2.88c-1.33.66-1.55,1.1-1.55,1.1l-1.77,3.1-1.46,4.65-2.88,1.46a13,13,0,0,0-1.11,3.1c-.66,2.44,0,3.1,0,3.1a13.39,13.39,0,0,1,2.22,2.44,4.4,4.4,0,0,0,.85,1.12,4.59,4.59,0,0,0,1.14.43c1.33.44,1.68.44,2.12,1.55s-.88.88-.44,2.65,1.77-.44,2.66-.44,1.55-.44,3.1-1.77,1.55-.89,3.54,1.11.66.66,3.76,1.68,1.91,1.33,1.91,1.33a24.48,24.48,0,0,1,4,2.88c2,1.77,2,1.1,2.88,1.55a4,4,0,0,0,2.88.66c1.33-.22.88,0,3.32,2.21s.66.22,1.1-.88.58-1.55,1.69-1.77a.86.86,0,0,1,1.1.88c2-1.1.45.22,1.33,2s-.22.89,1.33,2.66.89.22,1.33,1.11,3.1,2.79,2.21,2.43-3.54,1.46-4.2,3.24-2,.22-3.32-.23-1.24,3.1-1.24,5.32-2.44.88-2.44.88a24.9,24.9,0,0,0-1.33-2.65c-.66-1.11-.44-1.11.45-2.44s-1.33-.88-1.78-1.77-.88-4.34-1.32-5.45-.45.45-.67,1.33.67,2.79,0,4.34-.44.67.67,1.55,1.1.44,1.55,1.33.44,2.88.66,4.21,2.44,1.55,3.54,1.55,1.46-1.78,1.46-3.77,1.55-1.77,2.66-1.77,2.88,3.76,2.88,3.76l4,4a25.64,25.64,0,0,1,1.11,3.23c.44,1.68-.44,1.33-1.55,1.33s-.66-1.33-1.11-2.66-1.77.45-1.77.45l-1.77.88a17.37,17.37,0,0,0-3.54.89,3.39,3.39,0,0,0-1.4-.59,4.32,4.32,0,0,1-.28-1.63s-.67.22-.23,1.11c.19.37.32.47.51.52a1,1,0,0,0,1.4.59c1.33.88,1.33.88,3.1.22s1.33-.67,3.1.44.22,2.44-1.11,3.1a6.15,6.15,0,0,0-2.66,2.66c-.66,1.1-3.32.66-4.34-.45a2.49,2.49,0,0,0-3.54-.22c-1.1.89-1.33-.22-1.77-2s-2.43-1.55-3.54-2.88,0-1.77,2-1.77-.22-1.9-.22-1.9l-2.43-.89a20.16,20.16,0,0,1-.89-3.1c-.22-1.33-1.33-4.2-1.55-5.31s-1.55.66-1.55.66V409s.89.23,1.77,1.78-.22,1.55-1.11.88-2.56-2-3.67-2.21.22.66,1.9,1.33.67,1.77,1.33,3.54.67,3.45-.44,4.78-1.9,2.66-3,3.32-2.44-.89-2.22-1.77.67-.44.67-2-.44-1.33-.44-3.77.66-1.46.88-2.56-2-2.22-2-2.22-1.55.22-2.22-.66,1.33-1.55,1.78-2.88-1.33-2-3.1-2.88-2.22.22-2,1.33.45.66,2.66.89,1.33,1.1-.22,2.65-.89,1.11-.89,2.44,1.33.66,2.44.44,1.55,0,2.43,1.77-.88,1.11-.88,3.23.44.89,0,3.32-1.55.89-2.66.89-.88-1.55-1.55-3.32-2.43-1.55-2.88-.22-2.21.22-2.21-1.55-1.46-1.24-1.68-2.13.66-1.1,1.68-1.33,1.33-.88,2-2-.44-1.11-2-1.55-.8-.44-.22-1.77.44-1.55-1-2.88-.44.22-1.33,2c-.61,1.21-.8.86-.86.88s0,.1,0,.44c0,1.11,1.55,1.77,1.77,2.88s-.44,1.55-1.33,2-.89,1.11-1.33,2.22-1.77-.67-4-1.11-.45-1.55-.22-2.88.88-1.55,1.54-2.43-.22-.89-1.54-2.66.44-2.43.44-2.43l.66-2.88s-.66-2.79-1.55-3-1.1-.67-2.43-1.55-.67-2.22-1.55-2.22-1.33-.44-2-1.77-.23-4.65-.23-7.44-1.46-7.52-1.68-10.4-1.55-17.18-1.77-19.17-.22-3.9-.44-5.67-4-3.1-4.87-3.54-4.65-2.66-6-3.54a19.8,19.8,0,0,0-3.9-1.78c-1.1-.44-2.65.89-4,1.11a12.47,12.47,0,0,0-4.43,1.77c-1.33.89-4.34,1.33-5.22,2s-4.43.23-4.43.23-4.87-.67-6.86-.67-.67,2.66-.67,4.65.44,3.54,0,6.78.44,4.64.44,4.64a27.12,27.12,0,0,1,1.33,3.77,6.52,6.52,0,0,0,1.55,3.32,27.7,27.7,0,0,1,1.77,2.79s1.33,1.55,1.11,2.43a27,27,0,0,0-.22,4.21c0,.88,1.55,2.21,1.55,2.21a1.59,1.59,0,0,1,1.11,2c-.45,1.55-2-.23-3.55-1.11s-3.32,0-4.65.22-1.55.66-2.79,1.77-1.1,1.55-1.1,1.55v3.23a21.81,21.81,0,0,0,.66,3.32c.22,1.33-1.55.89-1.55.89a23.29,23.29,0,0,1-2.65-1.55c-.89-.66-1.33,1.11-1.33,1.11a11,11,0,0,0,2.65.88c1.33.22,1.11,1.11,1.33,3.54s-.88,1.11-1.77,2.44a14,14,0,0,1-1.33,2c-.88,1.11-1.1.58-2,3s-1.77.89-3.54,1.11-2-.44-2.44-1.55.89-1.55.89-1.55a4.13,4.13,0,0,0,2.21-.8c1.11-.79.22-.88.67-2.87s.44-.45.88-1.33.22-2,.22-4.87-.22-2.66-.88-4-.44,3.77-.22,5.31-.67,2.66-1.33,4.21-.67.44-.67,2-.44,1.55-2.21,1.33-1.68,1.91-1.68,1.91a3.23,3.23,0,0,1-2,.88c-1.11,0-.67.22-2,1.11a2.91,2.91,0,0,1-2.88.44c-.88-.22-.44-.44-.44-2.88s.44-3,.67-5,1.77-.89,3.32-.89,1.77-.44,2-2.21.89-2,1.33-3.54l1-3.54a11,11,0,0,0,2.65-2.35c.89-1.24.45-3.54.22-4.65s.45-2.66,1.11-5.09.22-6.55.22-9.21a16.42,16.42,0,0,1,.93-5.47c.43-1.51,0-1.73-.22-3.24a7.57,7.57,0,0,1,.65-4.38c.65-1.29,1.73-2.37,3.68-5.4s4.76-7,5.67-9.13-.48-1.08-2.64-.87-5.41,0-8.22.43a46.13,46.13,0,0,1-9.35.22c-1.3-.22-2.16-.43-2.38-2.16s.65-6.49.65-6.49,2.69-.3,4-.3a12,12,0,0,0,3.45-.89,25.39,25.39,0,0,0,3.1-.89c1.11-.44,2.88,0,4.2.45s3.33-.89,4.21-1.11,2.44-.22,3.61-1.16a1.15,1.15,0,0,1,1.84.27s1.32-1.68,1.1-2.56.45-2.22.67-3.55a6.44,6.44,0,0,0-.37-3.94,26.85,26.85,0,0,1-2.07-4.69,34.06,34.06,0,0,1-.74-4.22A4.09,4.09,0,0,0,241,301.4C240.56,299,241.22,300.29,240.78,298.52Z"/><path class="cls-2" d="M240.78,298.52c-.44-1.77.44-1.77.66-3.54q32.43,2.28,39.37,2.74l2.08,1.24c4.2.45,6,2.75,6,2.75l-1.2,4.12a14.85,14.85,0,0,1,0,3.67c-.22,2.57-1.11,4.21-1.11,7.08a18.46,18.46,0,0,1-.44,5.54,13.29,13.29,0,0,0-.45,3.23s.45,1.33,1.55,1.55,2.22,1.33,4,2.66,1.77.88,4.21,1.55,3.45-.67,5-.45,1.11,3.1,0,5.32.22,3,0,5.22a1.93,1.93,0,0,0,2,2.22,7.92,7.92,0,0,0,3.54,0,38.72,38.72,0,0,1,5.1-.67c2-.22,2.78,1.11,3.45,2.88s1.33,1.77,1.55,2.88.44,2.43-.44,3.32-2,0-3.68.44-1.11.89-2.88.44a2.15,2.15,0,0,1-1.77-2,10.85,10.85,0,0,1-2.21,2c-1.11.67-.89,2.57-1.11,3.68a3.72,3.72,0,0,1-2,2.88c-1.33.66-1.55,1.1-1.55,1.1l-1.77,3.1-1.46,4.65-2.88,1.46a13,13,0,0,0-1.11,3.1c-.66,2.44,0,3.1,0,3.1a13.39,13.39,0,0,1,2.22,2.44,4.4,4.4,0,0,0,.85,1.12,4.59,4.59,0,0,0,1.14.43c1.33.44,1.68.44,2.12,1.55s-.88.88-.44,2.65,1.77-.44,2.66-.44,1.55-.44,3.1-1.77,1.55-.89,3.54,1.11.66.66,3.76,1.68,1.91,1.33,1.91,1.33a24.48,24.48,0,0,1,4,2.88c2,1.77,2,1.1,2.88,1.55a4,4,0,0,0,2.88.66c1.33-.22.88,0,3.32,2.21s.66.22,1.1-.88.58-1.55,1.69-1.77a.86.86,0,0,1,1.1.88c2-1.1.45.22,1.33,2s-.22.89,1.33,2.66.89.22,1.33,1.11,3.1,2.79,2.21,2.43-3.54,1.46-4.2,3.24-2,.22-3.32-.23-1.24,3.1-1.24,5.32-2.44.88-2.44.88a24.9,24.9,0,0,0-1.33-2.65c-.66-1.11-.44-1.11.45-2.44s-1.33-.88-1.78-1.77-.88-4.34-1.32-5.45-.45.45-.67,1.33.67,2.79,0,4.34-.44.67.67,1.55,1.1.44,1.55,1.33.44,2.88.66,4.21,2.44,1.55,3.54,1.55,1.46-1.78,1.46-3.77,1.55-1.77,2.66-1.77,2.88,3.76,2.88,3.76l4,4a25.64,25.64,0,0,1,1.11,3.23c.44,1.68-.44,1.33-1.55,1.33s-.66-1.33-1.11-2.66-1.77.45-1.77.45l-1.77.88a17.37,17.37,0,0,0-3.54.89,3.39,3.39,0,0,0-1.4-.59,4.32,4.32,0,0,1-.28-1.63s-.67.22-.23,1.11c.19.37.32.47.51.52a1,1,0,0,0,1.4.59c1.33.88,1.33.88,3.1.22s1.33-.67,3.1.44.22,2.44-1.11,3.1a6.15,6.15,0,0,0-2.66,2.66c-.66,1.1-3.32.66-4.34-.45a2.49,2.49,0,0,0-3.54-.22c-1.1.89-1.33-.22-1.77-2s-2.43-1.55-3.54-2.88,0-1.77,2-1.77-.22-1.9-.22-1.9l-2.43-.89a20.16,20.16,0,0,1-.89-3.1c-.22-1.33-1.33-4.2-1.55-5.31s-1.55.66-1.55.66V409s.89.23,1.77,1.78-.22,1.55-1.11.88-2.56-2-3.67-2.21.22.66,1.9,1.33.67,1.77,1.33,3.54.67,3.45-.44,4.78-1.9,2.66-3,3.32-2.44-.89-2.22-1.77.67-.44.67-2-.44-1.33-.44-3.77.66-1.46.88-2.56-2-2.22-2-2.22-1.55.22-2.22-.66,1.33-1.55,1.78-2.88-1.33-2-3.1-2.88-2.22.22-2,1.33.45.66,2.66.89,1.33,1.1-.22,2.65-.89,1.11-.89,2.44,1.33.66,2.44.44,1.55,0,2.43,1.77-.88,1.11-.88,3.23.44.89,0,3.32-1.55.89-2.66.89-.88-1.55-1.55-3.32-2.43-1.55-2.88-.22-2.21.22-2.21-1.55-1.46-1.24-1.68-2.13.66-1.1,1.68-1.33,1.33-.88,2-2-.44-1.11-2-1.55-.8-.44-.22-1.77.44-1.55-1-2.88-.44.22-1.33,2c-.61,1.21-.8.86-.86.88s0,.1,0,.44c0,1.11,1.55,1.77,1.77,2.88s-.44,1.55-1.33,2-.89,1.11-1.33,2.22-1.77-.67-4-1.11-.45-1.55-.22-2.88.88-1.55,1.54-2.43-.22-.89-1.54-2.66.44-2.43.44-2.43l.66-2.88s-.66-2.79-1.55-3-1.1-.67-2.43-1.55-.67-2.22-1.55-2.22-1.33-.44-2-1.77-.23-4.65-.23-7.44-1.46-7.52-1.68-10.4-1.55-17.18-1.77-19.17-.22-3.9-.44-5.67-4-3.1-4.87-3.54-4.65-2.66-6-3.54a19.8,19.8,0,0,0-3.9-1.78c-1.1-.44-2.65.89-4,1.11a12.47,12.47,0,0,0-4.43,1.77c-1.33.89-4.34,1.33-5.22,2s-4.43.23-4.43.23-4.87-.67-6.86-.67-.67,2.66-.67,4.65.44,3.54,0,6.78.44,4.64.44,4.64a27.12,27.12,0,0,1,1.33,3.77,6.52,6.52,0,0,0,1.55,3.32,27.7,27.7,0,0,1,1.77,2.79s1.33,1.55,1.11,2.43a27,27,0,0,0-.22,4.21c0,.88,1.55,2.21,1.55,2.21a1.59,1.59,0,0,1,1.11,2c-.45,1.55-2-.23-3.55-1.11s-3.32,0-4.65.22-1.55.66-2.79,1.77-1.1,1.55-1.1,1.55v3.23a21.81,21.81,0,0,0,.66,3.32c.22,1.33-1.55.89-1.55.89a23.29,23.29,0,0,1-2.65-1.55c-.89-.66-1.33,1.11-1.33,1.11a11,11,0,0,0,2.65.88c1.33.22,1.11,1.11,1.33,3.54s-.88,1.11-1.77,2.44a14,14,0,0,1-1.33,2c-.88,1.11-1.1.58-2,3s-1.77.89-3.54,1.11-2-.44-2.44-1.55.89-1.55.89-1.55a4.13,4.13,0,0,0,2.21-.8c1.11-.79.22-.88.67-2.87s.44-.45.88-1.33.22-2,.22-4.87-.22-2.66-.88-4-.44,3.77-.22,5.31-.67,2.66-1.33,4.21-.67.44-.67,2-.44,1.55-2.21,1.33-1.68,1.91-1.68,1.91a3.23,3.23,0,0,1-2,.88c-1.11,0-.67.22-2,1.11a2.91,2.91,0,0,1-2.88.44c-.88-.22-.44-.44-.44-2.88s.44-3,.67-5,1.77-.89,3.32-.89,1.77-.44,2-2.21.89-2,1.33-3.54l1-3.54a11,11,0,0,0,2.65-2.35c.89-1.24.45-3.54.22-4.65s.45-2.66,1.11-5.09.22-6.55.22-9.21a16.42,16.42,0,0,1,.93-5.47c.43-1.51,0-1.73-.22-3.24a7.57,7.57,0,0,1,.65-4.38c.65-1.29,1.73-2.37,3.68-5.4s4.76-7,5.67-9.13-.48-1.08-2.64-.87-5.41,0-8.22.43a46.13,46.13,0,0,1-9.35.22c-1.3-.22-2.16-.43-2.38-2.16s.65-6.49.65-6.49,2.69-.3,4-.3a12,12,0,0,0,3.45-.89,25.39,25.39,0,0,0,3.1-.89c1.11-.44,2.88,0,4.2.45s3.33-.89,4.21-1.11,2.44-.22,3.61-1.16a1.15,1.15,0,0,1,1.84.27s1.32-1.68,1.1-2.56.45-2.22.67-3.55a6.44,6.44,0,0,0-.37-3.94,26.85,26.85,0,0,1-2.07-4.69,34.06,34.06,0,0,1-.74-4.22A4.09,4.09,0,0,0,241,301.4C240.56,299,241.22,300.29,240.78,298.52Z"/><path class="cls-1" d="M303.3,303s4,1.24,4.2,2.79,1.55,14.08,1.55,14.08a23.06,23.06,0,0,1,1.77,5c.23,1.77,1.11,9.3,1.33,10.18s2.35,10.54,2.35,10.54.53-2.88-3.45-2.88c-1.33.44-4.88.44-6.42.67s-4.65,1-4.21-2.22c0-.44-.44-3.89-.44-3.89l1.55-4a1.68,1.68,0,0,0-1.11-2.66c-2.13.45-6.11,1.33-9.21-1.1,0,.22-3.1-2.44-4-2.66s-2-.35-1.1-3.9.22-4.42.44-6.42a44.86,44.86,0,0,1,.89-6.19,17.86,17.86,0,0,0,.22-4.56l1.2-4.12Z"/><path class="cls-1" d="M303.3,303s4,1.24,4.2,2.79,1.55,14.08,1.55,14.08a23.06,23.06,0,0,1,1.77,5c.23,1.77,1.11,9.3,1.33,10.18s2.35,10.54,2.35,10.54.53-2.88-3.45-2.88c-1.33.44-4.88.44-6.42.67s-4.65,1-4.21-2.22c0-.44-.44-3.89-.44-3.89l1.55-4a1.68,1.68,0,0,0-1.11-2.66c-2.13.45-6.11,1.33-9.21-1.1,0,.22-3.1-2.44-4-2.66s-2-.35-1.1-3.9.22-4.42.44-6.42a44.86,44.86,0,0,1,.89-6.19,17.86,17.86,0,0,0,.22-4.56l1.2-4.12Z"/><path class="cls-1" d="M316.71,349.62l1.55-.89s2.44,1.11,2.44-.66.66-1.33-.67-2.44a3.2,3.2,0,0,1-1.32-2.21s0-2,.88-2.66,1.77,1,1.77-2.13,1.11-4.2.89-5.75-1.11-1.77-.67-3.77,1.11-2,1.77-3.09,0-1.47.67-3.24,1.33-1.77,2-3.76,1.11-3.76,1.11-3.76,2.34-1.33,3.23.22a4.76,4.76,0,0,0,4.21,2c.88-.22,4.87-.89,4.87-.89a9.93,9.93,0,0,0,1.77-3.09c.44-1.55-.67-4.21-.67-4.21a8.34,8.34,0,0,1-3.1-1,14.65,14.65,0,0,1-3.54-2.66,7.32,7.32,0,0,0-3.1-2.21c-1.33-.44-1-1.55-2.34-2.66s-1.55-.66-3.55-1.1a4.63,4.63,0,0,1-2.87-2l-2.22-1.55A3.45,3.45,0,0,1,317,300c-3.36.72-6.5,2.33-8,2.08s-5.69,1-5.69,1,4.42.66,4.42,4.78a102.57,102.57,0,0,0,1.33,12.09,19.28,19.28,0,0,1,2,7.43c0,3.55,2.21,12.53,2.21,12.53l1,4.43Z"/><path class="cls-1" d="M316.71,349.62l1.55-.89s2.44,1.11,2.44-.66.66-1.33-.67-2.44a3.2,3.2,0,0,1-1.32-2.21s0-2,.88-2.66,1.77,1,1.77-2.13,1.11-4.2.89-5.75-1.11-1.77-.67-3.77,1.11-2,1.77-3.09,0-1.47.67-3.24,1.33-1.77,2-3.76,1.11-3.76,1.11-3.76,2.34-1.33,3.23.22a4.76,4.76,0,0,0,4.21,2c.88-.22,4.87-.89,4.87-.89a9.93,9.93,0,0,0,1.77-3.09c.44-1.55-.67-4.21-.67-4.21a8.34,8.34,0,0,1-3.1-1,14.65,14.65,0,0,1-3.54-2.66,7.32,7.32,0,0,0-3.1-2.21c-1.33-.44-1-1.55-2.34-2.66s-1.55-.66-3.55-1.1a4.63,4.63,0,0,1-2.87-2l-2.22-1.55A3.45,3.45,0,0,1,317,300c-3.36.72-6.5,2.33-8,2.08s-5.69,1-5.69,1,4.42.66,4.42,4.78a102.57,102.57,0,0,0,1.33,12.09,19.28,19.28,0,0,1,2,7.43c0,3.55,2.21,12.53,2.21,12.53l1,4.43Z"/><path class="cls-1" d="M339.43,316.58a5.78,5.78,0,0,1,1.33,3.33c.22,2.21-.67,3,.66,4.56s4.34,1.77,6.11.88,3.54-3,6-2.57,1.86,1.77,4,.67,3.23-1.55,5.45-.89,2.43,2.35,5.75,1.91a70.53,70.53,0,0,0,7.66-1.69c2-.44,3.55-1.46,5.76.22s5.31-1.19,5.53,2.13.67,3.32-1.55,4.87-3.09,2.44-3.32,3.54-.88,1.33,0,3.32.23,3,1.11,5.45,1.55,5.09,1.55,5.09,1.9,2,.18,3.7.29,1.44-3.15,2-4-.58-4.87,1.14,1.43,1.72-2,2.58-4.58.29-5.44,2.87-.29,1.14-2.29,3.72-2.58,3.16-2.3,5.16,4.3,2.86,2.3,5.16-2,2.58-.29,5.73.86,3.72.29,5.15-1.72,3.16-1.72,5.74.86,1.43-.29,4-3.44,4-3.73,5.44-2.58,3.73-2.58,3.73l-.85,4a3,3,0,0,0-2.87,2.29c-.57,2.3-.86,2-2,3.16a4.51,4.51,0,0,1-2.87,1.14s-.57.58-1.72-.86-2.58-2.29-1.15-2.58,2.3.29,2.58-1.72.86-2.58-.28-3.72,1.43-1.72-.58-2.58-2.29,0-2-1.72,2.29-2.58.86-3.44-2.3-3.44-2-1.14,1.15,1.71.29,3.43-2,2.29-2.3,4-.86,3.73.86,2.58a8.7,8.7,0,0,0,2.3-2s3.15.86,2.86,2.29,1.15,2.29-1.14,2.58-3.16,0-2.87,1.43,3.44.3,2.58,2.58.29,2.86-1.15,2.86-3.15,2-4,0-.57-3.43-1.14-5.44-.57-1.72-1.72-2.86-1.15-2,0-2,.7.28.7-.68.19-1-.77-1,.38-.19-1.35.38a7.67,7.67,0,0,1-3.26.58,1.38,1.38,0,0,1-1.34-1.15,1,1,0,0,1,1.15-1c1.15,0,1.92.19,2.49-.77s1.16-2.13,1-2.9,0-1.34-1.53-1.53a7.78,7.78,0,0,1-4.8-4,3.24,3.24,0,0,0-1.73-2.11c-1-.57-1.91-1.73-2.5-.57s-1.36,1.34-1,2.11a1.89,1.89,0,0,1,.19,1.34l-3.84-3.45S320.32,391,318,389c.22.05-4-3.07-4-3.07a2.8,2.8,0,0,0-1.19-.72c-1-.38-1.73-.78-1.73-.78L309.6,384l-1.92-1.54s-1-1.73-1.73-1.15a10.73,10.73,0,0,1-2.49,1.53c-1,.39-3.84,1.94-3.84,1.94a1.85,1.85,0,0,1-.39-2.32c0-.19.95-2.11-.78-2.31s-2.11-1-2.11-1l-.92-1-2.22-2.44s-.13-4.65.64-5.42a24.56,24.56,0,0,1,3.35-2.24s1.85-6.61,2.62-7.38,2.11-1.34,2.88-2.11a4.93,4.93,0,0,0,1.34-3.07,8.93,8.93,0,0,1,1-2.85l1.27-.82.94-1.17s.65,1.86,1.77,2a3.5,3.5,0,0,0,2.88-.44l3.68-.44s.53.4.44-3.32c.29-.27.66,1.11.66,1.11l1.55-.89,2.3.67.2-2.69-1.54-2.11s-1-1.32.37-3.84l1.17-.2L322.1,335l.15-2.1-.92-2.7a6.89,6.89,0,0,1,2-4.16,32.57,32.57,0,0,1,.67-3.24l3.1-7.52s3.06-1.42,4.21,1.46c.2-.58,2.5,1,2.5,1Z"/><path class="cls-1" d="M339.43,316.58a5.78,5.78,0,0,1,1.33,3.33c.22,2.21-.67,3,.66,4.56s4.34,1.77,6.11.88,3.54-3,6-2.57,1.86,1.77,4,.67,3.23-1.55,5.45-.89,2.43,2.35,5.75,1.91a70.53,70.53,0,0,0,7.66-1.69c2-.44,3.55-1.46,5.76.22s5.31-1.19,5.53,2.13.67,3.32-1.55,4.87-3.09,2.44-3.32,3.54-.88,1.33,0,3.32.23,3,1.11,5.45,1.55,5.09,1.55,5.09,1.9,2,.18,3.7.29,1.44-3.15,2-4-.58-4.87,1.14,1.43,1.72-2,2.58-4.58.29-5.44,2.87-.29,1.14-2.29,3.72-2.58,3.16-2.3,5.16,4.3,2.86,2.3,5.16-2,2.58-.29,5.73.86,3.72.29,5.15-1.72,3.16-1.72,5.74.86,1.43-.29,4-3.44,4-3.73,5.44-2.58,3.73-2.58,3.73l-.85,4a3,3,0,0,0-2.87,2.29c-.57,2.3-.86,2-2,3.16a4.51,4.51,0,0,1-2.87,1.14s-.57.58-1.72-.86-2.58-2.29-1.15-2.58,2.3.29,2.58-1.72.86-2.58-.28-3.72,1.43-1.72-.58-2.58-2.29,0-2-1.72,2.29-2.58.86-3.44-2.3-3.44-2-1.14,1.15,1.71.29,3.43-2,2.29-2.3,4-.86,3.73.86,2.58a8.7,8.7,0,0,0,2.3-2s3.15.86,2.86,2.29,1.15,2.29-1.14,2.58-3.16,0-2.87,1.43,3.44.3,2.58,2.58.29,2.86-1.15,2.86-3.15,2-4,0-.57-3.43-1.14-5.44-.57-1.72-1.72-2.86-1.15-2,0-2,.7.28.7-.68.19-1-.77-1,.38-.19-1.35.38a7.67,7.67,0,0,1-3.26.58,1.38,1.38,0,0,1-1.34-1.15,1,1,0,0,1,1.15-1c1.15,0,1.92.19,2.49-.77s1.16-2.13,1-2.9,0-1.34-1.53-1.53a7.78,7.78,0,0,1-4.8-4,3.24,3.24,0,0,0-1.73-2.11c-1-.57-1.91-1.73-2.5-.57s-1.36,1.34-1,2.11a1.89,1.89,0,0,1,.19,1.34l-3.84-3.45S320.32,391,318,389c.22.05-4-3.07-4-3.07a2.8,2.8,0,0,0-1.19-.72c-1-.38-1.73-.78-1.73-.78L309.6,384l-1.92-1.54s-1-1.73-1.73-1.15a10.73,10.73,0,0,1-2.49,1.53c-1,.39-3.84,1.94-3.84,1.94a1.85,1.85,0,0,1-.39-2.32c0-.19.95-2.11-.78-2.31s-2.11-1-2.11-1l-.92-1-2.22-2.44s-.13-4.65.64-5.42a24.56,24.56,0,0,1,3.35-2.24s1.85-6.61,2.62-7.38,2.11-1.34,2.88-2.11a4.93,4.93,0,0,0,1.34-3.07,8.93,8.93,0,0,1,1-2.85l1.27-.82.94-1.17s.65,1.86,1.77,2a3.5,3.5,0,0,0,2.88-.44l3.68-.44s.53.4.44-3.32c.29-.27.66,1.11.66,1.11l1.55-.89,2.3.67.2-2.69-1.54-2.11s-1-1.32.37-3.84l1.17-.2L322.1,335l.15-2.1-.92-2.7a6.89,6.89,0,0,1,2-4.16,32.57,32.57,0,0,1,.67-3.24l3.1-7.52s3.06-1.42,4.21,1.46c.2-.58,2.5,1,2.5,1Z"/><path class="cls-1" d="M202.53,404s1.62.36,2-1.08.18-1.95.91-2.71-.37-2.74-1.27-3.28-1.08-.73-2.34-2.53-1.08-3.61-2.53-3.61-1.26.55-2.16.36-.9-1.44-1.8-1.26-1.26.54-1.81-.36-1.84-1.8-2.74-2.88-1.26-1.23-1.08-2,1.08-1.52,1.26-.58,1.12,2.79,1.48.94,1.48-1.3.18-2.92,0-2-1.84-2-2-.73-2.53.54-1.26,1.26-2.34,1.62a2,2,0,0,0-1.62,2.56,6.24,6.24,0,0,0,2.16,3.43c1.08.9.72,1.08,2.17,1.62s2.48-.18,3.24,1.45,2.43,1.8,1.3,2.52a4.48,4.48,0,0,1-2.2.72s.94,1.26,1.66,1.26.9-1.26,1.81.18,1.26,2,2.16,2.35.72-.4,1.8.54,1.08,1.84,1.81,2,.54-.18,1.08.72S202.53,404,202.53,404Z"/><path class="cls-1" d="M202.53,404s1.62.36,2-1.08.18-1.95.91-2.71-.37-2.74-1.27-3.28-1.08-.73-2.34-2.53-1.08-3.61-2.53-3.61-1.26.55-2.16.36-.9-1.44-1.8-1.26-1.26.54-1.81-.36-1.84-1.8-2.74-2.88-1.26-1.23-1.08-2,1.08-1.52,1.26-.58,1.12,2.79,1.48.94,1.48-1.3.18-2.92,0-2-1.84-2-2-.73-2.53.54-1.26,1.26-2.34,1.62a2,2,0,0,0-1.62,2.56,6.24,6.24,0,0,0,2.16,3.43c1.08.9.72,1.08,2.17,1.62s2.48-.18,3.24,1.45,2.43,1.8,1.3,2.52a4.48,4.48,0,0,1-2.2.72s.94,1.26,1.66,1.26.9-1.26,1.81.18,1.26,2,2.16,2.35.72-.4,1.8.54,1.08,1.84,1.81,2,.54-.18,1.08.72S202.53,404,202.53,404Z"/><path class="cls-1" d="M208.72,393.87s-.11-.21.1-1.48.74-.1,1.69-.74.31-1.47,0-2.21-1.27.53-1.27.53l-1.16,1.26a2,2,0,0,0-.74,1.37c-.21,1.06-.31.32-1.05.32s-.42-1.05-.32-2,.21-.11,1.16-1.37-.31-.74-1.79-.95a13.14,13.14,0,0,0-1.79-.11c-1.16-.1-.42.21-.64-.84a2,2,0,0,1,.85-2.32c1-.85,1.26,0,1.79-.53s.74-1.16,1.48-1.58.84-1.06.63-2.32-1,1.26-1,1.26a2.9,2.9,0,0,0-1.27,1.48c-.53,1.16-1.16.32-2.32.53s-1.05.42-2-.74-.43,1.05-1,2-.42.32-1.06-.95-.74-.63-2-1.26-.53-2.64-.53-2.64a2.46,2.46,0,0,0-1.48-1.9c-1.26-.42-.52-1.47-1.58-2.74s-1.58-.63-1.79.21-.95,1-2.32-.1l-1.37-.11a2.2,2.2,0,0,1-1.48-.42c-.74-.53-1.58-.42-2.63.42s-1,.42-3-.74-2.42,0-3.27-1.47-.95-.53-1.68-1.27-.43-1,.52-2,.74-.74.85-1.8-.11-1.68-.64-1.47-1.16.42-1.58-.43-.31-.63-.31-2.74,1.37-2.63,1.58-3.9,1.26-1.05,2.32-1.9a2.71,2.71,0,0,0,.84-2.32,10.77,10.77,0,0,1,1.69-1.79,12.18,12.18,0,0,1,2.64-1.69c.73-.21.63-.53.63-.53a9.26,9.26,0,0,1,.63-2.21c.42-.84.32-.53.74-1.37s1.16,0,2.42.1a3.48,3.48,0,0,0,2.43-.42c.84-.42,2.11.42,3.16.53s1.27-.53,1.38-1.48.31-.63.52-1.16,1.16,0,2.85-.21a26.17,26.17,0,0,1,2.64-.1c1.05-.11,2.63.1,3.9,0s1.79.21,2.32.1a29.05,29.05,0,0,1,4.22.53,20.85,20.85,0,0,0,4.53.21c1.59-.11,1.59,2.11,1.59,2.85a7,7,0,0,0,.84,2.95c.53,1,1.37.21,3.06.21s2.84.21,4.43.32a13.44,13.44,0,0,1,2,.21s0,1.37-.05,2.7a3.06,3.06,0,0,0,.58,2,8.87,8.87,0,0,1-.53,2,24.61,24.61,0,0,0-.74,4.11s.11,7.6.11,8.33-1.48,5.59-1.48,5.59.11.95.11,1.59.31,2.53.31,2.53a8.73,8.73,0,0,1-1.58,2.63,8.63,8.63,0,0,1-1.79,1.59,9.24,9.24,0,0,0-1.69,1.79c-.63.95-.42.42-.63,1.47s-.42,1.8-.42,1.8a9.48,9.48,0,0,1-1.06,2c-.42.42-1.26-.1-2.32-.63s-.42.1-.63.84-1.16.63-1.16.63a8.67,8.67,0,0,0-1.06-1.58c-.63-.74.21-.95.53-1.68s.53-.53.74-1.48.1-1.27-1-1.48-.95,2-.95,2a4.19,4.19,0,0,1-.74.73c-.42.32.32,1.9.32,2.85s-.42.63-1.16.74,0,.42.63,1.27.42.42,1.16.52.53.32.63,1.59-.63.42-1.05,1.47.21.32.32,1.37a3.68,3.68,0,0,1-.36,1.91,2.33,2.33,0,0,1-1.8-1.08c-.73-1.08-2.53-2.38-1.45-3.28s2.17-.72.9-1.09-2.34-.36-2.7-1.08-.72-.18-.18-1.26S208.72,393.87,208.72,393.87Z"/><path class="cls-1" d="M208.72,393.87s-.11-.21.1-1.48.74-.1,1.69-.74.31-1.47,0-2.21-1.27.53-1.27.53l-1.16,1.26a2,2,0,0,0-.74,1.37c-.21,1.06-.31.32-1.05.32s-.42-1.05-.32-2,.21-.11,1.16-1.37-.31-.74-1.79-.95a13.14,13.14,0,0,0-1.79-.11c-1.16-.1-.42.21-.64-.84a2,2,0,0,1,.85-2.32c1-.85,1.26,0,1.79-.53s.74-1.16,1.48-1.58.84-1.06.63-2.32-1,1.26-1,1.26a2.9,2.9,0,0,0-1.27,1.48c-.53,1.16-1.16.32-2.32.53s-1.05.42-2-.74-.43,1.05-1,2-.42.32-1.06-.95-.74-.63-2-1.26-.53-2.64-.53-2.64a2.46,2.46,0,0,0-1.48-1.9c-1.26-.42-.52-1.47-1.58-2.74s-1.58-.63-1.79.21-.95,1-2.32-.1l-1.37-.11a2.2,2.2,0,0,1-1.48-.42c-.74-.53-1.58-.42-2.63.42s-1,.42-3-.74-2.42,0-3.27-1.47-.95-.53-1.68-1.27-.43-1,.52-2,.74-.74.85-1.8-.11-1.68-.64-1.47-1.16.42-1.58-.43-.31-.63-.31-2.74,1.37-2.63,1.58-3.9,1.26-1.05,2.32-1.9a2.71,2.71,0,0,0,.84-2.32,10.77,10.77,0,0,1,1.69-1.79,12.18,12.18,0,0,1,2.64-1.69c.73-.21.63-.53.63-.53a9.26,9.26,0,0,1,.63-2.21c.42-.84.32-.53.74-1.37s1.16,0,2.42.1a3.48,3.48,0,0,0,2.43-.42c.84-.42,2.11.42,3.16.53s1.27-.53,1.38-1.48.31-.63.52-1.16,1.16,0,2.85-.21a26.17,26.17,0,0,1,2.64-.1c1.05-.11,2.63.1,3.9,0s1.79.21,2.32.1a29.05,29.05,0,0,1,4.22.53,20.85,20.85,0,0,0,4.53.21c1.59-.11,1.59,2.11,1.59,2.85a7,7,0,0,0,.84,2.95c.53,1,1.37.21,3.06.21s2.84.21,4.43.32a13.44,13.44,0,0,1,2,.21s0,1.37-.05,2.7a3.06,3.06,0,0,0,.58,2,8.87,8.87,0,0,1-.53,2,24.61,24.61,0,0,0-.74,4.11s.11,7.6.11,8.33-1.48,5.59-1.48,5.59.11.95.11,1.59.31,2.53.31,2.53a8.73,8.73,0,0,1-1.58,2.63,8.63,8.63,0,0,1-1.79,1.59,9.24,9.24,0,0,0-1.69,1.79c-.63.95-.42.42-.63,1.47s-.42,1.8-.42,1.8a9.48,9.48,0,0,1-1.06,2c-.42.42-1.26-.1-2.32-.63s-.42.1-.63.84-1.16.63-1.16.63a8.67,8.67,0,0,0-1.06-1.58c-.63-.74.21-.95.53-1.68s.53-.53.74-1.48.1-1.27-1-1.48-.95,2-.95,2a4.19,4.19,0,0,1-.74.73c-.42.32.32,1.9.32,2.85s-.42.63-1.16.74,0,.42.63,1.27.42.42,1.16.52.53.32.63,1.59-.63.42-1.05,1.47.21.32.32,1.37a3.68,3.68,0,0,1-.36,1.91,2.33,2.33,0,0,1-1.8-1.08c-.73-1.08-2.53-2.38-1.45-3.28s2.17-.72.9-1.09-2.34-.36-2.7-1.08-.72-.18-.18-1.26S208.72,393.87,208.72,393.87Z"/><path class="cls-1" d="M175.83,361.57s-1.87.27-2,1.74-1.07.27-.94,1.87,1.74,2.41-.13,3.21-2,1.34-2.27.14.8-1.21.13-2.41-.13-1.74-1.61-.94-.93,1.21-2,.4.26-1.6-1.61-.93-1.87.4-2.41-.14a1.94,1.94,0,0,1-.53-2c.13-1.08,0,.26.67-1.61s1.87-2.94.66-2.94-.33.4-1.33,1.2-1.14.4-1.14,1.47,1.34,2,.4,2.28-1.47-.27-2,0-1.2,0-1.47.53,0,1.61.94,1.21,1.07-.81,1.74-.27a8.42,8.42,0,0,0,2.47,1.2.92.92,0,0,1,.54,1.48c-.54.66-.2-.14-1.21.66s-.33.07-1.4,1.48-.94,2.6-2.14,1.8-1.47-2.14-2.68-1.67-.8,1.14-2,1.27-3.08.8-3.48.13-.81-1.07-.14-1.07.94,1,1.88-.6,1.07-.8,1.33-2,.54-.81.27-2.15.67-3.34-.4-3.21-.27,1.47-1.34,1.07-.93-.26-.8-1.87.13-1.47.27-3.48.13-2.34-.4-3.41-.94-1.34-1.08-.67.27.6-.66,1.4-1.88,1.61-.81,2,1.34.54,1.34,1.61,0,3.21-.94,3.61-.8.54-1.6,1.2a2.16,2.16,0,0,1-2.48.27c-.66-.4-.53,1.07-1.07-1.07s-1.47-1.47-.8-2.41,1.34-.4,1.21-1.2.13-1.34-.54-.67-.13,1.47-1.34,1.07-1.87-.13-1.47-1.34,2.41-.8,2.14-2.54-1.47-.67-2-.27a5.71,5.71,0,0,0-1.47,2.81c-.13.94-.27,1.88.8,2.68s2.68,1.2,3.08,2.41-.13,1.47.81,1.74a6.42,6.42,0,0,0,3.14.13c.67-.27,2-1.2,2.67-.67s2,.8,2.15,1.74,1.07,1.47,0,1.74a3.4,3.4,0,0,1-2.28.13c-.53-.26-.94-.26-1.34-.93s-.53-1.21-.93-.67-.27.8-.94,1.34-.2,1.2-1.27,1.47-1.87.8-2.94.47-.27.2-1.61-.87-1.34-2.68-1.34-4-.27-1.07-.67-1.87a3.65,3.65,0,0,1-.4-2.28,2.71,2.71,0,0,0-.27-2.27,6.71,6.71,0,0,1-1.2-2.68,1.23,1.23,0,0,1,.67-1.4c.8-.54,1.07,0,1.07-1.2s-.4-2-.94-1.21.67,1.61-1.47,1.34-2.81-.94-2.81-.27,1.34.87,1.87,1.81-.13,1.2.67,2.14,1.47.26,1.34,1.74.8,2.94-.13,3.07-3.48.81-4.55-.8-1.81-2.54-1.94-3.75a15.73,15.73,0,0,0-1.47-3.67,12.7,12.7,0,0,0-1.48-1.48c-.8-.66-.8-1.87-1.07-3.74s-1.07-2.68-1.47-1.74.14,1.6-.8,2.27-1.34,1.74-.4,2.28,1.07,1.27,1.2,2.67,0,2.61-.4,1.94-.27-2.07-1.07-2.47-1.07,0-1.34-1.34-1.07-2.68-1.6-1.87-1.08,2.54-.14,3.08,2,.6,2.41,2.07.8,2.67,1.47,2a12.73,12.73,0,0,0,1.47-2s1.74-.81,2,.27-.4,1.2.27,2,2.41,1.88,1.74,2.55-1.21,0-1.47.66.26,2,1.2,1.74,1.27-.26,2.74.67,2,.27,2.68,1.21.94.4.67,1.47-.94,2-1.61,1.61a10.51,10.51,0,0,1-2.14-1.48,3.21,3.21,0,0,0-2.2-1.07c-.54,0-.67-.8-1.74-.13s-2.15,0-2.28,1.07.27,2.21-.27,3.08.14.93-.93.87-1.34.6-1.21-.87-.27-3.21-1.07-3.35-.8-.93-2-.93-1.6,1.07-2.81,1.07-2.6-.67-2.74-1.34.14-2-1.2-2.14a4.3,4.3,0,0,0-2.28,0c-1.2.26-2.54.53-3.34-.67s-.27-.14-1.21-2.41-1.6-4.42-2.27-3.08.27,2.94-1.34,2.54-1.14.67-2.14-1.2-1-2.68-2.21-2.28-2.14.54-1.07,1.74,1.74.4,2.14,1.61.07,2.81,1.94,2.81a7.07,7.07,0,0,1,4,.8c1.74.81.67,1.34,2.81,2.28s2.41.13,3.21,1.07,1.81,2.14,3.34,2.27,3.28-.8,4.08.27.4,1.94,1.34,3.14,1.47,1.21,2.14,1.21.94,0,1.47,1.07,1.21,2,2.15,1.07.53-.67,1.6-1.07,2.54-1.21,1.74.13a12.68,12.68,0,0,1-2.54,2.81c-.94.94-1.47,1.07-2,2.55s-.67,2-2.67,1.87a11.74,11.74,0,0,1-3.48-.67c-.94-.27-3.75-1.34-2.41-1.47s1.6-.54,1.47-1.34,0-1.47-.94-1.34.33,0-1.2.54-1.67-.14-1.94.8-.13,1.61-1.47,1.61-.27,0-2.28-.67-1.47.4-2.41-.81-1.47-2-1.33-.8,1.47,1.07.93,2-.67-.4-1.2,1.2-.67,1.61-2,1.74-.4.67-1.61-.13-1.67-.54-2.14-1.07-.73-.67-.6-1.21.07-.13.6-.67,1.27-1.07.54-1.2-.87.13-1.14-.4-.13-1.47-.93-2.41-.27-1.34-1.48-.94-.53,1.21-1.47,0-1.47-.93-1.47-.93a3.1,3.1,0,0,0-1.47,1.33c-.67,1.07-.94,2.28-1.88.94s-.66-1.74-1.47-1.74-1.6.8-1.87-.4-.4-.94,0-1.74.8-1.54-.14-1.4-1.54.13-2-1.07,1.2-1.88.53-2.28-.6,0-1.4-.53-.54-1.74-1.34-1.88-.4,0-1.07.27a29.08,29.08,0,0,1-3.48.27c-.8.13-1.34.8-.67.8s2.28-.4,2.68.27.53.8,1.34.8,1.74.27,1.87.8.4,1.88.4,1.88a12.49,12.49,0,0,1,.87,2.87c0,.81.87.94-.27.81s-.73.53-1.4-.27-.27-1.47-.94-1.07a3.14,3.14,0,0,1-1.87.13s-1.61-.27-1.61.54-.13,1.74.94,1.33,1.61-1.2,2-.4-.14,1.74.53,2,.81-.27,1.21.54.46,1.07,1.27,1.07,2-.27,2.27,1.2.54,2.28.13,2.81-.53.54-1.2.54-.87.26-1.54-.67-.13-1.47-.93-1.21-1.74.67-.54,1.34,2.21.54,2.61,1.34.67,1.34,0,1.61a1.82,1.82,0,0,1-2.21-.41,5.21,5.21,0,0,0-1.47-1.2c-.67-.4,0-.27-.94-.8s-1.07-1.07-1.6-.27a1.81,1.81,0,0,1-3,.4c-1.2-1.2-2-1.2-.8-1.87s1.34-2.14.54-1.74-.81,1.2-1.88.8-1.34.27-1.6-.94-1.34-1.33.13-1.74,2.41-.8,1.34-1.07-2.14,0-2.14-1.07a22.27,22.27,0,0,0,.27-3.34,26.26,26.26,0,0,1-.14-3.28c0-1.47,1.21-1.61,0-2.54s-1.47-.14-1.6-1.34-1.27-2.41-1.41-1.87-.33.66.47,1.87,1.34.4,1.34,2a24.71,24.71,0,0,0,.26,3.74,8.37,8.37,0,0,1,.14,2.74,32.89,32.89,0,0,0,.13,4,4.41,4.41,0,0,0,.67,2.68c.67.93,1.74,2.27.8,2.41s-1.33.66-2.27.26a3.56,3.56,0,0,1-2.47-2.81c-.14-1.6.53-1.6.26-3.21s-.13-2.27-.8-1.74-1.07.67-1.47,1.61-.67,2.27-1.34,1.87-1.87.27-1.2-1.47,1.87-2.28.67-2.95-.67-1.6-1.74-.4-2.15,1.47-2.68.14.67-1.94-.13-3.15-.94-1.33-2.41-1.47-2.62.14-2.95-1.07-.46-2.41-1-1.34.13,1.74-.67,2.14.14,1.34-.8,1.61-2.14,1.54-1.34,1.8,1.2.54,1.47,0,.14-1,1.07-1.26,2.08-.81,2.74-.27,1.34.2,2,1.27.27,1.33.8,2,1.88.94,1.08,1.48-1.34-.14-2.15.4-2,1.34-1.33,1.6.93-.4,1.47.41,1.2.8.4,1.2-.67.13-1.47.67-.87.8-1.88,0-1-1.07-1.67-.8-2,.66-.93,1.33a6.18,6.18,0,0,0,3,1.21c.93,0,.53.4,2.14.13a12.08,12.08,0,0,0,4.15-1.07c1.6-.8,2-1.2,3.07-1.2s2.41-.4,2.41.26-.8,1.08-1.47,1.34-2.41.54-2,2,.94,2.81,1.74,3.08,1.74-.34,2.28.73-.07,1.21.93,2.95.74,1.47,1.81,1.6,2.41,0,2.54,1.88-.8,3.34,1.87,3.48,3.75,1.6,4.69-.41.94-3.61,2-2.67,1.87,1.6,1.87,1.6,2.61,1.48,3.54.94,1.61,0,2.41-1.34.81-2,2-2.14,2.14-.67,3.21.4-.13.94,1.74,3.21,4.88,4.55,7,5.09,4.15.13,5.09-.8,1.87-2.81,3.75-1.61.93,2.08,1.87,2.94.87.2,2.47,1.14,3,1.07,3.75.13,1.21-1.2,1.61-.13,1.34,2.54,1.74,1.07-.4-1.67.53-2.21,1.88-.13,1.34-1.07a3,3,0,0,0-1.07-1.2s-2-1.74-1.34-2.28a5.66,5.66,0,0,1,1.88-.8,11.12,11.12,0,0,0,3.61-2.27c.94-1.21.6-3.75,2.34-3.08s1.6,2.27,2.94,1.47,1.74-1.87,3-2,.67-.93,2.54-1.47,2.94-.67,3.88.13A5.85,5.85,0,0,0,146,388.2a11.43,11.43,0,0,0,2.21-.81c1.07-.53,1.33-.93,1.74-.13s1.07,1.6,1.33.53-.53-2.27,1.07-1.33,2.28.26,2.55,1.47,1.07,1.07,1.2.13a11.42,11.42,0,0,0,.27-2.81,1.47,1.47,0,0,1,.8-1.94c1.07-.4,2.54-1.74,3.21-.67s2.15,1.81.54,1.94-2.41-.4-2.94.27-1.48,1.07-.27,1.87,1.74.14,2.54,1.07.67.94.13,1.88a12.13,12.13,0,0,0-1.47,3.21c-.8,2.27-1.47,3.21-.67,3.08a2,2,0,0,0,1.47-2c0-.94-.26-1.2.54-1.87s.07-.81,1.2-1.48a3.75,3.75,0,0,0,1.41-2.4s-.54-1.61.53-1.48,2.41.54,2.41,1.74-.27,1.88.14,1.21.13-1.61.8-1.88,1.87-.8,2.67.14a8.16,8.16,0,0,1,1.61,2.41c.67,1.33,1.87,1.87,1.21,2.67s-.94,2-2.55,1.07-1.87-1.6-2.67-1.87-1.21-.67-1.34-.13-.27.8,1.07,1.47,1.47,1.07,2.41,1.2a8.4,8.4,0,0,0,2,0s1.74-1.34,2.82-.53a3.43,3.43,0,0,1,1.6,2.67c0,.94-.2.41.94.94s1.94.07,1.8,1.21a12.18,12.18,0,0,1-.4,2.6c-.27.81-.34,2.68-.94,3.21s-1.53.94-1.53.14,1.07-1.88.26-2.54-1.2-.14-1.2-.14.54,1.07-.8.8a2.13,2.13,0,0,0-1.88.27,5.17,5.17,0,0,1-1.47,1.88c-.94.67-3.61.67-2.14,2s2.14,1.34,2.54.4.4-2.14,1.61-2.27,3.08,0,2,.94-2.68,1.87-.54,1.74,2.08.26,2.81-.54.6-1.74,1.27-.4,1.07,2.68,1.34,1.2,0-1.07.94-1.87a2.27,2.27,0,0,0,.8-1.87s-1.07-2,.13-1.88,2.55.14,2.95,1.34.53,1.47-.14,2-2.41,1.74-1.34,1.87a1.94,1.94,0,0,0,1.61-.4l1.74-.8s2.14-.4,1.34,2.27-1.34,2.95-1.34,2.95-2.41-.54-2,.53.81,1.34,2,1.21,2.81-.27,2.81-.27-.53-2.28.67-1.74,1.81-.33,2.41,1.61.33,2.2,1.4,3.14,2.68,1.07,1.87,1.6a3.7,3.7,0,0,1-3.54-.13c-1.07-.67-.4-1.2-1.61-1.74a6.23,6.23,0,0,0-2.27-.53,7.72,7.72,0,0,1-3.75-.14c-2.67-.53-3.88-.53-5.08,0s-1.81-.13-2.48.8.41,1.34-1.2,1.34-.8,1.07-3.21-.4-3.21-1.67-4.82-2.74-1.74-.67-2.68-2.68-.07-2.41-2.14-2.27-3-.8-4.61.4-2.55,1.87-2.55,1.87l-2.67.81a7.26,7.26,0,0,1-4.42-2.28c-1.67-2-1.53-2-2.61-3.21a13.89,13.89,0,0,0-2-1.87,2.91,2.91,0,0,1-3.21-1.07c-1.34-1.74-2.15-2.81-2.15-2.81l-2.54-2.08-2.54-.53-2.07-1.07s-2.28.26-2.55.93-.66,1.47,0,1.27a6.24,6.24,0,0,0,1.34-.46,2.42,2.42,0,0,1,1.81,0l2,.46a.94.94,0,0,1,1.74.14c.81,1.47.81,1.34.94,2.27s1.34,1.34,1.34,1.34l2.68,1.74s1.33-.8,2.81,1.2,1.8,3.62,3.81,5.22,1.87,2.55,4.95,2.14a29.07,29.07,0,0,0,5.35-1.2s1.41-4.08,4.42-.4,3.94,5.42,6.89,6.49,6.35,2.67,9.83,1.6,3.48-1.74,5.09-.26,7.42,4,10.63,3.88a47.39,47.39,0,0,0,6.16-.41c1.34-.26,3.75-1.07,5.35.14s2.48,3.81,5.42,5.89,5.35,4.08,7.36,3.81,1.68-1.61,3.35-1.21a34.75,34.75,0,0,1,4.48,1.34,6.49,6.49,0,0,0,4,.27c1.88-.27,4.42-.67,5.62,1.61s.74,2.27,2.08,4.55a35,35,0,0,0,3.47,4.81c1.61,2.08.54,2.88,1.88,3.41s4.41,1.34,4.28-.4-.27-1-.67-2.87,0-2.41,1.34-2.41,2.81-.27,3.08,1.07,1.07,3.81,1.07,3.81.94,2.28.27,2.95.26.8-1.88.93-2.81.54-4.68.27-.54.67-3.21-.27-8.23-2.81-10.77-3.75-24.79-6.64-30-9-14.24-3.8-18.51-5.22-33.7-7.6-37.49-9a100.38,100.38,0,0,0-16.61-4.27c-7.6-1.43-12.34-2.85-18.51-3.32S89.54,412,81,411.53s-23.73-3.79-27.53-3.79a45.9,45.9,0,0,1-14.71-1.9c-6.17-1.9-7.12-2.85-7.12-2.85s-8.07-2.85-10.44-3.32S15,397.3,10.76,397.3s-8.55.95-8.55-1.43v-4.74c0-3.32-1.89-2.85-.94-6.17a51.64,51.64,0,0,0,1.42-5.7c.47-2.37,1.95-6.78,1.95-6.78l5.17-.34L16,370.25s-1.49-7,4.73-9c.38.2,7.7,2.83,10.16-2.76,2.7-2,8.05-1.9,9.28-8.79,0-.49,1-5.41,3.93-6.15-.24.25,5.17-.67,5.42-4.85,1.47-2.21,2.28-7.14,4.43-8.37s4.11-2.95,5.59-2.21,4.43-.07,6.15-3.69,3.2-5.35,0-8.79c0-.25-2.22-1.79-2.46-4.92-1.48-2-4.18-5.35-3.2-7.56a25.12,25.12,0,0,0,1.48-6.89c.24-2,1.72-7.07,3.2-9s2.7-6.22,3.93-7.87A8.26,8.26,0,0,0,70.1,276s-2.29-5.66.91-6.64,5.17-2.21,6.4-3.94,2.53-4.36,5.41-7.06,5.6-4.5,5.84-9.6,1-11.5,4.92-13.46,8.58-5.58,5-9.65a13,13,0,0,1,2.33-.24s2.17-4.07,2.91-2.84.28,3,1.49,2.84,4.66.6,6.87.36,6.76-.55,6.76-.55a24.52,24.52,0,0,0,7.45,3.5c.24,0,8.29-3.94,8.29-3.94l2.22-.49,5.76.17,3.6-1.7a4,4,0,0,1,2.87-.44c-.49-.24,3,.74,4.43-.24a2.16,2.16,0,0,1,2.71.24l.24,4.43s-2.7,0-3.69,1-2.94,1.51-3.31,2.6-1.9.95-1.9.95a3.15,3.15,0,0,0-2.1,2.53c-.25,2-1,3.65-.77,5.64-.71,2.23-.39,3.28-2.27,4.36a23.81,23.81,0,0,1-3.85,1.81,10,10,0,0,0-3.94,2.39c-1.47,1.48-3.13,1.16-4.6,0,.24.25-2,.37-2,.37h-5.69s-1.06-.78-2.08,1.52c0,.57-1.33,1.89-1.33,1.89l-1.9.65-2.15,1.48-3.2.74s-1.41-1-2.06.35-.89,2.53,1.82,8.19c1.23,4.43,4.84,20.1,4.84,20.1a8.26,8.26,0,0,0,4.19,4.19c.25.25,3.94,3.69,3.94,3.69l8.57,5.23,1.52,2.27,2.08-.57,4.49-2.81,4.61-1.74,3.44,3.7,3.2,2,.4,1.16,1.57.32,1.46-.89,2.23-.34L160,300l10,0,5.71,4.59,1.6.82.88-2,1.58-1,.7-1.66,3.73,1.42,13.71.73,16.48,1.71,4.86-.48s2.22-.67,2.22,2.22,1.23,4.85-2,8.79a57.27,57.27,0,0,0-2.46,6.4s-2,3.86-2.46,4.85-.11,2.67,1.54,1.46c-.31-.23-.65,6.49-.65,6.49s-1,2.43,2.38,2.16c3.37,0,19-.76,19-.76s3-.92.49,2.46-6.64,9.77-6.64,9.77-2.82,2.85-2.64,5c.18.21-6.43-.53-6.43-.53l-2.18.25-1.72-3.41v-2l-1.58-.84-6.29-.14-5.84-.74-4.42.25-3.91.1-1.9,2.64-3.16-.53-1.3.49s-2.92-1.58-3.55-.17-2,4.11-2,4.11a3.88,3.88,0,0,0-2.64,1.69c-1.41,1.69-1.44,3.34-2.53,4.11A18.57,18.57,0,0,0,175.83,361.57Z"/><path class="cls-1" d="M175.83,361.57s-1.87.27-2,1.74-1.07.27-.94,1.87,1.74,2.41-.13,3.21-2,1.34-2.27.14.8-1.21.13-2.41-.13-1.74-1.61-.94-.93,1.21-2,.4.26-1.6-1.61-.93-1.87.4-2.41-.14a1.94,1.94,0,0,1-.53-2c.13-1.08,0,.26.67-1.61s1.87-2.94.66-2.94-.33.4-1.33,1.2-1.14.4-1.14,1.47,1.34,2,.4,2.28-1.47-.27-2,0-1.2,0-1.47.53,0,1.61.94,1.21,1.07-.81,1.74-.27a8.42,8.42,0,0,0,2.47,1.2.92.92,0,0,1,.54,1.48c-.54.66-.2-.14-1.21.66s-.33.07-1.4,1.48-.94,2.6-2.14,1.8-1.47-2.14-2.68-1.67-.8,1.14-2,1.27-3.08.8-3.48.13-.81-1.07-.14-1.07.94,1,1.88-.6,1.07-.8,1.33-2,.54-.81.27-2.15.67-3.34-.4-3.21-.27,1.47-1.34,1.07-.93-.26-.8-1.87.13-1.47.27-3.48.13-2.34-.4-3.41-.94-1.34-1.08-.67.27.6-.66,1.4-1.88,1.61-.81,2,1.34.54,1.34,1.61,0,3.21-.94,3.61-.8.54-1.6,1.2a2.16,2.16,0,0,1-2.48.27c-.66-.4-.53,1.07-1.07-1.07s-1.47-1.47-.8-2.41,1.34-.4,1.21-1.2.13-1.34-.54-.67-.13,1.47-1.34,1.07-1.87-.13-1.47-1.34,2.41-.8,2.14-2.54-1.47-.67-2-.27a5.71,5.71,0,0,0-1.47,2.81c-.13.94-.27,1.88.8,2.68s2.68,1.2,3.08,2.41-.13,1.47.81,1.74a6.42,6.42,0,0,0,3.14.13c.67-.27,2-1.2,2.67-.67s2,.8,2.15,1.74,1.07,1.47,0,1.74a3.4,3.4,0,0,1-2.28.13c-.53-.26-.94-.26-1.34-.93s-.53-1.21-.93-.67-.27.8-.94,1.34-.2,1.2-1.27,1.47-1.87.8-2.94.47-.27.2-1.61-.87-1.34-2.68-1.34-4-.27-1.07-.67-1.87a3.65,3.65,0,0,1-.4-2.28,2.71,2.71,0,0,0-.27-2.27,6.71,6.71,0,0,1-1.2-2.68,1.23,1.23,0,0,1,.67-1.4c.8-.54,1.07,0,1.07-1.2s-.4-2-.94-1.21.67,1.61-1.47,1.34-2.81-.94-2.81-.27,1.34.87,1.87,1.81-.13,1.2.67,2.14,1.47.26,1.34,1.74.8,2.94-.13,3.07-3.48.81-4.55-.8-1.81-2.54-1.94-3.75a15.73,15.73,0,0,0-1.47-3.67,12.7,12.7,0,0,0-1.48-1.48c-.8-.66-.8-1.87-1.07-3.74s-1.07-2.68-1.47-1.74.14,1.6-.8,2.27-1.34,1.74-.4,2.28,1.07,1.27,1.2,2.67,0,2.61-.4,1.94-.27-2.07-1.07-2.47-1.07,0-1.34-1.34-1.07-2.68-1.6-1.87-1.08,2.54-.14,3.08,2,.6,2.41,2.07.8,2.67,1.47,2a12.73,12.73,0,0,0,1.47-2s1.74-.81,2,.27-.4,1.2.27,2,2.41,1.88,1.74,2.55-1.21,0-1.47.66.26,2,1.2,1.74,1.27-.26,2.74.67,2,.27,2.68,1.21.94.4.67,1.47-.94,2-1.61,1.61a10.51,10.51,0,0,1-2.14-1.48,3.21,3.21,0,0,0-2.2-1.07c-.54,0-.67-.8-1.74-.13s-2.15,0-2.28,1.07.27,2.21-.27,3.08.14.93-.93.87-1.34.6-1.21-.87-.27-3.21-1.07-3.35-.8-.93-2-.93-1.6,1.07-2.81,1.07-2.6-.67-2.74-1.34.14-2-1.2-2.14a4.3,4.3,0,0,0-2.28,0c-1.2.26-2.54.53-3.34-.67s-.27-.14-1.21-2.41-1.6-4.42-2.27-3.08.27,2.94-1.34,2.54-1.14.67-2.14-1.2-1-2.68-2.21-2.28-2.14.54-1.07,1.74,1.74.4,2.14,1.61.07,2.81,1.94,2.81a7.07,7.07,0,0,1,4,.8c1.74.81.67,1.34,2.81,2.28s2.41.13,3.21,1.07,1.81,2.14,3.34,2.27,3.28-.8,4.08.27.4,1.94,1.34,3.14,1.47,1.21,2.14,1.21.94,0,1.47,1.07,1.21,2,2.15,1.07.53-.67,1.6-1.07,2.54-1.21,1.74.13a12.68,12.68,0,0,1-2.54,2.81c-.94.94-1.47,1.07-2,2.55s-.67,2-2.67,1.87a11.74,11.74,0,0,1-3.48-.67c-.94-.27-3.75-1.34-2.41-1.47s1.6-.54,1.47-1.34,0-1.47-.94-1.34.33,0-1.2.54-1.67-.14-1.94.8-.13,1.61-1.47,1.61-.27,0-2.28-.67-1.47.4-2.41-.81-1.47-2-1.33-.8,1.47,1.07.93,2-.67-.4-1.2,1.2-.67,1.61-2,1.74-.4.67-1.61-.13-1.67-.54-2.14-1.07-.73-.67-.6-1.21.07-.13.6-.67,1.27-1.07.54-1.2-.87.13-1.14-.4-.13-1.47-.93-2.41-.27-1.34-1.48-.94-.53,1.21-1.47,0-1.47-.93-1.47-.93a3.1,3.1,0,0,0-1.47,1.33c-.67,1.07-.94,2.28-1.88.94s-.66-1.74-1.47-1.74-1.6.8-1.87-.4-.4-.94,0-1.74.8-1.54-.14-1.4-1.54.13-2-1.07,1.2-1.88.53-2.28-.6,0-1.4-.53-.54-1.74-1.34-1.88-.4,0-1.07.27a29.08,29.08,0,0,1-3.48.27c-.8.13-1.34.8-.67.8s2.28-.4,2.68.27.53.8,1.34.8,1.74.27,1.87.8.4,1.88.4,1.88a12.49,12.49,0,0,1,.87,2.87c0,.81.87.94-.27.81s-.73.53-1.4-.27-.27-1.47-.94-1.07a3.14,3.14,0,0,1-1.87.13s-1.61-.27-1.61.54-.13,1.74.94,1.33,1.61-1.2,2-.4-.14,1.74.53,2,.81-.27,1.21.54.46,1.07,1.27,1.07,2-.27,2.27,1.2.54,2.28.13,2.81-.53.54-1.2.54-.87.26-1.54-.67-.13-1.47-.93-1.21-1.74.67-.54,1.34,2.21.54,2.61,1.34.67,1.34,0,1.61a1.82,1.82,0,0,1-2.21-.41,5.21,5.21,0,0,0-1.47-1.2c-.67-.4,0-.27-.94-.8s-1.07-1.07-1.6-.27a1.81,1.81,0,0,1-3,.4c-1.2-1.2-2-1.2-.8-1.87s1.34-2.14.54-1.74-.81,1.2-1.88.8-1.34.27-1.6-.94-1.34-1.33.13-1.74,2.41-.8,1.34-1.07-2.14,0-2.14-1.07a22.27,22.27,0,0,0,.27-3.34,26.26,26.26,0,0,1-.14-3.28c0-1.47,1.21-1.61,0-2.54s-1.47-.14-1.6-1.34-1.27-2.41-1.41-1.87-.33.66.47,1.87,1.34.4,1.34,2a24.71,24.71,0,0,0,.26,3.74,8.37,8.37,0,0,1,.14,2.74,32.89,32.89,0,0,0,.13,4,4.41,4.41,0,0,0,.67,2.68c.67.93,1.74,2.27.8,2.41s-1.33.66-2.27.26a3.56,3.56,0,0,1-2.47-2.81c-.14-1.6.53-1.6.26-3.21s-.13-2.27-.8-1.74-1.07.67-1.47,1.61-.67,2.27-1.34,1.87-1.87.27-1.2-1.47,1.87-2.28.67-2.95-.67-1.6-1.74-.4-2.15,1.47-2.68.14.67-1.94-.13-3.15-.94-1.33-2.41-1.47-2.62.14-2.95-1.07-.46-2.41-1-1.34.13,1.74-.67,2.14.14,1.34-.8,1.61-2.14,1.54-1.34,1.8,1.2.54,1.47,0,.14-1,1.07-1.26,2.08-.81,2.74-.27,1.34.2,2,1.27.27,1.33.8,2,1.88.94,1.08,1.48-1.34-.14-2.15.4-2,1.34-1.33,1.6.93-.4,1.47.41,1.2.8.4,1.2-.67.13-1.47.67-.87.8-1.88,0-1-1.07-1.67-.8-2,.66-.93,1.33a6.18,6.18,0,0,0,3,1.21c.93,0,.53.4,2.14.13a12.08,12.08,0,0,0,4.15-1.07c1.6-.8,2-1.2,3.07-1.2s2.41-.4,2.41.26-.8,1.08-1.47,1.34-2.41.54-2,2,.94,2.81,1.74,3.08,1.74-.34,2.28.73-.07,1.21.93,2.95.74,1.47,1.81,1.6,2.41,0,2.54,1.88-.8,3.34,1.87,3.48,3.75,1.6,4.69-.41.94-3.61,2-2.67,1.87,1.6,1.87,1.6,2.61,1.48,3.54.94,1.61,0,2.41-1.34.81-2,2-2.14,2.14-.67,3.21.4-.13.94,1.74,3.21,4.88,4.55,7,5.09,4.15.13,5.09-.8,1.87-2.81,3.75-1.61.93,2.08,1.87,2.94.87.2,2.47,1.14,3,1.07,3.75.13,1.21-1.2,1.61-.13,1.34,2.54,1.74,1.07-.4-1.67.53-2.21,1.88-.13,1.34-1.07a3,3,0,0,0-1.07-1.2s-2-1.74-1.34-2.28a5.66,5.66,0,0,1,1.88-.8,11.12,11.12,0,0,0,3.61-2.27c.94-1.21.6-3.75,2.34-3.08s1.6,2.27,2.94,1.47,1.74-1.87,3-2,.67-.93,2.54-1.47,2.94-.67,3.88.13A5.85,5.85,0,0,0,146,388.2a11.43,11.43,0,0,0,2.21-.81c1.07-.53,1.33-.93,1.74-.13s1.07,1.6,1.33.53-.53-2.27,1.07-1.33,2.28.26,2.55,1.47,1.07,1.07,1.2.13a11.42,11.42,0,0,0,.27-2.81,1.47,1.47,0,0,1,.8-1.94c1.07-.4,2.54-1.74,3.21-.67s2.15,1.81.54,1.94-2.41-.4-2.94.27-1.48,1.07-.27,1.87,1.74.14,2.54,1.07.67.94.13,1.88a12.13,12.13,0,0,0-1.47,3.21c-.8,2.27-1.47,3.21-.67,3.08a2,2,0,0,0,1.47-2c0-.94-.26-1.2.54-1.87s.07-.81,1.2-1.48a3.75,3.75,0,0,0,1.41-2.4s-.54-1.61.53-1.48,2.41.54,2.41,1.74-.27,1.88.14,1.21.13-1.61.8-1.88,1.87-.8,2.67.14a8.16,8.16,0,0,1,1.61,2.41c.67,1.33,1.87,1.87,1.21,2.67s-.94,2-2.55,1.07-1.87-1.6-2.67-1.87-1.21-.67-1.34-.13-.27.8,1.07,1.47,1.47,1.07,2.41,1.2a8.4,8.4,0,0,0,2,0s1.74-1.34,2.82-.53a3.43,3.43,0,0,1,1.6,2.67c0,.94-.2.41.94.94s1.94.07,1.8,1.21a12.18,12.18,0,0,1-.4,2.6c-.27.81-.34,2.68-.94,3.21s-1.53.94-1.53.14,1.07-1.88.26-2.54-1.2-.14-1.2-.14.54,1.07-.8.8a2.13,2.13,0,0,0-1.88.27,5.17,5.17,0,0,1-1.47,1.88c-.94.67-3.61.67-2.14,2s2.14,1.34,2.54.4.4-2.14,1.61-2.27,3.08,0,2,.94-2.68,1.87-.54,1.74,2.08.26,2.81-.54.6-1.74,1.27-.4,1.07,2.68,1.34,1.2,0-1.07.94-1.87a2.27,2.27,0,0,0,.8-1.87s-1.07-2,.13-1.88,2.55.14,2.95,1.34.53,1.47-.14,2-2.41,1.74-1.34,1.87a1.94,1.94,0,0,0,1.61-.4l1.74-.8s2.14-.4,1.34,2.27-1.34,2.95-1.34,2.95-2.41-.54-2,.53.81,1.34,2,1.21,2.81-.27,2.81-.27-.53-2.28.67-1.74,1.81-.33,2.41,1.61.33,2.2,1.4,3.14,2.68,1.07,1.87,1.6a3.7,3.7,0,0,1-3.54-.13c-1.07-.67-.4-1.2-1.61-1.74a6.23,6.23,0,0,0-2.27-.53,7.72,7.72,0,0,1-3.75-.14c-2.67-.53-3.88-.53-5.08,0s-1.81-.13-2.48.8.41,1.34-1.2,1.34-.8,1.07-3.21-.4-3.21-1.67-4.82-2.74-1.74-.67-2.68-2.68-.07-2.41-2.14-2.27-3-.8-4.61.4-2.55,1.87-2.55,1.87l-2.67.81a7.26,7.26,0,0,1-4.42-2.28c-1.67-2-1.53-2-2.61-3.21a13.89,13.89,0,0,0-2-1.87,2.91,2.91,0,0,1-3.21-1.07c-1.34-1.74-2.15-2.81-2.15-2.81l-2.54-2.08-2.54-.53-2.07-1.07s-2.28.26-2.55.93-.66,1.47,0,1.27a6.24,6.24,0,0,0,1.34-.46,2.42,2.42,0,0,1,1.81,0l2,.46a.94.94,0,0,1,1.74.14c.81,1.47.81,1.34.94,2.27s1.34,1.34,1.34,1.34l2.68,1.74s1.33-.8,2.81,1.2,1.8,3.62,3.81,5.22,1.87,2.55,4.95,2.14a29.07,29.07,0,0,0,5.35-1.2s1.41-4.08,4.42-.4,3.94,5.42,6.89,6.49,6.35,2.67,9.83,1.6,3.48-1.74,5.09-.26,7.42,4,10.63,3.88a47.39,47.39,0,0,0,6.16-.41c1.34-.26,3.75-1.07,5.35.14s2.48,3.81,5.42,5.89,5.35,4.08,7.36,3.81,1.68-1.61,3.35-1.21a34.75,34.75,0,0,1,4.48,1.34,6.49,6.49,0,0,0,4,.27c1.88-.27,4.42-.67,5.62,1.61s.74,2.27,2.08,4.55a35,35,0,0,0,3.47,4.81c1.61,2.08.54,2.88,1.88,3.41s4.41,1.34,4.28-.4-.27-1-.67-2.87,0-2.41,1.34-2.41,2.81-.27,3.08,1.07,1.07,3.81,1.07,3.81.94,2.28.27,2.95.26.8-1.88.93-2.81.54-4.68.27-.54.67-3.21-.27-8.23-2.81-10.77-3.75-24.79-6.64-30-9-14.24-3.8-18.51-5.22-33.7-7.6-37.49-9a100.38,100.38,0,0,0-16.61-4.27c-7.6-1.43-12.34-2.85-18.51-3.32S89.54,412,81,411.53s-23.73-3.79-27.53-3.79a45.9,45.9,0,0,1-14.71-1.9c-6.17-1.9-7.12-2.85-7.12-2.85s-8.07-2.85-10.44-3.32S15,397.3,10.76,397.3s-8.55.95-8.55-1.43v-4.74c0-3.32-1.89-2.85-.94-6.17a51.64,51.64,0,0,0,1.42-5.7c.47-2.37,1.95-6.78,1.95-6.78l5.17-.34L16,370.25s-1.49-7,4.73-9c.38.2,7.7,2.83,10.16-2.76,2.7-2,8.05-1.9,9.28-8.79,0-.49,1-5.41,3.93-6.15-.24.25,5.17-.67,5.42-4.85,1.47-2.21,2.28-7.14,4.43-8.37s4.11-2.95,5.59-2.21,4.43-.07,6.15-3.69,3.2-5.35,0-8.79c0-.25-2.22-1.79-2.46-4.92-1.48-2-4.18-5.35-3.2-7.56a25.12,25.12,0,0,0,1.48-6.89c.24-2,1.72-7.07,3.2-9s2.7-6.22,3.93-7.87A8.26,8.26,0,0,0,70.1,276s-2.29-5.66.91-6.64,5.17-2.21,6.4-3.94,2.53-4.36,5.41-7.06,5.6-4.5,5.84-9.6,1-11.5,4.92-13.46,8.58-5.58,5-9.65a13,13,0,0,1,2.33-.24s2.17-4.07,2.91-2.84.28,3,1.49,2.84,4.66.6,6.87.36,6.76-.55,6.76-.55a24.52,24.52,0,0,0,7.45,3.5c.24,0,8.29-3.94,8.29-3.94l2.22-.49,5.76.17,3.6-1.7a4,4,0,0,1,2.87-.44c-.49-.24,3,.74,4.43-.24a2.16,2.16,0,0,1,2.71.24l.24,4.43s-2.7,0-3.69,1-2.94,1.51-3.31,2.6-1.9.95-1.9.95a3.15,3.15,0,0,0-2.1,2.53c-.25,2-1,3.65-.77,5.64-.71,2.23-.39,3.28-2.27,4.36a23.81,23.81,0,0,1-3.85,1.81,10,10,0,0,0-3.94,2.39c-1.47,1.48-3.13,1.16-4.6,0,.24.25-2,.37-2,.37h-5.69s-1.06-.78-2.08,1.52c0,.57-1.33,1.89-1.33,1.89l-1.9.65-2.15,1.48-3.2.74s-1.41-1-2.06.35-.89,2.53,1.82,8.19c1.23,4.43,4.84,20.1,4.84,20.1a8.26,8.26,0,0,0,4.19,4.19c.25.25,3.94,3.69,3.94,3.69l8.57,5.23,1.52,2.27,2.08-.57,4.49-2.81,4.61-1.74,3.44,3.7,3.2,2,.4,1.16,1.57.32,1.46-.89,2.23-.34L160,300l10,0,5.71,4.59,1.6.82.88-2,1.58-1,.7-1.66,3.73,1.42,13.71.73,16.48,1.71,4.86-.48s2.22-.67,2.22,2.22,1.23,4.85-2,8.79a57.27,57.27,0,0,0-2.46,6.4s-2,3.86-2.46,4.85-.11,2.67,1.54,1.46c-.31-.23-.65,6.49-.65,6.49s-1,2.43,2.38,2.16c3.37,0,19-.76,19-.76s3-.92.49,2.46-6.64,9.77-6.64,9.77-2.82,2.85-2.64,5c.18.21-6.43-.53-6.43-.53l-2.18.25-1.72-3.41v-2l-1.58-.84-6.29-.14-5.84-.74-4.42.25-3.91.1-1.9,2.64-3.16-.53-1.3.49s-2.92-1.58-3.55-.17-2,4.11-2,4.11a3.88,3.88,0,0,0-2.64,1.69c-1.41,1.69-1.44,3.34-2.53,4.11A18.57,18.57,0,0,0,175.83,361.57Z"/><path class="cls-1" d="M275.77,449.18c.19-.39,1.15,3.26,2.31,3.45a4.86,4.86,0,0,0,3.26-.19,17.56,17.56,0,0,1,6.74-.77c2.49.19,2.86.77,7.3.39s5-1,7.69-1.35,5.36-1.15,9-.38,8.08,1.92,9.81,1.53,1.92.77,2.11-1.34-.57-3.65-1.54-3.07-.19.57-1.53,1.15-1.92,1.54-2.31.19.39-2.3-1.15-1.53-.57,2.49-2.11,1.53.4-.77-1.54-1.92-.78-1-2.51-1.15-.19-.4-2.3-.79-2.31-1.74-3.08-.19,1.16,2.32-1.34,2.32-1.34-1.73-3.07.2-2.52,3.26-3.28,1.92-1.52-1.72.4-3.08,3.45-1.55,3.84-2.7,0-2.11,1.34-2.31,2.31-1,4.61-1.34a13.33,13.33,0,0,1,6.16,0c2.69.58,5.19,1.54,6.91,1s2.12-1.92,4-2.5a21.44,21.44,0,0,1,5.39-.57c.77,0,1.73.77,1.34-1s.2-1.16-1.15-2.31-1.13-2.88-2.11-1.15-1.36,1.92-2.7,1.54-1.54-.58-2.31.19-1.15,2.11-2.88.77a14.64,14.64,0,0,0-4.22-2.5c-1.16-.38-1.73-1.73-.58-1.34a28.24,28.24,0,0,1,3.26,1.72c1.54.77,2.69,1.35,2.31,0s.57-3.64,1.54-2.68,1,1.92,1.92,1.53a1.27,1.27,0,0,0,.19-2.3c-1-.79-1.54-.4-2.11-1.55s-1.16-2.12-1.16-2.12a5.27,5.27,0,0,1-2.11,0c-1.54-.19-2.88-1.15-1.34-1.15s2.68,1.15,2.3-1.15,1-2.69-.77-4-1.73-1.73-3.65-1.35-1.33,1-2.3,2.69,0,2.5-2.71,2.3-1.15-1.34-4-.38-3.84,1.54-4.22-.38a9.5,9.5,0,0,1-.19-3.27c0-1.73.57-4-1-2.49s-.94,0-2.49,2.11,0,2.49-1.75,3.07,1,.77-3.07.38-5-.57-6.14-.19-1.73.19-3.46.58-3.07,1-1.92,1.92,1.73,1,3.26,2.69,2.31,2.51,4.61,2.32,5.59-.23,7.12-.21,1.16,1.36,2.5.78,1.92-.4,1.15-1.36-1.15-2.68-.19-1.92,0,1.72,1.54,2.31,1,.59,1.92,1.36.19,2.49,2.3,1.15,3.65-2.5,3.46-1.54.38,1.92-1.15,2.31-1.35.77-2.31,1a5.13,5.13,0,0,1-2.49-.58s.38,1.35-1.35.39-2.69-1.16-3.65-1-3.09-.58-3.28.38.58,3.07-.19,3.46-1.15-.77-1.15-1.92.57-1.73-.58-1.92-1.53,0-2.88-.2-2.3-1.34-3.46-1.72a31.38,31.38,0,0,1-3.84-2.32c-1.34-.77-2.32-2.12-3.47-2.31s-2.88-2.3-3.46-1-1.15,1.71,0,3.65a15.82,15.82,0,0,0,3.27,3.66c.77.77,2.11,1.54,1.92,2.69s0,1.54-1.34,1.92-1.16,2.12-2.31,1.35-2.3-.19-2.5-2.69-.38-2.88-.38-4-.58-2.31-1-1.35a33.45,33.45,0,0,0-.77,5.19c-.19,1.53,0,3.84-.19,5.76a28,28,0,0,0,0,4.24A7.77,7.77,0,0,1,275.77,449.18Z"/><path class="cls-1" d="M275.77,449.18c.19-.39,1.15,3.26,2.31,3.45a4.86,4.86,0,0,0,3.26-.19,17.56,17.56,0,0,1,6.74-.77c2.49.19,2.86.77,7.3.39s5-1,7.69-1.35,5.36-1.15,9-.38,8.08,1.92,9.81,1.53,1.92.77,2.11-1.34-.57-3.65-1.54-3.07-.19.57-1.53,1.15-1.92,1.54-2.31.19.39-2.3-1.15-1.53-.57,2.49-2.11,1.53.4-.77-1.54-1.92-.78-1-2.51-1.15-.19-.4-2.3-.79-2.31-1.74-3.08-.19,1.16,2.32-1.34,2.32-1.34-1.73-3.07.2-2.52,3.26-3.28,1.92-1.52-1.72.4-3.08,3.45-1.55,3.84-2.7,0-2.11,1.34-2.31,2.31-1,4.61-1.34a13.33,13.33,0,0,1,6.16,0c2.69.58,5.19,1.54,6.91,1s2.12-1.92,4-2.5a21.44,21.44,0,0,1,5.39-.57c.77,0,1.73.77,1.34-1s.2-1.16-1.15-2.31-1.13-2.88-2.11-1.15-1.36,1.92-2.7,1.54-1.54-.58-2.31.19-1.15,2.11-2.88.77a14.64,14.64,0,0,0-4.22-2.5c-1.16-.38-1.73-1.73-.58-1.34a28.24,28.24,0,0,1,3.26,1.72c1.54.77,2.69,1.35,2.31,0s.57-3.64,1.54-2.68,1,1.92,1.92,1.53a1.27,1.27,0,0,0,.19-2.3c-1-.79-1.54-.4-2.11-1.55s-1.16-2.12-1.16-2.12a5.27,5.27,0,0,1-2.11,0c-1.54-.19-2.88-1.15-1.34-1.15s2.68,1.15,2.3-1.15,1-2.69-.77-4-1.73-1.73-3.65-1.35-1.33,1-2.3,2.69,0,2.5-2.71,2.3-1.15-1.34-4-.38-3.84,1.54-4.22-.38a9.5,9.5,0,0,1-.19-3.27c0-1.73.57-4-1-2.49s-.94,0-2.49,2.11,0,2.49-1.75,3.07,1,.77-3.07.38-5-.57-6.14-.19-1.73.19-3.46.58-3.07,1-1.92,1.92,1.73,1,3.26,2.69,2.31,2.51,4.61,2.32,5.59-.23,7.12-.21,1.16,1.36,2.5.78,1.92-.4,1.15-1.36-1.15-2.68-.19-1.92,0,1.72,1.54,2.31,1,.59,1.92,1.36.19,2.49,2.3,1.15,3.65-2.5,3.46-1.54.38,1.92-1.15,2.31-1.35.77-2.31,1a5.13,5.13,0,0,1-2.49-.58s.38,1.35-1.35.39-2.69-1.16-3.65-1-3.09-.58-3.28.38.58,3.07-.19,3.46-1.15-.77-1.15-1.92.57-1.73-.58-1.92-1.53,0-2.88-.2-2.3-1.34-3.46-1.72a31.38,31.38,0,0,1-3.84-2.32c-1.34-.77-2.32-2.12-3.47-2.31s-2.88-2.3-3.46-1-1.15,1.71,0,3.65a15.82,15.82,0,0,0,3.27,3.66c.77.77,2.11,1.54,1.92,2.69s0,1.54-1.34,1.92-1.16,2.12-2.31,1.35-2.3-.19-2.5-2.69-.38-2.88-.38-4-.58-2.31-1-1.35a33.45,33.45,0,0,0-.77,5.19c-.19,1.53,0,3.84-.19,5.76a28,28,0,0,0,0,4.24A7.77,7.77,0,0,1,275.77,449.18Z"/><path class="cls-1" d="M290.77,398.22c.18-.37,1.34,2.71,0,3.47s-1.92-1-1.92,1.16a39.78,39.78,0,0,1-.39,4,13.6,13.6,0,0,1-.38,2.3s-1,.77-1.73.39-1.92,1.15-2.11-1a20.6,20.6,0,0,1-.19-2.88c0-1.16-1-2.5-.2-2.88s1.16-.39,1.73-1.35,2.5-2.72.39-1.93-2.52-.18-3.09,1.16-.19,2.69-.58,3.84-1,1.54-1.15,2.31,0,1.73-1,2.5-1.35,1-1.73,1.92a2.7,2.7,0,0,1-1.54,1.34,5,5,0,0,0-1.53-1.54c-1-.57-1.35-.76-1.35-.76s-1.15-2.69-.19-2.88.39.38,1.35-.77a13.77,13.77,0,0,0,1.72-3.08,12.35,12.35,0,0,0-1.53,1.35c-1,1-.77,1.15-2.5,1.34s-2.5.2-3.46-1-1.55-1.15-1.74-2.49,0-2.69,1.17-2.88,1.53-.77,2.49,0,2.31.78,1.54,0-1.54-1.36-.58-1.75,1.35-1.15,2.31-.38,2.11.75,1.92,1.73-.19,2.89,1,2.51.38-.95,1.15-1.73,1.73-.78,1.92-1.74-.19-1.35-1.34-1.16-2.31.77-2.5-.19,0-1.53-1-1.34-1.34.77-1.73-.39-.57-1.73.58-1.92,1-.38,1.15-1.92-1.15-2.11-1.53-1.15.57,2.69-.77,3.07-.77.19-1.35,1.35-2.69,3.07-2.88.77,1-3.08-.57-3.08-2.32.39-1.94,1.35a4.55,4.55,0,0,0,1.36,2.3c.77.58,2.5,0,1.92,1.54a2.86,2.86,0,0,1-2.9,2.13c-1.34,0-1.34,1.13-2.11-.6s.39-1.92-.38-3.26-1-2.31-1.15-1.15-.58,2.3-1.92,1.53-1.16.39-1.73-1.15a2.61,2.61,0,0,1,.19-2.5s.38-2.49-.39-1.34-.38,2.5-1.53,1.92a27,27,0,0,0-3.27-1.73c-.76-.19-1.36.58-2.12-1.15S251,389,251,388s.19-1.72,1-1.15a17.65,17.65,0,0,0,3.66,2.11,2.54,2.54,0,0,0,1.35,0s1-1,1.72,0,2.31,1.35,2.5.58,1.54-1-.38-1.34-.39.19-1.92-1-1.73-.58-2.69-.2-1,1.16-2.11.2-2.5-1.54-.77-1.73a2,2,0,0,0,1.73-2.71c-.39-1-1-1-.77-1.92s.57-1.73,1.34-.38.77,3.07,1.73,3.07,1.54,0,1.73-1,0-1.92,1.34-1.73,2.31,0,2.5,1.35-.58,2.89,1,2.89,1.92.4,2.3-.38,1.54-1.92,1.54-.19.78,4.41,2.13,3.84,1.92-.58,1-1-1.73-.56-1.73-1.92.4-1.75-.58-2.32-2.14-.39-1.16-1.16a3.43,3.43,0,0,1,1.93-.76s1.73-1,1.92-1.73,0-.58,1.35-.77,1.34-.38,1.73-1.34-.1-1.12-1.91.14-1.8,1.8-2.88,2.34-1.3,0-2,.73-.37,2.34-2,1.08-2.16-.9-1.62-2.89.18-2.16.18-2.16-.72,2.16-2,2.16-1.09-.18-1.81.54a6.58,6.58,0,0,0-1.8,2.71c-.18.9-1.26-.18-1.8-1.08s-1.81-2-.73-2.53a2.77,2.77,0,0,0,1.27-2l-1.08-1.26s1.26-1.81.54-3.25-.36-2.52-1.09-1.44-.36,1.62-1.44,1.8a2.66,2.66,0,0,0-1.66,1.08s.72,1.63-.54,1.63-1.44.9-2.35-.54-1.8-1.63-.9-2.89,1.08-2.34.36-1.8-.18.54-1.26,1.26a6.5,6.5,0,0,1-1.8.9l-3.79-6-2.52-6.49.18-9.24-.54-4.14s0-2.53,2.34-2,10,.57,10,.57l12-4.54a4.77,4.77,0,0,1,4,.55l9.05,5.22a5.06,5.06,0,0,1,3.79,4.51c.18,3.65,1.62,23.89,1.62,23.89s1.48,6.27,1.66,8.65a46.76,46.76,0,0,1-.18,6.17s-.28,3.3,2.57,4a4,4,0,0,0,2.66,3C289.14,396.58,290.41,396.79,290.77,398.22Z"/><path class="cls-1" d="M290.77,398.22c.18-.37,1.34,2.71,0,3.47s-1.92-1-1.92,1.16a39.78,39.78,0,0,1-.39,4,13.6,13.6,0,0,1-.38,2.3s-1,.77-1.73.39-1.92,1.15-2.11-1a20.6,20.6,0,0,1-.19-2.88c0-1.16-1-2.5-.2-2.88s1.16-.39,1.73-1.35,2.5-2.72.39-1.93-2.52-.18-3.09,1.16-.19,2.69-.58,3.84-1,1.54-1.15,2.31,0,1.73-1,2.5-1.35,1-1.73,1.92a2.7,2.7,0,0,1-1.54,1.34,5,5,0,0,0-1.53-1.54c-1-.57-1.35-.76-1.35-.76s-1.15-2.69-.19-2.88.39.38,1.35-.77a13.77,13.77,0,0,0,1.72-3.08,12.35,12.35,0,0,0-1.53,1.35c-1,1-.77,1.15-2.5,1.34s-2.5.2-3.46-1-1.55-1.15-1.74-2.49,0-2.69,1.17-2.88,1.53-.77,2.49,0,2.31.78,1.54,0-1.54-1.36-.58-1.75,1.35-1.15,2.31-.38,2.11.75,1.92,1.73-.19,2.89,1,2.51.38-.95,1.15-1.73,1.73-.78,1.92-1.74-.19-1.35-1.34-1.16-2.31.77-2.5-.19,0-1.53-1-1.34-1.34.77-1.73-.39-.57-1.73.58-1.92,1-.38,1.15-1.92-1.15-2.11-1.53-1.15.57,2.69-.77,3.07-.77.19-1.35,1.35-2.69,3.07-2.88.77,1-3.08-.57-3.08-2.32.39-1.94,1.35a4.55,4.55,0,0,0,1.36,2.3c.77.58,2.5,0,1.92,1.54a2.86,2.86,0,0,1-2.9,2.13c-1.34,0-1.34,1.13-2.11-.6s.39-1.92-.38-3.26-1-2.31-1.15-1.15-.58,2.3-1.92,1.53-1.16.39-1.73-1.15a2.61,2.61,0,0,1,.19-2.5s.38-2.49-.39-1.34-.38,2.5-1.53,1.92a27,27,0,0,0-3.27-1.73c-.76-.19-1.36.58-2.12-1.15S251,389,251,388s.19-1.72,1-1.15a17.65,17.65,0,0,0,3.66,2.11,2.54,2.54,0,0,0,1.35,0s1-1,1.72,0,2.31,1.35,2.5.58,1.54-1-.38-1.34-.39.19-1.92-1-1.73-.58-2.69-.2-1,1.16-2.11.2-2.5-1.54-.77-1.73a2,2,0,0,0,1.73-2.71c-.39-1-1-1-.77-1.92s.57-1.73,1.34-.38.77,3.07,1.73,3.07,1.54,0,1.73-1,0-1.92,1.34-1.73,2.31,0,2.5,1.35-.58,2.89,1,2.89,1.92.4,2.3-.38,1.54-1.92,1.54-.19.78,4.41,2.13,3.84,1.92-.58,1-1-1.73-.56-1.73-1.92.4-1.75-.58-2.32-2.14-.39-1.16-1.16a3.43,3.43,0,0,1,1.93-.76s1.73-1,1.92-1.73,0-.58,1.35-.77,1.34-.38,1.73-1.34-.1-1.12-1.91.14-1.8,1.8-2.88,2.34-1.3,0-2,.73-.37,2.34-2,1.08-2.16-.9-1.62-2.89.18-2.16.18-2.16-.72,2.16-2,2.16-1.09-.18-1.81.54a6.58,6.58,0,0,0-1.8,2.71c-.18.9-1.26-.18-1.8-1.08s-1.81-2-.73-2.53a2.77,2.77,0,0,0,1.27-2l-1.08-1.26s1.26-1.81.54-3.25-.36-2.52-1.09-1.44-.36,1.62-1.44,1.8a2.66,2.66,0,0,0-1.66,1.08s.72,1.63-.54,1.63-1.44.9-2.35-.54-1.8-1.63-.9-2.89,1.08-2.34.36-1.8-.18.54-1.26,1.26a6.5,6.5,0,0,1-1.8.9l-3.79-6-2.52-6.49.18-9.24-.54-4.14s0-2.53,2.34-2,10,.57,10,.57l12-4.54a4.77,4.77,0,0,1,4,.55l9.05,5.22a5.06,5.06,0,0,1,3.79,4.51c.18,3.65,1.62,23.89,1.62,23.89s1.48,6.27,1.66,8.65a46.76,46.76,0,0,1-.18,6.17s-.28,3.3,2.57,4a4,4,0,0,0,2.66,3C289.14,396.58,290.41,396.79,290.77,398.22Z"/><path class="cls-1" d="M237.81,396c.9,0,1.63.72,2.71.18s1.26-.54,1.26-1.8,0-1.8.9-1.8,1.44.36,2.53-.36a7,7,0,0,1,2.34-1.09c1.08-.36,1.44-1.26,1.26-2.52a4,4,0,0,0-.9-2.34c-.54-.73-.72-1.05-.18-1.63a1.28,1.28,0,0,0-.54-2c-.9-.36-3.07-1.62-4.15-1.44a8,8,0,0,0-2.7.54c-1.27.54-2.17.86-2.35,2.34s-.9,2.57-.36,4,.72,1.62.54,2.88S236.91,396,237.81,396Z"/><path class="cls-1" d="M237.81,396c.9,0,1.63.72,2.71.18s1.26-.54,1.26-1.8,0-1.8.9-1.8,1.44.36,2.53-.36a7,7,0,0,1,2.34-1.09c1.08-.36,1.44-1.26,1.26-2.52a4,4,0,0,0-.9-2.34c-.54-.73-.72-1.05-.18-1.63a1.28,1.28,0,0,0-.54-2c-.9-.36-3.07-1.62-4.15-1.44a8,8,0,0,0-2.7.54c-1.27.54-2.17.86-2.35,2.34s-.9,2.57-.36,4,.72,1.62.54,2.88S236.91,396,237.81,396Z"/><path class="cls-1" d="M235.79,407.8s.76.37,2-.9a20.25,20.25,0,0,1,4.33-2.7s2.34-1.44,3.07-.36,1.26,1.62,2,1.44,2,1.62,2.34-.36a7.3,7.3,0,0,0,.18-2.71c0-1.62,0-3.24.73-2.34s.54,2.16.9,2.89,1.3,0,1.66,1.44-.4,1.26-1.48,2-2.89,2-1.81,3.07.73.36,1.27,1.8.32.72,1.62,1.8,2.74,2,3.65,1.63.9.18,1.08-1.81-.18-.54.54-2.34-.72-2.16.9-2.16,2,.36,3.07.36,1.8,2.7,2.16-.18.72-2.89-.54-4.51-4-3.83-5-5.09-3.75-4-5.23-4.69-3.65-1.8-4.73-1.26a7.79,7.79,0,0,1-2.16.9c-1.26.36-2.35.18-2.71,1.26s1.45,2-1.8,2.35-4.19,0-5.09.72-1.44.4-2,2a5.09,5.09,0,0,0-.18,3.61,6.07,6.07,0,0,1,.72,2.16A7,7,0,0,0,235.79,407.8Z"/><path class="cls-1" d="M235.79,407.8s.76.37,2-.9a20.25,20.25,0,0,1,4.33-2.7s2.34-1.44,3.07-.36,1.26,1.62,2,1.44,2,1.62,2.34-.36a7.3,7.3,0,0,0,.18-2.71c0-1.62,0-3.24.73-2.34s.54,2.16.9,2.89,1.3,0,1.66,1.44-.4,1.26-1.48,2-2.89,2-1.81,3.07.73.36,1.27,1.8.32.72,1.62,1.8,2.74,2,3.65,1.63.9.18,1.08-1.81-.18-.54.54-2.34-.72-2.16.9-2.16,2,.36,3.07.36,1.8,2.7,2.16-.18.72-2.89-.54-4.51-4-3.83-5-5.09-3.75-4-5.23-4.69-3.65-1.8-4.73-1.26a7.79,7.79,0,0,1-2.16.9c-1.26.36-2.35.18-2.71,1.26s1.45,2-1.8,2.35-4.19,0-5.09.72-1.44.4-2,2a5.09,5.09,0,0,0-.18,3.61,6.07,6.07,0,0,1,.72,2.16A7,7,0,0,0,235.79,407.8Z"/><path class="cls-1" d="M208.16,411.23s-.36,4.19,2,5.09,2.71,1.44,4.15,2a37.58,37.58,0,0,0,6.49,1.08,14.86,14.86,0,0,0,6.53-1.08,14.3,14.3,0,0,1,7.4-1.08c2.7.36,7.79,2.16,9.95,2.53a33,33,0,0,0,7.22.18c1.66-.18,4.37-.18,6.17-.36s5.95-1.09,7.57-1.45.54-1.08-.54-1.8a25.68,25.68,0,0,0-2.88-1.84c-1.09-.54-2.17-.77-2.17.18s.18,2-2.52,2H253c-1.48,0,.14-.18-2.38-.54s-1.63-.18-3.07,0-2.16.54-2.16-.18.18-1.3,1.44-1.3,2.7.36,2.52-1.09.18-1.26-.54-2.88-1.08-2.34-2-2.89-1.62-.54-2.35-1.26a1.88,1.88,0,0,0-2.88.18c-1.08,1.08-.72.9-1.8,1.45s-2.57,1.08-2.57,1.08-.36.72-1.44.36-1.62-.18-1.62-1.63-.91-2.34-1.63-2.16-.36,1.44-.36,2.16.72,2,.72,2.89-.9,2,.91,2h3.24c1.12,0,2.43.18,1.3.9a2.46,2.46,0,0,1-2.92.37c-1.44-.55-1.62-.18-2.71-.55s-1.08,0-1.44-1.08a13.67,13.67,0,0,1-.72-2c-.18-.9-.18-.54.18-1.62s.72-.18.36-1.81-.18-2.16-.9-1.62-.18.54-1.44.72a12,12,0,0,1-2.71,0s-1.08-.18-.72,1.08,1.62,1.09,1.08,2-.9-.36-1.44,1.08,0,3.61-.9,2.7-1.26-1.44-.9-2.52,1.08-1.62.36-2.16-.4-1.45-1.12-.55-.37,1.09-1.81,1.09a3.29,3.29,0,0,0-2.34,1.08s1.8,1.08.9,1.8-2-.18-1.8-2.34.36-1.45-.72-1.45-3.25,0-3.25,1.27-.72,1.62-1.62,1.44-.72.36-1.09-.72-.54-2-1.26-1.26A7.74,7.74,0,0,0,208.16,411.23Z"/><path class="cls-1" d="M208.16,411.23s-.36,4.19,2,5.09,2.71,1.44,4.15,2a37.58,37.58,0,0,0,6.49,1.08,14.86,14.86,0,0,0,6.53-1.08,14.3,14.3,0,0,1,7.4-1.08c2.7.36,7.79,2.16,9.95,2.53a33,33,0,0,0,7.22.18c1.66-.18,4.37-.18,6.17-.36s5.95-1.09,7.57-1.45.54-1.08-.54-1.8a25.68,25.68,0,0,0-2.88-1.84c-1.09-.54-2.17-.77-2.17.18s.18,2-2.52,2H253c-1.48,0,.14-.18-2.38-.54s-1.63-.18-3.07,0-2.16.54-2.16-.18.18-1.3,1.44-1.3,2.7.36,2.52-1.09.18-1.26-.54-2.88-1.08-2.34-2-2.89-1.62-.54-2.35-1.26a1.88,1.88,0,0,0-2.88.18c-1.08,1.08-.72.9-1.8,1.45s-2.57,1.08-2.57,1.08-.36.72-1.44.36-1.62-.18-1.62-1.63-.91-2.34-1.63-2.16-.36,1.44-.36,2.16.72,2,.72,2.89-.9,2,.91,2h3.24c1.12,0,2.43.18,1.3.9a2.46,2.46,0,0,1-2.92.37c-1.44-.55-1.62-.18-2.71-.55s-1.08,0-1.44-1.08a13.67,13.67,0,0,1-.72-2c-.18-.9-.18-.54.18-1.62s.72-.18.36-1.81-.18-2.16-.9-1.62-.18.54-1.44.72a12,12,0,0,1-2.71,0s-1.08-.18-.72,1.08,1.62,1.09,1.08,2-.9-.36-1.44,1.08,0,3.61-.9,2.7-1.26-1.44-.9-2.52,1.08-1.62.36-2.16-.4-1.45-1.12-.55-.37,1.09-1.81,1.09a3.29,3.29,0,0,0-2.34,1.08s1.8,1.08.9,1.8-2-.18-1.8-2.34.36-1.45-.72-1.45-3.25,0-3.25,1.27-.72,1.62-1.62,1.44-.72.36-1.09-.72-.54-2-1.26-1.26A7.74,7.74,0,0,0,208.16,411.23Z"/><path class="cls-1" d="M281.89,420.47a1.35,1.35,0,0,1,.18-2c1.08-1.08,1.8-1.44.9-2.52a17.17,17.17,0,0,0-1.8-1.84c-1.08-1.09-1.26-1.27-1.08-2.17s.18-1.26,1.08-1.44a26.56,26.56,0,0,1,3.29-.18,12.24,12.24,0,0,0,2.34.72,1.94,1.94,0,0,1,1.8,1.44c.36.9.9,2.17,1.81,2.17a5.31,5.31,0,0,1,2.88.76,16.12,16.12,0,0,0,3.25,1.26s1.8,1.26.72,1.44-1.81-.72-2.17.36.18,2-1.26,2h-3.24c-1.63,0-2.53-1.09-3.43-.72a12.41,12.41,0,0,1-1.8.72A21.79,21.79,0,0,1,281.89,420.47Z"/><path class="cls-1" d="M281.89,420.47a1.35,1.35,0,0,1,.18-2c1.08-1.08,1.8-1.44.9-2.52a17.17,17.17,0,0,0-1.8-1.84c-1.08-1.09-1.26-1.27-1.08-2.17s.18-1.26,1.08-1.44a26.56,26.56,0,0,1,3.29-.18,12.24,12.24,0,0,0,2.34.72,1.94,1.94,0,0,1,1.8,1.44c.36.9.9,2.17,1.81,2.17a5.31,5.31,0,0,1,2.88.76,16.12,16.12,0,0,0,3.25,1.26s1.8,1.26.72,1.44-1.81-.72-2.17.36.18,2-1.26,2h-3.24c-1.63,0-2.53-1.09-3.43-.72a12.41,12.41,0,0,1-1.8.72A21.79,21.79,0,0,1,281.89,420.47Z"/><path class="cls-1" d="M279.55,418.66s2,0,2.16-.9.54-3.82-.54-3.64-1.44.72-2.16.36-2.17-1.67-2-.54a6.11,6.11,0,0,0,1.26,2.38Z"/><path class="cls-1" d="M279.55,418.66s2,0,2.16-.9.54-3.82-.54-3.64-1.44.72-2.16.36-2.17-1.67-2-.54a6.11,6.11,0,0,0,1.26,2.38Z"/><path class="cls-1" d="M324,424.61s.14,1.81,2.52,3.25a21.74,21.74,0,0,1,3.83,2.93c.9.72,1.62,1.44,1.8.36s.36-2,.36-2,.9-2.88,1.26-1.62.54.5,0,2-.72,2,.18,2a19.06,19.06,0,0,0,3.25,0c1.62-.18,3.43-.18,3.79.72s1.44,1.44.54,1.8-2,.9-.72,1.44,2.12,2,2.7.54-.68-2.52.58-2.16-.18.9,1.08,1.26,1.81,1.81,2.89.36.9-1.44,2.34-2,2.89,0,2.71-1.8,1.26-3.47-.54-4-4.33.18-5.23-.9-1-2.17-2.53-3.25a5.88,5.88,0,0,1-2.38-2.52c-.54-1.08-.72-2-2-1.44s-.36.54-2,1.44-2.34.36-3.42,1.62A14.28,14.28,0,0,1,332.9,425c-1.08.91-1,1.63-3.06.55s-3.29-2.53-4.19-2.17A4.69,4.69,0,0,0,324,424.61Z"/><path class="cls-1" d="M324,424.61s.14,1.81,2.52,3.25a21.74,21.74,0,0,1,3.83,2.93c.9.72,1.62,1.44,1.8.36s.36-2,.36-2,.9-2.88,1.26-1.62.54.5,0,2-.72,2,.18,2a19.06,19.06,0,0,0,3.25,0c1.62-.18,3.43-.18,3.79.72s1.44,1.44.54,1.8-2,.9-.72,1.44,2.12,2,2.7.54-.68-2.52.58-2.16-.18.9,1.08,1.26,1.81,1.81,2.89.36.9-1.44,2.34-2,2.89,0,2.71-1.8,1.26-3.47-.54-4-4.33.18-5.23-.9-1-2.17-2.53-3.25a5.88,5.88,0,0,1-2.38-2.52c-.54-1.08-.72-2-2-1.44s-.36.54-2,1.44-2.34.36-3.42,1.62A14.28,14.28,0,0,1,332.9,425c-1.08.91-1,1.63-3.06.55s-3.29-2.53-4.19-2.17A4.69,4.69,0,0,0,324,424.61Z"/><path class="cls-1" d="M366.13,390.36a7,7,0,0,1,5.42-2.09c3.76,0,3.07,0,5.84-1a24.06,24.06,0,0,0,3.81-1.73c2.07-1,1.38-2.42,3.46-.35s4.11,1.69,5.49.35,3.12-1.69,1.39-4.11-1-2.08-3.07-4.15-3.12-.4-3.81-4.5-.69-6.88.69-9,2.47-2.08,3.46-4.15,2.68-2.13,1-4.85-3.08-5.49-3.08-5.49,0-1,1.74-1.39,2.37-2.77,4.45-1.38,3.46,1,5.19-1.39,1.73-4.5,4.16-2.42,1,2.77,3.76,3.11,5.19-.69,5.54,2.08,1.73,3.46,2.42,1.73,1.39-2.42,3.12-1,4.45,2.43,6.88,1,4.5-4.85,5.54-2.77,1,1.43,3.11,4.5,3.76,2.73,4.8,7.23-1.38,6.23,2.77,7.61,5.59,3.47,8.31,1,2-2.42,6.19-1,7.61,4.8,5.54,6.19-9.65,4.15-11.73,7.27-2.08,2.47-4.85,4.5-5.88,7.57-6.23,9.3-2.42,7.23,1.73,10.34,5.89,4.5,8,2.77,3.07-3.11,8.95-1,8.61,1,13.46,3.81,8.61,4.8,12.07,6.53a32,32,0,0,1,11.08,9.7c2.77,4.15,6.53,6.87,8.26,10s9.35,11.73,9.35,11.73l.69,3.8s-2.08,4.5-4.15,4.16-3.47-3.12-6.93-2.77-8.95-.69-12.07-.69-8.61.34-8.61.34a34.24,34.24,0,0,1-6.58.69c-3.46,0-7.57-1.73-9.64-.69s-1.39,2.08-4.5,1.73-5.24-1.38-7.62.35-4.11,3.81-8.61,3.46-4.8-1.38-8.26-1-6.58-.69-8.31-.69-6.53-.35-6.53-.35a2.4,2.4,0,0,0-1.67-1.49c-1.28-.28-1.42-.28-3-1.7s-1.28-1.56-2.42-1.42-1,.28-1.56-.43a3,3,0,0,0-2-.71,4.33,4.33,0,0,0-3.13,0c-1.26.71-1.69,1.14-2.4.43s-.14-2-1.56-1.71-1.14,1.56-2.42.57-1-1.7-3.41-1.85.15.43-2.27-.28-1.44-.73-3.41-1.28-1-1-2.4-1.83-.57-.71-1.7-.43-1.28,1.14-1.71-1-1.28-3.13-1.42-2.13.57,2.13-1,1.7-1.71-1.56-2.85-.85-1.84,1-2.84.71-.85.43-1-.85-1.42-2.28,0-3.13,2.84-.57,1.7-2.27-1.42-2.7-1-3.84a9.46,9.46,0,0,0,.14-3.39s-.14.44-.43,1.56-.71.55-.42,2.4,2,1.71.71,3.27-1.83,1.42-2.54,2.27.57,1.42-1,2.27-2.7-.42-2.84.86,1.42,1.28.85,2.55a1.22,1.22,0,0,1-1.7.72s-2.13-2.14-2.56-1.28-1.56,3.66-2.13,2.25.28-1.26-.43-2.82-.71-.14-1.7-2.56-.85-1.56,0-3.27,0-2.13,1.42-1.7,3.27,1.56,2.13-.71-1-1-2.13-2.28,0-2.25-1.42-3.25a32,32,0,0,1-2.69-2.13s-1.12-2.13-.42-3.84,1.26-1.42,2.4-2.84a18.63,18.63,0,0,0,1.85-2.7c1-1.56,3.12-4.1.56-4.53s-4-.28-4.95-1-1.14-.57-1.28-1.71a18,18,0,0,1-.14-2s1.26.58,1.62-.42A9.37,9.37,0,0,0,359,405l.49-1.45,2.2-2.53.85-2.26,2.7-3,1.14-3.27-.43-.71Z"/><path class="cls-1" d="M366.13,390.36a7,7,0,0,1,5.42-2.09c3.76,0,3.07,0,5.84-1a24.06,24.06,0,0,0,3.81-1.73c2.07-1,1.38-2.42,3.46-.35s4.11,1.69,5.49.35,3.12-1.69,1.39-4.11-1-2.08-3.07-4.15-3.12-.4-3.81-4.5-.69-6.88.69-9,2.47-2.08,3.46-4.15,2.68-2.13,1-4.85-3.08-5.49-3.08-5.49,0-1,1.74-1.39,2.37-2.77,4.45-1.38,3.46,1,5.19-1.39,1.73-4.5,4.16-2.42,1,2.77,3.76,3.11,5.19-.69,5.54,2.08,1.73,3.46,2.42,1.73,1.39-2.42,3.12-1,4.45,2.43,6.88,1,4.5-4.85,5.54-2.77,1,1.43,3.11,4.5,3.76,2.73,4.8,7.23-1.38,6.23,2.77,7.61,5.59,3.47,8.31,1,2-2.42,6.19-1,7.61,4.8,5.54,6.19-9.65,4.15-11.73,7.27-2.08,2.47-4.85,4.5-5.88,7.57-6.23,9.3-2.42,7.23,1.73,10.34,5.89,4.5,8,2.77,3.07-3.11,8.95-1,8.61,1,13.46,3.81,8.61,4.8,12.07,6.53a32,32,0,0,1,11.08,9.7c2.77,4.15,6.53,6.87,8.26,10s9.35,11.73,9.35,11.73l.69,3.8s-2.08,4.5-4.15,4.16-3.47-3.12-6.93-2.77-8.95-.69-12.07-.69-8.61.34-8.61.34a34.24,34.24,0,0,1-6.58.69c-3.46,0-7.57-1.73-9.64-.69s-1.39,2.08-4.5,1.73-5.24-1.38-7.62.35-4.11,3.81-8.61,3.46-4.8-1.38-8.26-1-6.58-.69-8.31-.69-6.53-.35-6.53-.35a2.4,2.4,0,0,0-1.67-1.49c-1.28-.28-1.42-.28-3-1.7s-1.28-1.56-2.42-1.42-1,.28-1.56-.43a3,3,0,0,0-2-.71,4.33,4.33,0,0,0-3.13,0c-1.26.71-1.69,1.14-2.4.43s-.14-2-1.56-1.71-1.14,1.56-2.42.57-1-1.7-3.41-1.85.15.43-2.27-.28-1.44-.73-3.41-1.28-1-1-2.4-1.83-.57-.71-1.7-.43-1.28,1.14-1.71-1-1.28-3.13-1.42-2.13.57,2.13-1,1.7-1.71-1.56-2.85-.85-1.84,1-2.84.71-.85.43-1-.85-1.42-2.28,0-3.13,2.84-.57,1.7-2.27-1.42-2.7-1-3.84a9.46,9.46,0,0,0,.14-3.39s-.14.44-.43,1.56-.71.55-.42,2.4,2,1.71.71,3.27-1.83,1.42-2.54,2.27.57,1.42-1,2.27-2.7-.42-2.84.86,1.42,1.28.85,2.55a1.22,1.22,0,0,1-1.7.72s-2.13-2.14-2.56-1.28-1.56,3.66-2.13,2.25.28-1.26-.43-2.82-.71-.14-1.7-2.56-.85-1.56,0-3.27,0-2.13,1.42-1.7,3.27,1.56,2.13-.71-1-1-2.13-2.28,0-2.25-1.42-3.25a32,32,0,0,1-2.69-2.13s-1.12-2.13-.42-3.84,1.26-1.42,2.4-2.84a18.63,18.63,0,0,0,1.85-2.7c1-1.56,3.12-4.1.56-4.53s-4-.28-4.95-1-1.14-.57-1.28-1.71a18,18,0,0,1-.14-2s1.26.58,1.62-.42A9.37,9.37,0,0,0,359,405l.49-1.45,2.2-2.53.85-2.26,2.7-3,1.14-3.27-.43-.71Z"/><path class="cls-1" d="M345.26,417.62s-.14,2.84,1.85,3.84,5.4,2.55,6.11,3.55,1.42,1.28,2.27,3-.28,2.54,1.28,3.54a5.59,5.59,0,0,0,2.83,1.13c1.28.29,2.13.84,1.42-1.13s-.44-1.69-1.56-2.83a8.53,8.53,0,0,1-2.26-3.27c-.57-1.42-1.42-3.12-.57-3.83s2.26-1.42,3-2.42.85-2,2-2.7,2.55-1.26,1.56-2.11-.87-.29-2.56-1-2.4-.71-3.39-1.28a4,4,0,0,1-1.39-2.25s-1,3-2.87,3.67c-.15.15-1.58-.29-2,.63s.15,1.06-.42,1.77-1.14.72-1.85,1.14a5.1,5.1,0,0,1-1.28.57Z"/><path class="cls-1" d="M345.26,417.62s-.14,2.84,1.85,3.84,5.4,2.55,6.11,3.55,1.42,1.28,2.27,3-.28,2.54,1.28,3.54a5.59,5.59,0,0,0,2.83,1.13c1.28.29,2.13.84,1.42-1.13s-.44-1.69-1.56-2.83a8.53,8.53,0,0,1-2.26-3.27c-.57-1.42-1.42-3.12-.57-3.83s2.26-1.42,3-2.42.85-2,2-2.7,2.55-1.26,1.56-2.11-.87-.29-2.56-1-2.4-.71-3.39-1.28a4,4,0,0,1-1.39-2.25s-1,3-2.87,3.67c-.15.15-1.58-.29-2,.63s.15,1.06-.42,1.77-1.14.72-1.85,1.14a5.1,5.1,0,0,1-1.28.57Z"/><path class="cls-1" d="M336.19,449.56s-1.14-.73,1.84-2.56,4.71-1.83,5.54-2.54a6.11,6.11,0,0,1,2.69-1.57c1.42-.42,2.27-.42,2.7-1.13a2.77,2.77,0,0,1,2.27-1.42c1.42-.29,3.27,0,3.84-.29a3,3,0,0,0,1-1s1.28-.57,1.71.14a4.77,4.77,0,0,0,2,1.85c.57.14.85.28,1.14,2s-.43,3,1,3.39,2.56.71,3.13,0,1-1.56,1.7-.85,2.13,2,3.13,1.28a27,27,0,0,0,2.55-1.57,3.63,3.63,0,0,1,2.12-1.12c1.14-.28,1.71-1,2.56-1a7.24,7.24,0,0,1,2.84.71c1.56.57,1.42-.27,3.27,1s-.29,3.11,1.84,3.68,2.29-.57,4-.14-.3,1.28,2.26,1.56,4.4.29,5.68,1-.42,1-1.84.85-3.27-.85-4.27-.85-2.54-.71-4.67-.71-6.53-.15-7.81-.15-11.64-.56-15-.56-7.37-.29-10.78-.29-4-.42-6.54,0-5.66-.14-6.8.14A11.75,11.75,0,0,1,336.19,449.56Z"/><path class="cls-1" d="M336.19,449.56s-1.14-.73,1.84-2.56,4.71-1.83,5.54-2.54a6.11,6.11,0,0,1,2.69-1.57c1.42-.42,2.27-.42,2.7-1.13a2.77,2.77,0,0,1,2.27-1.42c1.42-.29,3.27,0,3.84-.29a3,3,0,0,0,1-1s1.28-.57,1.71.14a4.77,4.77,0,0,0,2,1.85c.57.14.85.28,1.14,2s-.43,3,1,3.39,2.56.71,3.13,0,1-1.56,1.7-.85,2.13,2,3.13,1.28a27,27,0,0,0,2.55-1.57,3.63,3.63,0,0,1,2.12-1.12c1.14-.28,1.71-1,2.56-1a7.24,7.24,0,0,1,2.84.71c1.56.57,1.42-.27,3.27,1s-.29,3.11,1.84,3.68,2.29-.57,4-.14-.3,1.28,2.26,1.56,4.4.29,5.68,1-.42,1-1.84.85-3.27-.85-4.27-.85-2.54-.71-4.67-.71-6.53-.15-7.81-.15-11.64-.56-15-.56-7.37-.29-10.78-.29-4-.42-6.54,0-5.66-.14-6.8.14A11.75,11.75,0,0,1,336.19,449.56Z"/><path class="cls-3" d="M248.43,226.54l1.7.75s2.68-.56,4-.75a15.18,15.18,0,0,1,4.93.38,11.6,11.6,0,0,1,3.22,1.32h2.84c.76,0,3.06.19,4.76.38,1.71,1.33,6.45,1.14,6.45,1.14v3.81a6.5,6.5,0,0,1-.38,2.09c-.38,1-1.14,3.6-.76,4.93s0,2.08.19,5.68-.38,5.71-.76,6.09c-1.7,1.52-4.55,9.1-4.55,9.1l.19,5.36s-.89,15.63-1.11,20.28,3.32,6,3.32,6,4.66,2.5,8.28,4.61q-7-.51-39.31-2.8a25.13,25.13,0,0,0-.14-4.57l.8-1a31.4,31.4,0,0,0-.23-3.54,18.9,18.9,0,0,1,.73-5.63,12.06,12.06,0,0,1,1.95-3.93,39.76,39.76,0,0,1,3.52-3l2.22-1.77a11.47,11.47,0,0,0,1.33-3.77c0-1.33,2.32-4.32,2.32-4.32s1.48-.95,1-.59c-1.14.75-1.71-.19-1.9-1.71s.38-3.79.57-6.25-.19-4,.19-4.93-1.73-3.44-2.11-4.2-1.52-.56-3.22-1.7-2.47,0-2.85-2.28.38-3.79.38-5.49a9.37,9.37,0,0,1,2.09-5.52C249.19,229.57,248.43,226.54,248.43,226.54Z"/><path class="cls-3" d="M248.43,226.54l1.7.75s2.68-.56,4-.75a15.18,15.18,0,0,1,4.93.38,11.6,11.6,0,0,1,3.22,1.32h2.84c.76,0,3.06.19,4.76.38,1.71,1.33,6.45,1.14,6.45,1.14v3.81a6.5,6.5,0,0,1-.38,2.09c-.38,1-1.14,3.6-.76,4.93s0,2.08.19,5.68-.38,5.71-.76,6.09c-1.7,1.52-4.55,9.1-4.55,9.1l.19,5.36s-.89,15.63-1.11,20.28,3.32,6,3.32,6,4.66,2.5,8.28,4.61q-7-.51-39.31-2.8a25.13,25.13,0,0,0-.14-4.57l.8-1a31.4,31.4,0,0,0-.23-3.54,18.9,18.9,0,0,1,.73-5.63,12.06,12.06,0,0,1,1.95-3.93,39.76,39.76,0,0,1,3.52-3l2.22-1.77a11.47,11.47,0,0,0,1.33-3.77c0-1.33,2.32-4.32,2.32-4.32s1.48-.95,1-.59c-1.14.75-1.71-.19-1.9-1.71s.38-3.79.57-6.25-.19-4,.19-4.93-1.73-3.44-2.11-4.2-1.52-.56-3.22-1.7-2.47,0-2.85-2.28.38-3.79.38-5.49a9.37,9.37,0,0,1,2.09-5.52C249.19,229.57,248.43,226.54,248.43,226.54Z"/></svg>