<svg id="Layer_1" data-name="Layer 1" xmlns="http://www.w3.org/2000/svg" viewBox="0 0 512 512"><defs><style>.cls-1{fill:#e6e7e8;}.cls-1,.cls-2{stroke:#fff;stroke-linejoin:round;fill-rule:evenodd;}.cls-2{fill:#a7a9ac;}</style></defs><path class="cls-1" d="M109.32,38.88s0-.64,1.91-.8,2.06-.47,3,1,1.74,1.59,3.33,1.9a13.52,13.52,0,0,1,2.71,1c1.43.48,1.75-.48,2.54.79s.8,4,2.23,3.5.63-.79,1.43-1.91,1-1.59.63-3.34-1.43-2.54-.47-3.34a2,2,0,0,1,2.7,0c1,.64.64.8,2.38,0s2.23-.47,3.18.32,2.55,1.12,2.23-.16-1.11-2.54.48-1.9a11.89,11.89,0,0,0,4.29.79c1.11,0,.79.8,1.11,1.43a1.54,1.54,0,0,0,2.23,0c.32-.63,1.43,1,1.91,1.59a7.16,7.16,0,0,1,1.74,4.14,17.77,17.77,0,0,1,0,5.88c-.31,1.43-1,1.75-.31,3.66a6.61,6.61,0,0,1,0,4.92C148,59.7,146,64.16,145.73,65s.31.16-.48,2.86-1.27,2.55-1,4.77-.31,3,.32,6.52,1.27,5.25.32,7.47-.32,2.86-1.75,5.41-2.07,2.7-1.27,5.4,1.91,3.5,2.23,5.57.79,3.34.47,5.88a14.78,14.78,0,0,1-2.38,6.52c-1,1.11-.48,1.91-2.86,2.86a17,17,0,0,0-6.68,4.61c-1.91,2.23-4.93,4.14-5.88,4.93a3.35,3.35,0,0,1-2.71.95c-1.27,0-1.59.64-3-1.11s-3.81-2.54-3-.48,3,1.44,1.59,2.87-3.34,3.81-4.29,1.75.32-2.39-1.27-3-.32,1.59-1.75.8-1.11-2.23-1.91-1.11-1,2.7-1.91,1.27-1-2.07-2.06-1.59-.32,1.43-1.59.16,1.9.79,2.38,1.43-.16,1.27,1.11,1.43,3-.16,3.34.64a10.23,10.23,0,0,1,0,3.18s1-1,.8.63.79,2.07-.48,2.54-2.54,1.28-3.5.16-2.38-1.11-2.86-2.54,1-2.54-.64-2.86-2.06.47-3.33-.8-2.39-.95-1.43-1.9.79-1.59,2.22-1.44,1.91-.95,1.11-1.11-1.11-.63-1.9.32a7.56,7.56,0,0,1-2.07,1.59s-1.59.95-2.39,0-.79-1.59-1.27-.8-.79,2.87-1.59,1.28-1.59-1.75-2.22-2.55-1.43-1-.8-2.38,2.55-2.39.64-2.07-1.43,1.27-2.39,1.27-.16.32-1.43-.79-1.75-.32-1.27-2.39.64-2.22,1.43-2.86a2.6,2.6,0,0,0,1.11-1.59c.32-.79,1.28-1,1.28-1.91s1.59-1.43-.32-1.11-2.23,1.43-2.7-.32-1.12-2.7-.64-3.65a2.49,2.49,0,0,0,.32-1.59s-.16-3.34-.32-4.3.79-2.7,1.27-3.81S88.82,98,90,97.14a5.88,5.88,0,0,0,2.77-4.21c.64-2.7,1.27-3.18,2.86-3.81s2.23-1.12,2.23-2.71a6.3,6.3,0,0,0-2.61-4.65c-1.68-1.39-2.83-4,.37-7.69s7.49-5.14,9.08-6.1,1.43-3.66,1-4.77-2.38-3.18-2.38-4.93a7.7,7.7,0,0,1,2.06-4.92,17.65,17.65,0,0,0,2.86-3.08c.32-.74,1-1.22,0-2s-2.86-1.27-1.43-3.66a27.79,27.79,0,0,1,2.55-3.66S110.11,40.47,109.32,38.88Z"/><path class="cls-1" d="M109.32,38.88s0-.64,1.91-.8,2.06-.47,3,1,1.74,1.59,3.33,1.9a13.52,13.52,0,0,1,2.71,1c1.43.48,1.75-.48,2.54.79s.8,4,2.23,3.5.63-.79,1.43-1.91,1-1.59.63-3.34-1.43-2.54-.47-3.34a2,2,0,0,1,2.7,0c1,.64.64.8,2.38,0s2.23-.47,3.18.32,2.55,1.12,2.23-.16-1.11-2.54.48-1.9a11.89,11.89,0,0,0,4.29.79c1.11,0,.79.8,1.11,1.43a1.54,1.54,0,0,0,2.23,0c.32-.63,1.43,1,1.91,1.59a7.16,7.16,0,0,1,1.74,4.14,17.77,17.77,0,0,1,0,5.88c-.31,1.43-1,1.75-.31,3.66a6.61,6.61,0,0,1,0,4.92C148,59.7,146,64.16,145.73,65s.31.16-.48,2.86-1.27,2.55-1,4.77-.31,3,.32,6.52,1.27,5.25.32,7.47-.32,2.86-1.75,5.41-2.07,2.7-1.27,5.4,1.91,3.5,2.23,5.57.79,3.34.47,5.88a14.78,14.78,0,0,1-2.38,6.52c-1,1.11-.48,1.91-2.86,2.86a17,17,0,0,0-6.68,4.61c-1.91,2.23-4.93,4.14-5.88,4.93a3.35,3.35,0,0,1-2.71.95c-1.27,0-1.59.64-3-1.11s-3.81-2.54-3-.48,3,1.44,1.59,2.87-3.34,3.81-4.29,1.75.32-2.39-1.27-3-.32,1.59-1.75.8-1.11-2.23-1.91-1.11-1,2.7-1.91,1.27-1-2.07-2.06-1.59-.32,1.43-1.59.16,1.9.79,2.38,1.43-.16,1.27,1.11,1.43,3-.16,3.34.64a10.23,10.23,0,0,1,0,3.18s1-1,.8.63.79,2.07-.48,2.54-2.54,1.28-3.5.16-2.38-1.11-2.86-2.54,1-2.54-.64-2.86-2.06.47-3.33-.8-2.39-.95-1.43-1.9.79-1.59,2.22-1.44,1.91-.95,1.11-1.11-1.11-.63-1.9.32a7.56,7.56,0,0,1-2.07,1.59s-1.59.95-2.39,0-.79-1.59-1.27-.8-.79,2.87-1.59,1.28-1.59-1.75-2.22-2.55-1.43-1-.8-2.38,2.55-2.39.64-2.07-1.43,1.27-2.39,1.27-.16.32-1.43-.79-1.75-.32-1.27-2.39.64-2.22,1.43-2.86a2.6,2.6,0,0,0,1.11-1.59c.32-.79,1.28-1,1.28-1.91s1.59-1.43-.32-1.11-2.23,1.43-2.7-.32-1.12-2.7-.64-3.65a2.49,2.49,0,0,0,.32-1.59s-.16-3.34-.32-4.3.79-2.7,1.27-3.81S88.82,98,90,97.14a5.88,5.88,0,0,0,2.77-4.21c.64-2.7,1.27-3.18,2.86-3.81s2.23-1.12,2.23-2.71a6.3,6.3,0,0,0-2.61-4.65c-1.68-1.39-2.83-4,.37-7.69s7.49-5.14,9.08-6.1,1.43-3.66,1-4.77-2.38-3.18-2.38-4.93a7.7,7.7,0,0,1,2.06-4.92,17.65,17.65,0,0,0,2.86-3.08c.32-.74,1-1.22,0-2s-2.86-1.27-1.43-3.66a27.79,27.79,0,0,1,2.55-3.66S110.11,40.47,109.32,38.88Z"/><path class="cls-1" d="M145.25,38.08a6.88,6.88,0,0,0,.48-2.7c0-2.07-.32-3,.63-4.29s2.54-1.12,2.7-2.71,0-2.54,1-2.38a7.77,7.77,0,0,0,3.81-.16,6.21,6.21,0,0,0,3-2.23c.48-.95.64-1.74,1.59-1.74a2.3,2.3,0,0,1,2.39,1.59c.48,1.27.79,2.54,2.07,2.06s3.49-.63,4.61-1.59,1.9-1.75,2.86-1.11.95,1.11,1.59,2.7,1.27,5.41,2.54,6.68,2.7,4,2.55,5.56-1,2.39-1.12,3.5a7,7,0,0,0,.16,3.66,2.61,2.61,0,0,1,.32,2.7,5.07,5.07,0,0,0,.79,4.13c.64.8,1.28.48,1.44,2.07s-.16,4.14.79,3.34.64-1.43,2.39-.64,2.86.8,2.22,2.71a41,41,0,0,0-.95,9.06c0,2.38-.16,10.33,0,13s.32,4.45.63,7.15-.16,5.72-1.59,7.16-4,5.24-5.88,6.67-9.06,7.79-11.61,9.22-4.92,4.93-6.67,4-6.52-3.34-8.75-4.45-4.61-2.23-4.61-2.23a16.28,16.28,0,0,0-1.43-8.58,7.16,7.16,0,0,1-1.59-6c1.43-1.43,2.39-2.86,4-9.53,0-.16-1.28-8.75-1.28-8.75V70.2L145.73,65l3.17-7.31a8.18,8.18,0,0,0-.31-4.29,5.13,5.13,0,0,1,.31-3.66V43.81A6.44,6.44,0,0,0,145.25,38.08Z"/><path class="cls-1" d="M145.25,38.08a6.88,6.88,0,0,0,.48-2.7c0-2.07-.32-3,.63-4.29s2.54-1.12,2.7-2.71,0-2.54,1-2.38a7.77,7.77,0,0,0,3.81-.16,6.21,6.21,0,0,0,3-2.23c.48-.95.64-1.74,1.59-1.74a2.3,2.3,0,0,1,2.39,1.59c.48,1.27.79,2.54,2.07,2.06s3.49-.63,4.61-1.59,1.9-1.75,2.86-1.11.95,1.11,1.59,2.7,1.27,5.41,2.54,6.68,2.7,4,2.55,5.56-1,2.39-1.12,3.5a7,7,0,0,0,.16,3.66,2.61,2.61,0,0,1,.32,2.7,5.07,5.07,0,0,0,.79,4.13c.64.8,1.28.48,1.44,2.07s-.16,4.14.79,3.34.64-1.43,2.39-.64,2.86.8,2.22,2.71a41,41,0,0,0-.95,9.06c0,2.38-.16,10.33,0,13s.32,4.45.63,7.15-.16,5.72-1.59,7.16-4,5.24-5.88,6.67-9.06,7.79-11.61,9.22-4.92,4.93-6.67,4-6.52-3.34-8.75-4.45-4.61-2.23-4.61-2.23a16.28,16.28,0,0,0-1.43-8.58,7.16,7.16,0,0,1-1.59-6c1.43-1.43,2.39-2.86,4-9.53,0-.16-1.28-8.75-1.28-8.75V70.2L145.73,65l3.17-7.31a8.18,8.18,0,0,0-.31-4.29,5.13,5.13,0,0,1,.31-3.66V43.81A6.44,6.44,0,0,0,145.25,38.08Z"/><path class="cls-1" d="M170.37,22.82s2.22-.64,3,.16,2.22,1.43,3.34-.16,1.91-1.27,4-1.75,2.55-1.11,4.61-.16,2.23,1.91,2.86,3.5A7.62,7.62,0,0,0,191,28.07c1.11.63,2.22,2.54,3.65,2.54s4.14-.48,5.57-.48,1.59,2.23,2.54,4a28.26,28.26,0,0,0,2.86,4.45c.64.64.32,0,1.91,1.11s.64,2.23,2.54,1.59,3.82-.32,4.14,1.43-.48,3.5.32,5.09a20.09,20.09,0,0,1,1.75,3.66,4.8,4.8,0,0,0,2.86,3.18c1.43.79,3.34.32,4.13,2.86s1.59,4,1.27,5.72a10.87,10.87,0,0,0,.16,4.61c.32,1.27,1.27,4,1.27,4a34.62,34.62,0,0,0-3.34,3.81c-.79,1.27.48,2.39-.79,3s-3.66.32-4.45,1.12-.64,1-1.91,1-2.54.8-2.54,1.59,0,0-2.23.32-2.22,0-2.7,1-1.11,1.27-1.91,2.23-.64,3.5-1.59,2.38-.48-2.7-1.75-1.75-1.27,2.07-2.07,2.23-1.27.16-2.22.32-2.54-.16-4,0-2.54-.32-3.81.32.16.31-2.86.79a12.22,12.22,0,0,1-4.3.16l-.47-8.9V64.63l.95-5.4s.48-1.59-.79-2.07a5.57,5.57,0,0,1-1.43-.64,1.45,1.45,0,0,0-2.39.64c-.16,0-1-.95-1-.95l.16-2.39s1-.63-1.44-2.07c.32,0-.95-2.38-.95-2.38l.16-1.75s-.16-2.07-.32-2.7-.79-3.34.32-5.25a5.24,5.24,0,0,0-.48-5.56c-1.11-1.27-2.7-2.86-3-4.61s-.47-3.34-.95-4S170.37,22.82,170.37,22.82Z"/><path class="cls-1" d="M170.37,22.82s2.22-.64,3,.16,2.22,1.43,3.34-.16,1.91-1.27,4-1.75,2.55-1.11,4.61-.16,2.23,1.91,2.86,3.5A7.62,7.62,0,0,0,191,28.07c1.11.63,2.22,2.54,3.65,2.54s4.14-.48,5.57-.48,1.59,2.23,2.54,4a28.26,28.26,0,0,0,2.86,4.45c.64.64.32,0,1.91,1.11s.64,2.23,2.54,1.59,3.82-.32,4.14,1.43-.48,3.5.32,5.09a20.09,20.09,0,0,1,1.75,3.66,4.8,4.8,0,0,0,2.86,3.18c1.43.79,3.34.32,4.13,2.86s1.59,4,1.27,5.72a10.87,10.87,0,0,0,.16,4.61c.32,1.27,1.27,4,1.27,4a34.62,34.62,0,0,0-3.34,3.81c-.79,1.27.48,2.39-.79,3s-3.66.32-4.45,1.12-.64,1-1.91,1-2.54.8-2.54,1.59,0,0-2.23.32-2.22,0-2.7,1-1.11,1.27-1.91,2.23-.64,3.5-1.59,2.38-.48-2.7-1.75-1.75-1.27,2.07-2.07,2.23-1.27.16-2.22.32-2.54-.16-4,0-2.54-.32-3.81.32.16.31-2.86.79a12.22,12.22,0,0,1-4.3.16l-.47-8.9V64.63l.95-5.4s.48-1.59-.79-2.07a5.57,5.57,0,0,1-1.43-.64,1.45,1.45,0,0,0-2.39.64c-.16,0-1-.95-1-.95l.16-2.39s1-.63-1.44-2.07c.32,0-.95-2.38-.95-2.38l.16-1.75s-.16-2.07-.32-2.7-.79-3.34.32-5.25a5.24,5.24,0,0,0-.48-5.56c-1.11-1.27-2.7-2.86-3-4.61s-.47-3.34-.95-4S170.37,22.82,170.37,22.82Z"/><path class="cls-1" d="M200.89,30.45a2.12,2.12,0,0,1,.48-3,6,6,0,0,0,2.39-4.61c.15-1.59-.16-2.07.47-4s.64-2.7,1.59-3.81a11,11,0,0,1,3.5-2.86c1.75-1,3.5-1.91,5.88-1s4.45,1.43,6.2,2.23,3.18,2.07,4.14,1.59.79-.95,1.27-2.39,0-2.38,1.11-3a10,10,0,0,1,4.13-1.43c1.28,0,1.6.32,2.55-.47s3-1.28,3.5-2.39.63-2.07,2.54-2.7,3.5-1,4-1.43,2.23,0,3,.47,2.86,1,3.18,2.87-.16,2.54.47,3.33,1.75,1.75,1.59,3-.63,1.74-1.43,1.9-2.07,2.07-1.59,3,.16,5.09-.16,7.64.16,4.29-.79,5.4-1.12.48-3.34.64-3.18-.48-3.66.31a5.9,5.9,0,0,0,.32,4.3c.64,1.11,1.43,1.11,1.27,3.18s0,4.61,1.11,4,2.55-.47,2.71,1.27.63,2.07.32,5.41,0,3.18,1.59,5.25,3.18,3,3.18,4.92.15,3.18,1.27,4.46,3.81,3.49,4,5.08,2.07,3,3.18,4.61,2.23,3.18,1.59,4.46-1.59,1.59-2.22.63a14.85,14.85,0,0,0-2.87-3.18c-1.75-1.59-.63-1.43-2.86-2.7s-2.38-1.27-3-2.07.16-1.11-2.22-.16-1.91,0-3.66.8-1.91,1.59-4.61,1.43-3-.8-4.45-.32-1.43.16-3.5.32-1.91-.48-2.86.79-1.43,1.44-2.23.64A5,5,0,0,0,226,71.79s-1.9-4.77-1.43-7.48a11,11,0,0,0-.79-5.88c-1.12-1.91-1.11-3-4-3.34-2.54-1.9-3.34-2.38-4.45-6-.63-.32-1.59-3-1.11-5.09.16.16.95-3.49-3.5-2.86.16,0-1.91.48-1.91.48s-.32-2.07-3.18-3A34,34,0,0,1,202.32,33a10.37,10.37,0,0,0-.63-1.74Z"/><path class="cls-1" d="M200.89,30.45a2.12,2.12,0,0,1,.48-3,6,6,0,0,0,2.39-4.61c.15-1.59-.16-2.07.47-4s.64-2.7,1.59-3.81a11,11,0,0,1,3.5-2.86c1.75-1,3.5-1.91,5.88-1s4.45,1.43,6.2,2.23,3.18,2.07,4.14,1.59.79-.95,1.27-2.39,0-2.38,1.11-3a10,10,0,0,1,4.13-1.43c1.28,0,1.6.32,2.55-.47s3-1.28,3.5-2.39.63-2.07,2.54-2.7,3.5-1,4-1.43,2.23,0,3,.47,2.86,1,3.18,2.87-.16,2.54.47,3.33,1.75,1.75,1.59,3-.63,1.74-1.43,1.9-2.07,2.07-1.59,3,.16,5.09-.16,7.64.16,4.29-.79,5.4-1.12.48-3.34.64-3.18-.48-3.66.31a5.9,5.9,0,0,0,.32,4.3c.64,1.11,1.43,1.11,1.27,3.18s0,4.61,1.11,4,2.55-.47,2.71,1.27.63,2.07.32,5.41,0,3.18,1.59,5.25,3.18,3,3.18,4.92.15,3.18,1.27,4.46,3.81,3.49,4,5.08,2.07,3,3.18,4.61,2.23,3.18,1.59,4.46-1.59,1.59-2.22.63a14.85,14.85,0,0,0-2.87-3.18c-1.75-1.59-.63-1.43-2.86-2.7s-2.38-1.27-3-2.07.16-1.11-2.22-.16-1.91,0-3.66.8-1.91,1.59-4.61,1.43-3-.8-4.45-.32-1.43.16-3.5.32-1.91-.48-2.86.79-1.43,1.44-2.23.64A5,5,0,0,0,226,71.79s-1.9-4.77-1.43-7.48a11,11,0,0,0-.79-5.88c-1.12-1.91-1.11-3-4-3.34-2.54-1.9-3.34-2.38-4.45-6-.63-.32-1.59-3-1.11-5.09.16.16.95-3.49-3.5-2.86.16,0-1.91.48-1.91.48s-.32-2.07-3.18-3A34,34,0,0,1,202.32,33a10.37,10.37,0,0,0-.63-1.74Z"/><path class="cls-1" d="M250.66,3.58a6.28,6.28,0,0,0,2.7-1.11,3.36,3.36,0,0,1,2.54-1.11,35.75,35.75,0,0,1,3.66.47,12.17,12.17,0,0,0,1.11,3.82c.8,1.27,4.77,5.09,5.25,6s.32,3.82.32,5.57,1.11,3.17,2.22,4.61,3,4.13,2.23,5.72.16,1.75-1.75,2.38-3.82,2.55-3.18,3.66.48,2.23.32,4.13-.16,4.14,1.27,5.41,4.29,4.29,4.77,5.88.79,1.27.32,3.82.16,2.86-1,3.18-.63,1.11-3,.16-3-1.27-3.49-.32a2.86,2.86,0,0,1-2.55,1.91c-1.75.31-3.18,0-4.13,1s-1.75,2.07-2.39,2.7a6.75,6.75,0,0,1-2.22,1.12,5.62,5.62,0,0,1-1.27-4.46c0-.31.63-1.74-3.18-4.92-.16-.16-1.75-2.23-1.75-2.23l.32-6.52s0-4.45-2.71-3.34c0,0-1.91.8-1.59-2.06V35.86a6.65,6.65,0,0,1-1.91-4.46c0-.31-.31-2.38,2.87-1.9h3.34s1.58.32,1.74-3,.48-6.36.48-6.36l-.16-3.5s-1.11-2.86,1.59-3.82c-.16-.16,3-.79.64-4.45,0,0-1.12-.32-1.12-2.38A13,13,0,0,1,250.66,3.58Z"/><path class="cls-1" d="M250.66,3.58a6.28,6.28,0,0,0,2.7-1.11,3.36,3.36,0,0,1,2.54-1.11,35.75,35.75,0,0,1,3.66.47,12.17,12.17,0,0,0,1.11,3.82c.8,1.27,4.77,5.09,5.25,6s.32,3.82.32,5.57,1.11,3.17,2.22,4.61,3,4.13,2.23,5.72.16,1.75-1.75,2.38-3.82,2.55-3.18,3.66.48,2.23.32,4.13-.16,4.14,1.27,5.41,4.29,4.29,4.77,5.88.79,1.27.32,3.82.16,2.86-1,3.18-.63,1.11-3,.16-3-1.27-3.49-.32a2.86,2.86,0,0,1-2.55,1.91c-1.75.31-3.18,0-4.13,1s-1.75,2.07-2.39,2.7a6.75,6.75,0,0,1-2.22,1.12,5.62,5.62,0,0,1-1.27-4.46c0-.31.63-1.74-3.18-4.92-.16-.16-1.75-2.23-1.75-2.23l.32-6.52s0-4.45-2.71-3.34c0,0-1.91.8-1.59-2.06V35.86a6.65,6.65,0,0,1-1.91-4.46c0-.31-.31-2.38,2.87-1.9h3.34s1.58.32,1.74-3,.48-6.36.48-6.36l-.16-3.5s-1.11-2.86,1.59-3.82c-.16-.16,3-.79.64-4.45,0,0-1.12-.32-1.12-2.38A13,13,0,0,1,250.66,3.58Z"/><path class="cls-1" d="M262.1,77.51c-.16.16.32,2.55,2.23,5.72s4,6.52,4,6.52A21.15,21.15,0,0,1,272,93.57c1,1.59.48,4.45,2.86,4.45s2.71-2.38,6.36.32,3.5,4.29,4.61,6.83,2.7,1.59,1.43,3.66-9.69,7-12.08,8.27a50.9,50.9,0,0,0-7.47,4.93c-1.43,1.27-8.59,5.56-8.59,5.56a14.54,14.54,0,0,0-.32,4.45c.16,2.87.8,4.77-.31,7s-1.43,2.86-1.59,4.77-.48,3.66.16,5.09a15.72,15.72,0,0,1,1.11,5.4,37.8,37.8,0,0,0,.79,5.25,28.68,28.68,0,0,0-4.29-3.18,5.32,5.32,0,0,0-4.29-.8c-2.39.32-3.18.64-4.77,1s-2.86-.16-5.09.95-3.5,1.59-5.09,2.54-6.2,3.82-5.4,2.23,2.7-5.09,3-6.84,1.27-3.17,1.11-5.72-1.59-5.56-2.54-7.63a37,37,0,0,1-2.7-6.84,44.37,44.37,0,0,0-2.07-5.88,20.32,20.32,0,0,1-1.11-6.68c0-3.81-2.87-6.83-5.73-9.7s-5.72-1.9-8.42-3.65a27.17,27.17,0,0,0-7.79-3.34c-1.59-.32-4.62-.64-5.73-2.07s-1.43-1.91-2.54-3.18-2.86-2.54-3.82-4.29-.32-1.91,1.12-3a51.54,51.54,0,0,1,5.56-3.5c1-.48,2.38-1.27,2.38-1.27s2.39-3.66,3.18-1.91l.64,1.43,1.59-2.38,1-1.43,1.59-1.59H213s-.32-2.55,3.65-2.07c0-.16.16-1.91,3.66-1.59-.48,0,2.07,0,2.07-1.75a6.92,6.92,0,0,1,1.9-3.65c.16-.16,1.75-1.91,1.75-1.91l2.71,1.59,2.22-1.75,4.61-.16a7.39,7.39,0,0,1,5.41,0c0,.16,1.75.16,1.75.16L245.57,70l5.25-1.59a12,12,0,0,0,4.92,3.66c0,.15,4.93,5.72,4.93,5.72S261.79,78.62,262.1,77.51Z"/><path class="cls-1" d="M262.1,77.51c-.16.16.32,2.55,2.23,5.72s4,6.52,4,6.52A21.15,21.15,0,0,1,272,93.57c1,1.59.48,4.45,2.86,4.45s2.71-2.38,6.36.32,3.5,4.29,4.61,6.83,2.7,1.59,1.43,3.66-9.69,7-12.08,8.27a50.9,50.9,0,0,0-7.47,4.93c-1.43,1.27-8.59,5.56-8.59,5.56a14.54,14.54,0,0,0-.32,4.45c.16,2.87.8,4.77-.31,7s-1.43,2.86-1.59,4.77-.48,3.66.16,5.09a15.72,15.72,0,0,1,1.11,5.4,37.8,37.8,0,0,0,.79,5.25,28.68,28.68,0,0,0-4.29-3.18,5.32,5.32,0,0,0-4.29-.8c-2.39.32-3.18.64-4.77,1s-2.86-.16-5.09.95-3.5,1.59-5.09,2.54-6.2,3.82-5.4,2.23,2.7-5.09,3-6.84,1.27-3.17,1.11-5.72-1.59-5.56-2.54-7.63a37,37,0,0,1-2.7-6.84,44.37,44.37,0,0,0-2.07-5.88,20.32,20.32,0,0,1-1.11-6.68c0-3.81-2.87-6.83-5.73-9.7s-5.72-1.9-8.42-3.65a27.17,27.17,0,0,0-7.79-3.34c-1.59-.32-4.62-.64-5.73-2.07s-1.43-1.91-2.54-3.18-2.86-2.54-3.82-4.29-.32-1.91,1.12-3a51.54,51.54,0,0,1,5.56-3.5c1-.48,2.38-1.27,2.38-1.27s2.39-3.66,3.18-1.91l.64,1.43,1.59-2.38,1-1.43,1.59-1.59H213s-.32-2.55,3.65-2.07c0-.16.16-1.91,3.66-1.59-.48,0,2.07,0,2.07-1.75a6.92,6.92,0,0,1,1.9-3.65c.16-.16,1.75-1.91,1.75-1.91l2.71,1.59,2.22-1.75,4.61-.16a7.39,7.39,0,0,1,5.41,0c0,.16,1.75.16,1.75.16L245.57,70l5.25-1.59a12,12,0,0,0,4.92,3.66c0,.15,4.93,5.72,4.93,5.72S261.79,78.62,262.1,77.51Z"/><path class="cls-1" d="M125.78,128.41c0-.17-1.33,2.67-.33,3s1.33,0,2.33,1,1.33-.33,2.5.17,1.67.5.17,1.33-1.84.67-3.5.67-1.16.16-2.17-1-1.17-2.5-2.17-1.34-1.17,0-3,.67-3,.66-3.34,1.83-1.16.51-.83,2.34.67,1.17-.33,2.17-1.67,2-1,2.67a4.51,4.51,0,0,1,1.5,2.16c.5,1.34,1.5,1.34,1.5,2.84s0,2.67.83,2.17,1-1.35,2.17-.67,3,1.67,3.83,1-.16-1,1.34-1.84,2,.17,2.17-1.66.83-3.17,1.16-1.84,1.34,1.84.5,2.5a1.53,1.53,0,0,0-.33,2.34c.67.67.5.83,1.33-.67s1.5-2.67,3.34-1.83,2.16,1.33,4,3,.84,2.67,3.17,2,3.67-2,3.5-.83-1.67.5-1,1.67.83,1.5,1.83.5,2.17-2,2.5-1a27.63,27.63,0,0,1,.67,3.5s1.67-.34,1.5,1-1.5,2-2.33,1.16-2.67-2.83-2.67-1.33-.67,2,.5,2.67a9,9,0,0,1,1.83,1.33s-.83.66,1,1.83,1.25,5.45,2.71,5.48,2.8,1.19,2.8,2.19,2.5,5.67,3.83,5,.72-1.79,1.86-1.06,1.81.72,2.64.06,1.16-1.46,2.42-.23,3.26,3.56,4.26,4.4,3,2,4,1.83.93-1.21,1.55-1.61a15.29,15.29,0,0,0,3.61-2.89,24,24,0,0,0,1.84-3c.34-.67.5-3,2.34-2s3,2.17,3,3.84a14.88,14.88,0,0,0,.5,4.67c.5,1.67,1,4.17,1.33,5.17a26.37,26.37,0,0,1,.37,4.46s-1.7,1.21-1.7,2.21.66,1.67,2.66.83,7.17-2.84,8.67-2.84a10.1,10.1,0,0,0,4.17-1,11.74,11.74,0,0,1,6.34-.16,33.07,33.07,0,0,1,4,1c3.17,1,3.67,1.67,6,2s3,.33,3.17-1.17a50.5,50.5,0,0,0-.33-7,18.86,18.86,0,0,1,.5-5.67,28.73,28.73,0,0,0,1.83-4.33,48.23,48.23,0,0,1,1.84-5l5.83-4.84a45.79,45.79,0,0,0,3-6.84c1.15-3.49,2-7.16-.19-11S229,133.74,228,132.08s-1.83-6-2.17-8.84a16.93,16.93,0,0,0-12-13.17c.16,0-6.17-3.67-9-3.67-1.16-.34-6-.34-7.17-3.17,0,0-3.32-3.67-4.33-4.83s-2.34-1.83-1.84-3.5c1.84-1.51,5.34-3.84,6-4.34s3.25-1.92,3.25-1.92-8.09.08-9.09.42-3.83,1-4.83,1.16a20,20,0,0,1-3.25,0,8.79,8.79,0,0,1-3.09,7.67c-3.84,3.33-9,8.5-10.5,9.84s-5.18,3.83-6.18,4.5-2,2.5-3.33,2.83-1.67,1-4.83-.67-7-3.5-7-3.5l-4-2.07s-1.49,7.41-4.16,9.07c-4.5,2-6.35,3.17-7.76,4.92a17.73,17.73,0,0,1-4.08,3.59C127.61,127.08,126,130.08,125.78,128.41Z"/><path class="cls-1" d="M125.78,128.41c0-.17-1.33,2.67-.33,3s1.33,0,2.33,1,1.33-.33,2.5.17,1.67.5.17,1.33-1.84.67-3.5.67-1.16.16-2.17-1-1.17-2.5-2.17-1.34-1.17,0-3,.67-3,.66-3.34,1.83-1.16.51-.83,2.34.67,1.17-.33,2.17-1.67,2-1,2.67a4.51,4.51,0,0,1,1.5,2.16c.5,1.34,1.5,1.34,1.5,2.84s0,2.67.83,2.17,1-1.35,2.17-.67,3,1.67,3.83,1-.16-1,1.34-1.84,2,.17,2.17-1.66.83-3.17,1.16-1.84,1.34,1.84.5,2.5a1.53,1.53,0,0,0-.33,2.34c.67.67.5.83,1.33-.67s1.5-2.67,3.34-1.83,2.16,1.33,4,3,.84,2.67,3.17,2,3.67-2,3.5-.83-1.67.5-1,1.67.83,1.5,1.83.5,2.17-2,2.5-1a27.63,27.63,0,0,1,.67,3.5s1.67-.34,1.5,1-1.5,2-2.33,1.16-2.67-2.83-2.67-1.33-.67,2,.5,2.67a9,9,0,0,1,1.83,1.33s-.83.66,1,1.83,1.25,5.45,2.71,5.48,2.8,1.19,2.8,2.19,2.5,5.67,3.83,5,.72-1.79,1.86-1.06,1.81.72,2.64.06,1.16-1.46,2.42-.23,3.26,3.56,4.26,4.4,3,2,4,1.83.93-1.21,1.55-1.61a15.29,15.29,0,0,0,3.61-2.89,24,24,0,0,0,1.84-3c.34-.67.5-3,2.34-2s3,2.17,3,3.84a14.88,14.88,0,0,0,.5,4.67c.5,1.67,1,4.17,1.33,5.17a26.37,26.37,0,0,1,.37,4.46s-1.7,1.21-1.7,2.21.66,1.67,2.66.83,7.17-2.84,8.67-2.84a10.1,10.1,0,0,0,4.17-1,11.74,11.74,0,0,1,6.34-.16,33.07,33.07,0,0,1,4,1c3.17,1,3.67,1.67,6,2s3,.33,3.17-1.17a50.5,50.5,0,0,0-.33-7,18.86,18.86,0,0,1,.5-5.67,28.73,28.73,0,0,0,1.83-4.33,48.23,48.23,0,0,1,1.84-5l5.83-4.84a45.79,45.79,0,0,0,3-6.84c1.15-3.49,2-7.16-.19-11S229,133.74,228,132.08s-1.83-6-2.17-8.84a16.93,16.93,0,0,0-12-13.17c.16,0-6.17-3.67-9-3.67-1.16-.34-6-.34-7.17-3.17,0,0-3.32-3.67-4.33-4.83s-2.34-1.83-1.84-3.5c1.84-1.51,5.34-3.84,6-4.34s3.25-1.92,3.25-1.92-8.09.08-9.09.42-3.83,1-4.83,1.16a20,20,0,0,1-3.25,0,8.79,8.79,0,0,1-3.09,7.67c-3.84,3.33-9,8.5-10.5,9.84s-5.18,3.83-6.18,4.5-2,2.5-3.33,2.83-1.67,1-4.83-.67-7-3.5-7-3.5l-4-2.07s-1.49,7.41-4.16,9.07c-4.5,2-6.35,3.17-7.76,4.92a17.73,17.73,0,0,1-4.08,3.59C127.61,127.08,126,130.08,125.78,128.41Z"/><path class="cls-1" d="M258.92,159.55c.25.21-.09,3,1.08,3.71a9,9,0,0,1,2.84,2.83c.67,1,1.67.84,2.34-.16s1-1.67,1.83-1.34.67.17,1.83,1.5.84,1.34,2.5,1.84,3.17,2.16,3,3.83-1,4.17-.33,5,2,.5,2.67,2.16,1.5,5.67,2.17,7a22.46,22.46,0,0,0,3.17,3.84c1,1.17,1.66,2.5,2.83,3.34a46.4,46.4,0,0,0,5.67,3c1.5.66,4.83,3.16,6.33,3.83s2.5-.17,3.34,1,2,2.51.83,3.51a4,4,0,0,0-1.67,2.5c-.33,1.16-.33,2.33-1.5,2.5s-1.66-.5-2.33.66-2.17,3.5-2.33,4.84-.5,2.34-.67,3.17-.17,1.67-1.33,1.33-2.17-1.33-3.17-1.83-1.84-1.51-2.84-2-.83.5-1.66-1.33-.5-2.5-2-2-1.34.33-3.17.83-1.34.67-2.5.5-2.17-.66-2.17.34.33,2.67-.84,3.17-2.66.17-3.5.83a11,11,0,0,1-2.83,1.34c-1.17.5-3,1-3.67,2s-1.5,2.16-3.34,2-3.33.33-5.33.5-6.17-.17-7.84,0-3.33.66-4.5.66-2.33.5-4.33-.33-3.34-1.17-4.68-.83-2,1.33-3.5,2.33-2,2.17-3.16,1.67-2.17-.84-1.34-2.67,4.17-7.51,4.5-8.67,2-4.34,1.84-5.67a4,4,0,0,0-1.84-3.17c-1.33-1-2.5-3-3.66-4s-2.67-1.34-2.84-2.67.17-3.33-.66-5.33-1.84-5.17-1.84-5.17-.5-7.84-.33-9.84a28.77,28.77,0,0,1,2.17-7.17c1-2.5,2-5.84,2-5.84l5.83-4.84s.66.67,2.33-.33,9.84-5.16,9.84-5.16,3.84,0,5-.5,4.67-1.17,6.67-.17A35.34,35.34,0,0,1,258.92,159.55Z"/><path class="cls-1" d="M258.92,159.55c.25.21-.09,3,1.08,3.71a9,9,0,0,1,2.84,2.83c.67,1,1.67.84,2.34-.16s1-1.67,1.83-1.34.67.17,1.83,1.5.84,1.34,2.5,1.84,3.17,2.16,3,3.83-1,4.17-.33,5,2,.5,2.67,2.16,1.5,5.67,2.17,7a22.46,22.46,0,0,0,3.17,3.84c1,1.17,1.66,2.5,2.83,3.34a46.4,46.4,0,0,0,5.67,3c1.5.66,4.83,3.16,6.33,3.83s2.5-.17,3.34,1,2,2.51.83,3.51a4,4,0,0,0-1.67,2.5c-.33,1.16-.33,2.33-1.5,2.5s-1.66-.5-2.33.66-2.17,3.5-2.33,4.84-.5,2.34-.67,3.17-.17,1.67-1.33,1.33-2.17-1.33-3.17-1.83-1.84-1.51-2.84-2-.83.5-1.66-1.33-.5-2.5-2-2-1.34.33-3.17.83-1.34.67-2.5.5-2.17-.66-2.17.34.33,2.67-.84,3.17-2.66.17-3.5.83a11,11,0,0,1-2.83,1.34c-1.17.5-3,1-3.67,2s-1.5,2.16-3.34,2-3.33.33-5.33.5-6.17-.17-7.84,0-3.33.66-4.5.66-2.33.5-4.33-.33-3.34-1.17-4.68-.83-2,1.33-3.5,2.33-2,2.17-3.16,1.67-2.17-.84-1.34-2.67,4.17-7.51,4.5-8.67,2-4.34,1.84-5.67a4,4,0,0,0-1.84-3.17c-1.33-1-2.5-3-3.66-4s-2.67-1.34-2.84-2.67.17-3.33-.66-5.33-1.84-5.17-1.84-5.17-.5-7.84-.33-9.84a28.77,28.77,0,0,1,2.17-7.17c1-2.5,2-5.84,2-5.84l5.83-4.84s.66.67,2.33-.33,9.84-5.16,9.84-5.16,3.84,0,5-.5,4.67-1.17,6.67-.17A35.34,35.34,0,0,1,258.92,159.55Z"/><path class="cls-1" d="M220.32,189.94c-.16-.17,2.34,6.33,2.5,7.67s-.83,3.33,1.34,4.5,5,4.5,5.66,5.5,2.17,2.5.5,6-5,10.34-5,10.34-1.5,1.5-.16,2.67a6,6,0,0,0-1,2.33c-.34,1.5-1.5.34-1.34,2.34s-.33,3.34,1.84,6,4.83,6.67,5.33,8.18,3.83,4.33,2.17,5-2.34-.17-5.5.5-5.51.5-7.51.83-3.83-.83-4.17.83-.33,4.51-2,5.51-2.33.49-3.5-.67-1.49-1.84-3.16-1.67a6.73,6.73,0,0,1-3.18-.17,16.07,16.07,0,0,0-2.83-.33,12,12,0,0,1-4.33.17c-2.5-.34-2.34-1.17-4.34-.84s-2.33.17-3.17.67a5.58,5.58,0,0,1-2.33.5s-.16-9.83-5-10.84c0-.16-4.85-1.5-3-4.5a54.09,54.09,0,0,1,3.18-7.33,8,8,0,0,0-.67-5.18c-1.33-2.66-1.87-5.08.57-6.21l4.26-1.29,4-2,1-5.5,1-3.84s-1.76-3-.88-5.82a15.72,15.72,0,0,0-2.9-3.09,9.63,9.63,0,0,1-.38-3.59l-2-1.36-1.71-1.54.72-.6v-1.84l1-.83s.66,1.67,2,1l9.33-3h2s4-3.5,11.18-.5c4.66,1.34,5.66,2.18,8.83,2.34A1.18,1.18,0,0,0,220.32,189.94Z"/><path class="cls-1" d="M220.32,189.94c-.16-.17,2.34,6.33,2.5,7.67s-.83,3.33,1.34,4.5,5,4.5,5.66,5.5,2.17,2.5.5,6-5,10.34-5,10.34-1.5,1.5-.16,2.67a6,6,0,0,0-1,2.33c-.34,1.5-1.5.34-1.34,2.34s-.33,3.34,1.84,6,4.83,6.67,5.33,8.18,3.83,4.33,2.17,5-2.34-.17-5.5.5-5.51.5-7.51.83-3.83-.83-4.17.83-.33,4.51-2,5.51-2.33.49-3.5-.67-1.49-1.84-3.16-1.67a6.73,6.73,0,0,1-3.18-.17,16.07,16.07,0,0,0-2.83-.33,12,12,0,0,1-4.33.17c-2.5-.34-2.34-1.17-4.34-.84s-2.33.17-3.17.67a5.58,5.58,0,0,1-2.33.5s-.16-9.83-5-10.84c0-.16-4.85-1.5-3-4.5a54.09,54.09,0,0,1,3.18-7.33,8,8,0,0,0-.67-5.18c-1.33-2.66-1.87-5.08.57-6.21l4.26-1.29,4-2,1-5.5,1-3.84s-1.76-3-.88-5.82a15.72,15.72,0,0,0-2.9-3.09,9.63,9.63,0,0,1-.38-3.59l-2-1.36-1.71-1.54.72-.6v-1.84l1-.83s.66,1.67,2,1l9.33-3h2s4-3.5,11.18-.5c4.66,1.34,5.66,2.18,8.83,2.34A1.18,1.18,0,0,0,220.32,189.94Z"/><path class="cls-1" d="M187.81,262.14a6.77,6.77,0,0,1,3,1.66c1,1.17,1.17,1.67,2.33,1s2.34-.33,3-1.16,1.5-2.17,2.17-1,1.17,2.66,2.5,2.83a6.34,6.34,0,0,1,3,1.33c.67.5.66.67,1.84.5a17.5,17.5,0,0,0,2.83-.83c1.17-.33,1.67.67,2.5,1.33s.17.67,3.5,1.5,6,1.34,7.51,1,3.83-.17,4.67-1.17.16-1.17,2.33-1.34a18.24,18.24,0,0,0,4-.5c2.51-.5,3-1,3.17-2.66a8.63,8.63,0,0,1,1.17-3.67,6.14,6.14,0,0,0,.67-2.5,11.57,11.57,0,0,1,.83-3.17c.67-1.5,1.83-.83.5-2.5s-1.33-2.17-2.67-2.17-4.5-.16-4.5-.16-4.5.33-7,.83a48.54,48.54,0,0,1-6,.5c-1.5.17-3.17.17-3.17.17s-1.5,0-1.33,2.16a4.73,4.73,0,0,1-.67,3.17c-.66.67-2.5,2.33-4.5.17-.16,0-.83-2.5-4.67-1.67-1.83-.17-3.33-.67-5.17-.17a9,9,0,0,1-4.33-.16c-1-.17-2.67-1-3.67-.84s-2.83.17-3.17.67-2.33.5-2.33.5-.17,2.34.33,3A6.14,6.14,0,0,1,187.81,262.14Z"/><path class="cls-1" d="M187.81,262.14a6.77,6.77,0,0,1,3,1.66c1,1.17,1.17,1.67,2.33,1s2.34-.33,3-1.16,1.5-2.17,2.17-1,1.17,2.66,2.5,2.83a6.34,6.34,0,0,1,3,1.33c.67.5.66.67,1.84.5a17.5,17.5,0,0,0,2.83-.83c1.17-.33,1.67.67,2.5,1.33s.17.67,3.5,1.5,6,1.34,7.51,1,3.83-.17,4.67-1.17.16-1.17,2.33-1.34a18.24,18.24,0,0,0,4-.5c2.51-.5,3-1,3.17-2.66a8.63,8.63,0,0,1,1.17-3.67,6.14,6.14,0,0,0,.67-2.5,11.57,11.57,0,0,1,.83-3.17c.67-1.5,1.83-.83.5-2.5s-1.33-2.17-2.67-2.17-4.5-.16-4.5-.16-4.5.33-7,.83a48.54,48.54,0,0,1-6,.5c-1.5.17-3.17.17-3.17.17s-1.5,0-1.33,2.16a4.73,4.73,0,0,1-.67,3.17c-.66.67-2.5,2.33-4.5.17-.16,0-.83-2.5-4.67-1.67-1.83-.17-3.33-.67-5.17-.17a9,9,0,0,1-4.33-.16c-1-.17-2.67-1-3.67-.84s-2.83.17-3.17.67-2.33.5-2.33.5-.17,2.34.33,3A6.14,6.14,0,0,1,187.81,262.14Z"/><path class="cls-1" d="M291.85,219.12c.17.5,3.34.67,4,2s.84,2.17,1.67,3S299,229,299,231s.83,4.5-.17,6.33-1.66,1.5-2.5,3.34-1.33,3.17-2,4.67.67,2.83-.83,3.67-1.17.5-2.83-.17-3.84-1.84-4.34-1.17,0,10.67,0,10.67S273.68,269,272.84,270.14s-10.33,16.51-10.33,16.51l-4,9.67-8.83,10.84S242,292.48,240.33,284c-1.17-4.5-3.17-9.5-3.5-11.5s-1.5-6-1.5-6l.83-.5s.84-3.83,1.17-5,.67-1,.67-2.5a9.34,9.34,0,0,1,.83-3.17,5.38,5.38,0,0,1,1.17-1.67,3.49,3.49,0,0,0-3.34-3,14.24,14.24,0,0,0-4.5-.16s.66-1-.5-2.67-2.17-2.33-2.34-3.5-4.66-7-4.66-7a5,5,0,0,1-1.5-3.5c0,.5-.5-1.33-.34-2.5a3.48,3.48,0,0,1,.84-1.84l1.5-2.83s1.83,2.17,3.16.17c1.5-1.34,4.5-3.5,4.5-3.5H235a9.71,9.71,0,0,0,4.83,1.33c2.33-.17,6.5-.83,6.5-.83s7.17,0,9.34-.17,5.51-.5,5.51-.5,1.5-2.33,3.33-2.83a31.09,31.09,0,0,0,4-1.5l.83-.84s2.67.17,3.5-.83a6.12,6.12,0,0,0,.84-3.17,4.12,4.12,0,0,1,2.17-.34,6.6,6.6,0,0,0,3.33-.66,16.45,16.45,0,0,1,3-.67s.84,1.33,1.34,2a15.24,15.24,0,0,0,2.66,2l3.34,2.34S290.85,220,291.85,219.12Z"/><path class="cls-1" d="M291.85,219.12c.17.5,3.34.67,4,2s.84,2.17,1.67,3S299,229,299,231s.83,4.5-.17,6.33-1.66,1.5-2.5,3.34-1.33,3.17-2,4.67.67,2.83-.83,3.67-1.17.5-2.83-.17-3.84-1.84-4.34-1.17,0,10.67,0,10.67S273.68,269,272.84,270.14s-10.33,16.51-10.33,16.51l-4,9.67-8.83,10.84S242,292.48,240.33,284c-1.17-4.5-3.17-9.5-3.5-11.5s-1.5-6-1.5-6l.83-.5s.84-3.83,1.17-5,.67-1,.67-2.5a9.34,9.34,0,0,1,.83-3.17,5.38,5.38,0,0,1,1.17-1.67,3.49,3.49,0,0,0-3.34-3,14.24,14.24,0,0,0-4.5-.16s.66-1-.5-2.67-2.17-2.33-2.34-3.5-4.66-7-4.66-7a5,5,0,0,1-1.5-3.5c0,.5-.5-1.33-.34-2.5a3.48,3.48,0,0,1,.84-1.84l1.5-2.83s1.83,2.17,3.16.17c1.5-1.34,4.5-3.5,4.5-3.5H235a9.71,9.71,0,0,0,4.83,1.33c2.33-.17,6.5-.83,6.5-.83s7.17,0,9.34-.17,5.51-.5,5.51-.5,1.5-2.33,3.33-2.83a31.09,31.09,0,0,0,4-1.5l.83-.84s2.67.17,3.5-.83a6.12,6.12,0,0,0,.84-3.17,4.12,4.12,0,0,1,2.17-.34,6.6,6.6,0,0,0,3.33-.66,16.45,16.45,0,0,1,3-.67s.84,1.33,1.34,2a15.24,15.24,0,0,0,2.66,2l3.34,2.34S290.85,220,291.85,219.12Z"/><path class="cls-1" d="M286.35,247.63a12.63,12.63,0,0,1,2,2.5c.34.84,1.5.34,1.5,1.84s-.66,3.66.34,3.16.66-1.16,1.5-1.16,1.5,0,1.5,1.5-.67,2.5.5,3.17,3.83,2,4.16,3,.17,3,.5,3.66a6.64,6.64,0,0,1,.67,4c-.33,1.67-1.33,2.18-1.17,3a3.53,3.53,0,0,0,1.17,1.83c.5.5,0,1.67.5,2.5s-.5,2.17-1.83,1.34-1.5-1.67-3-1.17-1.84.33-2.17,1.17-.67,2.33-1.83,2.83-2.67,0-3.84.17-1.67.5-3-.5-1.17-1.67-2.17-1.34-1.5-2.5-2.33-1-.17,1.84-1.17,2.17-2-.83-2.66.5,0,1.83-1.51,2.17a2.63,2.63,0,0,0-2.17,1.66c-.5.84-1-.66-1.83.84s-.5,1.84-2.67,2.67-2.83-.33-2.83,1,.5,3-1.17,3-3.17-.17-3.17-.17,2.17-4.66,2.34-5.33,10.33-16.51,10.33-16.51l13.51-11.84Z"/><path class="cls-1" d="M286.35,247.63a12.63,12.63,0,0,1,2,2.5c.34.84,1.5.34,1.5,1.84s-.66,3.66.34,3.16.66-1.16,1.5-1.16,1.5,0,1.5,1.5-.67,2.5.5,3.17,3.83,2,4.16,3,.17,3,.5,3.66a6.64,6.64,0,0,1,.67,4c-.33,1.67-1.33,2.18-1.17,3a3.53,3.53,0,0,0,1.17,1.83c.5.5,0,1.67.5,2.5s-.5,2.17-1.83,1.34-1.5-1.67-3-1.17-1.84.33-2.17,1.17-.67,2.33-1.83,2.83-2.67,0-3.84.17-1.67.5-3-.5-1.17-1.67-2.17-1.34-1.5-2.5-2.33-1-.17,1.84-1.17,2.17-2-.83-2.66.5,0,1.83-1.51,2.17a2.63,2.63,0,0,0-2.17,1.66c-.5.84-1-.66-1.83.84s-.5,1.84-2.67,2.67-2.83-.33-2.83,1,.5,3-1.17,3-3.17-.17-3.17-.17,2.17-4.66,2.34-5.33,10.33-16.51,10.33-16.51l13.51-11.84Z"/><path class="cls-1" d="M235.33,266.47l6.83,23.85,7.51,16.84s2.33,4.5,3.5,6.17,2.17,3.33,3.33,5.17,2.5,2.66,1.5,3.16-5.83.17-6.83.67a28.77,28.77,0,0,1-6.67,1.17c-2.17.16-8.34.16-12.18.16S211,321.83,208,321.83s-5-.5-7-.5a47.48,47.48,0,0,1-5.34-.5s-4.33,6.34-5.83,8.17-2.84,4.84-4,5.84-2.17,1.83-2.17,1.83l.17-7.17v-1.83s.53-2-1.24-1a60.3,60.3,0,0,1-7.42,4.26c-.68.22-2.33.69-2.33.69l0-4.14-.5-16.68-.33-4.16v-4.25l11.62-.17.38-3.08s.67-1.68-1.66-3c-.5-1.33-1.17-3.17-1.17-3.17a2,2,0,0,1,2.17-1,5.24,5.24,0,0,0,1.33.17l1.67-2.33a1.11,1.11,0,0,1,1.72-.57,10.71,10.71,0,0,0,3.61.9s.12,0,0-1.75a38.08,38.08,0,0,0-1-4.76c-.17-.83-.33-3.16-.5-6.16a56.94,56.94,0,0,0-.83-8.51c-.5-2-1-5-1-5l-.5-1.83,2.16,1,2,1.83,1.84-.17,2-.66,1.5-1.67s.83-.5,1.33.67a7.43,7.43,0,0,0,2.17,2.33l1.67.5a3.37,3.37,0,0,0,3.17,1.33,8.77,8.77,0,0,0,2.83-.83,1.86,1.86,0,0,1,2.17.83c1,1.34,5.51,3.51,13.51,2.67.33,0,2.16-.17,2.83-1.33.17.16,1-1,1-1A10.3,10.3,0,0,0,235.33,266.47Z"/><path class="cls-1" d="M235.33,266.47l6.83,23.85,7.51,16.84s2.33,4.5,3.5,6.17,2.17,3.33,3.33,5.17,2.5,2.66,1.5,3.16-5.83.17-6.83.67a28.77,28.77,0,0,1-6.67,1.17c-2.17.16-8.34.16-12.18.16S211,321.83,208,321.83s-5-.5-7-.5a47.48,47.48,0,0,1-5.34-.5s-4.33,6.34-5.83,8.17-2.84,4.84-4,5.84-2.17,1.83-2.17,1.83l.17-7.17v-1.83s.53-2-1.24-1a60.3,60.3,0,0,1-7.42,4.26c-.68.22-2.33.69-2.33.69l0-4.14-.5-16.68-.33-4.16v-4.25l11.62-.17.38-3.08s.67-1.68-1.66-3c-.5-1.33-1.17-3.17-1.17-3.17a2,2,0,0,1,2.17-1,5.24,5.24,0,0,0,1.33.17l1.67-2.33a1.11,1.11,0,0,1,1.72-.57,10.71,10.71,0,0,0,3.61.9s.12,0,0-1.75a38.08,38.08,0,0,0-1-4.76c-.17-.83-.33-3.16-.5-6.16a56.94,56.94,0,0,0-.83-8.51c-.5-2-1-5-1-5l-.5-1.83,2.16,1,2,1.83,1.84-.17,2-.66,1.5-1.67s.83-.5,1.33.67a7.43,7.43,0,0,0,2.17,2.33l1.67.5a3.37,3.37,0,0,0,3.17,1.33,8.77,8.77,0,0,0,2.83-.83,1.86,1.86,0,0,1,2.17.83c1,1.34,5.51,3.51,13.51,2.67.33,0,2.16-.17,2.83-1.33.17.16,1-1,1-1A10.3,10.3,0,0,0,235.33,266.47Z"/><path class="cls-2" d="M184,338.17s14.34,9.51,15.67,9,2.5-.17,2.84-.84a2,2,0,0,1,2.83-.33c1,.83,1,4,1,4l-.34,1.83,22,.67,12.17-8.5,3.34-20.68-5.34.33h-6.84l-35.68-2.83-10.5,14.67-1.5,1.17Z"/><path class="cls-2" d="M184,338.17s14.34,9.51,15.67,9,2.5-.17,2.84-.84a2,2,0,0,1,2.83-.33c1,.83,1,4,1,4l-.34,1.83,22,.67,12.17-8.5,3.34-20.68-5.34.33h-6.84l-35.68-2.83-10.5,14.67-1.5,1.17Z"/><path class="cls-1" d="M240.16,344s27.85,17.5,27.35,18.17-13,1.33-14.51,1.33-2.66,1.5-4.5,1.84-5.67.16-7.34.66A119,119,0,0,1,229,368.35c-2.17.17-8.51-.33-9.34.17s-3.33-.17-4.17.67-.5,2.16-1.5,3-2.83.83-4.5,1.5-3.33,1.16-4.5.83-1-1.17-2.67-.83-1.5,0-2.33,1-1,2-2,2.66-1.5.34-1.5.34L193.64,376a4.17,4.17,0,0,0-4.5-3.2c-2.17-1.47-4.86-3.18-4.86-3.18l-3.64-3.46-1.17-1-.14-1.08,1.81-1.92,2.8-.47,0-1.2s.39-1.69,1.61-.67,3.06,2.34,3.23.84a16.64,16.64,0,0,0-.67-5.83c-.5-1.17-.83-2-2.33-2.34s-6-1.67-6.5-3.5c-.5-2.17-.67-3.67,0-4a9.68,9.68,0,0,0,3.33-3.5,23.92,23.92,0,0,0,1.33-3.34s10.51,6.51,11.51,7.17,4,2.34,5.33,1.84,4.51-3.34,5.17.16v4.5l22,.67Z"/><path class="cls-1" d="M240.16,344s27.85,17.5,27.35,18.17-13,1.33-14.51,1.33-2.66,1.5-4.5,1.84-5.67.16-7.34.66A119,119,0,0,1,229,368.35c-2.17.17-8.51-.33-9.34.17s-3.33-.17-4.17.67-.5,2.16-1.5,3-2.83.83-4.5,1.5-3.33,1.16-4.5.83-1-1.17-2.67-.83-1.5,0-2.33,1-1,2-2,2.66-1.5.34-1.5.34L193.64,376a4.17,4.17,0,0,0-4.5-3.2c-2.17-1.47-4.86-3.18-4.86-3.18l-3.64-3.46-1.17-1-.14-1.08,1.81-1.92,2.8-.47,0-1.2s.39-1.69,1.61-.67,3.06,2.34,3.23.84a16.64,16.64,0,0,0-.67-5.83c-.5-1.17-.83-2-2.33-2.34s-6-1.67-6.5-3.5c-.5-2.17-.67-3.67,0-4a9.68,9.68,0,0,0,3.33-3.5,23.92,23.92,0,0,0,1.33-3.34s10.51,6.51,11.51,7.17,4,2.34,5.33,1.84,4.51-3.34,5.17.16v4.5l22,.67Z"/><path class="cls-1" d="M267.51,362.18s10,22.35,9.17,23.85c-1.67,1.5-4.67,1.66-4.67,2.83s-1.67,1.17-2.5,1.83a6,6,0,0,0-1.83,2.5,4,4,0,0,1-1.34,2.68c-1.16,1-2.33,1.33-2.33,2.66s-.16,3.5-1.83,4.5-1.68,1.34-2.18,3.17-1,1-1.5,2.34-1,2.5-1,2.5-.83-.17-2,1.67-1.66,2.83-2.33,3a2.58,2.58,0,0,1-2.17-.17c-1-.5-2.16-1.33-2.66-.5s-1.67.83-2.25,1.25-1.56,1.24-1.56,1.24a3.66,3.66,0,0,1-1.37-2.82c0-1.84-1.16-3.67-1.33-5s-.91-1.88-.87-3.36-.13-3.82,1.37-4.82,3.33-2.33,3.33-3.33-.16-3-.16-3a7.93,7.93,0,0,0-2-.84c-.5,0-1.17-.33-2.34-.5s-3-.67-3-.67a49.8,49.8,0,0,0-6.5,1.17,9.41,9.41,0,0,1-3.38.83c-1.62.18-2-.33-3.79-1s-2.33-1.5-3.67-.83a19.19,19.19,0,0,1-3.17,1.34c-.67.17-1.35-1.38-2.76-1s-2.41.2-3.57,1.36a3.8,3.8,0,0,1-3.34,1.34c-1.5,0-4.5-1.18-4.67-2.18a27.22,27.22,0,0,1-.18-3.11l-1.19-3s2.21-3.06,1.71-4.23.74-1.86-.72-2.35-3.62-1.66-4.12-1.82a15.79,15.79,0,0,1-2.33-2s2.16-.34,2.83-1.84a3.65,3.65,0,0,1,3-2.16c.83,0,1.67-.17,2.17.33s2.67.5,2.67.5,5.5-1.67,6.17-1.83a4.53,4.53,0,0,0,1.5-1s-.5-2.34.66-2.5,3.17-.5,3.17-.5,9.17-.17,10.34-.34,8.17-1.17,9-1.5,6.16-1.34,6.16-1.34l4.34-.16,3.67-1.84,12.17-.5Z"/><path class="cls-1" d="M267.51,362.18s10,22.35,9.17,23.85c-1.67,1.5-4.67,1.66-4.67,2.83s-1.67,1.17-2.5,1.83a6,6,0,0,0-1.83,2.5,4,4,0,0,1-1.34,2.68c-1.16,1-2.33,1.33-2.33,2.66s-.16,3.5-1.83,4.5-1.68,1.34-2.18,3.17-1,1-1.5,2.34-1,2.5-1,2.5-.83-.17-2,1.67-1.66,2.83-2.33,3a2.58,2.58,0,0,1-2.17-.17c-1-.5-2.16-1.33-2.66-.5s-1.67.83-2.25,1.25-1.56,1.24-1.56,1.24a3.66,3.66,0,0,1-1.37-2.82c0-1.84-1.16-3.67-1.33-5s-.91-1.88-.87-3.36-.13-3.82,1.37-4.82,3.33-2.33,3.33-3.33-.16-3-.16-3a7.93,7.93,0,0,0-2-.84c-.5,0-1.17-.33-2.34-.5s-3-.67-3-.67a49.8,49.8,0,0,0-6.5,1.17,9.41,9.41,0,0,1-3.38.83c-1.62.18-2-.33-3.79-1s-2.33-1.5-3.67-.83a19.19,19.19,0,0,1-3.17,1.34c-.67.17-1.35-1.38-2.76-1s-2.41.2-3.57,1.36a3.8,3.8,0,0,1-3.34,1.34c-1.5,0-4.5-1.18-4.67-2.18a27.22,27.22,0,0,1-.18-3.11l-1.19-3s2.21-3.06,1.71-4.23.74-1.86-.72-2.35-3.62-1.66-4.12-1.82a15.79,15.79,0,0,1-2.33-2s2.16-.34,2.83-1.84a3.65,3.65,0,0,1,3-2.16c.83,0,1.67-.17,2.17.33s2.67.5,2.67.5,5.5-1.67,6.17-1.83a4.53,4.53,0,0,0,1.5-1s-.5-2.34.66-2.5,3.17-.5,3.17-.5,9.17-.17,10.34-.34,8.17-1.17,9-1.5,6.16-1.34,6.16-1.34l4.34-.16,3.67-1.84,12.17-.5Z"/><path class="cls-1" d="M376.33,244.77s-.7,2.53-4.23,4.22-3.81,3.67-3.53,5.92-1.54,3,1.84,5.22,3.66-.28,5.64,2.25,1.69,2.82,2.53,5.64,1.69,4.94,3.38,5.22,3.81-1.13,5.79,1.13,3.38,1.69,5.91,1.41,3.53-1.41,6.35-.29,2.26.57,5.07-.28,3.38-.84,4.51.57,1.84,2,4.09,1.69,2.82-1.13,4.51-.57,6.48,0,6.48,0-1.69-1.12-2-2.25,1.26,1,1.69-2.26a17.58,17.58,0,0,0-.28-7.47c-.56-1.69-.28-4.64-3.66-7s-4.51-3.25-4.51-3.25,3.66.28,4.22-2.26,1.69-2.53.85-3.94-1.13-.13-.85-2.82-.28-2.68-.28-3.81,1.69-4.51,1.69-4.51-8.3-.84-9.58.57-7.19,3.38-10.29,4.5-5.22,3-8.32,4.1-2.67,1.69-6.2,1.12-5.78-.84-6.91-1.4A34.85,34.85,0,0,0,376.33,244.77Z"/><path class="cls-1" d="M376.33,244.77s-.7,2.53-4.23,4.22-3.81,3.67-3.53,5.92-1.54,3,1.84,5.22,3.66-.28,5.64,2.25,1.69,2.82,2.53,5.64,1.69,4.94,3.38,5.22,3.81-1.13,5.79,1.13,3.38,1.69,5.91,1.41,3.53-1.41,6.35-.29,2.26.57,5.07-.28,3.38-.84,4.51.57,1.84,2,4.09,1.69,2.82-1.13,4.51-.57,6.48,0,6.48,0-1.69-1.12-2-2.25,1.26,1,1.69-2.26a17.58,17.58,0,0,0-.28-7.47c-.56-1.69-.28-4.64-3.66-7s-4.51-3.25-4.51-3.25,3.66.28,4.22-2.26,1.69-2.53.85-3.94-1.13-.13-.85-2.82-.28-2.68-.28-3.81,1.69-4.51,1.69-4.51-8.3-.84-9.58.57-7.19,3.38-10.29,4.5-5.22,3-8.32,4.1-2.67,1.69-6.2,1.12-5.78-.84-6.91-1.4A34.85,34.85,0,0,0,376.33,244.77Z"/><path class="cls-1" d="M389.44,276.06l-3.1-2.82-5.79-.28s-6.19,9.15-6.48,11.83-1.4,8.74.57,12.27,4.22,7.19,3.94,8.88-1.69,5.5-1.41,7.19a3.64,3.64,0,0,0,5.08,2.54,21.81,21.81,0,0,1,10-1.41c3.94.28,10.85,0,10.85,0s1.13-1.56.85-2.69-1.13-2-.29-3.38,4.23-3.66,4.23-3.66,10.57-13.39,12-14.52,4.79-2.4,3.67-4.94-3.67-3.94-2.54-5.07a5.4,5.4,0,0,1,2.25-1.41l1.41-1.69h-4.79l-6.2.57-2.25.28-3.53-2.82s-3.94,1.69-5.35,1.41-2.11-1.69-3.95-1.41-4.94.85-4.94.85Z"/><path class="cls-1" d="M389.44,276.06l-3.1-2.82-5.79-.28s-6.19,9.15-6.48,11.83-1.4,8.74.57,12.27,4.22,7.19,3.94,8.88-1.69,5.5-1.41,7.19a3.64,3.64,0,0,0,5.08,2.54,21.81,21.81,0,0,1,10-1.41c3.94.28,10.85,0,10.85,0s1.13-1.56.85-2.69-1.13-2-.29-3.38,4.23-3.66,4.23-3.66,10.57-13.39,12-14.52,4.79-2.4,3.67-4.94-3.67-3.94-2.54-5.07a5.4,5.4,0,0,1,2.25-1.41l1.41-1.69h-4.79l-6.2.57-2.25.28-3.53-2.82s-3.94,1.69-5.35,1.41-2.11-1.69-3.95-1.41-4.94.85-4.94.85Z"/><path class="cls-1" d="M407.9,304.53,409,318.77l-2.26,6.48,4.23,18,13.67,4.51s1.69,2.82-.56,3.66-2.26,2.41-3.1,4.94-2.54,2-3.38,4.79.84,2.67.56,5.92,2,5.22-1.69,5.5-6.91.28-7.47,1.41-2,1.41,0,2.25,4.65,1.84,6.63,5.23,2.25,6.19,3.66,7.32,4.23,0,3.1,2.54-4.51,5.22-5.36,6.63-2.25,4.5-3.09,5.63-2.54,2-2.54.85.7-2.54-.43-2.26-2.82.57-3.1-.84.28-.29-.28-3.1-2.54-4.79-3.38-3.1,1.41,3.66-1.41,2.53-2,0-3.38-1.12-1.28-3.67-2.41-1.41a8.32,8.32,0,0,1-3.66,3.38s-2-1.13-2,1.69.85,3.66-.85,2.25-1.12-2.53-2.53-1.41-.13,2.54-2.26,3.39.7-.57-4.09,1.12-4.22,1.28-4.79,3.81-.28,5.36-1.41,2.82,1.28-3.25-2.53-4.09-4.1-3.81-5.22-.85-1.13,4.53-2.54,2.69,1.41-.71-2.53-2.69-3.8-5.07-6.2-4.5-.72,1.4-3,.28-1.13-2.82-4.23-1.13-4.22,1.69-5.35.85-3-2.26-4.94-2.26-.84,0-3.1.85-2.53,0-4.5-.85-1.56-1.13-2.69,0-.84.85-3.66-.28-3.95-2.25-5.64-1.13-3,0-4.37,1.41-2,0-3.1,1.13a2.74,2.74,0,0,1-2.67,1c-1.14,0-.43.56-.43,1.56s.43.71-1.13.57-1.28-.43-1.14,1.13.42.15-.85.71-1.28.32-.43,1.6,1.42.85-.57,1.7-2.56-.56-2.27,1.57,1.31,3.12-.29,3.83-1.59-.56-2.3.43-1.57,2.41-2.28.57.57-2.84-1.13-2.84-2.7-1.42-3.13.42.14,4.12-.85,2.28-1.56-4.41-2.7-4a12,12,0,0,1-2.31.57l-2.13-.43-2.7,2.42a5.75,5.75,0,0,0-2.55,1.27c-.72.86.46,1.85-2.7,2a9.52,9.52,0,0,1-5.48-1.11c-1.38-.59-1.66-1.16-2.09-.17s-1.28,3.56-2.13.29c-.71-1.85-1.64-2.7-4.23-2.56-1.45-.14-3.05-.14-3.76-1.85A9.51,9.51,0,0,0,257.5,411l1-2.5a13.78,13.78,0,0,0,2-4.05c1.6-.85,3.73-2.41,3.59-5.4a2.33,2.33,0,0,1,1.42-2.41c-.14-.29,2-1.71,2-1.71a5.46,5.46,0,0,1,4-5.15c-.57.29,1.1-2.27,2.84-2.55,0,.14,3.3.32,1.88-3.84s-8.7-21.25-8.7-21.25L240.16,344l3.34-20.68,8.2-1s6.68.43,6.82-1.13c-1.27-1.71-8.9-11.39-8.85-14,2-2.07,8.83-10.84,8.83-10.84l1.67-4.34,2.65.15s2,1,1.69-3c.16-.15,0-1.14,2.15-.72,2.27-.28,2.41-.28,2.84-1.28s-.14-2,1-2.16,1.35-.35,1.35-.35A13.23,13.23,0,0,1,274,283a2.58,2.58,0,0,0,1.06-1.12s.29-1.84,1.57-1.7,2,.71,2.13-.29-.4-1.89.58-1.73a19.75,19.75,0,0,1,3,1s1.14,2.13,2.56,2,4.58,0,5.14-.28a3.27,3.27,0,0,0,2.14-1.85,2.76,2.76,0,0,1,2.53-2.21,9.37,9.37,0,0,1,3,1.17s1.43,1,1.71-.38a3.77,3.77,0,0,0-.14-2.56,16,16,0,0,0-.85-2.13,1.79,1.79,0,0,1-.29-1.74c.43-.85,1.57-2,.85-4.4,0-.43-.85-3.41-.85-3.41s-.71-3.13-2.27-3.69-3.13-.89-2.84-2.6.2-3.09-1.32-3.1-1.5,1.16-1.5,1.16-.88.24-.31-2.32c0-.14-.32-2.09-1.53-2.68,0,0-2-2.5-2-2.5l.66-.22s3,.29,4.43,1.71c.29,0,3.27,1.59,2.7-2.42.57-2.13,2.21-6.07,2.21-6.07a7.12,7.12,0,0,0,2.77-5.89c-.29-3.7-.35-8.7-1.6-10.62s-2.13-5-5.67-5c.87-2.64,1.73-6.47,2.72-7.75s1.71-2.28,2.56-2c.42,0,1.84.28,2.13-1.28s1.25-3.47,1.76-3.65,1.11.67,1.11.67a4.44,4.44,0,0,1,2.42,2.41c.57,1.71,2,3.13,3.13,2.56s4-.29,4.68-1.14a4.56,4.56,0,0,1,4-1.84,8.6,8.6,0,0,1,3.69,2l5.11.57s4.87-.71,5.72.14,1,2.14,3.55.72a22.2,22.2,0,0,1,4-1.85s2.88-2.42,4.58-2.42,2.27,2.13,2.27,2.13l2.13,3.92,1.28,2.77s-2.78,0-1.28,2.57,2.56,2.78.85,5.13-4.48,2.35-3,6.83,2.35,4.06,4.06,4.27a10.87,10.87,0,0,1,6.2,3.21c2.13,2.14,9.4,7,9.4,7l4.7.85,6.7-.21s-1.46,2.63-2.89,3.46-4.27,1.55-4.87,4c-.36.72,0,1.71,0,2.64s-.71,3,.12,3.9,3.09,2.38,4,2.26a4.55,4.55,0,0,1,4.64,2.85c.95,2.62.83,4.05,1.42,5.36a24,24,0,0,0,3.17,4,1.24,1.24,0,0,0-2,.43c-.83,1.43-5.94,8.56-6.06,11.53s-1.54,7.77.72,11.86,3.32,6,3.32,6,1.07,1.55.12,4.4-1.66,6.66.95,8.08c.48.48,3.09,1,5.35-.47s6.95-.75,7.88-.79,10.85,0,10.85,0a4.45,4.45,0,0,0,.65-3.13c-.36-1.67-.36-3.33.95-4.17A36.81,36.81,0,0,0,407.9,304.53Z"/><path class="cls-1" d="M407.9,304.53,409,318.77l-2.26,6.48,4.23,18,13.67,4.51s1.69,2.82-.56,3.66-2.26,2.41-3.1,4.94-2.54,2-3.38,4.79.84,2.67.56,5.92,2,5.22-1.69,5.5-6.91.28-7.47,1.41-2,1.41,0,2.25,4.65,1.84,6.63,5.23,2.25,6.19,3.66,7.32,4.23,0,3.1,2.54-4.51,5.22-5.36,6.63-2.25,4.5-3.09,5.63-2.54,2-2.54.85.7-2.54-.43-2.26-2.82.57-3.1-.84.28-.29-.28-3.1-2.54-4.79-3.38-3.1,1.41,3.66-1.41,2.53-2,0-3.38-1.12-1.28-3.67-2.41-1.41a8.32,8.32,0,0,1-3.66,3.38s-2-1.13-2,1.69.85,3.66-.85,2.25-1.12-2.53-2.53-1.41-.13,2.54-2.26,3.39.7-.57-4.09,1.12-4.22,1.28-4.79,3.81-.28,5.36-1.41,2.82,1.28-3.25-2.53-4.09-4.1-3.81-5.22-.85-1.13,4.53-2.54,2.69,1.41-.71-2.53-2.69-3.8-5.07-6.2-4.5-.72,1.4-3,.28-1.13-2.82-4.23-1.13-4.22,1.69-5.35.85-3-2.26-4.94-2.26-.84,0-3.1.85-2.53,0-4.5-.85-1.56-1.13-2.69,0-.84.85-3.66-.28-3.95-2.25-5.64-1.13-3,0-4.37,1.41-2,0-3.1,1.13a2.74,2.74,0,0,1-2.67,1c-1.14,0-.43.56-.43,1.56s.43.71-1.13.57-1.28-.43-1.14,1.13.42.15-.85.71-1.28.32-.43,1.6,1.42.85-.57,1.7-2.56-.56-2.27,1.57,1.31,3.12-.29,3.83-1.59-.56-2.3.43-1.57,2.41-2.28.57.57-2.84-1.13-2.84-2.7-1.42-3.13.42.14,4.12-.85,2.28-1.56-4.41-2.7-4a12,12,0,0,1-2.31.57l-2.13-.43-2.7,2.42a5.75,5.75,0,0,0-2.55,1.27c-.72.86.46,1.85-2.7,2a9.52,9.52,0,0,1-5.48-1.11c-1.38-.59-1.66-1.16-2.09-.17s-1.28,3.56-2.13.29c-.71-1.85-1.64-2.7-4.23-2.56-1.45-.14-3.05-.14-3.76-1.85A9.51,9.51,0,0,0,257.5,411l1-2.5a13.78,13.78,0,0,0,2-4.05c1.6-.85,3.73-2.41,3.59-5.4a2.33,2.33,0,0,1,1.42-2.41c-.14-.29,2-1.71,2-1.71a5.46,5.46,0,0,1,4-5.15c-.57.29,1.1-2.27,2.84-2.55,0,.14,3.3.32,1.88-3.84s-8.7-21.25-8.7-21.25L240.16,344l3.34-20.68,8.2-1s6.68.43,6.82-1.13c-1.27-1.71-8.9-11.39-8.85-14,2-2.07,8.83-10.84,8.83-10.84l1.67-4.34,2.65.15s2,1,1.69-3c.16-.15,0-1.14,2.15-.72,2.27-.28,2.41-.28,2.84-1.28s-.14-2,1-2.16,1.35-.35,1.35-.35A13.23,13.23,0,0,1,274,283a2.58,2.58,0,0,0,1.06-1.12s.29-1.84,1.57-1.7,2,.71,2.13-.29-.4-1.89.58-1.73a19.75,19.75,0,0,1,3,1s1.14,2.13,2.56,2,4.58,0,5.14-.28a3.27,3.27,0,0,0,2.14-1.85,2.76,2.76,0,0,1,2.53-2.21,9.37,9.37,0,0,1,3,1.17s1.43,1,1.71-.38a3.77,3.77,0,0,0-.14-2.56,16,16,0,0,0-.85-2.13,1.79,1.79,0,0,1-.29-1.74c.43-.85,1.57-2,.85-4.4,0-.43-.85-3.41-.85-3.41s-.71-3.13-2.27-3.69-3.13-.89-2.84-2.6.2-3.09-1.32-3.1-1.5,1.16-1.5,1.16-.88.24-.31-2.32c0-.14-.32-2.09-1.53-2.68,0,0-2-2.5-2-2.5l.66-.22s3,.29,4.43,1.71c.29,0,3.27,1.59,2.7-2.42.57-2.13,2.21-6.07,2.21-6.07a7.12,7.12,0,0,0,2.77-5.89c-.29-3.7-.35-8.7-1.6-10.62s-2.13-5-5.67-5c.87-2.64,1.73-6.47,2.72-7.75s1.71-2.28,2.56-2c.42,0,1.84.28,2.13-1.28s1.25-3.47,1.76-3.65,1.11.67,1.11.67a4.44,4.44,0,0,1,2.42,2.41c.57,1.71,2,3.13,3.13,2.56s4-.29,4.68-1.14a4.56,4.56,0,0,1,4-1.84,8.6,8.6,0,0,1,3.69,2l5.11.57s4.87-.71,5.72.14,1,2.14,3.55.72a22.2,22.2,0,0,1,4-1.85s2.88-2.42,4.58-2.42,2.27,2.13,2.27,2.13l2.13,3.92,1.28,2.77s-2.78,0-1.28,2.57,2.56,2.78.85,5.13-4.48,2.35-3,6.83,2.35,4.06,4.06,4.27a10.87,10.87,0,0,1,6.2,3.21c2.13,2.14,9.4,7,9.4,7l4.7.85,6.7-.21s-1.46,2.63-2.89,3.46-4.27,1.55-4.87,4c-.36.72,0,1.71,0,2.64s-.71,3,.12,3.9,3.09,2.38,4,2.26a4.55,4.55,0,0,1,4.64,2.85c.95,2.62.83,4.05,1.42,5.36a24,24,0,0,0,3.17,4,1.24,1.24,0,0,0-2,.43c-.83,1.43-5.94,8.56-6.06,11.53s-1.54,7.77.72,11.86,3.32,6,3.32,6,1.07,1.55.12,4.4-1.66,6.66.95,8.08c.48.48,3.09,1,5.35-.47s6.95-.75,7.88-.79,10.85,0,10.85,0a4.45,4.45,0,0,0,.65-3.13c-.36-1.67-.36-3.33.95-4.17A36.81,36.81,0,0,0,407.9,304.53Z"/><path class="cls-1" d="M355.88,510.75s2.27.9,3-.72.73-2.9,3.62-3.08,3.53.72,5.62.72,5,.36,5.34-.36-.9-1.27.91-.9,3.44,2.53,3.8,1.26.18-7,1.08-9.15,2.72-3.34,2.54-7.24-1.27-7.6,0-11.32,6.25-8.42,6.79-12.58.37-6.43,3.44-8.06,8.25-2.54,11.32-2.72,8.61-1.45,9.33-2.71a11.79,11.79,0,0,0,1.81-7.16c-.18-3.8-.18-12.77.54-15.66s.73-10.24.73-10.24l-.18-1.08s-.55,3.53-1.63,4.26a6.68,6.68,0,0,1-3,1.44c-1.62.37-3.8-2-3.8.19s-.18,6-1.26,6.69a5.23,5.23,0,0,1-2.9.55,11.6,11.6,0,0,0-3.44-3.26c-1.81-.91-1.91-2-3.72-2.9s-3.25-2.17-4.34-2.17-2,0-2.35-.91-2.18-2.89-2.54-1.44.73,2.53-.9,2.35a6.28,6.28,0,0,0-2.63.18c-1.45.18-3.62.36-3.81-1.09s-1.62-4.8-4-5.52S372,419.2,371.82,417a11.32,11.32,0,0,1,.18-3.8c.19-1.09,1.27-3.26,1.81-2s.19,1.81,1.09,1.81a4,4,0,0,0,1.63-.36,2.69,2.69,0,0,1-1.45-2.9c-.18-.18.9-.69-2.13-1.66a29.26,29.26,0,0,1-3.58-1.88s-1.3-.93-1.64,1c-.17.24-1.07,2.87-1.07,2.87s-2,1.73-1.81-1.45l-4.35-2.63L358,403.36s-.1-1.45-2.09-.18c-2.17.18-2.17.36-3.44-.73s-.54-1.63-2.35-.72-2.72,2.17-4,1.81a16.73,16.73,0,0,1-3.72-1.63c-1.27-.72-1.22-1.87-3.42-1.39s-2,1-4,1a7.42,7.42,0,0,1-3.6-1l-1.47-.42-1.55,1.09a34.32,34.32,0,0,1-3.33-.95c-1.37-.5-3.91-1.59-5-1.23s-3.52.18-4.35.91-1.36,1.27-1.36,1.27-1.75-.53-2.41.46-3.38,1-3.38,1l.54,2.54L306.9,405l-.18,1.63-1.81.72,1.26,2.09-3.43.72.36,3.44s.07,1.78-3.09,1.8c-.09-.17-1.72,1.82-1.72,1.82s-1.26-1.27-1.08-2.17c.18,0-.79-1.56-.79-1.56l-1.75-.43s-1.49-.1-1.38.85a13.77,13.77,0,0,1-.25,3,9.91,9.91,0,0,1-1.81-2.35c-.18-.73-.45-2.79-1.49-2.3a12.22,12.22,0,0,1-3.13.67l-1.31-.53-2.25,3s1.16,1.72,3.09,4,3.35,4.24,4,6.51-.78,5.66,2.49,6.85a17.51,17.51,0,0,0,4.9,1.74s1.71,1.27,3.8-1.62c3.36-1.45,3.18-.37,5.71.54s6,3.35,4.71,4.62-4.17,1.81-6,2.72-5.06,2.81-5.66,4.12,0,1-2.22,2.94-4.89,1.9-6.15,7-4,9.07.24,11.82a33.43,33.43,0,0,0,4.46,2.94s2.36.18,3.26-.91a5,5,0,0,1,5.17-1.08c2,.72,7.24,2.35,8.5,2.35a28.1,28.1,0,0,1,6.62,2,114.54,114.54,0,0,1,13.67,7.88c4.71,3.44,13.66,15.43,13.66,15.43l6.17,7.66,2.25,2.89.62,3.43Z"/><path class="cls-1" d="M355.88,510.75s2.27.9,3-.72.73-2.9,3.62-3.08,3.53.72,5.62.72,5,.36,5.34-.36-.9-1.27.91-.9,3.44,2.53,3.8,1.26.18-7,1.08-9.15,2.72-3.34,2.54-7.24-1.27-7.6,0-11.32,6.25-8.42,6.79-12.58.37-6.43,3.44-8.06,8.25-2.54,11.32-2.72,8.61-1.45,9.33-2.71a11.79,11.79,0,0,0,1.81-7.16c-.18-3.8-.18-12.77.54-15.66s.73-10.24.73-10.24l-.18-1.08s-.55,3.53-1.63,4.26a6.68,6.68,0,0,1-3,1.44c-1.62.37-3.8-2-3.8.19s-.18,6-1.26,6.69a5.23,5.23,0,0,1-2.9.55,11.6,11.6,0,0,0-3.44-3.26c-1.81-.91-1.91-2-3.72-2.9s-3.25-2.17-4.34-2.17-2,0-2.35-.91-2.18-2.89-2.54-1.44.73,2.53-.9,2.35a6.28,6.28,0,0,0-2.63.18c-1.45.18-3.62.36-3.81-1.09s-1.62-4.8-4-5.52S372,419.2,371.82,417a11.32,11.32,0,0,1,.18-3.8c.19-1.09,1.27-3.26,1.81-2s.19,1.81,1.09,1.81a4,4,0,0,0,1.63-.36,2.69,2.69,0,0,1-1.45-2.9c-.18-.18.9-.69-2.13-1.66a29.26,29.26,0,0,1-3.58-1.88s-1.3-.93-1.64,1c-.17.24-1.07,2.87-1.07,2.87s-2,1.73-1.81-1.45l-4.35-2.63L358,403.36s-.1-1.45-2.09-.18c-2.17.18-2.17.36-3.44-.73s-.54-1.63-2.35-.72-2.72,2.17-4,1.81a16.73,16.73,0,0,1-3.72-1.63c-1.27-.72-1.22-1.87-3.42-1.39s-2,1-4,1a7.42,7.42,0,0,1-3.6-1l-1.47-.42-1.55,1.09a34.32,34.32,0,0,1-3.33-.95c-1.37-.5-3.91-1.59-5-1.23s-3.52.18-4.35.91-1.36,1.27-1.36,1.27-1.75-.53-2.41.46-3.38,1-3.38,1l.54,2.54L306.9,405l-.18,1.63-1.81.72,1.26,2.09-3.43.72.36,3.44s.07,1.78-3.09,1.8c-.09-.17-1.72,1.82-1.72,1.82s-1.26-1.27-1.08-2.17c.18,0-.79-1.56-.79-1.56l-1.75-.43s-1.49-.1-1.38.85a13.77,13.77,0,0,1-.25,3,9.91,9.91,0,0,1-1.81-2.35c-.18-.73-.45-2.79-1.49-2.3a12.22,12.22,0,0,1-3.13.67l-1.31-.53-2.25,3s1.16,1.72,3.09,4,3.35,4.24,4,6.51-.78,5.66,2.49,6.85a17.51,17.51,0,0,0,4.9,1.74s1.71,1.27,3.8-1.62c3.36-1.45,3.18-.37,5.71.54s6,3.35,4.71,4.62-4.17,1.81-6,2.72-5.06,2.81-5.66,4.12,0,1-2.22,2.94-4.89,1.9-6.15,7-4,9.07.24,11.82a33.43,33.43,0,0,0,4.46,2.94s2.36.18,3.26-.91a5,5,0,0,1,5.17-1.08c2,.72,7.24,2.35,8.5,2.35a28.1,28.1,0,0,1,6.62,2,114.54,114.54,0,0,1,13.67,7.88c4.71,3.44,13.66,15.43,13.66,15.43l6.17,7.66,2.25,2.89.62,3.43Z"/></svg>