<svg id="Layer_1" data-name="Layer 1" xmlns="http://www.w3.org/2000/svg" viewBox="0 0 512 512"><defs><style>.cls-1{fill:#e6e7e8;}.cls-1,.cls-2{stroke:#fff;stroke-linejoin:round;fill-rule:evenodd;}.cls-2{fill:#a7a9ac;}</style></defs><path class="cls-1" d="M211.73,256.89c-2.13-3.84.43-8.54.43-8.54l-1.28-9.16s.85-4.69,2.56-10.67,0-4.7-.85-11.29-.86-4.7.42-8.54-3.84,0-3.84,0-.85.85-6,1.7-4.27,3.85-4.27,3.85l-6.17-.43-3.41,3.84-9,1.29s-5.12-1.29-7.87-3.85-3.85.43-6-5.12a7.87,7.87,0,0,0-7.69-5.13s-4.7-.85-7.69-1.71-6.16,0-8.73.86-2.13,1.28-4.27,2.13-6,.43-6,.43l-4.28-5.12-3.17-.86-5.55-12.14-2.88-3.13s-2.68-.29-4-.29c-5.12.43-5.12-4.27-5.12-4.27l-3.84-4.27s-2.75,0-2.74-.07c-4.87.79-3-4.49-3-4.49l-3.45-4.17-2.48-8.6s-7.34-8.48-8.43-10-4-9.31-4-9.31L76.51,133l.43-5.12-2.69-1.92,1.36-3.35,2.9-2.28s3.74-5.88,4.17-5.88c8.73-1.71,6.63-15.61,6.63-15.61L92.47,93l4.21-6.84-.33-2.27s2.13-4.27,1.91-4.05c2.77-7-1.91-8.09-1.58-9.89-4.36-4.79.09-8.88,1.06-8.95,4-3.06-.11-5.91-.11-5.91s-4.07-6.68-4.66-5c1.62-6.16-1.32-15.24-1.32-15.24l8.54-6.4.7-1.22c-.23,1.66,0,2.84,1.17,1.64,2.24-2.23,5.8-5.28,6.31-7.83s2.54-5.59,2.54-8.13-1-3.36.51-6.61A16.21,16.21,0,0,1,115.49,1s6.61.2,7.12,2.74-.51,2.55-.51,4.58S126.17,17,126.17,17a15.62,15.62,0,0,0,2.74,5.59c2,2.54,4.07,5.79,4.07,5.79L140.1,35S147,38.52,149.76,38,153,36,153,36s-2.54-5.08,0-4.07a32.72,32.72,0,0,0,5.09,1.53l4.57-2.54s4.07-3.06,6.11-.51a9.71,9.71,0,0,0,5.59,3L178.64,35l3.56,1,1.52,3.56a7,7,0,0,1,3.56-1c2,0,1,4.07,1,4.07s-2,4.58,0,6.62a4.54,4.54,0,0,0,4.07,1.52s6.1-5.59,5.09-2.54a36.54,36.54,0,0,1-4.07,7.32A4.81,4.81,0,0,0,197,58.56c2.74.51,4.77,1,6.81,0s5.08,1,5.08,1a17,17,0,0,0,3.06,1c2,.51,2.54,2.55,5.08,1.53s6.81-1.53,8.85,0,1.52,5.08,1.52,5.08,1,3.56-1,3.56-7.32-.5-7.32-.5l-2.55-2.55-5.59,4.58-.51,5.29s-3.56,1.52-3.56,3.56-2,6.1-2,6.1l-3.06,1.52s2.55,4.07,5.6,3.56a53.4,53.4,0,0,1,7.12-.5L216,95.38l3.06-.51,1-3.56,5.29.51,4.58-1.53s4.06-1,3,1-1.53,2-1.53,4.07a30.66,30.66,0,0,1-1,5.79l-7.12.51,4.58,6.61h4.58l3.56-.51,3.05-1.53s3.56,4.58,3.56,6.62-1,6.61-3.05,7.63A23.46,23.46,0,0,1,234,122s-1,2.23,2,2.74,5.08,1,5.08,1l4.58,5.59L244.14,138s-.51,6.1-2.55,6.1,2,2.54,2,2.54l3.05-3h5.79s3.56,6,6.1,4.78,3.06,6.61,3.06,6.61l1,7.63s1.22,5.08,8.34,4.57c3.56-1,2.54,3.06,2.54,3.06L270.78,177l4.27-3,2-3.26,1-3,2.54,1.53s-1.52,4.27.51,5.28,3.56,4.58,1.53,6.62a21,21,0,0,0-3.56,5.59l-1.53,6.61,2.54.51,3.06-5.09a10.16,10.16,0,0,1,1-4.06,32.48,32.48,0,0,1,3.05-4.58V177l1.53-4.58a4.09,4.09,0,0,0,4.07,2.54c3.25,0,3.76,0,6.3,2s2,5.59,3.56,3.56,1.53-2,.51-4.58-2.54-5.29-2-7.32,2-8.14,3.56-5.59,3.05,2.54,4.57.5,0-6.1,2-6.1,3.56,2,5.08,0a5.08,5.08,0,0,0,.51-4.58s-1.22-6.5,1.53-5.28,7.32,1.22,7.32,1.22,3.56,1,2,3c-1.28,1.7-1.84,4.47-.5,4.73-1.59,2.93-3,6-2.77,7.67.42,3.85-.43,4.28-7.88,7.69s-10.25,7.45-10.25,7.45-4.27,3-5.12,5.55-.85,2.14-5.55,5.13S293,200.57,293,200.57l-2.56,8.54s0,5.13,2.56,8.54.85,5.32-1.71,8.73a35.83,35.83,0,0,1-5.12,5.55,49.74,49.74,0,0,1-6.41,3c-3.42,1.29-2.56-2.56-7.26-5.55s-2.32.86-4.89,3.85a13.42,13.42,0,0,0-3,6.4,72.83,72.83,0,0,1-3.42,7.45c-2.14,4-3,.85-7.69.43s-3,0-5.55,3-4.46.42-4.46.42a48.3,48.3,0,0,0-8.11,0c-3,.43-1.71-2.13-5.13-3s-5.55,1.28-8.3,6-4.7,3-8.11,4.27a3.88,3.88,0,0,0-1.38.78c0,.39-.11.53-.19.5s-.09-.23.19-.5A5.14,5.14,0,0,0,211.73,256.89Z"/><path class="cls-1" d="M211.73,256.89c-2.13-3.84.43-8.54.43-8.54l-1.28-9.16s.85-4.69,2.56-10.67,0-4.7-.85-11.29-.86-4.7.42-8.54-3.84,0-3.84,0-.85.85-6,1.7-4.27,3.85-4.27,3.85l-6.17-.43-3.41,3.84-9,1.29s-5.12-1.29-7.87-3.85-3.85.43-6-5.12a7.87,7.87,0,0,0-7.69-5.13s-4.7-.85-7.69-1.71-6.16,0-8.73.86-2.13,1.28-4.27,2.13-6,.43-6,.43l-4.28-5.12-3.17-.86-5.55-12.14-2.88-3.13s-2.68-.29-4-.29c-5.12.43-5.12-4.27-5.12-4.27l-3.84-4.27s-2.75,0-2.74-.07c-4.87.79-3-4.49-3-4.49l-3.45-4.17-2.48-8.6s-7.34-8.48-8.43-10-4-9.31-4-9.31L76.51,133l.43-5.12-2.69-1.92,1.36-3.35,2.9-2.28s3.74-5.88,4.17-5.88c8.73-1.71,6.63-15.61,6.63-15.61L92.47,93l4.21-6.84-.33-2.27s2.13-4.27,1.91-4.05c2.77-7-1.91-8.09-1.58-9.89-4.36-4.79.09-8.88,1.06-8.95,4-3.06-.11-5.91-.11-5.91s-4.07-6.68-4.66-5c1.62-6.16-1.32-15.24-1.32-15.24l8.54-6.4.7-1.22c-.23,1.66,0,2.84,1.17,1.64,2.24-2.23,5.8-5.28,6.31-7.83s2.54-5.59,2.54-8.13-1-3.36.51-6.61A16.21,16.21,0,0,1,115.49,1s6.61.2,7.12,2.74-.51,2.55-.51,4.58S126.17,17,126.17,17a15.62,15.62,0,0,0,2.74,5.59c2,2.54,4.07,5.79,4.07,5.79L140.1,35S147,38.52,149.76,38,153,36,153,36s-2.54-5.08,0-4.07a32.72,32.72,0,0,0,5.09,1.53l4.57-2.54s4.07-3.06,6.11-.51a9.71,9.71,0,0,0,5.59,3L178.64,35l3.56,1,1.52,3.56a7,7,0,0,1,3.56-1c2,0,1,4.07,1,4.07s-2,4.58,0,6.62a4.54,4.54,0,0,0,4.07,1.52s6.1-5.59,5.09-2.54a36.54,36.54,0,0,1-4.07,7.32A4.81,4.81,0,0,0,197,58.56c2.74.51,4.77,1,6.81,0s5.08,1,5.08,1a17,17,0,0,0,3.06,1c2,.51,2.54,2.55,5.08,1.53s6.81-1.53,8.85,0,1.52,5.08,1.52,5.08,1,3.56-1,3.56-7.32-.5-7.32-.5l-2.55-2.55-5.59,4.58-.51,5.29s-3.56,1.52-3.56,3.56-2,6.1-2,6.1l-3.06,1.52s2.55,4.07,5.6,3.56a53.4,53.4,0,0,1,7.12-.5L216,95.38l3.06-.51,1-3.56,5.29.51,4.58-1.53s4.06-1,3,1-1.53,2-1.53,4.07a30.66,30.66,0,0,1-1,5.79l-7.12.51,4.58,6.61h4.58l3.56-.51,3.05-1.53s3.56,4.58,3.56,6.62-1,6.61-3.05,7.63A23.46,23.46,0,0,1,234,122s-1,2.23,2,2.74,5.08,1,5.08,1l4.58,5.59L244.14,138s-.51,6.1-2.55,6.1,2,2.54,2,2.54l3.05-3h5.79s3.56,6,6.1,4.78,3.06,6.61,3.06,6.61l1,7.63s1.22,5.08,8.34,4.57c3.56-1,2.54,3.06,2.54,3.06L270.78,177l4.27-3,2-3.26,1-3,2.54,1.53s-1.52,4.27.51,5.28,3.56,4.58,1.53,6.62a21,21,0,0,0-3.56,5.59l-1.53,6.61,2.54.51,3.06-5.09a10.16,10.16,0,0,1,1-4.06,32.48,32.48,0,0,1,3.05-4.58V177l1.53-4.58a4.09,4.09,0,0,0,4.07,2.54c3.25,0,3.76,0,6.3,2s2,5.59,3.56,3.56,1.53-2,.51-4.58-2.54-5.29-2-7.32,2-8.14,3.56-5.59,3.05,2.54,4.57.5,0-6.1,2-6.1,3.56,2,5.08,0a5.08,5.08,0,0,0,.51-4.58s-1.22-6.5,1.53-5.28,7.32,1.22,7.32,1.22,3.56,1,2,3c-1.28,1.7-1.84,4.47-.5,4.73-1.59,2.93-3,6-2.77,7.67.42,3.85-.43,4.28-7.88,7.69s-10.25,7.45-10.25,7.45-4.27,3-5.12,5.55-.85,2.14-5.55,5.13S293,200.57,293,200.57l-2.56,8.54s0,5.13,2.56,8.54.85,5.32-1.71,8.73a35.83,35.83,0,0,1-5.12,5.55,49.74,49.74,0,0,1-6.41,3c-3.42,1.29-2.56-2.56-7.26-5.55s-2.32.86-4.89,3.85a13.42,13.42,0,0,0-3,6.4,72.83,72.83,0,0,1-3.42,7.45c-2.14,4-3,.85-7.69.43s-3,0-5.55,3-4.46.42-4.46.42a48.3,48.3,0,0,0-8.11,0c-3,.43-1.71-2.13-5.13-3s-5.55,1.28-8.3,6-4.7,3-8.11,4.27a3.88,3.88,0,0,0-1.38.78c0,.39-.11.53-.19.5s-.09-.23.19-.5A5.14,5.14,0,0,0,211.73,256.89Z"/><path class="cls-1" d="M132.17,206.55c1.28,0-.67,3.42-5.13,6s-6.17,4.88-7.45,7.87-1.28,5.56-3.84,6.84-9.64,3.41-12,4.69a42.93,42.93,0,0,1-6.59,2.57,3.47,3.47,0,0,0-4.33,1.05c-2.08,2.36-3.78,3.88-.8,6.63a73.06,73.06,0,0,1,6.73,7.67s.77,9.18,3.1,10.46,1.85,5.11,3.15,8c6-.73,14.54-5.86,16.25-7.14-.43,1.28,9-2.58,14.86,9.27-1.43-.11,3.27,5.44,2,9.28-.42,0,.67,7.86.67,7.86s.45,5.25,4.59,6.47,3.71,3.37,4.14,5.5c3,1.71,6.59,2.14,6.17,5.13s-.43,9.39,3.41,10.25c2.56.43,7.69,1.47,7.69,5.74-.43,2.56-2.14,9.82,3.84,8.54,5.55-1.71,13.43-6.41,13.43-6.41s3.41-4.69,6.83-3.41c-1.71,0,.43-4,.43-7.45s.85-7.69.85-11.1,0-5.8-.42-7.26-.43-7.45,0-10-1.29-.43.85-5.56,1.71-4.27.43-6.4-4.27-4.46-1.28-4.89,7,2.14,10.43.86,3-2.14,6.84-1.71,4.27,1.28,5.55-.85,1.28-6.84,1.28-6.84-3.42-3.84-3-5.55,1.28-4.27,1.28-4.27a76.83,76.83,0,0,1-1.28-9.16c0-2.56,1.71-6.83,2.13-8.54s.86-7.68.86-7.68-.86-3.61-1.28-5.74-.86-6-.86-6l1.28-2.56s.43-3-2.13-.86-.86.86-4.27,1.71-5.79.43-6.84,2.14-.85,2.56-.85,2.56l-6.17-.43-3.41,3.84s-9.64,3.85-14.09-.85c.42,0-7-3-7-3s-.24-9-11.11-9.39c-.43.42-10-5.13-14.71-.43C142,204.84,136,207,132.17,206.55Z"/><path class="cls-1" d="M132.17,206.55c1.28,0-.67,3.42-5.13,6s-6.17,4.88-7.45,7.87-1.28,5.56-3.84,6.84-9.64,3.41-12,4.69a42.93,42.93,0,0,1-6.59,2.57,3.47,3.47,0,0,0-4.33,1.05c-2.08,2.36-3.78,3.88-.8,6.63a73.06,73.06,0,0,1,6.73,7.67s.77,9.18,3.1,10.46,1.85,5.11,3.15,8c6-.73,14.54-5.86,16.25-7.14-.43,1.28,9-2.58,14.86,9.27-1.43-.11,3.27,5.44,2,9.28-.42,0,.67,7.86.67,7.86s.45,5.25,4.59,6.47,3.71,3.37,4.14,5.5c3,1.71,6.59,2.14,6.17,5.13s-.43,9.39,3.41,10.25c2.56.43,7.69,1.47,7.69,5.74-.43,2.56-2.14,9.82,3.84,8.54,5.55-1.71,13.43-6.41,13.43-6.41s3.41-4.69,6.83-3.41c-1.71,0,.43-4,.43-7.45s.85-7.69.85-11.1,0-5.8-.42-7.26-.43-7.45,0-10-1.29-.43.85-5.56,1.71-4.27.43-6.4-4.27-4.46-1.28-4.89,7,2.14,10.43.86,3-2.14,6.84-1.71,4.27,1.28,5.55-.85,1.28-6.84,1.28-6.84-3.42-3.84-3-5.55,1.28-4.27,1.28-4.27a76.83,76.83,0,0,1-1.28-9.16c0-2.56,1.71-6.83,2.13-8.54s.86-7.68.86-7.68-.86-3.61-1.28-5.74-.86-6-.86-6l1.28-2.56s.43-3-2.13-.86-.86.86-4.27,1.71-5.79.43-6.84,2.14-.85,2.56-.85,2.56l-6.17-.43-3.41,3.84s-9.64,3.85-14.09-.85c.42,0-7-3-7-3s-.24-9-11.11-9.39c-.43.42-10-5.13-14.71-.43C142,204.84,136,207,132.17,206.55Z"/><path class="cls-1" d="M188.91,319.38c-.43,0,1.73.94,1.73.94s.83,1.62,3.4-.09.66-2,3.84-3,4-2.75,4-2.75a2.09,2.09,0,0,1,2.14-2.13c2.13,0,2.56-.43,3.41-2.14s-2.13-3,2.14-2.56,4.27,1.71,6.4-1.28.24-6,4.27-5.13,4,2.57,6.6.43,2.56-2.56,3.41-4.7a18.47,18.47,0,0,1,3-4.46l.43-4.69s-.43-5.13-3.84-8.12-5.13-1.95-5.13-6.83.67-4-3.6-6.59a19.73,19.73,0,0,1-6-5.13l-1.28-3s1.28,10.68-6.83,7.69c.42,0-4.28.43-4.28.43s-3.17,2.56-8.72.42c.42.43-4.7-1.09-5.13.62,0-.19,3.42,6.83,3.42,6.83s-2.56,3.84-2.56,7.69-.43,12.14,0,15.56a87.54,87.54,0,0,1,.42,9.82C190.19,309.37,187.63,316,188.91,319.38Z"/><path class="cls-1" d="M188.91,319.38c-.43,0,1.73.94,1.73.94s.83,1.62,3.4-.09.66-2,3.84-3,4-2.75,4-2.75a2.09,2.09,0,0,1,2.14-2.13c2.13,0,2.56-.43,3.41-2.14s-2.13-3,2.14-2.56,4.27,1.71,6.4-1.28.24-6,4.27-5.13,4,2.57,6.6.43,2.56-2.56,3.41-4.7a18.47,18.47,0,0,1,3-4.46l.43-4.69s-.43-5.13-3.84-8.12-5.13-1.95-5.13-6.83.67-4-3.6-6.59a19.73,19.73,0,0,1-6-5.13l-1.28-3s1.28,10.68-6.83,7.69c.42,0-4.28.43-4.28.43s-3.17,2.56-8.72.42c.42.43-4.7-1.09-5.13.62,0-.19,3.42,6.83,3.42,6.83s-2.56,3.84-2.56,7.69-.43,12.14,0,15.56a87.54,87.54,0,0,1,.42,9.82C190.19,309.37,187.63,316,188.91,319.38Z"/><path class="cls-1" d="M226.87,301.68c0,.43-.86,5.12-.86,7.26s1.9,4.27-.85,5.12-3.61-.61-4.89,2.14a15.35,15.35,0,0,0-1.28,5.74l-2.56,5.55s-1.28,3.84-2.13,6.41-1.29,5.12.42,5.55-.43,3.17,2.56,2.75,3.23-1.71,5.56-.43S226,346.9,226,346.9l2.56,3.84s-3.84,7.26-2.56,9,3,2,2.56,4.27-3.41-.24-1.28,4.88,4.27,5.13,4.27,7.69-1.7,2.56-3.41,4.27-2.38,2.56-3.85,4.27a2.65,2.65,0,0,1-3.17.85L214,375s-7.23-21.74-14.25-27.72c1.29,0-4.3-18.74-8.65-21.2.35.09-.48-5.8-.48-5.8a2.38,2.38,0,0,0,3.4-.09c1.7-1.71,1.94-1.52,3.84-3a46.12,46.12,0,0,1,4-2.75c0-1.71,6.41-2.13,4.7-6.4,0,.42,8.54,1.7,9.82-4.7.43-.43,1.95-3.85,6-1.28C223.45,303,224.3,303.39,226.87,301.68Z"/><path class="cls-1" d="M226.87,301.68c0,.43-.86,5.12-.86,7.26s1.9,4.27-.85,5.12-3.61-.61-4.89,2.14a15.35,15.35,0,0,0-1.28,5.74l-2.56,5.55s-1.28,3.84-2.13,6.41-1.29,5.12.42,5.55-.43,3.17,2.56,2.75,3.23-1.71,5.56-.43S226,346.9,226,346.9l2.56,3.84s-3.84,7.26-2.56,9,3,2,2.56,4.27-3.41-.24-1.28,4.88,4.27,5.13,4.27,7.69-1.7,2.56-3.41,4.27-2.38,2.56-3.85,4.27a2.65,2.65,0,0,1-3.17.85L214,375s-7.23-21.74-14.25-27.72c1.29,0-4.3-18.74-8.65-21.2.35.09-.48-5.8-.48-5.8a2.38,2.38,0,0,0,3.4-.09c1.7-1.71,1.94-1.52,3.84-3a46.12,46.12,0,0,1,4-2.75c0-1.71,6.41-2.13,4.7-6.4,0,.42,8.54,1.7,9.82-4.7.43-.43,1.95-3.85,6-1.28C223.45,303,224.3,303.39,226.87,301.68Z"/><path class="cls-1" d="M261.65,245.36s3.84,3.84.42,5.55-4.27.43-3.41,3.42,5.12,2.13,3.84,4.27-3.42,0-2.56,3a22.61,22.61,0,0,1,.85,5.55s.43.61-.85,4-2.56,1.71-4.27,6.41-2.57,3.84-1.71,6.83.85,4.08,3.42,6.41,3.84,2.32,3,5.31-3,3.84,0,4.7,1.71.85,3.42,2.56,2.14.85,3.42,3,4-.43,4-.43a4.39,4.39,0,0,1,4.7,1.71,26.57,26.57,0,0,0,3,3.84s.42,3,3,3.42a7,7,0,0,1,5.56,4c.85,2.13.85,4.27,3.41,6.83s2.33.43,4.46,4.27,3.84,6.41,3.84,6.41,4.27,2.37,3.85,4.27a74.32,74.32,0,0,1-3.42,8.73c-1.28,3,0,5.12-2.13,7.68s-4.22.67-2.75,4.7,3.17,3.61,3.17,6.6-.66,3.84-1.71,6.83-.18.85-2.32,5.55-5.55,4-4.27,8.73-4.27,2.56-4.7,5.12,1.29,6,1.29,6-6,4.51-3,10.25,4.27,7.45,3.84,10,1.71,7.69,1.71,7.69l-8.58,1.29s-.5-4.7-3.43-2.35c-1.66,1.48-8.68,3.43-13.38,9.6,1.29,1-2.56,6.4-5.55-1.71-.85-.43-4.06-4-7.46-1.17-.22-.11-1.61,2.8-10-1-1.11-.38-12.64-34.73-12.64-34.73l-6.59-12.58,3.17-.85s2.14-3.42,3.85-4.27,3.41-4.27,3.41-4.27l-.42-1.71A8.38,8.38,0,0,0,229,371c-1.71-1.71-2.56-5.55-2.56-5.55a5.3,5.3,0,0,0-.43-5.74,38,38,0,0,1,2.56-9c0-.86-3-5.55-3-5.55l-2.75-3.42a46.15,46.15,0,0,1-5.56.43c-2.56,0-2.56-2.75-2.56-2.75l-1.28-3,1.71-6,3.42-5.55.42-3s-.61-7.45,3.42-7.88c1,.43,5.74.43,3.6-5.12,1.71,2.13.86-7.26.86-7.26l3.41-4.7,3-4.46s1.47-10.25-6.4-14.52c.42-.42-3.42.19-2.14-9,0,.42-8.3-4-10.86-10.87,0-.42,5.79-.42,8.11-4.27s4.89-9.39,11.72-3.84c.43-.43,9.82.85,9.82.85s3.18,1,5.31-3.41c.43,0,1.29-2.14,4.7,0,1.71.42,6,4,7.68-.43Z"/><path class="cls-1" d="M261.65,245.36s3.84,3.84.42,5.55-4.27.43-3.41,3.42,5.12,2.13,3.84,4.27-3.42,0-2.56,3a22.61,22.61,0,0,1,.85,5.55s.43.61-.85,4-2.56,1.71-4.27,6.41-2.57,3.84-1.71,6.83.85,4.08,3.42,6.41,3.84,2.32,3,5.31-3,3.84,0,4.7,1.71.85,3.42,2.56,2.14.85,3.42,3,4-.43,4-.43a4.39,4.39,0,0,1,4.7,1.71,26.57,26.57,0,0,0,3,3.84s.42,3,3,3.42a7,7,0,0,1,5.56,4c.85,2.13.85,4.27,3.41,6.83s2.33.43,4.46,4.27,3.84,6.41,3.84,6.41,4.27,2.37,3.85,4.27a74.32,74.32,0,0,1-3.42,8.73c-1.28,3,0,5.12-2.13,7.68s-4.22.67-2.75,4.7,3.17,3.61,3.17,6.6-.66,3.84-1.71,6.83-.18.85-2.32,5.55-5.55,4-4.27,8.73-4.27,2.56-4.7,5.12,1.29,6,1.29,6-6,4.51-3,10.25,4.27,7.45,3.84,10,1.71,7.69,1.71,7.69l-8.58,1.29s-.5-4.7-3.43-2.35c-1.66,1.48-8.68,3.43-13.38,9.6,1.29,1-2.56,6.4-5.55-1.71-.85-.43-4.06-4-7.46-1.17-.22-.11-1.61,2.8-10-1-1.11-.38-12.64-34.73-12.64-34.73l-6.59-12.58,3.17-.85s2.14-3.42,3.85-4.27,3.41-4.27,3.41-4.27l-.42-1.71A8.38,8.38,0,0,0,229,371c-1.71-1.71-2.56-5.55-2.56-5.55a5.3,5.3,0,0,0-.43-5.74,38,38,0,0,1,2.56-9c0-.86-3-5.55-3-5.55l-2.75-3.42a46.15,46.15,0,0,1-5.56.43c-2.56,0-2.56-2.75-2.56-2.75l-1.28-3,1.71-6,3.42-5.55.42-3s-.61-7.45,3.42-7.88c1,.43,5.74.43,3.6-5.12,1.71,2.13.86-7.26.86-7.26l3.41-4.7,3-4.46s1.47-10.25-6.4-14.52c.42-.42-3.42.19-2.14-9,0,.42-8.3-4-10.86-10.87,0-.42,5.79-.42,8.11-4.27s4.89-9.39,11.72-3.84c.43-.43,9.82.85,9.82.85s3.18,1,5.31-3.41c.43,0,1.29-2.14,4.7,0,1.71.42,6,4,7.68-.43Z"/><path class="cls-1" d="M287.89,231.05s-1.83,6,1.83,9.16,7.89,4,10.25,6.84,3.13,0,8.63,5.23,2,4.45,6.79,8.63,1.88,5.49,6.85,4.71,4.18-2.1,6.8-2.36,6.27,3.09,7.32,4.45,6.32,5.8,7.63,7.37,3.14,1.83,5.75,3.4,1.83,3.39,1.83,6.79-.78,6.85,1.05,8.42,4.44,3.4,7.32,2.09,3.87-.48,6.27-2.35,4.76-1.31,6.85.52,5,8.89,3.92,10.46,0,3.66-3.4,4.7-7.11.79-7.37,2.36-2.14,5.8,1.05,9.72c-.79.52-7.58.78-9.15-.26s-5.75-1.88-7.32-5.28-1.31-7.32-5.49-6.8-.84,1.31-2.93,2.36-3.66.78-5.49,2.61-5.23,2.92-6,5.54-2.88,4.44-3.92,6.8-1.57,3.66-3.93,5.49a11.8,11.8,0,0,0-4.23,5.23c-1.3,2.61.26,3.44-4.18,5.54s-3.4,4.18-6,2.09-1.83-2.93-3.66-4a21.16,21.16,0,0,0-3.4-1.57s-.28-.31-2.37-2.51-1.89-4.08-3.84-6.41-1.74-.72-4.46-4.27-1.5-4.63-3.41-6.83a15.4,15.4,0,0,0-4-3.3,22.92,22.92,0,0,1-3.66-3.14c-1.05-1.3-2.23-4.22-3.86-4.85s-3.54-2.52-4.7-1.71-2.47,2.64-5.09,0-2.87-3.4-3.66-3.93-.83.42-2.12-1.22-.75-2.17-.49-3.48,1-2.93-1.31-5.28-5.49-8.63-4.44-11.24a38.81,38.81,0,0,1,2.87-5.49s2.23-3.11,2.95-4.17a8.35,8.35,0,0,0,1-6.08c-.52-2.87-1-5.23-1-5.23s5-1.57,1.83-2.87c-.52,0-2.95-1.14-3-2.66s.68-1.79,2.78-2.57,2.61-2.36,2.35-3.14a23.54,23.54,0,0,0-2.14-3.26l3-5.74,1-4.12,2.88-3.4,1-3.4,3,.67,2.83,2.21,2.62,3.66,1.81-.32,6.41-3Z"/><path class="cls-1" d="M287.89,231.05s-1.83,6,1.83,9.16,7.89,4,10.25,6.84,3.13,0,8.63,5.23,2,4.45,6.79,8.63,1.88,5.49,6.85,4.71,4.18-2.1,6.8-2.36,6.27,3.09,7.32,4.45,6.32,5.8,7.63,7.37,3.14,1.83,5.75,3.4,1.83,3.39,1.83,6.79-.78,6.85,1.05,8.42,4.44,3.4,7.32,2.09,3.87-.48,6.27-2.35,4.76-1.31,6.85.52,5,8.89,3.92,10.46,0,3.66-3.4,4.7-7.11.79-7.37,2.36-2.14,5.8,1.05,9.72c-.79.52-7.58.78-9.15-.26s-5.75-1.88-7.32-5.28-1.31-7.32-5.49-6.8-.84,1.31-2.93,2.36-3.66.78-5.49,2.61-5.23,2.92-6,5.54-2.88,4.44-3.92,6.8-1.57,3.66-3.93,5.49a11.8,11.8,0,0,0-4.23,5.23c-1.3,2.61.26,3.44-4.18,5.54s-3.4,4.18-6,2.09-1.83-2.93-3.66-4a21.16,21.16,0,0,0-3.4-1.57s-.28-.31-2.37-2.51-1.89-4.08-3.84-6.41-1.74-.72-4.46-4.27-1.5-4.63-3.41-6.83a15.4,15.4,0,0,0-4-3.3,22.92,22.92,0,0,1-3.66-3.14c-1.05-1.3-2.23-4.22-3.86-4.85s-3.54-2.52-4.7-1.71-2.47,2.64-5.09,0-2.87-3.4-3.66-3.93-.83.42-2.12-1.22-.75-2.17-.49-3.48,1-2.93-1.31-5.28-5.49-8.63-4.44-11.24a38.81,38.81,0,0,1,2.87-5.49s2.23-3.11,2.95-4.17a8.35,8.35,0,0,0,1-6.08c-.52-2.87-1-5.23-1-5.23s5-1.57,1.83-2.87c-.52,0-2.95-1.14-3-2.66s.68-1.79,2.78-2.57,2.61-2.36,2.35-3.14a23.54,23.54,0,0,0-2.14-3.26l3-5.74,1-4.12,2.88-3.4,1-3.4,3,.67,2.83,2.21,2.62,3.66,1.81-.32,6.41-3Z"/><path class="cls-1" d="M313.82,343.46a12,12,0,0,0,3.14,6.28c2.66,2.61,7.11,4.44,8.68,9.15s2.09,5.54,1.83,10.77-.26,10.45.78,12.55.26,3.09,1.83,5.75,3.4,3.71,6.28,5,6,2.93,5.23-1.57-3.19-6.84.52-9.46,5.54-4.44,6.59-6,.52-3.14,4.44-2.88,6,2.1,8.37,2.36,3.66.52,3.66-1.83-.26-1-1.83-5.49-2.09-8.42-1.57-11-.26-7.85,0-10.46,2.87-6.59,0-9.72-4.71-1.83-4.45-5.49.79-10.46.79-10.46-6.8-4.23-7.58-6.33.52-3.66-2.36-4.7-3.87-1.83-4.44-.79a5.65,5.65,0,0,0-.57,2.36,18.45,18.45,0,0,0-5,1.57,32.41,32.41,0,0,0-5.49,4,6.94,6.94,0,0,0-2.09,3.92,19.59,19.59,0,0,1-3.66,6.53c-1.05,1.05.26,1.83-2.36,3.4s-4.44,1.57-4.7,2.88-.05,4.92-2.14,6.54S313.82,343.46,313.82,343.46Z"/><path class="cls-1" d="M313.82,343.46a12,12,0,0,0,3.14,6.28c2.66,2.61,7.11,4.44,8.68,9.15s2.09,5.54,1.83,10.77-.26,10.45.78,12.55.26,3.09,1.83,5.75,3.4,3.71,6.28,5,6,2.93,5.23-1.57-3.19-6.84.52-9.46,5.54-4.44,6.59-6,.52-3.14,4.44-2.88,6,2.1,8.37,2.36,3.66.52,3.66-1.83-.26-1-1.83-5.49-2.09-8.42-1.57-11-.26-7.85,0-10.46,2.87-6.59,0-9.72-4.71-1.83-4.45-5.49.79-10.46.79-10.46-6.8-4.23-7.58-6.33.52-3.66-2.36-4.7-3.87-1.83-4.44-.79a5.65,5.65,0,0,0-.57,2.36,18.45,18.45,0,0,0-5,1.57,32.41,32.41,0,0,0-5.49,4,6.94,6.94,0,0,0-2.09,3.92,19.59,19.59,0,0,1-3.66,6.53c-1.05,1.05.26,1.83-2.36,3.4s-4.44,1.57-4.7,2.88-.05,4.92-2.14,6.54S313.82,343.46,313.82,343.46Z"/><path class="cls-1" d="M367.26,321.19c0-.26-1.88,7.06.26,8.1a38.15,38.15,0,0,0,7.63,2.36c2.35.52,2.62,1,3.92-.26s3.4-1.05,5.49-1.05,6.59.52,7.9,2.61,3.66,7.11,8.1,10,6.54,4.7,8.11,4.7,1,3.67,2.09,6.28.78,7.32.78,8.37-.52,4-2.87,4.49-2.88,0-3.4,1.83-2.62,1.31-3.66,3.4.26,5.23-1.05,6.8a5.5,5.5,0,0,1-5,1.83c-1.57-.26-1.61,0-4.75-2.36s-5-3.13-6.28-6.53-3.13-6.85-6-7.11-6.8-.52-7.58-2.61.52-2.62,0-6a13.32,13.32,0,0,0-2.09-5.49s-2.14-5-3.19-5.23a12.52,12.52,0,0,1-3.14-2.09s2.09-5.54-1.83-7.37c-2.87-1.31-3.66-2.61-2.87-7.58.26-1.83.26-7.32.26-7.32A67.14,67.14,0,0,0,367.26,321.19Z"/><path class="cls-1" d="M367.26,321.19c0-.26-1.88,7.06.26,8.1a38.15,38.15,0,0,0,7.63,2.36c2.35.52,2.62,1,3.92-.26s3.4-1.05,5.49-1.05,6.59.52,7.9,2.61,3.66,7.11,8.1,10,6.54,4.7,8.11,4.7,1,3.67,2.09,6.28.78,7.32.78,8.37-.52,4-2.87,4.49-2.88,0-3.4,1.83-2.62,1.31-3.66,3.4.26,5.23-1.05,6.8a5.5,5.5,0,0,1-5,1.83c-1.57-.26-1.61,0-4.75-2.36s-5-3.13-6.28-6.53-3.13-6.85-6-7.11-6.8-.52-7.58-2.61.52-2.62,0-6a13.32,13.32,0,0,0-2.09-5.49s-2.14-5-3.19-5.23a12.52,12.52,0,0,1-3.14-2.09s2.09-5.54-1.83-7.37c-2.87-1.31-3.66-2.61-2.87-7.58.26-1.83.26-7.32.26-7.32A67.14,67.14,0,0,0,367.26,321.19Z"/><path class="cls-1" d="M409.71,348.69c.52-.26,5,.26,6.59-.52s2.87-.79,5-.53,7.59,4.45,8.63,6.28,2.88,7.53,4.19,9.67,3.92,5.54,3.66,8.68-1.31,7.84-1.31,9.41,1.83,11.29-.79,12.86-4.44,5-3.66,7.85-1.3,8.05-2.61,10.19.26,5-2.35,6.59-4.45,3.14-3.66,5.75,4.7,7.84,3.66,9.41-3.14,3.45-2.1,7.11-1.3,2.88-2.61,2.09a11,11,0,0,1-4.18-5.23,27.57,27.57,0,0,1-2.1-5.54c-.83-2.87.22-1.57-2.92-3.66s-1.83-.26-2.88-3.92-2.35,0-3.92-3.92,2.09-4.45-1.57-5.75-4.7-2.93-4.7-2.93-1.05-.26-.79-4.18-2.61-8.11-2.61-8.11-.79-5-.26-7.58-.26-11.29-.26-11.29,6.27.83,5.49-9.41l3.13-1.83a4.52,4.52,0,0,1,3.93-3.4C407.88,366.52,414.42,368.61,409.71,348.69Z"/><path class="cls-1" d="M409.71,348.69c.52-.26,5,.26,6.59-.52s2.87-.79,5-.53,7.59,4.45,8.63,6.28,2.88,7.53,4.19,9.67,3.92,5.54,3.66,8.68-1.31,7.84-1.31,9.41,1.83,11.29-.79,12.86-4.44,5-3.66,7.85-1.3,8.05-2.61,10.19.26,5-2.35,6.59-4.45,3.14-3.66,5.75,4.7,7.84,3.66,9.41-3.14,3.45-2.1,7.11-1.3,2.88-2.61,2.09a11,11,0,0,1-4.18-5.23,27.57,27.57,0,0,1-2.1-5.54c-.83-2.87.22-1.57-2.92-3.66s-1.83-.26-2.88-3.92-2.35,0-3.92-3.92,2.09-4.45-1.57-5.75-4.7-2.93-4.7-2.93-1.05-.26-.79-4.18-2.61-8.11-2.61-8.11-.79-5-.26-7.58-.26-11.29-.26-11.29,6.27.83,5.49-9.41l3.13-1.83a4.52,4.52,0,0,1,3.93-3.4C407.88,366.52,414.42,368.61,409.71,348.69Z"/><path class="cls-2" d="M363.6,376.19c-.26-.52-.31.79,2.61.79s4.23,2.35,3.19,4.44-.52,2.88,0,4.71-1.36,3.44-3.71,4.49-1.05,1.31-3.4,2.09-5.75,1.57-5.49,3.92,0,2.1,1.31,4.71-.26,2.35,1.83,5,2.3.26,6.27,3.4,5.8,7.1,8.68,8.67,4.18,1.05,6.54,3.14,3.13,5.49,6.27,8.11,3.19,4.18,5.28,2.35-.26-4.45,3.66-1.83a30.62,30.62,0,0,1,6.54,6s3.13-1.83,5-.52,2.09,5,4.45,5.54,6.84.26,8.67,1.83-4.75-6.59-5.53-11.82c-.27.79-5-3.39-5-3.39l-1.05-3.66s-4.44-1-3.4-7.33c-.78-.26-5.23-3.13-5.23-3.13s-2.61-1.1-1.83-5.28c.26.26.79-2.88-2.61-8.11-.26-3.66.26-11.81-1.05-19.65.53,0-8.93-2.31-11.29-10.2a10.37,10.37,0,0,0-7.84-6.06c-2.36.26-7.06-.26-5.23-6,0-2.87-2.92-12.5-8.68-15.16-1,.78-.78,3.4-.78,3.4l.52,15.43s1,6.32,1.83,7.63S366.47,376.71,363.6,376.19Z"/><path class="cls-2" d="M363.6,376.19c-.26-.52-.31.79,2.61.79s4.23,2.35,3.19,4.44-.52,2.88,0,4.71-1.36,3.44-3.71,4.49-1.05,1.31-3.4,2.09-5.75,1.57-5.49,3.92,0,2.1,1.31,4.71-.26,2.35,1.83,5,2.3.26,6.27,3.4,5.8,7.1,8.68,8.67,4.18,1.05,6.54,3.14,3.13,5.49,6.27,8.11,3.19,4.18,5.28,2.35-.26-4.45,3.66-1.83a30.62,30.62,0,0,1,6.54,6s3.13-1.83,5-.52,2.09,5,4.45,5.54,6.84.26,8.67,1.83-4.75-6.59-5.53-11.82c-.27.79-5-3.39-5-3.39l-1.05-3.66s-4.44-1-3.4-7.33c-.78-.26-5.23-3.13-5.23-3.13s-2.61-1.1-1.83-5.28c.26.26.79-2.88-2.61-8.11-.26-3.66.26-11.81-1.05-19.65.53,0-8.93-2.31-11.29-10.2a10.37,10.37,0,0,0-7.84-6.06c-2.36.26-7.06-.26-5.23-6,0-2.87-2.92-12.5-8.68-15.16-1,.78-.78,3.4-.78,3.4l.52,15.43s1,6.32,1.83,7.63S366.47,376.71,363.6,376.19Z"/><path class="cls-1" d="M288.74,428.6l7.57,2.07s2.87-4.44,3.66-5.49A49,49,0,0,1,305.2,420a26.59,26.59,0,0,0,3.92-5s2.61-5,4.18-6.58,2.36-3.66,3.66-3.92,5.54,3.14,7.11,2.09,2.09-1.05.26-3.14-3.14-4.18-2.35-5.23,1.83-3.13,2.87-4.44,6.54-3.92,6.54-3.92-4.44-8.68-3.92-14.69,0-12.08-1.05-14.17-3.09-7.32-6.53-9.15a11.2,11.2,0,0,1-6.07-9.15c0,1.3-2.61,1-3.13,2.87-1.05.53-2.09-1-2.09-1l-2.36-3.4-3.22-.38a41.93,41.93,0,0,0-3,7.44,36.68,36.68,0,0,0-1.05,5.49c-.26,1.83-2.66,4.7-3.71,5.49s-1.78,2,.31,4.71,3.66,4.75,1.83,7.89a53.34,53.34,0,0,0-4,10.19c-.52,1.83-2.09,2.36-2.61,3.66s-1.83,2.09-1.18,3.95a2.67,2.67,0,0,1-1.7,3.68c-1.31.27-3.92.53-2.35,5s.26.79.26.79l.38,1.66-2.47,3s-2.62,5.54.52,9.73a21.92,21.92,0,0,1,2.88,5.49v4.7Z"/><path class="cls-1" d="M288.74,428.6l7.57,2.07s2.87-4.44,3.66-5.49A49,49,0,0,1,305.2,420a26.59,26.59,0,0,0,3.92-5s2.61-5,4.18-6.58,2.36-3.66,3.66-3.92,5.54,3.14,7.11,2.09,2.09-1.05.26-3.14-3.14-4.18-2.35-5.23,1.83-3.13,2.87-4.44,6.54-3.92,6.54-3.92-4.44-8.68-3.92-14.69,0-12.08-1.05-14.17-3.09-7.32-6.53-9.15a11.2,11.2,0,0,1-6.07-9.15c0,1.3-2.61,1-3.13,2.87-1.05.53-2.09-1-2.09-1l-2.36-3.4-3.22-.38a41.93,41.93,0,0,0-3,7.44,36.68,36.68,0,0,0-1.05,5.49c-.26,1.83-2.66,4.7-3.71,5.49s-1.78,2,.31,4.71,3.66,4.75,1.83,7.89a53.34,53.34,0,0,0-4,10.19c-.52,1.83-2.09,2.36-2.61,3.66s-1.83,2.09-1.18,3.95a2.67,2.67,0,0,1-1.7,3.68c-1.31.27-3.92.53-2.35,5s.26.79.26.79l.38,1.66-2.47,3s-2.62,5.54.52,9.73a21.92,21.92,0,0,1,2.88,5.49v4.7Z"/><path class="cls-1" d="M287.63,429.1c3.92,3.93,4.71,9.68,10.2,9.68,2.35,0,3.27-2.36,5.62-2.36,5.69,0,7.85,4.52,12.16,8.11,2.29,1.9,5-.06,7.91.79,1.7.52,2.09,2.61,3.92,2.61,3.6,0,5.3-2.88,7.06-6,1.24-2.29,4-1,6.54-1.57,2-.46,2.75-2.09,4.77-2.09,5.75,0,8.11,3.53,13.86,5l1.83-.26c.39-5.62,0-12,5.49-13.33,1.51,3.53,2.49,7.58,6.34,7.58,4.19,0,7.06.33,10.72-1.57,2-1.05,2.41-5,4.44-5.75l-3.4-3.4-2.88-4.71-9.15-4.18s-6.85-9.46-9.2-9.72-3.92-.79-4.71-3.66-.78-1.57-1.3-3.93-1.05-3.92-.27-4.7,1.31-2.09,3.4-2.36,2.62-.78,4.19-1.83,5-2.92,4.49-4.49-.52-1.57-.26-3.92,1.57-2.88.26-3.92.48-1.05-2.4-1.57-3.66-1.31-3.66-1.31a16.48,16.48,0,0,1-4.18-1.31,12.58,12.58,0,0,0-4.71-1.56c-1.83-.27-3.92-.53-4.71.26s0,.78-1.3,2.35-2.83,3.66-4.19,4.45-3.45,0-4,3.13a10.83,10.83,0,0,0,0,4.71s2.09,3.71,1,4.75-2.09,1.83-4.19.79-3.13-1.83-4.18-2.36a6.12,6.12,0,0,1-1.83-1.56l-6.54,3.92s-5,5-2.09,8.1c1.31,1.57,3.66,5.76.26,5a23.73,23.73,0,0,1-6.06-2.35l-6.27,7.06s-1.83,5-3.4,6.32-4.45,5.23-5.23,5.75-3.4,2.62-3.4,2.62l-2.35,4.44-7.57-2.07Z"/><path class="cls-1" d="M287.63,429.1c3.92,3.93,4.71,9.68,10.2,9.68,2.35,0,3.27-2.36,5.62-2.36,5.69,0,7.85,4.52,12.16,8.11,2.29,1.9,5-.06,7.91.79,1.7.52,2.09,2.61,3.92,2.61,3.6,0,5.3-2.88,7.06-6,1.24-2.29,4-1,6.54-1.57,2-.46,2.75-2.09,4.77-2.09,5.75,0,8.11,3.53,13.86,5l1.83-.26c.39-5.62,0-12,5.49-13.33,1.51,3.53,2.49,7.58,6.34,7.58,4.19,0,7.06.33,10.72-1.57,2-1.05,2.41-5,4.44-5.75l-3.4-3.4-2.88-4.71-9.15-4.18s-6.85-9.46-9.2-9.72-3.92-.79-4.71-3.66-.78-1.57-1.3-3.93-1.05-3.92-.27-4.7,1.31-2.09,3.4-2.36,2.62-.78,4.19-1.83,5-2.92,4.49-4.49-.52-1.57-.26-3.92,1.57-2.88.26-3.92.48-1.05-2.4-1.57-3.66-1.31-3.66-1.31a16.48,16.48,0,0,1-4.18-1.31,12.58,12.58,0,0,0-4.71-1.56c-1.83-.27-3.92-.53-4.71.26s0,.78-1.3,2.35-2.83,3.66-4.19,4.45-3.45,0-4,3.13a10.83,10.83,0,0,0,0,4.71s2.09,3.71,1,4.75-2.09,1.83-4.19.79-3.13-1.83-4.18-2.36a6.12,6.12,0,0,1-1.83-1.56l-6.54,3.92s-5,5-2.09,8.1c1.31,1.57,3.66,5.76.26,5a23.73,23.73,0,0,1-6.06-2.35l-6.27,7.06s-1.83,5-3.4,6.32-4.45,5.23-5.23,5.75-3.4,2.62-3.4,2.62l-2.35,4.44-7.57-2.07Z"/><path class="cls-1" d="M370.44,437.78s-2.61,4.44-.52,6.8,1.05,1.3,2.88,4.18,5.23,3.14,5,6.28-3.4,7.36-5,8.41-3.66,2.88-3.66,4.45,1,2.87,3.4,3.92,3.66,2.09,4.44,3.4,3.4,2.61,6.28,2.09a19.86,19.86,0,0,1,7.84-.26c2.66.52,7.37-.79,8.15-2.62s4.45-9.36,8.11-12.29a26.92,26.92,0,0,1,8.1-4.23s6.07,1.57,7.9-.26,6-7.84,5.75-9.15-3.66-4.71-3.66-4.71L420,442c-1.57-.52-3.71,0-4.76-.26s-4.44-2.09-5-3.14,1-2.92-2.09-2.92a19.93,19.93,0,0,0-5,.52s-3.4-3.13-4.71-4.18a20.67,20.67,0,0,0-3.66-2.09s.05,1.3-1.83,2.09-4-1.31-4-1.31l-2.09.79s-1.05,3.4-1.83,3.92a5.92,5.92,0,0,1-2.88,1.31c-2.09.52-2.09.21-4.18.52a23.45,23.45,0,0,1-4.7,0A10.15,10.15,0,0,0,370.44,437.78Z"/><path class="cls-1" d="M370.44,437.78s-2.61,4.44-.52,6.8,1.05,1.3,2.88,4.18,5.23,3.14,5,6.28-3.4,7.36-5,8.41-3.66,2.88-3.66,4.45,1,2.87,3.4,3.92,3.66,2.09,4.44,3.4,3.4,2.61,6.28,2.09a19.86,19.86,0,0,1,7.84-.26c2.66.52,7.37-.79,8.15-2.62s4.45-9.36,8.11-12.29a26.92,26.92,0,0,1,8.1-4.23s6.07,1.57,7.9-.26,6-7.84,5.75-9.15-3.66-4.71-3.66-4.71L420,442c-1.57-.52-3.71,0-4.76-.26s-4.44-2.09-5-3.14,1-2.92-2.09-2.92a19.93,19.93,0,0,0-5,.52s-3.4-3.13-4.71-4.18a20.67,20.67,0,0,0-3.66-2.09s.05,1.3-1.83,2.09-4-1.31-4-1.31l-2.09.79s-1.05,3.4-1.83,3.92a5.92,5.92,0,0,1-2.88,1.31c-2.09.52-2.09.21-4.18.52a23.45,23.45,0,0,1-4.7,0A10.15,10.15,0,0,0,370.44,437.78Z"/><path class="cls-1" d="M346.86,438.56c.79,0-.52,4.71-.52,6.8s-1.52,3.14-2.35,4.71a8.38,8.38,0,0,0,0,6.27c.78,1.31,2.09-.57,2.09,3.14s.78,4-.78,5.28-1.62.78-2.4,3.14-2.1,2.09-3.67,3.39-.26.27-2.35,2.1-2.87,3.66-3.92,3.92a1.67,1.67,0,0,0,0,3.14c1.83.78,5,.52,6,1.3a16.07,16.07,0,0,0,6.33,2.36c2.35.26,2.61,1,5.49.26s8.1-.53,11,0,5,.78,7.89-.79,4.71-2.35,5.49-3.13,3.4-4.19,3.4-4.19-3.92-3.92-6-4.44-5.23-5-1.83-6.8,5.23-3.71,6-6.58-.26-6-1.31-7.06-5.75-6.8-5.75-8.37-.78-5,2.61-5.8c0,.57-4.76-2.09-5.28-7.58.27.26-5-.57-5.49,13.33,0,.31-1.56,1.09-5-.74S351.36,437.78,346.86,438.56Z"/><path class="cls-1" d="M346.86,438.56c.79,0-.52,4.71-.52,6.8s-1.52,3.14-2.35,4.71a8.38,8.38,0,0,0,0,6.27c.78,1.31,2.09-.57,2.09,3.14s.78,4-.78,5.28-1.62.78-2.4,3.14-2.1,2.09-3.67,3.39-.26.27-2.35,2.1-2.87,3.66-3.92,3.92a1.67,1.67,0,0,0,0,3.14c1.83.78,5,.52,6,1.3a16.07,16.07,0,0,0,6.33,2.36c2.35.26,2.61,1,5.49.26s8.1-.53,11,0,5,.78,7.89-.79,4.71-2.35,5.49-3.13,3.4-4.19,3.4-4.19-3.92-3.92-6-4.44-5.23-5-1.83-6.8,5.23-3.71,6-6.58-.26-6-1.31-7.06-5.75-6.8-5.75-8.37-.78-5,2.61-5.8c0,.57-4.76-2.09-5.28-7.58.27.26-5-.57-5.49,13.33,0,.31-1.56,1.09-5-.74S351.36,437.78,346.86,438.56Z"/><path class="cls-1" d="M277.13,483.65a7.78,7.78,0,0,0,6.06.19c3.13-1.3,5.23-1.3,6.53-.52a7.23,7.23,0,0,0,5.23.26,5.89,5.89,0,0,0,2.66-2.61c1.05-1.57,1.05-1.83,3.66-2.62s2.36-1.3,4.71-2.61,5-1.31,7.32-1.31,7.63-.52,9.72.53,7.59,3.92,8.89,3.39,9.15-6.53,10.2-8.1.31-3.14,1.62-4.18,2.61-2.1,2.35-3.14.78-4.49-.52-5.54a6.41,6.41,0,0,1-1.83-2.88s-1.31-3.66.52-5.23,2.35-8,2.61-10.72c0,.53,1.3-1.92-1.05-.3s-1.14,1-4.77,2.09-4.73-.31-6.54,1.57-1.28,5.27-3.89,5.53-7.09-2.13-7.09-2.13l-3.9-.22s-5,0-7.63-2.88-1.3-3.61-4.18-4.7-3.92-1.62-5.23-1.1-1.61,3.1-4.75,2.36a10.44,10.44,0,0,1-5.75-3.92c-.53-.79-2.88-4.19-2.88-4.19l-1.57-1.57-7.47.79s-5.86,5.7.93,7.06c.53,1.09,3.66,5.27,2.62,10.76s-1.64,7.63.48,11.16,1.61,5.89,0,5.63-1-.27-2.61.52-.31,1.93-2.64,1a11,11,0,0,0-2.85-1s1.46-.5-.58.8-1.33.24-3.8,1.68-3.52,2-4.82,2.23-3.14.52-3.14,1.83,2.09,2.35,3.4,4.18a8.9,8.9,0,0,1,1.83,5C269.28,481.49,277.13,483.65,277.13,483.65Z"/><path class="cls-1" d="M277.13,483.65a7.78,7.78,0,0,0,6.06.19c3.13-1.3,5.23-1.3,6.53-.52a7.23,7.23,0,0,0,5.23.26,5.89,5.89,0,0,0,2.66-2.61c1.05-1.57,1.05-1.83,3.66-2.62s2.36-1.3,4.71-2.61,5-1.31,7.32-1.31,7.63-.52,9.72.53,7.59,3.92,8.89,3.39,9.15-6.53,10.2-8.1.31-3.14,1.62-4.18,2.61-2.1,2.35-3.14.78-4.49-.52-5.54a6.41,6.41,0,0,1-1.83-2.88s-1.31-3.66.52-5.23,2.35-8,2.61-10.72c0,.53,1.3-1.92-1.05-.3s-1.14,1-4.77,2.09-4.73-.31-6.54,1.57-1.28,5.27-3.89,5.53-7.09-2.13-7.09-2.13l-3.9-.22s-5,0-7.63-2.88-1.3-3.61-4.18-4.7-3.92-1.62-5.23-1.1-1.61,3.1-4.75,2.36a10.44,10.44,0,0,1-5.75-3.92c-.53-.79-2.88-4.19-2.88-4.19l-1.57-1.57-7.47.79s-5.86,5.7.93,7.06c.53,1.09,3.66,5.27,2.62,10.76s-1.64,7.63.48,11.16,1.61,5.89,0,5.63-1-.27-2.61.52-.31,1.93-2.64,1a11,11,0,0,0-2.85-1s1.46-.5-.58.8-1.33.24-3.8,1.68-3.52,2-4.82,2.23-3.14.52-3.14,1.83,2.09,2.35,3.4,4.18a8.9,8.9,0,0,1,1.83,5C269.28,481.49,277.13,483.65,277.13,483.65Z"/><path class="cls-1" d="M295,483.58a58.7,58.7,0,0,0,4.49,8.16c1.83,2.35,1.05,5,4.45,6.27s11.5,3.66,13.33,3.66a49.21,49.21,0,0,1,10.25,1.57c3.92,1.05,4.18,1,6.54,3.66s3.09,5.06,6.79,3.71,2.4-3.19,4.23-5.8,3.67-3.4,4.71-8.63-1.57-11.55-1.57-11.55-1.52.78-4.44-.52-4.5-3.93-6.59-3.93-3.66,1.05-4.18.27a15,15,0,0,1-1-2.1s-4.44-1.56-7.32-2.61-5.8-2.35-8.93-2.09-5.76.26-7.06.78-1.31,2.09-3.93,3.14-5.49,1.31-6.27,2.09S295,483.58,295,483.58Z"/><path class="cls-1" d="M295,483.58a58.7,58.7,0,0,0,4.49,8.16c1.83,2.35,1.05,5,4.45,6.27s11.5,3.66,13.33,3.66a49.21,49.21,0,0,1,10.25,1.57c3.92,1.05,4.18,1,6.54,3.66s3.09,5.06,6.79,3.71,2.4-3.19,4.23-5.8,3.67-3.4,4.71-8.63-1.57-11.55-1.57-11.55-1.52.78-4.44-.52-4.5-3.93-6.59-3.93-3.66,1.05-4.18.27a15,15,0,0,1-1-2.1s-4.44-1.56-7.32-2.61-5.8-2.35-8.93-2.09-5.76.26-7.06.78-1.31,2.09-3.93,3.14-5.49,1.31-6.27,2.09S295,483.58,295,483.58Z"/></svg>