<svg id="Layer_1" data-name="Layer 1" xmlns="http://www.w3.org/2000/svg" viewBox="0 0 512 512"><defs><style>.cls-1{fill:#e6e7e8;stroke:#fff;stroke-linejoin:round;fill-rule:evenodd;}</style></defs><path class="cls-1" d="M192.33,111.81c0,.31,1.88-.1,5.33.72s4.69.16,5.1,2.63,1.24,4.12.83,6.59-2.47,4.52-2.06,6.17.82,1.49,1.65,4.53,1.23,5.51,3.29,6.75,7,2.88,7,4.94-2.88,5.19-.41,7.82,5.35,5.51,4.94,8-.25,7.82,3.45,7.41a22.19,22.19,0,0,0,8.65-3.29c1.23-.83,2.88-2.06,3.29-4.12s.41-4,1.23-5.35.83-2.63,3.3-1.4,6.33,3.87,10,3.05,5.35.41,7,1.23,2.88.57,2.88-2.06-2.06-3-.41-4.69,3.45-2.47,4.27-4.11-.82-2.47,2.88-2.89,5.36.83,6.18-2.05,1.23-2.89,2.47-4.12.41-1.07,1.65-2.47,2.47-2.22,3.29-3.45.41-6.18.41-6.18l2.88-1.23c3.87-1.65,8-3.71,9.63-5.77a16.45,16.45,0,0,1,6.59-4.69c1.64-.41,4.53-2.88,4.53-2.88l2.9-1L296,91.4s-5.13.14-6.64-6.94a24.09,24.09,0,0,0-9.49-3.79L277.73,79l-6-1.5s-1-9.33-8.45-5c-.71.53-6.45,3.14-6.45,3.14s-4.08,1.23-5.43-1.51c-3.81-1.51-7.77-1.51-9.58-2.34s-.68-1.37-3.51-1.1a19.73,19.73,0,0,1-6.53-.13c-1.64-.41-4.94-.82-6.17-.41s-.63.22-2.17,1.34-.28,1-5.73,2a64.24,64.24,0,0,0-8.76,2.08l-2.85,1.76-3.41.75a12.22,12.22,0,0,0-4.57-.75c-2.89,0-4.53.82-5.77.82s-2.06,2.06-6.17,2.06-4.44-.53-6.63-.88a20.6,20.6,0,0,0-5.84.42l-.45,3.75-.8,9.6s4.5-.79,6.15,4.56a44.06,44.06,0,0,0,3.86,9.06S189.48,106,192.33,111.81Z"/><path class="cls-1" d="M192.33,111.81c0,.31,1.88-.1,5.33.72s4.69.16,5.1,2.63,1.24,4.12.83,6.59-2.47,4.52-2.06,6.17.82,1.49,1.65,4.53,1.23,5.51,3.29,6.75,7,2.88,7,4.94-2.88,5.19-.41,7.82,5.35,5.51,4.94,8-.25,7.82,3.45,7.41a22.19,22.19,0,0,0,8.65-3.29c1.23-.83,2.88-2.06,3.29-4.12s.41-4,1.23-5.35.83-2.63,3.3-1.4,6.33,3.87,10,3.05,5.35.41,7,1.23,2.88.57,2.88-2.06-2.06-3-.41-4.69,3.45-2.47,4.27-4.11-.82-2.47,2.88-2.89,5.36.83,6.18-2.05,1.23-2.89,2.47-4.12.41-1.07,1.65-2.47,2.47-2.22,3.29-3.45.41-6.18.41-6.18l2.88-1.23c3.87-1.65,8-3.71,9.63-5.77a16.45,16.45,0,0,1,6.59-4.69c1.64-.41,4.53-2.88,4.53-2.88l2.9-1L296,91.4s-5.13.14-6.64-6.94a24.09,24.09,0,0,0-9.49-3.79L277.73,79l-6-1.5s-1-9.33-8.45-5c-.71.53-6.45,3.14-6.45,3.14s-4.08,1.23-5.43-1.51c-3.81-1.51-7.77-1.51-9.58-2.34s-.68-1.37-3.51-1.1a19.73,19.73,0,0,1-6.53-.13c-1.64-.41-4.94-.82-6.17-.41s-.63.22-2.17,1.34-.28,1-5.73,2a64.24,64.24,0,0,0-8.76,2.08l-2.85,1.76-3.41.75a12.22,12.22,0,0,0-4.57-.75c-2.89,0-4.53.82-5.77.82s-2.06,2.06-6.17,2.06-4.44-.53-6.63-.88a20.6,20.6,0,0,0-5.84.42l-.45,3.75-.8,9.6s4.5-.79,6.15,4.56a44.06,44.06,0,0,0,3.86,9.06S189.48,106,192.33,111.81Z"/><path class="cls-1" d="M181.2,137.14c-.41-.83.41,2.47,3.29,2.88s5.35.41,6.59,2.88.41,3.71,1.23,6.18,2.47,3,2.88,5.92-1.39,5.76,2.89,7.41,5.1,1.65,5.92,3.71a30.94,30.94,0,0,0,2.88,4.94,33.76,33.76,0,0,1,8.65-1.65,9.21,9.21,0,0,0,5.92-2.06,4.67,4.67,0,0,1-3-3.7,51.47,51.47,0,0,1-.41-6.18,53.45,53.45,0,0,1-3.71-4.28c-.82-1.23-2.06-2.88-1.23-5.35a6.44,6.44,0,0,0,.41-3.7l-2.88-3.3-4.12-1.64-1.65-1.65-3.29-9.63s5.19-13.74-2.22-15c-.82.41-7-1.13-7-1.13s3.85,5.82-4.13,7.88c-.83.82-5.36,0-4.53,6.17C184.08,128.33,183.83,135.9,181.2,137.14Z"/><path class="cls-1" d="M181.2,137.14c-.41-.83.41,2.47,3.29,2.88s5.35.41,6.59,2.88.41,3.71,1.23,6.18,2.47,3,2.88,5.92-1.39,5.76,2.89,7.41,5.1,1.65,5.92,3.71a30.94,30.94,0,0,0,2.88,4.94,33.76,33.76,0,0,1,8.65-1.65,9.21,9.21,0,0,0,5.92-2.06,4.67,4.67,0,0,1-3-3.7,51.47,51.47,0,0,1-.41-6.18,53.45,53.45,0,0,1-3.71-4.28c-.82-1.23-2.06-2.88-1.23-5.35a6.44,6.44,0,0,0,.41-3.7l-2.88-3.3-4.12-1.64-1.65-1.65-3.29-9.63s5.19-13.74-2.22-15c-.82.41-7-1.13-7-1.13s3.85,5.82-4.13,7.88c-.83.82-5.36,0-4.53,6.17C184.08,128.33,183.83,135.9,181.2,137.14Z"/><path class="cls-1" d="M305.11,109.92l22.75,15.5-6.14,6.21L309.37,149.9,306.9,147s.41-3.3-1.24-3.71-5.92-1.23-5.92-1.23l-4.94-.83-3.71.42s-.82,2.47-2.06,5.76-1.89,6-4.53,6.59-5.51,2.63-6.33,4.27-5.35,11.94-5.35,11.94l-2.06,2.88,2.47,6.75s-8.49,4.53-10.29,5.35-4.69,5.61-5.51,8.24.41,8-.83,8.8-5.35,1.65-7,2.47-4.52,0-5.35,2.06-1.23,2.47-.41,4.12a47.22,47.22,0,0,0,2.88,4.52l1.65,4.69-1.24,4.94h-5.35s-5.92,2.06-8.39,2.89-8.07,1.23-10.29,2.47-5.1,1.48-6.34,3.7A7.09,7.09,0,0,1,211,238a33.67,33.67,0,0,1-7.82-.42l-.83-5.51a3.56,3.56,0,0,0-.82-2.47c-1-1.23-1.4-4.53-1.4-4.53l1.81-6.58-1.39-5.93a10.9,10.9,0,0,1,2.21-5.76c2.06-2.47,1.65-4.53,1.24-7.82s1.65-3.87,1.23-7.16a33.73,33.73,0,0,0-1.64-6.59l2.06-7,1.23-7.15,8.65-1.65,5.92-2.06s10.29-3.29,11.94-7.41.82-4,1.23-5.35.42-2.22,3.3-1.4,5.51,2.63,7.16,2.63,7,.83,7,.83,8.24,4.78,4.53-4.69a25.76,25.76,0,0,0,5.1-5.35s-3.7-4.12,8.24-2.89c2.05-3.29,1.64-5.35,1.64-5.35l6.59-6.74.41-6.18,12.1-5.76,3.29-4.12Z"/><path class="cls-1" d="M305.11,109.92l22.75,15.5-6.14,6.21L309.37,149.9,306.9,147s.41-3.3-1.24-3.71-5.92-1.23-5.92-1.23l-4.94-.83-3.71.42s-.82,2.47-2.06,5.76-1.89,6-4.53,6.59-5.51,2.63-6.33,4.27-5.35,11.94-5.35,11.94l-2.06,2.88,2.47,6.75s-8.49,4.53-10.29,5.35-4.69,5.61-5.51,8.24.41,8-.83,8.8-5.35,1.65-7,2.47-4.52,0-5.35,2.06-1.23,2.47-.41,4.12a47.22,47.22,0,0,0,2.88,4.52l1.65,4.69-1.24,4.94h-5.35s-5.92,2.06-8.39,2.89-8.07,1.23-10.29,2.47-5.1,1.48-6.34,3.7A7.09,7.09,0,0,1,211,238a33.67,33.67,0,0,1-7.82-.42l-.83-5.51a3.56,3.56,0,0,0-.82-2.47c-1-1.23-1.4-4.53-1.4-4.53l1.81-6.58-1.39-5.93a10.9,10.9,0,0,1,2.21-5.76c2.06-2.47,1.65-4.53,1.24-7.82s1.65-3.87,1.23-7.16a33.73,33.73,0,0,0-1.64-6.59l2.06-7,1.23-7.15,8.65-1.65,5.92-2.06s10.29-3.29,11.94-7.41.82-4,1.23-5.35.42-2.22,3.3-1.4,5.51,2.63,7.16,2.63,7,.83,7,.83,8.24,4.78,4.53-4.69a25.76,25.76,0,0,0,5.1-5.35s-3.7-4.12,8.24-2.89c2.05-3.29,1.64-5.35,1.64-5.35l6.59-6.74.41-6.18,12.1-5.76,3.29-4.12Z"/><path class="cls-1" d="M181.2,137.14s3.29,3.29,6.58,3.29,3.71,2.47,4.12,6.18a12.64,12.64,0,0,0,2.47,6.17l.82,5.1a7.67,7.67,0,0,0,6.34,6.18,18.79,18.79,0,0,1,5.35,7L203.18,184s2.47,6.42,2,9.05-2.88,4.28-.82,8.81c-1.65,4.94-5.35,8-2.47,16.63-.41.82-1.81,6.58-1.81,6.58l2.22,7,.83,5.51s-.58,1.81-4.69,0-2.88-2.21-7-2.63-7-.82-7-.82-1.39-3.29-4.28-3.7a10.61,10.61,0,0,1-4.52-1.65l-4.53-3.71-2.08-.42a31.52,31.52,0,0,1-.39-5.34c0-3.29-.41-2.63.41-5.92a28.62,28.62,0,0,0,.41-7.83s-2.47-8.8-2.06-12.09,1.24-4.94,1.65-8.24.82-11.68,1.65-13.74a17.17,17.17,0,0,0,1.23-5.35c.41-2.89-.41-5.61.41-8.65s1.36-7.46,2.53-8.75a53.17,53.17,0,0,0,3.65-5.41Z"/><path class="cls-1" d="M181.2,137.14s3.29,3.29,6.58,3.29,3.71,2.47,4.12,6.18a12.64,12.64,0,0,0,2.47,6.17l.82,5.1a7.67,7.67,0,0,0,6.34,6.18,18.79,18.79,0,0,1,5.35,7L203.18,184s2.47,6.42,2,9.05-2.88,4.28-.82,8.81c-1.65,4.94-5.35,8-2.47,16.63-.41.82-1.81,6.58-1.81,6.58l2.22,7,.83,5.51s-.58,1.81-4.69,0-2.88-2.21-7-2.63-7-.82-7-.82-1.39-3.29-4.28-3.7a10.61,10.61,0,0,1-4.52-1.65l-4.53-3.71-2.08-.42a31.52,31.52,0,0,1-.39-5.34c0-3.29-.41-2.63.41-5.92a28.62,28.62,0,0,0,.41-7.83s-2.47-8.8-2.06-12.09,1.24-4.94,1.65-8.24.82-11.68,1.65-13.74a17.17,17.17,0,0,0,1.23-5.35c.41-2.89-.41-5.61.41-8.65s1.36-7.46,2.53-8.75a53.17,53.17,0,0,0,3.65-5.41Z"/><path class="cls-1" d="M247.13,225.05a5.34,5.34,0,0,1-2,6.59c-3.87,2.88-7.16,5.51-5.52,8s2.47,3.71,1.65,6.18-1.49,7,1.4,7,2.88-.83,5.76-2.47,4.12-.42,3.29-3.3-.41-2.06.41-5.35a13.33,13.33,0,0,0,.42-5.35l2-5.51,2.06-7a16.91,16.91,0,0,0-1.64-5.76c-1.65-3.87-1.65-3.87-.42-5.93s.83-1.65,1.65-4.53a13.52,13.52,0,0,0,.41-5.35s-4.53,1.65-7,2.47-7.41.66-5.76,6.18c1.65,1.23,4.53,9.21,4.53,9.21Z"/><path class="cls-1" d="M247.13,225.05a5.34,5.34,0,0,1-2,6.59c-3.87,2.88-7.16,5.51-5.52,8s2.47,3.71,1.65,6.18-1.49,7,1.4,7,2.88-.83,5.76-2.47,4.12-.42,3.29-3.3-.41-2.06.41-5.35a13.33,13.33,0,0,0,.42-5.35l2-5.51,2.06-7a16.91,16.91,0,0,0-1.64-5.76c-1.65-3.87-1.65-3.87-.42-5.93s.83-1.65,1.65-4.53a13.52,13.52,0,0,0,.41-5.35s-4.53,1.65-7,2.47-7.41.66-5.76,6.18c1.65,1.23,4.53,9.21,4.53,9.21Z"/><path class="cls-1" d="M248.37,251.15c-.82-.82-1.24,5.92.82,5.92s2.47-1.23,7,2.88,4.53,5.36,4.53,5.36-3.29.82-3.71,3.29-2.88,5.92-2.47,8.8.83,5.36-.41,6.59-1.64,2.47-2.06,4.53-.41,5.6.83,7.82,3.29,3.87,5.76,5.51,3,.83,5.51,2.89,2.47,4.11,6.59,2.88,4.94.41,4.94-3.71,0-5.19,1.23-6.58a33.82,33.82,0,0,0,2.89-4.28s-.67-4.53,3-4.12,7.41-1.65,3.7-3.7-3.29-4.12-2.47-5.77-.82-2.22.41-3.45,2.47-2.06.42-3.71-6.5-2.47-3.05-3.7,1.81-4.12,1.81-4.12-4.28,1.65-5.51-.82,0,.16,0-4.12-4.28-5.1.82-6.74a59.94,59.94,0,0,1,7.57-2.06s.83-5.77,4.94-5.77,5.36.42,6.59-1.64,1.9-2.47,4.12-1.24,5.92-1.23,5.92-1.23,3.29-1.24,5.35,0a25.56,25.56,0,0,0,6.18,2.06l4.27.82a5.6,5.6,0,0,1,3.71-3.29c2.88-.83,2.47-1.65,4.53-1.65s2.31,0,9.05,1.23,8,1.24,10,1.65,6.59,4.12,6.59,4.12l17.86-10.45-.41-13.59s5.19-3.7,8.24-2.88,10,3.7,10,3.7l4.52-2.05s3.55.82,4.94,3.29a35.81,35.81,0,0,0,4.69,5.76s5.77,2.88,5.35,4.53.42,4.69.42,4.69,9.3-3.87,10.29-5.1,1.64-3.29.41-7-.41-3.7-4.12-6.17-5.35-4.69-5.35-10.05.82-7.66,1.24-11.52a30.36,30.36,0,0,0-.42-8l-2.47-6.59,4.94-10s2.89-4.12,4.12-6.18a36.55,36.55,0,0,0,2.5-6L396.06,140.4l-33.29,9.68-.23,3.69,3.28,8.57.46,5.54-27.07-3.69s-.3-7.38-12.39-9.19c-1.24,0-5.4-3.91-9.78-.31-.26,1.13-7.11,6.19-9.45,3-1.52-2.32-1.93-6.18,1.78-7.83.41,0-2.47-2.88-2.47-2.88v-2.88a27.3,27.3,0,0,0-15.81-2.47l-3.7,8.64s1,3.87-4.94,4.69c-.58.41-4.28,1.24-5.52,5.76a85.08,85.08,0,0,1-4.11,9.47l-2.06,2.88,2.47,6.75-10.29,5.35-4.69,5.35-.82,2.89-.83,8.8L253.72,215l3.29,7.16-.82,6.18-3.7,8v4.12l-1.24,4.11.41,4.53S249.19,252,248.37,251.15Z"/><path class="cls-1" d="M248.37,251.15c-.82-.82-1.24,5.92.82,5.92s2.47-1.23,7,2.88,4.53,5.36,4.53,5.36-3.29.82-3.71,3.29-2.88,5.92-2.47,8.8.83,5.36-.41,6.59-1.64,2.47-2.06,4.53-.41,5.6.83,7.82,3.29,3.87,5.76,5.51,3,.83,5.51,2.89,2.47,4.11,6.59,2.88,4.94.41,4.94-3.71,0-5.19,1.23-6.58a33.82,33.82,0,0,0,2.89-4.28s-.67-4.53,3-4.12,7.41-1.65,3.7-3.7-3.29-4.12-2.47-5.77-.82-2.22.41-3.45,2.47-2.06.42-3.71-6.5-2.47-3.05-3.7,1.81-4.12,1.81-4.12-4.28,1.65-5.51-.82,0,.16,0-4.12-4.28-5.1.82-6.74a59.94,59.94,0,0,1,7.57-2.06s.83-5.77,4.94-5.77,5.36.42,6.59-1.64,1.9-2.47,4.12-1.24,5.92-1.23,5.92-1.23,3.29-1.24,5.35,0a25.56,25.56,0,0,0,6.18,2.06l4.27.82a5.6,5.6,0,0,1,3.71-3.29c2.88-.83,2.47-1.65,4.53-1.65s2.31,0,9.05,1.23,8,1.24,10,1.65,6.59,4.12,6.59,4.12l17.86-10.45-.41-13.59s5.19-3.7,8.24-2.88,10,3.7,10,3.7l4.52-2.05s3.55.82,4.94,3.29a35.81,35.81,0,0,0,4.69,5.76s5.77,2.88,5.35,4.53.42,4.69.42,4.69,9.3-3.87,10.29-5.1,1.64-3.29.41-7-.41-3.7-4.12-6.17-5.35-4.69-5.35-10.05.82-7.66,1.24-11.52a30.36,30.36,0,0,0-.42-8l-2.47-6.59,4.94-10s2.89-4.12,4.12-6.18a36.55,36.55,0,0,0,2.5-6L396.06,140.4l-33.29,9.68-.23,3.69,3.28,8.57.46,5.54-27.07-3.69s-.3-7.38-12.39-9.19c-1.24,0-5.4-3.91-9.78-.31-.26,1.13-7.11,6.19-9.45,3-1.52-2.32-1.93-6.18,1.78-7.83.41,0-2.47-2.88-2.47-2.88v-2.88a27.3,27.3,0,0,0-15.81-2.47l-3.7,8.64s1,3.87-4.94,4.69c-.58.41-4.28,1.24-5.52,5.76a85.08,85.08,0,0,1-4.11,9.47l-2.06,2.88,2.47,6.75-10.29,5.35-4.69,5.35-.82,2.89-.83,8.8L253.72,215l3.29,7.16-.82,6.18-3.7,8v4.12l-1.24,4.11.41,4.53S249.19,252,248.37,251.15Z"/><path class="cls-1" d="M424.64,162.13l61.67,32.42.52,6.07,3.17,2.85s7.71,0,9.76,1.66,9.64,3,10.25,6.64,1.36,7.65.78,9.44-.26,3.45-1,5.7a61.16,61.16,0,0,0-1.55,7,59.93,59.93,0,0,1-6.84,1c-1.6,0-4.3-2.29-7.27-2.6a53.2,53.2,0,0,1-6.26-1.13L483.94,229s-4.51-1.05-5.33,2.65-1.65,8-4.53,10a46.76,46.76,0,0,0-6.17,5.76l-1.67,1.62L466,259.54l-14.11,6.74-10.47,3.63-8.3,1-3.39-3.17-.41-14.16L424.61,252l-4.53-5.76-6.17-4.53-.41-2.88,10.29-5.1,1.39-3.29L423.79,223,416,216.82s-2.06-6.34-1.24-12.1,1.65-12.92-1.65-20.33c3.71-7.41,6.18-12.92,6.18-12.92l2.88-3.3Z"/><path class="cls-1" d="M424.64,162.13l61.67,32.42.52,6.07,3.17,2.85s7.71,0,9.76,1.66,9.64,3,10.25,6.64,1.36,7.65.78,9.44-.26,3.45-1,5.7a61.16,61.16,0,0,0-1.55,7,59.93,59.93,0,0,1-6.84,1c-1.6,0-4.3-2.29-7.27-2.6a53.2,53.2,0,0,1-6.26-1.13L483.94,229s-4.51-1.05-5.33,2.65-1.65,8-4.53,10a46.76,46.76,0,0,0-6.17,5.76l-1.67,1.62L466,259.54l-14.11,6.74-10.47,3.63-8.3,1-3.39-3.17-.41-14.16L424.61,252l-4.53-5.76-6.17-4.53-.41-2.88,10.29-5.1,1.39-3.29L423.79,223,416,216.82s-2.06-6.34-1.24-12.1,1.65-12.92-1.65-20.33c3.71-7.41,6.18-12.92,6.18-12.92l2.88-3.3Z"/><path class="cls-1" d="M357.85,245.8a20.12,20.12,0,0,1,3.29,9.47c.42,5.51,2.06,3.45,0,8.8a50.83,50.83,0,0,1-4.52,9.06l-4.12,6.74-.41,7,6.58,1.65s3.87-.41,4.69.82,2.47,10,2.47,10,1.65,5.77,2.06,7,1.65,5.35,1.65,5.35l8.23,6.34.83,14,3.7-.83,1.81-4.11a16.1,16.1,0,0,1,3.7-1.24,15.06,15.06,0,0,0,4.12-1.65l6.17-1.64s1.9,2.47,4.94.41,3.46-3.71,7.16-4.53a41.63,41.63,0,0,1,9.47-.41s7.39,1.14,9.34-.13,3.58-3.32,5.23-5,6.94-.27,3.27-3.43-7.17-3.73-8.31-5.71-.31-6.25.92-7.49,1.65-2.06,2.06-4.53.41-2.88.41-7.41.51-13.45.51-13.45l-3.39-3.17-.41-14.16L424.61,252l-4.53-5.76-6.17-4.53-.41-2.88-.42-4.69-5.35-4.53L403,223.82l-4.94-3.29-4.52,2.05-8.24-2.88a5.41,5.41,0,0,0-6.33-.41,15.57,15.57,0,0,0-3.71,2.47l.41,13.59Z"/><path class="cls-1" d="M357.85,245.8a20.12,20.12,0,0,1,3.29,9.47c.42,5.51,2.06,3.45,0,8.8a50.83,50.83,0,0,1-4.52,9.06l-4.12,6.74-.41,7,6.58,1.65s3.87-.41,4.69.82,2.47,10,2.47,10,1.65,5.77,2.06,7,1.65,5.35,1.65,5.35l8.23,6.34.83,14,3.7-.83,1.81-4.11a16.1,16.1,0,0,1,3.7-1.24,15.06,15.06,0,0,0,4.12-1.65l6.17-1.64s1.9,2.47,4.94.41,3.46-3.71,7.16-4.53a41.63,41.63,0,0,1,9.47-.41s7.39,1.14,9.34-.13,3.58-3.32,5.23-5,6.94-.27,3.27-3.43-7.17-3.73-8.31-5.71-.31-6.25.92-7.49,1.65-2.06,2.06-4.53.41-2.88.41-7.41.51-13.45.51-13.45l-3.39-3.17-.41-14.16L424.61,252l-4.53-5.76-6.17-4.53-.41-2.88-.42-4.69-5.35-4.53L403,223.82l-4.94-3.29-4.52,2.05-8.24-2.88a5.41,5.41,0,0,0-6.33-.41,15.57,15.57,0,0,0-3.71,2.47l.41,13.59Z"/><path class="cls-1" d="M277.76,295.11c0,.41-1.81,1.23,3.29,1.23s5.92-1.23,8-1.23,3.71.25,4.94,1.64,1.08,3.62,4.94,1.81,9.63-3.2,11.28-1.81a32.06,32.06,0,0,0,4.94,3.05s5.76-1.65,6.17,5.35c-.82,3.29-3.95,13.17,5.1,11.94,4.94-2.47,22.39-12.35,22.39-12.35L350.44,291l1.65-4.12.41-7,8.64-15.8s2.06-10-3.29-18.27c-6.59-6.18-6.17-5.35-9.47-5.35a42.78,42.78,0,0,1-10-.83c-3.7-.82-2.47-1.64-6.17-.82a31.92,31.92,0,0,0-7.41,2.88l-.83,2.06s-4.68-1.24-7.57-1.65-5.19-4.94-9.88-.41c.42,0-6.33-.41-6.33-.41l-3.71,3.29s-9.05-2.22-9.88,6.18a90.24,90.24,0,0,0-10.45,3.7l2.06,5.1s-2.31,7.82,5.51,4.94c0,.41-.41,3.3-.41,3.3s-4.53,2.05,0,3.7c.41.41,2.88,2.47,2.88,2.47L284.5,276l-1.23,5.51,4.94,5.76L287,288.93l-6.33.41-.82,3.71S277.76,294.69,277.76,295.11Z"/><path class="cls-1" d="M277.76,295.11c0,.41-1.81,1.23,3.29,1.23s5.92-1.23,8-1.23,3.71.25,4.94,1.64,1.08,3.62,4.94,1.81,9.63-3.2,11.28-1.81a32.06,32.06,0,0,0,4.94,3.05s5.76-1.65,6.17,5.35c-.82,3.29-3.95,13.17,5.1,11.94,4.94-2.47,22.39-12.35,22.39-12.35L350.44,291l1.65-4.12.41-7,8.64-15.8s2.06-10-3.29-18.27c-6.59-6.18-6.17-5.35-9.47-5.35a42.78,42.78,0,0,1-10-.83c-3.7-.82-2.47-1.64-6.17-.82a31.92,31.92,0,0,0-7.41,2.88l-.83,2.06s-4.68-1.24-7.57-1.65-5.19-4.94-9.88-.41c.42,0-6.33-.41-6.33-.41l-3.71,3.29s-9.05-2.22-9.88,6.18a90.24,90.24,0,0,0-10.45,3.7l2.06,5.1s-2.31,7.82,5.51,4.94c0,.41-.41,3.3-.41,3.3s-4.53,2.05,0,3.7c.41.41,2.88,2.47,2.88,2.47L284.5,276l-1.23,5.51,4.94,5.76L287,288.93l-6.33.41-.82,3.71S277.76,294.69,277.76,295.11Z"/><path class="cls-1" d="M184.49,234.11s-2.47,6.75-.82,9.63,3.29,4.12,2.06,6.59-2.89,3-2.89,6.74,2.89,7,.42,9.06a12.14,12.14,0,0,1-5.52,2.47s-3.7,2.72-4.52,5.76.41.16-2.89,3.87a32.19,32.19,0,0,0-4.94,7.41s-5.35-.41-4.11,3.29.57,8-.83,10a36,36,0,0,0-2.63,4.94l-2.06,5.35-2.88-3.7-4.94-2.88-3.7-3.3s.82-5.92-1.65-7.57a15.24,15.24,0,0,1-3.86-3.7,40.49,40.49,0,0,0,1.39-7v-8.39c0-3.71,0-6.59,1.24-8.24s1.23-7,1.23-7l-1.77-7.93s7.84-19.17,19.5-24.51c-.28.43,8.76-.41,8.76-.41l2.08.42,3.29,3.71,5.76,1.65Z"/><path class="cls-1" d="M184.49,234.11s-2.47,6.75-.82,9.63,3.29,4.12,2.06,6.59-2.89,3-2.89,6.74,2.89,7,.42,9.06a12.14,12.14,0,0,1-5.52,2.47s-3.7,2.72-4.52,5.76.41.16-2.89,3.87a32.19,32.19,0,0,0-4.94,7.41s-5.35-.41-4.11,3.29.57,8-.83,10a36,36,0,0,0-2.63,4.94l-2.06,5.35-2.88-3.7-4.94-2.88-3.7-3.3s.82-5.92-1.65-7.57a15.24,15.24,0,0,1-3.86-3.7,40.49,40.49,0,0,0,1.39-7v-8.39c0-3.71,0-6.59,1.24-8.24s1.23-7,1.23-7l-1.77-7.93s7.84-19.17,19.5-24.51c-.28.43,8.76-.41,8.76-.41l2.08.42,3.29,3.71,5.76,1.65Z"/><path class="cls-1" d="M172,275.6c0,.41,6.59,2.63,6.59,2.63s7.16,2.88,8.8,3.29,8.24,4.94,8.24,4.94l2.47,6.59h4.27l2.88,5.51,9.88-7.16L214.7,284l3.71-3.7s3.45-.67,3.86-2.06.83-3.46.83-3.46l2.88-2-.41-9.47v-8l1.23-4.12a4.35,4.35,0,0,1-2.06-4.53,14.17,14.17,0,0,0-.41-5.76s-1.23,2.63,0-3.71.83-7.16.83-7.16l-5.11,1.24s-3.54,8.55-16.87,6.33c1.23,0-2.63,1.24-2.63,1.24l-5.36-2.47-2.47-1.4H188.2l-3.71-.82s-2.06,3.87-1.23,6.75a42.33,42.33,0,0,0,2.47,6.17v3.3s-4.12,3.45-2.47,8,.25,7.82-4.28,9.47C177.33,269,172.39,270.5,172,275.6Z"/><path class="cls-1" d="M172,275.6c0,.41,6.59,2.63,6.59,2.63s7.16,2.88,8.8,3.29,8.24,4.94,8.24,4.94l2.47,6.59h4.27l2.88,5.51,9.88-7.16L214.7,284l3.71-3.7s3.45-.67,3.86-2.06.83-3.46.83-3.46l2.88-2-.41-9.47v-8l1.23-4.12a4.35,4.35,0,0,1-2.06-4.53,14.17,14.17,0,0,0-.41-5.76s-1.23,2.63,0-3.71.83-7.16.83-7.16l-5.11,1.24s-3.54,8.55-16.87,6.33c1.23,0-2.63,1.24-2.63,1.24l-5.36-2.47-2.47-1.4H188.2l-3.71-.82s-2.06,3.87-1.23,6.75a42.33,42.33,0,0,0,2.47,6.17v3.3s-4.12,3.45-2.47,8,.25,7.82-4.28,9.47C177.33,269,172.39,270.5,172,275.6Z"/><path class="cls-1" d="M249.19,257.07c-.41-.41-3.29,4.12-3.29,4.12a2.28,2.28,0,0,1,0,3.29c-1.65,1.65-1.65,0-2.88,3.71s-1.4,4.94-2.63,6.58-1.65,2.47-4.12,2.06-7.41,1-7.41,1l-1.65,4.11s-1.07.41-3.7,3.71-3.87.41-4.28,3.29a11.91,11.91,0,0,1-2.06,5.76c-1.23,2.06-4.11,2.22-2.06,5.52s.42,2.88.83,6.58,0,5.36.41,7.83.82,4.27,2.47,5.51a50.43,50.43,0,0,0,4.69,2.88s2.47.82,2.88,5.35a7.85,7.85,0,0,0-1.65,4.12c0,2.06,3.3,1.07,1.65,3.7s-2.88,3-2.88,4.69a18.6,18.6,0,0,0,1.65,7.41c1.23,2.47,2.88,2.88,1.23,5.35s-2.88,3.87-2.47,5.1,3.71,3.3,1.65,5.77-2.47.82-2.47,3.7-1.24,3.71-.41,5.35,2.05,2.47,3.7,1.24,4.53-4.53,4.94-6.59,0-4.11,1.24-5.35,2.05-1.49,2.47-3.7.41-1.4,1.23-3-.41-1.23.82-2.88.83,0,2.47-2.06a12.38,12.38,0,0,0,2.22-3.7c.83-1.65.83-2.06,2.06-2.88s2.47-.83,3.71-2.06.41-2.47,2-2.88,2.89-1.4,4.12-4.28.82-2.47.41-4.53,0-2.47-.82-4.12-1.65-2-.82-3.29,2-2.47,2-3.7a17.43,17.43,0,0,0-.41-3.05s-.82.42,1.65-2.47,2.06-3.29,1.65-5.35-.83-2.47.82-2.88,2.06-2.88,2.06-2.88a10.38,10.38,0,0,1,6.33,4.12h7l2.06-3.3-.41-4.94,2.47-3.86s.66,1.64,3.29,1.23c-.41.41,10.45-4.78,15.39,2.63.42,0,11.28-3,11.28-3l7.41,3.87h2.47s5.35,1.23,3.29,7.82c.41,1.23-4.37,9.47,5.51,9.47,0,0,.42,5.51-1.23,7.15s-1,2.47-2.63,3.71-1.65,2.47-3.29,2.47-1.24-1.24-2.89,0-.41,1.23-3.7.82-2.88-.41-4.53.83-1.23.41-3.29,1.64-.57,2.06-3,2.06-.42-.41-3.71-1.23-1.65-2.47-4.12-.83-3.29,2.47-5.76,1.65-3.45-3.29-7.16-2.06-3.7.66-4.53,2.88.41,3.87-2.47,3.46-.41,1.64-2.47,2.47-3.29-1.24-4.53.82-2.05,2.88-.41,4.12,3.3,2.05,4.53,4.11.82,3.3,2.88,4.12,4.12,1.07,5.35,2.47,5.1,4.69,5.52,6.34,1.64,2.47,1.64,4.11a5.05,5.05,0,0,1-2.06,4.12,11.21,11.21,0,0,0-4.27,4.12c-1.65,2.63-.83,1.39-2.47,4.27s-1.65,4.12-3.71,5.77a42.65,42.65,0,0,0-4.94,4.11c-2.06,2.06-5.76,5.19-1.23,7.82s6.17,6.34,9.05,8,6.34,4.11,8.4,3.29,6.17-1.24,7.82,0,2.06,2.88,4.53,3.7,6.33,2.06,7.57,2.06,2.47,5.93,1.65,8.81-1.9,6.17-3.3,7.41-3,3.54-3,5.76-.82,3.46-1.24,6.75a9.26,9.26,0,0,0,.42,4.94s-1.65-1.24-7-1.24-8.07-1.23-10.29-1.23-6.34-1.24-10-.82-6-.42-8.24.82-5.1.41-8,2.47-10,2.88-12.92,2.47a86.49,86.49,0,0,0-9.88-.41c-2.06,0-7.66-.41-10.7-.41s-5.11-.83-10.87-.83-9.63-.41-12.51-1.23-7-2.47-11.11-2.06a77.17,77.17,0,0,0-10.46,2.06c-1.64.41-2.47-.41-4.94,1.23s-2.88,2.06-5.76,2.47-4.28,2.47-7.16,1.24a14.74,14.74,0,0,1-3.29-1.65s3.86-1.65,3.86-2.88v-4.53c0-2.06,2.63-3,.42-6.33s-2.64-1.24-2.22-5.36-.83-5.76,0-7.82.57-2.31,2.22-4.53,2-3,1.64-5.51-1.23-3.29,0-4.53a30.39,30.39,0,0,0,2.88-3.7s-2-2.88,0-4.94,2.89-1.4,3.3-5.1.82-4.53.82-7.41-1.65-3.71.41-4.53,2.88-.41,2.88-2.06,2.06-2.88,2.06-2.88,1.65-1,.41-3.45-1.64-2.89-1.23-5.77-.82-3.7,2.06-4.53,3.7-.82,3.7-2.47-1.8-.66.41-4.52,3-3,2.22-5.52-3.29-2.06-1.23-4.11,3.29-3.71,3.7-5.77,2.47-3.45,2.06-6.33-.82-4.12-2.47-4.94-3.45-3.3-4.69-.41,0,1.89-2.06,4.52-1.23,8-4.94,7.16-1.64-3.54-2.05-5.35-2.06-3.45-4.12-6.75a57.69,57.69,0,0,1-3.71-7c-1.64-3.3-2.47-5.52-2-8.4a12.92,12.92,0,0,0-.42-5.35l-4.69-1.65,3.71-9.05,2.63-7.57-1.23-5.36s2.88-2.88,4.52-1.64c-.82-.41,2.47-7.57,7.83-9.22,5.35,1.4,19.5,4.69,22.39,10,.41.82,2.47,6.59,2.47,6.59h4.27l2.88,5.51,9.88-7.16L214.7,284l3.71-3.7a5.42,5.42,0,0,0,4.69-5.52,17.48,17.48,0,0,0,2.88-2l-.41-17.45,1.23-4.12-1.64-2.06-.83-8.23.83-10.87,4.94-1.64,3.29-.41,8.39-2.89h5.35s1.24,3.3-2,6.59-6.75,5.1-5.52,8c.42-.82,2.47,5.35,1.24,8.24.41-.83-1.9,4.52,3.45,4.94a36.42,36.42,0,0,0,4.12-2.47S247.55,256.25,249.19,257.07Z"/><path class="cls-1" d="M249.19,257.07c-.41-.41-3.29,4.12-3.29,4.12a2.28,2.28,0,0,1,0,3.29c-1.65,1.65-1.65,0-2.88,3.71s-1.4,4.94-2.63,6.58-1.65,2.47-4.12,2.06-7.41,1-7.41,1l-1.65,4.11s-1.07.41-3.7,3.71-3.87.41-4.28,3.29a11.91,11.91,0,0,1-2.06,5.76c-1.23,2.06-4.11,2.22-2.06,5.52s.42,2.88.83,6.58,0,5.36.41,7.83.82,4.27,2.47,5.51a50.43,50.43,0,0,0,4.69,2.88s2.47.82,2.88,5.35a7.85,7.85,0,0,0-1.65,4.12c0,2.06,3.3,1.07,1.65,3.7s-2.88,3-2.88,4.69a18.6,18.6,0,0,0,1.65,7.41c1.23,2.47,2.88,2.88,1.23,5.35s-2.88,3.87-2.47,5.1,3.71,3.3,1.65,5.77-2.47.82-2.47,3.7-1.24,3.71-.41,5.35,2.05,2.47,3.7,1.24,4.53-4.53,4.94-6.59,0-4.11,1.24-5.35,2.05-1.49,2.47-3.7.41-1.4,1.23-3-.41-1.23.82-2.88.83,0,2.47-2.06a12.38,12.38,0,0,0,2.22-3.7c.83-1.65.83-2.06,2.06-2.88s2.47-.83,3.71-2.06.41-2.47,2-2.88,2.89-1.4,4.12-4.28.82-2.47.41-4.53,0-2.47-.82-4.12-1.65-2-.82-3.29,2-2.47,2-3.7a17.43,17.43,0,0,0-.41-3.05s-.82.42,1.65-2.47,2.06-3.29,1.65-5.35-.83-2.47.82-2.88,2.06-2.88,2.06-2.88a10.38,10.38,0,0,1,6.33,4.12h7l2.06-3.3-.41-4.94,2.47-3.86s.66,1.64,3.29,1.23c-.41.41,10.45-4.78,15.39,2.63.42,0,11.28-3,11.28-3l7.41,3.87h2.47s5.35,1.23,3.29,7.82c.41,1.23-4.37,9.47,5.51,9.47,0,0,.42,5.51-1.23,7.15s-1,2.47-2.63,3.71-1.65,2.47-3.29,2.47-1.24-1.24-2.89,0-.41,1.23-3.7.82-2.88-.41-4.53.83-1.23.41-3.29,1.64-.57,2.06-3,2.06-.42-.41-3.71-1.23-1.65-2.47-4.12-.83-3.29,2.47-5.76,1.65-3.45-3.29-7.16-2.06-3.7.66-4.53,2.88.41,3.87-2.47,3.46-.41,1.64-2.47,2.47-3.29-1.24-4.53.82-2.05,2.88-.41,4.12,3.3,2.05,4.53,4.11.82,3.3,2.88,4.12,4.12,1.07,5.35,2.47,5.1,4.69,5.52,6.34,1.64,2.47,1.64,4.11a5.05,5.05,0,0,1-2.06,4.12,11.21,11.21,0,0,0-4.27,4.12c-1.65,2.63-.83,1.39-2.47,4.27s-1.65,4.12-3.71,5.77a42.65,42.65,0,0,0-4.94,4.11c-2.06,2.06-5.76,5.19-1.23,7.82s6.17,6.34,9.05,8,6.34,4.11,8.4,3.29,6.17-1.24,7.82,0,2.06,2.88,4.53,3.7,6.33,2.06,7.57,2.06,2.47,5.93,1.65,8.81-1.9,6.17-3.3,7.41-3,3.54-3,5.76-.82,3.46-1.24,6.75a9.26,9.26,0,0,0,.42,4.94s-1.65-1.24-7-1.24-8.07-1.23-10.29-1.23-6.34-1.24-10-.82-6-.42-8.24.82-5.1.41-8,2.47-10,2.88-12.92,2.47a86.49,86.49,0,0,0-9.88-.41c-2.06,0-7.66-.41-10.7-.41s-5.11-.83-10.87-.83-9.63-.41-12.51-1.23-7-2.47-11.11-2.06a77.17,77.17,0,0,0-10.46,2.06c-1.64.41-2.47-.41-4.94,1.23s-2.88,2.06-5.76,2.47-4.28,2.47-7.16,1.24a14.74,14.74,0,0,1-3.29-1.65s3.86-1.65,3.86-2.88v-4.53c0-2.06,2.63-3,.42-6.33s-2.64-1.24-2.22-5.36-.83-5.76,0-7.82.57-2.31,2.22-4.53,2-3,1.64-5.51-1.23-3.29,0-4.53a30.39,30.39,0,0,0,2.88-3.7s-2-2.88,0-4.94,2.89-1.4,3.3-5.1.82-4.53.82-7.41-1.65-3.71.41-4.53,2.88-.41,2.88-2.06,2.06-2.88,2.06-2.88,1.65-1,.41-3.45-1.64-2.89-1.23-5.77-.82-3.7,2.06-4.53,3.7-.82,3.7-2.47-1.8-.66.41-4.52,3-3,2.22-5.52-3.29-2.06-1.23-4.11,3.29-3.71,3.7-5.77,2.47-3.45,2.06-6.33-.82-4.12-2.47-4.94-3.45-3.3-4.69-.41,0,1.89-2.06,4.52-1.23,8-4.94,7.16-1.64-3.54-2.05-5.35-2.06-3.45-4.12-6.75a57.69,57.69,0,0,1-3.71-7c-1.64-3.3-2.47-5.52-2-8.4a12.92,12.92,0,0,0-.42-5.35l-4.69-1.65,3.71-9.05,2.63-7.57-1.23-5.36s2.88-2.88,4.52-1.64c-.82-.41,2.47-7.57,7.83-9.22,5.35,1.4,19.5,4.69,22.39,10,.41.82,2.47,6.59,2.47,6.59h4.27l2.88,5.51,9.88-7.16L214.7,284l3.71-3.7a5.42,5.42,0,0,0,4.69-5.52,17.48,17.48,0,0,0,2.88-2l-.41-17.45,1.23-4.12-1.64-2.06-.83-8.23.83-10.87,4.94-1.64,3.29-.41,8.39-2.89h5.35s1.24,3.3-2,6.59-6.75,5.1-5.52,8c.42-.82,2.47,5.35,1.24,8.24.41-.83-1.9,4.52,3.45,4.94a36.42,36.42,0,0,0,4.12-2.47S247.55,256.25,249.19,257.07Z"/><path class="cls-1" d="M225.16,376c-.42,0-2.47-2.47-2.47-2.47v-7l3.7-3.3-2.47-4.53v-2.22l3.29-4.11s-7.82-12.1-.82-16.22c0-.82-3.29-4.11,0-7.82-.41.41.57-2.88-2.88-5.35a57,57,0,0,1-6.34-5.35l-.82-9.63v-5.76l-2.06-4.12s4.53-3.46,5.35-10.87c0,.83,7.16-3.54,9.22-9.46.41.82,4-2.79,9.06-1.4,1.23.41,4.27-4.94,5.1-8.23,0-.41,2.88-3.71,2.88-3.71l1.23-2.47-1.23-.82,3.29-4.12,3.3.41s6.83,2.89,8.23,7.83c-1.65,1.23-3.71,1.64-4.53,4.94s-2.06,4.69-1.65,7.15,1.24,4.53-.41,6.59-2.88,4.94-2.47,7.41a14.48,14.48,0,0,0,8.65,11.69c.41.41-3.3,3.29-3.3,3.29l.83,5.35-3.71,4.94s.83,4.28-.41,5.1-2.47,1.24-.41,4.94a9.3,9.3,0,0,1-.41,9.88,10.62,10.62,0,0,1-3.3,3.05l-3.29,4.11-3.7,1.24-3.87,7.41L235.86,354l-1.24,8.4-2.05.41S228.45,373.55,225.16,376Z"/><path class="cls-1" d="M225.16,376c-.42,0-2.47-2.47-2.47-2.47v-7l3.7-3.3-2.47-4.53v-2.22l3.29-4.11s-7.82-12.1-.82-16.22c0-.82-3.29-4.11,0-7.82-.41.41.57-2.88-2.88-5.35a57,57,0,0,1-6.34-5.35l-.82-9.63v-5.76l-2.06-4.12s4.53-3.46,5.35-10.87c0,.83,7.16-3.54,9.22-9.46.41.82,4-2.79,9.06-1.4,1.23.41,4.27-4.94,5.1-8.23,0-.41,2.88-3.71,2.88-3.71l1.23-2.47-1.23-.82,3.29-4.12,3.3.41s6.83,2.89,8.23,7.83c-1.65,1.23-3.71,1.64-4.53,4.94s-2.06,4.69-1.65,7.15,1.24,4.53-.41,6.59-2.88,4.94-2.47,7.41a14.48,14.48,0,0,0,8.65,11.69c.41.41-3.3,3.29-3.3,3.29l.83,5.35-3.71,4.94s.83,4.28-.41,5.1-2.47,1.24-.41,4.94a9.3,9.3,0,0,1-.41,9.88,10.62,10.62,0,0,1-3.3,3.05l-3.29,4.11-3.7,1.24-3.87,7.41L235.86,354l-1.24,8.4-2.05.41S228.45,373.55,225.16,376Z"/><path class="cls-1" d="M305.65,416.91l2.6-2.33s-2.34-2.6,1.81-3.12,4.16,1,4.68-1.82,0-3.11,2.59-3.89,3.89-1.82,4.15-2.85-3-1.21,1.91-3.12,6.23-4.5,6.23-4.5,3.11-2.85,3.37-5.45-2.08-2.59,0-4.93.52-1.47,2.08-4.67,2.85-2.68,3.89-5.54,1-.26,1.82-3.63.17-2.08,1.55-4.93.35-2.86,2.69-3.12,4.93.09,7.27-2.59,3.63-1.65,3.89-4.76-.52-2.08,1.56-4.68-1.13-2.07,2.33-3.37,4.24.26,6.06-1.82,3.11-2.85,4.15-4.67,1.56-4.24,3.63-5.54a48.4,48.4,0,0,0,4.69-3.51l-.53-13.1s-8-5.82-8.53-7.24-6.18-22.39-6.18-22.39l-.95-.91-3.74.09-6.58-1.65L350.44,291l-1.65,13.75L326.4,317.09l.1,4.48a28.87,28.87,0,0,1-4,6.38c-2.35,2.7-.86,3-3.29,2.47s-1-1-2.89,0a7,7,0,0,1-3.7.82l-2.86-.07s-.49,0-1.67.9-2.29.55-3.29,1.64a6.76,6.76,0,0,1-1.52,1.35l-2.69.52-4.93-2.07a14.37,14.37,0,0,0-3.63,1.55c-2.34,1.3-3.64,1.3-4.93.52s-3-2.59-4.42-2.33-3.2.78-3.2.78-2.62.33-3,2.15.67,2.87-1.67,3.38-2.34.78-2.34.78,1.52,1.71-.93,1.77-3-1.27-4.53.82-1.54,3.12-1.54,3.12,5.45,3.64,6.22,6,2.86,3.64,4.94,4.41a14.75,14.75,0,0,1,5.79,4.76c1.3,1.82,4.57,5.71,4.1,7s.14,3.12-3.06,4.93-4.24,3.55-4.5,4.68-1.3,4.49-2.59,6.05-2.34,2.34-3.64,3.9-5.19,4.67-5.71,5.71-2.85,2.94,1.56,5.79c3.63,2.34,6,6,9.34,8.05s5.3,2.68,7.37,2.38,5.79-2.55,7.82,0,7.57,4.63,9.91,5.15S305.65,416.91,305.65,416.91Z"/><path class="cls-1" d="M305.65,416.91l2.6-2.33s-2.34-2.6,1.81-3.12,4.16,1,4.68-1.82,0-3.11,2.59-3.89,3.89-1.82,4.15-2.85-3-1.21,1.91-3.12,6.23-4.5,6.23-4.5,3.11-2.85,3.37-5.45-2.08-2.59,0-4.93.52-1.47,2.08-4.67,2.85-2.68,3.89-5.54,1-.26,1.82-3.63.17-2.08,1.55-4.93.35-2.86,2.69-3.12,4.93.09,7.27-2.59,3.63-1.65,3.89-4.76-.52-2.08,1.56-4.68-1.13-2.07,2.33-3.37,4.24.26,6.06-1.82,3.11-2.85,4.15-4.67,1.56-4.24,3.63-5.54a48.4,48.4,0,0,0,4.69-3.51l-.53-13.1s-8-5.82-8.53-7.24-6.18-22.39-6.18-22.39l-.95-.91-3.74.09-6.58-1.65L350.44,291l-1.65,13.75L326.4,317.09l.1,4.48a28.87,28.87,0,0,1-4,6.38c-2.35,2.7-.86,3-3.29,2.47s-1-1-2.89,0a7,7,0,0,1-3.7.82l-2.86-.07s-.49,0-1.67.9-2.29.55-3.29,1.64a6.76,6.76,0,0,1-1.52,1.35l-2.69.52-4.93-2.07a14.37,14.37,0,0,0-3.63,1.55c-2.34,1.3-3.64,1.3-4.93.52s-3-2.59-4.42-2.33-3.2.78-3.2.78-2.62.33-3,2.15.67,2.87-1.67,3.38-2.34.78-2.34.78,1.52,1.71-.93,1.77-3-1.27-4.53.82-1.54,3.12-1.54,3.12,5.45,3.64,6.22,6,2.86,3.64,4.94,4.41a14.75,14.75,0,0,1,5.79,4.76c1.3,1.82,4.57,5.71,4.1,7s.14,3.12-3.06,4.93-4.24,3.55-4.5,4.68-1.3,4.49-2.59,6.05-2.34,2.34-3.64,3.9-5.19,4.67-5.71,5.71-2.85,2.94,1.56,5.79c3.63,2.34,6,6,9.34,8.05s5.3,2.68,7.37,2.38,5.79-2.55,7.82,0,7.57,4.63,9.91,5.15S305.65,416.91,305.65,416.91Z"/><path class="cls-1" d="M299.74,449.12a77.11,77.11,0,0,1,9.54,3c3.64,1.55,8.05,2.85,10.39,2.85a21.21,21.21,0,0,1,5.79,1.3l8.86,2.83s4.81-7,7-8.54a19.44,19.44,0,0,0,4.84-4.5c.69-1.21-.32-2.59,2.39-5.06s3.76-.91,5.57-3.77,3.12-5.19,4.15-7a49.75,49.75,0,0,1,8.66-9.61c2.85-2.16,3.89-2.68,5.71-5.28s5.83-7,5.83-7,3.25-1.54,4.29-3.1.61-3.28,2.94-5.45,4.41-1.9,7.27-8.13,2.59-12.81,2.59-14.88-.51-2.86,1-4.93,1.3-4.16,1.82-6.23,1.21-1.73,4.67-4.68a14,14,0,0,0,4.5-7.09c.52-1.3,1.56-1,3.89-4.15a33.37,33.37,0,0,0,4.42-7A10.56,10.56,0,0,1,420,337.4c2.08-1.3,2.94-2.85,5.28-4.41s7-3.9,7-3.9-3.12-1.55-2.6-3.63-.71-7.52-.71-7.52a8.11,8.11,0,0,1-3.18.77c-1.65,0-5.54-.78-8.66-.78s-2.26-1.5-7,.55-2.77,2.86-7.16,4.53-4.94-.41-4.94-.41-.74.27-3.59,1-7,1.82-8.05,2.6a5.11,5.11,0,0,1-2.35.89l-1.81,4.11s-.84-.62-3.7.83-5.2,2.48-6.24,4-2.6,4-3.12,5a22.56,22.56,0,0,1-4.15,5.19c-1.56,1.3-2.68-2.07-5,1.3s-1.56,1.56-2.33,3.37-.78,2.6-1.56,4.68-3.89,4.76-3.89,4.76.25,1.55-2.6,2.07-6.49,1-6.49,1-2.16,3.89-2.42,6.23a28.45,28.45,0,0,1-.52,3.37l-3.64,3.9a44.83,44.83,0,0,1-1.81,5,19.2,19.2,0,0,1-2.6,4.15s1,5.19-.26,6.49a20.9,20.9,0,0,0-3.11,3.63c-1,1.56-3.81,2.42-5.45,3.46s-3.46,1.56-2.94,2.86a2.55,2.55,0,0,1-.26,2.33s-4.94.78-5.2,2.34-.51,4.15-.51,4.15-3.38-1.3-5.45-.26-.78,3.38-.78,3.38l-2.6,2.33s1.82,1.91,1.56,6.32-.78,3.63-2.6,6.23-2.94,3.37-3.72,6a23.2,23.2,0,0,0-1.3,5.8A63.15,63.15,0,0,0,299.74,449.12Z"/><path class="cls-1" d="M299.74,449.12a77.11,77.11,0,0,1,9.54,3c3.64,1.55,8.05,2.85,10.39,2.85a21.21,21.21,0,0,1,5.79,1.3l8.86,2.83s4.81-7,7-8.54a19.44,19.44,0,0,0,4.84-4.5c.69-1.21-.32-2.59,2.39-5.06s3.76-.91,5.57-3.77,3.12-5.19,4.15-7a49.75,49.75,0,0,1,8.66-9.61c2.85-2.16,3.89-2.68,5.71-5.28s5.83-7,5.83-7,3.25-1.54,4.29-3.1.61-3.28,2.94-5.45,4.41-1.9,7.27-8.13,2.59-12.81,2.59-14.88-.51-2.86,1-4.93,1.3-4.16,1.82-6.23,1.21-1.73,4.67-4.68a14,14,0,0,0,4.5-7.09c.52-1.3,1.56-1,3.89-4.15a33.37,33.37,0,0,0,4.42-7A10.56,10.56,0,0,1,420,337.4c2.08-1.3,2.94-2.85,5.28-4.41s7-3.9,7-3.9-3.12-1.55-2.6-3.63-.71-7.52-.71-7.52a8.11,8.11,0,0,1-3.18.77c-1.65,0-5.54-.78-8.66-.78s-2.26-1.5-7,.55-2.77,2.86-7.16,4.53-4.94-.41-4.94-.41-.74.27-3.59,1-7,1.82-8.05,2.6a5.11,5.11,0,0,1-2.35.89l-1.81,4.11s-.84-.62-3.7.83-5.2,2.48-6.24,4-2.6,4-3.12,5a22.56,22.56,0,0,1-4.15,5.19c-1.56,1.3-2.68-2.07-5,1.3s-1.56,1.56-2.33,3.37-.78,2.6-1.56,4.68-3.89,4.76-3.89,4.76.25,1.55-2.6,2.07-6.49,1-6.49,1-2.16,3.89-2.42,6.23a28.45,28.45,0,0,1-.52,3.37l-3.64,3.9a44.83,44.83,0,0,1-1.81,5,19.2,19.2,0,0,1-2.6,4.15s1,5.19-.26,6.49a20.9,20.9,0,0,0-3.11,3.63c-1,1.56-3.81,2.42-5.45,3.46s-3.46,1.56-2.94,2.86a2.55,2.55,0,0,1-.26,2.33s-4.94.78-5.2,2.34-.51,4.15-.51,4.15-3.38-1.3-5.45-.26-.78,3.38-.78,3.38l-2.6,2.33s1.82,1.91,1.56,6.32-.78,3.63-2.6,6.23-2.94,3.37-3.72,6a23.2,23.2,0,0,0-1.3,5.8A63.15,63.15,0,0,0,299.74,449.12Z"/><path class="cls-1" d="M1,308s22.68,12.86,30.52,16.37,33.61,19.53,46.13,27,19.19,12.92,27.39,18,18,13.7,18.38,21.9.39,9,1.17,12.52a84.91,84.91,0,0,0,2.35,8.59c.78,2.34,2.73,5.11,3.51,9.4a61.44,61.44,0,0,0,2.34,10.15c1.56,5.08-1.95,3.15,1.56,7.84a52.85,52.85,0,0,1,4.3,6.25,58,58,0,0,1,7.45,4.68c4.29,3.13,2.34,5.08,5.46,3.91a21.55,21.55,0,0,0,5-2.61s4.16.22,3.86-2.88.12-3.88.51-6.23,1.4-2.61-.09-4.63a10.3,10.3,0,0,1-2.22-5.36c-.06-1.36-.84-7.22.33-9.56s3.15-1.59,3.54-5.49a37.34,37.34,0,0,0,0-7.34l2.75-2.42V403.4s2.73-2.37,3.12-4.71,1.13-9.33,1.13-9.33l.41-4.53,2-.2,3-4.74.94-1.93-2.34-4.68,2.64-7.14,2.43-.28,1.27-2.19s-.67-3,.41-4.52,2.58-3.27,2.22-5.52-2.5-2.08-1.23-4.11,1.66-1.26,2.05-2.82,1.95-.78,3.12-4.69,2.34-2.76.78-5.88-3.48-8.2-5.46-5.86a21.84,21.84,0,0,0-2.77,3.91,16.31,16.31,0,0,0-2.73,5.1c-.78,2.73-1.31,5-3.39,4.47s-.9-1.32-1.3-4.08-1.95-3.93-2.73-5.49-5.85-8.59-6.64-12.11-1.14-7.45-1.56-9.4-1.2-1.95-2.76-3.12a17.84,17.84,0,0,0-2.34-1.56s-5.29-3.59-7.53-5.31-4-.55-3.7-3.3-1.65-7.57-1.65-7.57l-3.86-3.7s1.61-1.25-2,1.68-9.19,3.85-11.26,4.18-4.06-.88-9.53,1.1-7.8,5.92-11.71,3.55-5.88-2.77-7.06-5.11-4.52-4.19-6.94-5.8-2.43-.06-5.55-1.62-3.75-5-8.53-4.64-5.45-1.19-6.67-3.76a60.05,60.05,0,0,0-5-7.39l-5.84-7.51s-.95,1.41-6,1.41-3.84-3.23-6.8,1.51-1.72,3.71-6.26,5-6.69-.55-7,2.92a6.53,6.53,0,0,1-2.51,4.9s-2.3,3.89-3.75,7.09a19.14,19.14,0,0,1-3.41,5.16l-7.84,5.46s2.74,4.72-2.73,5.5a37.27,37.27,0,0,0-9,2.34Z"/><path class="cls-1" d="M1,308s22.68,12.86,30.52,16.37,33.61,19.53,46.13,27,19.19,12.92,27.39,18,18,13.7,18.38,21.9.39,9,1.17,12.52a84.91,84.91,0,0,0,2.35,8.59c.78,2.34,2.73,5.11,3.51,9.4a61.44,61.44,0,0,0,2.34,10.15c1.56,5.08-1.95,3.15,1.56,7.84a52.85,52.85,0,0,1,4.3,6.25,58,58,0,0,1,7.45,4.68c4.29,3.13,2.34,5.08,5.46,3.91a21.55,21.55,0,0,0,5-2.61s4.16.22,3.86-2.88.12-3.88.51-6.23,1.4-2.61-.09-4.63a10.3,10.3,0,0,1-2.22-5.36c-.06-1.36-.84-7.22.33-9.56s3.15-1.59,3.54-5.49a37.34,37.34,0,0,0,0-7.34l2.75-2.42V403.4s2.73-2.37,3.12-4.71,1.13-9.33,1.13-9.33l.41-4.53,2-.2,3-4.74.94-1.93-2.34-4.68,2.64-7.14,2.43-.28,1.27-2.19s-.67-3,.41-4.52,2.58-3.27,2.22-5.52-2.5-2.08-1.23-4.11,1.66-1.26,2.05-2.82,1.95-.78,3.12-4.69,2.34-2.76.78-5.88-3.48-8.2-5.46-5.86a21.84,21.84,0,0,0-2.77,3.91,16.31,16.31,0,0,0-2.73,5.1c-.78,2.73-1.31,5-3.39,4.47s-.9-1.32-1.3-4.08-1.95-3.93-2.73-5.49-5.85-8.59-6.64-12.11-1.14-7.45-1.56-9.4-1.2-1.95-2.76-3.12a17.84,17.84,0,0,0-2.34-1.56s-5.29-3.59-7.53-5.31-4-.55-3.7-3.3-1.65-7.57-1.65-7.57l-3.86-3.7s1.61-1.25-2,1.68-9.19,3.85-11.26,4.18-4.06-.88-9.53,1.1-7.8,5.92-11.71,3.55-5.88-2.77-7.06-5.11-4.52-4.19-6.94-5.8-2.43-.06-5.55-1.62-3.75-5-8.53-4.64-5.45-1.19-6.67-3.76a60.05,60.05,0,0,0-5-7.39l-5.84-7.51s-.95,1.41-6,1.41-3.84-3.23-6.8,1.51-1.72,3.71-6.26,5-6.69-.55-7,2.92a6.53,6.53,0,0,1-2.51,4.9s-2.3,3.89-3.75,7.09a19.14,19.14,0,0,1-3.41,5.16l-7.84,5.46s2.74,4.72-2.73,5.5a37.27,37.27,0,0,0-9,2.34Z"/></svg>