<?xml version="1.0" encoding="utf-8"?>
<!-- Generator: Adobe Illustrator 25.1.0, SVG Export Plug-In . SVG Version: 6.00 Build 0)  -->
<svg version="1.1" id="Layer_1" xmlns="http://www.w3.org/2000/svg" xmlns:xlink="http://www.w3.org/1999/xlink" x="0px" y="0px"
	 viewBox="0 0 512 512" style="enable-background:new 0 0 512 512;" xml:space="preserve">
<style type="text/css">
	.st0{fill-rule:evenodd;clip-rule:evenodd;fill:#E6E7E8;stroke:#FFFFFF;stroke-linejoin:round;}
	.st1{fill-rule:evenodd;clip-rule:evenodd;fill:#A7A9AC;stroke:#FFFFFF;stroke-linejoin:round;}
	.st2{fill-rule:evenodd;clip-rule:evenodd;fill:#FFFFFF;}
</style>
<path class="st0" d="M387.5,162.3c0,0-2.9-0.9-2.6,1.1s1.1,3.3-0.2,3.1s-2.6-1.3-3.1,0c-0.4,1.1-0.9,2.1-1.5,3.1
	c-0.9,1.8,0.7,2.2-0.4,3.5c-0.8,0.7-1.2,1.8-1.1,2.8c0,1.1,0.2,2.9-0.7,3.3s-3.1,0.2-3.5,1.3s1.3,4.4-0.4,4.8
	c-1.5,0.3-3.1,0.4-4.6,0.4c0,0-0.4,0.4-1.3-0.2s-3-0.2-3-0.2s-1.3,1.8-2.4,0.9s0.2-2-2-1.8s-2.6,0.4-3.5,0.4s-0.4,0.7-2.2,0.7
	s-1.5-1.1-1.5-1.1s-1.8-2-2.4-0.4s-1.1,2.2-2.1,1.3s-1.5-1.3-0.9-2.4c0.7-0.9,0.8-2,0.4-3.1c-0.6-1-1.3-1.9-2-2.9
	c-0.9-1.2-1.4-2.6-1.3-4.1c0-2.6,0.4-4.4-0.4-4.4s-1.1,1.3-2.6,1.5s-2.2-1.1-3.7-0.7s-3.3,0.2-3.7,1.1s-1.3,1.1-1.8,2.2
	s-0.9,2.4-2,0.9s0.7-1.5-1.1-2.2s-2.2-0.7-2.9,0.2s-0.4,1.3-2.4,1.3s-1.4-0.4-3.5,0c-1.8,0.3-3.6,0.3-5.5,0.2l-3.3,1.1l0.4,3.3v2.6
	l1.1,1.3h3.1c0.6,1.2,1.5,2.3,2.6,3.1c1.7,1.1,2.1,0.9,2.1,2s-0.2,5.7-0.2,5.7c0.1,1.4,0,2.8-0.4,4.2c-0.7,1.8-0.9,2.4-0.7,3.5
	s1.1,2.9,2.2,3.1s2.6,1.1,4.2,1.3c1.1,0.3,2.2,0.2,3.3-0.2c1.4-0.3,2.8-0.5,4.2-0.4c0,0,4.1,0.4,5.4,1.3c1.6,0.9,3.3,1.5,5,1.9
	c1.5,0.4,5.9,2.2,5.9,2.2s2.6,0.2,2.8,1.5c0.1,1.2-0.1,2.4-0.4,3.5c1.7,0.5,3.5,0.8,5.3,0.7c2.6-0.2,14.7,0.2,17.7-1.1
	c2.5-1.2,5.3-2,8.1-2.4c3.3-0.4,6.8-4.1,6.6-5.7s-0.2-5.1-0.2-5.1s3.7-4,2.4-5.5c-1.3-1.7-2.5-3.6-3.5-5.4c0,0-1.3-3.5,0.2-5.3
	s3.3-2.6,3.5-4.2s0.7-4.1-0.4-5.7s-1.1-2.2-1.5-4.8c-0.3-1.6-0.9-3.1-1.8-4.4L387.5,162.3z"/>
<path class="st0" d="M387.5,162.3c0,0-2.9-0.9-2.6,1.1s1.1,3.3-0.2,3.1s-2.6-1.3-3.1,0c-0.4,1.1-0.9,2.1-1.5,3.1
	c-0.9,1.8,0.7,2.2-0.4,3.5c-0.8,0.7-1.2,1.8-1.1,2.8c0,1.1,0.2,2.9-0.7,3.3s-3.1,0.2-3.5,1.3s1.3,4.4-0.4,4.8
	c-1.5,0.3-3.1,0.4-4.6,0.4c0,0-0.4,0.4-1.3-0.2s-3-0.2-3-0.2s-1.3,1.8-2.4,0.9s0.2-2-2-1.8s-2.6,0.4-3.5,0.4s-0.4,0.7-2.2,0.7
	s-1.5-1.1-1.5-1.1s-1.8-2-2.4-0.4s-1.1,2.2-2.1,1.3s-1.5-1.3-0.9-2.4c0.7-0.9,0.8-2,0.4-3.1c-0.6-1-1.3-1.9-2-2.9
	c-0.9-1.2-1.4-2.6-1.3-4.1c0-2.6,0.4-4.4-0.4-4.4s-1.1,1.3-2.6,1.5s-2.2-1.1-3.7-0.7s-3.3,0.2-3.7,1.1s-1.3,1.1-1.8,2.2
	s-0.9,2.4-2,0.9s0.7-1.5-1.1-2.2s-2.2-0.7-2.9,0.2s-0.4,1.3-2.4,1.3s-1.4-0.4-3.5,0c-1.8,0.3-3.6,0.3-5.5,0.2l-3.3,1.1l0.4,3.3v2.6
	l1.1,1.3h3.1c0.6,1.2,1.5,2.3,2.6,3.1c1.7,1.1,2.1,0.9,2.1,2s-0.2,5.7-0.2,5.7c0.1,1.4,0,2.8-0.4,4.2c-0.7,1.8-0.9,2.4-0.7,3.5
	s1.1,2.9,2.2,3.1s2.6,1.1,4.2,1.3c1.1,0.3,2.2,0.2,3.3-0.2c1.4-0.3,2.8-0.5,4.2-0.4c0,0,4.1,0.4,5.4,1.3c1.6,0.9,3.3,1.5,5,1.9
	c1.5,0.4,5.9,2.2,5.9,2.2s2.6,0.2,2.8,1.5c0.1,1.2-0.1,2.4-0.4,3.5c1.7,0.5,3.5,0.8,5.3,0.7c2.6-0.2,14.7,0.2,17.7-1.1
	c2.5-1.2,5.3-2,8.1-2.4c3.3-0.4,6.8-4.1,6.6-5.7s-0.2-5.1-0.2-5.1s3.7-4,2.4-5.5c-1.3-1.7-2.5-3.6-3.5-5.4c0,0-1.3-3.5,0.2-5.3
	s3.3-2.6,3.5-4.2s0.7-4.1-0.4-5.7s-1.1-2.2-1.5-4.8c-0.3-1.6-0.9-3.1-1.8-4.4L387.5,162.3z"/>
<path class="st0" d="M313.3,181c0,0,0.4,2.4-1.8,2.2s-2.9,0.2-2.9,0.2s-0.4,3.1-1.8,3.3c-1.5,0.4-3.1,0.8-4.6,1.3
	c0,0-0.4,0.2-2.4,1.3s-0.7,1.7-2.6,1.7s-2.2,0.6-2.2,0.6l2.4,2c0,0,0.9,3.1,0.7,4.2s-1.8,2-2,3.5s-2.6,2.7-3.1,4.4s-1.3,5.7-1.3,5.7
	l-2.8,2.3l-2,3.7c-0.7,1.1-1.5,2.1-2.4,3.1c-0.6,0.7-0.8,1.7-0.7,2.6c0.9-0.1,1.9-0.1,2.9,0c0.9,0.2,2.8,0.4,3.3,1.3
	c0.5,1.4,1.5,2.5,2.9,3.1c1.7,0.5,3.2,1.4,4.4,2.6c0.9,1.1,1.3,1.1,1.1,2s-1.8,1.8-1.3,3.5s0,2.6,0.4,3.7s0,1.8,2.6,2s7,0.9,9.6,0.2
	s4.6-0.7,6.8-2c1.4-0.8,2.9-1.6,4.4-2.2l0.4,2.9l-0.7,5.3c0,0,5.3,0.2,6.8-1.8s5-2,5.9-2.2s2.1-2.2,3-3.3c1.4-1.4,2.8-2.7,4.4-3.9
	c1.5-1.3,5-3.5,6.1-5s2.2-6.6,2.9-7.7c0.6-1,1.1-2,1.5-3l1.5-5.1c0,0,1.5-3.7-1.1-4.4s-11.1-3.7-12.5-4.3c-1.6-1-3.5-1.5-5.4-1.3
	c-2.9,0.2-4,0.9-5.5,0.9s-4.8-0.7-5.9-1.5s-3.1-2.4-2-5.5s0.9-4.4,0.9-4.4c-0.2-0.9-0.3-1.9-0.2-2.8c0.2-0.9,0.4-0.7,0.4-1.8v-2.6
	L319,184l-1.3-1.5l-0.9-1.1h-2L313.3,181z"/>
<path class="st0" d="M313.3,181c0,0,0.4,2.4-1.8,2.2s-2.9,0.2-2.9,0.2s-0.4,3.1-1.8,3.3c-1.5,0.4-3.1,0.8-4.6,1.3
	c0,0-0.4,0.2-2.4,1.3s-0.7,1.7-2.6,1.7s-2.2,0.6-2.2,0.6l2.4,2c0,0,0.9,3.1,0.7,4.2s-1.8,2-2,3.5s-2.6,2.7-3.1,4.4s-1.3,5.7-1.3,5.7
	l-2.8,2.3l-2,3.7c-0.7,1.1-1.5,2.1-2.4,3.1c-0.6,0.7-0.8,1.7-0.7,2.6c0.9-0.1,1.9-0.1,2.9,0c0.9,0.2,2.8,0.4,3.3,1.3
	c0.5,1.4,1.5,2.5,2.9,3.1c1.7,0.5,3.2,1.4,4.4,2.6c0.9,1.1,1.3,1.1,1.1,2s-1.8,1.8-1.3,3.5s0,2.6,0.4,3.7s0,1.8,2.6,2s7,0.9,9.6,0.2
	s4.6-0.7,6.8-2c1.4-0.8,2.9-1.6,4.4-2.2l0.4,2.9l-0.7,5.3c0,0,5.3,0.2,6.8-1.8s5-2,5.9-2.2s2.1-2.2,3-3.3c1.4-1.4,2.8-2.7,4.4-3.9
	c1.5-1.3,5-3.5,6.1-5s2.2-6.6,2.9-7.7c0.6-1,1.1-2,1.5-3l1.5-5.1c0,0,1.5-3.7-1.1-4.4s-11.1-3.7-12.5-4.3c-1.6-1-3.5-1.5-5.4-1.3
	c-2.9,0.2-4,0.9-5.5,0.9s-4.8-0.7-5.9-1.5s-3.1-2.4-2-5.5s0.9-4.4,0.9-4.4c-0.2-0.9-0.3-1.9-0.2-2.8c0.2-0.9,0.4-0.7,0.4-1.8v-2.6
	L319,184l-1.3-1.5l-0.9-1.1h-2L313.3,181z"/>
<path class="st0" d="M242.7,171.7l-4,0.6h-1.6l-0.6,3.2l-3.1,0.9H231l-4.5,0.3l-4.4-2.3H220l-3.1,0.3l-2.2,2.3l-2.3,3.7l-4,2.5
	l-3.1,0.3l-3.1,1.9l-4.6,1.9l-4.8,1.2l-5,0.3l-2.8,1.2h-5.7l2.9,5.4c0.4,1.2,0.9,2.3,1.6,3.4c0.9,1.6,2.5,3.3,3.1,5
	c0.5,2.1,0.8,4.2,0.9,6.3c0,0,0.3,5,0.9,6.5s0,6.3,0,6.3s0.6,3.4,0.9,5.6s-0.3,2.2,0.9,3.1c1,0.7,2,1.2,3.1,1.6l1.6,0.3l0.9-2.2
	l3.5-0.3c0,0-1.6-1.2-0.3-2.5s2.5-3.1,4-3.4s2.3,1.6,2.8,0.3c0.4-0.9,0.7-1.8,0.9-2.8l2.2-0.3l0.6-1.7c0,0,0.5,1.4,1.6,1
	c1-0.4,2-1,2.9-1.7l0.9-1.2l1.9-1.6l2.5,1.2c0.7,1.1,1.5,2.1,2.5,2.9c0.7,0.5,1.6,0.8,2.5,0.6l-0.6-3.2l1.9,0.6l1.6-1.2h2.9l0.9,1.9
	l0.6-2.8c0.7-0.2,1.5-0.2,2.2,0c1.2,0.3,1.9-1.2,1.9-1.2l-0.6-2.5l3.1-2.8l0.3-2.8l1.9-1.9l0.6-17.9L242.7,171.7z"/>
<path class="st0" d="M242.6,173.2l0.1-1.5l-4,0.6h-1.6l-0.6,3.2l-3.1,0.9H231l-4.5,0.3l-4.4-2.3H220l-3.1,0.3l-2.2,2.3l-2.3,3.7
	l-4,2.5l-3.1,0.3l-3.1,1.9l-4.6,1.9l-4.8,1.2l-5,0.3l-2.8,1.2h-5.7l2.9,5.4c0.4,1.2,0.9,2.3,1.6,3.4c0.9,1.6,2.5,3.3,3.1,5
	c0.5,2.1,0.8,4.2,0.9,6.3c0,0,0.3,5,0.9,6.5s0,6.3,0,6.3s0.6,3.4,0.9,5.6s-0.3,2.2,0.9,3.1c1,0.7,2,1.2,3.1,1.6l1.6,0.3l0.9-2.2
	l3.5-0.3c0,0-1.6-1.2-0.3-2.5s2.5-3.1,4-3.4s2.3,1.6,2.8,0.3c0.4-0.9,0.7-1.8,0.9-2.8l2.2-0.3l0.6-1.7c0,0,0.5,1.4,1.6,1
	c1-0.4,2-1,2.9-1.7l0.9-1.2l1.9-1.6l2.5,1.2c0.7,1.1,1.5,2.1,2.5,2.9c0.7,0.5,1.6,0.8,2.5,0.6l-0.6-3.2l1.9,0.6l1.6-1.2h2.9l0.9,1.9
	l0.6-2.8c0.7-0.2,1.5-0.2,2.2,0c1.2,0.3,1.9-1.2,1.9-1.2l-0.6-2.5l3.1-2.8l0.3-2.8l1.9-1.9l0.6-17.9L242.6,173.2"/>
<path class="st0" d="M179.1,190.2l-11.4-0.7c0,0-6.7-1.4-9.6-0.7c-2.3,0.4-4.5,1.2-6.6,2.4c-2.3,1.7-4.9,3.1-7.6,4.1
	c-3.4,1.1-12.8,5.2-12.8,6.6s1.6,1.8,2.7,2.3s3.5,1,4.6,3c1.3,2.5,2.1,5.2,2.3,8c0.2,3.3,0.9,6.4,2.3,9.4c1.4,3,4.9,5.5,7.7,6.6
	s12.1,3.6,14,4.1s3.7,1.6,6,0.9c2.2-0.8,4.2-2.3,5.7-4.1c1.1-1.4,2.7-2.1,3.6-1.8c1,0.2,2,0.2,3,0c0.9-0.2,0.7-1.1,1.8-0.5
	s0.7,0.9,2.3,1.1c0.9,0.2,1.8,0,2.5-0.4c0,0-1.1-6.7-0.9-8.2s-1.1-18.4-1.8-19.1c-1.8-2.2-3.3-4.5-4.6-7
	C181.3,193.9,179.1,190.2,179.1,190.2z"/>
<path class="st0" d="M179.1,190.2l-11.4-0.7c0,0-6.7-1.4-9.6-0.7c-2.3,0.4-4.5,1.2-6.6,2.4c-2.3,1.7-4.9,3.1-7.6,4.1
	c-3.4,1.1-12.8,5.2-12.8,6.6s1.6,1.8,2.7,2.3s3.5,1,4.6,3c1.3,2.5,2.1,5.2,2.3,8c0.2,3.3,0.9,6.4,2.3,9.4c1.4,3,4.9,5.5,7.7,6.6
	s12.1,3.6,14,4.1s3.7,1.6,6,0.9c2.2-0.8,4.2-2.3,5.7-4.1c1.1-1.4,2.7-2.1,3.6-1.8c1,0.2,2,0.2,3,0c0.9-0.2,0.7-1.1,1.8-0.5
	s0.7,0.9,2.3,1.1c0.9,0.2,1.8,0,2.5-0.4c0,0-1.1-6.7-0.9-8.2s-1.1-18.4-1.8-19.1c-1.8-2.2-3.3-4.5-4.6-7
	C181.3,193.9,179.1,190.2,179.1,190.2z"/>
<path class="st0" d="M130.8,202.1c-0.9,0.9-1.5,1.9-2,3c-0.9,1.9-1.8,5.6-3.9,7.6s-4.9,5.2-7.1,6.6s-7.3,4.6-7.3,6.7
	c-0.3,2.7-0.8,5.4-1.6,8c-0.5,1.6,2,2.6,3.2,3.5s5,1.4,6.4,4.1s2.5,3.6,1.4,5c-0.8,1.1-1.3,2.3-1.6,3.6c0,0,1.4,2.4,1.1,3.7
	s-1.1,4.5-0.9,6.6c0.5,2.4,1.2,4.8,2,7.1l4,13.2c0,0-7,9-4,11.9s10.5,9.1,10.5,9.1l6.9-9.4c0,0-3.2-3.2-1.4-4.1
	c1.4-0.5,2.6-1.5,3.4-2.7c0.6-1.3,1.1-2.7,1.4-4.2c1.3-0.8,2.5-1.7,3.6-2.7c0.7-0.7,1.3-1.4,1.8-2.3c0.7-0.9,1.7-2.5,3.6-1.1
	s1.9,2.7,3.7,2.7s3.9-1.1,4.6,0.5s2.1,8.7,2.7,11.2s2.4,9.9,6.9,13.3c0,0,12.8-9.9,15.3-11c0,0,3.6-7.1,3.6-9.9l5.9-0.5l3.6-4.1
	l2.6-0.7l0.2-3c0,0,5.7-13.7,5.7-15.3s-1.6-3.9-1.6-3.9c-0.9-0.2-1.7-0.7-2.3-1.4c-0.9-1.1-1.8-2.1-1.8-2.1s0.4,4.2-0.5,5.1
	c-0.9,0.9-1.9,0.2-4,1.6s-1.4,2-3.6,2.3l-8.6,0.9c0,0,0.9-1.1,1.8-2.5s0.5-1.6,0.7-3.9c0-1.2,0.4-2.3,1.1-3.3l-1.6-1.6
	c0,0-1.6-0.7,0-2.5s2.5-1.8,1.8-2.7s-1.8,0-1.8-1.4s0.2-0.9,0.7-2.7s0.9-1.7-0.2-3c-0.7-0.8-1.1-1.9-1.1-3h1.7c0,0,1.1,1.8,1.4,0.5
	s-1.1-1.1,0.2-2.1c0.8-0.6,1.5-1.4,1.8-2.3h-3.2l-2.3-1.4l-0.2,1.1h-5.1l-4.8,3.6c0,0-2.4,3-7.4,1.6S150,231,150,231s-8-1.8-9.8-16
	c0,0-0.3-8.3-4.6-10.1C135.6,204.9,131,203.9,130.8,202.1z"/>
<path class="st0" d="M130.8,202.1c-0.9,0.9-1.5,1.9-2,3c-0.9,1.9-1.8,5.6-3.9,7.6s-4.9,5.2-7.1,6.6s-7.3,4.6-7.3,6.7
	c-0.3,2.7-0.8,5.4-1.6,8c-0.5,1.6,2,2.6,3.2,3.5s5,1.4,6.4,4.1s2.5,3.6,1.4,5c-0.8,1.1-1.3,2.3-1.6,3.6c0,0,1.4,2.4,1.1,3.7
	s-1.1,4.5-0.9,6.6c0.5,2.4,1.2,4.8,2,7.1l4,13.2c0,0-7,9-4,11.9s10.5,9.1,10.5,9.1l6.9-9.4c0,0-3.2-3.2-1.4-4.1
	c1.4-0.5,2.6-1.5,3.4-2.7c0.6-1.3,1.1-2.7,1.4-4.2c1.3-0.8,2.5-1.7,3.6-2.7c0.7-0.7,1.3-1.4,1.8-2.3c0.7-0.9,1.7-2.5,3.6-1.1
	s1.9,2.7,3.7,2.7s3.9-1.1,4.6,0.5s2.1,8.7,2.7,11.2s2.4,9.9,6.9,13.3c0,0,12.8-9.9,15.3-11c0,0,3.6-7.1,3.6-9.9l5.9-0.5l3.6-4.1
	l2.6-0.7l0.2-3c0,0,5.7-13.7,5.7-15.3s-1.6-3.9-1.6-3.9c-0.9-0.2-1.7-0.7-2.3-1.4c-0.9-1.1-1.8-2.1-1.8-2.1s0.4,4.2-0.5,5.1
	c-0.9,0.9-1.9,0.2-4,1.6s-1.4,2-3.6,2.3l-8.6,0.9c0,0,0.9-1.1,1.8-2.5s0.5-1.6,0.7-3.9c0-1.2,0.4-2.3,1.1-3.3l-1.6-1.6
	c0,0-1.6-0.7,0-2.5s2.5-1.8,1.8-2.7s-1.8,0-1.8-1.4s0.2-0.9,0.7-2.7s0.9-1.7-0.2-3c-0.7-0.8-1.1-1.9-1.1-3h1.7c0,0,1.1,1.8,1.4,0.5
	s-1.1-1.1,0.2-2.1c0.8-0.6,1.5-1.4,1.8-2.3h-3.2l-2.3-1.4l-0.2,1.1h-5.1l-4.8,3.6c0,0-2.4,3-7.4,1.6S150,231,150,231s-8-1.8-9.8-16
	c0,0-0.3-8.3-4.6-10.1C135.6,204.9,131,203.9,130.8,202.1z"/>
<path class="st1" d="M110.5,225.3c0,0-5.8,4.3-7.1,5.7s-5.7,4.6-7.5,6.4c-2.1,1.8-3.6,4-4.5,6.6c-0.9,2.2-2.2,4.3-4,5.9
	c-1.1,1.4-1.1,1.7-1.6,3.5s-0.2,2.5-1.1,4.1c-0.8,1.6-1.4,3.4-1.6,5.2c-0.2,1.6-0.9,2-1.6,3.4s-0.7,1-0.7,2.6s0.7,3.4-0.9,4.8
	s-2.5,2-2.5,3.9s-0.7,1.5-1.1,3.6s0.5,2.6-1.1,4.4s-1,1.8-2.1,4.1s-2.5,1.1-2.3,3.2s-0.9,2.9-0.2,4.3s3.2,0.8,2,3s-1.8,1.6-1.6,3.2
	c0,1.2,0.3,2.5,0.7,3.6c0.7,1.8-1.1,3,0.7,4.3s1.7,0.6,2.8,1.4c1,0.9,1.8,1.9,2.5,3l1.4,1.6c0,0,2.5-0.7,3.2,0s2.5-0.7,2.9,1.6
	s-0.7,3.4-0.2,5.2s2,3.5,2,4.4s0.2,1.1,0.2,2.7s0.4,3.2,1.8,3.2s3.5,0.5,4.4,1.6c1.1,1.2,2.7,2,4.3,2.3c1.1,0,4.1,0.2,5,1.4
	s2.8,1.7,3.3,3s1.8,4.6,1.6,7.1c-0.1,1.6-0.5,3.3-1.1,4.8c-0.7,1.8-1.4,2.2-0.7,4.3s1.4,3,0.2,4.4s-4,3-4.6,4.3s-0.5,1.1-0.7,3.2
	s0,3-0.7,5.3s0,1.6-1.6,3.6s-3.2,1.8-4.3,4.8s0.4,3.5-1.1,5.5s-3.5,3.4-3.7,5.2s-0.7,3.9-0.5,5c0.3,2.5,0.1,5-0.4,7.4
	c-0.7,2.5-0.9,2.7-0.7,5.2c0.1,1.8,0.1,3.6,0,5.5c1.3,0.8,2.7,1.3,4.2,1.4c2-0.1,3.9,0.3,5.7,1.2c1.6,0.9,1.4,2.3,4.1,1.1
	s3.3-1.9,4.9-2.4s3.2-1.5,4.1-0.2s0.7,3.5,2.3,4s3.9,0.5,4.6,1.1s1.1,0.9,3.2,1.6s4.9,0.9,5.5,2.5s0.4,2.5,1.8,3.6
	c0.6,0.5,1.2,1,1.8,1.4l1.4,0.2l6.9,14l17.1,11.7c0.1-1,0.1-2,0-3c-0.5-1.1-0.7-2.2-0.7-3.4c0.1-1.8,0-3.6-0.4-5.3
	c-0.4-1.2-0.7-2.6-0.7-3.9c-0.2-2-2.4-4.5-2.4-5.7s0.7-1.5,0-2.5s-1.8-2.6-1.8-2.6v-4.3l2.8-0.5l0.9-1.6c1.1-0.8,1.8-2,1.8-3.4
	c0-2.3-1.8-0.2-1.8-0.2l-1.9-2c0.6-0.6,1.2-1,1.9-1.4c1.1-0.7,1.9-1.7,2.3-3c0.2-1.1,1.1-4.3,1.1-4.3s2.1-2.3,2.3-3.9
	c0.1-1.6-0.1-3.3-0.5-4.9c-0.4-1.1-0.1-2.3,0.7-3.2c0.6-0.9,0.9-1.9,0.9-3c-0.6-0.6-1.1-1.2-1.6-1.8c-0.7-0.9-1.1-2.3-2.1-2.3
	s-2.7-0.2-2.9-1.1s0.1-1.1-1.4-1.1s-3.5-0.1-3.7-2.6s-0.5-5-0.7-6.1c-0.3-1.1-0.7-2.2-1.1-3.2l0.2-2.3c0,0-2.7,1.6-4.3,0
	s-2.1-1.2-2.3-3.5s-0.9-2.7,0.2-4.3s2.3-3.9,2.1-4.8s-0.7-3.5-1.6-4.8c-1.4-2.1-2.1-4.4-2.3-6.9c0-1.6-0.2-1.1-0.7-3.2
	c-0.3-1.3-0.4-2.6-0.2-3.9c0,0,1.6,0.3,1.6-1.1c0-0.9-0.1-1.7-0.2-2.6c-1.1-0.5-2.3-0.9-3.5-1.1c-1.6-0.2-1.8,0.2-4.1-0.5
	c-1.9-0.5-3.8-1.2-5.4-2.3c-1.3-0.8-2.8-1.4-4.3-1.6l-0.2-2.5v-4.3c0-1.5,0.4-2.4-1.2-2.8s-2.7-0.7-2.5-1.6c0.3-1.1,1.4-1.8,2.5-1.6
	c0.8,0.1,1.6-0.1,2.1-0.7c0,0,1.1,0.7,0.2-2.3s-1.8-2.5-1.4-4.8s-0.3-4.4-0.3-6.5s0.6-5,0.3-5.9s-0.9-1.8,0.2-1.6
	c1.6,0.1,3.2,0.1,4.8,0l4.5-0.2l-8-7.1c0,0-5.2-2-1.1-8.9c1.6-2.5,3.4-5.1,3.4-5.1l-6-18.7c-0.7-2.2-0.6-4.5,0.2-6.6
	c0.6-1.9,0.4-3.9-0.7-5.5c0.8-1.4,1.4-2.8,2-4.3c0,0-2.7-5.9-3.9-6.4s-5-0.6-6.1-2.5s-1.4-2.4-0.9-4.9S110.5,225.3,110.5,225.3z"/>
<path class="st0" d="M138.6,341.9c0,0,3.6-1.1,5.9-0.2s2.6,1.2,5,2.1s2.6,1.4,3.9,1.4h5.2c0.4-0.9,0.6-1.8,0.7-2.8
	c0.1-1.1,0.2-2.1,0.2-3.2c0-0.8,0.1-1.5,0.2-2.3l3.6-0.2l1.1-1.4c0,0,0.4,0.2,1.1-0.9s0.2-3.6,0.2-3.6c-0.5-0.9-0.7-2-0.7-3
	c0.2-1.4,0.4-4.5-0.7-5.2c-0.9-0.7-1.7-1.5-2.3-2.5c0,0,0.7-2.3,0.2-3.4s-1.8-2.1,0-4.2s1.6-0.9,2.1-2.7s1.2-2,1.9-3.2
	s1.8-3.6,1.8-3.6l-2.6-2.7c-2.3-3.4-3.9-7.2-4.6-11.2c-0.4-2.5-2.3-9.4-2.3-9.4s0.5-2.5-3.4-1.8c-0.9,0.2-1.8,0.4-2.7,0.5
	c0,0-2.8-6.4-6.4-1.6c-0.2,0.5-3.4,4.1-3.4,4.1l-2.1,1.1l-1.1,4l-2.8,1.8l-1,1.6l1,2.7l1.1,0.5l-7.1,9.4h-10.5l-0.2,6.6l0.5,3.6
	l-0.5,4.2l2.4,5.7c0,0,0.1,1.1-2.1,1.6s-3.4,0.9-3,2.7c1.1,0.5,2.5,0.9,2.5,0.9c0.6,0.4,1,1.1,1,1.9c0,1.4,0.4,7.5,0.4,7.5
	c1.4,0.4,2.8,1,4.1,1.6c1.1,0.7,7.3,2.7,7.3,2.7h2L138.6,341.9z"/>
<path class="st0" d="M138.6,341.9c0,0,3.6-1.1,5.9-0.2s2.6,1.2,5,2.1s2.6,1.4,3.9,1.4h5.2c0.4-0.9,0.6-1.8,0.7-2.8
	c0.1-1.1,0.2-2.1,0.2-3.2c0-0.8,0.1-1.5,0.2-2.3l3.6-0.2l1.1-1.4c0,0,0.4,0.2,1.1-0.9s0.2-3.6,0.2-3.6c-0.5-0.9-0.7-2-0.7-3
	c0.2-1.4,0.4-4.5-0.7-5.2c-0.9-0.7-1.7-1.5-2.3-2.5c0,0,0.7-2.3,0.2-3.4s-1.8-2.1,0-4.2s1.6-0.9,2.1-2.7s1.2-2,1.9-3.2
	s1.8-3.6,1.8-3.6l-2.6-2.7c-2.3-3.4-3.9-7.2-4.6-11.2c-0.4-2.5-2.3-9.4-2.3-9.4s0.5-2.5-3.4-1.8c-0.9,0.2-1.8,0.4-2.7,0.5
	c0,0-2.8-6.4-6.4-1.6c-0.2,0.5-3.4,4.1-3.4,4.1l-2.1,1.1l-1.1,4l-2.8,1.8l-1,1.6l1,2.7l1.1,0.5l-7.1,9.4h-10.5l-0.2,6.6l0.5,3.6
	l-0.5,4.2l2.4,5.7c0,0,0.1,1.1-2.1,1.6s-3.4,0.9-3,2.7c1.1,0.5,2.5,0.9,2.5,0.9c0.6,0.4,1,1.1,1,1.9c0,1.4,0.4,7.5,0.4,7.5
	c1.4,0.4,2.8,1,4.1,1.6c1.1,0.7,7.3,2.7,7.3,2.7h2L138.6,341.9z"/>
<path class="st0" d="M199.7,251.8c0,0-0.9-1.7-0.2-2.6c0.7-1.1,1.9-1.9,3.2-2.3c1.4-0.2,3.4,0,5.4-0.7s3.3-0.9,4.6-1.8
	c0.9-0.6,1.9-1.2,3-1.6h6.6c0,0,2.7,24.3,2,27.2c-1,3.2-2.4,6.3-4.3,9.1c-0.9,1.1-2.5,3.3-2.5,3.3l6.6,7.7c0,0-1.4,7.4,0,8
	s0.4,1,2-0.5c1.3-1.2,3.1-1.8,4.9-1.7c1.6,0,5.5,0.4,6.8,1.1s3.4,4,3.4,4s0.7,4.5,1.1,2.7c0.3-1.3,0.7-2.6,1.2-3.9
	c0.3-1.1,0.4-2.2,0.2-3.3c0,0,5-0.2,6.4-0.5s10.5,1.2,12.6,1.5c3.2,0.6,6.5,1,9.8,1.1c4.4,0,11.5,0.5,11.5,0.5l0.7-1.4
	c0,0,2.7-2.1,2.7-3.7s-1.1-1.4,0.2-3.4c0.7-1,1.3-2.2,1.7-3.4c0,0,1.4-2.5,2.7-1.1c1.1,1.1,2.6,1.7,4.1,1.8c0.9,0,2.3-0.9,2-1.8
	s0-0.7,1.1-1.6s3.2-1.8,3.4-0.9s1.9,4.3,3.5,3.4s4.3-2.9,4.1-4.3s-2.5-1.9,1.1-1.9s6.4-1.4,5.9-2.7s-3-1.6-2.3-2.3s1.8-0.5,2.3-1.4
	s-0.3-2,1.8-2.3s5.1,0.2,5.5-0.9s2.3-3,1.1-4.6s-2.7-1.8-2.3-5s0.9-4.8-0.7-6.1s-1.9-3-3.3-5.3s-2.1-2.7-0.9-3.4
	c0.8-0.5,1.5-1.1,2.1-1.8l0.5-4.8l-0.5-3c0,0-6.6,4.1-13.5,4.1c0,0-10.1,1.4-10.1-3.6c-0.7-2.1-0.7-4.4,0.5-5.3
	c0.2,0,0.9-1.6-1.1-2.7s-5-2-5.7-3.6c-0.7-1.8-3.3-3.4-6.7-3.2c0.2-0.2-0.7-1.4,1.6-4c0.2,0,0.2-1.1-2.7-1.4l-1.1-4.1l-9.6-1.1
	c0,0-9.3-1.8-10.2-2s-4.2-1.6-4.2-1.6l-3.2-4.2l-5.9,1.7h-8.3l-2.1,1.9l-0.2,2.5l-3.1,3.1l0.6,2.4c0,0-1.1,1.5-2.1,1.2
	c-0.7-0.1-1.4-0.1-2.1,0.1l-0.3,2.6l-0.8-1.5l-3-0.1l-1.7,1.3L224,219l0.6,3.3c0,0-2.4,0.7-4.8-3.5c-0.4-0.3-2.6-1.3-2.6-1.3l-2,1.7
	l-1.3,1.5l-2.8,1.4c-0.6-0.1-1.1-0.5-1.3-1.1c-0.4,0.8-0.7,1.6-0.7,1.6l-2.2,0.3l-1.2,3.4c-0.3-0.3-0.6-0.5-1-0.6
	c-0.8-0.3-1.2-0.5-1.8-0.2c-0.8,0.4-1.6,0.9-2.2,1.5c-0.6,0.6-1.2,1.3-1.7,1.9c-0.2,0.4-0.3,0.9-0.1,1.3c0.2,0.3,0.8,1.1,0.8,1.1
	l-3.7,0.3l-1,2.1c0,0-4.3-1-5.3-2.9l-0.6,0.1l-0.6,1.3l-1.5,1.5l0.2,0.5l0.1,1.1l-0.4,0.3l-1-0.9l-1.5,0.1c-0.1,1.1,0.3,2.1,1,2.9
	c0.6,0.6,0.9,0.8,0.6,1.9s-0.8,2.9-0.8,2.9s-0.5,1.7,0.4,1.7s2.1,0.8,1.1,1.7s-2.9,2.4-2.2,3.4c0.8,1,2.1,2.3,2.1,2.3
	c-0.7,1.1-1.1,2.4-1.1,3.7c0.1,1,0,2.1-0.5,3l-1.9,2.8c0,0,9.5-0.7,10.2-1.2s1.9-2.3,3.2-2.6s3.1-0.3,3.2-2.3
	C199.7,254,199.7,252.9,199.7,251.8z"/>
<path class="st0" d="M199.7,251.8c0,0-0.9-1.7-0.2-2.6c0.7-1.1,1.9-1.9,3.2-2.3c1.4-0.2,3.4,0,5.4-0.7s3.3-0.9,4.6-1.8
	c0.9-0.6,1.9-1.2,3-1.6h6.6c0,0,2.7,24.3,2,27.2c-1,3.2-2.4,6.3-4.3,9.1c-0.9,1.1-2.5,3.3-2.5,3.3l6.6,7.7c0,0-1.4,7.4,0,8
	s0.4,1,2-0.5c1.3-1.2,3.1-1.8,4.9-1.7c1.6,0,5.5,0.4,6.8,1.1s3.4,4,3.4,4s0.7,4.5,1.1,2.7c0.3-1.3,0.7-2.6,1.2-3.9
	c0.3-1.1,0.4-2.2,0.2-3.3c0,0,5-0.2,6.4-0.5s10.5,1.2,12.6,1.5c3.2,0.6,6.5,1,9.8,1.1c4.4,0,11.5,0.5,11.5,0.5l0.7-1.4
	c0,0,2.7-2.1,2.7-3.7s-1.1-1.4,0.2-3.4c0.7-1,1.3-2.2,1.7-3.4c0,0,1.4-2.5,2.7-1.1c1.1,1.1,2.6,1.7,4.1,1.8c0.9,0,2.3-0.9,2-1.8
	s0-0.7,1.1-1.6s3.2-1.8,3.4-0.9s1.9,4.3,3.5,3.4s4.3-2.9,4.1-4.3s-2.5-1.9,1.1-1.9s6.4-1.4,5.9-2.7s-3-1.6-2.3-2.3s1.8-0.5,2.3-1.4
	s-0.3-2,1.8-2.3s5.1,0.2,5.5-0.9s2.3-3,1.1-4.6s-2.7-1.8-2.3-5s0.9-4.8-0.7-6.1s-1.9-3-3.3-5.3s-2.1-2.7-0.9-3.4
	c0.8-0.5,1.5-1.1,2.1-1.8l0.5-4.8l-0.5-3c0,0-6.6,4.1-13.5,4.1c0,0-10.1,1.4-10.1-3.6c-0.7-2.1-0.7-4.4,0.5-5.3
	c0.2,0,0.9-1.6-1.1-2.7s-5-2-5.7-3.6c-0.7-1.8-3.3-3.4-6.7-3.2c0.2-0.2-0.7-1.4,1.6-4c0.2,0,0.2-1.1-2.7-1.4l-1.1-4.1l-9.6-1.1
	c0,0-9.3-1.8-10.2-2s-4.2-1.6-4.2-1.6l-3.2-4.2l-5.9,1.7h-8.3l-2.1,1.9l-0.2,2.5l-3.1,3.1l0.6,2.4c0,0-1.1,1.5-2.1,1.2
	c-0.7-0.1-1.4-0.1-2.1,0.1l-0.3,2.6l-0.8-1.5l-3-0.1l-1.7,1.3L224,219l0.6,3.3c0,0-2.4,0.7-4.8-3.5c-0.4-0.3-2.6-1.3-2.6-1.3l-2,1.7
	l-1.3,1.5l-2.8,1.4c-0.6-0.1-1.1-0.5-1.3-1.1c-0.4,0.8-0.7,1.6-0.7,1.6l-2.2,0.3l-1.2,3.4c-0.3-0.3-0.6-0.5-1-0.6
	c-0.8-0.3-1.2-0.5-1.8-0.2c-0.8,0.4-1.6,0.9-2.2,1.5c-0.6,0.6-1.2,1.3-1.7,1.9c-0.2,0.4-0.3,0.9-0.1,1.3c0.2,0.3,0.8,1.1,0.8,1.1
	l-3.7,0.3l-1,2.1c0,0-4.3-1-5.3-2.9l-0.6,0.1l-0.6,1.3l-1.5,1.5l0.2,0.5l0.1,1.1l-0.4,0.3l-1-0.9l-1.5,0.1c-0.1,1.1,0.3,2.1,1,2.9
	c0.6,0.6,0.9,0.8,0.6,1.9s-0.8,2.9-0.8,2.9s-0.5,1.7,0.4,1.7s2.1,0.8,1.1,1.7s-2.9,2.4-2.2,3.4c0.8,1,2.1,2.3,2.1,2.3
	c-0.7,1.1-1.1,2.4-1.1,3.7c0.1,1,0,2.1-0.5,3l-1.9,2.8c0,0,9.5-0.7,10.2-1.2s1.9-2.3,3.2-2.6s3.1-0.3,3.2-2.3
	C199.7,254,199.7,252.9,199.7,251.8z"/>
<path class="st0" d="M138.6,342c0,0,2.7-1.9,7,0.1s7.4,3.1,7.4,3.1l5.6-0.1l-0.9,1.3l-0.7,1.9l-1.4,2c0,0,0.7,2.1,1.6,2.3
	c1.1,0.3,2.3,0.3,3.4,0.1c0.6,1.4,0.9,2.6,0.9,2.6l2.2,2.6c0,0.8-0.2,1.5-0.6,2.2c-0.6,0.7-2.1,2.2-2.1,3c-0.1,1.1,0,2.1,0.1,3.2
	c0.2,0.7,0.3,1.5,0.4,2.2c0.1,0.7,0.2,1.9,1.1,2.2s2.5,1.3,1.6,2.7c-0.9,1.8-1.4,3.8-1.4,5.8c0,1.2-0.2,1.4-0.2,1.4l-2.3,4.5
	l-0.6,4.9l-0.8,1.4c0,0-3.3-0.2-2.7,1.6c-0.1,0.2-3.2,0.4-3.2-1.3c-0.1-0.6-0.7-1.1-1.4-0.9c0,0,0,0,0,0c-1.1,0.1-3.4,0.1-3.6-2.3
	s-0.6-7.1-1.9-9.5c0-0.7,0.1-1.5,0.2-2.2c0,0-3.4,1.4-4.4,0c-0.7-0.4-1.3-1-1.6-1.8l-0.9-5c0,0,3-4.1,2.7-6
	c-0.4-2.2-1.2-4.3-2.3-6.3c-1.1-1.6-1.4-2.1-1.4-3.9c0-1.3-0.1-2.5-0.5-3.8c-0.4-1.4-0.6-3-0.5-4.5c0.7-0.2,1.6-0.3,1.4-2
	C138.7,343.3,138.6,342,138.6,342z"/>
<path class="st0" d="M138.6,342c0,0,2.7-1.9,7,0.1s7.4,3.1,7.4,3.1l5.6-0.1l-0.9,1.3l-0.7,1.9l-1.4,2c0,0,0.7,2.1,1.6,2.3
	c1.1,0.3,2.3,0.3,3.4,0.1c0.6,1.4,0.9,2.6,0.9,2.6l2.2,2.6c0,0.8-0.2,1.5-0.6,2.2c-0.6,0.7-2.1,2.2-2.1,3c-0.1,1.1,0,2.1,0.1,3.2
	c0.2,0.7,0.3,1.5,0.4,2.2c0.1,0.7,0.2,1.9,1.1,2.2s2.5,1.3,1.6,2.7c-0.9,1.8-1.4,3.8-1.4,5.8c0,1.2-0.2,1.4-0.2,1.4l-2.3,4.5
	l-0.6,4.9l-0.8,1.4c0,0-3.3-0.2-2.7,1.6c-0.1,0.2-3.2,0.4-3.2-1.3c-0.1-0.6-0.7-1.1-1.4-0.9c0,0,0,0,0,0c-1.1,0.1-3.4,0.1-3.6-2.3
	s-0.6-7.1-1.9-9.5c0-0.7,0.1-1.5,0.2-2.2c0,0-3.4,1.4-4.4,0c-0.7-0.4-1.3-1-1.6-1.8l-0.9-5c0,0,3-4.1,2.7-6
	c-0.4-2.2-1.2-4.3-2.3-6.3c-1.1-1.6-1.4-2.1-1.4-3.9c0-1.3-0.1-2.5-0.5-3.8c-0.4-1.4-0.6-3-0.5-4.5c0.7-0.2,1.6-0.3,1.4-2
	C138.7,343.3,138.6,342,138.6,342z"/>
<path class="st0" d="M329.9,355.3c0.3,2.5,0.4,5.1,0.2,7.7c-0.2,2.9,0.5,6,0.7,7.9s1,2.9,1.9,4.8s1,4.3-0.5,5.8s-2.4,1-4.5,1.2
	c-1.5,0.2-3,0.7-4.3,1.4c0,0-1.2,0-2.4,1.7c-0.7,1.2-1.7,2.2-2.9,2.9c-1.7,1-3.3,2.1-4.8,3.4c-1.2,1.2,0.5,2.4-1.9,3.1
	s-1.9,1.9-3.4,1.2s-2.4-2.1-3.4-1.2s0,2.1-1.9,2.6s-1.9-0.7-3.4,0.5c-1.4,1.1-2.7,2.3-3.8,3.6c-1.3,1.4-2.9,2.6-4.5,3.6
	c-0.7,0.7-1.1,1.7-1.2,2.6c-0.3,0.7,0.7,2.9,0,4.5s-0.5,1.9-1.4,2.9s-1.2,0.7-2.2,2.6s-1.9,2.2-1.7,3.6s1.4,2.9,2.6,4.3
	s1.4,2.6,2.6,3.8s4.3,2.4,3.8,4.1s-2.4,2.2-2.6,3.4s-0.2,8.4-0.2,9.3s-0.7,7.9,0.2,8.6s1.4,1.4,0.7,3.6s-2.6,3.8-0.2,6.7
	c-0.2,3.1-1,4.5-1,6s1,2.6-0.2,4.3s-2.1,3.4-1.7,4.8s1.7,3.4,1,4.5c-0.7,1.3-1.8,2.3-3.1,2.9c-1.4,0.5-3.6-0.2-4.5,0.5
	s-1.9,0.2-2.9-0.5s0.5-0.2-1.7-2.9c-0.8-1.1-1.8-2.2-2.9-3.1c-1.2-1.2-2.6-0.5-2.6-2.6s0.5-2.1-0.7-2.9s-1.2,0.2-2.6,0s-1-0.2-1.9-1
	s-1.7-0.2-3.1-1s-1.9-0.2-2.4-1.7s0.2-2.4-1.2-2.4s-2.6-0.2-3.8-0.2c-0.9,0-1.7-0.2-2.4-0.7c-1-0.5-1.2,0.5-1.9-0.5
	c-0.7-1.2-0.7-2.7,0-3.8c0.6-1,0.9-2.2,0.9-3.4c0.1-1.8,0.5-3.6,1-5.3c0.9-1.5,1.6-3.1,1.9-4.8c1-3.6,1.4-5.5,2.6-9.3
	s2.2-7.9,2.9-10.3s0.7-4.3,1.4-6.2s0.5-3.4,0.7-4.5c0.6-2.2,0.1-4.5-1.4-6.2c-2.1-2.4-2.9-4.3-4.8-4.8s-3.1-1.2-3.8,0.2
	s-0.9,3.1-1.7,4.1c-0.8,1.2-1.5,2.5-2.2,3.8c-0.6,1.1-1.1,2.2-1.4,3.4c-0.2,1.2,0,2.2-1,2.6s-2.4,0.2-4.3,0.2c-1,0-1.9,0.1-2.9,0.2
	c-0.6,1-1.8,1.4-2.9,1.2c-2.1-0.2-3.8-0.5-3.8-0.5l-1.9-1.2l-2.9-1.2c0,0-2.9-4.8,2.2-12.7c0.9-2.1,1.5-4.4,1.7-6.7
	c0-2.9,1.7-6.7,1.9-7.9s1.9-7.4,1.9-7.4s-2.1-2.9,2.2-7.7c1.2-1.9,4.8-6.7,6-7.4c1-1.9,1.9-7.4,4.1-5.3c0.7,1.2,0.9,3.6,2.9,1.7
	c1.9-1.4,8.1-5.5,8.1-5.5l16-14.6c1.1-0.4,2.4-0.5,3.6-0.2c1.7,0.5,3.4-0.2,5-2.6c0.9,0.4,1.9,0.7,2.9,1l1.3-1.9l3.8-4.1
	c0,0,1.4-0.7,2.4,1.2c0.5,1,0.9,2,1.2,3.1l4.3,2.4c0.9,0.4,1.8,0.9,2.6,1.4l4.8,3.6l0.7,3.1l0.7,1.4h1.7l2.9-1l2.1-0.5l1.7-3.6
	l1.7,0.2l2.9,1.2l1.7-0.2l1.4,0.2l2.4,2.4l0.7-1.9C327.7,355.1,329.4,352,329.9,355.3z"/>
<path class="st0" d="M329.9,355.3c0.3,2.5,0.4,5.1,0.2,7.7c-0.2,2.9,0.5,6,0.7,7.9s1,2.9,1.9,4.8s1,4.3-0.5,5.8s-2.4,1-4.5,1.2
	c-1.5,0.2-3,0.7-4.3,1.4c0,0-1.2,0-2.4,1.7c-0.7,1.2-1.7,2.2-2.9,2.9c-1.7,1-3.3,2.1-4.8,3.4c-1.2,1.2,0.5,2.4-1.9,3.1
	s-1.9,1.9-3.4,1.2s-2.4-2.1-3.4-1.2s0,2.1-1.9,2.6s-1.9-0.7-3.4,0.5c-1.4,1.1-2.7,2.3-3.8,3.6c-1.3,1.4-2.9,2.6-4.5,3.6
	c-0.7,0.7-1.1,1.7-1.2,2.6c-0.3,0.7,0.7,2.9,0,4.5s-0.5,1.9-1.4,2.9s-1.2,0.7-2.2,2.6s-1.9,2.2-1.7,3.6s1.4,2.9,2.6,4.3
	s1.4,2.6,2.6,3.8s4.3,2.4,3.8,4.1s-2.4,2.2-2.6,3.4s-0.2,8.4-0.2,9.3s-0.7,7.9,0.2,8.6s1.4,1.4,0.7,3.6s-2.6,3.8-0.2,6.7
	c-0.2,3.1-1,4.5-1,6s1,2.6-0.2,4.3s-2.1,3.4-1.7,4.8s1.7,3.4,1,4.5c-0.7,1.3-1.8,2.3-3.1,2.9c-1.4,0.5-3.6-0.2-4.5,0.5
	s-1.9,0.2-2.9-0.5s0.5-0.2-1.7-2.9c-0.8-1.1-1.8-2.2-2.9-3.1c-1.2-1.2-2.6-0.5-2.6-2.6s0.5-2.1-0.7-2.9s-1.2,0.2-2.6,0s-1-0.2-1.9-1
	s-1.7-0.2-3.1-1s-1.9-0.2-2.4-1.7s0.2-2.4-1.2-2.4s-2.6-0.2-3.8-0.2c-0.9,0-1.7-0.2-2.4-0.7c-1-0.5-1.2,0.5-1.9-0.5
	c-0.7-1.2-0.7-2.7,0-3.8c0.6-1,0.9-2.2,0.9-3.4c0.1-1.8,0.5-3.6,1-5.3c0.9-1.5,1.6-3.1,1.9-4.8c1-3.6,1.4-5.5,2.6-9.3
	s2.2-7.9,2.9-10.3s0.7-4.3,1.4-6.2s0.5-3.4,0.7-4.5c0.6-2.2,0.1-4.5-1.4-6.2c-2.1-2.4-2.9-4.3-4.8-4.8s-3.1-1.2-3.8,0.2
	s-0.9,3.1-1.7,4.1c-0.8,1.2-1.5,2.5-2.2,3.8c-0.6,1.1-1.1,2.2-1.4,3.4c-0.2,1.2,0,2.2-1,2.6s-2.4,0.2-4.3,0.2c-1,0-1.9,0.1-2.9,0.2
	c-0.6,1-1.8,1.4-2.9,1.2c-2.1-0.2-3.8-0.5-3.8-0.5l-1.9-1.2l-2.9-1.2c0,0-2.9-4.8,2.2-12.7c0.9-2.1,1.5-4.4,1.7-6.7
	c0-2.9,1.7-6.7,1.9-7.9s1.9-7.4,1.9-7.4s-2.1-2.9,2.2-7.7c1.2-1.9,4.8-6.7,6-7.4c1-1.9,1.9-7.4,4.1-5.3c0.7,1.2,0.9,3.6,2.9,1.7
	c1.9-1.4,8.1-5.5,8.1-5.5l16-14.6c1.1-0.4,2.4-0.5,3.6-0.2c1.7,0.5,3.4-0.2,5-2.6c0.9,0.4,1.9,0.7,2.9,1l1.3-1.9l3.8-4.1
	c0,0,1.4-0.7,2.4,1.2c0.5,1,0.9,2,1.2,3.1l4.3,2.4c0.9,0.4,1.8,0.9,2.6,1.4l4.8,3.6l0.7,3.1l0.7,1.4h1.7l2.9-1l2.1-0.5l1.7-3.6
	l1.7,0.2l2.9,1.2l1.7-0.2l1.4,0.2l2.4,2.4l0.7-1.9C327.7,355.1,329.4,352,329.9,355.3z"/>
<path class="st0" d="M282.6,120.7c-0.7,0.8-1.7,1.2-2.8,1.2c-0.5,0-1.1,0.1-1.5,0.3c0,0-1.7,0-1.7-1.2s1.5-3.5,2.5-2.6
	s0.8,1.1,2.1,1.1S283.2,119.9,282.6,120.7z M285.2,108.7c-0.1-2.3-2.1-5-4.4-4.4s-2.9,0.3-3.4,2.1s-0.9,2.3-2.3,1.5
	s-3.4-2.3-4.9-3.1s-2.6-1.4-4.1-0.6s-1.7,1.4-3.2,1.7c-1.2,0.1-2.1,1.1-2.1,2.3c-0.1,1.4,0.7,2.6,2,3.1c1.1,0.2,1.8,1.2,1.8,2.3
	c0.1,1.1,0.6,1,1.7,1.9s2.6,0.5,1.1,2.3s-3.1,2.3-1.8,3.7c0.9-0.8,2.1-1.3,3.4-1.4c1.8,0,3.1-0.5,2.9-2.6s-1.4-2.9-2.4-4.3
	s-2-2.8-0.6-2.4s2.1,1.7,3.5,1.4s3.7,0,4.8,1.1s1.4,3.7,2.9,3.3s1.5-0.9,1.8-2c0.2-1.1,1.2-1.8,2.3-1.6c0,0,0,0,0,0
	C285.2,113,285.4,111,285.2,108.7L285.2,108.7z M242.8,170.1l-0.2,3l-0.5,4.6l-0.5,6.1l-0.2,8.3l-0.2,6.3l-0.2,7.8h7.6l3.3-0.8
	l3-0.7l3.3,3.9l3.6,1.6l3,0.5l4,0.7l3.7,0.9l3.2,0.2l4,0.2l2.8,0.5l0.5,2.3l0.2,2.1l3.2,0.5l2.4-4.2l3.1-2.7l1.6-6.6l2.2-2.4l1-1.9
	c0,0,0.9-1.7,1.4-2.4s-0.3-4.6-0.3-4.6c-0.8-0.5-1.6-1.2-2.4-1.8c-0.8-0.8,3.2-0.9,3.2-0.9c1.1-2.8,7.6-3.9,8.4-4.2s1.2-1,1.7-2.6
	s2.1-0.9,3.4-0.9s1.2-1,1.3-1.8c0-0.5-0.2-1-0.6-1.3l0.1-2.6l-0.6-3.1l3.4-1.3h2.2c1.3,0,2.6-0.1,3.9-0.2c0.8-0.2,1.7-0.1,2.5,0.1
	c0.8,0.2,1.6,0,2.2-0.6c0.5-0.4,1-1.2,1.8-1.4s1.5,0.3,2.3,0.9s-0.1,0.6,0.4,1.4s0.4,0.8,1.3,0.6s0.6-1.3,1.2-1.8
	c0.5-0.5,0.9-1,1.2-1.6l1.6-0.8c0,0,1.9-0.3,2.9-0.4s1.4,0.4,2.8,0.6s2.1-1.2,2.8-1.5s0.4,0.4,0.5,1.4s-0.1,2.9,0,4.4
	s2.4,4.6,3.2,5.7s-0.1,2.9-0.3,3.2s-0.3,1.3,0.8,2.3s1.5-0.5,2.4-1.6s1.9,0.2,2.4,1.3s1.7,0.4,2.7,0.2s0.8-0.3,2-0.5
	c1-0.2,2-0.3,3-0.3c1,0,1,0.4,1,1.3s0.9,0.8,1.8,0.7s0.7-0.6,1.2-1s2.4-0.1,2.4-0.1l1.5,0.7l1.4-0.2c1,0,2-0.1,3-0.3
	c1.7-0.3,1.3-2.1,1-3.2c-0.2-0.8-0.1-1.6,0.4-2.3c0.5-0.8,1.6-0.4,2.9-0.7s0.9-1.7,0.7-2.3c-0.1-1,0.1-2.1,0.5-3
	c0.4-0.6,0.7-1.3,1-2c0.1-0.3,0.1-0.7,0-1c-0.1-0.5,0-1,0.2-1.4c0.2-0.7,0.5-0.9,0.8-1.3c0.3-0.7,0.7-1.4,1.2-2
	c0.5-0.5,1.6,0.1,1.6,0.1c0.5,0.2,1,0.3,1.6,0.3c0.5,0,0.2-0.7,0.2-1.1c-0.1-0.6-0.3-1.1-0.6-1.7c0.2-2.9,2.2-1.4,2.2-1.4
	c0.9-0.9,1.6-2,2.2-3.1c0.9-1.8,2.1,0.6,3.3,1.5s0.9,0.5,4.1-0.5s0.7-1.3,3.5-2.7s2.8-1.2,4.7-2.6s3.7-0.2,5.8,1.4s4.6,0.2,5.5-1.2
	s3-1.6,6.8-3s2.3-3.5,2.3-3.5c0.4-1.1,1-2.1,1.6-3c1.2-1.6,1.1-3.9,1.3-5.7s-0.2-1.9-0.2-3s0.9-2.6,0.9-4s0-1.4,2.1-4.3
	s1.6-3.3,1.9-4c0.6-1.3,1.5-2.5,2.6-3.5c1.2-0.9,1.4-4.2,0.5-5.8s0.2-2,2.1-3.2s0.5-2.6-0.5-3.7s-0.2-2.1,0.5-4.2s2.8-1.2,3.5-4
	s-0.2-4.1-2.1-6.4s-2.1-2.1-4.4-2.8s-3.3-2.8-4.7-5.4s-5.5-3.9-5.5-3.9s-1.9-1.2-4-2.6s-4.2-1.9-7-2.8s-0.5-4-1.2-5.1
	s-4.3-0.9-6.7-2.6c-2.3-1.6-3.8-4.1-4.2-6.9c-0.5-2.8-2.6-4.4-3.3-6.1s-0.5-3-0.7-5.3c-0.2-2.2-1.4-4.3-3.2-5.6
	c-2-1.6-14.1-6.8-17.9-10.2s-13-12.4-13-12.4s-1.9-1.5-2.6-1.5c-1.4,0-2.6-0.6-3.5-1.6c-0.8-1.1-2.1-1.8-3.5-1.9
	c-1.4-0.2-2.3-0.2-2.8-2.1s-1.8-1.2-3.9-3s-3-1.9-3-1.9c-0.5,2.1-1.3,4.2-2.3,6.1c-1.4,2.3-1.2-0.9-1.6-3c-0.4-2.5-0.6-5-0.5-7.5
	c0-2.5-0.5-2.3-1.2-4S336.1,0,335,0s-1.4,1.2-2.3,1.9s-3.5,0.2-3.5,0.2L328,3.7c0,0-0.9,1.6-1.9,2.9s-0.9,3.3-1.2,4.7
	s-0.2,1.6-1.9,2.1s-1.4,0-2.8,0.5s-0.2,1.2-0.2,2.8s-1.1,2.3-2.7,2.8s-1.2,0.7-1.9,1.9s0.7,1.1-2.1,1.3c-1.5,0-2.8,1.1-3,2.6
	c0,0-3.3,1.9-4.2,1.9s-2.9,1.4-4.3,1.9s-1.4-1.9-2.1-3.5s-2.8-1.6-4.9-2.3c-1.7-0.7-3.4-1.3-5.1-1.8c-2.6-0.6-5.2-1.5-7.7-2.6
	c-1.9-0.9-2.8-2.1-5.1-2.3s-2.3,1.9-3.6,2.8s-5.4,3.4-5.4,3.4c-1.4,0.7-2.9,1.1-4.4,1.2c-2.1,0-1.2,0.5-3,1.9s-2,3-2.5,4.4
	s-1.2,1.6-4,2.6c-2.8,0.9-0.5-2.1-1.9-3s-3.7,0.5-3.7,2.8s-1.2,2.3-0.9,4s0,2-1.6,2.2s-2.6,2.8-2.6,2.8s-0.4,0.9-2.7,1.6
	s0.5,3,0.5,3c-0.3,1.4-1.1,2.6-2.3,3.3c-1.9,0.9-2.3,0.7-3.3,2.6s-1.6,1.1-4-0.2s-2.1-1.9-3-2.6s1.7-4.9,1.7-4.9l0.7-4
	c-0.2-1.3-0.5-2.6-0.9-3.9c-0.7-2.2-3.9-4.9-5-6.8s-0.7-2.3-0.7-3.5s-0.7-0.9-1.9-0.9s-8.2,0-10.9,0.2s-6.8-0.5-8.6-0.5
	s-2.1,0.7-2.8,2.6s-0.7,3-1.2,4.2s-1.8,2.8-1.8,5.4v5.7c0,2.1-0.5,5.6-0.5,5.6l-0.5,5.7c0.4,1,0.5,2.2,0.2,3.3
	c-0.5,1.6,1.5,2.8,2.7,4.9c1,1.5,2.4,2.6,4,3.3c1,0.7,1.8,1.6,2.3,2.7c0.5,1.3,1.9,2.8,2.8,4.4s-0.9,1.6-3.3,0.7s-5.1,2.1-5.1,2.1
	c-1.3,0.8-2.7,1.4-4.1,1.9c-2.7,0.9-4,0.5-4.9,0.7s-1.4,3.5-1.4,3.5c-0.1,1-0.4,2-0.7,2.9c-0.5,1.1-0.8,2.2-1,3.3
	c-0.5,2.1-0.9,0.9-1.2,2.6s0.2,0.9-0.2,3s0,1.4,0.7,3s0.2,1.4,0,2.7s-0.5,4.7,0.2,5.8s1.9,0.5,2.6-1.2s0.5-0.7,2.1-0.7
	s1.4-0.5,2.3-1.9s0.7,0.7,1.6,0.9s3.6,0,4.6,0.2c0.8,0,1.5-0.2,2.1-0.7c0,0,3.3-0.2,4.2,0.7s1.2,0.7,2.1,0.9s1.6,1.6,2.1,2.3
	c0.3,0.4,0.4,0.9,0.5,1.4l2,0.2v1.6l-0.2,2.8l2.8,0.2l1.9,2.2l0.5,1.4l2.3,0.7l0.9,1.6l0.5,1.9l-0.2,3l1.2,1.7
	c0-2.8,0.6-3.5,1.8-4.3s3.2-2.4,3.6-1.7s-0.9,2.1,0.5,1.5s2.4-0.6,4-1.4s2.1-1.4,2.1-2s0-2.1,0.9-2s1.5,0.6,2.4,0.3s2.9-1.1,3.5-2
	s0.8-2,1.6-2.4s1.1-0.2,1.8,0.3s1.4,1.1,2.8,0.2s1.4-1.5,1.8-1.8s0.9,1.1,0.8,2s-1.4,2-1.4,2.9c-0.1,0.7-0.3,1.3-0.8,1.8
	c0,0-1.7,0.9-1.4,1.7c0.4,0.9,0.6,1.9,0.8,2.9c0,1,0.3,2,0.9,2.8c0.7,0.9,1,1.9,1.1,3c-0.1,1.2-0.4,2.3-0.9,3.4
	c-0.5,0.8-2,2.1-1.8,2.9s-0.3,3.7,2,4.9c1.5,0.9,2.9,2,4,3.3c0.6,0.5,1.1,1.5,2.8,2s2.6,1.7,4,1.6s0.9,0.9,1.1,2
	c0.3,1.2,1,2.2,2,2.9c0.8,0.6,1.5,2.1,2.1,2.1s2.6,0.2,3.1,0.9s0.8,2.3,1.5,3.1s1.8,1.8,2.6,1.7s1.5-0.5,1.5,0.6s-2.3,0.3-2.1,1.2
	s1.8,3.1,2.1,3.9s-0.1,2.4,1.1,3.7s2.6,1.5,2.6,0.6c0-0.6-0.1-1.2-0.3-1.8c-0.1-0.6,0.5,0-0.6-0.9c-0.7-0.6-1-1.5-1.1-2.4
	c0.5-0.3,1.1-0.4,1.7-0.2c1.1,0.3,1.8-0.1,1.7-0.8s-0.5-3.4,0.3-2.6s0.6,1.1,1.4,2.2c0.6,0.9,1,2,1.2,3.1c0.1,0.6,0.8,2,0.6,2.6
	s-0.1,1.7-0.9,2s-4,0-4.3,0.8c-0.3,0.7-1.1,1-1.8,0.7c-0.1,0-0.1-0.1-0.2-0.1c-0.6-0.5-2.3-1.1-3.1-2.6c-0.6-1-1-2.1-1.1-3.2
	c0-1.1,0.5-2.9-0.6-3.1s-2.9-0.8-3.4,0.2c-0.7,1-0.5,2.3,0.3,3.2c0.6,0.6,0.6,1.5,0,2.1c-0.2,0.2-0.5,0.4-0.8,0.4
	c-0.9,0.3-4-0.4-4.7,0.2s-3.3,0.9-3.7-0.9s-0.9-2.9-1.8-1.8s-1.5,3-2.8,2.8s-0.3-0.8-0.9-2.3s-1.4-2.6-2.9-1.7s-2.9,2.8-3.8,3.1
	s-1.5,0-2,0.9S244,169.6,242.8,170.1"/>
<path class="st0" d="M277,501.3c-0.6-1-0.4-3-0.2-4c0.4-1.5,1.1-2.9,1.9-4.2c0.7-1.3,0.9-2.9,0.8-4.3l-0.8-2.5l-4-4.1l-2.7-1.5
	l-0.4-3.8l-1.3-0.6l-2.6,0.2l-1.1-1.1c-1.4-0.5-2.9-0.9-4.3-1.1c-0.9,0-1.1-1.5-1.1-1.5l-0.2-1.9l-1.1-0.4h-4.4l-1.3-0.8H253
	c-3.2-0.6-0.4-5.9-0.4-5.9l0.4-2.6c0.3-1.4,0.6-2.8,0.8-4.1c0-0.9,1.7-3.4,1.7-3.4s5.3-20.1,7.4-29s-0.8-9.5-0.8-9.5l-3.6-4.3
	c-0.9-0.4-1.9-0.7-2.8-0.8c-2.3-0.4-2.3,1-2.3,1l-1.3,3c0,0-3.2,5.7-4,7.6c0.6,2.5-1.3,3-1.3,3l-7.2,0.2l-0.4,0.8l-1.9,0.6l-4.3-0.6
	l-4.7-2.3l-0.8,0.9h-5.3l-0.2,0.1c0.3,0,0.7,0,1,0c5.6,0,9.8,2.5,12.3,7.5c2.9,5.8,2.1,10.6-0.3,16.6s-4.5,10.7-10.6,13.1
	c-5.6,2.3-8.2,5.8-14.3,6.3c-1.2,0.1-2.2,0.3-3.2,0.5l-1.1,2.1l0.2,0.5c0,0,20,14.6,22,16.1s14.3,7.2,18.5,9.3s18.9,10.4,21.2,11.7
	c2.6,1.5,5.3,2.7,8.2,3.8c2.1,0.8,2.5-1.5,2.8-3.4c0.4-1.6,0.4-3.3,0-4.9C278.3,500.9,277.6,502.2,277,501.3z"/>
<path class="st2" d="M205.9,463.5c-1.8,0.1-3.4-1.9-2.8-3.5c0.8-1.9,2.3-2.6,4.3-3.3c1.8,0.7,2.9,2.6,2.5,4.5
	C209.6,463,207.7,463.5,205.9,463.5z"/>
<path class="st0" d="M338.9,324.5c-1.6,1-3.3-0.6-4.2-2.3s-2-0.3-3,0.3s-1.3,0-3.6-0.3s-2.3,0.3-3.9,1.6s-1.6,1-5.2,0.6
	s-2-2-3.6-4.3s-3.3-1.6-5.3-1s-3,0.3-4.6-1s0.3-5.8,0.7-8.8s-0.7-3.6-2.5-4.9s0-3.3,1.5-4.3s1.3-2.6,0-6.8s-0.2-5.9,0.1-6.2
	s-1.5-1.6-2.3-2.8c-0.7-2.1-1.7-1-1.7-1s-1.4,0.7-3.3,1.9c-1.4,5.9-5.2,1-6.6,0.7s-1.9,1.6-1.9,1.6s-1.9,3.5-2.6,5
	c1.4,3.3-2.6,5.8-2.6,5.8l-0.5,1l-15-0.5c0,0-2.4-0.4-10.6-1.8c-4.7-0.8-9.5-0.9-14.3-0.4c0.7,3.5-1.8,7.7-2.1,7.3
	c-1.8-7.5-4.2-6.8-7.3-7.7c-5.4-1.4-7.8,0.9-9.7,2.1c-2.4-0.4-0.9-8.9-0.9-8.9s-3.8-4.4-6.4-7.7c3-2.1,5.9-8.5,6.8-12
	s-1.9-27-1.9-27l-7-0.2c0,0-3,1.7-4.9,2.6c-1.9,0.8-4,1.2-6.1,1.2c-1.7,0.1-3.4,0.8-4.5,2.1c-0.7,0.7-0.9,1.8-0.4,2.6
	c0,0,2.8,2.5,3.3,3c2.1-0.2,2.3,4.2,2.3,4.2l-5.4,15.7l-0.5,2.6l-2.6,0.9l-3.8,3.8l-5.6,0.9l-1.4,5l-2.3,4.7l-15.1,11l-1.6,3.3
	l-1.6,1.7l-0.7,2.3c-0.7,0.8-1.5,1.6-2.3,2.3c-1.4,1.2,0.4,3.9,0.4,3.9l-0.2,3.3c0,0,1,1.4,2.3,3s0.7,6.5,0.7,6.5l0.7,1.2v3.6
	l-2.9,2.7l-3.1,0.2c0.4,3-1,8-1,8l-1.2,1.9c-0.5,1.1-1,2.2-1.7,3.1c-0.7,0.7,0.5,1.4,0.9,2.3s4,0.5,4,0.5l0.9,2.6
	c0.5,0.7,1.1,1.3,1.7,1.9c1.2,1.2-0.2,3.5-1.6,4.9s-0.5,4-0.5,4c0.2,1,0.3,2,0.4,3c0,1.6,1.9,1.6,2.6,2.6s0,2.1-0.9,4.5
	s-0.2,2.8-0.5,4.2c-0.7,1.7-1.6,3.2-2.6,4.7c-0.3,1.3-0.4,2.7-0.4,4c0,2.4-2.1,2.1-3.3,2.8s0.2,1.7,0.2,1.7s2.3,2.8,2.8,3.6
	c0,1.7-0.4,3.8-1.6,4.7c2.1,8-1.9,10.3-1.9,10.3c0.5,6.1-4.9,8.7-4.9,8.7l2.1,1.9c1.9-1.9,1.2,1.7,1.2,1.7l-2,2.3l-0.3,1.4l-3,0.5
	v4.2l1.9,2.8l-0.2,2.3l1.9,4.9l1.7,6.6c0,0,0.2,1.4,0.2,2.5s0.4,4.2,0.4,4.2l-0.2,3.3c0,0-0.5,0.5-2.6,2.4s-2.3,3.3-3.2,5.3
	s-2.4,3.3-4,4.9s-1.7,3-2.4,3.5c-1.5,1.5-2.8,3.1-4,4.9c-0.5,1,1,3.3,1,3.3c1.5,0.3,3,0.2,4.3-0.3c1.9-0.9,2.1-1.6,2.8-2
	s1.9-0.5,4.7-0.5s7.1,2,8.2,2.6s3.6,3.8,3.8,5s2.6,1,4.9,1.2s15.5,1.6,15.5,1.6c0-1.4-0.1-2.8-0.4-4.2c-0.4-0.9-2.3-5.7-2.5-6.5
	c-0.1-0.9,0-1.9,0.2-2.8c0,0,5.1-1.4,7.7-2.1s17.4-5.2,17.4-5.2l-3.4-3.1c-2.8-1.8-4.2-5.8-2.2-8.3c4.1-5-3.2-9.6-3.5-16.1
	c-0.1-1.9,1.9-2.3,3-3.8s0.5-3.2,1.8-4.6c1.7-1.9,3.5-2,5.5-3.5c2.4-2,5.1-3.8,7.8-5.4v-0.1c0.3-0.8,1.2-1.2,2-0.9
	c0.1,0,0.1,0.1,0.2,0.1c1.6-0.5,3.2-0.7,4.9-0.7c0.8-0.1,1.7,0.1,3.5,0c2.6-0.2,2.1-1.2,2.1-1.2s-0.4-3.5-0.4-4.9s1.7-6.1,2.7-7.9
	s1.1-4.9,1.5-6.5s0.6-4,1.1-5.9s1.4-4.3,1.8-5.4c0.6-1.6,0.9-3.3,0.9-5c-0.2-1.7,0.2-3.4,1-4.9c1.8-2.8,3.9-5.5,6.3-7.9
	c1-0.9,1.7-2,2.1-3.3c0.2-1.3,0.7-2.5,1.6-3.4c1.4-1.6,1.1,0.1,2.3,1.5s3.4-0.5,4.1-1.4s6.6-4,6.6-4s0.9-1.1,2.5-2.9
	c2.1-2.1,4.4-4.2,6.7-6c2.4-1.9,6.1-5.4,6.6-5.7s2.4-0.4,3.8-0.1s3-0.6,4.1-2.1s2.9,1.3,3.8,0s1.2-2.4,2.2-3s0.9-1.3,2.5-2.7
	s2.5,1.5,3.1,3.3s1.6,1.8,3.4,3s1.9,0.8,2.6,0.8s2.1,2.4,4.3,3.6s1.6,2.1,2.4,4.5s4,0.5,5,0.1c0.6-0.4,1.4-0.5,2.1-0.4
	c1.5,0,1.4-1.4,2-3.1s2-0.5,4,0.4s0.6,1.6,1.8,0.5s2.8,0.3,4,2.3s0.5-0.8,1.9-2.6c1.2-1.7,1.7,0.4,1.7,0.9c-0.1-0.6-0.6-3.9,0-4.8
	s2.3-2.3,2.6-4.9s1-2.2,1.6-4.2s0-2.3,0.7-5.3s5.1-8.4,5.8-9.4S340.5,323.6,338.9,324.5z"/>
</svg>
