<svg id="Layer_1" data-name="Layer 1" xmlns="http://www.w3.org/2000/svg" viewBox="0 0 512 512"><defs><style>.cls-1{fill:#e6e7e8;}.cls-1,.cls-2{stroke:#fff;stroke-linejoin:round;fill-rule:evenodd;}.cls-2{fill:#a7a9ac;}</style></defs><path class="cls-1" d="M387.49,162.34s-2.85-.88-2.64,1.09,1.1,3.3-.21,3.08-2.64-1.32-3.08,0a19.17,19.17,0,0,1-1.49,3.07c-.88,1.76.66,2.2-.44,3.51a3.33,3.33,0,0,0-1.1,2.81c0,1.1.22,2.86-.66,3.3s-3.07.22-3.51,1.31,1.32,4.39-.44,4.83a24.17,24.17,0,0,1-4.61.44s-.44.44-1.31-.22-3-.22-3-.22-1.32,1.76-2.42.88.22-2-2-1.76-2.64.44-3.52.44-.44.66-2.19.66-1.54-1.1-1.54-1.1-1.8-2-2.41-.43-1.06,2.19-2.15,1.31-1.54-1.31-.88-2.41a3.23,3.23,0,0,0,.44-3.08,28.46,28.46,0,0,0-2-2.85,6.54,6.54,0,0,1-1.32-4.13c0-2.63.44-4.39-.44-4.39S343.5,169.8,342,170s-2.2-1.1-3.73-.66-3.25.22-3.69,1.1-1.32,1.1-1.76,2.19-.87,2.42-2,.88.66-1.53-1.1-2.19-2.2-.66-2.85.22-.44,1.31-2.42,1.31-1.36-.44-3.51,0a25.69,25.69,0,0,1-5.45.22l-3.29,1.1.44,3.25v2.63l1.1,1.32h3.07a8.26,8.26,0,0,0,2.64,3.07c1.71,1.1,2.15.88,2.15,2s-.22,5.66-.22,5.66a11.21,11.21,0,0,1-.44,4.17c-.66,1.76-.88,2.42-.66,3.52s1.1,2.85,2.19,3.07,2.64,1.1,4.18,1.32a5.36,5.36,0,0,0,3.29-.22,17.5,17.5,0,0,1,4.17-.44s4.13.44,5.44,1.32a20.14,20.14,0,0,0,5,1.93c1.54.44,5.93,2.19,5.93,2.19s2.59.22,2.81,1.54a10.18,10.18,0,0,1-.44,3.51,15.09,15.09,0,0,0,5.27.66c2.64-.22,14.67.22,17.74-1.1a26.52,26.52,0,0,1,8.08-2.41c3.29-.44,6.8-4.13,6.58-5.66s-.22-5.05-.22-5.05,3.74-4,2.42-5.49a48.08,48.08,0,0,1-3.51-5.45s-1.32-3.51.22-5.26,3.29-2.64,3.51-4.18.66-4.12-.44-5.66-1.1-2.19-1.54-4.83a11.07,11.07,0,0,0-1.75-4.39Z"/><path class="cls-1" d="M387.49,162.34s-2.85-.88-2.64,1.09,1.1,3.3-.21,3.08-2.64-1.32-3.08,0a19.17,19.17,0,0,1-1.49,3.07c-.88,1.76.66,2.2-.44,3.51a3.33,3.33,0,0,0-1.1,2.81c0,1.1.22,2.86-.66,3.3s-3.07.22-3.51,1.31,1.32,4.39-.44,4.83a24.17,24.17,0,0,1-4.61.44s-.44.44-1.31-.22-3-.22-3-.22-1.32,1.76-2.42.88.22-2-2-1.76-2.64.44-3.52.44-.44.66-2.19.66-1.54-1.1-1.54-1.1-1.8-2-2.41-.43-1.06,2.19-2.15,1.31-1.54-1.31-.88-2.41a3.23,3.23,0,0,0,.44-3.08,28.46,28.46,0,0,0-2-2.85,6.54,6.54,0,0,1-1.32-4.13c0-2.63.44-4.39-.44-4.39S343.5,169.8,342,170s-2.2-1.1-3.73-.66-3.25.22-3.69,1.1-1.32,1.1-1.76,2.19-.87,2.42-2,.88.66-1.53-1.1-2.19-2.2-.66-2.85.22-.44,1.31-2.42,1.31-1.36-.44-3.51,0a25.69,25.69,0,0,1-5.45.22l-3.29,1.1.44,3.25v2.63l1.1,1.32h3.07a8.26,8.26,0,0,0,2.64,3.07c1.71,1.1,2.15.88,2.15,2s-.22,5.66-.22,5.66a11.21,11.21,0,0,1-.44,4.17c-.66,1.76-.88,2.42-.66,3.52s1.1,2.85,2.19,3.07,2.64,1.1,4.18,1.32a5.36,5.36,0,0,0,3.29-.22,17.5,17.5,0,0,1,4.17-.44s4.13.44,5.44,1.32a20.14,20.14,0,0,0,5,1.93c1.54.44,5.93,2.19,5.93,2.19s2.59.22,2.81,1.54a10.18,10.18,0,0,1-.44,3.51,15.09,15.09,0,0,0,5.27.66c2.64-.22,14.67.22,17.74-1.1a26.52,26.52,0,0,1,8.08-2.41c3.29-.44,6.8-4.13,6.58-5.66s-.22-5.05-.22-5.05,3.74-4,2.42-5.49a48.08,48.08,0,0,1-3.51-5.45s-1.32-3.51.22-5.26,3.29-2.64,3.51-4.18.66-4.12-.44-5.66-1.1-2.19-1.54-4.83a11.07,11.07,0,0,0-1.75-4.39Z"/><path class="cls-1" d="M313.29,181s.44,2.42-1.76,2.2-2.85.22-2.85.22-.44,3.07-1.76,3.29a47,47,0,0,0-4.56,1.32s-.44.22-2.42,1.31-.66,1.72-2.63,1.72-2.2.65-2.2.65l2.42,2s.88,3.07.66,4.17-1.76,2-2,3.51-2.63,2.68-3.07,4.4-1.32,5.66-1.32,5.66L289,213.79l-2,3.74a26.8,26.8,0,0,1-2.41,3.07,3.52,3.52,0,0,0-.66,2.59,11.71,11.71,0,0,1,2.85,0c.88.22,2.81.44,3.25,1.32a5.41,5.41,0,0,0,2.86,3.07,10.79,10.79,0,0,1,4.39,2.63c.88,1.1,1.31,1.1,1.1,2s-1.76,1.8-1.32,3.51,0,2.59.44,3.69,0,1.76,2.63,2,7,.87,9.62.22,4.61-.66,6.8-2a36.22,36.22,0,0,1,4.35-2.2l.44,2.86-.66,5.27s5.27.22,6.8-1.76,5.05-2,5.93-2.19,2.15-2.2,3-3.3a40.64,40.64,0,0,1,4.39-3.9c1.54-1.32,5.05-3.52,6.15-5s2.19-6.64,2.85-7.69a27.29,27.29,0,0,0,1.49-3l1.54-5.05s1.49-3.73-1.1-4.39-11.15-3.68-12.47-4.34a8.54,8.54,0,0,0-5.44-1.32c-2.85.22-3.95.88-5.49.88s-4.83-.66-5.93-1.54-3.07-2.41-2-5.49.88-4.39.88-4.39a8.77,8.77,0,0,1-.22-2.81c.22-.88.44-.66.44-1.75v-2.64L319,184l-1.32-1.54-.88-1.1h-2Z"/><path class="cls-1" d="M313.29,181s.44,2.42-1.76,2.2-2.85.22-2.85.22-.44,3.07-1.76,3.29a47,47,0,0,0-4.56,1.32s-.44.22-2.42,1.31-.66,1.72-2.63,1.72-2.2.65-2.2.65l2.42,2s.88,3.07.66,4.17-1.76,2-2,3.51-2.63,2.68-3.07,4.4-1.32,5.66-1.32,5.66L289,213.79l-2,3.74a26.8,26.8,0,0,1-2.41,3.07,3.52,3.52,0,0,0-.66,2.59,11.71,11.71,0,0,1,2.85,0c.88.22,2.81.44,3.25,1.32a5.41,5.41,0,0,0,2.86,3.07,10.79,10.79,0,0,1,4.39,2.63c.88,1.1,1.31,1.1,1.1,2s-1.76,1.8-1.32,3.51,0,2.59.44,3.69,0,1.76,2.63,2,7,.87,9.62.22,4.61-.66,6.8-2a36.22,36.22,0,0,1,4.35-2.2l.44,2.86-.66,5.27s5.27.22,6.8-1.76,5.05-2,5.93-2.19,2.15-2.2,3-3.3a40.64,40.64,0,0,1,4.39-3.9c1.54-1.32,5.05-3.52,6.15-5s2.19-6.64,2.85-7.69a27.29,27.29,0,0,0,1.49-3l1.54-5.05s1.49-3.73-1.1-4.39-11.15-3.68-12.47-4.34a8.54,8.54,0,0,0-5.44-1.32c-2.85.22-3.95.88-5.49.88s-4.83-.66-5.93-1.54-3.07-2.41-2-5.49.88-4.39.88-4.39a8.77,8.77,0,0,1-.22-2.81c.22-.88.44-.66.44-1.75v-2.64L319,184l-1.32-1.54-.88-1.1h-2Z"/><path class="cls-1" d="M242.71,171.73l-4,.62h-1.55l-.62,3.22-3.11.93h-2.48l-4.46.31-4.35-2.29h-2.17l-3.1.31-2.17,2.3-2.3,3.72-4,2.48-3.1.31-3.1,1.86-4.65,1.86-4.78,1.24-5,.31-2.8,1.24h-5.7l2.91,5.4a19.89,19.89,0,0,0,1.55,3.41c.93,1.55,2.48,3.29,3.11,5a35.47,35.47,0,0,1,.93,6.33s.31,5,.93,6.52,0,6.32,0,6.32.62,3.42.93,5.59-.31,2.17.93,3.1a12.93,12.93,0,0,0,3.1,1.55l1.55.31.93-2.17,3.54-.31s-1.55-1.24-.31-2.48,2.48-3.1,4-3.41,2.28,1.59,2.79.31a24.6,24.6,0,0,0,.93-2.8l2.17-.31.62-1.67s.5,1.36,1.55,1a13.88,13.88,0,0,0,2.92-1.67l.93-1.24,1.86-1.55,2.48,1.24a13.13,13.13,0,0,0,2.48,2.91,3.17,3.17,0,0,0,2.49.62l-.62-3.22,1.86.62,1.55-1.24h2.91l.93,1.86.62-2.79a4.25,4.25,0,0,1,2.18,0c1.24.31,1.86-1.24,1.86-1.24l-.62-2.49,3.1-2.79.31-2.79,1.86-1.86.62-17.93Z"/><path class="cls-1" d="M242.57,173.23l.14-1.5-4,.62h-1.55l-.62,3.22-3.11.93h-2.48l-4.46.31-4.35-2.29h-2.17l-3.1.31-2.17,2.3-2.3,3.72-4,2.48-3.1.31-3.1,1.86-4.65,1.86-4.78,1.24-5,.31-2.8,1.24h-5.7l2.91,5.4a19.89,19.89,0,0,0,1.55,3.41c.93,1.55,2.48,3.29,3.11,5a35.47,35.47,0,0,1,.93,6.33s.31,5,.93,6.52,0,6.32,0,6.32.62,3.42.93,5.59-.31,2.17.93,3.1a12.93,12.93,0,0,0,3.1,1.55l1.55.31.93-2.17,3.54-.31s-1.55-1.24-.31-2.48,2.48-3.1,4-3.41,2.28,1.59,2.79.31a24.6,24.6,0,0,0,.93-2.8l2.17-.31.62-1.67s.5,1.36,1.55,1a13.88,13.88,0,0,0,2.92-1.67l.93-1.24,1.86-1.55,2.48,1.24a13.13,13.13,0,0,0,2.48,2.91,3.17,3.17,0,0,0,2.49.62l-.62-3.22,1.86.62,1.55-1.24h2.91l.93,1.86.62-2.79a4.25,4.25,0,0,1,2.18,0c1.24.31,1.86-1.24,1.86-1.24l-.62-2.49,3.1-2.79.31-2.79,1.86-1.86.62-17.93,1.41-15.06"/><path class="cls-2" d="M179.06,190.21l-11.37-.68s-6.68-1.36-9.64-.68a22.26,22.26,0,0,0-6.6,2.36,32.9,32.9,0,0,1-7.59,4.09c-3.41,1.14-12.82,5.23-12.82,6.6s1.6,1.82,2.73,2.27,3.5,1,4.64,3a19.1,19.1,0,0,1,2.27,8,25.6,25.6,0,0,0,2.28,9.41c1.36,3,4.91,5.46,7.73,6.6s12.14,3.64,14,4.09,3.72,1.6,6,.91a13.63,13.63,0,0,0,5.69-4.09c1.14-1.37,2.73-2.05,3.64-1.82a6.78,6.78,0,0,0,3,0c.91-.23.68-1.14,1.82-.46s.68.91,2.27,1.14a3.54,3.54,0,0,0,2.51-.45s-1.14-6.74-.91-8.19-1.14-18.37-1.82-19.05a38.06,38.06,0,0,1-4.55-7C181.33,193.94,179.06,190.21,179.06,190.21Z"/><path class="cls-2" d="M179.06,190.21l-11.37-.68s-6.68-1.36-9.64-.68a22.26,22.26,0,0,0-6.6,2.36,32.9,32.9,0,0,1-7.59,4.09c-3.41,1.14-12.82,5.23-12.82,6.6s1.6,1.82,2.73,2.27,3.5,1,4.64,3a19.1,19.1,0,0,1,2.27,8,25.6,25.6,0,0,0,2.28,9.41c1.36,3,4.91,5.46,7.73,6.6s12.14,3.64,14,4.09,3.72,1.6,6,.91a13.63,13.63,0,0,0,5.69-4.09c1.14-1.37,2.73-2.05,3.64-1.82a6.78,6.78,0,0,0,3,0c.91-.23.68-1.14,1.82-.46s.68.91,2.27,1.14a3.54,3.54,0,0,0,2.51-.45s-1.14-6.74-.91-8.19-1.14-18.37-1.82-19.05a38.06,38.06,0,0,1-4.55-7C181.33,193.94,179.06,190.21,179.06,190.21Z"/><path class="cls-1" d="M130.82,202.13a9.38,9.38,0,0,0-2,3c-.91,1.91-1.82,5.55-3.87,7.59s-4.86,5.23-7.13,6.6-7.28,4.63-7.28,6.68a41.39,41.39,0,0,1-1.59,8c-.46,1.59,2,2.59,3.18,3.49s5,1.37,6.37,4.1,2.5,3.64,1.36,5a9.79,9.79,0,0,0-1.59,3.64s1.37,2.36,1.14,3.73-1.14,4.54-.91,6.59a51.19,51.19,0,0,0,2,7.14l4,13.19s-7,8.95-4,11.91S131,301.88,131,301.88l6.91-9.41s-3.18-3.18-1.36-4.09a7.19,7.19,0,0,0,3.41-2.73,20.9,20.9,0,0,0,1.36-4.18,18.86,18.86,0,0,0,3.64-2.73,9.18,9.18,0,0,0,1.82-2.27c.68-.91,1.74-2.51,3.64-1.14s1.9,2.73,3.72,2.73,3.87-1.14,4.55.45,2.05,8.73,2.73,11.23,2.36,9.87,6.91,13.28c0,0,12.82-9.87,15.32-11,0,0,3.64-7.14,3.64-9.87l5.92-.45,3.63-4.1,2.59-.68.23-3s5.68-13.73,5.68-15.32-1.59-3.87-1.59-3.87a4,4,0,0,1-2.27-1.36c-.91-1.14-1.82-2.13-1.82-2.13s.45,4.18-.46,5.09-1.9.22-4,1.59-1.36,2.05-3.64,2.27l-8.64.91s.91-1.13,1.82-2.5.46-1.59.68-3.87a5.89,5.89,0,0,1,1.14-3.26l-1.59-1.6s-1.59-.68,0-2.5,2.5-1.82,1.82-2.73-1.82,0-1.82-1.36.23-.91.68-2.73.91-1.74-.23-3a5,5,0,0,1-1.13-3H186s1.13,1.82,1.36.46-1.13-1.14.23-2.05a4.94,4.94,0,0,0,1.82-2.28H186.2l-2.28-1.36-.23,1.14h-5.08l-4.78,3.64s-2.36,3-7.36,1.59S150,231,150,231s-8-1.82-9.78-16c0,0-.32-8.28-4.64-10.1C135.59,204.85,131,203.94,130.82,202.13Z"/><path class="cls-1" d="M130.82,202.13a9.38,9.38,0,0,0-2,3c-.91,1.91-1.82,5.55-3.87,7.59s-4.86,5.23-7.13,6.6-7.28,4.63-7.28,6.68a41.39,41.39,0,0,1-1.59,8c-.46,1.59,2,2.59,3.18,3.49s5,1.37,6.37,4.1,2.5,3.64,1.36,5a9.79,9.79,0,0,0-1.59,3.64s1.37,2.36,1.14,3.73-1.14,4.54-.91,6.59a51.19,51.19,0,0,0,2,7.14l4,13.19s-7,8.95-4,11.91S131,301.88,131,301.88l6.91-9.41s-3.18-3.18-1.36-4.09a7.19,7.19,0,0,0,3.41-2.73,20.9,20.9,0,0,0,1.36-4.18,18.86,18.86,0,0,0,3.64-2.73,9.18,9.18,0,0,0,1.82-2.27c.68-.91,1.74-2.51,3.64-1.14s1.9,2.73,3.72,2.73,3.87-1.14,4.55.45,2.05,8.73,2.73,11.23,2.36,9.87,6.91,13.28c0,0,12.82-9.87,15.32-11,0,0,3.64-7.14,3.64-9.87l5.92-.45,3.63-4.1,2.59-.68.23-3s5.68-13.73,5.68-15.32-1.59-3.87-1.59-3.87a4,4,0,0,1-2.27-1.36c-.91-1.14-1.82-2.13-1.82-2.13s.45,4.18-.46,5.09-1.9.22-4,1.59-1.36,2.05-3.64,2.27l-8.64.91s.91-1.13,1.82-2.5.46-1.59.68-3.87a5.89,5.89,0,0,1,1.14-3.26l-1.59-1.6s-1.59-.68,0-2.5,2.5-1.82,1.82-2.73-1.82,0-1.82-1.36.23-.91.68-2.73.91-1.74-.23-3a5,5,0,0,1-1.13-3H186s1.13,1.82,1.36.46-1.13-1.14.23-2.05a4.94,4.94,0,0,0,1.82-2.28H186.2l-2.28-1.36-.23,1.14h-5.08l-4.78,3.64s-2.36,3-7.36,1.59S150,231,150,231s-8-1.82-9.78-16c0,0-.32-8.28-4.64-10.1C135.59,204.85,131,203.94,130.82,202.13Z"/><path class="cls-1" d="M110.49,225.27s-5.77,4.32-7.14,5.68-5.68,4.64-7.5,6.45A16,16,0,0,0,91.3,244a16.1,16.1,0,0,1-4,5.91c-1.14,1.37-1.14,1.68-1.59,3.5s-.23,2.5-1.14,4.09A15.25,15.25,0,0,0,83,262.74c-.23,1.59-.91,2-1.59,3.41s-.69,1-.69,2.58.69,3.41-.91,4.78-2.5,2.05-2.5,3.87-.68,1.5-1.14,3.64.54,2.58-1.13,4.4-1,1.82-2.13,4.09-2.51,1.14-2.28,3.19-.91,2.87-.23,4.32,3.19.77,2,3-1.82,1.59-1.59,3.19a11.45,11.45,0,0,0,.68,3.64c.68,1.81-1.14,2.95.68,4.32s1.68.59,2.82,1.36a12.7,12.7,0,0,1,2.5,3l1.36,1.59s2.51-.68,3.19,0,2.5-.68,2.95,1.6-.68,3.41-.22,5.23,2,3.49,2,4.4.23,1.14.23,2.73.37,3.19,1.82,3.19,3.5.45,4.41,1.59a7.3,7.3,0,0,0,4.32,2.27c1.14,0,4.09.23,5,1.37s2.82,1.73,3.27,2.95,1.82,4.64,1.59,7.14a13.33,13.33,0,0,1-1.13,4.78c-.69,1.82-1.37,2.19-.69,4.32s1.45,3,.23,4.4-4,3-4.63,4.32-.46,1.14-.68,3.19,0,3-.69,5.31,0,1.6-1.59,3.64-3.18,1.82-4.32,4.78.45,3.5-1.14,5.54-3.49,3.41-3.72,5.23-.68,3.87-.46,5a21.67,21.67,0,0,1-.45,7.36c-.68,2.5-.91,2.73-.68,5.23a39.89,39.89,0,0,1,0,5.46,9.13,9.13,0,0,0,4.17,1.37,11.62,11.62,0,0,1,5.69,1.22c1.59.91,1.37,2.27,4.09,1.13s3.27-1.9,4.87-2.35,3.18-1.45,4.09-.23.68,3.49,2.27,3.95,3.87.45,4.55,1.14,1.06.91,3.19,1.59,4.86.91,5.54,2.5.45,2.5,1.82,3.64a11.46,11.46,0,0,0,1.82,1.36l1.36.23,6.91,14,17.14,11.68a12,12,0,0,0,0-2.95,8.83,8.83,0,0,1-.68-3.41,17.93,17.93,0,0,0-.45-5.32,13.06,13.06,0,0,1-.69-3.87c-.22-2-2.35-4.55-2.35-5.68s.68-1.51,0-2.5-1.82-2.59-1.82-2.59v-4.32l2.81-.46.91-1.59a4.22,4.22,0,0,0,1.82-3.41c0-2.28-1.82-.23-1.82-.23l-1.9-2.05a9,9,0,0,1,1.9-1.44,5,5,0,0,0,2.27-3c.23-1.14,1.14-4.32,1.14-4.32s2.05-2.28,2.28-3.87a17,17,0,0,0-.46-4.86,3.25,3.25,0,0,1,.68-3.18,5.46,5.46,0,0,0,.91-3,19.72,19.72,0,0,1-1.59-1.82c-.68-.91-1.14-2.28-2.05-2.28s-2.73-.22-2.95-1.13.08-1.14-1.37-1.14-3.49-.08-3.72-2.59-.46-5-.68-6.14a21.63,21.63,0,0,0-1.14-3.18l.23-2.28s-2.73,1.6-4.32,0-2.05-1.22-2.28-3.49-.91-2.73.23-4.32,2.27-3.87,2.05-4.78-.69-3.55-1.6-4.78a13.66,13.66,0,0,1-2.27-6.9c0-1.6-.23-1.14-.68-3.19a12.48,12.48,0,0,1-.23-3.86s1.59.31,1.59-1.14a14.56,14.56,0,0,0-.23-2.59,14.39,14.39,0,0,0-3.49-1.13c-1.59-.23-1.82.22-4.1-.46a18.61,18.61,0,0,1-5.45-2.27,11.9,11.9,0,0,0-4.33-1.6l-.22-2.5v-4.32c0-1.45.37-2.36-1.23-2.81s-2.72-.69-2.5-1.6a2.25,2.25,0,0,1,2.5-1.59,2.6,2.6,0,0,0,2.14-.68s1.13.68.22-2.27-1.82-2.51-1.36-4.78-.31-4.41-.31-6.45.62-5,.31-5.92-.91-1.82.23-1.59a32,32,0,0,0,4.77,0l4.55-.23-8-7.13s-5.23-2-1.14-8.87c1.6-2.5,3.42-5.09,3.42-5.09l-6-18.73a10.19,10.19,0,0,1,.22-6.6,6.32,6.32,0,0,0-.68-5.54,30.4,30.4,0,0,0,2-4.32s-2.73-5.92-3.87-6.37-5-.6-6.14-2.5-1.36-2.36-.91-4.87S110.49,225.27,110.49,225.27Z"/><path class="cls-1" d="M138.63,341.85s3.64-1.13,5.92-.22,2.64,1.22,5,2.13,2.59,1.36,3.95,1.36h5.23a7.74,7.74,0,0,0,.69-2.81,22.43,22.43,0,0,0,.22-3.19,17.26,17.26,0,0,1,.23-2.27l3.64-.23,1.14-1.36s.45.22,1.13-.91.23-3.64.23-3.64a5.74,5.74,0,0,1-.68-3c.23-1.37.45-4.55-.68-5.23a9.37,9.37,0,0,1-2.28-2.51s.68-2.27.23-3.41-1.82-2.13,0-4.18,1.59-.91,2.05-2.73,1.22-2,1.9-3.18,1.82-3.64,1.82-3.64l-2.59-2.73a27.27,27.27,0,0,1-4.55-11.23c-.45-2.5-2.27-9.41-2.27-9.41s.46-2.5-3.41-1.82a16.72,16.72,0,0,1-2.73.46s-2.81-6.37-6.45-1.59c-.23.45-3.41,4.09-3.41,4.09l-2.05,1.14-1.14,3.95L137,287.47l-1,1.59,1,2.73,1.14.45L131,301.65H120.5l-.23,6.6.54,3.64-.54,4.18,2.36,5.68s.14,1.14-2.13,1.6-3.41.91-3,2.72c1.14.46,2.5.91,2.5.91a2.17,2.17,0,0,1,1,1.91c0,1.36.45,7.5.45,7.5a26.91,26.91,0,0,1,4.1,1.6c1.13.68,7.27,2.73,7.27,2.73h2Z"/><path class="cls-1" d="M138.63,341.85s3.64-1.13,5.92-.22,2.64,1.22,5,2.13,2.59,1.36,3.95,1.36h5.23a7.74,7.74,0,0,0,.69-2.81,22.43,22.43,0,0,0,.22-3.19,17.26,17.26,0,0,1,.23-2.27l3.64-.23,1.14-1.36s.45.22,1.13-.91.23-3.64.23-3.64a5.74,5.74,0,0,1-.68-3c.23-1.37.45-4.55-.68-5.23a9.37,9.37,0,0,1-2.28-2.51s.68-2.27.23-3.41-1.82-2.13,0-4.18,1.59-.91,2.05-2.73,1.22-2,1.9-3.18,1.82-3.64,1.82-3.64l-2.59-2.73a27.27,27.27,0,0,1-4.55-11.23c-.45-2.5-2.27-9.41-2.27-9.41s.46-2.5-3.41-1.82a16.72,16.72,0,0,1-2.73.46s-2.81-6.37-6.45-1.59c-.23.45-3.41,4.09-3.41,4.09l-2.05,1.14-1.14,3.95L137,287.47l-1,1.59,1,2.73,1.14.45L131,301.65H120.5l-.23,6.6.54,3.64-.54,4.18,2.36,5.68s.14,1.14-2.13,1.6-3.41.91-3,2.72c1.14.46,2.5.91,2.5.91a2.17,2.17,0,0,1,1,1.91c0,1.36.45,7.5.45,7.5a26.91,26.91,0,0,1,4.1,1.6c1.13.68,7.27,2.73,7.27,2.73h2Z"/><path class="cls-1" d="M199.7,251.82s-.91-1.68-.23-2.59a5.49,5.49,0,0,1,3.19-2.27c1.36-.23,3.41,0,5.45-.68s3.33-.91,4.55-1.82a14.86,14.86,0,0,1,3-1.6h6.6s2.73,24.28,2,27.24a34.42,34.42,0,0,1-4.32,9.1c-.91,1.13-2.51,3.26-2.51,3.26l6.6,7.74s-1.37,7.36,0,8,.45,1,2-.45a6.66,6.66,0,0,1,4.86-1.68c1.59,0,5.46.37,6.82,1.14s3.41,3.95,3.41,3.95.68,4.55,1.14,2.73a40.34,40.34,0,0,1,1.22-3.87,8.94,8.94,0,0,0,.23-3.27s5-.22,6.37-.45,10.54,1.22,12.59,1.45a64.05,64.05,0,0,0,9.78,1.13c4.41,0,11.46.46,11.46.46l.68-1.37s2.73-2.13,2.73-3.72-1.14-1.36.23-3.41a11.64,11.64,0,0,0,1.67-3.41s1.37-2.5,2.73-1.14a6.34,6.34,0,0,0,4.1,1.82c.91,0,2.27-.91,2-1.82s0-.68,1.14-1.59,3.18-1.82,3.41-.91,1.91,4.32,3.5,3.41,4.32-2.87,4.09-4.32-2.5-1.9,1.14-1.9,6.37-1.37,5.91-2.73-2.95-1.6-2.27-2.28,1.82-.45,2.27-1.36-.31-2,1.82-2.28,5.09.23,5.55-.91,2.27-3,1.13-4.63-2.73-1.82-2.27-5,.91-4.78-.68-6.15-1.91-3-3.27-5.31-2.13-2.73-.91-3.41a8.29,8.29,0,0,0,2.13-1.82l.45-4.78-.45-3s-6.6,4.1-13.5,4.1c0,0-10.1,1.45-10.1-3.64-.68-2.13-.68-4.41.46-5.32.23,0,.91-1.59-1.14-2.73s-5-2-5.69-3.63c-.68-1.82-3.26-3.42-6.68-3.19.23-.23-.68-1.45,1.6-4,.22,0,.22-1.14-2.73-1.36l-1.14-4.1-9.64-1.14s-9.32-1.81-10.23-2-4.18-1.59-4.18-1.59l-3.18-4.18-5.92,1.67h-8.27l-2.09,1.91-.21,2.5-3.05,3.06.62,2.43s-1.11,1.46-2.08,1.18a3.9,3.9,0,0,0-2.08.14L231.2,220l-.76-1.53-3-.06-1.67,1.25-1.74-.7.56,3.31s-2.36.72-4.79-3.52c-.42-.28-2.57-1.25-2.57-1.25l-2,1.67-1.25,1.46L211.18,222a1.41,1.41,0,0,1-1.25-1.15c-.35.8-.69,1.64-.69,1.64l-2.16.27-1.18,3.41a1.93,1.93,0,0,0-1-.63c-.83-.28-1.18-.48-1.81-.21a8.86,8.86,0,0,0-2.22,1.53,17.32,17.32,0,0,0-1.73,1.95,1.5,1.5,0,0,0-.14,1.32c.2.27.76,1.11.76,1.11l-3.72.28-1,2.15s-4.3-1-5.34-2.85l-.63.07-.55,1.25L187,233.61l.21.49.13,1.11-.41.34-1-.9-1.53.07a3.91,3.91,0,0,0,1,2.89c.55.56.9.83.55,1.88s-.83,2.91-.83,2.91-.48,1.67.42,1.74,2.15.83,1.11,1.74-2.85,2.36-2.22,3.4c.83,1,2.08,2.29,2.08,2.29a7.35,7.35,0,0,0-1.11,3.72,5.06,5.06,0,0,1-.49,3L183,261.06s9.51-.69,10.21-1.18,1.9-2.29,3.19-2.57,3.1-.28,3.24-2.29A24.45,24.45,0,0,0,199.7,251.82Z"/><path class="cls-1" d="M199.7,251.82s-.91-1.68-.23-2.59a5.49,5.49,0,0,1,3.19-2.27c1.36-.23,3.41,0,5.45-.68s3.33-.91,4.55-1.82a14.86,14.86,0,0,1,3-1.6h6.6s2.73,24.28,2,27.24a34.42,34.42,0,0,1-4.32,9.1c-.91,1.13-2.51,3.26-2.51,3.26l6.6,7.74s-1.37,7.36,0,8,.45,1,2-.45a6.66,6.66,0,0,1,4.86-1.68c1.59,0,5.46.37,6.82,1.14s3.41,3.95,3.41,3.95.68,4.55,1.14,2.73a40.34,40.34,0,0,1,1.22-3.87,8.94,8.94,0,0,0,.23-3.27s5-.22,6.37-.45,10.54,1.22,12.59,1.45a64.05,64.05,0,0,0,9.78,1.13c4.41,0,11.46.46,11.46.46l.68-1.37s2.73-2.13,2.73-3.72-1.14-1.36.23-3.41a11.64,11.64,0,0,0,1.67-3.41s1.37-2.5,2.73-1.14a6.34,6.34,0,0,0,4.1,1.82c.91,0,2.27-.91,2-1.82s0-.68,1.14-1.59,3.18-1.82,3.41-.91,1.91,4.32,3.5,3.41,4.32-2.87,4.09-4.32-2.5-1.9,1.14-1.9,6.37-1.37,5.91-2.73-2.95-1.6-2.27-2.28,1.82-.45,2.27-1.36-.31-2,1.82-2.28,5.09.23,5.55-.91,2.27-3,1.13-4.63-2.73-1.82-2.27-5,.91-4.78-.68-6.15-1.91-3-3.27-5.31-2.13-2.73-.91-3.41a8.29,8.29,0,0,0,2.13-1.82l.45-4.78-.45-3s-6.6,4.1-13.5,4.1c0,0-10.1,1.45-10.1-3.64-.68-2.13-.68-4.41.46-5.32.23,0,.91-1.59-1.14-2.73s-5-2-5.69-3.63c-.68-1.82-3.26-3.42-6.68-3.19.23-.23-.68-1.45,1.6-4,.22,0,.22-1.14-2.73-1.36l-1.14-4.1-9.64-1.14s-9.32-1.81-10.23-2-4.18-1.59-4.18-1.59l-3.18-4.18-5.92,1.67h-8.27l-2.09,1.91-.21,2.5-3.05,3.06.62,2.43s-1.11,1.46-2.08,1.18a3.9,3.9,0,0,0-2.08.14L231.2,220l-.76-1.53-3-.06-1.67,1.25-1.74-.7.56,3.31s-2.36.72-4.79-3.52c-.42-.28-2.57-1.25-2.57-1.25l-2,1.67-1.25,1.46L211.18,222a1.41,1.41,0,0,1-1.25-1.15c-.35.8-.69,1.64-.69,1.64l-2.16.27-1.18,3.41a1.93,1.93,0,0,0-1-.63c-.83-.28-1.18-.48-1.81-.21a8.86,8.86,0,0,0-2.22,1.53,17.32,17.32,0,0,0-1.73,1.95,1.5,1.5,0,0,0-.14,1.32c.2.27.76,1.11.76,1.11l-3.72.28-1,2.15s-4.3-1-5.34-2.85l-.63.07-.55,1.25L187,233.61l.21.49.13,1.11-.41.34-1-.9-1.53.07a3.91,3.91,0,0,0,1,2.89c.55.56.9.83.55,1.88s-.83,2.91-.83,2.91-.48,1.67.42,1.74,2.15.83,1.11,1.74-2.85,2.36-2.22,3.4c.83,1,2.08,2.29,2.08,2.29a7.35,7.35,0,0,0-1.11,3.72,5.06,5.06,0,0,1-.49,3L183,261.06s9.51-.69,10.21-1.18,1.9-2.29,3.19-2.57,3.1-.28,3.24-2.29A24.45,24.45,0,0,0,199.7,251.82Z"/><path class="cls-1" d="M138.6,342s2.7-1.86,7,.12,7.36,3.14,7.36,3.14l5.62-.12-.94,1.29-.7,1.87-1.41,2s.71,2.1,1.64,2.34a8.07,8.07,0,0,0,3.4.11c.59,1.41.94,2.58.94,2.58l2.22,2.58a4.26,4.26,0,0,1-.58,2.2c-.59.71-2.11,2.23-2.11,3.05a13.4,13.4,0,0,0,.12,3.16,13.35,13.35,0,0,1,.35,2.23c.11.7.23,1.87,1.05,2.22s2.46,1.3,1.64,2.69a13,13,0,0,0-1.41,5.84c0,1.17-.23,1.41-.23,1.41l-2.34,4.45-.59,4.9-.82,1.4s-3.28-.23-2.69,1.64c-.12.24-3.16.35-3.16-1.28a1.18,1.18,0,0,0-1.41-.94c-1.15.12-3.38.13-3.61-2.33s-.59-7.14-1.87-9.48a12.73,12.73,0,0,1,.23-2.23s-3.4,1.41-4.45,0a4.62,4.62,0,0,1-1.64-1.75l-.94-5s3-4.1,2.7-6a20.55,20.55,0,0,0-2.34-6.31c-1.06-1.64-1.41-2.11-1.41-3.86a13.73,13.73,0,0,0-.47-3.75,13.56,13.56,0,0,1-.47-4.45c.71-.24,1.64-.25,1.41-2C138.72,343.32,138.6,342,138.6,342Z"/><path class="cls-1" d="M138.6,342s2.7-1.86,7,.12,7.36,3.14,7.36,3.14l5.62-.12-.94,1.29-.7,1.87-1.41,2s.71,2.1,1.64,2.34a8.07,8.07,0,0,0,3.4.11c.59,1.41.94,2.58.94,2.58l2.22,2.58a4.26,4.26,0,0,1-.58,2.2c-.59.71-2.11,2.23-2.11,3.05a13.4,13.4,0,0,0,.12,3.16,13.35,13.35,0,0,1,.35,2.23c.11.7.23,1.87,1.05,2.22s2.46,1.3,1.64,2.69a13,13,0,0,0-1.41,5.84c0,1.17-.23,1.41-.23,1.41l-2.34,4.45-.59,4.9-.82,1.4s-3.28-.23-2.69,1.64c-.12.24-3.16.35-3.16-1.28a1.18,1.18,0,0,0-1.41-.94c-1.15.12-3.38.13-3.61-2.33s-.59-7.14-1.87-9.48a12.73,12.73,0,0,1,.23-2.23s-3.4,1.41-4.45,0a4.62,4.62,0,0,1-1.64-1.75l-.94-5s3-4.1,2.7-6a20.55,20.55,0,0,0-2.34-6.31c-1.06-1.64-1.41-2.11-1.41-3.86a13.73,13.73,0,0,0-.47-3.75,13.56,13.56,0,0,1-.47-4.45c.71-.24,1.64-.25,1.41-2C138.72,343.32,138.6,342,138.6,342Z"/><path class="cls-1" d="M329.91,355.33a50.79,50.79,0,0,1,.24,7.66c-.24,2.88.48,6,.72,7.9s.95,2.88,1.91,4.79,1,4.31-.48,5.75-2.39,1-4.55,1.2a13.54,13.54,0,0,0-4.31,1.43s-1.19,0-2.39,1.68a8.22,8.22,0,0,1-2.87,2.87,42.61,42.61,0,0,0-4.79,3.35c-1.2,1.2.48,2.4-1.92,3.12s-1.91,1.91-3.35,1.19-2.39-2.15-3.35-1.19,0,2.15-1.92,2.63-1.91-.72-3.35.48a25.2,25.2,0,0,0-3.83,3.59,19.84,19.84,0,0,1-4.55,3.59,4.63,4.63,0,0,0-1.2,2.64c-.32.7.72,2.87,0,4.54s-.47,1.92-1.43,2.88-1.2.72-2.16,2.63-1.91,2.16-1.67,3.59,1.43,2.88,2.63,4.31,1.44,2.64,2.63,3.83,4.31,2.4,3.84,4.07-2.4,2.16-2.64,3.35-.24,8.38-.24,9.34-.72,7.9.24,8.62,1.44,1.44.72,3.59-2.63,3.83-.24,6.71c-.24,3.11-1,4.55-1,6s1,2.64-.24,4.31-2.15,3.35-1.67,4.79,1.67,3.35,1,4.55a6.08,6.08,0,0,1-3.12,2.87c-1.43.48-3.59-.24-4.55.48s-1.91.24-2.87-.48.48-.24-1.67-2.87A19.92,19.92,0,0,0,274.6,482c-1.2-1.2-2.63-.48-2.63-2.64s.48-2.15-.72-2.87-1.2.24-2.63,0-1-.24-1.92-1-1.67-.24-3.11-1-1.92-.23-2.4-1.67.24-2.4-1.19-2.4-2.64-.23-3.83-.23a4.05,4.05,0,0,1-2.4-.72c-1-.48-1.2.48-1.91-.48a3.64,3.64,0,0,1,0-3.83,7,7,0,0,0,.95-3.35,23.14,23.14,0,0,1,1-5.27,14.37,14.37,0,0,0,1.92-4.79c1-3.59,1.43-5.51,2.63-9.34s2.16-7.9,2.87-10.29.72-4.31,1.44-6.23.48-3.35.72-4.55a6.72,6.72,0,0,0-1.44-6.22c-2.15-2.4-2.87-4.31-4.79-4.79s-3.11-1.2-3.83.24-.95,3.11-1.67,4.07a39.76,39.76,0,0,0-2.16,3.83,16.64,16.64,0,0,0-1.43,3.35c-.24,1.2,0,2.16-1,2.64s-2.4.24-4.31.24a13.59,13.59,0,0,0-2.87.23,2.73,2.73,0,0,1-2.88,1.2c-2.15-.24-3.83-.48-3.83-.48l-1.91-1.19-2.88-1.2s-2.87-4.79,2.16-12.69a21,21,0,0,0,1.67-6.7c0-2.88,1.68-6.71,1.92-7.91s1.91-7.42,1.91-7.42-2.15-2.87,2.16-7.66c1.2-1.91,4.79-6.7,6-7.42,1-1.92,1.91-7.42,4.07-5.27.71,1.2.95,3.59,2.87,1.68,1.91-1.44,8.14-5.51,8.14-5.51l16-14.6a6.18,6.18,0,0,1,3.59-.24c1.68.48,3.35-.24,5-2.64a20.07,20.07,0,0,0,2.87,1L288,346l3.83-4.07s1.44-.71,2.39,1.2a14,14,0,0,1,1.2,3.11l4.31,2.4a16,16,0,0,1,2.64,1.44l4.78,3.59.72,3.11.72,1.44h1.68l2.87-1,2.15-.48,1.68-3.59,1.68.24,2.87,1.19,1.67-.24,1.44.24L327,357l.71-1.92S329.43,352,329.91,355.33Z"/><path class="cls-1" d="M329.91,355.33a50.79,50.79,0,0,1,.24,7.66c-.24,2.88.48,6,.72,7.9s.95,2.88,1.91,4.79,1,4.31-.48,5.75-2.39,1-4.55,1.2a13.54,13.54,0,0,0-4.31,1.43s-1.19,0-2.39,1.68a8.22,8.22,0,0,1-2.87,2.87,42.61,42.61,0,0,0-4.79,3.35c-1.2,1.2.48,2.4-1.92,3.12s-1.91,1.91-3.35,1.19-2.39-2.15-3.35-1.19,0,2.15-1.92,2.63-1.91-.72-3.35.48a25.2,25.2,0,0,0-3.83,3.59,19.84,19.84,0,0,1-4.55,3.59,4.63,4.63,0,0,0-1.2,2.64c-.32.7.72,2.87,0,4.54s-.47,1.92-1.43,2.88-1.2.72-2.16,2.63-1.91,2.16-1.67,3.59,1.43,2.88,2.63,4.31,1.44,2.64,2.63,3.83,4.31,2.4,3.84,4.07-2.4,2.16-2.64,3.35-.24,8.38-.24,9.34-.72,7.9.24,8.62,1.44,1.44.72,3.59-2.63,3.83-.24,6.71c-.24,3.11-1,4.55-1,6s1,2.64-.24,4.31-2.15,3.35-1.67,4.79,1.67,3.35,1,4.55a6.08,6.08,0,0,1-3.12,2.87c-1.43.48-3.59-.24-4.55.48s-1.91.24-2.87-.48.48-.24-1.67-2.87A19.92,19.92,0,0,0,274.6,482c-1.2-1.2-2.63-.48-2.63-2.64s.48-2.15-.72-2.87-1.2.24-2.63,0-1-.24-1.92-1-1.67-.24-3.11-1-1.92-.23-2.4-1.67.24-2.4-1.19-2.4-2.64-.23-3.83-.23a4.05,4.05,0,0,1-2.4-.72c-1-.48-1.2.48-1.91-.48a3.64,3.64,0,0,1,0-3.83,7,7,0,0,0,.95-3.35,23.14,23.14,0,0,1,1-5.27,14.37,14.37,0,0,0,1.92-4.79c1-3.59,1.43-5.51,2.63-9.34s2.16-7.9,2.87-10.29.72-4.31,1.44-6.23.48-3.35.72-4.55a6.72,6.72,0,0,0-1.44-6.22c-2.15-2.4-2.87-4.31-4.79-4.79s-3.11-1.2-3.83.24-.95,3.11-1.67,4.07a39.76,39.76,0,0,0-2.16,3.83,16.64,16.64,0,0,0-1.43,3.35c-.24,1.2,0,2.16-1,2.64s-2.4.24-4.31.24a13.59,13.59,0,0,0-2.87.23,2.73,2.73,0,0,1-2.88,1.2c-2.15-.24-3.83-.48-3.83-.48l-1.91-1.19-2.88-1.2s-2.87-4.79,2.16-12.69a21,21,0,0,0,1.67-6.7c0-2.88,1.68-6.71,1.92-7.91s1.91-7.42,1.91-7.42-2.15-2.87,2.16-7.66c1.2-1.91,4.79-6.7,6-7.42,1-1.92,1.91-7.42,4.07-5.27.71,1.2.95,3.59,2.87,1.68,1.91-1.44,8.14-5.51,8.14-5.51l16-14.6a6.18,6.18,0,0,1,3.59-.24c1.68.48,3.35-.24,5-2.64a20.07,20.07,0,0,0,2.87,1L288,346l3.83-4.07s1.44-.71,2.39,1.2a14,14,0,0,1,1.2,3.11l4.31,2.4a16,16,0,0,1,2.64,1.44l4.78,3.59.72,3.11.72,1.44h1.68l2.87-1,2.15-.48,1.68-3.59,1.68.24,2.87,1.19,1.67-.24,1.44.24L327,357l.71-1.92S329.43,352,329.91,355.33Z"/><path class="cls-1" d="M282.62,120.65a3.7,3.7,0,0,1-2.76,1.22,2.82,2.82,0,0,0-1.52.31s-1.69,0-1.69-1.22,1.53-3.52,2.45-2.6.76,1.07,2.14,1.07S283.23,119.89,282.62,120.65Zm2.59-12c-.15-2.29-2.14-5-4.43-4.43s-2.9.3-3.36,2.14-.88,2.29-2.29,1.53-3.41-2.3-4.93-3.06-2.6-1.38-4.13-.61-1.68,1.37-3.21,1.68a2.42,2.42,0,0,0-2.14,2.29,3,3,0,0,0,2,3.06,2.36,2.36,0,0,1,1.83,2.29c.15,1.11.61,1,1.68,1.87s2.6.46,1.07,2.3-3.06,2.29-1.83,3.67a5.72,5.72,0,0,1,3.36-1.38c1.83,0,3.06-.46,2.9-2.6s-1.37-2.94-2.44-4.32-2-2.75-.61-2.44,2.14,1.68,3.51,1.37,3.71,0,4.78,1.07,1.38,3.71,2.9,3.25,1.53-.88,1.84-2a1.94,1.94,0,0,1,2.29-1.56C285.21,113,285.37,111,285.21,108.69Zm-42.39,61.5-.23,3-.47,4.57-.47,6.08-.23,8.31-.23,6.31-.24,7.84h7.61l3.27-.83,3-.7,3.27,3.87,3.64,1.64,3,.46,4,.7,3.74.94,3.17.23,4,.24,2.8.46.47,2.34.23,2.11,3.2.54,2.36-4.19,3.07-2.69,1.58-6.55,2.21-2.37.95-1.9s.87-1.66,1.43-2.45-.32-4.59-.32-4.59a18.92,18.92,0,0,1-2.37-1.82c-.79-.79,3.16-.87,3.16-.87,1.11-2.77,7.65-3.93,8.36-4.17s1.19-1,1.66-2.61,2.14-.95,3.41-.95,1.18-1,1.34-1.82a1.47,1.47,0,0,0-.63-1.34l.08-2.61-.56-3.06,3.4-1.27h2.22a24.41,24.41,0,0,0,3.85-.24,5.37,5.37,0,0,1,2.53.08,2.45,2.45,0,0,0,2.22-.55c.55-.4.95-1.19,1.82-1.35s1.5.32,2.29.95-.08.56.4,1.35.39.79,1.26.55.63-1.34,1.19-1.82a7.58,7.58,0,0,0,1.18-1.58l1.64-.79s1.9-.32,2.85-.4,1.35.4,2.77.56,2.14-1.19,2.77-1.51.39.4.55,1.43-.08,2.92,0,4.35,2.38,4.56,3.17,5.67-.08,2.85-.32,3.24-.32,1.27.79,2.3,1.5-.48,2.43-1.58,1.9.23,2.37,1.26,1.74.4,2.69.24.79-.32,2-.48a24.42,24.42,0,0,1,3-.31c.95,0,.95.39,1,1.26s.87.79,1.82.72.72-.64,1.19-1,2.35-.08,2.35-.08l1.5.71,1.35-.24a18.19,18.19,0,0,0,3-.31c1.67-.32,1.27-2.06,1-3.17a2.53,2.53,0,0,1,.4-2.29c.47-.79,1.58-.4,2.92-.71s.87-1.66.72-2.3a5.93,5.93,0,0,1,.47-3,9.25,9.25,0,0,0,1-2,2.23,2.23,0,0,0,0-1,3.2,3.2,0,0,1,.16-1.42c.16-.71.47-.87.79-1.34A12.34,12.34,0,0,1,382,166.2c.48-.48,1.59.08,1.59.08a8.92,8.92,0,0,0,1.58.31c.47,0,.24-.71.24-1.1a7.82,7.82,0,0,0-.56-1.66c.16-2.93,2.22-1.43,2.22-1.43a15.52,15.52,0,0,0,2.2-3.09c.94-1.77,2.11.6,3.28,1.53s.93.47,4.1-.47.7-1.3,3.51-2.7,2.8-1.17,4.67-2.57,3.74-.23,5.84,1.4,4.58.24,5.51-1.17,3-1.63,6.78-3,2.34-3.51,2.34-3.51a12.63,12.63,0,0,1,1.63-3c1.17-1.64,1.07-3.87,1.3-5.74s-.23-1.87-.23-3,.93-2.57.93-4,0-1.4,2.11-4.34,1.63-3.27,1.87-4a10.18,10.18,0,0,1,2.57-3.51c1.17-.93,1.4-4.21.46-5.84s.24-2,2.11-3.17.47-2.57-.47-3.74-.23-2.1.47-4.21,2.8-1.17,3.5-4-.23-4.1-2.1-6.44S437.35,91.7,435,91s-3.27-2.8-4.68-5.37-5.5-3.87-5.5-3.87-1.87-1.17-4-2.57-4.21-1.87-7-2.81-.46-4-1.17-5.14-4.33-.94-6.67-2.57a10.33,10.33,0,0,1-4.21-6.91c-.46-2.81-2.57-4.44-3.27-6.08s-.47-3-.7-5.27a7.89,7.89,0,0,0-3.17-5.61c-2-1.64-14.15-6.78-17.89-10.18s-13-12.39-13-12.39-1.87-1.53-2.57-1.53a4.68,4.68,0,0,1-3.51-1.64,4.83,4.83,0,0,0-3.5-1.87c-1.41-.23-2.34-.23-2.81-2.1s-1.76-1.17-3.87-3-3-1.87-3-1.87a27.3,27.3,0,0,1-2.33,6.08c-1.41,2.34-1.17-.94-1.64-3A37.06,37.06,0,0,1,340,5.84c0-2.46-.46-2.33-1.17-4S336.06,0,335,0s-1.4,1.17-2.33,1.87-3.51.23-3.51.23L328,3.74s-.93,1.64-1.87,2.93-.93,3.28-1.17,4.68-.23,1.64-1.87,2.1-1.4,0-2.8.47-.24,1.17-.24,2.81-1.06,2.33-2.7,2.8-1.17.7-1.87,1.87.7,1.07-2.1,1.3a3.06,3.06,0,0,0-3,2.57s-3.27,1.87-4.21,1.87-2.93,1.4-4.33,1.87-1.41-1.87-2.11-3.51-2.8-1.63-4.91-2.33a45,45,0,0,0-5.14-1.77A41.87,41.87,0,0,1,282,18.83c-1.87-.94-2.8-2.1-5.14-2.34s-2.34,1.87-3.64,2.81-5.37,3.4-5.37,3.4a11.81,11.81,0,0,1-4.44,1.17c-2.11,0-1.17.47-3,1.87s-2,3-2.47,4.44-1.17,1.63-4,2.57-.47-2.1-1.87-3-3.74.47-3.74,2.81-1.17,2.33-.94,4,0,2-1.63,2.23-2.57,2.81-2.57,2.81-.37.93-2.71,1.63.47,3,.47,3a5.11,5.11,0,0,1-2.34,3.28c-1.87.93-2.33.7-3.27,2.57s-1.63,1.06-4-.24-2.1-1.87-3-2.57S230,44.33,230,44.33l.7-4a27.77,27.77,0,0,0-.94-3.87c-.7-2.23-3.87-4.91-5-6.78s-.7-2.34-.7-3.5-.7-.94-1.87-.94-8.18,0-10.88.23-6.78-.46-8.65-.46-2.1.7-2.8,2.57-.7,3-1.17,4.2-1.77,2.81-1.77,5.38v5.74c0,2.1-.46,5.61-.46,5.61l-.47,5.74a5.47,5.47,0,0,1,.23,3.27c-.47,1.64,1.53,2.81,2.7,4.91a9.19,9.19,0,0,0,4,3.27,8.06,8.06,0,0,1,2.33,2.7c.47,1.3,1.87,2.81,2.81,4.45s-.94,1.63-3.27.7-5.15,2.1-5.15,2.1a19.24,19.24,0,0,1-4.1,1.87c-2.7.94-4,.47-4.91.7s-1.4,3.51-1.4,3.51a14.8,14.8,0,0,1-.7,2.93A14.49,14.49,0,0,0,187.5,88c-.46,2.11-.93.94-1.17,2.58s.24.93-.23,3,0,1.41.7,3,.24,1.41,0,2.7-.47,4.68.24,5.85,1.87.47,2.57-1.17.46-.7,2.1-.7,1.4-.47,2.34-1.87.7.7,1.63.93,3.64,0,4.58.24a3.06,3.06,0,0,0,2.1-.7s3.27-.24,4.21.7,1.16.7,2.1.93,1.64,1.64,2.1,2.34a2.77,2.77,0,0,1,.47,1.4l2,.24v1.63l-.23,2.81,2.8.23,1.87,2.23.47,1.41,2.34.7.93,1.63.47,1.87-.23,3,1.19,1.73c0-2.75.61-3.52,1.84-4.28s3.24-2.45,3.55-1.68-.92,2.14.46,1.53,2.44-.62,4-1.38,2.14-1.38,2.14-2,0-2.14.92-2,1.53.61,2.44.3,2.91-1.11,3.52-2,.8-2,1.57-2.45,1.07-.15,1.83.31,1.38,1.07,2.75.15,1.38-1.53,1.84-1.83.91,1.07.76,2-1.38,2-1.38,2.94a3.46,3.46,0,0,1-.76,1.84s-1.68.92-1.38,1.68a11.51,11.51,0,0,1,.77,2.9,4.22,4.22,0,0,0,.92,2.76,5,5,0,0,1,1.07,3,9.34,9.34,0,0,1-.92,3.4c-.46.77-2,2.14-1.84,2.91s-.3,3.67,2,4.89A19.86,19.86,0,0,1,253,141c.61.46,1.07,1.53,2.75,2s2.64,1.71,4,1.56.92.92,1.07,2a5.6,5.6,0,0,0,2,2.9c.76.61,1.53,2.14,2.14,2.14s2.6.16,3.06.92.76,2.29,1.53,3.06,1.83,1.83,2.59,1.68,1.53-.46,1.53.61-2.29.27-2.14,1.22,1.8,3.1,2.14,3.86-.11,2.45,1.11,3.67,2.6,1.53,2.6.61a5.5,5.5,0,0,0-.31-1.83c-.15-.61.46,0-.61-.92a3.53,3.53,0,0,1-1.07-2.44,2,2,0,0,1,1.68-.16c1.07.31,1.84-.15,1.68-.76s-.45-3.4.31-2.64.61,1.11,1.38,2.18a9,9,0,0,1,1.22,3.06c.15.61.76,2,.61,2.6s-.15,1.68-.92,2-4,0-4.28.77a1.37,1.37,0,0,1-2,.61c-.62-.46-2.33-1.07-3.1-2.6a6.59,6.59,0,0,1-1.07-3.21c0-1.07.46-2.9-.61-3.06s-2.9-.76-3.36.16a2.58,2.58,0,0,0,.3,3.21,1.52,1.52,0,0,1-.76,2.59c-.92.31-4-.45-4.74.16s-3.25.91-3.71-.92-.91-2.9-1.83-1.83-1.53,3-2.75,2.75-.31-.77-.92-2.3-1.38-2.59-2.9-1.68-2.91,2.75-3.83,3.06-1.52,0-2,.92.17,2.65-1.05,3.26"/><path class="cls-1" d="M277,501.29c-.57-1-.38-3-.19-4a16.85,16.85,0,0,1,1.89-4.19,7.46,7.46,0,0,0,.75-4.34l-.75-2.45-4-4.15-2.68-1.55-.38-3.77-1.32-.57-2.64.19-1.13-1.13a27.5,27.5,0,0,0-4.34-1.14c-.94,0-1.13-1.51-1.13-1.51l-.19-1.88-1.13-.38h-4.38l-1.32-.75H253c-3.2-.57-.37-5.89-.37-5.89l.37-2.65a33.75,33.75,0,0,0,.76-4.15c0-.94,1.7-3.39,1.7-3.39s5.32-20.08,7.4-28.95-.76-9.47-.76-9.47l-3.62-4.34a8.69,8.69,0,0,0-2.83-.76c-2.27-.38-2.27.95-2.27.95l-1.32,3s-3.21,5.66-4,7.59c.57,2.5-1.32,3-1.32,3l-7.21.19-.38.75-1.89.57-4.34-.57-4.71-2.26-.8.94h-5.28l-.19.13c.33,0,.66,0,1,0,5.63,0,9.83,2.51,12.33,7.51,2.88,5.76,2.07,10.58-.25,16.59s-4.51,10.71-10.58,13.09c-5.63,2.25-8.2,5.76-14.27,6.26-1.18.08-2.21.34-3.19.49l-1.13,2.14.19.55s20,14.57,22,16.07,14.34,7.17,18.53,9.25,18.91,10.42,21.17,11.74a59.28,59.28,0,0,0,8.16,3.77c2.11.76,2.45-1.51,2.83-3.4a10.81,10.81,0,0,0,0-4.9C278.34,500.91,277.58,502.23,277,501.29Z"/><path class="cls-1" d="M205.93,463.53c-1.75.06-3.44-1.88-2.75-3.5.75-1.88,2.25-2.63,4.25-3.26a4,4,0,0,1,2.51,4.51C209.56,463,207.68,463.47,205.93,463.53Z"/><path class="cls-1" d="M338.9,324.55c-1.64,1-3.28-.65-4.17-2.29s-2-.33-3,.32-1.31,0-3.61-.32-2.3.32-3.93,1.64-1.64,1-5.16.65-2-2-3.61-4.26-3.28-1.64-5.25-1-3,.33-4.59-1,.33-5.81.66-8.76-.66-3.61-2.54-4.92,0-3.28,1.55-4.27,1.32-2.62,0-6.79-.23-5.87.14-6.19-1.45-1.59-2.32-2.81c-.69-2.08-1.73-1-1.73-1s-1.39.7-3.31,1.91c-1.39,5.94-5.21,1.05-6.6.7s-1.91,1.56-1.91,1.56-1.94,3.48-2.64,5c1.39,3.3-2.61,5.77-2.61,5.77l-.52,1-15-.52s-2.43-.35-10.63-1.77a52.57,52.57,0,0,0-14.25-.35c.73,3.47-1.77,7.68-2.12,7.33-1.77-7.47-4.17-6.81-7.33-7.68-5.42-1.42-7.82.87-9.73,2.12-2.43-.35-.87-8.89-.87-8.89s-3.82-4.35-6.43-7.68c3-2.12,5.91-8.52,6.78-12s-1.91-27-1.91-27l-7-.17s-3,1.74-4.9,2.6a17.1,17.1,0,0,1-6.08,1.22,6.45,6.45,0,0,0-4.52,2.08,2.11,2.11,0,0,0-.35,2.61s2.78,2.47,3.31,3c2.08-.17,2.25,4.17,2.25,4.17l-5.38,15.67-.52,2.61-2.64.86-3.83,3.83-5.56.9-1.39,5-2.25,4.69-15.15,11-1.57,3.3-1.6,1.74-.69,2.25a21.81,21.81,0,0,1-2.26,2.26c-1.39,1.22.35,3.86.35,3.86l-.17,3.3s1,1.39,2.25,2.95.7,6.47.7,6.47l.69,1.21v3.65L163,336.81l-3.13.17c.35,2.95-1,8-1,8l-1.22,1.91a15.16,15.16,0,0,1-1.74,3.13c-.69.69.52,1.39.87,2.25s4,.53,4,.53l.87,2.6a19.74,19.74,0,0,0,1.73,1.91c1.22,1.22-.17,3.51-1.56,4.9s-.52,4-.52,4a13.6,13.6,0,0,1,.35,2.95c0,1.56,1.91,1.56,2.6,2.61s0,2.08-.87,4.55-.17,2.78-.52,4.17a24.58,24.58,0,0,1-2.6,4.69,20.07,20.07,0,0,0-.35,4c0,2.44-2.09,2.12-3.3,2.82s.17,1.74.17,1.74,2.26,2.78,2.78,3.65c0,1.73-.35,3.82-1.56,4.69,2.08,8-1.91,10.28-1.91,10.28.52,6.08-4.9,8.72-4.9,8.72l2.12,1.91c1.91-1.91,1.21,1.74,1.21,1.74L152.53,427l-.34,1.39-3,.52v4.17l1.91,2.81-.18,2.26,1.95,4.87,1.74,6.6s.17,1.42.17,2.47.35,4.17.35,4.17l-.17,3.3s-.53.52-2.61,2.43-2.29,3.3-3.16,5.25-2.44,3.3-4,4.86-1.74,2.95-2.43,3.47a28.66,28.66,0,0,0-4,4.87c-.52,1,1,3.33,1,3.33a8,8,0,0,0,4.34-.34c1.91-.87,2.08-1.57,2.78-1.95s1.91-.52,4.72-.52,7.13,1.95,8.17,2.64,3.65,3.82,3.82,5,2.61,1,4.9,1.21,15.5,1.57,15.5,1.57a20.66,20.66,0,0,0-.35-4.17c-.35-.87-2.29-5.73-2.47-6.46a11.53,11.53,0,0,1,.18-2.78s5.07-1.39,7.68-2.09,17.4-5.21,17.4-5.21l-3.4-3.09c-2.78-1.81-4.21-5.78-2.17-8.31,4.07-5-3.19-9.64-3.5-16.08-.07-1.88,1.87-2.26,3-3.76s.5-3.19,1.75-4.57c1.69-1.88,3.51-2,5.51-3.51a48.48,48.48,0,0,1,7.84-5.35l0-.08a1.58,1.58,0,0,1,2.24-.83,16.7,16.7,0,0,1,4.9-.74c.82-.07,1.7.12,3.46,0,2.61-.17,2.12-1.21,2.12-1.21s-.41-3.52-.41-4.89,1.71-6.12,2.71-7.87,1.12-4.87,1.5-6.45.62-4,1.12-5.87,1.38-4.25,1.75-5.37a15.93,15.93,0,0,0,.88-5,8.33,8.33,0,0,1,1-4.87,49.2,49.2,0,0,1,6.25-7.87,6.64,6.64,0,0,0,2.08-3.33,5.82,5.82,0,0,1,1.63-3.38c1.37-1.62,1.12.13,2.25,1.5s3.37-.5,4.12-1.37,6.58-4,6.58-4,.87-1.12,2.5-2.87a67.43,67.43,0,0,1,6.74-6c2.37-1.87,6.08-5.37,6.58-5.74s2.37-.38,3.75-.13,3-.62,4.12-2.12,2.87,1.25,3.75,0,1.24-2.37,2.21-3,.87-1.33,2.49-2.71,2.5,1.5,3.13,3.34,1.62,1.75,3.37,3,1.87.75,2.62.75,2.12,2.38,4.33,3.63,1.63,2.12,2.38,4.49,4,.5,5,.13a3.38,3.38,0,0,1,2.12-.38c1.5,0,1.38-1.37,2-3.12s2-.5,4,.37.63,1.63,1.75.5,2.75.25,4,2.25.49-.75,1.87-2.62c1.23-1.68,1.66.4,1.73.85-.08-.56-.58-3.93,0-4.83s2.29-2.3,2.62-4.92,1-2.21,1.64-4.17,0-2.3.66-5.25,5.15-8.44,5.81-9.42S340.54,323.57,338.9,324.55Z"/></svg>