<svg id="Layer_1" data-name="Layer 1" xmlns="http://www.w3.org/2000/svg" viewBox="0 0 512 512"><defs><style>.cls-1{fill:#a7a9ac;}.cls-1,.cls-2{stroke:#fff;stroke-linejoin:round;fill-rule:evenodd;}.cls-2{fill:#e6e7e8;}</style></defs><path class="cls-1" d="M318.42,121.68s1.67.88,3.55,1.76,5.1-.3,5.1-.3l2.65-3.52a6.14,6.14,0,0,1,2-3.52c1.76-1.47,1.18-3.42,1.18-4.41s-.3-4.23,2.05-3,1.77,3,4.11,3.93,1.07.88,4.12,1.47,2.46.29,4.52-.29,2.64-.89,5.28,0,4.41,2.93,5.88,1.76a40.43,40.43,0,0,1,4.4-3.53c1.29-.7,1.58-1.58,4.23-1.58h4.4l.3,3.35,3.82,3.23,4.69.58.89,2.94,9.51,7,11.75-1.17,2.35-2.65,4.22,2.35,3.23.3,1.18,4.4s10.57,6.58,10.86,9.22,1.77,7.34,1.47,9.4,1.58,4.22,1.58,4.22l.3,3.82s-.59,5.29-.59,7.05-.59,8.34.29,10.1a15.14,15.14,0,0,1,2.06,6.76c0,2.64,1.18,4.7.88,6.16s.3,9.81.3,9.81a28.8,28.8,0,0,1-3.24,5,67.14,67.14,0,0,1-5.1,4.7l-2.94,1.76-8.52-.29s-5.69-.59-6.57.59-1.76,2.94-3.23,3.82-3.53,2.23-5,2.93-6.75.7-6.75.7a13.81,13.81,0,0,1-3.53-.29c-1.87-.41-3.34,1.47-3.34,1.47s.59,2.05-3.82,2.35-5.87.59-7.05.29a35.71,35.71,0,0,1-5-2.64s-1.76-1-1.76-2.17,1.06-2.35-1-2.35-1.76,0-3.52,1.18-1.47.88-3.53,1.17-2.35-.18-4.4.7-3.82.18-3.82-1-1.76-5-2.94-6.47L342.93,205a7.36,7.36,0,0,0-5.58-1.77c-3.52.3-4.7-1.47-5.87-1.76s-4.11-.88-4.11-.88a3.76,3.76,0,0,0-3.53-1.17c-2.46.29-2.75-.59-6,.58a18.39,18.39,0,0,1-6.75,1.18,40.56,40.56,0,0,1-4.41-.59l-2.35-1.47a14.32,14.32,0,0,0-3.63,0,18.47,18.47,0,0,0-3.24,1.47l-2.64.29s.59-2.35-.88-1.46-2.35.58-2.35,2.64a22,22,0,0,1-.88,5s0,2.35-3.82,2.65a10.52,10.52,0,0,1-6.57-1.77,46.9,46.9,0,0,0-3.53-4.7c-1.17-1.17-1.17-2.64-.88-4.4s-2.35-5.7-2.35-5.7-2.06-3.52-1.76-5,.29-2.94,1.76-4.7a13,13,0,0,0,2.06-5s2.05.59,2.35-.88-1.29-2.65,1.17-2.65,4.23-1.28,4.23-2.75,1.46-3.23-.3-4.11-2.05-2.65-.88-4.7,1.47-5.58,1.76-6.76.3-3.64.89-5.4a28.44,28.44,0,0,0,.88-4.7l-1.18-5.29,1.47-4.11-.88-5.1,1.76.4s1.5-3.76,5.3-2.82c0,.65,2.69,1.55,5-.95,0-.45,4.49-5.74,10.66-4,0,.3,4.7-1.76,4.7-1.76l4.4-.29Z"/><path class="cls-1" d="M318.42,121.68s1.67.88,3.55,1.76,5.1-.3,5.1-.3l2.65-3.52a6.14,6.14,0,0,1,2-3.52c1.76-1.47,1.18-3.42,1.18-4.41s-.3-4.23,2.05-3,1.77,3,4.11,3.93,1.07.88,4.12,1.47,2.46.29,4.52-.29,2.64-.89,5.28,0,4.41,2.93,5.88,1.76a40.43,40.43,0,0,1,4.4-3.53c1.29-.7,1.58-1.58,4.23-1.58h4.4l.3,3.35,3.82,3.23,4.69.58.89,2.94,9.51,7,11.75-1.17,2.35-2.65,4.22,2.35,3.23.3,1.18,4.4s10.57,6.58,10.86,9.22,1.77,7.34,1.47,9.4,1.58,4.22,1.58,4.22l.3,3.82s-.59,5.29-.59,7.05-.59,8.34.29,10.1a15.14,15.14,0,0,1,2.06,6.76c0,2.64,1.18,4.7.88,6.16s.3,9.81.3,9.81a28.8,28.8,0,0,1-3.24,5,67.14,67.14,0,0,1-5.1,4.7l-2.94,1.76-8.52-.29s-5.69-.59-6.57.59-1.76,2.94-3.23,3.82-3.53,2.23-5,2.93-6.75.7-6.75.7a13.81,13.81,0,0,1-3.53-.29c-1.87-.41-3.34,1.47-3.34,1.47s.59,2.05-3.82,2.35-5.87.59-7.05.29a35.71,35.71,0,0,1-5-2.64s-1.76-1-1.76-2.17,1.06-2.35-1-2.35-1.76,0-3.52,1.18-1.47.88-3.53,1.17-2.35-.18-4.4.7-3.82.18-3.82-1-1.76-5-2.94-6.47L342.93,205a7.36,7.36,0,0,0-5.58-1.77c-3.52.3-4.7-1.47-5.87-1.76s-4.11-.88-4.11-.88a3.76,3.76,0,0,0-3.53-1.17c-2.46.29-2.75-.59-6,.58a18.39,18.39,0,0,1-6.75,1.18,40.56,40.56,0,0,1-4.41-.59l-2.35-1.47a14.32,14.32,0,0,0-3.63,0,18.47,18.47,0,0,0-3.24,1.47l-2.64.29s.59-2.35-.88-1.46-2.35.58-2.35,2.64a22,22,0,0,1-.88,5s0,2.35-3.82,2.65a10.52,10.52,0,0,1-6.57-1.77,46.9,46.9,0,0,0-3.53-4.7c-1.17-1.17-1.17-2.64-.88-4.4s-2.35-5.7-2.35-5.7-2.06-3.52-1.76-5,.29-2.94,1.76-4.7a13,13,0,0,0,2.06-5s2.05.59,2.35-.88-1.29-2.65,1.17-2.65,4.23-1.28,4.23-2.75,1.46-3.23-.3-4.11-2.05-2.65-.88-4.7,1.47-5.58,1.76-6.76.3-3.64.89-5.4a28.44,28.44,0,0,0,.88-4.7l-1.18-5.29,1.47-4.11-.88-5.1,1.76.4s1.5-3.76,5.3-2.82c0,.65,2.69,1.55,5-.95,0-.45,4.49-5.74,10.66-4,0,.3,4.7-1.76,4.7-1.76l4.4-.29Z"/><path class="cls-2" d="M427.79,153.62c0,.16,3.08,2.61,4.46,2.15s7.84-3.91,9.68-4.37,3.93.24,6,1.38,3,3.21,3.91,1.15a21.81,21.81,0,0,1,3.69-4.83l3.23,1.38,2.76-1.38H468a2,2,0,0,1,3.45,0,18.17,18.17,0,0,0,8.76,5.75c4.14,1.38,11.74,5.07,14.05,6.92s6,2.76,6.45,6,1.38,4.37,1.84,7.14,4.15,7.37,0,11.06-9.68,5.29-8.75,10.36.92,6.92,0,10.15.92,3.92-.46,7.37-1.85,1.15-2.31,5.29-.46,6.92,1.84,7.84a7.77,7.77,0,0,1,4.61,6.92c0,3.22.46,5.75-1.84,6.67s-6.22-.46-7.14,1.85-.92,5.07-2.76,8.75A34.26,34.26,0,0,0,482,261.53c-.92,4.61-3.69,10.6-4.15,9.22s0-3.69-.92-7.38-1.85-3.46-3.69-4.61-2.3-4.37-2.3-4.37-.69-1.14-3,2.31a20,20,0,0,1-6.46,6.67c-2.76,1.85-6,3.69-3.68,6s2.76,1.84,0,4.61-21.89,22.35-21.89,22.35l-8.3.46,3.69,5.75S429,307.61,429,309s2.31,6.46,2.31,6.46l-1.39,2.76-24.87,13.13h-3.69s-5.07,5.54-6.46-.46c-2.76,0-10.82.93-10.82.93l-11.52.92s-9.45,5.07-12.67,6.45a50.19,50.19,0,0,0-7.84,4.83s.92,6-.46,8.3a24,24,0,0,1-3.23,4.15h-2.3l-.93-4.15h-3l.46-6.45.46-9s3-2.31,1.6-5.07-2.06-8.3-2.06-8.3L333,307.15,332,296.79a19,19,0,0,0-6.45-.46,51.19,51.19,0,0,0-5.75,1.38s-2.77-.46-2.31-2.77c0,0-7.84-.92-7.84-6.91,0-.46-2.3-2.31-2.3-2.31a13.65,13.65,0,0,1,1.38-4.15,14.35,14.35,0,0,0,1.39-4.37l-.93-6.91A14.88,14.88,0,0,1,304.6,274c-2.3.92-3,1.84-7.13,1.38s-4.61-1.38-9.22-2.31-6-3.68-6-3.68l-3.44.46a29.4,29.4,0,0,0-3.69-5.07c-1.85-1.85-6-5.08-6-5.08l-3.68-2.52-1.85-6s-6.67-3.22-8.52-4.14a30.49,30.49,0,0,1-5.07-4.15l-3.69-.93-5.07-8.51-1.38-4.15-3-9.68L235,212.46a14.4,14.4,0,0,0-6.46-4.15c-3.68-.92-5.07,0-7.83-2.31s-2.53-2.76-5.76-2.76H194s1.84-1.38-.46-2.77-2.31-5.75-2.31-5.75v-6.46a10.06,10.06,0,0,0-1.38-4.14l-3.69-1.76-.89-8.4,3.54-.17.89-2.66s.69-1.86,3.92-2.38c-.26,0,2.05,2.57,2.05,2.57s1.44,1.05,3.49-.63a11.93,11.93,0,0,1,2.57.63s1.52-.84,2.3,1.58c0,.74,2.07,2.89,3.1-.88-.26-.44.42-3.93,2.65-4,.17-.05,3.52.21,3.52.21s1.66,0,3.34-4.12c-.26,0,6.57-3.34,6.57-3.34a17.74,17.74,0,0,0,3.08-6.17c.52-.51,1.55-5,1.55-5s-.78-2.83,4.37-2.83c.25.25,2.71-1.73,5,1.45.38.09.63-3.9.63-3.9l1.43-.12s2.83-6.18,8.23-6.69c0-.26,6.11-3.5,8.45-3.68s4.29-2,7.37,1.37c-.51.51,1.8,1.8,1.8,1.8l6.94.51,5.92-4.37,7.12-1.17.88,5.1-1.47,4.11,1.18,5.29s-2.13,7.42-1.77,10.1c-.66,2.94-1.76,6.76-1.76,6.76s-2.24,3.38,1.87,5.43c-.51.52.12,5.8-3.74,5.8a22.89,22.89,0,0,1-2.83.51s1.91,3.61-1.87,3.35c-.44-.26.44,2.27-2.06,5s-2.13,6.24,0,9.69c1.62,2.43,2.65,5.77,2.13,8.08.26,1,3,6.69,5.8,7.46s7.46,2.06,8.23.51a19.2,19.2,0,0,0,1.8-8c0,.26,2.42-1.79,2.42-1.79l.88,1.46,2.64-.29,3.24-1.47h3.63l2.35,1.47s3.61.88,10.18-.15c-.52-.26,8-2.53,10.5.15a12.12,12.12,0,0,1,7.38,2.94c0,.25,7.67-2.42,11.23,5.28.22.12,2.94,6.47,2.94,6.47s.62,2.9,5.76.33c-.25,0,4.49.77,7.46-2.31-.26.25,2.05-.08,2.05-.08s1.59,0,1.26,1a2.42,2.42,0,0,0,1,3.15c1.56,1,4.22,2.54,4.22,2.54a7.57,7.57,0,0,0,3.06.65c1.3-.13,4.94-.39,4.94-.39s4.09.15,4.16-2.44a4.11,4.11,0,0,1,4.32-1.33l5.86.13a10.4,10.4,0,0,0,4.61-1.33c2.21-1.3,4.55-3,4.55-3l2.05-2.38s-.49-1.14,3.93-1.31,11.62.28,11.62.28,7.8-3.62,11.28-11.45c-.13,0-.3-9.81-.3-9.81s-1.14-8.18-2.45-11.94a9.44,9.44,0,0,1-1-5.74C427.62,165.9,428.29,156.9,427.79,153.62Z"/><path class="cls-2" d="M427.79,153.62c0,.16,3.08,2.61,4.46,2.15s7.84-3.91,9.68-4.37,3.93.24,6,1.38,3,3.21,3.91,1.15a21.81,21.81,0,0,1,3.69-4.83l3.23,1.38,2.76-1.38H468a2,2,0,0,1,3.45,0,18.17,18.17,0,0,0,8.76,5.75c4.14,1.38,11.74,5.07,14.05,6.92s6,2.76,6.45,6,1.38,4.37,1.84,7.14,4.15,7.37,0,11.06-9.68,5.29-8.75,10.36.92,6.92,0,10.15.92,3.92-.46,7.37-1.85,1.15-2.31,5.29-.46,6.92,1.84,7.84a7.77,7.77,0,0,1,4.61,6.92c0,3.22.46,5.75-1.84,6.67s-6.22-.46-7.14,1.85-.92,5.07-2.76,8.75A34.26,34.26,0,0,0,482,261.53c-.92,4.61-3.69,10.6-4.15,9.22s0-3.69-.92-7.38-1.85-3.46-3.69-4.61-2.3-4.37-2.3-4.37-.69-1.14-3,2.31a20,20,0,0,1-6.46,6.67c-2.76,1.85-6,3.69-3.68,6s2.76,1.84,0,4.61-21.89,22.35-21.89,22.35l-8.3.46,3.69,5.75S429,307.61,429,309s2.31,6.46,2.31,6.46l-1.39,2.76-24.87,13.13h-3.69s-5.07,5.54-6.46-.46c-2.76,0-10.82.93-10.82.93l-11.52.92s-9.45,5.07-12.67,6.45a50.19,50.19,0,0,0-7.84,4.83s.92,6-.46,8.3a24,24,0,0,1-3.23,4.15h-2.3l-.93-4.15h-3l.46-6.45.46-9s3-2.31,1.6-5.07-2.06-8.3-2.06-8.3L333,307.15,332,296.79a19,19,0,0,0-6.45-.46,51.19,51.19,0,0,0-5.75,1.38s-2.77-.46-2.31-2.77c0,0-7.84-.92-7.84-6.91,0-.46-2.3-2.31-2.3-2.31a13.65,13.65,0,0,1,1.38-4.15,14.35,14.35,0,0,0,1.39-4.37l-.93-6.91A14.88,14.88,0,0,1,304.6,274c-2.3.92-3,1.84-7.13,1.38s-4.61-1.38-9.22-2.31-6-3.68-6-3.68l-3.44.46a29.4,29.4,0,0,0-3.69-5.07c-1.85-1.85-6-5.08-6-5.08l-3.68-2.52-1.85-6s-6.67-3.22-8.52-4.14a30.49,30.49,0,0,1-5.07-4.15l-3.69-.93-5.07-8.51-1.38-4.15-3-9.68L235,212.46a14.4,14.4,0,0,0-6.46-4.15c-3.68-.92-5.07,0-7.83-2.31s-2.53-2.76-5.76-2.76H194s1.84-1.38-.46-2.77-2.31-5.75-2.31-5.75v-6.46a10.06,10.06,0,0,0-1.38-4.14l-3.69-1.76-.89-8.4,3.54-.17.89-2.66s.69-1.86,3.92-2.38c-.26,0,2.05,2.57,2.05,2.57s1.44,1.05,3.49-.63a11.93,11.93,0,0,1,2.57.63s1.52-.84,2.3,1.58c0,.74,2.07,2.89,3.1-.88-.26-.44.42-3.93,2.65-4,.17-.05,3.52.21,3.52.21s1.66,0,3.34-4.12c-.26,0,6.57-3.34,6.57-3.34a17.74,17.74,0,0,0,3.08-6.17c.52-.51,1.55-5,1.55-5s-.78-2.83,4.37-2.83c.25.25,2.71-1.73,5,1.45.38.09.63-3.9.63-3.9l1.43-.12s2.83-6.18,8.23-6.69c0-.26,6.11-3.5,8.45-3.68s4.29-2,7.37,1.37c-.51.51,1.8,1.8,1.8,1.8l6.94.51,5.92-4.37,7.12-1.17.88,5.1-1.47,4.11,1.18,5.29s-2.13,7.42-1.77,10.1c-.66,2.94-1.76,6.76-1.76,6.76s-2.24,3.38,1.87,5.43c-.51.52.12,5.8-3.74,5.8a22.89,22.89,0,0,1-2.83.51s1.91,3.61-1.87,3.35c-.44-.26.44,2.27-2.06,5s-2.13,6.24,0,9.69c1.62,2.43,2.65,5.77,2.13,8.08.26,1,3,6.69,5.8,7.46s7.46,2.06,8.23.51a19.2,19.2,0,0,0,1.8-8c0,.26,2.42-1.79,2.42-1.79l.88,1.46,2.64-.29,3.24-1.47h3.63l2.35,1.47s3.61.88,10.18-.15c-.52-.26,8-2.53,10.5.15a12.12,12.12,0,0,1,7.38,2.94c0,.25,7.67-2.42,11.23,5.28.22.12,2.94,6.47,2.94,6.47s.62,2.9,5.76.33c-.25,0,4.49.77,7.46-2.31-.26.25,2.05-.08,2.05-.08s1.59,0,1.26,1a2.42,2.42,0,0,0,1,3.15c1.56,1,4.22,2.54,4.22,2.54a7.57,7.57,0,0,0,3.06.65c1.3-.13,4.94-.39,4.94-.39s4.09.15,4.16-2.44a4.11,4.11,0,0,1,4.32-1.33l5.86.13a10.4,10.4,0,0,0,4.61-1.33c2.21-1.3,4.55-3,4.55-3l2.05-2.38s-.49-1.14,3.93-1.31,11.62.28,11.62.28,7.8-3.62,11.28-11.45c-.13,0-.3-9.81-.3-9.81s-1.14-8.18-2.45-11.94a9.44,9.44,0,0,1-1-5.74C427.62,165.9,428.29,156.9,427.79,153.62Z"/><path class="cls-2" d="M317.51,294.94c0,.17,5.63-5.21,5.63-5.21l3.8-.48.15-5.06,8.23-7.68s2.6-2.14,6.17,1.42,7.68,10.29,9.89,17.65h3s5.38-5.38,5.53-8.38,0-5,1.59-7.44,5.3-8.38,4.35-16.54-3.4-13.21-3.4-15.58.15-16.7-.48-17.81-2.37-4.11-5.69-3.64-3.8,1.9-5.86,4.12-1.74,2.53-2.53,4.43-2.93,4.51-5.15,5.3-6.32,6.65-6.32,9.18-.48,4.27-1.9,5.85-2.69,2.14-3.32,3.88-1.27,4.27-4.12,4.43-5.3-2.69-7.52-2.05-2.84,3.48-4.74,5.22a35.39,35.39,0,0,1-5.62,3.74l.87,6.22a8.09,8.09,0,0,1-.95,3.88c.16.16-1.62,3.54-1.76,5.33.18.21,1.76,1.63,1.76,1.63a3.32,3.32,0,0,1,.64,1.9C309.77,290.36,311.25,293.83,317.51,294.94Z"/><path class="cls-2" d="M317.51,294.94c0,.17,5.63-5.21,5.63-5.21l3.8-.48.15-5.06,8.23-7.68s2.6-2.14,6.17,1.42,7.68,10.29,9.89,17.65h3s5.38-5.38,5.53-8.38,0-5,1.59-7.44,5.3-8.38,4.35-16.54-3.4-13.21-3.4-15.58.15-16.7-.48-17.81-2.37-4.11-5.69-3.64-3.8,1.9-5.86,4.12-1.74,2.53-2.53,4.43-2.93,4.51-5.15,5.3-6.32,6.65-6.32,9.18-.48,4.27-1.9,5.85-2.69,2.14-3.32,3.88-1.27,4.27-4.12,4.43-5.3-2.69-7.52-2.05-2.84,3.48-4.74,5.22a35.39,35.39,0,0,1-5.62,3.74l.87,6.22a8.09,8.09,0,0,1-.95,3.88c.16.16-1.62,3.54-1.76,5.33.18.21,1.76,1.63,1.76,1.63a3.32,3.32,0,0,1,.64,1.9C309.77,290.36,311.25,293.83,317.51,294.94Z"/><path class="cls-2" d="M497.12,238.3s3,2.62,3,5.8,3.75,7.31,5.25,9.19,7.49,7.85,5.05,10.28-4.68,2.06-4.68,4.5-1.31,6,1.69,8.24,3.74,3.73,1.31,6.92-4.12,4.68-3.75,6.93,4.69,2.81,3,6-7.5,6.35-7.68,9.53.18,5.62,2.06,7.31,3,7.85.75,9.54-10.48,5.06-14.41,10.12-4.48,9.53-.56,11.78,5.2,7.87,3.16,9.74-5.79,1.88-6.16,5.06-2.44,7.48-5.06,8.79-6.56,8.27-6.37,12.56.75,12.53-.56,13.65-7.67,2.63-11,3.38-4.12,2.06-7.68,3.18-11.79,1.31-15.35.75-3.93-3.93-7.12-2.25-2.23,3.56-5.79,3-3.74-3.37-6.18-2.06-6.56,4.12-9,3.19-2.06-3.38-2.81-6.56-3.91-4.69-5-5.06-6.55-6.54-5.43-8.79,5.81-6.56,3.19-7.49-1.32.18-4.31.93-9,.94-10.31.19-5.79-1.87-9.16-4.5-5.08-8.24-11.06-8.43-8.6,1.11-12-.75-5.72-6.51-5.72-6.51,5.78-3.15,3.69-12.45c.16-.51,4.47-2.73,4.47-2.73l16-8.55,22.34-1.85s1.52,5.9,6.46.46h3.69l24.87-13.13,1.39-2.76L429,309l2.31-6.45-3.69-5.75,8.3-.46,23.93-24.7s-5.06-3.19-1.5-5.62a80.13,80.13,0,0,0,6.56-5.06l4.85-6.17s.75-.93,1.31.57,1.69,3.91,4.5,4.66c1.5.75,1.88,6,1.88,6l.4,4.74s1.77.15,4.15-9.22c.13-.21,2-7,3.69-10.37,0-.12,2.76-8.75,2.76-8.75s-.16-1.49,3.59-1.3C494.12,241.29,498.06,240.71,497.12,238.3Z"/><path class="cls-2" d="M497.12,238.3s3,2.62,3,5.8,3.75,7.31,5.25,9.19,7.49,7.85,5.05,10.28-4.68,2.06-4.68,4.5-1.31,6,1.69,8.24,3.74,3.73,1.31,6.92-4.12,4.68-3.75,6.93,4.69,2.81,3,6-7.5,6.35-7.68,9.53.18,5.62,2.06,7.31,3,7.85.75,9.54-10.48,5.06-14.41,10.12-4.48,9.53-.56,11.78,5.2,7.87,3.16,9.74-5.79,1.88-6.16,5.06-2.44,7.48-5.06,8.79-6.56,8.27-6.37,12.56.75,12.53-.56,13.65-7.67,2.63-11,3.38-4.12,2.06-7.68,3.18-11.79,1.31-15.35.75-3.93-3.93-7.12-2.25-2.23,3.56-5.79,3-3.74-3.37-6.18-2.06-6.56,4.12-9,3.19-2.06-3.38-2.81-6.56-3.91-4.69-5-5.06-6.55-6.54-5.43-8.79,5.81-6.56,3.19-7.49-1.32.18-4.31.93-9,.94-10.31.19-5.79-1.87-9.16-4.5-5.08-8.24-11.06-8.43-8.6,1.11-12-.75-5.72-6.51-5.72-6.51,5.78-3.15,3.69-12.45c.16-.51,4.47-2.73,4.47-2.73l16-8.55,22.34-1.85s1.52,5.9,6.46.46h3.69l24.87-13.13,1.39-2.76L429,309l2.31-6.45-3.69-5.75,8.3-.46,23.93-24.7s-5.06-3.19-1.5-5.62a80.13,80.13,0,0,0,6.56-5.06l4.85-6.17s.75-.93,1.31.57,1.69,3.91,4.5,4.66c1.5.75,1.88,6,1.88,6l.4,4.74s1.77.15,4.15-9.22c.13-.21,2-7,3.69-10.37,0-.12,2.76-8.75,2.76-8.75s-.16-1.49,3.59-1.3C494.12,241.29,498.06,240.71,497.12,238.3Z"/><path class="cls-2" d="M246.31,241.94a5.61,5.61,0,0,0,2.6,4.67c2.77,1.91,2.08,4.17,2.08,4.17l-1.56,1.56-.35,55.09s-3,1.21-3,2.77-.35,3.82-1.57,4.69a2.88,2.88,0,0,0-1.38,2.95,3.69,3.69,0,0,1-.87,3.78,6.93,6.93,0,0,0-1.91,2.95c-.18.52-1.22,1-1.22,1s1.74,3.3,3.82,4.17,2.09,1.74,2.09,1.74l-.87,1.56-.87,1.74-.17,4.34s0,1.56,2.25,1.74,2.61,4.29,4.34,4.29a15.18,15.18,0,0,1,4.69,1c1.74.52,5.69,1.57,5.69,1.57l4.17.34s3.12-1.56,4.16-1.91,2.78.7,3.82,3.48,2.78,6.25,5,6.25,2.21-1,3.6-1.22,2.61,3.13,5.21,3.13,3.13-1.56,4.86-2.78,1.74-1.56,5-1.39,3.77.69,5.51-1,4.69-2.78,6.77,0,4,4.34,6.25,4.34,4,.17,5-.87,1.52-2.43,2.91-1,2.78,1,4.69-.52,5.21-3.3,5.9-3.82a13.85,13.85,0,0,0,1.91-2.43s3,0,3.82,1.39a10,10,0,0,0,3.32,2.6l.92-15.43s4.53-1.89.4-8.14c0-.17-.86-5.23-.86-5.23L333,307.15,332,296.79s-5.72-1.65-9.49.26c.17.18-5,2.21-5-2.11-.32,0-6.83-.81-7.74-5.69a5,5,0,0,0-2.4-3.53c.27.22.79-4.34,2.35-6.21.18.18.52-2.73,0-6a23,23,0,0,0-.51-3.19s-5.52,7.18-14.72,4.75L287,273a11.16,11.16,0,0,1-4.77-3.59c-.27.12-3.44.46-3.44.46a17.75,17.75,0,0,0-7.72-8.33c-.18-.18-5.65-4.34-5.65-4.34l-1.85-6L255.07,247,250,242.87Z"/><path class="cls-2" d="M246.31,241.94a5.61,5.61,0,0,0,2.6,4.67c2.77,1.91,2.08,4.17,2.08,4.17l-1.56,1.56-.35,55.09s-3,1.21-3,2.77-.35,3.82-1.57,4.69a2.88,2.88,0,0,0-1.38,2.95,3.69,3.69,0,0,1-.87,3.78,6.93,6.93,0,0,0-1.91,2.95c-.18.52-1.22,1-1.22,1s1.74,3.3,3.82,4.17,2.09,1.74,2.09,1.74l-.87,1.56-.87,1.74-.17,4.34s0,1.56,2.25,1.74,2.61,4.29,4.34,4.29a15.18,15.18,0,0,1,4.69,1c1.74.52,5.69,1.57,5.69,1.57l4.17.34s3.12-1.56,4.16-1.91,2.78.7,3.82,3.48,2.78,6.25,5,6.25,2.21-1,3.6-1.22,2.61,3.13,5.21,3.13,3.13-1.56,4.86-2.78,1.74-1.56,5-1.39,3.77.69,5.51-1,4.69-2.78,6.77,0,4,4.34,6.25,4.34,4,.17,5-.87,1.52-2.43,2.91-1,2.78,1,4.69-.52,5.21-3.3,5.9-3.82a13.85,13.85,0,0,0,1.91-2.43s3,0,3.82,1.39a10,10,0,0,0,3.32,2.6l.92-15.43s4.53-1.89.4-8.14c0-.17-.86-5.23-.86-5.23L333,307.15,332,296.79s-5.72-1.65-9.49.26c.17.18-5,2.21-5-2.11-.32,0-6.83-.81-7.74-5.69a5,5,0,0,0-2.4-3.53c.27.22.79-4.34,2.35-6.21.18.18.52-2.73,0-6a23,23,0,0,0-.51-3.19s-5.52,7.18-14.72,4.75L287,273a11.16,11.16,0,0,1-4.77-3.59c-.27.12-3.44.46-3.44.46a17.75,17.75,0,0,0-7.72-8.33c-.18-.18-5.65-4.34-5.65-4.34l-1.85-6L255.07,247,250,242.87Z"/><path class="cls-2" d="M194,203.24s-7.2,2.94-10.72,5.5-15.21,8.5-18.09,9.14-12,5.75-16.81,8.63-10.68,9.46-14.06,11.7-3.07,4.47-3.71,8-1.92,3.19-2.88,7.35-1.59,6.9-3.51,8.82S122,267.17,122,271s0,7.22-2.56,10.1-3.06,5.11-6.9,6.07a38.35,38.35,0,0,0-7,2.56,36,36,0,0,1-4.16,5.75c-2.55,2.88-.32,2.43-2.55,4.67s-6.4.32-6.08,3.51,2.43,4.16-.32,4.48a24.94,24.94,0,0,1-5.3,0s.32,1-2.56,2.88-2.88,2.23-4.79,1.28-1.6-3.84-4.16.31-3.19,4.16-1.92,6.08,4.48,3.7,4.48,5.94,3.2,7.35.64,9.59-7.54,1-9.14,2.88-2.11,5.94.64,7.86-.13,3.2,1.79,5.43,5.43,6.4,7,5.76,2.87-2.24,5.43-2.24,7.86,1.28,9.14,2.88a68.58,68.58,0,0,0,8.31,8.5c2.56,1.91,2.56,2.87,6.08,2.87s3.7-.32,5.3-.32a12.44,12.44,0,0,1,7,2.24c2.88,1.92,5.44,5.44,9.27,3.84s6.26-4.16,9.78-5.76,6.71-2.87,6.71-2.87l8-.32s7.23-2.24,9.46-1.6a18.28,18.28,0,0,1,4.8,2.56,36.76,36.76,0,0,0,7.86-.32c4.79-.64,2.88,1.27,7,2.87s6.71,1.6,8.31.64a38.76,38.76,0,0,1,6.27-2.24l9.59-4.34s6.26-4.16,10.41-6.71,3.84-4.48,9-4.16,6.85,3.2,9.59,1.92a16.2,16.2,0,0,0,5-4.16l2.87-3.51,5.49-.73s-1.63-3-6.28-5.39c.16.17-.14-5-.14-5l1.74-3.3L243,329.78l-3.82-4.17,4.15-5.64.32-3.2,2.55-3.84-.07-2.73,3-2.77.35-55.09s2.85-2,1.25-3.9c.32,0-3.52-3.84-3.52-3.84l-.85-2.66-5.07-8.51-6.1-19.9s-.63-4.15-8.31-5.11c-.32,0-7.86-1.92-9.46-4.79Z"/><path class="cls-2" d="M194,203.24s-7.2,2.94-10.72,5.5-15.21,8.5-18.09,9.14-12,5.75-16.81,8.63-10.68,9.46-14.06,11.7-3.07,4.47-3.71,8-1.92,3.19-2.88,7.35-1.59,6.9-3.51,8.82S122,267.17,122,271s0,7.22-2.56,10.1-3.06,5.11-6.9,6.07a38.35,38.35,0,0,0-7,2.56,36,36,0,0,1-4.16,5.75c-2.55,2.88-.32,2.43-2.55,4.67s-6.4.32-6.08,3.51,2.43,4.16-.32,4.48a24.94,24.94,0,0,1-5.3,0s.32,1-2.56,2.88-2.88,2.23-4.79,1.28-1.6-3.84-4.16.31-3.19,4.16-1.92,6.08,4.48,3.7,4.48,5.94,3.2,7.35.64,9.59-7.54,1-9.14,2.88-2.11,5.94.64,7.86-.13,3.2,1.79,5.43,5.43,6.4,7,5.76,2.87-2.24,5.43-2.24,7.86,1.28,9.14,2.88a68.58,68.58,0,0,0,8.31,8.5c2.56,1.91,2.56,2.87,6.08,2.87s3.7-.32,5.3-.32a12.44,12.44,0,0,1,7,2.24c2.88,1.92,5.44,5.44,9.27,3.84s6.26-4.16,9.78-5.76,6.71-2.87,6.71-2.87l8-.32s7.23-2.24,9.46-1.6a18.28,18.28,0,0,1,4.8,2.56,36.76,36.76,0,0,0,7.86-.32c4.79-.64,2.88,1.27,7,2.87s6.71,1.6,8.31.64a38.76,38.76,0,0,1,6.27-2.24l9.59-4.34s6.26-4.16,10.41-6.71,3.84-4.48,9-4.16,6.85,3.2,9.59,1.92a16.2,16.2,0,0,0,5-4.16l2.87-3.51,5.49-.73s-1.63-3-6.28-5.39c.16.17-.14-5-.14-5l1.74-3.3L243,329.78l-3.82-4.17,4.15-5.64.32-3.2,2.55-3.84-.07-2.73,3-2.77.35-55.09s2.85-2,1.25-3.9c.32,0-3.52-3.84-3.52-3.84l-.85-2.66-5.07-8.51-6.1-19.9s-.63-4.15-8.31-5.11c-.32,0-7.86-1.92-9.46-4.79Z"/><path class="cls-2" d="M41.73,297c-1.06-1.26-2.74-2.74-4.43-1.48s-5.85,3-7.18.85.36-2.32-2.38-4.86-5.28-6.54-7.18-7S11.27,282.08,10,279.7s-6-3.44-6.82-5.55-3.59-4-1.27-6.34,3.8-5.28,3.8-7,2.75-2.8.43-4.71S2.76,253,2.76,251.28a42.52,42.52,0,0,1,.84-8.45c.64-2.32,1.48-6.18,2.32-7.45a39.84,39.84,0,0,1,4.71-5.28,6.76,6.76,0,0,0,2.75-3.38c1-2.32,1.9-4.64,3.8-4.86s4.64-2.32,5.91-3.16,3.32-2.81,5.49-4.08,4.71-4,4.71-5.49,1.48-4.85,1.48-4.85l1-1.9s8.87-1.69,10.14,0l-4.23,2.32L39.83,210s-2,1.15.47,1.31a6.27,6.27,0,0,0,2.7-1.1,4.61,4.61,0,0,1,3.59.21c0,.42.85,15,0,16.32a31.59,31.59,0,0,0-3,5.91,24,24,0,0,0-1.26,5.77,12.48,12.48,0,0,0,1.48,4.85c.84,1.69.84,3.17,1.47,5.49s1.69,3.38,1.27,5.07S44.9,257,44.9,258.52s0,8.66-.63,11.4a65.19,65.19,0,0,0-1.06,9.35,105.91,105.91,0,0,1-.84,10.56C42,291.73,42.79,298.28,41.73,297Z"/><path class="cls-2" d="M41.73,297c-1.06-1.26-2.74-2.74-4.43-1.48s-5.85,3-7.18.85.36-2.32-2.38-4.86-5.28-6.54-7.18-7S11.27,282.08,10,279.7s-6-3.44-6.82-5.55-3.59-4-1.27-6.34,3.8-5.28,3.8-7,2.75-2.8.43-4.71S2.76,253,2.76,251.28a42.52,42.52,0,0,1,.84-8.45c.64-2.32,1.48-6.18,2.32-7.45a39.84,39.84,0,0,1,4.71-5.28,6.76,6.76,0,0,0,2.75-3.38c1-2.32,1.9-4.64,3.8-4.86s4.64-2.32,5.91-3.16,3.32-2.81,5.49-4.08,4.71-4,4.71-5.49,1.48-4.85,1.48-4.85l1-1.9s8.87-1.69,10.14,0l-4.23,2.32L39.83,210s-2,1.15.47,1.31a6.27,6.27,0,0,0,2.7-1.1,4.61,4.61,0,0,1,3.59.21c0,.42.85,15,0,16.32a31.59,31.59,0,0,0-3,5.91,24,24,0,0,0-1.26,5.77,12.48,12.48,0,0,0,1.48,4.85c.84,1.69.84,3.17,1.47,5.49s1.69,3.38,1.27,5.07S44.9,257,44.9,258.52s0,8.66-.63,11.4a65.19,65.19,0,0,0-1.06,9.35,105.91,105.91,0,0,1-.84,10.56C42,291.73,42.79,298.28,41.73,297Z"/><path class="cls-2" d="M41.73,297s7,5.55,8.3,7.88,4.22,2.95,5.28,3.38,2.11,5.06,1.9,6.33a23.92,23.92,0,0,0-.21,5.49,4.13,4.13,0,0,0,3.8,3c1.9,0,4,.21,5.49.21a10.34,10.34,0,0,0,3.59-1.06l3.65-4.49s-1-2.11,4-7.18c.22.21,2.54,1.69,3.38,2.32-.21-.21,6-2.57,6.18-4.77,0,.13,5.3,0,5.3,0s1.47.55,1-1.56c-.21.42-.72-2.92-.72-2.92s-.33-2.36,2.62-1.94c.43,0,4.23-.27,4.44-3.86l4.85-6.76s1.27-2.53,3.38-2.75a53.34,53.34,0,0,0,7.24-1.9s6.34-5.55,6.55-12.09c-.21.42.42-8.45.42-8.45a35.06,35.06,0,0,0-5.7-.42,42,42,0,0,1-5.34.21c-1.69,0-5.7-1.48-7,.21s-2.53,2.32-3.8,4-2.53,3.17-4,2.75a3.59,3.59,0,0,1-2.11-3.59c.21-1.06.48-2.11-1.27-3s-4.28-2.74-6.18-3.8-4.65-2.68-6.13-3.59-1.9-2-4.86-2.17-7-.64-7-.64l-.42-4.22s1.06-4.22.64-5.28-5.28-2.53-6.34-2.53a24,24,0,0,1-4.22-1.06l-6.13-1.48a22.19,22.19,0,0,1-3.86-1c-1.48-.64-2.11-3.65-1.9-4.92a20.72,20.72,0,0,0,.42-4.86c-.21-.84-.42-3.8-.42-3.8s-5.28,7.88-3.8,13.37,3.59,11.61,3.59,11.61.42,2.53-.21,3.8a11.1,11.1,0,0,0-1.06,4.71c0,1.69-.84,9.29-1.26,11.4s-1.06,14.21-1.06,14.21Z"/><path class="cls-2" d="M41.73,297s7,5.55,8.3,7.88,4.22,2.95,5.28,3.38,2.11,5.06,1.9,6.33a23.92,23.92,0,0,0-.21,5.49,4.13,4.13,0,0,0,3.8,3c1.9,0,4,.21,5.49.21a10.34,10.34,0,0,0,3.59-1.06l3.65-4.49s-1-2.11,4-7.18c.22.21,2.54,1.69,3.38,2.32-.21-.21,6-2.57,6.18-4.77,0,.13,5.3,0,5.3,0s1.47.55,1-1.56c-.21.42-.72-2.92-.72-2.92s-.33-2.36,2.62-1.94c.43,0,4.23-.27,4.44-3.86l4.85-6.76s1.27-2.53,3.38-2.75a53.34,53.34,0,0,0,7.24-1.9s6.34-5.55,6.55-12.09c-.21.42.42-8.45.42-8.45a35.06,35.06,0,0,0-5.7-.42,42,42,0,0,1-5.34.21c-1.69,0-5.7-1.48-7,.21s-2.53,2.32-3.8,4-2.53,3.17-4,2.75a3.59,3.59,0,0,1-2.11-3.59c.21-1.06.48-2.11-1.27-3s-4.28-2.74-6.18-3.8-4.65-2.68-6.13-3.59-1.9-2-4.86-2.17-7-.64-7-.64l-.42-4.22s1.06-4.22.64-5.28-5.28-2.53-6.34-2.53a24,24,0,0,1-4.22-1.06l-6.13-1.48a22.19,22.19,0,0,1-3.86-1c-1.48-.64-2.11-3.65-1.9-4.92a20.72,20.72,0,0,0,.42-4.86c-.21-.84-.42-3.8-.42-3.8s-5.28,7.88-3.8,13.37,3.59,11.61,3.59,11.61.42,2.53-.21,3.8a11.1,11.1,0,0,0-1.06,4.71c0,1.69-.84,9.29-1.26,11.4s-1.06,14.21-1.06,14.21Z"/><path class="cls-2" d="M46.59,210.4s6.4,1.27,7.66,2.32,3.59-.42,4.44-1.9a2.23,2.23,0,0,0-1-3.51,13.74,13.74,0,0,1-4.42-3.09l1.33-2.66s-1.85-3.83,2.37-4.25c.63-.42,3.59.78,4.65-2.6.21-.63,1.92-1.67,3.59,0s5.31,5.48,5.31,5.48,2.14,5.1,3.83,1.09c.42-.42,7,0,7,0l7.07-2,4.16,3.1L97,203.77s3.87,7.93,11.06-.88c0-.09,3.45-2.87,11.24,0,0-.3,1.32,3.54,1.32,3.54l3.54.44-.88-5.31s8.51-10.65,12.1-13.6c.42.42,2.27-2.28,1.34-5.15.13-.13,10.18.44,10.18.44s1.36,1.54-.54,3.65-3.44,3.87-3.44,3.87l2.65,2.65,4-2.65,2.22-3.1,7.32-1.62s7.39-1.83,9.29-7.81c-.21.21,1.7-2.07,1.7-2.07l3.1.44,5.82-2s-1,3.28.54,4.18c-.33-.38,3.05-2.28,3.89,2.16l6.44,3.13,1.38,4.14v7.57s.39,3.58,2.31,4.64c-.41,0,3.39,2.12-.2,3.17s-22.45,12.25-22.45,12.25l-9.08,3.44-14.21,7.81-13.28,11.07s-3.46,2.93-3.25,5.47-2.32,6.75-2.74,8a36.64,36.64,0,0,0-1.69,5.91c-.21,1.75-1.89,3.33-2.42,4.76a21.37,21.37,0,0,1-2,3.54l-1.9-.21-5.91-.21-3.86.42a9.16,9.16,0,0,0-5.92-.63c0,.42-6.54,7-6.54,7s-1.9,1.91-3.38-1.26c.21-.21-.42-3.59-.42-3.59l-12.73-8-3-1.75a6.56,6.56,0,0,0-4-1.05,32.51,32.51,0,0,1-5.77-.64s-1.47-4.43-.21-5.91a3.81,3.81,0,0,0,.43-3.59,15.32,15.32,0,0,0-3.8-1.48,70,70,0,0,1-7.82-2.11c-1.05-.42-7.18-2.11-7.18-2.11s-4.07.15-3.65-5.34a46.19,46.19,0,0,0,0-8.66l.21-9.92Z"/><path class="cls-2" d="M46.59,210.4s6.4,1.27,7.66,2.32,3.59-.42,4.44-1.9a2.23,2.23,0,0,0-1-3.51,13.74,13.74,0,0,1-4.42-3.09l1.33-2.66s-1.85-3.83,2.37-4.25c.63-.42,3.59.78,4.65-2.6.21-.63,1.92-1.67,3.59,0s5.31,5.48,5.31,5.48,2.14,5.1,3.83,1.09c.42-.42,7,0,7,0l7.07-2,4.16,3.1L97,203.77s3.87,7.93,11.06-.88c0-.09,3.45-2.87,11.24,0,0-.3,1.32,3.54,1.32,3.54l3.54.44-.88-5.31s8.51-10.65,12.1-13.6c.42.42,2.27-2.28,1.34-5.15.13-.13,10.18.44,10.18.44s1.36,1.54-.54,3.65-3.44,3.87-3.44,3.87l2.65,2.65,4-2.65,2.22-3.1,7.32-1.62s7.39-1.83,9.29-7.81c-.21.21,1.7-2.07,1.7-2.07l3.1.44,5.82-2s-1,3.28.54,4.18c-.33-.38,3.05-2.28,3.89,2.16l6.44,3.13,1.38,4.14v7.57s.39,3.58,2.31,4.64c-.41,0,3.39,2.12-.2,3.17s-22.45,12.25-22.45,12.25l-9.08,3.44-14.21,7.81-13.28,11.07s-3.46,2.93-3.25,5.47-2.32,6.75-2.74,8a36.64,36.64,0,0,0-1.69,5.91c-.21,1.75-1.89,3.33-2.42,4.76a21.37,21.37,0,0,1-2,3.54l-1.9-.21-5.91-.21-3.86.42a9.16,9.16,0,0,0-5.92-.63c0,.42-6.54,7-6.54,7s-1.9,1.91-3.38-1.26c.21-.21-.42-3.59-.42-3.59l-12.73-8-3-1.75a6.56,6.56,0,0,0-4-1.05,32.51,32.51,0,0,1-5.77-.64s-1.47-4.43-.21-5.91a3.81,3.81,0,0,0,.43-3.59,15.32,15.32,0,0,0-3.8-1.48,70,70,0,0,1-7.82-2.11c-1.05-.42-7.18-2.11-7.18-2.11s-4.07.15-3.65-5.34a46.19,46.19,0,0,0,0-8.66l.21-9.92Z"/></svg>