<svg id="Layer_1" data-name="Layer 1" xmlns="http://www.w3.org/2000/svg" viewBox="0 0 512 512"><defs><style>.cls-1,.cls-3{fill:#e6e7e8;}.cls-1,.cls-2,.cls-3{stroke:#fff;stroke-linejoin:round;}.cls-1,.cls-2{fill-rule:evenodd;}.cls-2{fill:#a7a9ac;}</style></defs><path class="cls-1" d="M76,120.92c.39.37.22,4.89,1.11,6.22s3.26,4.55,5.13,5.35,4,3.21,3.48,5.08-1.6,2.94-1.34,5.08.54,2.11,0,4.79c0,0-1.87,2.4,3.48,2.67a81,81,0,0,1,12,1.33c2.41.54,4.81,1.61,8.29,1.61s8.52,1.07,9.86.53,3.21-1.07,3.21-1.07-1-4.4-.77-5.27-1.1-3.25-.57-5.66.9-5.66,1.92-8,1.29-8,1.29-9.84a31.34,31.34,0,0,0-.62-4.87,2.82,2.82,0,0,1-1-2.88l-1.33-4.81s-3.48-.25-4-5.33c-.27,0,.83-4.81-2.11-2.67-.81,0-2.94,3.21-3.48-.8-.27.27.13-2.8-3.81-3.54a81.46,81.46,0,0,1-4.4,7,6.63,6.63,0,0,1-3.55.83c-1.6-.27-3.18-1.05-5.59.53s-5.34,4-6.14,5.32-1.34,3.48-2.41,5.08-1.63,2.67-4.28,2.94S77.76,119.48,76,120.92Z"/><path class="cls-1" d="M76,120.92c.39.37.22,4.89,1.11,6.22s3.26,4.55,5.13,5.35,4,3.21,3.48,5.08-1.6,2.94-1.34,5.08.54,2.11,0,4.79c0,0-1.87,2.4,3.48,2.67a81,81,0,0,1,12,1.33c2.41.54,4.81,1.61,8.29,1.61s8.52,1.07,9.86.53,3.21-1.07,3.21-1.07-1-4.4-.77-5.27-1.1-3.25-.57-5.66.9-5.66,1.92-8,1.29-8,1.29-9.84a31.34,31.34,0,0,0-.62-4.87,2.82,2.82,0,0,1-1-2.88l-1.33-4.81s-3.48-.25-4-5.33c-.27,0,.83-4.81-2.11-2.67-.81,0-2.94,3.21-3.48-.8-.27.27.13-2.8-3.81-3.54a81.46,81.46,0,0,1-4.4,7,6.63,6.63,0,0,1-3.55.83c-1.6-.27-3.18-1.05-5.59.53s-5.34,4-6.14,5.32-1.34,3.48-2.41,5.08-1.63,2.67-4.28,2.94S77.76,119.48,76,120.92Z"/><path class="cls-1" d="M112.21,56.11c-.27-.27,2.63,4.3,3,5.74a25.53,25.53,0,0,0,2.51,5.74c1.08,1.79,0,2.51,2.51,1.43s4.67-2.27,5,.36,1.44,1.56,2.87,2.63S131,75.24,131,76.68a14.24,14.24,0,0,0,1.8,6.45c1.19,1.8,1.91,4,5.14,3.59s5-2.51,7.18-3.59S147.25,81,149,82.06s3.71.72,5.86-1.44,3.23-3.58,5-3.94,2.87.48,5.38-2.51,1.31-3,3.59-5.15,1.91-2.87,4.06-3.59,1.8-1.79,4.31-2.15,3.59-1.43,3.23-3.59c2.15-1.07,3.23-3.46,4.66-5s1.56-2.27,4.43-4.42,3.94-2.16,5-4.31,2.15-2.51,2.51-5.38.36-1,2.15-4.31,1.08-4.42,1.44-6.93,1.07-6.1,2.51-6.82.6-3.23,2.87-4.3-1-3,2.27-3.71,1.44-.72,5-3.59,0-3.59,3.59-4.31,3.23-4.66,1.8-5.38a3.73,3.73,0,0,0-1.9-.15L212,1.7S209.4,6,206.71,7.31c-2.15.81-2.69,2.42-6.18.27,0-.27-6.06-2.15-9.15.81C189,10.54,176.87,19.81,164.5,22.5c-.81.27-7-.27-7.8-1.61-.81-.81.41-3-5.24-1.88-3.23.53-6.45.53-8.34-.54s-1.48-2.15-5.91-1.08a35,35,0,0,1-9,1.35,15.31,15.31,0,0,0-7.26,2.15c-1.61,1.07-3.9,1.88-5.38,3a37.53,37.53,0,0,1-4.19,2.44,5.26,5.26,0,0,1-4,.24s2.43,7.14,3.78,8.34,2.81,4,2.21,5.68-1.4,5.14-1,7.19S113.82,55.3,112.21,56.11Z"/><path class="cls-1" d="M112.21,56.11c-.27-.27,2.63,4.3,3,5.74a25.53,25.53,0,0,0,2.51,5.74c1.08,1.79,0,2.51,2.51,1.43s4.67-2.27,5,.36,1.44,1.56,2.87,2.63S131,75.24,131,76.68a14.24,14.24,0,0,0,1.8,6.45c1.19,1.8,1.91,4,5.14,3.59s5-2.51,7.18-3.59S147.25,81,149,82.06s3.71.72,5.86-1.44,3.23-3.58,5-3.94,2.87.48,5.38-2.51,1.31-3,3.59-5.15,1.91-2.87,4.06-3.59,1.8-1.79,4.31-2.15,3.59-1.43,3.23-3.59c2.15-1.07,3.23-3.46,4.66-5s1.56-2.27,4.43-4.42,3.94-2.16,5-4.31,2.15-2.51,2.51-5.38.36-1,2.15-4.31,1.08-4.42,1.44-6.93,1.07-6.1,2.51-6.82.6-3.23,2.87-4.3-1-3,2.27-3.71,1.44-.72,5-3.59,0-3.59,3.59-4.31,3.23-4.66,1.8-5.38a3.73,3.73,0,0,0-1.9-.15L212,1.7S209.4,6,206.71,7.31c-2.15.81-2.69,2.42-6.18.27,0-.27-6.06-2.15-9.15.81C189,10.54,176.87,19.81,164.5,22.5c-.81.27-7-.27-7.8-1.61-.81-.81.41-3-5.24-1.88-3.23.53-6.45.53-8.34-.54s-1.48-2.15-5.91-1.08a35,35,0,0,1-9,1.35,15.31,15.31,0,0,0-7.26,2.15c-1.61,1.07-3.9,1.88-5.38,3a37.53,37.53,0,0,1-4.19,2.44,5.26,5.26,0,0,1-4,.24s2.43,7.14,3.78,8.34,2.81,4,2.21,5.68-1.4,5.14-1,7.19S113.82,55.3,112.21,56.11Z"/><path class="cls-1" d="M217.33,87.44a3.85,3.85,0,0,0,1.08,3.62c1.61,1.35,2.15,2.15.27,3s-4.58,1.08-5.38,4,1.34,3.49-.27,4.57-4.3,1.75-5.11,4-2.41,4.17-1.48,5,4.17.27,6.32-.27,5.65.81,6.18,1.62a5.8,5.8,0,0,0,6.86,1.88c4-1.35,5.91-2.56,6.18-4.57s.54-3.63,3-4.17,8.2-1.88,12.5-1.34a108.26,108.26,0,0,1,10.76,2.15c3.76.81,10.62,2.15,15.46.81s7.39-.54,8.2-1.89,1.07-4.84,4.84-5.11,3.49-1.07,4.84-2.15.94-3.76,5.11-3.76a70.49,70.49,0,0,0,14.92-2.15c4-1.08,13.58-2.82,16-3.63a47.06,47.06,0,0,1,9.81-1.34c1.61,0,4.84,0,4.84-2.43s-1.61-4,.81-4.84,3.49-1.61,3.76-4.57,0-3.09,1.62-4.43,3.63-3.23,5.37-4.84a18.35,18.35,0,0,0,2.82-2.69c1.35-1.61,2.15-3,1.08-4.84s-2.15-1.08-1.08-2.69,1.08-5,1.08-5-1.35-.54-1.35-3.23c.27-.27.34-3.74-4.73-6.17-.24-.28-4.27-4.59-4.27-4.59s-1.88-1.74.81-4.7l2.42-4s-1.91-2.47-4.72-.16c-.12.43-6.58,1-7.65.7l-8.47-3.5L323,19s-1.21-2.69-7.13-1.62c.27-.27-5.58,1.12-7.36-.71-.17-.22-5-5.72-5-5.72h-2l-.81-3.65H298s-5.67-5.38-7.29-2.42A8.53,8.53,0,0,1,289.12,7l-6.19,3.5-3.62-1.35-1.09,1.48-3.48.68L275,13.5s3.23,3.36,1.62,4.16c.27,0-2.15.27-2.15.27l-.81,4-3.5.81-.8.81-3.23.27-.81,3,1.35,5.64s.27,1.75-.81,2.15c-.81.4-2.69,3.36-1.08,6.59-.26-.27.27,1.88-.8,3a6.65,6.65,0,0,0-1.75,4c0,1.08.27,1.88-1.88,1.88s-2.69-.53-3.76,1.08-.81,2-2.69,2.82-2.42.81-3,3.23c.27.27-1.88-.81-3-.27a9.87,9.87,0,0,0-3.76,4.84,4.24,4.24,0,0,1-4.44,3.49c-.27.27-2.69.27-4.3,1.89s-7,4.43-8.34,8.19a17.3,17.3,0,0,1-4.43,8.07c.54-.27-4,4-4,4Z"/><path class="cls-1" d="M217.33,87.44a3.85,3.85,0,0,0,1.08,3.62c1.61,1.35,2.15,2.15.27,3s-4.58,1.08-5.38,4,1.34,3.49-.27,4.57-4.3,1.75-5.11,4-2.41,4.17-1.48,5,4.17.27,6.32-.27,5.65.81,6.18,1.62a5.8,5.8,0,0,0,6.86,1.88c4-1.35,5.91-2.56,6.18-4.57s.54-3.63,3-4.17,8.2-1.88,12.5-1.34a108.26,108.26,0,0,1,10.76,2.15c3.76.81,10.62,2.15,15.46.81s7.39-.54,8.2-1.89,1.07-4.84,4.84-5.11,3.49-1.07,4.84-2.15.94-3.76,5.11-3.76a70.49,70.49,0,0,0,14.92-2.15c4-1.08,13.58-2.82,16-3.63a47.06,47.06,0,0,1,9.81-1.34c1.61,0,4.84,0,4.84-2.43s-1.61-4,.81-4.84,3.49-1.61,3.76-4.57,0-3.09,1.62-4.43,3.63-3.23,5.37-4.84a18.35,18.35,0,0,0,2.82-2.69c1.35-1.61,2.15-3,1.08-4.84s-2.15-1.08-1.08-2.69,1.08-5,1.08-5-1.35-.54-1.35-3.23c.27-.27.34-3.74-4.73-6.17-.24-.28-4.27-4.59-4.27-4.59s-1.88-1.74.81-4.7l2.42-4s-1.91-2.47-4.72-.16c-.12.43-6.58,1-7.65.7l-8.47-3.5L323,19s-1.21-2.69-7.13-1.62c.27-.27-5.58,1.12-7.36-.71-.17-.22-5-5.72-5-5.72h-2l-.81-3.65H298s-5.67-5.38-7.29-2.42A8.53,8.53,0,0,1,289.12,7l-6.19,3.5-3.62-1.35-1.09,1.48-3.48.68L275,13.5s3.23,3.36,1.62,4.16c.27,0-2.15.27-2.15.27l-.81,4-3.5.81-.8.81-3.23.27-.81,3,1.35,5.64s.27,1.75-.81,2.15c-.81.4-2.69,3.36-1.08,6.59-.26-.27.27,1.88-.8,3a6.65,6.65,0,0,0-1.75,4c0,1.08.27,1.88-1.88,1.88s-2.69-.53-3.76,1.08-.81,2-2.69,2.82-2.42.81-3,3.23c.27.27-1.88-.81-3-.27a9.87,9.87,0,0,0-3.76,4.84,4.24,4.24,0,0,1-4.44,3.49c-.27.27-2.69.27-4.3,1.89s-7,4.43-8.34,8.19a17.3,17.3,0,0,1-4.43,8.07c.54-.27-4,4-4,4Z"/><path class="cls-1" d="M409,46s.66,3.23,1.2,4.84,3,5.24,1.35,7.12-2.28,3.77-3.36,4.57-4.17,5.11-1.08,4.85,4.44.26,3.63,1.88-1.34,3.89,0,3.36,3.23-1.08,4.3.8.81,4,4,3.23,5.64-3.23,5.91-1.35-.4,6.46,2.15,5.92,4.71.81,4.44,1.88A3.49,3.49,0,0,1,428,85.82c-2.42,0-5.91-1.61-5.38.27s2.69,4.7,3.5,6.86a11.92,11.92,0,0,0,3.63,5.37,13.79,13.79,0,0,1,3.76,7c.54,2.42,4.57,4.43,1.08,6.85s-3.5,3-4.58,3-.13-.27-1.61,1.07-2,2.15-3.36,2.42a4.34,4.34,0,0,1-2.69-.53,6,6,0,0,1,0-3.23c.54-1.35-.26-3.77-.8-2.42s-1.35,1.88-1.62,3.49,1.35,4.85-.26,5.38-4.58-2.15-4.85-.53,0,4.17-.26,5.91-.54,4.7-2.16,3.36-3.89-2.42-4.7-1.35-2.69,3.23-3.49,4-3.23,3-4.85,3-4.3-.54-2.68.53,1.88,1.89,1.34,3.23-4,3.5-5.38,4.57-2.82.67-4.16,4.17a12.61,12.61,0,0,0-.81,7.26c.27,1.07,1.08,1.88-1.61,3.5s-4,2.55-4.31,4.57-1.61,2.55-2.68,3.62a12.27,12.27,0,0,0-3.77,7.53,2.8,2.8,0,0,1-2.55-1.07c-1.08-1.35-1.35-4.31-2.42-6.46s.27-3.09-3-3.35-3.76.53-4.84-1.35-2.29-5.38-5.92-6.18-4.43-1.35-7.12-.81-3,.27-7.53.54-6.32.8-8.47.27-3-.81-2.42-2.16.27-3.22,1.35-4.3,3-4.43,2.42-6.31a9.73,9.73,0,0,0-3.5-5.11,3.17,3.17,0,0,1-.54-4.58,5.15,5.15,0,0,0,0-5.64c-1.61-2.29-1.07-2.29-2.68-5.51s-2.69-4-1.89-6.73,1.08-3.76.81-5.37-1.35-2.82,1.88-4.44,7.39-3.49,8.74-6.72S339,94.29,340.34,93s1.88-.94,1.34-3.36l-.54-2.42s1.62-.54.81-3.5c.27,0-1.88-2.42,1.08-3.23,0,0,4.84.14,4-8.06.27.27,9.54-8.47,9.54-8.47s4.17-3.77-.53-6.45c.26,0,1.35-3.64,1.62-5.79.26,0,2.36,1.67,8.7-2.26.16.38,1.16,0,5.44,1.81-.17-.08,2.4.47,5.08-2.63a3.63,3.63,0,0,1,4.57,1.2c2.68,1.35,8.73,1.62,13,.27s8.88-3,8.88-3Z"/><path class="cls-1" d="M409,46s.66,3.23,1.2,4.84,3,5.24,1.35,7.12-2.28,3.77-3.36,4.57-4.17,5.11-1.08,4.85,4.44.26,3.63,1.88-1.34,3.89,0,3.36,3.23-1.08,4.3.8.81,4,4,3.23,5.64-3.23,5.91-1.35-.4,6.46,2.15,5.92,4.71.81,4.44,1.88A3.49,3.49,0,0,1,428,85.82c-2.42,0-5.91-1.61-5.38.27s2.69,4.7,3.5,6.86a11.92,11.92,0,0,0,3.63,5.37,13.79,13.79,0,0,1,3.76,7c.54,2.42,4.57,4.43,1.08,6.85s-3.5,3-4.58,3-.13-.27-1.61,1.07-2,2.15-3.36,2.42a4.34,4.34,0,0,1-2.69-.53,6,6,0,0,1,0-3.23c.54-1.35-.26-3.77-.8-2.42s-1.35,1.88-1.62,3.49,1.35,4.85-.26,5.38-4.58-2.15-4.85-.53,0,4.17-.26,5.91-.54,4.7-2.16,3.36-3.89-2.42-4.7-1.35-2.69,3.23-3.49,4-3.23,3-4.85,3-4.3-.54-2.68.53,1.88,1.89,1.34,3.23-4,3.5-5.38,4.57-2.82.67-4.16,4.17a12.61,12.61,0,0,0-.81,7.26c.27,1.07,1.08,1.88-1.61,3.5s-4,2.55-4.31,4.57-1.61,2.55-2.68,3.62a12.27,12.27,0,0,0-3.77,7.53,2.8,2.8,0,0,1-2.55-1.07c-1.08-1.35-1.35-4.31-2.42-6.46s.27-3.09-3-3.35-3.76.53-4.84-1.35-2.29-5.38-5.92-6.18-4.43-1.35-7.12-.81-3,.27-7.53.54-6.32.8-8.47.27-3-.81-2.42-2.16.27-3.22,1.35-4.3,3-4.43,2.42-6.31a9.73,9.73,0,0,0-3.5-5.11,3.17,3.17,0,0,1-.54-4.58,5.15,5.15,0,0,0,0-5.64c-1.61-2.29-1.07-2.29-2.68-5.51s-2.69-4-1.89-6.73,1.08-3.76.81-5.37-1.35-2.82,1.88-4.44,7.39-3.49,8.74-6.72S339,94.29,340.34,93s1.88-.94,1.34-3.36l-.54-2.42s1.62-.54.81-3.5c.27,0-1.88-2.42,1.08-3.23,0,0,4.84.14,4-8.06.27.27,9.54-8.47,9.54-8.47s4.17-3.77-.53-6.45c.26,0,1.35-3.64,1.62-5.79.26,0,2.36,1.67,8.7-2.26.16.38,1.16,0,5.44,1.81-.17-.08,2.4.47,5.08-2.63a3.63,3.63,0,0,1,4.57,1.2c2.68,1.35,8.73,1.62,13,.27s8.88-3,8.88-3Z"/><path class="cls-1" d="M184,138.12a8,8,0,0,1-2,0l27.85-26.39a27.09,27.09,0,0,0,2.88-.38c5.11-1.07,7.26,3,7.26,2.42,5.11,3.5,6.85.27,6.85.27,4.71-1.07,4.31-1.88,5.11-4.57s1.62-2.55,5.65-3.9,7.12-.8,10.62-.8,11.29,2.42,13.71,3a38.26,38.26,0,0,0,7.93.93,28.62,28.62,0,0,0,7-1.47s4.43-.27,5.77-2.69,2.42-2.69,4-3.77,2.42-.53,3.76-1.07,2.15-2.69,3.5-4,6.32-.8,7.93-1.07,4.84-.27,7-1.08,11.7-2.42,13.58-3,8.33-2.29,11-2.82a52.34,52.34,0,0,1,7.66-.54c1.08,1.61.54,5.24.54,5-3,.81-3,5.11-3,5.11-3,6.72-5.51,7-8.19,8.07-5.78,3-3.5,5.24-3.5,5.24a13.85,13.85,0,0,1,0,3.49,6.51,6.51,0,0,0-.27,5.92c.27.81,2.69,4.84,2.69,5.11,3,4.84,1.88,8.2,1.61,7.66-2.95,2.42,0,5.65.27,5.65,7.8,5.64.54,12.5.54,12.5l-.81,4.3s-2.69,1.34-4.57,1.08a16.75,16.75,0,0,0-6.18.26c-3,.54-7.13,4-7.13,4l-1.88.81A2.86,2.86,0,0,1,310,160.3c-.54-.81-5.38-.27-5.38-.27v1.88s-.81.27-3.5.81-3.89-3-5-3.76a35.37,35.37,0,0,1-3.5-3.77,43.58,43.58,0,0,0-4.84.27c-1.88.27-3.22,2.15-4.57,4.57s1.35,3.23,1.62,5-5,.54-5,.54l-1.61-1.34s-4.3-.67-5.38-1.48-4-1.08-8.07.54-4.16-7.53-4.16-7.53-7-1.08-8.61-1.08-8.46,0-11.42-1.07-18.42-1.35-18.42-1.35v-2.69a1.9,1.9,0,0,0-2.69-1.61c-1.88.54-2.69.27-5.38.54s-4.84-2.69-6.45-4.44-4.7-1.88-7.12-1.34-4.57-1.35-6.19-3-3-1.88-4.3-1.07S186.68,137.85,184,138.12Z"/><path class="cls-1" d="M184,138.12a8,8,0,0,1-2,0l27.85-26.39a27.09,27.09,0,0,0,2.88-.38c5.11-1.07,7.26,3,7.26,2.42,5.11,3.5,6.85.27,6.85.27,4.71-1.07,4.31-1.88,5.11-4.57s1.62-2.55,5.65-3.9,7.12-.8,10.62-.8,11.29,2.42,13.71,3a38.26,38.26,0,0,0,7.93.93,28.62,28.62,0,0,0,7-1.47s4.43-.27,5.77-2.69,2.42-2.69,4-3.77,2.42-.53,3.76-1.07,2.15-2.69,3.5-4,6.32-.8,7.93-1.07,4.84-.27,7-1.08,11.7-2.42,13.58-3,8.33-2.29,11-2.82a52.34,52.34,0,0,1,7.66-.54c1.08,1.61.54,5.24.54,5-3,.81-3,5.11-3,5.11-3,6.72-5.51,7-8.19,8.07-5.78,3-3.5,5.24-3.5,5.24a13.85,13.85,0,0,1,0,3.49,6.51,6.51,0,0,0-.27,5.92c.27.81,2.69,4.84,2.69,5.11,3,4.84,1.88,8.2,1.61,7.66-2.95,2.42,0,5.65.27,5.65,7.8,5.64.54,12.5.54,12.5l-.81,4.3s-2.69,1.34-4.57,1.08a16.75,16.75,0,0,0-6.18.26c-3,.54-7.13,4-7.13,4l-1.88.81A2.86,2.86,0,0,1,310,160.3c-.54-.81-5.38-.27-5.38-.27v1.88s-.81.27-3.5.81-3.89-3-5-3.76a35.37,35.37,0,0,1-3.5-3.77,43.58,43.58,0,0,0-4.84.27c-1.88.27-3.22,2.15-4.57,4.57s1.35,3.23,1.62,5-5,.54-5,.54l-1.61-1.34s-4.3-.67-5.38-1.48-4-1.08-8.07.54-4.16-7.53-4.16-7.53-7-1.08-8.61-1.08-8.46,0-11.42-1.07-18.42-1.35-18.42-1.35v-2.69a1.9,1.9,0,0,0-2.69-1.61c-1.88.54-2.69.27-5.38.54s-4.84-2.69-6.45-4.44-4.7-1.88-7.12-1.34-4.57-1.35-6.19-3-3-1.88-4.3-1.07S186.68,137.85,184,138.12Z"/><path class="cls-2" d="M206.71,109.21c-1,2.25,1.07,2.62,3.06,2.53l-27.86,26.37c-.9-.17-1.25-.64-1.95-1.34a5,5,0,0,0-4-1.34c-1.07.27-1.88-.27-3.22-1.62a21.42,21.42,0,0,1-3.09-4.3c-1.21-1.88-.54-1.07.94-3.63s1.34-2.68.53-4.3.27-5.38.27-5.38,2.69-3,4-4.3a10.2,10.2,0,0,1,5.37-2.69,17.72,17.72,0,0,0,6.19-2.28c3-1.61,3.63-4.84,5.78-7.53s4.57-7.26,6.72-8.61,2.42-1.74,3.5-1.74,2.15.81,3.49,1.08,4.44-.81,5.78-1.89,4.84-.8,5.11-.8a2.92,2.92,0,0,0,1.08,3.62c3.22,1.75-.54,3.77.27,3-6.86,1.61-5.38,5.38-5.38,7,.27,2.15-.81,2.15-3,3S207.38,108,206.71,109.21Z"/><path class="cls-2" d="M206.71,109.21c-1,2.25,1.07,2.62,3.06,2.53l-27.86,26.37c-.9-.17-1.25-.64-1.95-1.34a5,5,0,0,0-4-1.34c-1.07.27-1.88-.27-3.22-1.62a21.42,21.42,0,0,1-3.09-4.3c-1.21-1.88-.54-1.07.94-3.63s1.34-2.68.53-4.3.27-5.38.27-5.38,2.69-3,4-4.3a10.2,10.2,0,0,1,5.37-2.69,17.72,17.72,0,0,0,6.19-2.28c3-1.61,3.63-4.84,5.78-7.53s4.57-7.26,6.72-8.61,2.42-1.74,3.5-1.74,2.15.81,3.49,1.08,4.44-.81,5.78-1.89,4.84-.8,5.11-.8a2.92,2.92,0,0,0,1.08,3.62c3.22,1.75-.54,3.77.27,3-6.86,1.61-5.38,5.38-5.38,7,.27,2.15-.81,2.15-3,3S207.38,108,206.71,109.21Z"/><path class="cls-1" d="M165.84,115.13a6.64,6.64,0,0,0-3.15,1c-1.69,1-3.71,1.69-5.06,1.35s-5.39.34-5.39.34a12.14,12.14,0,0,1-5.61,1c-2.7-.34-2.7-.68-4.38-.34s-.34.67-3.37-.34-3.48.68-4.72-2,.79-3-1.91-4-4-2.25-4.38-4.6a13,13,0,0,1,0-5.06c.34-2,.34-2.36,2-4.72s1.68-3.36,1.68-4.71,0-1.24.67-3.59a25.47,25.47,0,0,0,.53-6.28l2.73,3.58a10.23,10.23,0,0,0,5.73-1.35c3-1.68,5.84-4.92,7.8-3.3,0,.27,3.47,1.57,5.86-1.44,1.72-2,3.07-4.35,6.44-4.35,1,.33,3.71-.79,5-4.38,1.69-2.59,6.63-9,13.7-9.33-.67,5.4-2.61,8-4.17,9.15S173,74.92,173,76.6s-.28,4.91-1.94,6l-2.82,3.22L166.06,91l-.34,5.39-2,2.69,2,4.38.67,8Z"/><path class="cls-1" d="M165.84,115.13a6.64,6.64,0,0,0-3.15,1c-1.69,1-3.71,1.69-5.06,1.35s-5.39.34-5.39.34a12.14,12.14,0,0,1-5.61,1c-2.7-.34-2.7-.68-4.38-.34s-.34.67-3.37-.34-3.48.68-4.72-2,.79-3-1.91-4-4-2.25-4.38-4.6a13,13,0,0,1,0-5.06c.34-2,.34-2.36,2-4.72s1.68-3.36,1.68-4.71,0-1.24.67-3.59a25.47,25.47,0,0,0,.53-6.28l2.73,3.58a10.23,10.23,0,0,0,5.73-1.35c3-1.68,5.84-4.92,7.8-3.3,0,.27,3.47,1.57,5.86-1.44,1.72-2,3.07-4.35,6.44-4.35,1,.33,3.71-.79,5-4.38,1.69-2.59,6.63-9,13.7-9.33-.67,5.4-2.61,8-4.17,9.15S173,74.92,173,76.6s-.28,4.91-1.94,6l-2.82,3.22L166.06,91l-.34,5.39-2,2.69,2,4.38.67,8Z"/><path class="cls-1" d="M140.23,118.49a20.91,20.91,0,0,0,.33,6.07c.68,2.35.34,4.26,2.36,4.94s4.05,3.37,2.36,3.7-2.69.68-2.69,3-1.69,2.7-1.35,4.38,2.36,3.15,1,4.38-2.36,1.58-2.36,3.93.67,3.37-.34,5.06-.33,3.37,1.35,4.38,3,1.35,4.72-.34a43.56,43.56,0,0,0,3.7-4c1.69-2,2-1.35,2-3s-.12-2.36,1.9-3,3.37-.11,3.71-2.35-1-3.26,1.35-3.93,4.71,0,6.06-2,2.92-5,5.28-5c-.22,0,3-.74,3-.74s-4.85-4.43-2.94-6.34a22.26,22.26,0,0,1,1.91-2.91,4.52,4.52,0,0,1-.59-3c.25-1.74.27-5.38.27-5.38a8,8,0,0,0-5.51-1.07,39.66,39.66,0,0,0-5.85,2l-2.36.34h-3.37a14.55,14.55,0,0,1-4.26,1.35,16.3,16.3,0,0,1-4.38,0l-3.37-.34Z"/><path class="cls-1" d="M140.23,118.49a20.91,20.91,0,0,0,.33,6.07c.68,2.35.34,4.26,2.36,4.94s4.05,3.37,2.36,3.7-2.69.68-2.69,3-1.69,2.7-1.35,4.38,2.36,3.15,1,4.38-2.36,1.58-2.36,3.93.67,3.37-.34,5.06-.33,3.37,1.35,4.38,3,1.35,4.72-.34a43.56,43.56,0,0,0,3.7-4c1.69-2,2-1.35,2-3s-.12-2.36,1.9-3,3.37-.11,3.71-2.35-1-3.26,1.35-3.93,4.71,0,6.06-2,2.92-5,5.28-5c-.22,0,3-.74,3-.74s-4.85-4.43-2.94-6.34a22.26,22.26,0,0,1,1.91-2.91,4.52,4.52,0,0,1-.59-3c.25-1.74.27-5.38.27-5.38a8,8,0,0,0-5.51-1.07,39.66,39.66,0,0,0-5.85,2l-2.36.34h-3.37a14.55,14.55,0,0,1-4.26,1.35,16.3,16.3,0,0,1-4.38,0l-3.37-.34Z"/><path class="cls-1" d="M84.39,148.77a5.93,5.93,0,0,1,0,5.08c-1.07,2.67-1.6,3.47-.8,5.35s1.6,4,.54,5.32-4.28,5.34-4,7.21,1.6,2.68,2.67,5.08.27,6.12,1.87,6.12,4.54.27,7.22.27,5.32.54,6.65,2.41,7.49,3.2,9.89,3.47,6.13,1.61,9.87,1.87,5.34,0,7.75-1.07,3.21,0,4.54-1.33,2.68-2.79,2.68-2.79-.81-4.7-1.34-6.29a16.13,16.13,0,0,1-.27-4.8s.27-4.54-.53-6.41-1.07-3.18-2.41-4.79-1.69-1-1.51-4.1-3-6.32-6-6.86c0,.27-.54.81-3.21,1.07a75.35,75.35,0,0,1-13.61-.8c-2.4-.53-6.65-2.4-9.33-2.4s-4,.53-5.07.26S85.46,149.84,84.39,148.77Z"/><path class="cls-1" d="M84.39,148.77a5.93,5.93,0,0,1,0,5.08c-1.07,2.67-1.6,3.47-.8,5.35s1.6,4,.54,5.32-4.28,5.34-4,7.21,1.6,2.68,2.67,5.08.27,6.12,1.87,6.12,4.54.27,7.22.27,5.32.54,6.65,2.41,7.49,3.2,9.89,3.47,6.13,1.61,9.87,1.87,5.34,0,7.75-1.07,3.21,0,4.54-1.33,2.68-2.79,2.68-2.79-.81-4.7-1.34-6.29a16.13,16.13,0,0,1-.27-4.8s.27-4.54-.53-6.41-1.07-3.18-2.41-4.79-1.69-1-1.51-4.1-3-6.32-6-6.86c0,.27-.54.81-3.21,1.07a75.35,75.35,0,0,1-13.61-.8c-2.4-.53-6.65-2.4-9.33-2.4s-4,.53-5.07.26S85.46,149.84,84.39,148.77Z"/><path class="cls-1" d="M135.33,172a51.32,51.32,0,0,0,5.88,5.88c3.48,2.94,7.78,4.79,9.36,10.13s2.38,7.51,2.91,10.43,1.34,2.64-.27,4.78-2.4,3.21.54,6.15,1.87,3.47,1.87,5.88-1.34,5.05,1.34,8.8,1.87,4,2.94,7.21,3.2,4.3,5.07,5.88,1.9,4.52,3.75,5.06,2.38-.54,2.91-2.41,1.87-5.85,2.67-4.52-.53,4.52,1.34,4,2.41-.3,3.47-1.34a11.54,11.54,0,0,1,5.35-2.65c1.87-.27,2.94-1.33,2.67-3.74s0-4-.53-4.81,0-4,0-4a8.66,8.66,0,0,1,3.18,2.14c1.07,1.33,1.6,2.4,3.21,1.6s2.67-.8,2.4.8,1.34,2.41,2.68,1.87,2.94,2.14,2.67,3.75-1.6,4,1.34,4.78,5,4,6.12,4.55a4.22,4.22,0,0,0,3.74.53c1.87-.53,1.6-.53,3.48.27s5.07,0,5.07,1.07-.51,4.54,3.75,5.61,3.18,2.67,5.32,4,5.07,2.11,5.07,3.45.81,1.6.54,2.94.27,1.87,1.87,4,1.34,3.21.8,4.27-1.6,2.43,1.34,4.28,2.4,3.72,1.6,4.52-2.14,2.14-1.6,3.47,1.63,2.95,3.47,2.95,2.92,1.33,3.72,3.2,2.14,3.77,2.94,5.35,0,5.05,4.54,5.05c3.21,1.61,3.5,2.14,6.42,2.41a8.06,8.06,0,0,1,5.05,1.87c1.61,1.07,1.07.53,2.94.8s3.74.27,5.35.53,1.33,1.61,2.94.54,2.14-1.6,2.14-2.94-.81-5.86-.81-8.26.27-1.87.54-5.35,1.85-5.08,2.91-8,.54-6.92.81-9.06.8-8.82,1.87-11.22,2.67-3.72,3.2-5.33a10.18,10.18,0,0,0,.27-6.41c-.8-2.41-2.4-4.57-2.14-7.48s-.53-5.06,2.68-7.73,5.1-4.81,8-4,4.79,3.21,8.8-.27,7.48-5.9,9.09-7.48a5.19,5.19,0,0,0,.53-6.12c-1.07-1.87-2.38-4.55,1.07-7.22s1.31-3.45,2.65-5.86.27-6.14,6.15-4.81,10.13,3.48,14.14,2.14,6.68-5.34,10.15-5.61,3.72-2.14,7.73-2.67,4.54,0,8.82-1.34,9.06-1.9,10.4-4.54,1.34-2.38.8-5.86-1.38-3.2-1.38-3.2-2.87,1.31-3.94-5.35c0,0,0-6.37-4.81-5.59a3.84,3.84,0,0,1-4.81-2.67c0-.81-1.53-6.14-12.24-5.61-2.17.26-14.44,1.06-14.44,1.06s-3.69-.79-4-1.33c.51,0-3.77,1.6-6.44,1.07-2.14,0-7.2.8-9.07,2.67L311,161.38s-3-2.92-6.73-1.35c.29.23,0,1.88,0,1.88s-5.3,2.9-7.17-1.38l-4.79-5.34-4.84.27-2.66,1.86-2.14,4.28,1.84,3.4a5.52,5.52,0,0,1-4,.85c-2.65-.26-.69-1.71-2.6-1.65s-4.57-1.43-5.38-1.48-1.61-1.12-2.95-.58-1.87.26-3.21.8a10.43,10.43,0,0,1-3.21.53,7.69,7.69,0,0,1-2.87-7.74c-.31.26-14.74-1.34-14.74-1.34l-9.06-1.61-14.64-.55v-2.69L220.23,148l-6.43.5s-1.62,1.08-4.53-2.37c-.27-.27-4-5-7.46-3.72a6.68,6.68,0,0,1-5.88-1.07,35.71,35.71,0,0,0-5.08-2.94,3.65,3.65,0,0,1-4,0,32.49,32.49,0,0,0-4.28-.26,7,7,0,0,1-2.94-1.34,6.12,6.12,0,0,0-5.35-1.34c0-.26-1.91-1.62-1.91-1.62l-3,.74s-3,.88-4.1,3c-.27,1.07-2.4,3.48-2.4,3.48s-1.88.26-3.48.53-3.21.56-2.94,2.67.54,2.65-1.34,3.19-3.83,1.4-4,3.51c.06.49-5.73,7.07-5.73,7.07s-1.29,1.78-2.69.68c-.34,0-5.73,5.27-5.73,5.27a4.79,4.79,0,0,0-1.56,3.75Z"/><path class="cls-1" d="M135.33,172a51.32,51.32,0,0,0,5.88,5.88c3.48,2.94,7.78,4.79,9.36,10.13s2.38,7.51,2.91,10.43,1.34,2.64-.27,4.78-2.4,3.21.54,6.15,1.87,3.47,1.87,5.88-1.34,5.05,1.34,8.8,1.87,4,2.94,7.21,3.2,4.3,5.07,5.88,1.9,4.52,3.75,5.06,2.38-.54,2.91-2.41,1.87-5.85,2.67-4.52-.53,4.52,1.34,4,2.41-.3,3.47-1.34a11.54,11.54,0,0,1,5.35-2.65c1.87-.27,2.94-1.33,2.67-3.74s0-4-.53-4.81,0-4,0-4a8.66,8.66,0,0,1,3.18,2.14c1.07,1.33,1.6,2.4,3.21,1.6s2.67-.8,2.4.8,1.34,2.41,2.68,1.87,2.94,2.14,2.67,3.75-1.6,4,1.34,4.78,5,4,6.12,4.55a4.22,4.22,0,0,0,3.74.53c1.87-.53,1.6-.53,3.48.27s5.07,0,5.07,1.07-.51,4.54,3.75,5.61,3.18,2.67,5.32,4,5.07,2.11,5.07,3.45.81,1.6.54,2.94.27,1.87,1.87,4,1.34,3.21.8,4.27-1.6,2.43,1.34,4.28,2.4,3.72,1.6,4.52-2.14,2.14-1.6,3.47,1.63,2.95,3.47,2.95,2.92,1.33,3.72,3.2,2.14,3.77,2.94,5.35,0,5.05,4.54,5.05c3.21,1.61,3.5,2.14,6.42,2.41a8.06,8.06,0,0,1,5.05,1.87c1.61,1.07,1.07.53,2.94.8s3.74.27,5.35.53,1.33,1.61,2.94.54,2.14-1.6,2.14-2.94-.81-5.86-.81-8.26.27-1.87.54-5.35,1.85-5.08,2.91-8,.54-6.92.81-9.06.8-8.82,1.87-11.22,2.67-3.72,3.2-5.33a10.18,10.18,0,0,0,.27-6.41c-.8-2.41-2.4-4.57-2.14-7.48s-.53-5.06,2.68-7.73,5.1-4.81,8-4,4.79,3.21,8.8-.27,7.48-5.9,9.09-7.48a5.19,5.19,0,0,0,.53-6.12c-1.07-1.87-2.38-4.55,1.07-7.22s1.31-3.45,2.65-5.86.27-6.14,6.15-4.81,10.13,3.48,14.14,2.14,6.68-5.34,10.15-5.61,3.72-2.14,7.73-2.67,4.54,0,8.82-1.34,9.06-1.9,10.4-4.54,1.34-2.38.8-5.86-1.38-3.2-1.38-3.2-2.87,1.31-3.94-5.35c0,0,0-6.37-4.81-5.59a3.84,3.84,0,0,1-4.81-2.67c0-.81-1.53-6.14-12.24-5.61-2.17.26-14.44,1.06-14.44,1.06s-3.69-.79-4-1.33c.51,0-3.77,1.6-6.44,1.07-2.14,0-7.2.8-9.07,2.67L311,161.38s-3-2.92-6.73-1.35c.29.23,0,1.88,0,1.88s-5.3,2.9-7.17-1.38l-4.79-5.34-4.84.27-2.66,1.86-2.14,4.28,1.84,3.4a5.52,5.52,0,0,1-4,.85c-2.65-.26-.69-1.71-2.6-1.65s-4.57-1.43-5.38-1.48-1.61-1.12-2.95-.58-1.87.26-3.21.8a10.43,10.43,0,0,1-3.21.53,7.69,7.69,0,0,1-2.87-7.74c-.31.26-14.74-1.34-14.74-1.34l-9.06-1.61-14.64-.55v-2.69L220.23,148l-6.43.5s-1.62,1.08-4.53-2.37c-.27-.27-4-5-7.46-3.72a6.68,6.68,0,0,1-5.88-1.07,35.71,35.71,0,0,0-5.08-2.94,3.65,3.65,0,0,1-4,0,32.49,32.49,0,0,0-4.28-.26,7,7,0,0,1-2.94-1.34,6.12,6.12,0,0,0-5.35-1.34c0-.26-1.91-1.62-1.91-1.62l-3,.74s-3,.88-4.1,3c-.27,1.07-2.4,3.48-2.4,3.48s-1.88.26-3.48.53-3.21.56-2.94,2.67.54,2.65-1.34,3.19-3.83,1.4-4,3.51c.06.49-5.73,7.07-5.73,7.07s-1.29,1.78-2.69.68c-.34,0-5.73,5.27-5.73,5.27a4.79,4.79,0,0,0-1.56,3.75Z"/><path class="cls-1" d="M277.9,302.75c0-.32,2.16,5.41-.51,8.06s-5.88,2.38-7.75,5.06-3.74,6.41-3.74,9.62.24,9.06-1.88,11.2-8,7-9.59,9.35-1.61,6.13-5.88,7.46-8.26,4.81-7.2,7.75,1.07,1.85,0,5.33-3.74,7.48-5.88,12-3.2,8.8-2.94,12.54-4,7,0,11.23,1.61,5.58,3.75,8,5.07,5.9,3.47,9.09-5.88,8.26-7.75,8.53-1.09-2.14-4.81,0-5.05,2.4-5.86,4.54-1.87,2.7-3.2,6.15.8,4.52-3.48,5.58-6.17,2.14-7,5.62a21.78,21.78,0,0,1-2.65,6.41c-.53,1.07-2.94,3.18-5.88,4.52a12.56,12.56,0,0,0-5.07,4.81c-.81,1.07-3.72,4-10.67,1.61-1.87,1.33-4.54,2.69-5.61,6.41s1.07,3.18-2.68,5.32-7.72,1.07-11.2,1.87-5.34,3.48-7.21,5.62-1.87,3.76-1.34,6.94-1.07,2.92.27,6.39,2.67,5.08,2.4,6.42S157,511,157,511s-7.46-3.74-10.66-5.88-7.51-6.15-10.43-7.75-5.59-4-9.33-5.59S117,486.7,117,486.7s4.54-1.87,7-1.07,3.47.54,5.08,2.68,6.39,6.41,7.19,4.54.27-2.14-.27-4.54-.53-2.41.81-4.55,1.33-2.16.8-5.08-1.34-2.38.8-5.05.27-2.67,2.94-4.28,4.54-6.17,4.28-9.08-1.34-4.26,1.87-5.86,6.92-3.74,8.52-5.61,1.88-2.41,6.15-2.67,7.46-1.07,8.8-2.94,3.74-3.72,3.2-7.2,0-5.07-4.25-8.28-8-5.06-7.21-10.13,1.07-8.56,3.47-9.36,4,.8,7.73-1.6,5.34-3.19,5.34-6.39a15.73,15.73,0,0,1,2.94-8.56c1.61-2.4,1.87-5.85,1.87-9.59s-1.6-6.42-1.33-8.82.53-2.94,1.87-4,1.33-2.38-1.07-4-2.94-2.94-2.94-5.88-1.07-4.54-1.34-6.14,1.61-2.41-1.87-1.87-6.66-.78-7.46-3.45-2.94-3.75-4.81-5.89-1.87-4-1.87-6.94-1.34-4-3.74-3.75-6.12-1.31-8.26-4.78S148.2,322,149,319.34s0-3.77-2.41-6.68-2.67-4.25-1.06-5.86,1.33-5.07.26-7.48.8-5.05-.8-7.46,0-7.48,2.14-10.69,4-8.26,5.32-11.74.8-4,3.47-8.28,3.75-2.65,2.68-7.73-1.1-6.41-4-9.35-2.65-3.45-5.59-6.93-5.08-5.08-5.35-11.22,3.75-5.86.27-10.67-5.61-8.29-5.61-8.29a11.37,11.37,0,0,1-2.14-4.27c-.53-2.38-1.85-2.65-3.18-4.79a9.38,9.38,0,0,1-1.87-5.61,12.9,12.9,0,0,0-.54-3.74l2.68-2.79s0-7.08,2.38-9.75c.26.53.21-2.6.21-2.6l5.67,4.47s7.75,4.52,8.82,8,3.71,12.86,3.71,13.9,1.32,1.85-1.6,4.52c-.27,0-1.6,1.61,1.07,4,1.07,1.34,2.14,2.94,2.14,2.94s.8.8.26,3.21c-.26,2.4-.53,5.85.27,7.19s3.48,6.15,3.48,6.15.53,4,1.6,5.61a11.37,11.37,0,0,0,4,3.74c1.22,1.35,1.95,3.52,2.67,4.39a2,2,0,0,0,3.36,0,41.5,41.5,0,0,1,2-5.54c0-.14,1.3-2.35,1.74.58a14,14,0,0,0,.14,2.64,10.38,10.38,0,0,0,3.48-.72c.86-.58,2.58-2.78,6.07-3.22,0,0,3.48.58,2.61-5.64,0-.44-.72-3.77-.72-3.77l.24-3.15,2.11,1.13,2,2.31s1.19,1,2.26.3c.06,0,1.65-.59,1.65-.59l.73.73.29,1.73s1.07,1.75,2.41.8c-.1-.07,2.94.18,2.51,4.41,0,.15-.87,3.37,1,4.09.29-.18,4.23,1.59,5.39,3.62a8.65,8.65,0,0,1,1.22,1l2.54.92,2.9-.72,3,1h2.89l.93.66s-.67,3.83,2.4,5a35.59,35.59,0,0,0,3.51,1.3l1.45,1.3,1.7,2,4.81,2.64s1.17,3.3.8,3.75-.22.74.65,2,2.17,3.62,2.17,3.62.58,1.78-.14,2.62-1.16,3.13,1.88,4.9c1.74,1.34,2.41,2.55,1.06,3.9-1.21,1.2-2.65,2.8-.92,4.39a5.58,5.58,0,0,0,1.31,1.88s3.07-.29,4.23,1.74,3.91,7,3.91,7,0,5.31,4.54,5.05c.09,0,5.62,2.93,9.24,2.93-.58,0,3.19,2.17,3.19,2.17l7.32.51,1.94,1.08S277.92,303.07,277.9,302.75Z"/><path class="cls-1" d="M277.9,302.75c0-.32,2.16,5.41-.51,8.06s-5.88,2.38-7.75,5.06-3.74,6.41-3.74,9.62.24,9.06-1.88,11.2-8,7-9.59,9.35-1.61,6.13-5.88,7.46-8.26,4.81-7.2,7.75,1.07,1.85,0,5.33-3.74,7.48-5.88,12-3.2,8.8-2.94,12.54-4,7,0,11.23,1.61,5.58,3.75,8,5.07,5.9,3.47,9.09-5.88,8.26-7.75,8.53-1.09-2.14-4.81,0-5.05,2.4-5.86,4.54-1.87,2.7-3.2,6.15.8,4.52-3.48,5.58-6.17,2.14-7,5.62a21.78,21.78,0,0,1-2.65,6.41c-.53,1.07-2.94,3.18-5.88,4.52a12.56,12.56,0,0,0-5.07,4.81c-.81,1.07-3.72,4-10.67,1.61-1.87,1.33-4.54,2.69-5.61,6.41s1.07,3.18-2.68,5.32-7.72,1.07-11.2,1.87-5.34,3.48-7.21,5.62-1.87,3.76-1.34,6.94-1.07,2.92.27,6.39,2.67,5.08,2.4,6.42S157,511,157,511s-7.46-3.74-10.66-5.88-7.51-6.15-10.43-7.75-5.59-4-9.33-5.59S117,486.7,117,486.7s4.54-1.87,7-1.07,3.47.54,5.08,2.68,6.39,6.41,7.19,4.54.27-2.14-.27-4.54-.53-2.41.81-4.55,1.33-2.16.8-5.08-1.34-2.38.8-5.05.27-2.67,2.94-4.28,4.54-6.17,4.28-9.08-1.34-4.26,1.87-5.86,6.92-3.74,8.52-5.61,1.88-2.41,6.15-2.67,7.46-1.07,8.8-2.94,3.74-3.72,3.2-7.2,0-5.07-4.25-8.28-8-5.06-7.21-10.13,1.07-8.56,3.47-9.36,4,.8,7.73-1.6,5.34-3.19,5.34-6.39a15.73,15.73,0,0,1,2.94-8.56c1.61-2.4,1.87-5.85,1.87-9.59s-1.6-6.42-1.33-8.82.53-2.94,1.87-4,1.33-2.38-1.07-4-2.94-2.94-2.94-5.88-1.07-4.54-1.34-6.14,1.61-2.41-1.87-1.87-6.66-.78-7.46-3.45-2.94-3.75-4.81-5.89-1.87-4-1.87-6.94-1.34-4-3.74-3.75-6.12-1.31-8.26-4.78S148.2,322,149,319.34s0-3.77-2.41-6.68-2.67-4.25-1.06-5.86,1.33-5.07.26-7.48.8-5.05-.8-7.46,0-7.48,2.14-10.69,4-8.26,5.32-11.74.8-4,3.47-8.28,3.75-2.65,2.68-7.73-1.1-6.41-4-9.35-2.65-3.45-5.59-6.93-5.08-5.08-5.35-11.22,3.75-5.86.27-10.67-5.61-8.29-5.61-8.29a11.37,11.37,0,0,1-2.14-4.27c-.53-2.38-1.85-2.65-3.18-4.79a9.38,9.38,0,0,1-1.87-5.61,12.9,12.9,0,0,0-.54-3.74l2.68-2.79s0-7.08,2.38-9.75c.26.53.21-2.6.21-2.6l5.67,4.47s7.75,4.52,8.82,8,3.71,12.86,3.71,13.9,1.32,1.85-1.6,4.52c-.27,0-1.6,1.61,1.07,4,1.07,1.34,2.14,2.94,2.14,2.94s.8.8.26,3.21c-.26,2.4-.53,5.85.27,7.19s3.48,6.15,3.48,6.15.53,4,1.6,5.61a11.37,11.37,0,0,0,4,3.74c1.22,1.35,1.95,3.52,2.67,4.39a2,2,0,0,0,3.36,0,41.5,41.5,0,0,1,2-5.54c0-.14,1.3-2.35,1.74.58a14,14,0,0,0,.14,2.64,10.38,10.38,0,0,0,3.48-.72c.86-.58,2.58-2.78,6.07-3.22,0,0,3.48.58,2.61-5.64,0-.44-.72-3.77-.72-3.77l.24-3.15,2.11,1.13,2,2.31s1.19,1,2.26.3c.06,0,1.65-.59,1.65-.59l.73.73.29,1.73s1.07,1.75,2.41.8c-.1-.07,2.94.18,2.51,4.41,0,.15-.87,3.37,1,4.09.29-.18,4.23,1.59,5.39,3.62a8.65,8.65,0,0,1,1.22,1l2.54.92,2.9-.72,3,1h2.89l.93.66s-.67,3.83,2.4,5a35.59,35.59,0,0,0,3.51,1.3l1.45,1.3,1.7,2,4.81,2.64s1.17,3.3.8,3.75-.22.74.65,2,2.17,3.62,2.17,3.62.58,1.78-.14,2.62-1.16,3.13,1.88,4.9c1.74,1.34,2.41,2.55,1.06,3.9-1.21,1.2-2.65,2.8-.92,4.39a5.58,5.58,0,0,0,1.31,1.88s3.07-.29,4.23,1.74,3.91,7,3.91,7,0,5.31,4.54,5.05c.09,0,5.62,2.93,9.24,2.93-.58,0,3.19,2.17,3.19,2.17l7.32.51,1.94,1.08S277.92,303.07,277.9,302.75Z"/><path class="cls-3" d="M238.13,80.62c-.11.8-12-2-12.27-1.46a6.65,6.65,0,0,1-1.54,2.09c-1.34,1.35-3.22,5.11-5.64,6.19s-4-1.08-5.65.8-5,1.89-6.59,1.89-5.38-2.29-6.72-.27-5.38,6.85-6.45,8.46-2,5.11-5,7.26-2.95,2.29-5.64,3.09-4.31.27-5.11,1.62-2.42,1.07-3.23,2.69a11.9,11.9,0,0,1-3,3.22l-3.09-1.07h-2.42a41.63,41.63,0,0,0,.54-4.84c0-1.62-.54-3.36-.54-5.24a11.32,11.32,0,0,0-1.34-4.57c-.54-1.35-.81-1.62.54-3s.8-2.69.8-4.84-.27-.4,1.08-2.82a9.28,9.28,0,0,0,1.34-4,14.19,14.19,0,0,1,2.82-3.22C173,81,172.16,79.91,172.43,78s.81-3.35,3.49-6.31,2.42-3,3.5-5.38,1.08-6.64,1.08-6.64,1.35-1.3,3.63-3.85a8.79,8.79,0,0,1,.94-1.21l.54.16-.44-.27c1.28-1.5,3.4-3.8,4.42-4.27a12.39,12.39,0,0,0,6.9-7.45A11.78,11.78,0,0,0,197.3,39s3.23-3.63,3.23-6.32a17.71,17.71,0,0,1,.18-3.4l.89-5.2s3-2.69,3-4.58l1.53-1.34s-.32-3.9,4.25-3.9l.54-.8,4.3-4.31V7.31s6.37-.77,3.59-6.1c-.36-.08,6.22,2.34,8.1,2.34a23.71,23.71,0,0,0,4.84-.81S234.07.05,236.66,5c.7,2.29,2.77,7.1,7.58,4.43.24,0,3.47,6.2,10.46-.52.27.26,6.19-.27,6.19-.27L264,6.51h3l4.57,4.57,3.23.27A2.18,2.18,0,0,0,275,13.5c.81.8,3.5,3.89,1.62,4.16s-2.42-.27-2.42,1.62-.27,2.42-2.15,2.68-2.42.81-2.69,1.62-3.23.27-3.23.27a13.88,13.88,0,0,0-.54,4c0,2.42,2.15,4.17.81,5.65S264,38,264.25,39.31s.53,3.76-.27,4.84a7.2,7.2,0,0,0-1.62,3.22c-.4,1.62.41,2.42-2,2.69s-3-.8-3.76,1.08-1.35,2.28-2.69,2.82-1.89.27-2.42,1.88-2.15.54-3.5,1.08-2.83,2.69-3.76,4.84-.67,3.22-3.36,3.49-4.3.54-5.38,1.89,3.19,4.2,2.65,5.94S238.4,78.73,238.13,80.62Z"/><path class="cls-3" d="M238.13,80.62c-.11.8-12-2-12.27-1.46a6.65,6.65,0,0,1-1.54,2.09c-1.34,1.35-3.22,5.11-5.64,6.19s-4-1.08-5.65.8-5,1.89-6.59,1.89-5.38-2.29-6.72-.27-5.38,6.85-6.45,8.46-2,5.11-5,7.26-2.95,2.29-5.64,3.09-4.31.27-5.11,1.62-2.42,1.07-3.23,2.69a11.9,11.9,0,0,1-3,3.22l-3.09-1.07h-2.42a41.63,41.63,0,0,0,.54-4.84c0-1.62-.54-3.36-.54-5.24a11.32,11.32,0,0,0-1.34-4.57c-.54-1.35-.81-1.62.54-3s.8-2.69.8-4.84-.27-.4,1.08-2.82a9.28,9.28,0,0,0,1.34-4,14.19,14.19,0,0,1,2.82-3.22C173,81,172.16,79.91,172.43,78s.81-3.35,3.49-6.31,2.42-3,3.5-5.38,1.08-6.64,1.08-6.64,1.35-1.3,3.63-3.85a8.79,8.79,0,0,1,.94-1.21l.54.16-.44-.27c1.28-1.5,3.4-3.8,4.42-4.27a12.39,12.39,0,0,0,6.9-7.45A11.78,11.78,0,0,0,197.3,39s3.23-3.63,3.23-6.32a17.71,17.71,0,0,1,.18-3.4l.89-5.2s3-2.69,3-4.58l1.53-1.34s-.32-3.9,4.25-3.9l.54-.8,4.3-4.31V7.31s6.37-.77,3.59-6.1c-.36-.08,6.22,2.34,8.1,2.34a23.71,23.71,0,0,0,4.84-.81S234.07.05,236.66,5c.7,2.29,2.77,7.1,7.58,4.43.24,0,3.47,6.2,10.46-.52.27.26,6.19-.27,6.19-.27L264,6.51h3l4.57,4.57,3.23.27A2.18,2.18,0,0,0,275,13.5c.81.8,3.5,3.89,1.62,4.16s-2.42-.27-2.42,1.62-.27,2.42-2.15,2.68-2.42.81-2.69,1.62-3.23.27-3.23.27a13.88,13.88,0,0,0-.54,4c0,2.42,2.15,4.17.81,5.65S264,38,264.25,39.31s.53,3.76-.27,4.84a7.2,7.2,0,0,0-1.62,3.22c-.4,1.62.41,2.42-2,2.69s-3-.8-3.76,1.08-1.35,2.28-2.69,2.82-1.89.27-2.42,1.88-2.15.54-3.5,1.08-2.83,2.69-3.76,4.84-.67,3.22-3.36,3.49-4.3.54-5.38,1.89,3.19,4.2,2.65,5.94S238.4,78.73,238.13,80.62Z"/><path class="cls-3" d="M106.75,98.8,104,95.2l-.56-4.56L105.15,88l.26-1.6-3.7-7.07,3.44-2.91a15.42,15.42,0,0,0,1.8-5c.19-2.22.48-2.39,1.5-3.4s.67-3,.33-6.07,3-4.32,3-4.32l3.46,4.28,2.9,7.79s5.39-.67,4.72-1.35a1.55,1.55,0,0,1,2.42,1.09l1.62,2.28a10.8,10.8,0,0,1,1.25.35c2.6.35,3.13,4.59,2.87,4.67-1.26,3.1,1.8,6.45,1.8,6.45l.15,2.91s-.68,4.26-1.35,7-.67,4.71-2.7,7.41-1,4.72-1,7.08,3.37,4.26,3.37,4.26l2.41,1.49s.46,3,.51,2.89c.28,2,3.32,2.13,3.32,2.13l2.75.23.33,6.07.92,4.36s1.33.88,1.44.58c4.33,2.13,2.36,3.7,2.36,3.7s-.92.82-.92.59c-2-.22-1.77,3.78-2,4-1.33.66-1.12,2.82-1.12,2.82s1.35,2.06,1.12,2.06a2.36,2.36,0,0,1-.11,2.32l-2.33,2.34.45,4.66a15,15,0,0,1-1.33,2.66c0,4.44,3.88,4,3.88,4s-3.37,3-5.73,5.27-1,4.38-1.34,9.44-.68,3.37-2,7.41a17.59,17.59,0,0,0-.67,2.52,14.15,14.15,0,0,1,.1,2.42s-.43-.5-.1-2.42a9.17,9.17,0,0,0-1.24-3.87c-1.57-2.36,0-3.37,0-6.74s-1-6.74-2.7-8.08-1.68-1.24-2-5.28-1.35-4.38-4.72-5.73-1-3-2-6.4a17.84,17.84,0,0,1-.34-9.32,20.34,20.34,0,0,1,1.69-4.38c.67-1.35.67-4.38.67-7s1.69-7.39,1.69-7.39-.34.65-1.69-.36-1-1-1.34-4.38-1.35-4-3.37-4.72-1.69-4.94-2-6.62-1.57,0-3.25,1-2-1.69-2.7-3.37S106.75,98.8,106.75,98.8Z"/><path class="cls-3" d="M106.75,98.8,104,95.2l-.56-4.56L105.15,88l.26-1.6-3.7-7.07,3.44-2.91a15.42,15.42,0,0,0,1.8-5c.19-2.22.48-2.39,1.5-3.4s.67-3,.33-6.07,3-4.32,3-4.32l3.46,4.28,2.9,7.79s5.39-.67,4.72-1.35a1.55,1.55,0,0,1,2.42,1.09l1.62,2.28a10.8,10.8,0,0,1,1.25.35c2.6.35,3.13,4.59,2.87,4.67-1.26,3.1,1.8,6.45,1.8,6.45l.15,2.91s-.68,4.26-1.35,7-.67,4.71-2.7,7.41-1,4.72-1,7.08,3.37,4.26,3.37,4.26l2.41,1.49s.46,3,.51,2.89c.28,2,3.32,2.13,3.32,2.13l2.75.23.33,6.07.92,4.36s1.33.88,1.44.58c4.33,2.13,2.36,3.7,2.36,3.7s-.92.82-.92.59c-2-.22-1.77,3.78-2,4-1.33.66-1.12,2.82-1.12,2.82s1.35,2.06,1.12,2.06a2.36,2.36,0,0,1-.11,2.32l-2.33,2.34.45,4.66a15,15,0,0,1-1.33,2.66c0,4.44,3.88,4,3.88,4s-3.37,3-5.73,5.27-1,4.38-1.34,9.44-.68,3.37-2,7.41a17.59,17.59,0,0,0-.67,2.52,14.15,14.15,0,0,1,.1,2.42s-.43-.5-.1-2.42a9.17,9.17,0,0,0-1.24-3.87c-1.57-2.36,0-3.37,0-6.74s-1-6.74-2.7-8.08-1.68-1.24-2-5.28-1.35-4.38-4.72-5.73-1-3-2-6.4a17.84,17.84,0,0,1-.34-9.32,20.34,20.34,0,0,1,1.69-4.38c.67-1.35.67-4.38.67-7s1.69-7.39,1.69-7.39-.34.65-1.69-.36-1-1-1.34-4.38-1.35-4-3.37-4.72-1.69-4.94-2-6.62-1.57,0-3.25,1-2-1.69-2.7-3.37S106.75,98.8,106.75,98.8Z"/></svg>